<?xml version="1.0" encoding="utf-8" standalone="no"?>
<!DOCTYPE svg PUBLIC "-//W3C//DTD SVG 1.1//EN"
  "http://www.w3.org/Graphics/SVG/1.1/DTD/svg11.dtd">
<svg xmlns:xlink="http://www.w3.org/1999/xlink" width="520.421562pt" height="339.769844pt" viewBox="0 0 520.421562 339.769844" xmlns="http://www.w3.org/2000/svg" version="1.1">
 <metadata>
  <rdf:RDF xmlns:dc="http://purl.org/dc/elements/1.1/" xmlns:cc="http://creativecommons.org/ns#" xmlns:rdf="http://www.w3.org/1999/02/22-rdf-syntax-ns#">
   <cc:Work>
    <dc:type rdf:resource="http://purl.org/dc/dcmitype/StillImage"/>
    <dc:date>2026-06-03T19:17:56.142220</dc:date>
    <dc:format>image/svg+xml</dc:format>
    <dc:creator>
     <cc:Agent>
      <dc:title>Matplotlib v3.10.8, https://matplotlib.org/</dc:title>
     </cc:Agent>
    </dc:creator>
   </cc:Work>
  </rdf:RDF>
 </metadata>
 <defs>
  <style type="text/css">*{stroke-linejoin: round; stroke-linecap: butt}</style>
 </defs>
 <g id="figure_1">
  <g id="patch_1">
   <path d="M 0 339.769844 
L 520.421562 339.769844 
L 520.421562 0 
L 0 0 
z
" style="fill: #ffffff"/>
  </g>
  <g id="axes_1">
   <g id="patch_2">
    <path d="M 66.821562 300.277969 
L 513.221563 300.277969 
L 513.221563 23.077969 
L 66.821562 23.077969 
z
" style="fill: #ffffff"/>
   </g>
   <g id="matplotlib.axis_1">
    <g id="xtick_1">
     <g id="line2d_1">
      <path d="M 85.073184 300.277969 
L 85.073184 23.077969 
" clip-path="url(#p12ca99ebf5)" style="fill: none; stroke: #b0b0b0; stroke-opacity: 0.3; stroke-width: 0.8; stroke-linecap: square"/>
     </g>
     <g id="line2d_2">
      <defs>
       <path id="mb78472828d" d="M 0 0 
L 0 3.5 
" style="stroke: #000000; stroke-width: 0.8"/>
      </defs>
      <g>
       <use xlink:href="#mb78472828d" x="85.073184" y="300.277969" style="stroke: #000000; stroke-width: 0.8"/>
      </g>
     </g>
     <g id="text_1">
      <!-- 0 -->
      <g transform="translate(81.891934 314.876406) scale(0.1 -0.1)">
       <defs>
        <path id="DejaVuSans-30" d="M 2034 4250 
Q 1547 4250 1301 3770 
Q 1056 3291 1056 2328 
Q 1056 1369 1301 889 
Q 1547 409 2034 409 
Q 2525 409 2770 889 
Q 3016 1369 3016 2328 
Q 3016 3291 2770 3770 
Q 2525 4250 2034 4250 
z
M 2034 4750 
Q 2819 4750 3233 4129 
Q 3647 3509 3647 2328 
Q 3647 1150 3233 529 
Q 2819 -91 2034 -91 
Q 1250 -91 836 529 
Q 422 1150 422 2328 
Q 422 3509 836 4129 
Q 1250 4750 2034 4750 
z
" transform="scale(0.015625)"/>
       </defs>
       <use xlink:href="#DejaVuSans-30"/>
      </g>
     </g>
    </g>
    <g id="xtick_2">
     <g id="line2d_3">
      <path d="M 136.055368 300.277969 
L 136.055368 23.077969 
" clip-path="url(#p12ca99ebf5)" style="fill: none; stroke: #b0b0b0; stroke-opacity: 0.3; stroke-width: 0.8; stroke-linecap: square"/>
     </g>
     <g id="line2d_4">
      <g>
       <use xlink:href="#mb78472828d" x="136.055368" y="300.277969" style="stroke: #000000; stroke-width: 0.8"/>
      </g>
     </g>
     <g id="text_2">
      <!-- 25 -->
      <g transform="translate(129.692868 314.876406) scale(0.1 -0.1)">
       <defs>
        <path id="DejaVuSans-32" d="M 1228 531 
L 3431 531 
L 3431 0 
L 469 0 
L 469 531 
Q 828 903 1448 1529 
Q 2069 2156 2228 2338 
Q 2531 2678 2651 2914 
Q 2772 3150 2772 3378 
Q 2772 3750 2511 3984 
Q 2250 4219 1831 4219 
Q 1534 4219 1204 4116 
Q 875 4013 500 3803 
L 500 4441 
Q 881 4594 1212 4672 
Q 1544 4750 1819 4750 
Q 2544 4750 2975 4387 
Q 3406 4025 3406 3419 
Q 3406 3131 3298 2873 
Q 3191 2616 2906 2266 
Q 2828 2175 2409 1742 
Q 1991 1309 1228 531 
z
" transform="scale(0.015625)"/>
        <path id="DejaVuSans-35" d="M 691 4666 
L 3169 4666 
L 3169 4134 
L 1269 4134 
L 1269 2991 
Q 1406 3038 1543 3061 
Q 1681 3084 1819 3084 
Q 2600 3084 3056 2656 
Q 3513 2228 3513 1497 
Q 3513 744 3044 326 
Q 2575 -91 1722 -91 
Q 1428 -91 1123 -41 
Q 819 9 494 109 
L 494 744 
Q 775 591 1075 516 
Q 1375 441 1709 441 
Q 2250 441 2565 725 
Q 2881 1009 2881 1497 
Q 2881 1984 2565 2268 
Q 2250 2553 1709 2553 
Q 1456 2553 1204 2497 
Q 953 2441 691 2322 
L 691 4666 
z
" transform="scale(0.015625)"/>
       </defs>
       <use xlink:href="#DejaVuSans-32"/>
       <use xlink:href="#DejaVuSans-35" transform="translate(63.623047 0)"/>
      </g>
     </g>
    </g>
    <g id="xtick_3">
     <g id="line2d_5">
      <path d="M 187.037552 300.277969 
L 187.037552 23.077969 
" clip-path="url(#p12ca99ebf5)" style="fill: none; stroke: #b0b0b0; stroke-opacity: 0.3; stroke-width: 0.8; stroke-linecap: square"/>
     </g>
     <g id="line2d_6">
      <g>
       <use xlink:href="#mb78472828d" x="187.037552" y="300.277969" style="stroke: #000000; stroke-width: 0.8"/>
      </g>
     </g>
     <g id="text_3">
      <!-- 50 -->
      <g transform="translate(180.675052 314.876406) scale(0.1 -0.1)">
       <use xlink:href="#DejaVuSans-35"/>
       <use xlink:href="#DejaVuSans-30" transform="translate(63.623047 0)"/>
      </g>
     </g>
    </g>
    <g id="xtick_4">
     <g id="line2d_7">
      <path d="M 238.019735 300.277969 
L 238.019735 23.077969 
" clip-path="url(#p12ca99ebf5)" style="fill: none; stroke: #b0b0b0; stroke-opacity: 0.3; stroke-width: 0.8; stroke-linecap: square"/>
     </g>
     <g id="line2d_8">
      <g>
       <use xlink:href="#mb78472828d" x="238.019735" y="300.277969" style="stroke: #000000; stroke-width: 0.8"/>
      </g>
     </g>
     <g id="text_4">
      <!-- 75 -->
      <g transform="translate(231.657235 314.876406) scale(0.1 -0.1)">
       <defs>
        <path id="DejaVuSans-37" d="M 525 4666 
L 3525 4666 
L 3525 4397 
L 1831 0 
L 1172 0 
L 2766 4134 
L 525 4134 
L 525 4666 
z
" transform="scale(0.015625)"/>
       </defs>
       <use xlink:href="#DejaVuSans-37"/>
       <use xlink:href="#DejaVuSans-35" transform="translate(63.623047 0)"/>
      </g>
     </g>
    </g>
    <g id="xtick_5">
     <g id="line2d_9">
      <path d="M 289.001919 300.277969 
L 289.001919 23.077969 
" clip-path="url(#p12ca99ebf5)" style="fill: none; stroke: #b0b0b0; stroke-opacity: 0.3; stroke-width: 0.8; stroke-linecap: square"/>
     </g>
     <g id="line2d_10">
      <g>
       <use xlink:href="#mb78472828d" x="289.001919" y="300.277969" style="stroke: #000000; stroke-width: 0.8"/>
      </g>
     </g>
     <g id="text_5">
      <!-- 100 -->
      <g transform="translate(279.458169 314.876406) scale(0.1 -0.1)">
       <defs>
        <path id="DejaVuSans-31" d="M 794 531 
L 1825 531 
L 1825 4091 
L 703 3866 
L 703 4441 
L 1819 4666 
L 2450 4666 
L 2450 531 
L 3481 531 
L 3481 0 
L 794 0 
L 794 531 
z
" transform="scale(0.015625)"/>
       </defs>
       <use xlink:href="#DejaVuSans-31"/>
       <use xlink:href="#DejaVuSans-30" transform="translate(63.623047 0)"/>
       <use xlink:href="#DejaVuSans-30" transform="translate(127.246094 0)"/>
      </g>
     </g>
    </g>
    <g id="xtick_6">
     <g id="line2d_11">
      <path d="M 339.984102 300.277969 
L 339.984102 23.077969 
" clip-path="url(#p12ca99ebf5)" style="fill: none; stroke: #b0b0b0; stroke-opacity: 0.3; stroke-width: 0.8; stroke-linecap: square"/>
     </g>
     <g id="line2d_12">
      <g>
       <use xlink:href="#mb78472828d" x="339.984102" y="300.277969" style="stroke: #000000; stroke-width: 0.8"/>
      </g>
     </g>
     <g id="text_6">
      <!-- 125 -->
      <g transform="translate(330.440352 314.876406) scale(0.1 -0.1)">
       <use xlink:href="#DejaVuSans-31"/>
       <use xlink:href="#DejaVuSans-32" transform="translate(63.623047 0)"/>
       <use xlink:href="#DejaVuSans-35" transform="translate(127.246094 0)"/>
      </g>
     </g>
    </g>
    <g id="xtick_7">
     <g id="line2d_13">
      <path d="M 390.966286 300.277969 
L 390.966286 23.077969 
" clip-path="url(#p12ca99ebf5)" style="fill: none; stroke: #b0b0b0; stroke-opacity: 0.3; stroke-width: 0.8; stroke-linecap: square"/>
     </g>
     <g id="line2d_14">
      <g>
       <use xlink:href="#mb78472828d" x="390.966286" y="300.277969" style="stroke: #000000; stroke-width: 0.8"/>
      </g>
     </g>
     <g id="text_7">
      <!-- 150 -->
      <g transform="translate(381.422536 314.876406) scale(0.1 -0.1)">
       <use xlink:href="#DejaVuSans-31"/>
       <use xlink:href="#DejaVuSans-35" transform="translate(63.623047 0)"/>
       <use xlink:href="#DejaVuSans-30" transform="translate(127.246094 0)"/>
      </g>
     </g>
    </g>
    <g id="xtick_8">
     <g id="line2d_15">
      <path d="M 441.94847 300.277969 
L 441.94847 23.077969 
" clip-path="url(#p12ca99ebf5)" style="fill: none; stroke: #b0b0b0; stroke-opacity: 0.3; stroke-width: 0.8; stroke-linecap: square"/>
     </g>
     <g id="line2d_16">
      <g>
       <use xlink:href="#mb78472828d" x="441.94847" y="300.277969" style="stroke: #000000; stroke-width: 0.8"/>
      </g>
     </g>
     <g id="text_8">
      <!-- 175 -->
      <g transform="translate(432.40472 314.876406) scale(0.1 -0.1)">
       <use xlink:href="#DejaVuSans-31"/>
       <use xlink:href="#DejaVuSans-37" transform="translate(63.623047 0)"/>
       <use xlink:href="#DejaVuSans-35" transform="translate(127.246094 0)"/>
      </g>
     </g>
    </g>
    <g id="xtick_9">
     <g id="line2d_17">
      <path d="M 492.930653 300.277969 
L 492.930653 23.077969 
" clip-path="url(#p12ca99ebf5)" style="fill: none; stroke: #b0b0b0; stroke-opacity: 0.3; stroke-width: 0.8; stroke-linecap: square"/>
     </g>
     <g id="line2d_18">
      <g>
       <use xlink:href="#mb78472828d" x="492.930653" y="300.277969" style="stroke: #000000; stroke-width: 0.8"/>
      </g>
     </g>
     <g id="text_9">
      <!-- 200 -->
      <g transform="translate(483.386903 314.876406) scale(0.1 -0.1)">
       <use xlink:href="#DejaVuSans-32"/>
       <use xlink:href="#DejaVuSans-30" transform="translate(63.623047 0)"/>
       <use xlink:href="#DejaVuSans-30" transform="translate(127.246094 0)"/>
      </g>
     </g>
    </g>
    <g id="text_10">
     <!-- Smoothing parameter s -->
     <g transform="translate(218.976875 330.074219) scale(0.12 -0.12)">
      <defs>
       <path id="DejaVuSans-53" d="M 3425 4513 
L 3425 3897 
Q 3066 4069 2747 4153 
Q 2428 4238 2131 4238 
Q 1616 4238 1336 4038 
Q 1056 3838 1056 3469 
Q 1056 3159 1242 3001 
Q 1428 2844 1947 2747 
L 2328 2669 
Q 3034 2534 3370 2195 
Q 3706 1856 3706 1288 
Q 3706 609 3251 259 
Q 2797 -91 1919 -91 
Q 1588 -91 1214 -16 
Q 841 59 441 206 
L 441 856 
Q 825 641 1194 531 
Q 1563 422 1919 422 
Q 2459 422 2753 634 
Q 3047 847 3047 1241 
Q 3047 1584 2836 1778 
Q 2625 1972 2144 2069 
L 1759 2144 
Q 1053 2284 737 2584 
Q 422 2884 422 3419 
Q 422 4038 858 4394 
Q 1294 4750 2059 4750 
Q 2388 4750 2728 4690 
Q 3069 4631 3425 4513 
z
" transform="scale(0.015625)"/>
       <path id="DejaVuSans-6d" d="M 3328 2828 
Q 3544 3216 3844 3400 
Q 4144 3584 4550 3584 
Q 5097 3584 5394 3201 
Q 5691 2819 5691 2113 
L 5691 0 
L 5113 0 
L 5113 2094 
Q 5113 2597 4934 2840 
Q 4756 3084 4391 3084 
Q 3944 3084 3684 2787 
Q 3425 2491 3425 1978 
L 3425 0 
L 2847 0 
L 2847 2094 
Q 2847 2600 2669 2842 
Q 2491 3084 2119 3084 
Q 1678 3084 1418 2786 
Q 1159 2488 1159 1978 
L 1159 0 
L 581 0 
L 581 3500 
L 1159 3500 
L 1159 2956 
Q 1356 3278 1631 3431 
Q 1906 3584 2284 3584 
Q 2666 3584 2933 3390 
Q 3200 3197 3328 2828 
z
" transform="scale(0.015625)"/>
       <path id="DejaVuSans-6f" d="M 1959 3097 
Q 1497 3097 1228 2736 
Q 959 2375 959 1747 
Q 959 1119 1226 758 
Q 1494 397 1959 397 
Q 2419 397 2687 759 
Q 2956 1122 2956 1747 
Q 2956 2369 2687 2733 
Q 2419 3097 1959 3097 
z
M 1959 3584 
Q 2709 3584 3137 3096 
Q 3566 2609 3566 1747 
Q 3566 888 3137 398 
Q 2709 -91 1959 -91 
Q 1206 -91 779 398 
Q 353 888 353 1747 
Q 353 2609 779 3096 
Q 1206 3584 1959 3584 
z
" transform="scale(0.015625)"/>
       <path id="DejaVuSans-74" d="M 1172 4494 
L 1172 3500 
L 2356 3500 
L 2356 3053 
L 1172 3053 
L 1172 1153 
Q 1172 725 1289 603 
Q 1406 481 1766 481 
L 2356 481 
L 2356 0 
L 1766 0 
Q 1100 0 847 248 
Q 594 497 594 1153 
L 594 3053 
L 172 3053 
L 172 3500 
L 594 3500 
L 594 4494 
L 1172 4494 
z
" transform="scale(0.015625)"/>
       <path id="DejaVuSans-68" d="M 3513 2113 
L 3513 0 
L 2938 0 
L 2938 2094 
Q 2938 2591 2744 2837 
Q 2550 3084 2163 3084 
Q 1697 3084 1428 2787 
Q 1159 2491 1159 1978 
L 1159 0 
L 581 0 
L 581 4863 
L 1159 4863 
L 1159 2956 
Q 1366 3272 1645 3428 
Q 1925 3584 2291 3584 
Q 2894 3584 3203 3211 
Q 3513 2838 3513 2113 
z
" transform="scale(0.015625)"/>
       <path id="DejaVuSans-69" d="M 603 3500 
L 1178 3500 
L 1178 0 
L 603 0 
L 603 3500 
z
M 603 4863 
L 1178 4863 
L 1178 4134 
L 603 4134 
L 603 4863 
z
" transform="scale(0.015625)"/>
       <path id="DejaVuSans-6e" d="M 3513 2113 
L 3513 0 
L 2938 0 
L 2938 2094 
Q 2938 2591 2744 2837 
Q 2550 3084 2163 3084 
Q 1697 3084 1428 2787 
Q 1159 2491 1159 1978 
L 1159 0 
L 581 0 
L 581 3500 
L 1159 3500 
L 1159 2956 
Q 1366 3272 1645 3428 
Q 1925 3584 2291 3584 
Q 2894 3584 3203 3211 
Q 3513 2838 3513 2113 
z
" transform="scale(0.015625)"/>
       <path id="DejaVuSans-67" d="M 2906 1791 
Q 2906 2416 2648 2759 
Q 2391 3103 1925 3103 
Q 1463 3103 1205 2759 
Q 947 2416 947 1791 
Q 947 1169 1205 825 
Q 1463 481 1925 481 
Q 2391 481 2648 825 
Q 2906 1169 2906 1791 
z
M 3481 434 
Q 3481 -459 3084 -895 
Q 2688 -1331 1869 -1331 
Q 1566 -1331 1297 -1286 
Q 1028 -1241 775 -1147 
L 775 -588 
Q 1028 -725 1275 -790 
Q 1522 -856 1778 -856 
Q 2344 -856 2625 -561 
Q 2906 -266 2906 331 
L 2906 616 
Q 2728 306 2450 153 
Q 2172 0 1784 0 
Q 1141 0 747 490 
Q 353 981 353 1791 
Q 353 2603 747 3093 
Q 1141 3584 1784 3584 
Q 2172 3584 2450 3431 
Q 2728 3278 2906 2969 
L 2906 3500 
L 3481 3500 
L 3481 434 
z
" transform="scale(0.015625)"/>
       <path id="DejaVuSans-20" transform="scale(0.015625)"/>
       <path id="DejaVuSans-70" d="M 1159 525 
L 1159 -1331 
L 581 -1331 
L 581 3500 
L 1159 3500 
L 1159 2969 
Q 1341 3281 1617 3432 
Q 1894 3584 2278 3584 
Q 2916 3584 3314 3078 
Q 3713 2572 3713 1747 
Q 3713 922 3314 415 
Q 2916 -91 2278 -91 
Q 1894 -91 1617 61 
Q 1341 213 1159 525 
z
M 3116 1747 
Q 3116 2381 2855 2742 
Q 2594 3103 2138 3103 
Q 1681 3103 1420 2742 
Q 1159 2381 1159 1747 
Q 1159 1113 1420 752 
Q 1681 391 2138 391 
Q 2594 391 2855 752 
Q 3116 1113 3116 1747 
z
" transform="scale(0.015625)"/>
       <path id="DejaVuSans-61" d="M 2194 1759 
Q 1497 1759 1228 1600 
Q 959 1441 959 1056 
Q 959 750 1161 570 
Q 1363 391 1709 391 
Q 2188 391 2477 730 
Q 2766 1069 2766 1631 
L 2766 1759 
L 2194 1759 
z
M 3341 1997 
L 3341 0 
L 2766 0 
L 2766 531 
Q 2569 213 2275 61 
Q 1981 -91 1556 -91 
Q 1019 -91 701 211 
Q 384 513 384 1019 
Q 384 1609 779 1909 
Q 1175 2209 1959 2209 
L 2766 2209 
L 2766 2266 
Q 2766 2663 2505 2880 
Q 2244 3097 1772 3097 
Q 1472 3097 1187 3025 
Q 903 2953 641 2809 
L 641 3341 
Q 956 3463 1253 3523 
Q 1550 3584 1831 3584 
Q 2591 3584 2966 3190 
Q 3341 2797 3341 1997 
z
" transform="scale(0.015625)"/>
       <path id="DejaVuSans-72" d="M 2631 2963 
Q 2534 3019 2420 3045 
Q 2306 3072 2169 3072 
Q 1681 3072 1420 2755 
Q 1159 2438 1159 1844 
L 1159 0 
L 581 0 
L 581 3500 
L 1159 3500 
L 1159 2956 
Q 1341 3275 1631 3429 
Q 1922 3584 2338 3584 
Q 2397 3584 2469 3576 
Q 2541 3569 2628 3553 
L 2631 2963 
z
" transform="scale(0.015625)"/>
       <path id="DejaVuSans-65" d="M 3597 1894 
L 3597 1613 
L 953 1613 
Q 991 1019 1311 708 
Q 1631 397 2203 397 
Q 2534 397 2845 478 
Q 3156 559 3463 722 
L 3463 178 
Q 3153 47 2828 -22 
Q 2503 -91 2169 -91 
Q 1331 -91 842 396 
Q 353 884 353 1716 
Q 353 2575 817 3079 
Q 1281 3584 2069 3584 
Q 2775 3584 3186 3129 
Q 3597 2675 3597 1894 
z
M 3022 2063 
Q 3016 2534 2758 2815 
Q 2500 3097 2075 3097 
Q 1594 3097 1305 2825 
Q 1016 2553 972 2059 
L 3022 2063 
z
" transform="scale(0.015625)"/>
       <path id="DejaVuSans-73" d="M 2834 3397 
L 2834 2853 
Q 2591 2978 2328 3040 
Q 2066 3103 1784 3103 
Q 1356 3103 1142 2972 
Q 928 2841 928 2578 
Q 928 2378 1081 2264 
Q 1234 2150 1697 2047 
L 1894 2003 
Q 2506 1872 2764 1633 
Q 3022 1394 3022 966 
Q 3022 478 2636 193 
Q 2250 -91 1575 -91 
Q 1294 -91 989 -36 
Q 684 19 347 128 
L 347 722 
Q 666 556 975 473 
Q 1284 391 1588 391 
Q 1994 391 2212 530 
Q 2431 669 2431 922 
Q 2431 1156 2273 1281 
Q 2116 1406 1581 1522 
L 1381 1569 
Q 847 1681 609 1914 
Q 372 2147 372 2553 
Q 372 3047 722 3315 
Q 1072 3584 1716 3584 
Q 2034 3584 2315 3537 
Q 2597 3491 2834 3397 
z
" transform="scale(0.015625)"/>
      </defs>
      <use xlink:href="#DejaVuSans-53"/>
      <use xlink:href="#DejaVuSans-6d" transform="translate(63.476562 0)"/>
      <use xlink:href="#DejaVuSans-6f" transform="translate(160.888672 0)"/>
      <use xlink:href="#DejaVuSans-6f" transform="translate(222.070312 0)"/>
      <use xlink:href="#DejaVuSans-74" transform="translate(283.251953 0)"/>
      <use xlink:href="#DejaVuSans-68" transform="translate(322.460938 0)"/>
      <use xlink:href="#DejaVuSans-69" transform="translate(385.839844 0)"/>
      <use xlink:href="#DejaVuSans-6e" transform="translate(413.623047 0)"/>
      <use xlink:href="#DejaVuSans-67" transform="translate(477.001953 0)"/>
      <use xlink:href="#DejaVuSans-20" transform="translate(540.478516 0)"/>
      <use xlink:href="#DejaVuSans-70" transform="translate(572.265625 0)"/>
      <use xlink:href="#DejaVuSans-61" transform="translate(635.742188 0)"/>
      <use xlink:href="#DejaVuSans-72" transform="translate(697.021484 0)"/>
      <use xlink:href="#DejaVuSans-61" transform="translate(738.134766 0)"/>
      <use xlink:href="#DejaVuSans-6d" transform="translate(799.414062 0)"/>
      <use xlink:href="#DejaVuSans-65" transform="translate(896.826172 0)"/>
      <use xlink:href="#DejaVuSans-74" transform="translate(958.349609 0)"/>
      <use xlink:href="#DejaVuSans-65" transform="translate(997.558594 0)"/>
      <use xlink:href="#DejaVuSans-72" transform="translate(1059.082031 0)"/>
      <use xlink:href="#DejaVuSans-20" transform="translate(1100.195312 0)"/>
      <use xlink:href="#DejaVuSans-73" transform="translate(1131.982422 0)"/>
     </g>
    </g>
   </g>
   <g id="matplotlib.axis_2">
    <g id="ytick_1">
     <g id="line2d_19">
      <path d="M 66.821562 265.405206 
L 513.221563 265.405206 
" clip-path="url(#p12ca99ebf5)" style="fill: none; stroke: #b0b0b0; stroke-opacity: 0.3; stroke-width: 0.8; stroke-linecap: square"/>
     </g>
     <g id="line2d_20">
      <defs>
       <path id="m563376c4d2" d="M 0 0 
L -3.5 0 
" style="stroke: #000000; stroke-width: 0.8"/>
      </defs>
      <g>
       <use xlink:href="#m563376c4d2" x="66.821562" y="265.405206" style="stroke: #000000; stroke-width: 0.8"/>
      </g>
     </g>
     <g id="text_11">
      <!-- −0.025 -->
      <g transform="translate(22.81375 269.204424) scale(0.1 -0.1)">
       <defs>
        <path id="DejaVuSans-2212" d="M 678 2272 
L 4684 2272 
L 4684 1741 
L 678 1741 
L 678 2272 
z
" transform="scale(0.015625)"/>
        <path id="DejaVuSans-2e" d="M 684 794 
L 1344 794 
L 1344 0 
L 684 0 
L 684 794 
z
" transform="scale(0.015625)"/>
       </defs>
       <use xlink:href="#DejaVuSans-2212"/>
       <use xlink:href="#DejaVuSans-30" transform="translate(83.789062 0)"/>
       <use xlink:href="#DejaVuSans-2e" transform="translate(147.412109 0)"/>
       <use xlink:href="#DejaVuSans-30" transform="translate(179.199219 0)"/>
       <use xlink:href="#DejaVuSans-32" transform="translate(242.822266 0)"/>
       <use xlink:href="#DejaVuSans-35" transform="translate(306.445312 0)"/>
      </g>
     </g>
    </g>
    <g id="ytick_2">
     <g id="line2d_21">
      <path d="M 66.821562 207.97214 
L 513.221563 207.97214 
" clip-path="url(#p12ca99ebf5)" style="fill: none; stroke: #b0b0b0; stroke-opacity: 0.3; stroke-width: 0.8; stroke-linecap: square"/>
     </g>
     <g id="line2d_22">
      <g>
       <use xlink:href="#m563376c4d2" x="66.821562" y="207.97214" style="stroke: #000000; stroke-width: 0.8"/>
      </g>
     </g>
     <g id="text_12">
      <!-- −0.020 -->
      <g transform="translate(22.81375 211.771359) scale(0.1 -0.1)">
       <use xlink:href="#DejaVuSans-2212"/>
       <use xlink:href="#DejaVuSans-30" transform="translate(83.789062 0)"/>
       <use xlink:href="#DejaVuSans-2e" transform="translate(147.412109 0)"/>
       <use xlink:href="#DejaVuSans-30" transform="translate(179.199219 0)"/>
       <use xlink:href="#DejaVuSans-32" transform="translate(242.822266 0)"/>
       <use xlink:href="#DejaVuSans-30" transform="translate(306.445312 0)"/>
      </g>
     </g>
    </g>
    <g id="ytick_3">
     <g id="line2d_23">
      <path d="M 66.821562 150.539075 
L 513.221563 150.539075 
" clip-path="url(#p12ca99ebf5)" style="fill: none; stroke: #b0b0b0; stroke-opacity: 0.3; stroke-width: 0.8; stroke-linecap: square"/>
     </g>
     <g id="line2d_24">
      <g>
       <use xlink:href="#m563376c4d2" x="66.821562" y="150.539075" style="stroke: #000000; stroke-width: 0.8"/>
      </g>
     </g>
     <g id="text_13">
      <!-- −0.015 -->
      <g transform="translate(22.81375 154.338293) scale(0.1 -0.1)">
       <use xlink:href="#DejaVuSans-2212"/>
       <use xlink:href="#DejaVuSans-30" transform="translate(83.789062 0)"/>
       <use xlink:href="#DejaVuSans-2e" transform="translate(147.412109 0)"/>
       <use xlink:href="#DejaVuSans-30" transform="translate(179.199219 0)"/>
       <use xlink:href="#DejaVuSans-31" transform="translate(242.822266 0)"/>
       <use xlink:href="#DejaVuSans-35" transform="translate(306.445312 0)"/>
      </g>
     </g>
    </g>
    <g id="ytick_4">
     <g id="line2d_25">
      <path d="M 66.821562 93.106009 
L 513.221563 93.106009 
" clip-path="url(#p12ca99ebf5)" style="fill: none; stroke: #b0b0b0; stroke-opacity: 0.3; stroke-width: 0.8; stroke-linecap: square"/>
     </g>
     <g id="line2d_26">
      <g>
       <use xlink:href="#m563376c4d2" x="66.821562" y="93.106009" style="stroke: #000000; stroke-width: 0.8"/>
      </g>
     </g>
     <g id="text_14">
      <!-- −0.010 -->
      <g transform="translate(22.81375 96.905228) scale(0.1 -0.1)">
       <use xlink:href="#DejaVuSans-2212"/>
       <use xlink:href="#DejaVuSans-30" transform="translate(83.789062 0)"/>
       <use xlink:href="#DejaVuSans-2e" transform="translate(147.412109 0)"/>
       <use xlink:href="#DejaVuSans-30" transform="translate(179.199219 0)"/>
       <use xlink:href="#DejaVuSans-31" transform="translate(242.822266 0)"/>
       <use xlink:href="#DejaVuSans-30" transform="translate(306.445312 0)"/>
      </g>
     </g>
    </g>
    <g id="ytick_5">
     <g id="line2d_27">
      <path d="M 66.821562 35.672944 
L 513.221563 35.672944 
" clip-path="url(#p12ca99ebf5)" style="fill: none; stroke: #b0b0b0; stroke-opacity: 0.3; stroke-width: 0.8; stroke-linecap: square"/>
     </g>
     <g id="line2d_28">
      <g>
       <use xlink:href="#m563376c4d2" x="66.821562" y="35.672944" style="stroke: #000000; stroke-width: 0.8"/>
      </g>
     </g>
     <g id="text_15">
      <!-- −0.005 -->
      <g transform="translate(22.81375 39.472162) scale(0.1 -0.1)">
       <use xlink:href="#DejaVuSans-2212"/>
       <use xlink:href="#DejaVuSans-30" transform="translate(83.789062 0)"/>
       <use xlink:href="#DejaVuSans-2e" transform="translate(147.412109 0)"/>
       <use xlink:href="#DejaVuSans-30" transform="translate(179.199219 0)"/>
       <use xlink:href="#DejaVuSans-30" transform="translate(242.822266 0)"/>
       <use xlink:href="#DejaVuSans-35" transform="translate(306.445312 0)"/>
      </g>
     </g>
    </g>
    <g id="text_16">
     <!-- -MSE -->
     <g transform="translate(16.318125 176.619844) rotate(-90) scale(0.12 -0.12)">
      <defs>
       <path id="DejaVuSans-2d" d="M 313 2009 
L 1997 2009 
L 1997 1497 
L 313 1497 
L 313 2009 
z
" transform="scale(0.015625)"/>
       <path id="DejaVuSans-4d" d="M 628 4666 
L 1569 4666 
L 2759 1491 
L 3956 4666 
L 4897 4666 
L 4897 0 
L 4281 0 
L 4281 4097 
L 3078 897 
L 2444 897 
L 1241 4097 
L 1241 0 
L 628 0 
L 628 4666 
z
" transform="scale(0.015625)"/>
       <path id="DejaVuSans-45" d="M 628 4666 
L 3578 4666 
L 3578 4134 
L 1259 4134 
L 1259 2753 
L 3481 2753 
L 3481 2222 
L 1259 2222 
L 1259 531 
L 3634 531 
L 3634 0 
L 628 0 
L 628 4666 
z
" transform="scale(0.015625)"/>
      </defs>
      <use xlink:href="#DejaVuSans-2d"/>
      <use xlink:href="#DejaVuSans-4d" transform="translate(36.083984 0)"/>
      <use xlink:href="#DejaVuSans-53" transform="translate(122.363281 0)"/>
      <use xlink:href="#DejaVuSans-45" transform="translate(185.839844 0)"/>
     </g>
    </g>
   </g>
   <g id="line2d_29">
    <path d="M 87.112472 35.677969 
L 89.151759 93.183077 
L 91.191046 150.44688 
L 93.230334 207.974805 
L 95.269621 265.412468 
L 97.308908 287.677969 
L 99.348196 287.677969 
L 101.387483 287.677969 
L 103.42677 287.677969 
L 105.466058 287.677969 
L 107.505345 287.677969 
L 109.544632 287.677969 
L 111.58392 287.677969 
L 113.623207 287.677969 
L 115.662494 287.677969 
L 117.701782 287.677969 
L 119.741069 287.677969 
L 121.780356 287.677969 
L 123.819644 287.677969 
L 125.858931 287.677969 
L 127.898219 287.677969 
L 129.937506 287.677969 
L 131.976793 287.677969 
L 134.016081 287.677969 
L 136.055368 287.677969 
L 286.962631 287.677969 
L 289.001919 287.677969 
L 388.926999 287.677969 
L 390.966286 287.677969 
L 439.909182 287.677969 
L 441.94847 287.677969 
L 464.380631 287.677969 
L 466.419918 287.677969 
L 476.616355 287.677969 
L 478.655642 287.677969 
L 482.734217 287.677969 
L 484.773504 287.677969 
L 486.812791 287.677969 
L 488.852079 287.677969 
L 490.891366 287.677969 
L 492.930653 287.677969 
" clip-path="url(#p12ca99ebf5)" style="fill: none; stroke: #2196f3; stroke-width: 2; stroke-linecap: square"/>
    <defs>
     <path id="m3d5e44f75a" d="M 0 2 
C 0.530406 2 1.03916 1.789267 1.414214 1.414214 
C 1.789267 1.03916 2 0.530406 2 0 
C 2 -0.530406 1.789267 -1.03916 1.414214 -1.414214 
C 1.03916 -1.789267 0.530406 -2 0 -2 
C -0.530406 -2 -1.03916 -1.789267 -1.414214 -1.414214 
C -1.789267 -1.03916 -2 -0.530406 -2 0 
C -2 0.530406 -1.789267 1.03916 -1.414214 1.414214 
C -1.03916 1.789267 -0.530406 2 0 2 
z
" style="stroke: #2196f3"/>
    </defs>
    <g clip-path="url(#p12ca99ebf5)">
     <use xlink:href="#m3d5e44f75a" x="87.112472" y="35.677969" style="fill: #2196f3; stroke: #2196f3"/>
     <use xlink:href="#m3d5e44f75a" x="89.151759" y="93.183077" style="fill: #2196f3; stroke: #2196f3"/>
     <use xlink:href="#m3d5e44f75a" x="91.191046" y="150.44688" style="fill: #2196f3; stroke: #2196f3"/>
     <use xlink:href="#m3d5e44f75a" x="93.230334" y="207.974805" style="fill: #2196f3; stroke: #2196f3"/>
     <use xlink:href="#m3d5e44f75a" x="95.269621" y="265.412468" style="fill: #2196f3; stroke: #2196f3"/>
     <use xlink:href="#m3d5e44f75a" x="97.308908" y="287.677969" style="fill: #2196f3; stroke: #2196f3"/>
     <use xlink:href="#m3d5e44f75a" x="99.348196" y="287.677969" style="fill: #2196f3; stroke: #2196f3"/>
     <use xlink:href="#m3d5e44f75a" x="101.387483" y="287.677969" style="fill: #2196f3; stroke: #2196f3"/>
     <use xlink:href="#m3d5e44f75a" x="103.42677" y="287.677969" style="fill: #2196f3; stroke: #2196f3"/>
     <use xlink:href="#m3d5e44f75a" x="105.466058" y="287.677969" style="fill: #2196f3; stroke: #2196f3"/>
     <use xlink:href="#m3d5e44f75a" x="107.505345" y="287.677969" style="fill: #2196f3; stroke: #2196f3"/>
     <use xlink:href="#m3d5e44f75a" x="109.544632" y="287.677969" style="fill: #2196f3; stroke: #2196f3"/>
     <use xlink:href="#m3d5e44f75a" x="111.58392" y="287.677969" style="fill: #2196f3; stroke: #2196f3"/>
     <use xlink:href="#m3d5e44f75a" x="113.623207" y="287.677969" style="fill: #2196f3; stroke: #2196f3"/>
     <use xlink:href="#m3d5e44f75a" x="115.662494" y="287.677969" style="fill: #2196f3; stroke: #2196f3"/>
     <use xlink:href="#m3d5e44f75a" x="117.701782" y="287.677969" style="fill: #2196f3; stroke: #2196f3"/>
     <use xlink:href="#m3d5e44f75a" x="119.741069" y="287.677969" style="fill: #2196f3; stroke: #2196f3"/>
     <use xlink:href="#m3d5e44f75a" x="121.780356" y="287.677969" style="fill: #2196f3; stroke: #2196f3"/>
     <use xlink:href="#m3d5e44f75a" x="123.819644" y="287.677969" style="fill: #2196f3; stroke: #2196f3"/>
     <use xlink:href="#m3d5e44f75a" x="125.858931" y="287.677969" style="fill: #2196f3; stroke: #2196f3"/>
     <use xlink:href="#m3d5e44f75a" x="127.898219" y="287.677969" style="fill: #2196f3; stroke: #2196f3"/>
     <use xlink:href="#m3d5e44f75a" x="129.937506" y="287.677969" style="fill: #2196f3; stroke: #2196f3"/>
     <use xlink:href="#m3d5e44f75a" x="131.976793" y="287.677969" style="fill: #2196f3; stroke: #2196f3"/>
     <use xlink:href="#m3d5e44f75a" x="134.016081" y="287.677969" style="fill: #2196f3; stroke: #2196f3"/>
     <use xlink:href="#m3d5e44f75a" x="136.055368" y="287.677969" style="fill: #2196f3; stroke: #2196f3"/>
     <use xlink:href="#m3d5e44f75a" x="286.962631" y="287.677969" style="fill: #2196f3; stroke: #2196f3"/>
     <use xlink:href="#m3d5e44f75a" x="289.001919" y="287.677969" style="fill: #2196f3; stroke: #2196f3"/>
     <use xlink:href="#m3d5e44f75a" x="388.926999" y="287.677969" style="fill: #2196f3; stroke: #2196f3"/>
     <use xlink:href="#m3d5e44f75a" x="390.966286" y="287.677969" style="fill: #2196f3; stroke: #2196f3"/>
     <use xlink:href="#m3d5e44f75a" x="439.909182" y="287.677969" style="fill: #2196f3; stroke: #2196f3"/>
     <use xlink:href="#m3d5e44f75a" x="441.94847" y="287.677969" style="fill: #2196f3; stroke: #2196f3"/>
     <use xlink:href="#m3d5e44f75a" x="464.380631" y="287.677969" style="fill: #2196f3; stroke: #2196f3"/>
     <use xlink:href="#m3d5e44f75a" x="466.419918" y="287.677969" style="fill: #2196f3; stroke: #2196f3"/>
     <use xlink:href="#m3d5e44f75a" x="476.616355" y="287.677969" style="fill: #2196f3; stroke: #2196f3"/>
     <use xlink:href="#m3d5e44f75a" x="478.655642" y="287.677969" style="fill: #2196f3; stroke: #2196f3"/>
     <use xlink:href="#m3d5e44f75a" x="482.734217" y="287.677969" style="fill: #2196f3; stroke: #2196f3"/>
     <use xlink:href="#m3d5e44f75a" x="484.773504" y="287.677969" style="fill: #2196f3; stroke: #2196f3"/>
     <use xlink:href="#m3d5e44f75a" x="486.812791" y="287.677969" style="fill: #2196f3; stroke: #2196f3"/>
     <use xlink:href="#m3d5e44f75a" x="488.852079" y="287.677969" style="fill: #2196f3; stroke: #2196f3"/>
     <use xlink:href="#m3d5e44f75a" x="490.891366" y="287.677969" style="fill: #2196f3; stroke: #2196f3"/>
     <use xlink:href="#m3d5e44f75a" x="492.930653" y="287.677969" style="fill: #2196f3; stroke: #2196f3"/>
    </g>
   </g>
   <g id="line2d_30">
    <path d="M 87.112472 300.277969 
L 87.112472 23.077969 
" clip-path="url(#p12ca99ebf5)" style="fill: none; stroke-dasharray: 7.4,3.2; stroke-dashoffset: 0; stroke: #f44336; stroke-width: 2"/>
   </g>
   <g id="patch_3">
    <path d="M 66.821562 300.277969 
L 66.821562 23.077969 
" style="fill: none; stroke: #000000; stroke-width: 0.8; stroke-linejoin: miter; stroke-linecap: square"/>
   </g>
   <g id="patch_4">
    <path d="M 513.221563 300.277969 
L 513.221563 23.077969 
" style="fill: none; stroke: #000000; stroke-width: 0.8; stroke-linejoin: miter; stroke-linecap: square"/>
   </g>
   <g id="patch_5">
    <path d="M 66.821562 300.277969 
L 513.221562 300.277969 
" style="fill: none; stroke: #000000; stroke-width: 0.8; stroke-linejoin: miter; stroke-linecap: square"/>
   </g>
   <g id="patch_6">
    <path d="M 66.821562 23.077969 
L 513.221562 23.077969 
" style="fill: none; stroke: #000000; stroke-width: 0.8; stroke-linejoin: miter; stroke-linecap: square"/>
   </g>
   <g id="text_17">
    <!-- SciPy: Optimal Smoothing Parameter (UnivariateSpline) -->
    <g transform="translate(109.524687 17.077969) scale(0.13 -0.13)">
     <defs>
      <path id="DejaVuSans-63" d="M 3122 3366 
L 3122 2828 
Q 2878 2963 2633 3030 
Q 2388 3097 2138 3097 
Q 1578 3097 1268 2742 
Q 959 2388 959 1747 
Q 959 1106 1268 751 
Q 1578 397 2138 397 
Q 2388 397 2633 464 
Q 2878 531 3122 666 
L 3122 134 
Q 2881 22 2623 -34 
Q 2366 -91 2075 -91 
Q 1284 -91 818 406 
Q 353 903 353 1747 
Q 353 2603 823 3093 
Q 1294 3584 2113 3584 
Q 2378 3584 2631 3529 
Q 2884 3475 3122 3366 
z
" transform="scale(0.015625)"/>
      <path id="DejaVuSans-50" d="M 1259 4147 
L 1259 2394 
L 2053 2394 
Q 2494 2394 2734 2622 
Q 2975 2850 2975 3272 
Q 2975 3691 2734 3919 
Q 2494 4147 2053 4147 
L 1259 4147 
z
M 628 4666 
L 2053 4666 
Q 2838 4666 3239 4311 
Q 3641 3956 3641 3272 
Q 3641 2581 3239 2228 
Q 2838 1875 2053 1875 
L 1259 1875 
L 1259 0 
L 628 0 
L 628 4666 
z
" transform="scale(0.015625)"/>
      <path id="DejaVuSans-79" d="M 2059 -325 
Q 1816 -950 1584 -1140 
Q 1353 -1331 966 -1331 
L 506 -1331 
L 506 -850 
L 844 -850 
Q 1081 -850 1212 -737 
Q 1344 -625 1503 -206 
L 1606 56 
L 191 3500 
L 800 3500 
L 1894 763 
L 2988 3500 
L 3597 3500 
L 2059 -325 
z
" transform="scale(0.015625)"/>
      <path id="DejaVuSans-3a" d="M 750 794 
L 1409 794 
L 1409 0 
L 750 0 
L 750 794 
z
M 750 3309 
L 1409 3309 
L 1409 2516 
L 750 2516 
L 750 3309 
z
" transform="scale(0.015625)"/>
      <path id="DejaVuSans-4f" d="M 2522 4238 
Q 1834 4238 1429 3725 
Q 1025 3213 1025 2328 
Q 1025 1447 1429 934 
Q 1834 422 2522 422 
Q 3209 422 3611 934 
Q 4013 1447 4013 2328 
Q 4013 3213 3611 3725 
Q 3209 4238 2522 4238 
z
M 2522 4750 
Q 3503 4750 4090 4092 
Q 4678 3434 4678 2328 
Q 4678 1225 4090 567 
Q 3503 -91 2522 -91 
Q 1538 -91 948 565 
Q 359 1222 359 2328 
Q 359 3434 948 4092 
Q 1538 4750 2522 4750 
z
" transform="scale(0.015625)"/>
      <path id="DejaVuSans-6c" d="M 603 4863 
L 1178 4863 
L 1178 0 
L 603 0 
L 603 4863 
z
" transform="scale(0.015625)"/>
      <path id="DejaVuSans-28" d="M 1984 4856 
Q 1566 4138 1362 3434 
Q 1159 2731 1159 2009 
Q 1159 1288 1364 580 
Q 1569 -128 1984 -844 
L 1484 -844 
Q 1016 -109 783 600 
Q 550 1309 550 2009 
Q 550 2706 781 3412 
Q 1013 4119 1484 4856 
L 1984 4856 
z
" transform="scale(0.015625)"/>
      <path id="DejaVuSans-55" d="M 556 4666 
L 1191 4666 
L 1191 1831 
Q 1191 1081 1462 751 
Q 1734 422 2344 422 
Q 2950 422 3222 751 
Q 3494 1081 3494 1831 
L 3494 4666 
L 4128 4666 
L 4128 1753 
Q 4128 841 3676 375 
Q 3225 -91 2344 -91 
Q 1459 -91 1007 375 
Q 556 841 556 1753 
L 556 4666 
z
" transform="scale(0.015625)"/>
      <path id="DejaVuSans-76" d="M 191 3500 
L 800 3500 
L 1894 563 
L 2988 3500 
L 3597 3500 
L 2284 0 
L 1503 0 
L 191 3500 
z
" transform="scale(0.015625)"/>
      <path id="DejaVuSans-29" d="M 513 4856 
L 1013 4856 
Q 1481 4119 1714 3412 
Q 1947 2706 1947 2009 
Q 1947 1309 1714 600 
Q 1481 -109 1013 -844 
L 513 -844 
Q 928 -128 1133 580 
Q 1338 1288 1338 2009 
Q 1338 2731 1133 3434 
Q 928 4138 513 4856 
z
" transform="scale(0.015625)"/>
     </defs>
     <use xlink:href="#DejaVuSans-53"/>
     <use xlink:href="#DejaVuSans-63" transform="translate(63.476562 0)"/>
     <use xlink:href="#DejaVuSans-69" transform="translate(118.457031 0)"/>
     <use xlink:href="#DejaVuSans-50" transform="translate(146.240234 0)"/>
     <use xlink:href="#DejaVuSans-79" transform="translate(206.542969 0)"/>
     <use xlink:href="#DejaVuSans-3a" transform="translate(258.472656 0)"/>
     <use xlink:href="#DejaVuSans-20" transform="translate(292.164062 0)"/>
     <use xlink:href="#DejaVuSans-4f" transform="translate(323.951172 0)"/>
     <use xlink:href="#DejaVuSans-70" transform="translate(402.662109 0)"/>
     <use xlink:href="#DejaVuSans-74" transform="translate(466.138672 0)"/>
     <use xlink:href="#DejaVuSans-69" transform="translate(505.347656 0)"/>
     <use xlink:href="#DejaVuSans-6d" transform="translate(533.130859 0)"/>
     <use xlink:href="#DejaVuSans-61" transform="translate(630.542969 0)"/>
     <use xlink:href="#DejaVuSans-6c" transform="translate(691.822266 0)"/>
     <use xlink:href="#DejaVuSans-20" transform="translate(719.605469 0)"/>
     <use xlink:href="#DejaVuSans-53" transform="translate(751.392578 0)"/>
     <use xlink:href="#DejaVuSans-6d" transform="translate(814.869141 0)"/>
     <use xlink:href="#DejaVuSans-6f" transform="translate(912.28125 0)"/>
     <use xlink:href="#DejaVuSans-6f" transform="translate(973.462891 0)"/>
     <use xlink:href="#DejaVuSans-74" transform="translate(1034.644531 0)"/>
     <use xlink:href="#DejaVuSans-68" transform="translate(1073.853516 0)"/>
     <use xlink:href="#DejaVuSans-69" transform="translate(1137.232422 0)"/>
     <use xlink:href="#DejaVuSans-6e" transform="translate(1165.015625 0)"/>
     <use xlink:href="#DejaVuSans-67" transform="translate(1228.394531 0)"/>
     <use xlink:href="#DejaVuSans-20" transform="translate(1291.871094 0)"/>
     <use xlink:href="#DejaVuSans-50" transform="translate(1323.658203 0)"/>
     <use xlink:href="#DejaVuSans-61" transform="translate(1379.460938 0)"/>
     <use xlink:href="#DejaVuSans-72" transform="translate(1440.740234 0)"/>
     <use xlink:href="#DejaVuSans-61" transform="translate(1481.853516 0)"/>
     <use xlink:href="#DejaVuSans-6d" transform="translate(1543.132812 0)"/>
     <use xlink:href="#DejaVuSans-65" transform="translate(1640.544922 0)"/>
     <use xlink:href="#DejaVuSans-74" transform="translate(1702.068359 0)"/>
     <use xlink:href="#DejaVuSans-65" transform="translate(1741.277344 0)"/>
     <use xlink:href="#DejaVuSans-72" transform="translate(1802.800781 0)"/>
     <use xlink:href="#DejaVuSans-20" transform="translate(1843.914062 0)"/>
     <use xlink:href="#DejaVuSans-28" transform="translate(1875.701172 0)"/>
     <use xlink:href="#DejaVuSans-55" transform="translate(1914.714844 0)"/>
     <use xlink:href="#DejaVuSans-6e" transform="translate(1987.908203 0)"/>
     <use xlink:href="#DejaVuSans-69" transform="translate(2051.287109 0)"/>
     <use xlink:href="#DejaVuSans-76" transform="translate(2079.070312 0)"/>
     <use xlink:href="#DejaVuSans-61" transform="translate(2138.25 0)"/>
     <use xlink:href="#DejaVuSans-72" transform="translate(2199.529297 0)"/>
     <use xlink:href="#DejaVuSans-69" transform="translate(2240.642578 0)"/>
     <use xlink:href="#DejaVuSans-61" transform="translate(2268.425781 0)"/>
     <use xlink:href="#DejaVuSans-74" transform="translate(2329.705078 0)"/>
     <use xlink:href="#DejaVuSans-65" transform="translate(2368.914062 0)"/>
     <use xlink:href="#DejaVuSans-53" transform="translate(2430.4375 0)"/>
     <use xlink:href="#DejaVuSans-70" transform="translate(2493.914062 0)"/>
     <use xlink:href="#DejaVuSans-6c" transform="translate(2557.390625 0)"/>
     <use xlink:href="#DejaVuSans-69" transform="translate(2585.173828 0)"/>
     <use xlink:href="#DejaVuSans-6e" transform="translate(2612.957031 0)"/>
     <use xlink:href="#DejaVuSans-65" transform="translate(2676.335938 0)"/>
     <use xlink:href="#DejaVuSans-29" transform="translate(2737.859375 0)"/>
    </g>
   </g>
   <g id="line2d_31">
    <defs>
     <path id="mb1cea069fd" d="M -3 3 
L 3 3 
L 3 -3 
L -3 -3 
z
" style="stroke: #795548; stroke-linejoin: miter"/>
    </defs>
    <g clip-path="url(#p12ca99ebf5)">
     <use xlink:href="#mb1cea069fd" x="87.112472" y="35.677969" style="fill: #795548; stroke: #795548; stroke-linejoin: miter"/>
    </g>
   </g>
   <g id="line2d_32">
    <g clip-path="url(#p12ca99ebf5)">
     <use xlink:href="#mb1cea069fd" x="492.930653" y="287.677969" style="fill: #795548; stroke: #795548; stroke-linejoin: miter"/>
    </g>
   </g>
   <g id="line2d_33">
    <defs>
     <path id="m0618447fbc" d="M -3 3 
L 3 3 
L 3 -3 
L -3 -3 
z
" style="stroke: #4caf50; stroke-linejoin: miter"/>
    </defs>
    <g clip-path="url(#p12ca99ebf5)">
     <use xlink:href="#m0618447fbc" x="289.001919" y="287.677969" style="fill: #4caf50; stroke: #4caf50; stroke-linejoin: miter"/>
    </g>
   </g>
   <g id="line2d_34">
    <g clip-path="url(#p12ca99ebf5)">
     <use xlink:href="#m0618447fbc" x="390.966286" y="287.677969" style="fill: #4caf50; stroke: #4caf50; stroke-linejoin: miter"/>
    </g>
   </g>
   <g id="line2d_35">
    <g clip-path="url(#p12ca99ebf5)">
     <use xlink:href="#m0618447fbc" x="441.94847" y="287.677969" style="fill: #4caf50; stroke: #4caf50; stroke-linejoin: miter"/>
    </g>
   </g>
   <g id="line2d_36">
    <g clip-path="url(#p12ca99ebf5)">
     <use xlink:href="#m0618447fbc" x="466.419918" y="287.677969" style="fill: #4caf50; stroke: #4caf50; stroke-linejoin: miter"/>
    </g>
   </g>
   <g id="line2d_37">
    <g clip-path="url(#p12ca99ebf5)">
     <use xlink:href="#m0618447fbc" x="478.655642" y="287.677969" style="fill: #4caf50; stroke: #4caf50; stroke-linejoin: miter"/>
    </g>
   </g>
   <g id="line2d_38">
    <g clip-path="url(#p12ca99ebf5)">
     <use xlink:href="#m0618447fbc" x="484.773504" y="287.677969" style="fill: #4caf50; stroke: #4caf50; stroke-linejoin: miter"/>
    </g>
   </g>
   <g id="line2d_39">
    <g clip-path="url(#p12ca99ebf5)">
     <use xlink:href="#m0618447fbc" x="488.852079" y="287.677969" style="fill: #4caf50; stroke: #4caf50; stroke-linejoin: miter"/>
    </g>
   </g>
   <g id="line2d_40">
    <g clip-path="url(#p12ca99ebf5)">
     <use xlink:href="#m0618447fbc" x="490.891366" y="287.677969" style="fill: #4caf50; stroke: #4caf50; stroke-linejoin: miter"/>
    </g>
   </g>
   <g id="line2d_41">
    <defs>
     <path id="m4902ad4015" d="M -3 3 
L 3 3 
L 3 -3 
L -3 -3 
z
" style="stroke: #e91e63; stroke-linejoin: miter"/>
    </defs>
    <g clip-path="url(#p12ca99ebf5)">
     <use xlink:href="#m4902ad4015" x="89.151759" y="93.183077" style="fill: #e91e63; stroke: #e91e63; stroke-linejoin: miter"/>
    </g>
   </g>
   <g id="line2d_42">
    <g clip-path="url(#p12ca99ebf5)">
     <use xlink:href="#m4902ad4015" x="91.191046" y="150.44688" style="fill: #e91e63; stroke: #e91e63; stroke-linejoin: miter"/>
    </g>
   </g>
   <g id="line2d_43">
    <g clip-path="url(#p12ca99ebf5)">
     <use xlink:href="#m4902ad4015" x="93.230334" y="207.974805" style="fill: #e91e63; stroke: #e91e63; stroke-linejoin: miter"/>
    </g>
   </g>
   <g id="line2d_44">
    <g clip-path="url(#p12ca99ebf5)">
     <use xlink:href="#m4902ad4015" x="95.269621" y="265.412468" style="fill: #e91e63; stroke: #e91e63; stroke-linejoin: miter"/>
    </g>
   </g>
   <g id="line2d_45">
    <g clip-path="url(#p12ca99ebf5)">
     <use xlink:href="#m4902ad4015" x="97.308908" y="287.677969" style="fill: #e91e63; stroke: #e91e63; stroke-linejoin: miter"/>
    </g>
   </g>
   <g id="line2d_46">
    <g clip-path="url(#p12ca99ebf5)">
     <use xlink:href="#m4902ad4015" x="99.348196" y="287.677969" style="fill: #e91e63; stroke: #e91e63; stroke-linejoin: miter"/>
    </g>
   </g>
   <g id="line2d_47">
    <g clip-path="url(#p12ca99ebf5)">
     <use xlink:href="#m4902ad4015" x="101.387483" y="287.677969" style="fill: #e91e63; stroke: #e91e63; stroke-linejoin: miter"/>
    </g>
   </g>
   <g id="line2d_48">
    <g clip-path="url(#p12ca99ebf5)">
     <use xlink:href="#m4902ad4015" x="103.42677" y="287.677969" style="fill: #e91e63; stroke: #e91e63; stroke-linejoin: miter"/>
    </g>
   </g>
   <g id="line2d_49">
    <g clip-path="url(#p12ca99ebf5)">
     <use xlink:href="#m4902ad4015" x="105.466058" y="287.677969" style="fill: #e91e63; stroke: #e91e63; stroke-linejoin: miter"/>
    </g>
   </g>
   <g id="line2d_50">
    <g clip-path="url(#p12ca99ebf5)">
     <use xlink:href="#m4902ad4015" x="107.505345" y="287.677969" style="fill: #e91e63; stroke: #e91e63; stroke-linejoin: miter"/>
    </g>
   </g>
   <g id="line2d_51">
    <g clip-path="url(#p12ca99ebf5)">
     <use xlink:href="#m4902ad4015" x="109.544632" y="287.677969" style="fill: #e91e63; stroke: #e91e63; stroke-linejoin: miter"/>
    </g>
   </g>
   <g id="line2d_52">
    <g clip-path="url(#p12ca99ebf5)">
     <use xlink:href="#m4902ad4015" x="111.58392" y="287.677969" style="fill: #e91e63; stroke: #e91e63; stroke-linejoin: miter"/>
    </g>
   </g>
   <g id="line2d_53">
    <g clip-path="url(#p12ca99ebf5)">
     <use xlink:href="#m4902ad4015" x="113.623207" y="287.677969" style="fill: #e91e63; stroke: #e91e63; stroke-linejoin: miter"/>
    </g>
   </g>
   <g id="line2d_54">
    <g clip-path="url(#p12ca99ebf5)">
     <use xlink:href="#m4902ad4015" x="115.662494" y="287.677969" style="fill: #e91e63; stroke: #e91e63; stroke-linejoin: miter"/>
    </g>
   </g>
   <g id="line2d_55">
    <g clip-path="url(#p12ca99ebf5)">
     <use xlink:href="#m4902ad4015" x="117.701782" y="287.677969" style="fill: #e91e63; stroke: #e91e63; stroke-linejoin: miter"/>
    </g>
   </g>
   <g id="line2d_56">
    <g clip-path="url(#p12ca99ebf5)">
     <use xlink:href="#m4902ad4015" x="119.741069" y="287.677969" style="fill: #e91e63; stroke: #e91e63; stroke-linejoin: miter"/>
    </g>
   </g>
   <g id="line2d_57">
    <g clip-path="url(#p12ca99ebf5)">
     <use xlink:href="#m4902ad4015" x="121.780356" y="287.677969" style="fill: #e91e63; stroke: #e91e63; stroke-linejoin: miter"/>
    </g>
   </g>
   <g id="line2d_58">
    <g clip-path="url(#p12ca99ebf5)">
     <use xlink:href="#m4902ad4015" x="123.819644" y="287.677969" style="fill: #e91e63; stroke: #e91e63; stroke-linejoin: miter"/>
    </g>
   </g>
   <g id="line2d_59">
    <g clip-path="url(#p12ca99ebf5)">
     <use xlink:href="#m4902ad4015" x="125.858931" y="287.677969" style="fill: #e91e63; stroke: #e91e63; stroke-linejoin: miter"/>
    </g>
   </g>
   <g id="line2d_60">
    <g clip-path="url(#p12ca99ebf5)">
     <use xlink:href="#m4902ad4015" x="127.898219" y="287.677969" style="fill: #e91e63; stroke: #e91e63; stroke-linejoin: miter"/>
    </g>
   </g>
   <g id="line2d_61">
    <g clip-path="url(#p12ca99ebf5)">
     <use xlink:href="#m4902ad4015" x="129.937506" y="287.677969" style="fill: #e91e63; stroke: #e91e63; stroke-linejoin: miter"/>
    </g>
   </g>
   <g id="line2d_62">
    <g clip-path="url(#p12ca99ebf5)">
     <use xlink:href="#m4902ad4015" x="131.976793" y="287.677969" style="fill: #e91e63; stroke: #e91e63; stroke-linejoin: miter"/>
    </g>
   </g>
   <g id="line2d_63">
    <g clip-path="url(#p12ca99ebf5)">
     <use xlink:href="#m4902ad4015" x="134.016081" y="287.677969" style="fill: #e91e63; stroke: #e91e63; stroke-linejoin: miter"/>
    </g>
   </g>
   <g id="line2d_64">
    <g clip-path="url(#p12ca99ebf5)">
     <use xlink:href="#m4902ad4015" x="136.055368" y="287.677969" style="fill: #e91e63; stroke: #e91e63; stroke-linejoin: miter"/>
    </g>
   </g>
   <g id="legend_1">
    <g id="patch_7">
     <path d="M 447.921562 60.434219 
L 506.221562 60.434219 
Q 508.221562 60.434219 508.221562 58.434219 
L 508.221562 30.077969 
Q 508.221562 28.077969 506.221562 28.077969 
L 447.921562 28.077969 
Q 445.921562 28.077969 445.921562 30.077969 
L 445.921562 58.434219 
Q 445.921562 60.434219 447.921562 60.434219 
z
" style="fill: #ffffff; opacity: 0.8; stroke: #cccccc; stroke-linejoin: miter"/>
    </g>
    <g id="line2d_65">
     <path d="M 449.921562 36.176406 
L 459.921562 36.176406 
L 469.921562 36.176406 
" style="fill: none; stroke: #2196f3; stroke-width: 2; stroke-linecap: square"/>
     <g>
      <use xlink:href="#m3d5e44f75a" x="459.921562" y="36.176406" style="fill: #2196f3; stroke: #2196f3"/>
     </g>
    </g>
    <g id="text_18">
     <!-- f(K) -->
     <g transform="translate(477.921562 39.676406) scale(0.1 -0.1)">
      <defs>
       <path id="DejaVuSans-66" d="M 2375 4863 
L 2375 4384 
L 1825 4384 
Q 1516 4384 1395 4259 
Q 1275 4134 1275 3809 
L 1275 3500 
L 2222 3500 
L 2222 3053 
L 1275 3053 
L 1275 0 
L 697 0 
L 697 3053 
L 147 3053 
L 147 3500 
L 697 3500 
L 697 3744 
Q 697 4328 969 4595 
Q 1241 4863 1831 4863 
L 2375 4863 
z
" transform="scale(0.015625)"/>
       <path id="DejaVuSans-4b" d="M 628 4666 
L 1259 4666 
L 1259 2694 
L 3353 4666 
L 4166 4666 
L 1850 2491 
L 4331 0 
L 3500 0 
L 1259 2247 
L 1259 0 
L 628 0 
L 628 4666 
z
" transform="scale(0.015625)"/>
      </defs>
      <use xlink:href="#DejaVuSans-66"/>
      <use xlink:href="#DejaVuSans-28" transform="translate(35.205078 0)"/>
      <use xlink:href="#DejaVuSans-4b" transform="translate(74.21875 0)"/>
      <use xlink:href="#DejaVuSans-29" transform="translate(139.794922 0)"/>
     </g>
    </g>
    <g id="line2d_66">
     <path d="M 449.921562 50.854531 
L 459.921562 50.854531 
L 469.921562 50.854531 
" style="fill: none; stroke-dasharray: 7.4,3.2; stroke-dashoffset: 0; stroke: #f44336; stroke-width: 2"/>
    </g>
    <g id="text_19">
     <!-- K*=1 -->
     <g transform="translate(477.921562 54.354531) scale(0.1 -0.1)">
      <defs>
       <path id="DejaVuSans-2a" d="M 3009 3897 
L 1888 3291 
L 3009 2681 
L 2828 2375 
L 1778 3009 
L 1778 1831 
L 1422 1831 
L 1422 3009 
L 372 2375 
L 191 2681 
L 1313 3291 
L 191 3897 
L 372 4206 
L 1422 3572 
L 1422 4750 
L 1778 4750 
L 1778 3572 
L 2828 4206 
L 3009 3897 
z
" transform="scale(0.015625)"/>
       <path id="DejaVuSans-3d" d="M 678 2906 
L 4684 2906 
L 4684 2381 
L 678 2381 
L 678 2906 
z
M 678 1631 
L 4684 1631 
L 4684 1100 
L 678 1100 
L 678 1631 
z
" transform="scale(0.015625)"/>
      </defs>
      <use xlink:href="#DejaVuSans-4b"/>
      <use xlink:href="#DejaVuSans-2a" transform="translate(65.576172 0)"/>
      <use xlink:href="#DejaVuSans-3d" transform="translate(115.576172 0)"/>
      <use xlink:href="#DejaVuSans-31" transform="translate(199.365234 0)"/>
     </g>
    </g>
   </g>
  </g>
 </g>
 <defs>
  <clipPath id="p12ca99ebf5">
   <rect x="66.821562" y="23.077969" width="446.4" height="277.2"/>
  </clipPath>
 </defs>
</svg>
