<?xml version="1.0" encoding="utf-8" standalone="no"?>
<!DOCTYPE svg PUBLIC "-//W3C//DTD SVG 1.1//EN"
  "http://www.w3.org/Graphics/SVG/1.1/DTD/svg11.dtd">
<svg xmlns:xlink="http://www.w3.org/1999/xlink" width="507.696562pt" height="339.769844pt" viewBox="0 0 507.696562 339.769844" xmlns="http://www.w3.org/2000/svg" version="1.1">
 <metadata>
  <rdf:RDF xmlns:dc="http://purl.org/dc/elements/1.1/" xmlns:cc="http://creativecommons.org/ns#" xmlns:rdf="http://www.w3.org/1999/02/22-rdf-syntax-ns#">
   <cc:Work>
    <dc:type rdf:resource="http://purl.org/dc/dcmitype/StillImage"/>
    <dc:date>2026-06-03T22:39:41.878301</dc:date>
    <dc:format>image/svg+xml</dc:format>
    <dc:creator>
     <cc:Agent>
      <dc:title>Matplotlib v3.10.8, https://matplotlib.org/</dc:title>
     </cc:Agent>
    </dc:creator>
   </cc:Work>
  </rdf:RDF>
 </metadata>
 <defs>
  <style type="text/css">*{stroke-linejoin: round; stroke-linecap: butt}</style>
 </defs>
 <g id="figure_1">
  <g id="patch_1">
   <path d="M 0 339.769844 
L 507.696562 339.769844 
L 507.696562 0 
L 0 0 
z
" style="fill: #ffffff"/>
  </g>
  <g id="axes_1">
   <g id="patch_2">
    <path d="M 54.096563 300.277969 
L 500.496562 300.277969 
L 500.496562 23.077969 
L 54.096563 23.077969 
z
" style="fill: #ffffff"/>
   </g>
   <g id="matplotlib.axis_1">
    <g id="xtick_1">
     <g id="line2d_1">
      <path d="M 104.448078 300.277969 
L 104.448078 23.077969 
" clip-path="url(#p3b4ad6d9d9)" style="fill: none; stroke: #b0b0b0; stroke-opacity: 0.3; stroke-width: 0.8; stroke-linecap: square"/>
     </g>
     <g id="line2d_2">
      <defs>
       <path id="m0261141b53" d="M 0 0 
L 0 3.5 
" style="stroke: #000000; stroke-width: 0.8"/>
      </defs>
      <g>
       <use xlink:href="#m0261141b53" x="104.448078" y="300.277969" style="stroke: #000000; stroke-width: 0.8"/>
      </g>
     </g>
     <g id="text_1">
      <!-- 5 -->
      <g transform="translate(101.266828 314.876406) scale(0.1 -0.1)">
       <defs>
        <path id="DejaVuSans-35" d="M 691 4666 
L 3169 4666 
L 3169 4134 
L 1269 4134 
L 1269 2991 
Q 1406 3038 1543 3061 
Q 1681 3084 1819 3084 
Q 2600 3084 3056 2656 
Q 3513 2228 3513 1497 
Q 3513 744 3044 326 
Q 2575 -91 1722 -91 
Q 1428 -91 1123 -41 
Q 819 9 494 109 
L 494 744 
Q 775 591 1075 516 
Q 1375 441 1709 441 
Q 2250 441 2565 725 
Q 2881 1009 2881 1497 
Q 2881 1984 2565 2268 
Q 2250 2553 1709 2553 
Q 1456 2553 1204 2497 
Q 953 2441 691 2322 
L 691 4666 
z
" transform="scale(0.015625)"/>
       </defs>
       <use xlink:href="#DejaVuSans-35"/>
      </g>
     </g>
    </g>
    <g id="xtick_2">
     <g id="line2d_3">
      <path d="M 179.599593 300.277969 
L 179.599593 23.077969 
" clip-path="url(#p3b4ad6d9d9)" style="fill: none; stroke: #b0b0b0; stroke-opacity: 0.3; stroke-width: 0.8; stroke-linecap: square"/>
     </g>
     <g id="line2d_4">
      <g>
       <use xlink:href="#m0261141b53" x="179.599593" y="300.277969" style="stroke: #000000; stroke-width: 0.8"/>
      </g>
     </g>
     <g id="text_2">
      <!-- 10 -->
      <g transform="translate(173.237093 314.876406) scale(0.1 -0.1)">
       <defs>
        <path id="DejaVuSans-31" d="M 794 531 
L 1825 531 
L 1825 4091 
L 703 3866 
L 703 4441 
L 1819 4666 
L 2450 4666 
L 2450 531 
L 3481 531 
L 3481 0 
L 794 0 
L 794 531 
z
" transform="scale(0.015625)"/>
        <path id="DejaVuSans-30" d="M 2034 4250 
Q 1547 4250 1301 3770 
Q 1056 3291 1056 2328 
Q 1056 1369 1301 889 
Q 1547 409 2034 409 
Q 2525 409 2770 889 
Q 3016 1369 3016 2328 
Q 3016 3291 2770 3770 
Q 2525 4250 2034 4250 
z
M 2034 4750 
Q 2819 4750 3233 4129 
Q 3647 3509 3647 2328 
Q 3647 1150 3233 529 
Q 2819 -91 2034 -91 
Q 1250 -91 836 529 
Q 422 1150 422 2328 
Q 422 3509 836 4129 
Q 1250 4750 2034 4750 
z
" transform="scale(0.015625)"/>
       </defs>
       <use xlink:href="#DejaVuSans-31"/>
       <use xlink:href="#DejaVuSans-30" transform="translate(63.623047 0)"/>
      </g>
     </g>
    </g>
    <g id="xtick_3">
     <g id="line2d_5">
      <path d="M 254.751108 300.277969 
L 254.751108 23.077969 
" clip-path="url(#p3b4ad6d9d9)" style="fill: none; stroke: #b0b0b0; stroke-opacity: 0.3; stroke-width: 0.8; stroke-linecap: square"/>
     </g>
     <g id="line2d_6">
      <g>
       <use xlink:href="#m0261141b53" x="254.751108" y="300.277969" style="stroke: #000000; stroke-width: 0.8"/>
      </g>
     </g>
     <g id="text_3">
      <!-- 15 -->
      <g transform="translate(248.388608 314.876406) scale(0.1 -0.1)">
       <use xlink:href="#DejaVuSans-31"/>
       <use xlink:href="#DejaVuSans-35" transform="translate(63.623047 0)"/>
      </g>
     </g>
    </g>
    <g id="xtick_4">
     <g id="line2d_7">
      <path d="M 329.902623 300.277969 
L 329.902623 23.077969 
" clip-path="url(#p3b4ad6d9d9)" style="fill: none; stroke: #b0b0b0; stroke-opacity: 0.3; stroke-width: 0.8; stroke-linecap: square"/>
     </g>
     <g id="line2d_8">
      <g>
       <use xlink:href="#m0261141b53" x="329.902623" y="300.277969" style="stroke: #000000; stroke-width: 0.8"/>
      </g>
     </g>
     <g id="text_4">
      <!-- 20 -->
      <g transform="translate(323.540123 314.876406) scale(0.1 -0.1)">
       <defs>
        <path id="DejaVuSans-32" d="M 1228 531 
L 3431 531 
L 3431 0 
L 469 0 
L 469 531 
Q 828 903 1448 1529 
Q 2069 2156 2228 2338 
Q 2531 2678 2651 2914 
Q 2772 3150 2772 3378 
Q 2772 3750 2511 3984 
Q 2250 4219 1831 4219 
Q 1534 4219 1204 4116 
Q 875 4013 500 3803 
L 500 4441 
Q 881 4594 1212 4672 
Q 1544 4750 1819 4750 
Q 2544 4750 2975 4387 
Q 3406 4025 3406 3419 
Q 3406 3131 3298 2873 
Q 3191 2616 2906 2266 
Q 2828 2175 2409 1742 
Q 1991 1309 1228 531 
z
" transform="scale(0.015625)"/>
       </defs>
       <use xlink:href="#DejaVuSans-32"/>
       <use xlink:href="#DejaVuSans-30" transform="translate(63.623047 0)"/>
      </g>
     </g>
    </g>
    <g id="xtick_5">
     <g id="line2d_9">
      <path d="M 405.054138 300.277969 
L 405.054138 23.077969 
" clip-path="url(#p3b4ad6d9d9)" style="fill: none; stroke: #b0b0b0; stroke-opacity: 0.3; stroke-width: 0.8; stroke-linecap: square"/>
     </g>
     <g id="line2d_10">
      <g>
       <use xlink:href="#m0261141b53" x="405.054138" y="300.277969" style="stroke: #000000; stroke-width: 0.8"/>
      </g>
     </g>
     <g id="text_5">
      <!-- 25 -->
      <g transform="translate(398.691638 314.876406) scale(0.1 -0.1)">
       <use xlink:href="#DejaVuSans-32"/>
       <use xlink:href="#DejaVuSans-35" transform="translate(63.623047 0)"/>
      </g>
     </g>
    </g>
    <g id="xtick_6">
     <g id="line2d_11">
      <path d="M 480.205653 300.277969 
L 480.205653 23.077969 
" clip-path="url(#p3b4ad6d9d9)" style="fill: none; stroke: #b0b0b0; stroke-opacity: 0.3; stroke-width: 0.8; stroke-linecap: square"/>
     </g>
     <g id="line2d_12">
      <g>
       <use xlink:href="#m0261141b53" x="480.205653" y="300.277969" style="stroke: #000000; stroke-width: 0.8"/>
      </g>
     </g>
     <g id="text_6">
      <!-- 30 -->
      <g transform="translate(473.843153 314.876406) scale(0.1 -0.1)">
       <defs>
        <path id="DejaVuSans-33" d="M 2597 2516 
Q 3050 2419 3304 2112 
Q 3559 1806 3559 1356 
Q 3559 666 3084 287 
Q 2609 -91 1734 -91 
Q 1441 -91 1130 -33 
Q 819 25 488 141 
L 488 750 
Q 750 597 1062 519 
Q 1375 441 1716 441 
Q 2309 441 2620 675 
Q 2931 909 2931 1356 
Q 2931 1769 2642 2001 
Q 2353 2234 1838 2234 
L 1294 2234 
L 1294 2753 
L 1863 2753 
Q 2328 2753 2575 2939 
Q 2822 3125 2822 3475 
Q 2822 3834 2567 4026 
Q 2313 4219 1838 4219 
Q 1578 4219 1281 4162 
Q 984 4106 628 3988 
L 628 4550 
Q 988 4650 1302 4700 
Q 1616 4750 1894 4750 
Q 2613 4750 3031 4423 
Q 3450 4097 3450 3541 
Q 3450 3153 3228 2886 
Q 3006 2619 2597 2516 
z
" transform="scale(0.015625)"/>
       </defs>
       <use xlink:href="#DejaVuSans-33"/>
       <use xlink:href="#DejaVuSans-30" transform="translate(63.623047 0)"/>
      </g>
     </g>
    </g>
    <g id="text_7">
     <!-- eps × 10 -->
     <g transform="translate(250.193437 330.074219) scale(0.12 -0.12)">
      <defs>
       <path id="DejaVuSans-65" d="M 3597 1894 
L 3597 1613 
L 953 1613 
Q 991 1019 1311 708 
Q 1631 397 2203 397 
Q 2534 397 2845 478 
Q 3156 559 3463 722 
L 3463 178 
Q 3153 47 2828 -22 
Q 2503 -91 2169 -91 
Q 1331 -91 842 396 
Q 353 884 353 1716 
Q 353 2575 817 3079 
Q 1281 3584 2069 3584 
Q 2775 3584 3186 3129 
Q 3597 2675 3597 1894 
z
M 3022 2063 
Q 3016 2534 2758 2815 
Q 2500 3097 2075 3097 
Q 1594 3097 1305 2825 
Q 1016 2553 972 2059 
L 3022 2063 
z
" transform="scale(0.015625)"/>
       <path id="DejaVuSans-70" d="M 1159 525 
L 1159 -1331 
L 581 -1331 
L 581 3500 
L 1159 3500 
L 1159 2969 
Q 1341 3281 1617 3432 
Q 1894 3584 2278 3584 
Q 2916 3584 3314 3078 
Q 3713 2572 3713 1747 
Q 3713 922 3314 415 
Q 2916 -91 2278 -91 
Q 1894 -91 1617 61 
Q 1341 213 1159 525 
z
M 3116 1747 
Q 3116 2381 2855 2742 
Q 2594 3103 2138 3103 
Q 1681 3103 1420 2742 
Q 1159 2381 1159 1747 
Q 1159 1113 1420 752 
Q 1681 391 2138 391 
Q 2594 391 2855 752 
Q 3116 1113 3116 1747 
z
" transform="scale(0.015625)"/>
       <path id="DejaVuSans-73" d="M 2834 3397 
L 2834 2853 
Q 2591 2978 2328 3040 
Q 2066 3103 1784 3103 
Q 1356 3103 1142 2972 
Q 928 2841 928 2578 
Q 928 2378 1081 2264 
Q 1234 2150 1697 2047 
L 1894 2003 
Q 2506 1872 2764 1633 
Q 3022 1394 3022 966 
Q 3022 478 2636 193 
Q 2250 -91 1575 -91 
Q 1294 -91 989 -36 
Q 684 19 347 128 
L 347 722 
Q 666 556 975 473 
Q 1284 391 1588 391 
Q 1994 391 2212 530 
Q 2431 669 2431 922 
Q 2431 1156 2273 1281 
Q 2116 1406 1581 1522 
L 1381 1569 
Q 847 1681 609 1914 
Q 372 2147 372 2553 
Q 372 3047 722 3315 
Q 1072 3584 1716 3584 
Q 2034 3584 2315 3537 
Q 2597 3491 2834 3397 
z
" transform="scale(0.015625)"/>
       <path id="DejaVuSans-20" transform="scale(0.015625)"/>
       <path id="DejaVuSans-d7" d="M 4488 3438 
L 3059 2003 
L 4488 575 
L 4116 197 
L 2681 1631 
L 1247 197 
L 878 575 
L 2303 2003 
L 878 3438 
L 1247 3816 
L 2681 2381 
L 4116 3816 
L 4488 3438 
z
" transform="scale(0.015625)"/>
      </defs>
      <use xlink:href="#DejaVuSans-65"/>
      <use xlink:href="#DejaVuSans-70" transform="translate(61.523438 0)"/>
      <use xlink:href="#DejaVuSans-73" transform="translate(125 0)"/>
      <use xlink:href="#DejaVuSans-20" transform="translate(177.099609 0)"/>
      <use xlink:href="#DejaVuSans-d7" transform="translate(208.886719 0)"/>
      <use xlink:href="#DejaVuSans-20" transform="translate(292.675781 0)"/>
      <use xlink:href="#DejaVuSans-31" transform="translate(324.462891 0)"/>
      <use xlink:href="#DejaVuSans-30" transform="translate(388.085938 0)"/>
     </g>
    </g>
   </g>
   <g id="matplotlib.axis_2">
    <g id="ytick_1">
     <g id="line2d_13">
      <path d="M 54.096563 287.677969 
L 500.496562 287.677969 
" clip-path="url(#p3b4ad6d9d9)" style="fill: none; stroke: #b0b0b0; stroke-opacity: 0.3; stroke-width: 0.8; stroke-linecap: square"/>
     </g>
     <g id="line2d_14">
      <defs>
       <path id="m506e92d04a" d="M 0 0 
L -3.5 0 
" style="stroke: #000000; stroke-width: 0.8"/>
      </defs>
      <g>
       <use xlink:href="#m506e92d04a" x="54.096563" y="287.677969" style="stroke: #000000; stroke-width: 0.8"/>
      </g>
     </g>
     <g id="text_8">
      <!-- −1.0 -->
      <g transform="translate(22.81375 291.477188) scale(0.1 -0.1)">
       <defs>
        <path id="DejaVuSans-2212" d="M 678 2272 
L 4684 2272 
L 4684 1741 
L 678 1741 
L 678 2272 
z
" transform="scale(0.015625)"/>
        <path id="DejaVuSans-2e" d="M 684 794 
L 1344 794 
L 1344 0 
L 684 0 
L 684 794 
z
" transform="scale(0.015625)"/>
       </defs>
       <use xlink:href="#DejaVuSans-2212"/>
       <use xlink:href="#DejaVuSans-31" transform="translate(83.789062 0)"/>
       <use xlink:href="#DejaVuSans-2e" transform="translate(147.412109 0)"/>
       <use xlink:href="#DejaVuSans-30" transform="translate(179.199219 0)"/>
      </g>
     </g>
    </g>
    <g id="ytick_2">
     <g id="line2d_15">
      <path d="M 54.096563 249.898608 
L 500.496562 249.898608 
" clip-path="url(#p3b4ad6d9d9)" style="fill: none; stroke: #b0b0b0; stroke-opacity: 0.3; stroke-width: 0.8; stroke-linecap: square"/>
     </g>
     <g id="line2d_16">
      <g>
       <use xlink:href="#m506e92d04a" x="54.096563" y="249.898608" style="stroke: #000000; stroke-width: 0.8"/>
      </g>
     </g>
     <g id="text_9">
      <!-- −0.8 -->
      <g transform="translate(22.81375 253.697827) scale(0.1 -0.1)">
       <defs>
        <path id="DejaVuSans-38" d="M 2034 2216 
Q 1584 2216 1326 1975 
Q 1069 1734 1069 1313 
Q 1069 891 1326 650 
Q 1584 409 2034 409 
Q 2484 409 2743 651 
Q 3003 894 3003 1313 
Q 3003 1734 2745 1975 
Q 2488 2216 2034 2216 
z
M 1403 2484 
Q 997 2584 770 2862 
Q 544 3141 544 3541 
Q 544 4100 942 4425 
Q 1341 4750 2034 4750 
Q 2731 4750 3128 4425 
Q 3525 4100 3525 3541 
Q 3525 3141 3298 2862 
Q 3072 2584 2669 2484 
Q 3125 2378 3379 2068 
Q 3634 1759 3634 1313 
Q 3634 634 3220 271 
Q 2806 -91 2034 -91 
Q 1263 -91 848 271 
Q 434 634 434 1313 
Q 434 1759 690 2068 
Q 947 2378 1403 2484 
z
M 1172 3481 
Q 1172 3119 1398 2916 
Q 1625 2713 2034 2713 
Q 2441 2713 2670 2916 
Q 2900 3119 2900 3481 
Q 2900 3844 2670 4047 
Q 2441 4250 2034 4250 
Q 1625 4250 1398 4047 
Q 1172 3844 1172 3481 
z
" transform="scale(0.015625)"/>
       </defs>
       <use xlink:href="#DejaVuSans-2212"/>
       <use xlink:href="#DejaVuSans-30" transform="translate(83.789062 0)"/>
       <use xlink:href="#DejaVuSans-2e" transform="translate(147.412109 0)"/>
       <use xlink:href="#DejaVuSans-38" transform="translate(179.199219 0)"/>
      </g>
     </g>
    </g>
    <g id="ytick_3">
     <g id="line2d_17">
      <path d="M 54.096563 212.119248 
L 500.496562 212.119248 
" clip-path="url(#p3b4ad6d9d9)" style="fill: none; stroke: #b0b0b0; stroke-opacity: 0.3; stroke-width: 0.8; stroke-linecap: square"/>
     </g>
     <g id="line2d_18">
      <g>
       <use xlink:href="#m506e92d04a" x="54.096563" y="212.119248" style="stroke: #000000; stroke-width: 0.8"/>
      </g>
     </g>
     <g id="text_10">
      <!-- −0.6 -->
      <g transform="translate(22.81375 215.918466) scale(0.1 -0.1)">
       <defs>
        <path id="DejaVuSans-36" d="M 2113 2584 
Q 1688 2584 1439 2293 
Q 1191 2003 1191 1497 
Q 1191 994 1439 701 
Q 1688 409 2113 409 
Q 2538 409 2786 701 
Q 3034 994 3034 1497 
Q 3034 2003 2786 2293 
Q 2538 2584 2113 2584 
z
M 3366 4563 
L 3366 3988 
Q 3128 4100 2886 4159 
Q 2644 4219 2406 4219 
Q 1781 4219 1451 3797 
Q 1122 3375 1075 2522 
Q 1259 2794 1537 2939 
Q 1816 3084 2150 3084 
Q 2853 3084 3261 2657 
Q 3669 2231 3669 1497 
Q 3669 778 3244 343 
Q 2819 -91 2113 -91 
Q 1303 -91 875 529 
Q 447 1150 447 2328 
Q 447 3434 972 4092 
Q 1497 4750 2381 4750 
Q 2619 4750 2861 4703 
Q 3103 4656 3366 4563 
z
" transform="scale(0.015625)"/>
       </defs>
       <use xlink:href="#DejaVuSans-2212"/>
       <use xlink:href="#DejaVuSans-30" transform="translate(83.789062 0)"/>
       <use xlink:href="#DejaVuSans-2e" transform="translate(147.412109 0)"/>
       <use xlink:href="#DejaVuSans-36" transform="translate(179.199219 0)"/>
      </g>
     </g>
    </g>
    <g id="ytick_4">
     <g id="line2d_19">
      <path d="M 54.096563 174.339887 
L 500.496562 174.339887 
" clip-path="url(#p3b4ad6d9d9)" style="fill: none; stroke: #b0b0b0; stroke-opacity: 0.3; stroke-width: 0.8; stroke-linecap: square"/>
     </g>
     <g id="line2d_20">
      <g>
       <use xlink:href="#m506e92d04a" x="54.096563" y="174.339887" style="stroke: #000000; stroke-width: 0.8"/>
      </g>
     </g>
     <g id="text_11">
      <!-- −0.4 -->
      <g transform="translate(22.81375 178.139106) scale(0.1 -0.1)">
       <defs>
        <path id="DejaVuSans-34" d="M 2419 4116 
L 825 1625 
L 2419 1625 
L 2419 4116 
z
M 2253 4666 
L 3047 4666 
L 3047 1625 
L 3713 1625 
L 3713 1100 
L 3047 1100 
L 3047 0 
L 2419 0 
L 2419 1100 
L 313 1100 
L 313 1709 
L 2253 4666 
z
" transform="scale(0.015625)"/>
       </defs>
       <use xlink:href="#DejaVuSans-2212"/>
       <use xlink:href="#DejaVuSans-30" transform="translate(83.789062 0)"/>
       <use xlink:href="#DejaVuSans-2e" transform="translate(147.412109 0)"/>
       <use xlink:href="#DejaVuSans-34" transform="translate(179.199219 0)"/>
      </g>
     </g>
    </g>
    <g id="ytick_5">
     <g id="line2d_21">
      <path d="M 54.096563 136.560526 
L 500.496562 136.560526 
" clip-path="url(#p3b4ad6d9d9)" style="fill: none; stroke: #b0b0b0; stroke-opacity: 0.3; stroke-width: 0.8; stroke-linecap: square"/>
     </g>
     <g id="line2d_22">
      <g>
       <use xlink:href="#m506e92d04a" x="54.096563" y="136.560526" style="stroke: #000000; stroke-width: 0.8"/>
      </g>
     </g>
     <g id="text_12">
      <!-- −0.2 -->
      <g transform="translate(22.81375 140.359745) scale(0.1 -0.1)">
       <use xlink:href="#DejaVuSans-2212"/>
       <use xlink:href="#DejaVuSans-30" transform="translate(83.789062 0)"/>
       <use xlink:href="#DejaVuSans-2e" transform="translate(147.412109 0)"/>
       <use xlink:href="#DejaVuSans-32" transform="translate(179.199219 0)"/>
      </g>
     </g>
    </g>
    <g id="ytick_6">
     <g id="line2d_23">
      <path d="M 54.096563 98.781166 
L 500.496562 98.781166 
" clip-path="url(#p3b4ad6d9d9)" style="fill: none; stroke: #b0b0b0; stroke-opacity: 0.3; stroke-width: 0.8; stroke-linecap: square"/>
     </g>
     <g id="line2d_24">
      <g>
       <use xlink:href="#m506e92d04a" x="54.096563" y="98.781166" style="stroke: #000000; stroke-width: 0.8"/>
      </g>
     </g>
     <g id="text_13">
      <!-- 0.0 -->
      <g transform="translate(31.193438 102.580385) scale(0.1 -0.1)">
       <use xlink:href="#DejaVuSans-30"/>
       <use xlink:href="#DejaVuSans-2e" transform="translate(63.623047 0)"/>
       <use xlink:href="#DejaVuSans-30" transform="translate(95.410156 0)"/>
      </g>
     </g>
    </g>
    <g id="ytick_7">
     <g id="line2d_25">
      <path d="M 54.096563 61.001805 
L 500.496562 61.001805 
" clip-path="url(#p3b4ad6d9d9)" style="fill: none; stroke: #b0b0b0; stroke-opacity: 0.3; stroke-width: 0.8; stroke-linecap: square"/>
     </g>
     <g id="line2d_26">
      <g>
       <use xlink:href="#m506e92d04a" x="54.096563" y="61.001805" style="stroke: #000000; stroke-width: 0.8"/>
      </g>
     </g>
     <g id="text_14">
      <!-- 0.2 -->
      <g transform="translate(31.193438 64.801024) scale(0.1 -0.1)">
       <use xlink:href="#DejaVuSans-30"/>
       <use xlink:href="#DejaVuSans-2e" transform="translate(63.623047 0)"/>
       <use xlink:href="#DejaVuSans-32" transform="translate(95.410156 0)"/>
      </g>
     </g>
    </g>
    <g id="ytick_8">
     <g id="line2d_27">
      <path d="M 54.096563 23.222445 
L 500.496562 23.222445 
" clip-path="url(#p3b4ad6d9d9)" style="fill: none; stroke: #b0b0b0; stroke-opacity: 0.3; stroke-width: 0.8; stroke-linecap: square"/>
     </g>
     <g id="line2d_28">
      <g>
       <use xlink:href="#m506e92d04a" x="54.096563" y="23.222445" style="stroke: #000000; stroke-width: 0.8"/>
      </g>
     </g>
     <g id="text_15">
      <!-- 0.4 -->
      <g transform="translate(31.193438 27.021663) scale(0.1 -0.1)">
       <use xlink:href="#DejaVuSans-30"/>
       <use xlink:href="#DejaVuSans-2e" transform="translate(63.623047 0)"/>
       <use xlink:href="#DejaVuSans-34" transform="translate(95.410156 0)"/>
      </g>
     </g>
    </g>
    <g id="text_16">
     <!-- Silhouette -->
     <g transform="translate(16.318125 192.185156) rotate(-90) scale(0.12 -0.12)">
      <defs>
       <path id="DejaVuSans-53" d="M 3425 4513 
L 3425 3897 
Q 3066 4069 2747 4153 
Q 2428 4238 2131 4238 
Q 1616 4238 1336 4038 
Q 1056 3838 1056 3469 
Q 1056 3159 1242 3001 
Q 1428 2844 1947 2747 
L 2328 2669 
Q 3034 2534 3370 2195 
Q 3706 1856 3706 1288 
Q 3706 609 3251 259 
Q 2797 -91 1919 -91 
Q 1588 -91 1214 -16 
Q 841 59 441 206 
L 441 856 
Q 825 641 1194 531 
Q 1563 422 1919 422 
Q 2459 422 2753 634 
Q 3047 847 3047 1241 
Q 3047 1584 2836 1778 
Q 2625 1972 2144 2069 
L 1759 2144 
Q 1053 2284 737 2584 
Q 422 2884 422 3419 
Q 422 4038 858 4394 
Q 1294 4750 2059 4750 
Q 2388 4750 2728 4690 
Q 3069 4631 3425 4513 
z
" transform="scale(0.015625)"/>
       <path id="DejaVuSans-69" d="M 603 3500 
L 1178 3500 
L 1178 0 
L 603 0 
L 603 3500 
z
M 603 4863 
L 1178 4863 
L 1178 4134 
L 603 4134 
L 603 4863 
z
" transform="scale(0.015625)"/>
       <path id="DejaVuSans-6c" d="M 603 4863 
L 1178 4863 
L 1178 0 
L 603 0 
L 603 4863 
z
" transform="scale(0.015625)"/>
       <path id="DejaVuSans-68" d="M 3513 2113 
L 3513 0 
L 2938 0 
L 2938 2094 
Q 2938 2591 2744 2837 
Q 2550 3084 2163 3084 
Q 1697 3084 1428 2787 
Q 1159 2491 1159 1978 
L 1159 0 
L 581 0 
L 581 4863 
L 1159 4863 
L 1159 2956 
Q 1366 3272 1645 3428 
Q 1925 3584 2291 3584 
Q 2894 3584 3203 3211 
Q 3513 2838 3513 2113 
z
" transform="scale(0.015625)"/>
       <path id="DejaVuSans-6f" d="M 1959 3097 
Q 1497 3097 1228 2736 
Q 959 2375 959 1747 
Q 959 1119 1226 758 
Q 1494 397 1959 397 
Q 2419 397 2687 759 
Q 2956 1122 2956 1747 
Q 2956 2369 2687 2733 
Q 2419 3097 1959 3097 
z
M 1959 3584 
Q 2709 3584 3137 3096 
Q 3566 2609 3566 1747 
Q 3566 888 3137 398 
Q 2709 -91 1959 -91 
Q 1206 -91 779 398 
Q 353 888 353 1747 
Q 353 2609 779 3096 
Q 1206 3584 1959 3584 
z
" transform="scale(0.015625)"/>
       <path id="DejaVuSans-75" d="M 544 1381 
L 544 3500 
L 1119 3500 
L 1119 1403 
Q 1119 906 1312 657 
Q 1506 409 1894 409 
Q 2359 409 2629 706 
Q 2900 1003 2900 1516 
L 2900 3500 
L 3475 3500 
L 3475 0 
L 2900 0 
L 2900 538 
Q 2691 219 2414 64 
Q 2138 -91 1772 -91 
Q 1169 -91 856 284 
Q 544 659 544 1381 
z
M 1991 3584 
L 1991 3584 
z
" transform="scale(0.015625)"/>
       <path id="DejaVuSans-74" d="M 1172 4494 
L 1172 3500 
L 2356 3500 
L 2356 3053 
L 1172 3053 
L 1172 1153 
Q 1172 725 1289 603 
Q 1406 481 1766 481 
L 2356 481 
L 2356 0 
L 1766 0 
Q 1100 0 847 248 
Q 594 497 594 1153 
L 594 3053 
L 172 3053 
L 172 3500 
L 594 3500 
L 594 4494 
L 1172 4494 
z
" transform="scale(0.015625)"/>
      </defs>
      <use xlink:href="#DejaVuSans-53"/>
      <use xlink:href="#DejaVuSans-69" transform="translate(63.476562 0)"/>
      <use xlink:href="#DejaVuSans-6c" transform="translate(91.259766 0)"/>
      <use xlink:href="#DejaVuSans-68" transform="translate(119.042969 0)"/>
      <use xlink:href="#DejaVuSans-6f" transform="translate(182.421875 0)"/>
      <use xlink:href="#DejaVuSans-75" transform="translate(243.603516 0)"/>
      <use xlink:href="#DejaVuSans-65" transform="translate(306.982422 0)"/>
      <use xlink:href="#DejaVuSans-74" transform="translate(368.505859 0)"/>
      <use xlink:href="#DejaVuSans-74" transform="translate(407.714844 0)"/>
      <use xlink:href="#DejaVuSans-65" transform="translate(446.923828 0)"/>
     </g>
    </g>
   </g>
   <g id="line2d_29">
    <path d="M 74.387472 35.677969 
L 89.417775 287.677969 
L 104.448078 287.677969 
L 119.478381 287.677969 
L 254.751108 287.677969 
L 269.781411 287.677969 
L 359.963229 287.677969 
L 374.993532 287.677969 
L 405.054138 287.677969 
L 420.084441 287.677969 
L 435.114744 287.677969 
L 450.145047 287.677969 
L 465.17535 287.677969 
L 480.205653 287.677969 
" clip-path="url(#p3b4ad6d9d9)" style="fill: none; stroke: #2196f3; stroke-width: 2; stroke-linecap: square"/>
    <defs>
     <path id="m28e6f5c0dd" d="M 0 2 
C 0.530406 2 1.03916 1.789267 1.414214 1.414214 
C 1.789267 1.03916 2 0.530406 2 0 
C 2 -0.530406 1.789267 -1.03916 1.414214 -1.414214 
C 1.03916 -1.789267 0.530406 -2 0 -2 
C -0.530406 -2 -1.03916 -1.789267 -1.414214 -1.414214 
C -1.789267 -1.03916 -2 -0.530406 -2 0 
C -2 0.530406 -1.789267 1.03916 -1.414214 1.414214 
C -1.03916 1.789267 -0.530406 2 0 2 
z
" style="stroke: #2196f3"/>
    </defs>
    <g clip-path="url(#p3b4ad6d9d9)">
     <use xlink:href="#m28e6f5c0dd" x="74.387472" y="35.677969" style="fill: #2196f3; stroke: #2196f3"/>
     <use xlink:href="#m28e6f5c0dd" x="89.417775" y="287.677969" style="fill: #2196f3; stroke: #2196f3"/>
     <use xlink:href="#m28e6f5c0dd" x="104.448078" y="287.677969" style="fill: #2196f3; stroke: #2196f3"/>
     <use xlink:href="#m28e6f5c0dd" x="119.478381" y="287.677969" style="fill: #2196f3; stroke: #2196f3"/>
     <use xlink:href="#m28e6f5c0dd" x="254.751108" y="287.677969" style="fill: #2196f3; stroke: #2196f3"/>
     <use xlink:href="#m28e6f5c0dd" x="269.781411" y="287.677969" style="fill: #2196f3; stroke: #2196f3"/>
     <use xlink:href="#m28e6f5c0dd" x="359.963229" y="287.677969" style="fill: #2196f3; stroke: #2196f3"/>
     <use xlink:href="#m28e6f5c0dd" x="374.993532" y="287.677969" style="fill: #2196f3; stroke: #2196f3"/>
     <use xlink:href="#m28e6f5c0dd" x="405.054138" y="287.677969" style="fill: #2196f3; stroke: #2196f3"/>
     <use xlink:href="#m28e6f5c0dd" x="420.084441" y="287.677969" style="fill: #2196f3; stroke: #2196f3"/>
     <use xlink:href="#m28e6f5c0dd" x="435.114744" y="287.677969" style="fill: #2196f3; stroke: #2196f3"/>
     <use xlink:href="#m28e6f5c0dd" x="450.145047" y="287.677969" style="fill: #2196f3; stroke: #2196f3"/>
     <use xlink:href="#m28e6f5c0dd" x="465.17535" y="287.677969" style="fill: #2196f3; stroke: #2196f3"/>
     <use xlink:href="#m28e6f5c0dd" x="480.205653" y="287.677969" style="fill: #2196f3; stroke: #2196f3"/>
    </g>
   </g>
   <g id="line2d_30">
    <path d="M 74.387472 300.277969 
L 74.387472 23.077969 
" clip-path="url(#p3b4ad6d9d9)" style="fill: none; stroke-dasharray: 7.4,3.2; stroke-dashoffset: 0; stroke: #f44336; stroke-width: 2"/>
   </g>
   <g id="patch_3">
    <path d="M 54.096563 300.277969 
L 54.096563 23.077969 
" style="fill: none; stroke: #000000; stroke-width: 0.8; stroke-linejoin: miter; stroke-linecap: square"/>
   </g>
   <g id="patch_4">
    <path d="M 500.496562 300.277969 
L 500.496562 23.077969 
" style="fill: none; stroke: #000000; stroke-width: 0.8; stroke-linejoin: miter; stroke-linecap: square"/>
   </g>
   <g id="patch_5">
    <path d="M 54.096563 300.277969 
L 500.496562 300.277969 
" style="fill: none; stroke: #000000; stroke-width: 0.8; stroke-linejoin: miter; stroke-linecap: square"/>
   </g>
   <g id="patch_6">
    <path d="M 54.096563 23.077969 
L 500.496562 23.077969 
" style="fill: none; stroke: #000000; stroke-width: 0.8; stroke-linejoin: miter; stroke-linecap: square"/>
   </g>
   <g id="text_17">
    <g id="patch_7">
     <path d="M 71.952237 27.97375 
L 76.822706 27.97375 
Q 77.662706 27.97375 77.662706 27.13375 
L 77.662706 20.359062 
Q 77.662706 19.519062 76.822706 19.519062 
L 71.952237 19.519062 
Q 71.112237 19.519062 71.112237 20.359062 
L 71.112237 27.13375 
Q 71.112237 27.97375 71.952237 27.97375 
z
" style="fill: #ffffff; opacity: 0.85; stroke: #795548; stroke-width: 0.4; stroke-linejoin: miter"/>
    </g>
    <!-- 1 -->
    <g style="fill: #795548" transform="translate(71.952237 25.677969) scale(0.07 -0.07)">
     <defs>
      <path id="DejaVuSans-Bold-31" d="M 750 831 
L 1813 831 
L 1813 3847 
L 722 3622 
L 722 4441 
L 1806 4666 
L 2950 4666 
L 2950 831 
L 4013 831 
L 4013 0 
L 750 0 
L 750 831 
z
" transform="scale(0.015625)"/>
     </defs>
     <use xlink:href="#DejaVuSans-Bold-31"/>
    </g>
   </g>
   <g id="text_18">
    <g id="patch_8">
     <path d="M 477.770419 279.97375 
L 482.640888 279.97375 
Q 483.480888 279.97375 483.480888 279.13375 
L 483.480888 272.359062 
Q 483.480888 271.519063 482.640888 271.519063 
L 477.770419 271.519063 
Q 476.930419 271.519063 476.930419 272.359062 
L 476.930419 279.13375 
Q 476.930419 279.97375 477.770419 279.97375 
z
" style="fill: #ffffff; opacity: 0.85; stroke: #795548; stroke-width: 0.4; stroke-linejoin: miter"/>
    </g>
    <!-- 2 -->
    <g style="fill: #795548" transform="translate(477.770419 277.677969) scale(0.07 -0.07)">
     <defs>
      <path id="DejaVuSans-Bold-32" d="M 1844 884 
L 3897 884 
L 3897 0 
L 506 0 
L 506 884 
L 2209 2388 
Q 2438 2594 2547 2791 
Q 2656 2988 2656 3200 
Q 2656 3528 2436 3728 
Q 2216 3928 1850 3928 
Q 1569 3928 1234 3808 
Q 900 3688 519 3450 
L 519 4475 
Q 925 4609 1322 4679 
Q 1719 4750 2100 4750 
Q 2938 4750 3402 4381 
Q 3866 4013 3866 3353 
Q 3866 2972 3669 2642 
Q 3472 2313 2841 1759 
L 1844 884 
z
" transform="scale(0.015625)"/>
     </defs>
     <use xlink:href="#DejaVuSans-Bold-32"/>
    </g>
   </g>
   <g id="text_19">
    <g id="patch_9">
     <path d="M 267.346177 279.97375 
L 272.216645 279.97375 
Q 273.056645 279.97375 273.056645 279.13375 
L 273.056645 272.359062 
Q 273.056645 271.519063 272.216645 271.519063 
L 267.346177 271.519063 
Q 266.506177 271.519063 266.506177 272.359062 
L 266.506177 279.13375 
Q 266.506177 279.97375 267.346177 279.97375 
z
" style="fill: #ffffff; opacity: 0.85; stroke: #4caf50; stroke-width: 0.4; stroke-linejoin: miter"/>
    </g>
    <!-- 3 -->
    <g style="fill: #4caf50" transform="translate(267.346177 277.677969) scale(0.07 -0.07)">
     <defs>
      <path id="DejaVuSans-Bold-33" d="M 2981 2516 
Q 3453 2394 3698 2092 
Q 3944 1791 3944 1325 
Q 3944 631 3412 270 
Q 2881 -91 1863 -91 
Q 1503 -91 1142 -33 
Q 781 25 428 141 
L 428 1069 
Q 766 900 1098 814 
Q 1431 728 1753 728 
Q 2231 728 2486 893 
Q 2741 1059 2741 1369 
Q 2741 1688 2480 1852 
Q 2219 2016 1709 2016 
L 1228 2016 
L 1228 2791 
L 1734 2791 
Q 2188 2791 2409 2933 
Q 2631 3075 2631 3366 
Q 2631 3634 2415 3781 
Q 2200 3928 1806 3928 
Q 1516 3928 1219 3862 
Q 922 3797 628 3669 
L 628 4550 
Q 984 4650 1334 4700 
Q 1684 4750 2022 4750 
Q 2931 4750 3382 4451 
Q 3834 4153 3834 3553 
Q 3834 3144 3618 2883 
Q 3403 2622 2981 2516 
z
" transform="scale(0.015625)"/>
     </defs>
     <use xlink:href="#DejaVuSans-Bold-33"/>
    </g>
   </g>
   <g id="text_20">
    <g id="patch_10">
     <path d="M 372.558298 279.97375 
L 377.428767 279.97375 
Q 378.268767 279.97375 378.268767 279.13375 
L 378.268767 272.359062 
Q 378.268767 271.519063 377.428767 271.519063 
L 372.558298 271.519063 
Q 371.718298 271.519063 371.718298 272.359062 
L 371.718298 279.13375 
Q 371.718298 279.97375 372.558298 279.97375 
z
" style="fill: #ffffff; opacity: 0.85; stroke: #4caf50; stroke-width: 0.4; stroke-linejoin: miter"/>
    </g>
    <!-- 4 -->
    <g style="fill: #4caf50" transform="translate(372.558298 277.677969) scale(0.07 -0.07)">
     <defs>
      <path id="DejaVuSans-Bold-34" d="M 2356 3675 
L 1038 1722 
L 2356 1722 
L 2356 3675 
z
M 2156 4666 
L 3494 4666 
L 3494 1722 
L 4159 1722 
L 4159 850 
L 3494 850 
L 3494 0 
L 2356 0 
L 2356 850 
L 288 850 
L 288 1881 
L 2156 4666 
z
" transform="scale(0.015625)"/>
     </defs>
     <use xlink:href="#DejaVuSans-Bold-34"/>
    </g>
   </g>
   <g id="text_21">
    <g id="patch_11">
     <path d="M 417.649207 279.97375 
L 422.519676 279.97375 
Q 423.359676 279.97375 423.359676 279.13375 
L 423.359676 272.359062 
Q 423.359676 271.519063 422.519676 271.519063 
L 417.649207 271.519063 
Q 416.809207 271.519063 416.809207 272.359062 
L 416.809207 279.13375 
Q 416.809207 279.97375 417.649207 279.97375 
z
" style="fill: #ffffff; opacity: 0.85; stroke: #4caf50; stroke-width: 0.4; stroke-linejoin: miter"/>
    </g>
    <!-- 5 -->
    <g style="fill: #4caf50" transform="translate(417.649207 277.677969) scale(0.07 -0.07)">
     <defs>
      <path id="DejaVuSans-Bold-35" d="M 678 4666 
L 3669 4666 
L 3669 3781 
L 1638 3781 
L 1638 3059 
Q 1775 3097 1914 3117 
Q 2053 3138 2203 3138 
Q 3056 3138 3531 2711 
Q 4006 2284 4006 1522 
Q 4006 766 3489 337 
Q 2972 -91 2053 -91 
Q 1656 -91 1267 -14 
Q 878 63 494 219 
L 494 1166 
Q 875 947 1217 837 
Q 1559 728 1863 728 
Q 2300 728 2551 942 
Q 2803 1156 2803 1522 
Q 2803 1891 2551 2103 
Q 2300 2316 1863 2316 
Q 1603 2316 1309 2248 
Q 1016 2181 678 2041 
L 678 4666 
z
" transform="scale(0.015625)"/>
     </defs>
     <use xlink:href="#DejaVuSans-Bold-35"/>
    </g>
   </g>
   <g id="text_22">
    <g id="patch_12">
     <path d="M 447.709813 279.97375 
L 452.580282 279.97375 
Q 453.420282 279.97375 453.420282 279.13375 
L 453.420282 272.359062 
Q 453.420282 271.519063 452.580282 271.519063 
L 447.709813 271.519063 
Q 446.869813 271.519063 446.869813 272.359062 
L 446.869813 279.13375 
Q 446.869813 279.97375 447.709813 279.97375 
z
" style="fill: #ffffff; opacity: 0.85; stroke: #4caf50; stroke-width: 0.4; stroke-linejoin: miter"/>
    </g>
    <!-- 6 -->
    <g style="fill: #4caf50" transform="translate(447.709813 277.677969) scale(0.07 -0.07)">
     <defs>
      <path id="DejaVuSans-Bold-36" d="M 2316 2303 
Q 2000 2303 1842 2098 
Q 1684 1894 1684 1484 
Q 1684 1075 1842 870 
Q 2000 666 2316 666 
Q 2634 666 2792 870 
Q 2950 1075 2950 1484 
Q 2950 1894 2792 2098 
Q 2634 2303 2316 2303 
z
M 3803 4544 
L 3803 3681 
Q 3506 3822 3243 3889 
Q 2981 3956 2731 3956 
Q 2194 3956 1894 3657 
Q 1594 3359 1544 2772 
Q 1750 2925 1990 3001 
Q 2231 3078 2516 3078 
Q 3231 3078 3670 2659 
Q 4109 2241 4109 1563 
Q 4109 813 3618 361 
Q 3128 -91 2303 -91 
Q 1394 -91 895 523 
Q 397 1138 397 2266 
Q 397 3422 980 4083 
Q 1563 4744 2578 4744 
Q 2900 4744 3203 4694 
Q 3506 4644 3803 4544 
z
" transform="scale(0.015625)"/>
     </defs>
     <use xlink:href="#DejaVuSans-Bold-36"/>
    </g>
   </g>
   <g id="text_23">
    <g id="patch_13">
     <path d="M 462.740116 279.97375 
L 467.610585 279.97375 
Q 468.450585 279.97375 468.450585 279.13375 
L 468.450585 272.359062 
Q 468.450585 271.519063 467.610585 271.519063 
L 462.740116 271.519063 
Q 461.900116 271.519063 461.900116 272.359062 
L 461.900116 279.13375 
Q 461.900116 279.97375 462.740116 279.97375 
z
" style="fill: #ffffff; opacity: 0.85; stroke: #4caf50; stroke-width: 0.4; stroke-linejoin: miter"/>
    </g>
    <!-- 7 -->
    <g style="fill: #4caf50" transform="translate(462.740116 277.677969) scale(0.07 -0.07)">
     <defs>
      <path id="DejaVuSans-Bold-37" d="M 428 4666 
L 3944 4666 
L 3944 3988 
L 2125 0 
L 953 0 
L 2675 3781 
L 428 3781 
L 428 4666 
z
" transform="scale(0.015625)"/>
     </defs>
     <use xlink:href="#DejaVuSans-Bold-37"/>
    </g>
   </g>
   <g id="text_24">
    <g id="patch_14">
     <path d="M 86.98254 279.97375 
L 91.853009 279.97375 
Q 92.693009 279.97375 92.693009 279.13375 
L 92.693009 272.359062 
Q 92.693009 271.519063 91.853009 271.519063 
L 86.98254 271.519063 
Q 86.14254 271.519063 86.14254 272.359062 
L 86.14254 279.13375 
Q 86.14254 279.97375 86.98254 279.97375 
z
" style="fill: #ffffff; opacity: 0.85; stroke: #e91e63; stroke-width: 0.4; stroke-linejoin: miter"/>
    </g>
    <!-- 8 -->
    <g style="fill: #e91e63" transform="translate(86.98254 277.677969) scale(0.07 -0.07)">
     <defs>
      <path id="DejaVuSans-Bold-38" d="M 2228 2088 
Q 1891 2088 1709 1903 
Q 1528 1719 1528 1375 
Q 1528 1031 1709 848 
Q 1891 666 2228 666 
Q 2563 666 2741 848 
Q 2919 1031 2919 1375 
Q 2919 1722 2741 1905 
Q 2563 2088 2228 2088 
z
M 1350 2484 
Q 925 2613 709 2878 
Q 494 3144 494 3541 
Q 494 4131 934 4440 
Q 1375 4750 2228 4750 
Q 3075 4750 3515 4442 
Q 3956 4134 3956 3541 
Q 3956 3144 3739 2878 
Q 3522 2613 3097 2484 
Q 3572 2353 3814 2058 
Q 4056 1763 4056 1313 
Q 4056 619 3595 264 
Q 3134 -91 2228 -91 
Q 1319 -91 855 264 
Q 391 619 391 1313 
Q 391 1763 633 2058 
Q 875 2353 1350 2484 
z
M 1631 3419 
Q 1631 3141 1786 2991 
Q 1941 2841 2228 2841 
Q 2509 2841 2662 2991 
Q 2816 3141 2816 3419 
Q 2816 3697 2662 3845 
Q 2509 3994 2228 3994 
Q 1941 3994 1786 3844 
Q 1631 3694 1631 3419 
z
" transform="scale(0.015625)"/>
     </defs>
     <use xlink:href="#DejaVuSans-Bold-38"/>
    </g>
   </g>
   <g id="text_25">
    <g id="patch_15">
     <path d="M 102.012843 279.97375 
L 106.883312 279.97375 
Q 107.723312 279.97375 107.723312 279.13375 
L 107.723312 272.359062 
Q 107.723312 271.519063 106.883312 271.519063 
L 102.012843 271.519063 
Q 101.172843 271.519063 101.172843 272.359062 
L 101.172843 279.13375 
Q 101.172843 279.97375 102.012843 279.97375 
z
" style="fill: #ffffff; opacity: 0.85; stroke: #e91e63; stroke-width: 0.4; stroke-linejoin: miter"/>
    </g>
    <!-- 9 -->
    <g style="fill: #e91e63" transform="translate(102.012843 277.677969) scale(0.07 -0.07)">
     <defs>
      <path id="DejaVuSans-Bold-39" d="M 641 103 
L 641 966 
Q 928 831 1190 764 
Q 1453 697 1709 697 
Q 2247 697 2547 995 
Q 2847 1294 2900 1881 
Q 2688 1725 2447 1647 
Q 2206 1569 1925 1569 
Q 1209 1569 770 1986 
Q 331 2403 331 3084 
Q 331 3838 820 4291 
Q 1309 4744 2131 4744 
Q 3044 4744 3544 4128 
Q 4044 3513 4044 2388 
Q 4044 1231 3459 570 
Q 2875 -91 1856 -91 
Q 1528 -91 1228 -42 
Q 928 6 641 103 
z
M 2125 2350 
Q 2441 2350 2600 2554 
Q 2759 2759 2759 3169 
Q 2759 3575 2600 3781 
Q 2441 3988 2125 3988 
Q 1809 3988 1650 3781 
Q 1491 3575 1491 3169 
Q 1491 2759 1650 2554 
Q 1809 2350 2125 2350 
z
" transform="scale(0.015625)"/>
     </defs>
     <use xlink:href="#DejaVuSans-Bold-39"/>
    </g>
   </g>
   <g id="text_26">
    <g id="patch_16">
     <path d="M 114.607912 279.97375 
L 124.348849 279.97375 
Q 125.188849 279.97375 125.188849 279.13375 
L 125.188849 272.359062 
Q 125.188849 271.519063 124.348849 271.519063 
L 114.607912 271.519063 
Q 113.767912 271.519063 113.767912 272.359062 
L 113.767912 279.13375 
Q 113.767912 279.97375 114.607912 279.97375 
z
" style="fill: #ffffff; opacity: 0.85; stroke: #e91e63; stroke-width: 0.4; stroke-linejoin: miter"/>
    </g>
    <!-- 10 -->
    <g style="fill: #e91e63" transform="translate(114.607912 277.677969) scale(0.07 -0.07)">
     <defs>
      <path id="DejaVuSans-Bold-30" d="M 2944 2338 
Q 2944 3213 2780 3570 
Q 2616 3928 2228 3928 
Q 1841 3928 1675 3570 
Q 1509 3213 1509 2338 
Q 1509 1453 1675 1090 
Q 1841 728 2228 728 
Q 2613 728 2778 1090 
Q 2944 1453 2944 2338 
z
M 4147 2328 
Q 4147 1169 3647 539 
Q 3147 -91 2228 -91 
Q 1306 -91 806 539 
Q 306 1169 306 2328 
Q 306 3491 806 4120 
Q 1306 4750 2228 4750 
Q 3147 4750 3647 4120 
Q 4147 3491 4147 2328 
z
" transform="scale(0.015625)"/>
     </defs>
     <use xlink:href="#DejaVuSans-Bold-31"/>
     <use xlink:href="#DejaVuSans-Bold-30" transform="translate(69.580078 0)"/>
    </g>
   </g>
   <g id="patch_17">
    <path d="M 76.087256 36.73348 
Q 277.297039 161.678265 477.557014 286.033249 
" style="fill: none; opacity: 0.35; stroke: #795548; stroke-linecap: round"/>
    <path d="M 475.213943 282.224047 
L 477.557014 286.033249 
L 473.10381 285.622184 
" style="fill: none; opacity: 0.35; stroke: #795548; stroke-linecap: round"/>
   </g>
   <g id="patch_18">
    <path d="M 478.205313 287.677969 
Q 374.993565 287.677969 272.899851 287.677969 
" style="fill: none; opacity: 0.35; stroke: #795548; stroke-linecap: round"/>
    <path d="M 276.899851 289.677969 
L 272.899851 287.677969 
L 276.899851 285.677969 
" style="fill: none; opacity: 0.35; stroke: #795548; stroke-linecap: round"/>
   </g>
   <g id="patch_19">
    <path d="M 271.781751 287.677969 
Q 322.387589 287.677969 371.875392 287.677969 
" style="fill: none; opacity: 0.35; stroke: #4caf50; stroke-linecap: round"/>
    <path d="M 367.875392 285.677969 
L 371.875392 287.677969 
L 367.875392 289.677969 
" style="fill: none; opacity: 0.35; stroke: #4caf50; stroke-linecap: round"/>
   </g>
   <g id="patch_20">
    <path d="M 376.994331 287.677969 
Q 397.538667 287.677969 416.964968 287.677969 
" style="fill: none; opacity: 0.35; stroke: #4caf50; stroke-linecap: round"/>
    <path d="M 412.964968 285.677969 
L 416.964968 287.677969 
L 412.964968 289.677969 
" style="fill: none; opacity: 0.35; stroke: #4caf50; stroke-linecap: round"/>
   </g>
   <g id="patch_21">
    <path d="M 422.084323 287.677969 
Q 435.116186 287.677969 447.030016 287.677969 
" style="fill: none; opacity: 0.35; stroke: #4caf50; stroke-linecap: round"/>
    <path d="M 443.030016 285.677969 
L 447.030016 287.677969 
L 443.030016 289.677969 
" style="fill: none; opacity: 0.35; stroke: #4caf50; stroke-linecap: round"/>
   </g>
   <g id="patch_22">
    <path d="M 452.144929 287.677969 
Q 457.659635 287.677969 462.056307 287.677969 
" style="fill: none; opacity: 0.35; stroke: #4caf50; stroke-linecap: round"/>
    <path d="M 458.056307 285.677969 
L 462.056307 287.677969 
L 458.056307 289.677969 
" style="fill: none; opacity: 0.35; stroke: #4caf50; stroke-linecap: round"/>
   </g>
   <g id="patch_23">
    <path d="M 463.177189 287.677969 
Q 277.296953 287.677969 92.534751 287.677969 
" style="fill: none; opacity: 0.35; stroke: #4caf50; stroke-linecap: round"/>
    <path d="M 96.534751 289.677969 
L 92.534751 287.677969 
L 96.534751 285.677969 
" style="fill: none; opacity: 0.35; stroke: #4caf50; stroke-linecap: round"/>
   </g>
   <g id="patch_24">
    <path d="M 91.417656 287.677969 
Q 96.932362 287.677969 101.329034 287.677969 
" style="fill: none; opacity: 0.35; stroke: #e91e63; stroke-linecap: round"/>
    <path d="M 97.329034 285.677969 
L 101.329034 287.677969 
L 97.329034 289.677969 
" style="fill: none; opacity: 0.35; stroke: #e91e63; stroke-linecap: round"/>
   </g>
   <g id="patch_25">
    <path d="M 106.447959 287.677969 
Q 111.962665 287.677969 116.359337 287.677969 
" style="fill: none; opacity: 0.35; stroke: #e91e63; stroke-linecap: round"/>
    <path d="M 112.359337 285.677969 
L 116.359337 287.677969 
L 112.359337 289.677969 
" style="fill: none; opacity: 0.35; stroke: #e91e63; stroke-linecap: round"/>
   </g>
   <g id="text_27">
    <!-- sklearn: DBSCAN eps Selection (silhouette, binary search) -->
    <g transform="translate(88.713281 17.077969) scale(0.13 -0.13)">
     <defs>
      <path id="DejaVuSans-6b" d="M 581 4863 
L 1159 4863 
L 1159 1991 
L 2875 3500 
L 3609 3500 
L 1753 1863 
L 3688 0 
L 2938 0 
L 1159 1709 
L 1159 0 
L 581 0 
L 581 4863 
z
" transform="scale(0.015625)"/>
      <path id="DejaVuSans-61" d="M 2194 1759 
Q 1497 1759 1228 1600 
Q 959 1441 959 1056 
Q 959 750 1161 570 
Q 1363 391 1709 391 
Q 2188 391 2477 730 
Q 2766 1069 2766 1631 
L 2766 1759 
L 2194 1759 
z
M 3341 1997 
L 3341 0 
L 2766 0 
L 2766 531 
Q 2569 213 2275 61 
Q 1981 -91 1556 -91 
Q 1019 -91 701 211 
Q 384 513 384 1019 
Q 384 1609 779 1909 
Q 1175 2209 1959 2209 
L 2766 2209 
L 2766 2266 
Q 2766 2663 2505 2880 
Q 2244 3097 1772 3097 
Q 1472 3097 1187 3025 
Q 903 2953 641 2809 
L 641 3341 
Q 956 3463 1253 3523 
Q 1550 3584 1831 3584 
Q 2591 3584 2966 3190 
Q 3341 2797 3341 1997 
z
" transform="scale(0.015625)"/>
      <path id="DejaVuSans-72" d="M 2631 2963 
Q 2534 3019 2420 3045 
Q 2306 3072 2169 3072 
Q 1681 3072 1420 2755 
Q 1159 2438 1159 1844 
L 1159 0 
L 581 0 
L 581 3500 
L 1159 3500 
L 1159 2956 
Q 1341 3275 1631 3429 
Q 1922 3584 2338 3584 
Q 2397 3584 2469 3576 
Q 2541 3569 2628 3553 
L 2631 2963 
z
" transform="scale(0.015625)"/>
      <path id="DejaVuSans-6e" d="M 3513 2113 
L 3513 0 
L 2938 0 
L 2938 2094 
Q 2938 2591 2744 2837 
Q 2550 3084 2163 3084 
Q 1697 3084 1428 2787 
Q 1159 2491 1159 1978 
L 1159 0 
L 581 0 
L 581 3500 
L 1159 3500 
L 1159 2956 
Q 1366 3272 1645 3428 
Q 1925 3584 2291 3584 
Q 2894 3584 3203 3211 
Q 3513 2838 3513 2113 
z
" transform="scale(0.015625)"/>
      <path id="DejaVuSans-3a" d="M 750 794 
L 1409 794 
L 1409 0 
L 750 0 
L 750 794 
z
M 750 3309 
L 1409 3309 
L 1409 2516 
L 750 2516 
L 750 3309 
z
" transform="scale(0.015625)"/>
      <path id="DejaVuSans-44" d="M 1259 4147 
L 1259 519 
L 2022 519 
Q 2988 519 3436 956 
Q 3884 1394 3884 2338 
Q 3884 3275 3436 3711 
Q 2988 4147 2022 4147 
L 1259 4147 
z
M 628 4666 
L 1925 4666 
Q 3281 4666 3915 4102 
Q 4550 3538 4550 2338 
Q 4550 1131 3912 565 
Q 3275 0 1925 0 
L 628 0 
L 628 4666 
z
" transform="scale(0.015625)"/>
      <path id="DejaVuSans-42" d="M 1259 2228 
L 1259 519 
L 2272 519 
Q 2781 519 3026 730 
Q 3272 941 3272 1375 
Q 3272 1813 3026 2020 
Q 2781 2228 2272 2228 
L 1259 2228 
z
M 1259 4147 
L 1259 2741 
L 2194 2741 
Q 2656 2741 2882 2914 
Q 3109 3088 3109 3444 
Q 3109 3797 2882 3972 
Q 2656 4147 2194 4147 
L 1259 4147 
z
M 628 4666 
L 2241 4666 
Q 2963 4666 3353 4366 
Q 3744 4066 3744 3513 
Q 3744 3084 3544 2831 
Q 3344 2578 2956 2516 
Q 3422 2416 3680 2098 
Q 3938 1781 3938 1306 
Q 3938 681 3513 340 
Q 3088 0 2303 0 
L 628 0 
L 628 4666 
z
" transform="scale(0.015625)"/>
      <path id="DejaVuSans-43" d="M 4122 4306 
L 4122 3641 
Q 3803 3938 3442 4084 
Q 3081 4231 2675 4231 
Q 1875 4231 1450 3742 
Q 1025 3253 1025 2328 
Q 1025 1406 1450 917 
Q 1875 428 2675 428 
Q 3081 428 3442 575 
Q 3803 722 4122 1019 
L 4122 359 
Q 3791 134 3420 21 
Q 3050 -91 2638 -91 
Q 1578 -91 968 557 
Q 359 1206 359 2328 
Q 359 3453 968 4101 
Q 1578 4750 2638 4750 
Q 3056 4750 3426 4639 
Q 3797 4528 4122 4306 
z
" transform="scale(0.015625)"/>
      <path id="DejaVuSans-41" d="M 2188 4044 
L 1331 1722 
L 3047 1722 
L 2188 4044 
z
M 1831 4666 
L 2547 4666 
L 4325 0 
L 3669 0 
L 3244 1197 
L 1141 1197 
L 716 0 
L 50 0 
L 1831 4666 
z
" transform="scale(0.015625)"/>
      <path id="DejaVuSans-4e" d="M 628 4666 
L 1478 4666 
L 3547 763 
L 3547 4666 
L 4159 4666 
L 4159 0 
L 3309 0 
L 1241 3903 
L 1241 0 
L 628 0 
L 628 4666 
z
" transform="scale(0.015625)"/>
      <path id="DejaVuSans-63" d="M 3122 3366 
L 3122 2828 
Q 2878 2963 2633 3030 
Q 2388 3097 2138 3097 
Q 1578 3097 1268 2742 
Q 959 2388 959 1747 
Q 959 1106 1268 751 
Q 1578 397 2138 397 
Q 2388 397 2633 464 
Q 2878 531 3122 666 
L 3122 134 
Q 2881 22 2623 -34 
Q 2366 -91 2075 -91 
Q 1284 -91 818 406 
Q 353 903 353 1747 
Q 353 2603 823 3093 
Q 1294 3584 2113 3584 
Q 2378 3584 2631 3529 
Q 2884 3475 3122 3366 
z
" transform="scale(0.015625)"/>
      <path id="DejaVuSans-28" d="M 1984 4856 
Q 1566 4138 1362 3434 
Q 1159 2731 1159 2009 
Q 1159 1288 1364 580 
Q 1569 -128 1984 -844 
L 1484 -844 
Q 1016 -109 783 600 
Q 550 1309 550 2009 
Q 550 2706 781 3412 
Q 1013 4119 1484 4856 
L 1984 4856 
z
" transform="scale(0.015625)"/>
      <path id="DejaVuSans-2c" d="M 750 794 
L 1409 794 
L 1409 256 
L 897 -744 
L 494 -744 
L 750 256 
L 750 794 
z
" transform="scale(0.015625)"/>
      <path id="DejaVuSans-62" d="M 3116 1747 
Q 3116 2381 2855 2742 
Q 2594 3103 2138 3103 
Q 1681 3103 1420 2742 
Q 1159 2381 1159 1747 
Q 1159 1113 1420 752 
Q 1681 391 2138 391 
Q 2594 391 2855 752 
Q 3116 1113 3116 1747 
z
M 1159 2969 
Q 1341 3281 1617 3432 
Q 1894 3584 2278 3584 
Q 2916 3584 3314 3078 
Q 3713 2572 3713 1747 
Q 3713 922 3314 415 
Q 2916 -91 2278 -91 
Q 1894 -91 1617 61 
Q 1341 213 1159 525 
L 1159 0 
L 581 0 
L 581 4863 
L 1159 4863 
L 1159 2969 
z
" transform="scale(0.015625)"/>
      <path id="DejaVuSans-79" d="M 2059 -325 
Q 1816 -950 1584 -1140 
Q 1353 -1331 966 -1331 
L 506 -1331 
L 506 -850 
L 844 -850 
Q 1081 -850 1212 -737 
Q 1344 -625 1503 -206 
L 1606 56 
L 191 3500 
L 800 3500 
L 1894 763 
L 2988 3500 
L 3597 3500 
L 2059 -325 
z
" transform="scale(0.015625)"/>
      <path id="DejaVuSans-29" d="M 513 4856 
L 1013 4856 
Q 1481 4119 1714 3412 
Q 1947 2706 1947 2009 
Q 1947 1309 1714 600 
Q 1481 -109 1013 -844 
L 513 -844 
Q 928 -128 1133 580 
Q 1338 1288 1338 2009 
Q 1338 2731 1133 3434 
Q 928 4138 513 4856 
z
" transform="scale(0.015625)"/>
     </defs>
     <use xlink:href="#DejaVuSans-73"/>
     <use xlink:href="#DejaVuSans-6b" transform="translate(52.099609 0)"/>
     <use xlink:href="#DejaVuSans-6c" transform="translate(110.009766 0)"/>
     <use xlink:href="#DejaVuSans-65" transform="translate(137.792969 0)"/>
     <use xlink:href="#DejaVuSans-61" transform="translate(199.316406 0)"/>
     <use xlink:href="#DejaVuSans-72" transform="translate(260.595703 0)"/>
     <use xlink:href="#DejaVuSans-6e" transform="translate(299.958984 0)"/>
     <use xlink:href="#DejaVuSans-3a" transform="translate(363.337891 0)"/>
     <use xlink:href="#DejaVuSans-20" transform="translate(397.029297 0)"/>
     <use xlink:href="#DejaVuSans-44" transform="translate(428.816406 0)"/>
     <use xlink:href="#DejaVuSans-42" transform="translate(505.818359 0)"/>
     <use xlink:href="#DejaVuSans-53" transform="translate(572.671875 0)"/>
     <use xlink:href="#DejaVuSans-43" transform="translate(636.148438 0)"/>
     <use xlink:href="#DejaVuSans-41" transform="translate(705.972656 0)"/>
     <use xlink:href="#DejaVuSans-4e" transform="translate(774.380859 0)"/>
     <use xlink:href="#DejaVuSans-20" transform="translate(849.185547 0)"/>
     <use xlink:href="#DejaVuSans-65" transform="translate(880.972656 0)"/>
     <use xlink:href="#DejaVuSans-70" transform="translate(942.496094 0)"/>
     <use xlink:href="#DejaVuSans-73" transform="translate(1005.972656 0)"/>
     <use xlink:href="#DejaVuSans-20" transform="translate(1058.072266 0)"/>
     <use xlink:href="#DejaVuSans-53" transform="translate(1089.859375 0)"/>
     <use xlink:href="#DejaVuSans-65" transform="translate(1153.335938 0)"/>
     <use xlink:href="#DejaVuSans-6c" transform="translate(1214.859375 0)"/>
     <use xlink:href="#DejaVuSans-65" transform="translate(1242.642578 0)"/>
     <use xlink:href="#DejaVuSans-63" transform="translate(1304.166016 0)"/>
     <use xlink:href="#DejaVuSans-74" transform="translate(1359.146484 0)"/>
     <use xlink:href="#DejaVuSans-69" transform="translate(1398.355469 0)"/>
     <use xlink:href="#DejaVuSans-6f" transform="translate(1426.138672 0)"/>
     <use xlink:href="#DejaVuSans-6e" transform="translate(1487.320312 0)"/>
     <use xlink:href="#DejaVuSans-20" transform="translate(1550.699219 0)"/>
     <use xlink:href="#DejaVuSans-28" transform="translate(1582.486328 0)"/>
     <use xlink:href="#DejaVuSans-73" transform="translate(1621.5 0)"/>
     <use xlink:href="#DejaVuSans-69" transform="translate(1673.599609 0)"/>
     <use xlink:href="#DejaVuSans-6c" transform="translate(1701.382812 0)"/>
     <use xlink:href="#DejaVuSans-68" transform="translate(1729.166016 0)"/>
     <use xlink:href="#DejaVuSans-6f" transform="translate(1792.544922 0)"/>
     <use xlink:href="#DejaVuSans-75" transform="translate(1853.726562 0)"/>
     <use xlink:href="#DejaVuSans-65" transform="translate(1917.105469 0)"/>
     <use xlink:href="#DejaVuSans-74" transform="translate(1978.628906 0)"/>
     <use xlink:href="#DejaVuSans-74" transform="translate(2017.837891 0)"/>
     <use xlink:href="#DejaVuSans-65" transform="translate(2057.046875 0)"/>
     <use xlink:href="#DejaVuSans-2c" transform="translate(2118.570312 0)"/>
     <use xlink:href="#DejaVuSans-20" transform="translate(2150.357422 0)"/>
     <use xlink:href="#DejaVuSans-62" transform="translate(2182.144531 0)"/>
     <use xlink:href="#DejaVuSans-69" transform="translate(2245.621094 0)"/>
     <use xlink:href="#DejaVuSans-6e" transform="translate(2273.404297 0)"/>
     <use xlink:href="#DejaVuSans-61" transform="translate(2336.783203 0)"/>
     <use xlink:href="#DejaVuSans-72" transform="translate(2398.0625 0)"/>
     <use xlink:href="#DejaVuSans-79" transform="translate(2439.175781 0)"/>
     <use xlink:href="#DejaVuSans-20" transform="translate(2498.355469 0)"/>
     <use xlink:href="#DejaVuSans-73" transform="translate(2530.142578 0)"/>
     <use xlink:href="#DejaVuSans-65" transform="translate(2582.242188 0)"/>
     <use xlink:href="#DejaVuSans-61" transform="translate(2643.765625 0)"/>
     <use xlink:href="#DejaVuSans-72" transform="translate(2705.044922 0)"/>
     <use xlink:href="#DejaVuSans-63" transform="translate(2743.908203 0)"/>
     <use xlink:href="#DejaVuSans-68" transform="translate(2798.888672 0)"/>
     <use xlink:href="#DejaVuSans-29" transform="translate(2862.267578 0)"/>
    </g>
   </g>
   <g id="line2d_31">
    <defs>
     <path id="m8b9cdff9fd" d="M 0 3.5 
C 0.928211 3.5 1.81853 3.131218 2.474874 2.474874 
C 3.131218 1.81853 3.5 0.928211 3.5 0 
C 3.5 -0.928211 3.131218 -1.81853 2.474874 -2.474874 
C 1.81853 -3.131218 0.928211 -3.5 0 -3.5 
C -0.928211 -3.5 -1.81853 -3.131218 -2.474874 -2.474874 
C -3.131218 -1.81853 -3.5 -0.928211 -3.5 0 
C -3.5 0.928211 -3.131218 1.81853 -2.474874 2.474874 
C -1.81853 3.131218 -0.928211 3.5 0 3.5 
z
" style="stroke: #795548"/>
    </defs>
    <g clip-path="url(#p3b4ad6d9d9)">
     <use xlink:href="#m8b9cdff9fd" x="74.387472" y="35.677969" style="fill: #795548; stroke: #795548"/>
    </g>
   </g>
   <g id="line2d_32">
    <g clip-path="url(#p3b4ad6d9d9)">
     <use xlink:href="#m8b9cdff9fd" x="480.205653" y="287.677969" style="fill: #795548; stroke: #795548"/>
    </g>
   </g>
   <g id="line2d_33">
    <defs>
     <path id="mf9d1791afc" d="M 0 3.5 
C 0.928211 3.5 1.81853 3.131218 2.474874 2.474874 
C 3.131218 1.81853 3.5 0.928211 3.5 0 
C 3.5 -0.928211 3.131218 -1.81853 2.474874 -2.474874 
C 1.81853 -3.131218 0.928211 -3.5 0 -3.5 
C -0.928211 -3.5 -1.81853 -3.131218 -2.474874 -2.474874 
C -3.131218 -1.81853 -3.5 -0.928211 -3.5 0 
C -3.5 0.928211 -3.131218 1.81853 -2.474874 2.474874 
C -1.81853 3.131218 -0.928211 3.5 0 3.5 
z
" style="stroke: #4caf50"/>
    </defs>
    <g clip-path="url(#p3b4ad6d9d9)">
     <use xlink:href="#mf9d1791afc" x="269.781411" y="287.677969" style="fill: #4caf50; stroke: #4caf50"/>
    </g>
   </g>
   <g id="line2d_34">
    <g clip-path="url(#p3b4ad6d9d9)">
     <use xlink:href="#mf9d1791afc" x="374.993532" y="287.677969" style="fill: #4caf50; stroke: #4caf50"/>
    </g>
   </g>
   <g id="line2d_35">
    <g clip-path="url(#p3b4ad6d9d9)">
     <use xlink:href="#mf9d1791afc" x="420.084441" y="287.677969" style="fill: #4caf50; stroke: #4caf50"/>
    </g>
   </g>
   <g id="line2d_36">
    <g clip-path="url(#p3b4ad6d9d9)">
     <use xlink:href="#mf9d1791afc" x="450.145047" y="287.677969" style="fill: #4caf50; stroke: #4caf50"/>
    </g>
   </g>
   <g id="line2d_37">
    <g clip-path="url(#p3b4ad6d9d9)">
     <use xlink:href="#mf9d1791afc" x="465.17535" y="287.677969" style="fill: #4caf50; stroke: #4caf50"/>
    </g>
   </g>
   <g id="line2d_38">
    <defs>
     <path id="m2c23ded5a7" d="M 0 3.5 
C 0.928211 3.5 1.81853 3.131218 2.474874 2.474874 
C 3.131218 1.81853 3.5 0.928211 3.5 0 
C 3.5 -0.928211 3.131218 -1.81853 2.474874 -2.474874 
C 1.81853 -3.131218 0.928211 -3.5 0 -3.5 
C -0.928211 -3.5 -1.81853 -3.131218 -2.474874 -2.474874 
C -3.131218 -1.81853 -3.5 -0.928211 -3.5 0 
C -3.5 0.928211 -3.131218 1.81853 -2.474874 2.474874 
C -1.81853 3.131218 -0.928211 3.5 0 3.5 
z
" style="stroke: #e91e63"/>
    </defs>
    <g clip-path="url(#p3b4ad6d9d9)">
     <use xlink:href="#m2c23ded5a7" x="89.417775" y="287.677969" style="fill: #e91e63; stroke: #e91e63"/>
    </g>
   </g>
   <g id="line2d_39">
    <g clip-path="url(#p3b4ad6d9d9)">
     <use xlink:href="#m2c23ded5a7" x="104.448078" y="287.677969" style="fill: #e91e63; stroke: #e91e63"/>
    </g>
   </g>
   <g id="line2d_40">
    <g clip-path="url(#p3b4ad6d9d9)">
     <use xlink:href="#m2c23ded5a7" x="119.478381" y="287.677969" style="fill: #e91e63; stroke: #e91e63"/>
    </g>
   </g>
   <g id="legend_1">
    <g id="patch_26">
     <path d="M 435.196562 60.434219 
L 493.496562 60.434219 
Q 495.496562 60.434219 495.496562 58.434219 
L 495.496562 30.077969 
Q 495.496562 28.077969 493.496562 28.077969 
L 435.196562 28.077969 
Q 433.196562 28.077969 433.196562 30.077969 
L 433.196562 58.434219 
Q 433.196562 60.434219 435.196562 60.434219 
z
" style="fill: #ffffff; opacity: 0.8; stroke: #cccccc; stroke-linejoin: miter"/>
    </g>
    <g id="line2d_41">
     <path d="M 437.196562 36.176406 
L 447.196562 36.176406 
L 457.196562 36.176406 
" style="fill: none; stroke: #2196f3; stroke-width: 2; stroke-linecap: square"/>
     <g>
      <use xlink:href="#m28e6f5c0dd" x="447.196562" y="36.176406" style="fill: #2196f3; stroke: #2196f3"/>
     </g>
    </g>
    <g id="text_28">
     <!-- f(K) -->
     <g transform="translate(465.196562 39.676406) scale(0.1 -0.1)">
      <defs>
       <path id="DejaVuSans-66" d="M 2375 4863 
L 2375 4384 
L 1825 4384 
Q 1516 4384 1395 4259 
Q 1275 4134 1275 3809 
L 1275 3500 
L 2222 3500 
L 2222 3053 
L 1275 3053 
L 1275 0 
L 697 0 
L 697 3053 
L 147 3053 
L 147 3500 
L 697 3500 
L 697 3744 
Q 697 4328 969 4595 
Q 1241 4863 1831 4863 
L 2375 4863 
z
" transform="scale(0.015625)"/>
       <path id="DejaVuSans-4b" d="M 628 4666 
L 1259 4666 
L 1259 2694 
L 3353 4666 
L 4166 4666 
L 1850 2491 
L 4331 0 
L 3500 0 
L 1259 2247 
L 1259 0 
L 628 0 
L 628 4666 
z
" transform="scale(0.015625)"/>
      </defs>
      <use xlink:href="#DejaVuSans-66"/>
      <use xlink:href="#DejaVuSans-28" transform="translate(35.205078 0)"/>
      <use xlink:href="#DejaVuSans-4b" transform="translate(74.21875 0)"/>
      <use xlink:href="#DejaVuSans-29" transform="translate(139.794922 0)"/>
     </g>
    </g>
    <g id="line2d_42">
     <path d="M 437.196562 50.854531 
L 447.196562 50.854531 
L 457.196562 50.854531 
" style="fill: none; stroke-dasharray: 7.4,3.2; stroke-dashoffset: 0; stroke: #f44336; stroke-width: 2"/>
    </g>
    <g id="text_29">
     <!-- K*=3 -->
     <g transform="translate(465.196562 54.354531) scale(0.1 -0.1)">
      <defs>
       <path id="DejaVuSans-2a" d="M 3009 3897 
L 1888 3291 
L 3009 2681 
L 2828 2375 
L 1778 3009 
L 1778 1831 
L 1422 1831 
L 1422 3009 
L 372 2375 
L 191 2681 
L 1313 3291 
L 191 3897 
L 372 4206 
L 1422 3572 
L 1422 4750 
L 1778 4750 
L 1778 3572 
L 2828 4206 
L 3009 3897 
z
" transform="scale(0.015625)"/>
       <path id="DejaVuSans-3d" d="M 678 2906 
L 4684 2906 
L 4684 2381 
L 678 2381 
L 678 2906 
z
M 678 1631 
L 4684 1631 
L 4684 1100 
L 678 1100 
L 678 1631 
z
" transform="scale(0.015625)"/>
      </defs>
      <use xlink:href="#DejaVuSans-4b"/>
      <use xlink:href="#DejaVuSans-2a" transform="translate(65.576172 0)"/>
      <use xlink:href="#DejaVuSans-3d" transform="translate(115.576172 0)"/>
      <use xlink:href="#DejaVuSans-33" transform="translate(199.365234 0)"/>
     </g>
    </g>
   </g>
  </g>
 </g>
 <defs>
  <clipPath id="p3b4ad6d9d9">
   <rect x="54.096563" y="23.077969" width="446.4" height="277.2"/>
  </clipPath>
 </defs>
</svg>
