<?xml version="1.0" encoding="utf-8" standalone="no"?>
<!DOCTYPE svg PUBLIC "-//W3C//DTD SVG 1.1//EN"
  "http://www.w3.org/Graphics/SVG/1.1/DTD/svg11.dtd">
<svg xmlns:xlink="http://www.w3.org/1999/xlink" width="703.725pt" height="324.156094pt" viewBox="0 0 703.725 324.156094" xmlns="http://www.w3.org/2000/svg" version="1.1">
 <metadata>
  <rdf:RDF xmlns:dc="http://purl.org/dc/elements/1.1/" xmlns:cc="http://creativecommons.org/ns#" xmlns:rdf="http://www.w3.org/1999/02/22-rdf-syntax-ns#">
   <cc:Work>
    <dc:type rdf:resource="http://purl.org/dc/dcmitype/StillImage"/>
    <dc:date>2026-06-03T19:17:56.859194</dc:date>
    <dc:format>image/svg+xml</dc:format>
    <dc:creator>
     <cc:Agent>
      <dc:title>Matplotlib v3.10.8, https://matplotlib.org/</dc:title>
     </cc:Agent>
    </dc:creator>
   </cc:Work>
  </rdf:RDF>
 </metadata>
 <defs>
  <style type="text/css">*{stroke-linejoin: round; stroke-linecap: butt}</style>
 </defs>
 <g id="figure_1">
  <g id="patch_1">
   <path d="M 0 324.156094 
L 703.725 324.156094 
L 703.725 0 
L 0 0 
z
" style="fill: #ffffff"/>
  </g>
  <g id="axes_1">
   <g id="patch_2">
    <path d="M 26.925 300.277969 
L 696.525 300.277969 
L 696.525 23.077969 
L 26.925 23.077969 
z
" style="fill: #ffffff"/>
   </g>
   <g id="matplotlib.axis_1">
    <g id="xtick_1">
     <g id="line2d_1">
      <path d="M 57.361364 300.277969 
L 57.361364 23.077969 
" clip-path="url(#p7a48aa9ced)" style="fill: none; stroke: #b0b0b0; stroke-opacity: 0.3; stroke-width: 0.8; stroke-linecap: square"/>
     </g>
     <g id="line2d_2">
      <defs>
       <path id="m65f5fbbbe2" d="M 0 0 
L 0 3.5 
" style="stroke: #000000; stroke-width: 0.8"/>
      </defs>
      <g>
       <use xlink:href="#m65f5fbbbe2" x="57.361364" y="300.277969" style="stroke: #000000; stroke-width: 0.8"/>
      </g>
     </g>
     <g id="text_1">
      <!-- 2020-01 -->
      <g transform="translate(36.469957 314.876406) scale(0.1 -0.1)">
       <defs>
        <path id="DejaVuSans-32" d="M 1228 531 
L 3431 531 
L 3431 0 
L 469 0 
L 469 531 
Q 828 903 1448 1529 
Q 2069 2156 2228 2338 
Q 2531 2678 2651 2914 
Q 2772 3150 2772 3378 
Q 2772 3750 2511 3984 
Q 2250 4219 1831 4219 
Q 1534 4219 1204 4116 
Q 875 4013 500 3803 
L 500 4441 
Q 881 4594 1212 4672 
Q 1544 4750 1819 4750 
Q 2544 4750 2975 4387 
Q 3406 4025 3406 3419 
Q 3406 3131 3298 2873 
Q 3191 2616 2906 2266 
Q 2828 2175 2409 1742 
Q 1991 1309 1228 531 
z
" transform="scale(0.015625)"/>
        <path id="DejaVuSans-30" d="M 2034 4250 
Q 1547 4250 1301 3770 
Q 1056 3291 1056 2328 
Q 1056 1369 1301 889 
Q 1547 409 2034 409 
Q 2525 409 2770 889 
Q 3016 1369 3016 2328 
Q 3016 3291 2770 3770 
Q 2525 4250 2034 4250 
z
M 2034 4750 
Q 2819 4750 3233 4129 
Q 3647 3509 3647 2328 
Q 3647 1150 3233 529 
Q 2819 -91 2034 -91 
Q 1250 -91 836 529 
Q 422 1150 422 2328 
Q 422 3509 836 4129 
Q 1250 4750 2034 4750 
z
" transform="scale(0.015625)"/>
        <path id="DejaVuSans-2d" d="M 313 2009 
L 1997 2009 
L 1997 1497 
L 313 1497 
L 313 2009 
z
" transform="scale(0.015625)"/>
        <path id="DejaVuSans-31" d="M 794 531 
L 1825 531 
L 1825 4091 
L 703 3866 
L 703 4441 
L 1819 4666 
L 2450 4666 
L 2450 531 
L 3481 531 
L 3481 0 
L 794 0 
L 794 531 
z
" transform="scale(0.015625)"/>
       </defs>
       <use xlink:href="#DejaVuSans-32"/>
       <use xlink:href="#DejaVuSans-30" transform="translate(63.623047 0)"/>
       <use xlink:href="#DejaVuSans-32" transform="translate(127.246094 0)"/>
       <use xlink:href="#DejaVuSans-30" transform="translate(190.869141 0)"/>
       <use xlink:href="#DejaVuSans-2d" transform="translate(254.492188 0)"/>
       <use xlink:href="#DejaVuSans-30" transform="translate(290.576172 0)"/>
       <use xlink:href="#DejaVuSans-31" transform="translate(354.199219 0)"/>
      </g>
     </g>
    </g>
    <g id="xtick_2">
     <g id="line2d_3">
      <path d="M 157.701024 300.277969 
L 157.701024 23.077969 
" clip-path="url(#p7a48aa9ced)" style="fill: none; stroke: #b0b0b0; stroke-opacity: 0.3; stroke-width: 0.8; stroke-linecap: square"/>
     </g>
     <g id="line2d_4">
      <g>
       <use xlink:href="#m65f5fbbbe2" x="157.701024" y="300.277969" style="stroke: #000000; stroke-width: 0.8"/>
      </g>
     </g>
     <g id="text_2">
      <!-- 2020-03 -->
      <g transform="translate(136.809618 314.876406) scale(0.1 -0.1)">
       <defs>
        <path id="DejaVuSans-33" d="M 2597 2516 
Q 3050 2419 3304 2112 
Q 3559 1806 3559 1356 
Q 3559 666 3084 287 
Q 2609 -91 1734 -91 
Q 1441 -91 1130 -33 
Q 819 25 488 141 
L 488 750 
Q 750 597 1062 519 
Q 1375 441 1716 441 
Q 2309 441 2620 675 
Q 2931 909 2931 1356 
Q 2931 1769 2642 2001 
Q 2353 2234 1838 2234 
L 1294 2234 
L 1294 2753 
L 1863 2753 
Q 2328 2753 2575 2939 
Q 2822 3125 2822 3475 
Q 2822 3834 2567 4026 
Q 2313 4219 1838 4219 
Q 1578 4219 1281 4162 
Q 984 4106 628 3988 
L 628 4550 
Q 988 4650 1302 4700 
Q 1616 4750 1894 4750 
Q 2613 4750 3031 4423 
Q 3450 4097 3450 3541 
Q 3450 3153 3228 2886 
Q 3006 2619 2597 2516 
z
" transform="scale(0.015625)"/>
       </defs>
       <use xlink:href="#DejaVuSans-32"/>
       <use xlink:href="#DejaVuSans-30" transform="translate(63.623047 0)"/>
       <use xlink:href="#DejaVuSans-32" transform="translate(127.246094 0)"/>
       <use xlink:href="#DejaVuSans-30" transform="translate(190.869141 0)"/>
       <use xlink:href="#DejaVuSans-2d" transform="translate(254.492188 0)"/>
       <use xlink:href="#DejaVuSans-30" transform="translate(290.576172 0)"/>
       <use xlink:href="#DejaVuSans-33" transform="translate(354.199219 0)"/>
      </g>
     </g>
    </g>
    <g id="xtick_3">
     <g id="line2d_5">
      <path d="M 259.713012 300.277969 
L 259.713012 23.077969 
" clip-path="url(#p7a48aa9ced)" style="fill: none; stroke: #b0b0b0; stroke-opacity: 0.3; stroke-width: 0.8; stroke-linecap: square"/>
     </g>
     <g id="line2d_6">
      <g>
       <use xlink:href="#m65f5fbbbe2" x="259.713012" y="300.277969" style="stroke: #000000; stroke-width: 0.8"/>
      </g>
     </g>
     <g id="text_3">
      <!-- 2020-05 -->
      <g transform="translate(238.821606 314.876406) scale(0.1 -0.1)">
       <defs>
        <path id="DejaVuSans-35" d="M 691 4666 
L 3169 4666 
L 3169 4134 
L 1269 4134 
L 1269 2991 
Q 1406 3038 1543 3061 
Q 1681 3084 1819 3084 
Q 2600 3084 3056 2656 
Q 3513 2228 3513 1497 
Q 3513 744 3044 326 
Q 2575 -91 1722 -91 
Q 1428 -91 1123 -41 
Q 819 9 494 109 
L 494 744 
Q 775 591 1075 516 
Q 1375 441 1709 441 
Q 2250 441 2565 725 
Q 2881 1009 2881 1497 
Q 2881 1984 2565 2268 
Q 2250 2553 1709 2553 
Q 1456 2553 1204 2497 
Q 953 2441 691 2322 
L 691 4666 
z
" transform="scale(0.015625)"/>
       </defs>
       <use xlink:href="#DejaVuSans-32"/>
       <use xlink:href="#DejaVuSans-30" transform="translate(63.623047 0)"/>
       <use xlink:href="#DejaVuSans-32" transform="translate(127.246094 0)"/>
       <use xlink:href="#DejaVuSans-30" transform="translate(190.869141 0)"/>
       <use xlink:href="#DejaVuSans-2d" transform="translate(254.492188 0)"/>
       <use xlink:href="#DejaVuSans-30" transform="translate(290.576172 0)"/>
       <use xlink:href="#DejaVuSans-35" transform="translate(354.199219 0)"/>
      </g>
     </g>
    </g>
    <g id="xtick_4">
     <g id="line2d_7">
      <path d="M 361.725 300.277969 
L 361.725 23.077969 
" clip-path="url(#p7a48aa9ced)" style="fill: none; stroke: #b0b0b0; stroke-opacity: 0.3; stroke-width: 0.8; stroke-linecap: square"/>
     </g>
     <g id="line2d_8">
      <g>
       <use xlink:href="#m65f5fbbbe2" x="361.725" y="300.277969" style="stroke: #000000; stroke-width: 0.8"/>
      </g>
     </g>
     <g id="text_4">
      <!-- 2020-07 -->
      <g transform="translate(340.833594 314.876406) scale(0.1 -0.1)">
       <defs>
        <path id="DejaVuSans-37" d="M 525 4666 
L 3525 4666 
L 3525 4397 
L 1831 0 
L 1172 0 
L 2766 4134 
L 525 4134 
L 525 4666 
z
" transform="scale(0.015625)"/>
       </defs>
       <use xlink:href="#DejaVuSans-32"/>
       <use xlink:href="#DejaVuSans-30" transform="translate(63.623047 0)"/>
       <use xlink:href="#DejaVuSans-32" transform="translate(127.246094 0)"/>
       <use xlink:href="#DejaVuSans-30" transform="translate(190.869141 0)"/>
       <use xlink:href="#DejaVuSans-2d" transform="translate(254.492188 0)"/>
       <use xlink:href="#DejaVuSans-30" transform="translate(290.576172 0)"/>
       <use xlink:href="#DejaVuSans-37" transform="translate(354.199219 0)"/>
      </g>
     </g>
    </g>
    <g id="xtick_5">
     <g id="line2d_9">
      <path d="M 465.409316 300.277969 
L 465.409316 23.077969 
" clip-path="url(#p7a48aa9ced)" style="fill: none; stroke: #b0b0b0; stroke-opacity: 0.3; stroke-width: 0.8; stroke-linecap: square"/>
     </g>
     <g id="line2d_10">
      <g>
       <use xlink:href="#m65f5fbbbe2" x="465.409316" y="300.277969" style="stroke: #000000; stroke-width: 0.8"/>
      </g>
     </g>
     <g id="text_5">
      <!-- 2020-09 -->
      <g transform="translate(444.517909 314.876406) scale(0.1 -0.1)">
       <defs>
        <path id="DejaVuSans-39" d="M 703 97 
L 703 672 
Q 941 559 1184 500 
Q 1428 441 1663 441 
Q 2288 441 2617 861 
Q 2947 1281 2994 2138 
Q 2813 1869 2534 1725 
Q 2256 1581 1919 1581 
Q 1219 1581 811 2004 
Q 403 2428 403 3163 
Q 403 3881 828 4315 
Q 1253 4750 1959 4750 
Q 2769 4750 3195 4129 
Q 3622 3509 3622 2328 
Q 3622 1225 3098 567 
Q 2575 -91 1691 -91 
Q 1453 -91 1209 -44 
Q 966 3 703 97 
z
M 1959 2075 
Q 2384 2075 2632 2365 
Q 2881 2656 2881 3163 
Q 2881 3666 2632 3958 
Q 2384 4250 1959 4250 
Q 1534 4250 1286 3958 
Q 1038 3666 1038 3163 
Q 1038 2656 1286 2365 
Q 1534 2075 1959 2075 
z
" transform="scale(0.015625)"/>
       </defs>
       <use xlink:href="#DejaVuSans-32"/>
       <use xlink:href="#DejaVuSans-30" transform="translate(63.623047 0)"/>
       <use xlink:href="#DejaVuSans-32" transform="translate(127.246094 0)"/>
       <use xlink:href="#DejaVuSans-30" transform="translate(190.869141 0)"/>
       <use xlink:href="#DejaVuSans-2d" transform="translate(254.492188 0)"/>
       <use xlink:href="#DejaVuSans-30" transform="translate(290.576172 0)"/>
       <use xlink:href="#DejaVuSans-39" transform="translate(354.199219 0)"/>
      </g>
     </g>
    </g>
    <g id="xtick_6">
     <g id="line2d_11">
      <path d="M 567.421304 300.277969 
L 567.421304 23.077969 
" clip-path="url(#p7a48aa9ced)" style="fill: none; stroke: #b0b0b0; stroke-opacity: 0.3; stroke-width: 0.8; stroke-linecap: square"/>
     </g>
     <g id="line2d_12">
      <g>
       <use xlink:href="#m65f5fbbbe2" x="567.421304" y="300.277969" style="stroke: #000000; stroke-width: 0.8"/>
      </g>
     </g>
     <g id="text_6">
      <!-- 2020-11 -->
      <g transform="translate(546.529897 314.876406) scale(0.1 -0.1)">
       <use xlink:href="#DejaVuSans-32"/>
       <use xlink:href="#DejaVuSans-30" transform="translate(63.623047 0)"/>
       <use xlink:href="#DejaVuSans-32" transform="translate(127.246094 0)"/>
       <use xlink:href="#DejaVuSans-30" transform="translate(190.869141 0)"/>
       <use xlink:href="#DejaVuSans-2d" transform="translate(254.492188 0)"/>
       <use xlink:href="#DejaVuSans-31" transform="translate(290.576172 0)"/>
       <use xlink:href="#DejaVuSans-31" transform="translate(354.199219 0)"/>
      </g>
     </g>
    </g>
    <g id="xtick_7">
     <g id="line2d_13">
      <path d="M 669.433292 300.277969 
L 669.433292 23.077969 
" clip-path="url(#p7a48aa9ced)" style="fill: none; stroke: #b0b0b0; stroke-opacity: 0.3; stroke-width: 0.8; stroke-linecap: square"/>
     </g>
     <g id="line2d_14">
      <g>
       <use xlink:href="#m65f5fbbbe2" x="669.433292" y="300.277969" style="stroke: #000000; stroke-width: 0.8"/>
      </g>
     </g>
     <g id="text_7">
      <!-- 2021-01 -->
      <g transform="translate(648.541885 314.876406) scale(0.1 -0.1)">
       <use xlink:href="#DejaVuSans-32"/>
       <use xlink:href="#DejaVuSans-30" transform="translate(63.623047 0)"/>
       <use xlink:href="#DejaVuSans-32" transform="translate(127.246094 0)"/>
       <use xlink:href="#DejaVuSans-31" transform="translate(190.869141 0)"/>
       <use xlink:href="#DejaVuSans-2d" transform="translate(254.492188 0)"/>
       <use xlink:href="#DejaVuSans-30" transform="translate(290.576172 0)"/>
       <use xlink:href="#DejaVuSans-31" transform="translate(354.199219 0)"/>
      </g>
     </g>
    </g>
   </g>
   <g id="matplotlib.axis_2">
    <g id="ytick_1">
     <g id="line2d_15">
      <path d="M 26.925 252.549951 
L 696.525 252.549951 
" clip-path="url(#p7a48aa9ced)" style="fill: none; stroke: #b0b0b0; stroke-opacity: 0.3; stroke-width: 0.8; stroke-linecap: square"/>
     </g>
     <g id="line2d_16">
      <defs>
       <path id="mbda3d5a98c" d="M 0 0 
L -3.5 0 
" style="stroke: #000000; stroke-width: 0.8"/>
      </defs>
      <g>
       <use xlink:href="#mbda3d5a98c" x="26.925" y="252.549951" style="stroke: #000000; stroke-width: 0.8"/>
      </g>
     </g>
     <g id="text_8">
      <!-- 5 -->
      <g transform="translate(13.5625 256.34917) scale(0.1 -0.1)">
       <use xlink:href="#DejaVuSans-35"/>
      </g>
     </g>
    </g>
    <g id="ytick_2">
     <g id="line2d_17">
      <path d="M 26.925 203.963292 
L 696.525 203.963292 
" clip-path="url(#p7a48aa9ced)" style="fill: none; stroke: #b0b0b0; stroke-opacity: 0.3; stroke-width: 0.8; stroke-linecap: square"/>
     </g>
     <g id="line2d_18">
      <g>
       <use xlink:href="#mbda3d5a98c" x="26.925" y="203.963292" style="stroke: #000000; stroke-width: 0.8"/>
      </g>
     </g>
     <g id="text_9">
      <!-- 10 -->
      <g transform="translate(7.2 207.762511) scale(0.1 -0.1)">
       <use xlink:href="#DejaVuSans-31"/>
       <use xlink:href="#DejaVuSans-30" transform="translate(63.623047 0)"/>
      </g>
     </g>
    </g>
    <g id="ytick_3">
     <g id="line2d_19">
      <path d="M 26.925 155.376633 
L 696.525 155.376633 
" clip-path="url(#p7a48aa9ced)" style="fill: none; stroke: #b0b0b0; stroke-opacity: 0.3; stroke-width: 0.8; stroke-linecap: square"/>
     </g>
     <g id="line2d_20">
      <g>
       <use xlink:href="#mbda3d5a98c" x="26.925" y="155.376633" style="stroke: #000000; stroke-width: 0.8"/>
      </g>
     </g>
     <g id="text_10">
      <!-- 15 -->
      <g transform="translate(7.2 159.175852) scale(0.1 -0.1)">
       <use xlink:href="#DejaVuSans-31"/>
       <use xlink:href="#DejaVuSans-35" transform="translate(63.623047 0)"/>
      </g>
     </g>
    </g>
    <g id="ytick_4">
     <g id="line2d_21">
      <path d="M 26.925 106.789974 
L 696.525 106.789974 
" clip-path="url(#p7a48aa9ced)" style="fill: none; stroke: #b0b0b0; stroke-opacity: 0.3; stroke-width: 0.8; stroke-linecap: square"/>
     </g>
     <g id="line2d_22">
      <g>
       <use xlink:href="#mbda3d5a98c" x="26.925" y="106.789974" style="stroke: #000000; stroke-width: 0.8"/>
      </g>
     </g>
     <g id="text_11">
      <!-- 20 -->
      <g transform="translate(7.2 110.589193) scale(0.1 -0.1)">
       <use xlink:href="#DejaVuSans-32"/>
       <use xlink:href="#DejaVuSans-30" transform="translate(63.623047 0)"/>
      </g>
     </g>
    </g>
    <g id="ytick_5">
     <g id="line2d_23">
      <path d="M 26.925 58.203315 
L 696.525 58.203315 
" clip-path="url(#p7a48aa9ced)" style="fill: none; stroke: #b0b0b0; stroke-opacity: 0.3; stroke-width: 0.8; stroke-linecap: square"/>
     </g>
     <g id="line2d_24">
      <g>
       <use xlink:href="#mbda3d5a98c" x="26.925" y="58.203315" style="stroke: #000000; stroke-width: 0.8"/>
      </g>
     </g>
     <g id="text_12">
      <!-- 25 -->
      <g transform="translate(7.2 62.002534) scale(0.1 -0.1)">
       <use xlink:href="#DejaVuSans-32"/>
       <use xlink:href="#DejaVuSans-35" transform="translate(63.623047 0)"/>
      </g>
     </g>
    </g>
   </g>
   <g id="line2d_25">
    <path d="M 57.361364 189.483083 
L 59.033691 197.625278 
L 62.378347 130.204532 
L 64.050674 173.614567 
L 65.723002 167.376772 
L 67.39533 110.115671 
L 69.067657 131.401824 
L 70.739985 167.193234 
L 72.412313 139.535289 
L 74.08464 172.725965 
L 75.756968 178.496763 
L 77.429296 165.147571 
L 79.101623 236.506779 
L 80.773951 240.408919 
L 82.446279 216.350701 
L 84.118606 239.31972 
L 85.790934 210.026016 
L 87.463262 254.187254 
L 89.135589 276.169454 
L 90.807917 197.974794 
L 92.480245 251.147628 
L 94.152572 244.442094 
L 95.8249 287.677969 
L 97.497228 259.634762 
L 99.169555 236.132967 
L 100.841883 266.683025 
L 102.514211 214.361556 
L 104.186538 233.760212 
L 105.858866 214.826651 
L 107.531194 213.495451 
L 109.203521 131.588203 
L 110.875849 176.052079 
L 112.548177 197.429486 
L 114.220504 134.800914 
L 115.892832 188.132451 
L 117.56516 142.055295 
L 119.237488 202.893583 
L 120.909815 184.217602 
L 122.582143 141.604309 
L 124.254471 129.67985 
L 125.926798 151.915294 
L 127.599126 167.563843 
L 129.271454 181.499825 
L 130.943781 225.217199 
L 132.616109 212.935002 
L 134.288437 215.213421 
L 135.960764 180.36094 
L 137.633092 209.690591 
L 139.30542 278.385331 
L 140.977747 223.244896 
L 142.650075 247.782925 
L 144.322403 258.135513 
L 145.99473 220.303342 
L 147.667058 205.700436 
L 149.339386 204.209118 
L 151.011713 249.585341 
L 152.684041 226.319271 
L 156.028696 169.875319 
L 157.701024 201.914597 
L 159.373352 182.989348 
L 161.045679 199.90169 
L 162.718007 193.458122 
L 164.390335 127.0842 
L 166.062662 104.99653 
L 167.73499 142.234534 
L 169.407318 108.501512 
L 171.079645 126.947127 
L 172.751973 158.140945 
L 174.424301 132.663431 
L 176.096628 104.065397 
L 177.768956 157.228075 
L 179.441284 119.100777 
L 181.113611 250.47734 
L 182.785939 159.981219 
L 184.458267 191.238496 
L 186.130594 211.886033 
L 187.802922 209.02395 
L 189.47525 276.922003 
L 191.147577 231.087674 
L 192.819905 218.137674 
L 194.492233 187.309535 
L 196.16456 245.234747 
L 197.836888 251.316541 
L 199.509216 237.976221 
L 201.181543 190.425887 
L 202.853871 199.712572 
L 204.526199 215.676383 
L 206.198526 175.342847 
L 207.870854 177.106918 
L 209.543182 141.330294 
L 211.215509 180.107277 
L 212.887837 160.129527 
L 214.560165 154.192894 
L 216.232493 179.189224 
L 217.90482 123.494009 
L 219.577148 122.137426 
L 221.249476 129.331681 
L 222.921803 138.16431 
L 224.594131 176.450926 
L 226.266459 153.156092 
L 227.938786 158.165697 
L 229.611114 180.092455 
L 231.283442 170.799553 
L 232.955769 164.153639 
L 234.628097 130.781219 
L 236.300425 190.071291 
L 237.972752 196.182062 
L 239.64508 213.14186 
L 241.317408 272.61102 
L 242.989735 221.31236 
L 244.662063 220.628475 
L 246.334391 150.308923 
L 248.006718 225.346255 
L 249.679046 206.549505 
L 251.351374 210.114813 
L 253.023701 235.35683 
L 254.696029 158.908461 
L 256.368357 160.376478 
L 258.040684 148.867973 
L 259.713012 188.069897 
L 261.38534 110.737985 
L 263.057667 183.435487 
L 264.729995 117.645314 
L 266.402323 64.659901 
L 268.07465 152.993826 
L 269.746978 138.247627 
L 271.419306 118.566923 
L 273.091633 137.994157 
L 274.763961 172.386188 
L 276.436289 130.885904 
L 278.108616 171.134368 
L 279.780944 134.889518 
L 281.453272 184.892014 
L 283.125599 122.740057 
L 284.797927 200.591909 
L 286.470255 196.540528 
L 288.142582 171.96573 
L 289.81491 238.844974 
L 291.487238 202.035309 
L 293.159565 174.424818 
L 294.831893 261.23686 
L 296.504221 208.726111 
L 298.176548 204.153657 
L 299.848876 184.539725 
L 301.521204 237.153687 
L 303.193531 231.772688 
L 304.865859 168.999598 
L 306.538187 165.630341 
L 308.210514 156.616976 
L 309.882842 143.450992 
L 311.55517 163.447526 
L 313.227498 127.789283 
L 314.899825 118.200932 
L 316.572153 141.332032 
L 318.244481 61.717876 
L 319.916808 99.916953 
L 321.589136 148.192043 
L 323.261464 96.168199 
L 324.933791 147.58638 
L 326.606119 101.930775 
L 328.278447 98.381932 
L 329.950774 164.611419 
L 331.623102 121.995836 
L 333.29543 147.88156 
L 334.967757 145.785028 
L 336.640085 123.847702 
L 338.312413 194.826143 
L 339.98474 216.926946 
L 341.657068 226.588551 
L 343.329396 228.304346 
L 345.001723 208.614395 
L 346.674051 196.154506 
L 348.346379 195.65488 
L 350.018706 175.208589 
L 351.691034 192.706284 
L 353.363362 142.896534 
L 355.035689 183.921721 
L 356.708017 86.980887 
L 358.380345 137.671101 
L 360.052672 170.529711 
L 361.725 166.833312 
L 363.397328 112.486118 
L 365.069655 125.250176 
L 366.741983 91.683934 
L 368.414311 94.304315 
L 370.086638 107.844447 
L 373.431294 151.460076 
L 375.103621 124.180477 
L 376.775949 91.901338 
L 378.448277 117.907255 
L 380.120604 168.993873 
L 381.792932 137.022813 
L 383.46526 140.673387 
L 385.137587 187.50714 
L 386.809915 166.652819 
L 388.482243 177.9669 
L 390.15457 220.265108 
L 391.826898 182.218425 
L 393.499226 180.16507 
L 395.171553 166.784831 
L 396.843881 167.370544 
L 398.516209 235.87399 
L 400.188536 218.653313 
L 401.860864 170.06222 
L 403.533192 162.283277 
L 405.205519 153.182989 
L 406.877847 45.955646 
L 408.550175 131.259165 
L 410.222502 104.429064 
L 411.89483 99.794813 
L 413.567158 99.553007 
L 415.239486 119.917727 
L 416.911813 82.364216 
L 418.584141 122.620743 
L 420.256469 104.616283 
L 421.928796 111.594905 
L 423.601124 96.903672 
L 425.273452 35.677969 
L 426.945779 163.292788 
L 428.618107 96.133871 
L 430.290435 171.683198 
L 431.962762 147.820348 
L 433.63509 112.152285 
L 435.307418 151.858251 
L 436.979745 194.543834 
L 438.652073 192.507541 
L 440.324401 159.124823 
L 441.996728 205.931495 
L 443.669056 182.194068 
L 445.341384 189.020636 
L 447.013711 209.077637 
L 448.686039 125.203141 
L 450.358367 164.825047 
L 452.030694 236.104683 
L 453.703022 163.816858 
L 455.37535 179.481262 
L 457.047677 125.411534 
L 458.720005 162.996533 
L 460.392333 132.869075 
L 462.06466 104.875692 
L 463.736988 85.29508 
L 465.409316 137.709245 
L 467.081643 106.232272 
L 468.753971 105.928159 
L 470.426299 108.749609 
L 472.098626 37.970285 
L 473.770954 79.475652 
L 475.443282 131.903378 
L 477.115609 74.091985 
L 478.787937 46.265847 
L 480.460265 86.5621 
L 482.132592 170.346469 
L 483.80492 150.004967 
L 485.477248 108.790364 
L 487.149575 175.74661 
L 488.821903 150.707998 
L 490.494231 148.345535 
L 492.166558 203.652933 
L 493.838886 182.230761 
L 495.511214 276.829767 
L 497.183541 211.93634 
L 498.855869 187.057465 
L 500.528197 211.671632 
L 502.200524 121.470899 
L 503.872852 202.935058 
L 505.54518 165.008251 
L 507.217507 138.441528 
L 508.889835 89.86819 
L 510.562163 163.373735 
L 512.234491 77.679744 
L 513.906818 102.226468 
L 515.579146 123.322355 
L 517.251474 75.000865 
L 518.923801 78.270778 
L 520.596129 99.192488 
L 522.268457 79.393139 
L 523.940784 94.505547 
L 527.28544 73.538272 
L 528.957767 53.88659 
L 530.630095 144.736524 
L 532.302423 55.862834 
L 533.97475 184.787042 
L 535.647078 142.139401 
L 537.319406 129.957222 
L 538.991733 147.445957 
L 540.664061 181.071807 
L 542.336389 174.689449 
L 544.008716 186.858649 
L 545.681044 191.512725 
L 547.353372 149.29701 
L 549.025699 161.278095 
L 550.698027 187.487169 
L 552.370355 134.825024 
L 554.042682 144.276399 
L 555.71501 120.474734 
L 557.387338 115.88915 
L 559.059665 148.042251 
L 560.731993 129.837094 
L 562.404321 81.794399 
L 564.076648 76.722481 
L 565.748976 87.309953 
L 567.421304 77.042986 
L 569.093631 38.818495 
L 570.765959 90.931665 
L 572.438287 57.470239 
L 574.110614 81.158416 
L 575.782942 85.474356 
L 577.45527 52.800374 
L 579.127597 68.050821 
L 580.799925 76.927513 
L 582.472253 71.978911 
L 584.14458 119.258694 
L 585.816908 109.825482 
L 587.489236 148.143948 
L 589.161563 138.178544 
L 590.833891 158.704013 
L 592.506219 157.785854 
L 594.178546 147.127883 
L 595.850874 190.175542 
L 597.523202 105.058552 
L 599.195529 193.004433 
L 600.867857 194.674703 
L 602.540185 119.280123 
L 604.212512 122.147456 
L 605.88484 117.968158 
L 607.557168 107.917771 
L 609.229496 116.22362 
L 610.901823 131.654664 
L 612.574151 93.360855 
L 614.246479 106.247817 
L 615.918806 50.265154 
L 617.591134 76.741539 
L 619.263462 92.121076 
L 620.935789 75.046427 
L 622.608117 53.372653 
L 624.280445 83.689002 
L 625.952772 95.08909 
L 627.6251 69.719154 
L 629.297428 76.963301 
L 630.969755 107.412557 
L 632.642083 115.759139 
L 634.314411 105.097489 
L 635.986738 163.911531 
L 637.659066 172.12064 
L 639.331394 160.563933 
L 641.003721 153.123704 
L 642.676049 143.541114 
L 644.348377 113.459531 
L 646.020704 133.311497 
L 647.693032 162.709554 
L 649.36536 156.22259 
L 651.037687 180.495623 
L 652.710015 145.57227 
L 654.382343 145.632189 
L 656.05467 118.745817 
L 657.726998 142.341939 
L 659.399326 92.717825 
L 661.071653 52.806721 
L 662.743981 90.732494 
L 664.416309 66.787714 
L 666.088636 50.563975 
L 666.088636 50.563975 
" clip-path="url(#p7a48aa9ced)" style="fill: none; stroke: #9e9e9e; stroke-opacity: 0.3; stroke-width: 0.8; stroke-linecap: square"/>
   </g>
   <g id="line2d_26">
    <path d="M 59.033691 193.554181 
L 60.706019 181.205632 
L 62.378347 147.495258 
L 64.050674 151.90955 
L 65.723002 170.49567 
L 67.39533 138.746221 
L 69.067657 120.758748 
L 70.739985 149.297529 
L 72.412313 153.364261 
L 74.08464 156.130627 
L 75.756968 175.611364 
L 77.429296 171.822167 
L 79.101623 200.827175 
L 80.773951 238.457849 
L 82.446279 228.37981 
L 84.118606 227.83521 
L 85.790934 224.672868 
L 87.463262 232.106635 
L 89.135589 265.178354 
L 90.807917 237.072124 
L 92.480245 224.561211 
L 94.152572 247.794861 
L 95.8249 266.060031 
L 97.497228 273.656365 
L 99.169555 247.883864 
L 100.841883 251.407996 
L 102.514211 240.52229 
L 104.186538 224.060884 
L 105.858866 224.293432 
L 107.531194 214.161051 
L 109.203521 172.541827 
L 110.875849 153.820141 
L 112.548177 186.740782 
L 114.220504 166.1152 
L 115.892832 161.466683 
L 117.56516 165.093873 
L 119.237488 172.474439 
L 120.909815 193.555593 
L 122.582143 162.910955 
L 124.254471 135.642079 
L 125.926798 140.797572 
L 127.599126 159.739568 
L 129.271454 174.531834 
L 130.943781 203.358512 
L 132.616109 219.076101 
L 134.288437 214.074212 
L 135.960764 197.787181 
L 137.633092 195.025766 
L 139.30542 244.037961 
L 140.977747 250.815113 
L 142.650075 235.51391 
L 144.322403 252.959219 
L 145.99473 239.219427 
L 147.667058 213.001889 
L 149.339386 204.954777 
L 151.011713 226.897229 
L 152.684041 237.952306 
L 154.356369 212.451943 
L 156.028696 184.229968 
L 157.701024 185.894958 
L 159.373352 192.451973 
L 161.045679 191.445519 
L 162.718007 196.679906 
L 164.390335 160.271161 
L 166.062662 116.040365 
L 167.73499 123.615532 
L 169.407318 125.368023 
L 171.079645 117.724319 
L 172.751973 142.544036 
L 174.424301 145.402188 
L 176.096628 118.364414 
L 177.768956 130.646736 
L 179.441284 138.164426 
L 181.113611 184.789059 
L 182.785939 205.22928 
L 184.458267 175.609858 
L 186.130594 201.562265 
L 187.802922 210.454992 
L 189.47525 242.972976 
L 191.147577 254.004838 
L 192.819905 224.612674 
L 194.492233 202.723605 
L 196.16456 216.272141 
L 197.836888 248.275644 
L 199.509216 244.646381 
L 201.181543 214.201054 
L 202.853871 195.069229 
L 204.526199 207.694478 
L 206.198526 195.509615 
L 207.870854 176.224882 
L 209.543182 159.218606 
L 211.215509 160.718785 
L 212.887837 170.118402 
L 214.560165 157.161211 
L 216.232493 166.691059 
L 217.90482 151.341616 
L 219.577148 122.815717 
L 221.249476 125.734554 
L 222.921803 133.747995 
L 224.594131 157.307618 
L 226.266459 164.803509 
L 227.938786 155.660894 
L 229.611114 169.129076 
L 231.283442 175.446004 
L 232.955769 167.476596 
L 234.628097 147.467429 
L 236.300425 160.426255 
L 237.972752 193.126677 
L 239.64508 204.661961 
L 241.317408 242.87644 
L 242.989735 246.96169 
L 244.662063 220.970418 
L 246.334391 185.468699 
L 248.006718 187.827589 
L 249.679046 215.94788 
L 251.351374 208.332159 
L 253.023701 222.735821 
L 254.696029 197.132645 
L 256.368357 159.642469 
L 258.040684 154.622225 
L 259.713012 168.468935 
L 261.38534 149.403941 
L 263.057667 147.086736 
L 264.729995 150.540401 
L 266.402323 91.152607 
L 268.07465 108.826863 
L 269.746978 145.620727 
L 271.419306 128.407275 
L 273.091633 128.28054 
L 274.763961 155.190172 
L 276.436289 151.636046 
L 278.108616 151.010136 
L 279.780944 153.011943 
L 281.453272 159.890766 
L 283.125599 153.816035 
L 284.797927 161.665983 
L 286.470255 198.566218 
L 288.142582 184.253129 
L 289.81491 205.405352 
L 291.487238 220.440141 
L 293.159565 188.230064 
L 294.831893 217.830839 
L 296.504221 234.981485 
L 298.176548 206.439884 
L 299.848876 194.346691 
L 301.521204 210.846706 
L 303.193531 234.463187 
L 306.538187 167.314969 
L 308.210514 161.123658 
L 309.882842 150.033984 
L 311.55517 153.449259 
L 313.227498 145.618404 
L 314.899825 122.995107 
L 316.572153 129.766482 
L 318.244481 101.524954 
L 319.916808 80.817414 
L 321.589136 124.054498 
L 323.261464 122.180121 
L 324.933791 121.87729 
L 326.606119 124.758578 
L 328.278447 100.156353 
L 329.950774 131.496675 
L 331.623102 143.303628 
L 333.29543 134.938698 
L 334.967757 146.833294 
L 336.640085 134.816365 
L 338.312413 159.336923 
L 339.98474 205.876545 
L 341.657068 221.757748 
L 343.329396 227.446448 
L 345.001723 218.45937 
L 346.674051 202.38445 
L 348.346379 195.904693 
L 350.018706 185.431735 
L 351.691034 183.957437 
L 353.363362 167.801409 
L 355.035689 163.409128 
L 356.708017 135.451304 
L 358.380345 112.325994 
L 360.052672 154.100406 
L 361.725 168.681512 
L 363.397328 139.659715 
L 365.069655 118.868147 
L 366.741983 108.467055 
L 368.414311 92.994124 
L 370.086638 101.074381 
L 371.758966 118.992276 
L 373.431294 140.800091 
L 375.103621 137.820276 
L 376.775949 108.040907 
L 378.448277 104.904296 
L 380.120604 143.450564 
L 381.792932 153.008343 
L 383.46526 138.8481 
L 385.137587 164.090264 
L 386.809915 177.07998 
L 388.482243 172.309859 
L 390.15457 199.116004 
L 391.826898 201.241766 
L 393.499226 181.191747 
L 395.171553 173.474951 
L 396.843881 167.077687 
L 398.516209 201.622267 
L 400.188536 227.263652 
L 401.860864 194.357766 
L 403.533192 166.172749 
L 405.205519 157.733133 
L 406.877847 99.569317 
L 408.550175 88.607405 
L 410.222502 117.844114 
L 411.89483 102.111939 
L 413.567158 99.67391 
L 415.239486 109.735367 
L 416.911813 101.140971 
L 418.584141 102.492479 
L 420.256469 113.618513 
L 421.928796 108.105594 
L 423.601124 104.249288 
L 425.273452 66.29082 
L 426.945779 99.485378 
L 428.618107 129.71333 
L 430.290435 133.908534 
L 431.962762 159.751773 
L 433.63509 129.986316 
L 435.307418 132.005268 
L 436.979745 173.201043 
L 438.652073 193.525687 
L 440.324401 175.816182 
L 441.996728 182.528159 
L 443.669056 194.062782 
L 445.341384 185.607352 
L 447.013711 199.049136 
L 448.686039 167.140389 
L 450.358367 145.014094 
L 452.030694 200.464865 
L 453.703022 199.96077 
L 455.37535 171.64906 
L 457.047677 152.446398 
L 458.720005 144.204034 
L 460.392333 147.932804 
L 462.06466 118.872383 
L 463.736988 95.085386 
L 465.409316 111.502163 
L 467.081643 121.970758 
L 468.753971 106.080215 
L 470.426299 107.338884 
L 472.098626 73.359947 
L 473.770954 58.722968 
L 475.443282 105.689515 
L 477.115609 102.997681 
L 478.787937 60.178916 
L 480.460265 66.413973 
L 482.132592 128.454284 
L 483.80492 160.175718 
L 485.477248 129.397666 
L 487.149575 142.268487 
L 488.821903 163.227304 
L 490.494231 149.526766 
L 492.166558 175.999234 
L 493.838886 192.941847 
L 495.511214 229.530264 
L 497.183541 244.383054 
L 498.855869 199.496903 
L 500.528197 199.364548 
L 502.200524 166.571265 
L 503.872852 162.202978 
L 505.54518 183.971655 
L 507.217507 151.72489 
L 508.889835 114.154859 
L 510.562163 126.620963 
L 512.234491 120.52674 
L 513.906818 89.953106 
L 515.579146 112.774412 
L 517.251474 99.16161 
L 518.923801 76.635822 
L 520.596129 88.731633 
L 522.268457 89.292814 
L 523.940784 86.949343 
L 525.613112 89.166797 
L 527.28544 78.68316 
L 528.957767 63.712431 
L 530.630095 99.311557 
L 532.302423 100.299679 
L 533.97475 120.324938 
L 535.647078 163.463221 
L 537.319406 136.048312 
L 538.991733 138.701589 
L 540.664061 164.258882 
L 542.336389 177.880628 
L 544.008716 180.774049 
L 545.681044 189.185687 
L 547.353372 170.404867 
L 549.025699 155.287553 
L 550.698027 174.382632 
L 552.370355 161.156097 
L 554.042682 139.550712 
L 555.71501 132.375566 
L 557.387338 118.181942 
L 559.059665 131.9657 
L 560.731993 138.939672 
L 562.404321 105.815746 
L 564.076648 79.25844 
L 565.748976 82.016217 
L 567.421304 82.176469 
L 569.093631 57.93074 
L 570.765959 64.87508 
L 572.438287 74.200952 
L 574.110614 69.314327 
L 575.782942 83.316386 
L 577.45527 69.137365 
L 579.127597 60.425598 
L 580.799925 72.489167 
L 582.472253 74.453212 
L 584.14458 95.618802 
L 585.816908 114.542088 
L 589.161563 143.161246 
L 590.833891 148.441279 
L 592.506219 158.244934 
L 594.178546 152.456869 
L 595.850874 168.651713 
L 597.523202 147.617047 
L 599.195529 149.031493 
L 600.867857 193.839568 
L 604.212512 120.713789 
L 605.88484 120.057807 
L 607.557168 112.942965 
L 609.229496 112.070696 
L 610.901823 123.939142 
L 612.574151 112.507759 
L 614.246479 99.804336 
L 615.918806 78.256485 
L 617.591134 63.503346 
L 619.263462 84.431308 
L 620.935789 83.583752 
L 622.608117 64.20954 
L 624.280445 68.530828 
L 625.952772 89.389046 
L 627.6251 82.404122 
L 629.297428 73.341227 
L 632.642083 111.585848 
L 634.314411 110.428314 
L 635.986738 134.50451 
L 637.659066 168.016085 
L 639.331394 166.342287 
L 641.003721 156.843818 
L 642.676049 148.332409 
L 644.348377 128.500323 
L 646.020704 123.385514 
L 647.693032 148.010525 
L 649.36536 159.466072 
L 651.037687 168.359107 
L 652.710015 163.033947 
L 654.382343 145.60223 
L 656.05467 132.189003 
L 657.726998 130.543878 
L 659.399326 117.529882 
L 661.071653 72.762273 
L 662.743981 71.769607 
L 664.416309 78.760104 
L 666.088636 58.675844 
L 666.088636 58.675844 
" clip-path="url(#p7a48aa9ced)" style="fill: none; stroke: #f44336; stroke-width: 2; stroke-linecap: square"/>
   </g>
   <g id="patch_3">
    <path d="M 26.925 300.277969 
L 26.925 23.077969 
" style="fill: none; stroke: #000000; stroke-width: 0.8; stroke-linejoin: miter; stroke-linecap: square"/>
   </g>
   <g id="patch_4">
    <path d="M 696.525 300.277969 
L 696.525 23.077969 
" style="fill: none; stroke: #000000; stroke-width: 0.8; stroke-linejoin: miter; stroke-linecap: square"/>
   </g>
   <g id="patch_5">
    <path d="M 26.925 300.277969 
L 696.525 300.277969 
" style="fill: none; stroke: #000000; stroke-width: 0.8; stroke-linejoin: miter; stroke-linecap: square"/>
   </g>
   <g id="patch_6">
    <path d="M 26.925 23.077969 
L 696.525 23.077969 
" style="fill: none; stroke: #000000; stroke-width: 0.8; stroke-linejoin: miter; stroke-linecap: square"/>
   </g>
   <g id="text_13">
    <!-- Pandas: Optimal Rolling Window (ATCND, w=2) -->
    <g transform="translate(208.800313 17.077969) scale(0.13 -0.13)">
     <defs>
      <path id="DejaVuSans-50" d="M 1259 4147 
L 1259 2394 
L 2053 2394 
Q 2494 2394 2734 2622 
Q 2975 2850 2975 3272 
Q 2975 3691 2734 3919 
Q 2494 4147 2053 4147 
L 1259 4147 
z
M 628 4666 
L 2053 4666 
Q 2838 4666 3239 4311 
Q 3641 3956 3641 3272 
Q 3641 2581 3239 2228 
Q 2838 1875 2053 1875 
L 1259 1875 
L 1259 0 
L 628 0 
L 628 4666 
z
" transform="scale(0.015625)"/>
      <path id="DejaVuSans-61" d="M 2194 1759 
Q 1497 1759 1228 1600 
Q 959 1441 959 1056 
Q 959 750 1161 570 
Q 1363 391 1709 391 
Q 2188 391 2477 730 
Q 2766 1069 2766 1631 
L 2766 1759 
L 2194 1759 
z
M 3341 1997 
L 3341 0 
L 2766 0 
L 2766 531 
Q 2569 213 2275 61 
Q 1981 -91 1556 -91 
Q 1019 -91 701 211 
Q 384 513 384 1019 
Q 384 1609 779 1909 
Q 1175 2209 1959 2209 
L 2766 2209 
L 2766 2266 
Q 2766 2663 2505 2880 
Q 2244 3097 1772 3097 
Q 1472 3097 1187 3025 
Q 903 2953 641 2809 
L 641 3341 
Q 956 3463 1253 3523 
Q 1550 3584 1831 3584 
Q 2591 3584 2966 3190 
Q 3341 2797 3341 1997 
z
" transform="scale(0.015625)"/>
      <path id="DejaVuSans-6e" d="M 3513 2113 
L 3513 0 
L 2938 0 
L 2938 2094 
Q 2938 2591 2744 2837 
Q 2550 3084 2163 3084 
Q 1697 3084 1428 2787 
Q 1159 2491 1159 1978 
L 1159 0 
L 581 0 
L 581 3500 
L 1159 3500 
L 1159 2956 
Q 1366 3272 1645 3428 
Q 1925 3584 2291 3584 
Q 2894 3584 3203 3211 
Q 3513 2838 3513 2113 
z
" transform="scale(0.015625)"/>
      <path id="DejaVuSans-64" d="M 2906 2969 
L 2906 4863 
L 3481 4863 
L 3481 0 
L 2906 0 
L 2906 525 
Q 2725 213 2448 61 
Q 2172 -91 1784 -91 
Q 1150 -91 751 415 
Q 353 922 353 1747 
Q 353 2572 751 3078 
Q 1150 3584 1784 3584 
Q 2172 3584 2448 3432 
Q 2725 3281 2906 2969 
z
M 947 1747 
Q 947 1113 1208 752 
Q 1469 391 1925 391 
Q 2381 391 2643 752 
Q 2906 1113 2906 1747 
Q 2906 2381 2643 2742 
Q 2381 3103 1925 3103 
Q 1469 3103 1208 2742 
Q 947 2381 947 1747 
z
" transform="scale(0.015625)"/>
      <path id="DejaVuSans-73" d="M 2834 3397 
L 2834 2853 
Q 2591 2978 2328 3040 
Q 2066 3103 1784 3103 
Q 1356 3103 1142 2972 
Q 928 2841 928 2578 
Q 928 2378 1081 2264 
Q 1234 2150 1697 2047 
L 1894 2003 
Q 2506 1872 2764 1633 
Q 3022 1394 3022 966 
Q 3022 478 2636 193 
Q 2250 -91 1575 -91 
Q 1294 -91 989 -36 
Q 684 19 347 128 
L 347 722 
Q 666 556 975 473 
Q 1284 391 1588 391 
Q 1994 391 2212 530 
Q 2431 669 2431 922 
Q 2431 1156 2273 1281 
Q 2116 1406 1581 1522 
L 1381 1569 
Q 847 1681 609 1914 
Q 372 2147 372 2553 
Q 372 3047 722 3315 
Q 1072 3584 1716 3584 
Q 2034 3584 2315 3537 
Q 2597 3491 2834 3397 
z
" transform="scale(0.015625)"/>
      <path id="DejaVuSans-3a" d="M 750 794 
L 1409 794 
L 1409 0 
L 750 0 
L 750 794 
z
M 750 3309 
L 1409 3309 
L 1409 2516 
L 750 2516 
L 750 3309 
z
" transform="scale(0.015625)"/>
      <path id="DejaVuSans-20" transform="scale(0.015625)"/>
      <path id="DejaVuSans-4f" d="M 2522 4238 
Q 1834 4238 1429 3725 
Q 1025 3213 1025 2328 
Q 1025 1447 1429 934 
Q 1834 422 2522 422 
Q 3209 422 3611 934 
Q 4013 1447 4013 2328 
Q 4013 3213 3611 3725 
Q 3209 4238 2522 4238 
z
M 2522 4750 
Q 3503 4750 4090 4092 
Q 4678 3434 4678 2328 
Q 4678 1225 4090 567 
Q 3503 -91 2522 -91 
Q 1538 -91 948 565 
Q 359 1222 359 2328 
Q 359 3434 948 4092 
Q 1538 4750 2522 4750 
z
" transform="scale(0.015625)"/>
      <path id="DejaVuSans-70" d="M 1159 525 
L 1159 -1331 
L 581 -1331 
L 581 3500 
L 1159 3500 
L 1159 2969 
Q 1341 3281 1617 3432 
Q 1894 3584 2278 3584 
Q 2916 3584 3314 3078 
Q 3713 2572 3713 1747 
Q 3713 922 3314 415 
Q 2916 -91 2278 -91 
Q 1894 -91 1617 61 
Q 1341 213 1159 525 
z
M 3116 1747 
Q 3116 2381 2855 2742 
Q 2594 3103 2138 3103 
Q 1681 3103 1420 2742 
Q 1159 2381 1159 1747 
Q 1159 1113 1420 752 
Q 1681 391 2138 391 
Q 2594 391 2855 752 
Q 3116 1113 3116 1747 
z
" transform="scale(0.015625)"/>
      <path id="DejaVuSans-74" d="M 1172 4494 
L 1172 3500 
L 2356 3500 
L 2356 3053 
L 1172 3053 
L 1172 1153 
Q 1172 725 1289 603 
Q 1406 481 1766 481 
L 2356 481 
L 2356 0 
L 1766 0 
Q 1100 0 847 248 
Q 594 497 594 1153 
L 594 3053 
L 172 3053 
L 172 3500 
L 594 3500 
L 594 4494 
L 1172 4494 
z
" transform="scale(0.015625)"/>
      <path id="DejaVuSans-69" d="M 603 3500 
L 1178 3500 
L 1178 0 
L 603 0 
L 603 3500 
z
M 603 4863 
L 1178 4863 
L 1178 4134 
L 603 4134 
L 603 4863 
z
" transform="scale(0.015625)"/>
      <path id="DejaVuSans-6d" d="M 3328 2828 
Q 3544 3216 3844 3400 
Q 4144 3584 4550 3584 
Q 5097 3584 5394 3201 
Q 5691 2819 5691 2113 
L 5691 0 
L 5113 0 
L 5113 2094 
Q 5113 2597 4934 2840 
Q 4756 3084 4391 3084 
Q 3944 3084 3684 2787 
Q 3425 2491 3425 1978 
L 3425 0 
L 2847 0 
L 2847 2094 
Q 2847 2600 2669 2842 
Q 2491 3084 2119 3084 
Q 1678 3084 1418 2786 
Q 1159 2488 1159 1978 
L 1159 0 
L 581 0 
L 581 3500 
L 1159 3500 
L 1159 2956 
Q 1356 3278 1631 3431 
Q 1906 3584 2284 3584 
Q 2666 3584 2933 3390 
Q 3200 3197 3328 2828 
z
" transform="scale(0.015625)"/>
      <path id="DejaVuSans-6c" d="M 603 4863 
L 1178 4863 
L 1178 0 
L 603 0 
L 603 4863 
z
" transform="scale(0.015625)"/>
      <path id="DejaVuSans-52" d="M 2841 2188 
Q 3044 2119 3236 1894 
Q 3428 1669 3622 1275 
L 4263 0 
L 3584 0 
L 2988 1197 
Q 2756 1666 2539 1819 
Q 2322 1972 1947 1972 
L 1259 1972 
L 1259 0 
L 628 0 
L 628 4666 
L 2053 4666 
Q 2853 4666 3247 4331 
Q 3641 3997 3641 3322 
Q 3641 2881 3436 2590 
Q 3231 2300 2841 2188 
z
M 1259 4147 
L 1259 2491 
L 2053 2491 
Q 2509 2491 2742 2702 
Q 2975 2913 2975 3322 
Q 2975 3731 2742 3939 
Q 2509 4147 2053 4147 
L 1259 4147 
z
" transform="scale(0.015625)"/>
      <path id="DejaVuSans-6f" d="M 1959 3097 
Q 1497 3097 1228 2736 
Q 959 2375 959 1747 
Q 959 1119 1226 758 
Q 1494 397 1959 397 
Q 2419 397 2687 759 
Q 2956 1122 2956 1747 
Q 2956 2369 2687 2733 
Q 2419 3097 1959 3097 
z
M 1959 3584 
Q 2709 3584 3137 3096 
Q 3566 2609 3566 1747 
Q 3566 888 3137 398 
Q 2709 -91 1959 -91 
Q 1206 -91 779 398 
Q 353 888 353 1747 
Q 353 2609 779 3096 
Q 1206 3584 1959 3584 
z
" transform="scale(0.015625)"/>
      <path id="DejaVuSans-67" d="M 2906 1791 
Q 2906 2416 2648 2759 
Q 2391 3103 1925 3103 
Q 1463 3103 1205 2759 
Q 947 2416 947 1791 
Q 947 1169 1205 825 
Q 1463 481 1925 481 
Q 2391 481 2648 825 
Q 2906 1169 2906 1791 
z
M 3481 434 
Q 3481 -459 3084 -895 
Q 2688 -1331 1869 -1331 
Q 1566 -1331 1297 -1286 
Q 1028 -1241 775 -1147 
L 775 -588 
Q 1028 -725 1275 -790 
Q 1522 -856 1778 -856 
Q 2344 -856 2625 -561 
Q 2906 -266 2906 331 
L 2906 616 
Q 2728 306 2450 153 
Q 2172 0 1784 0 
Q 1141 0 747 490 
Q 353 981 353 1791 
Q 353 2603 747 3093 
Q 1141 3584 1784 3584 
Q 2172 3584 2450 3431 
Q 2728 3278 2906 2969 
L 2906 3500 
L 3481 3500 
L 3481 434 
z
" transform="scale(0.015625)"/>
      <path id="DejaVuSans-57" d="M 213 4666 
L 850 4666 
L 1831 722 
L 2809 4666 
L 3519 4666 
L 4500 722 
L 5478 4666 
L 6119 4666 
L 4947 0 
L 4153 0 
L 3169 4050 
L 2175 0 
L 1381 0 
L 213 4666 
z
" transform="scale(0.015625)"/>
      <path id="DejaVuSans-77" d="M 269 3500 
L 844 3500 
L 1563 769 
L 2278 3500 
L 2956 3500 
L 3675 769 
L 4391 3500 
L 4966 3500 
L 4050 0 
L 3372 0 
L 2619 2869 
L 1863 0 
L 1184 0 
L 269 3500 
z
" transform="scale(0.015625)"/>
      <path id="DejaVuSans-28" d="M 1984 4856 
Q 1566 4138 1362 3434 
Q 1159 2731 1159 2009 
Q 1159 1288 1364 580 
Q 1569 -128 1984 -844 
L 1484 -844 
Q 1016 -109 783 600 
Q 550 1309 550 2009 
Q 550 2706 781 3412 
Q 1013 4119 1484 4856 
L 1984 4856 
z
" transform="scale(0.015625)"/>
      <path id="DejaVuSans-41" d="M 2188 4044 
L 1331 1722 
L 3047 1722 
L 2188 4044 
z
M 1831 4666 
L 2547 4666 
L 4325 0 
L 3669 0 
L 3244 1197 
L 1141 1197 
L 716 0 
L 50 0 
L 1831 4666 
z
" transform="scale(0.015625)"/>
      <path id="DejaVuSans-54" d="M -19 4666 
L 3928 4666 
L 3928 4134 
L 2272 4134 
L 2272 0 
L 1638 0 
L 1638 4134 
L -19 4134 
L -19 4666 
z
" transform="scale(0.015625)"/>
      <path id="DejaVuSans-43" d="M 4122 4306 
L 4122 3641 
Q 3803 3938 3442 4084 
Q 3081 4231 2675 4231 
Q 1875 4231 1450 3742 
Q 1025 3253 1025 2328 
Q 1025 1406 1450 917 
Q 1875 428 2675 428 
Q 3081 428 3442 575 
Q 3803 722 4122 1019 
L 4122 359 
Q 3791 134 3420 21 
Q 3050 -91 2638 -91 
Q 1578 -91 968 557 
Q 359 1206 359 2328 
Q 359 3453 968 4101 
Q 1578 4750 2638 4750 
Q 3056 4750 3426 4639 
Q 3797 4528 4122 4306 
z
" transform="scale(0.015625)"/>
      <path id="DejaVuSans-4e" d="M 628 4666 
L 1478 4666 
L 3547 763 
L 3547 4666 
L 4159 4666 
L 4159 0 
L 3309 0 
L 1241 3903 
L 1241 0 
L 628 0 
L 628 4666 
z
" transform="scale(0.015625)"/>
      <path id="DejaVuSans-44" d="M 1259 4147 
L 1259 519 
L 2022 519 
Q 2988 519 3436 956 
Q 3884 1394 3884 2338 
Q 3884 3275 3436 3711 
Q 2988 4147 2022 4147 
L 1259 4147 
z
M 628 4666 
L 1925 4666 
Q 3281 4666 3915 4102 
Q 4550 3538 4550 2338 
Q 4550 1131 3912 565 
Q 3275 0 1925 0 
L 628 0 
L 628 4666 
z
" transform="scale(0.015625)"/>
      <path id="DejaVuSans-2c" d="M 750 794 
L 1409 794 
L 1409 256 
L 897 -744 
L 494 -744 
L 750 256 
L 750 794 
z
" transform="scale(0.015625)"/>
      <path id="DejaVuSans-3d" d="M 678 2906 
L 4684 2906 
L 4684 2381 
L 678 2381 
L 678 2906 
z
M 678 1631 
L 4684 1631 
L 4684 1100 
L 678 1100 
L 678 1631 
z
" transform="scale(0.015625)"/>
      <path id="DejaVuSans-29" d="M 513 4856 
L 1013 4856 
Q 1481 4119 1714 3412 
Q 1947 2706 1947 2009 
Q 1947 1309 1714 600 
Q 1481 -109 1013 -844 
L 513 -844 
Q 928 -128 1133 580 
Q 1338 1288 1338 2009 
Q 1338 2731 1133 3434 
Q 928 4138 513 4856 
z
" transform="scale(0.015625)"/>
     </defs>
     <use xlink:href="#DejaVuSans-50"/>
     <use xlink:href="#DejaVuSans-61" transform="translate(55.802734 0)"/>
     <use xlink:href="#DejaVuSans-6e" transform="translate(117.082031 0)"/>
     <use xlink:href="#DejaVuSans-64" transform="translate(180.460938 0)"/>
     <use xlink:href="#DejaVuSans-61" transform="translate(243.9375 0)"/>
     <use xlink:href="#DejaVuSans-73" transform="translate(305.216797 0)"/>
     <use xlink:href="#DejaVuSans-3a" transform="translate(357.316406 0)"/>
     <use xlink:href="#DejaVuSans-20" transform="translate(391.007812 0)"/>
     <use xlink:href="#DejaVuSans-4f" transform="translate(422.794922 0)"/>
     <use xlink:href="#DejaVuSans-70" transform="translate(501.505859 0)"/>
     <use xlink:href="#DejaVuSans-74" transform="translate(564.982422 0)"/>
     <use xlink:href="#DejaVuSans-69" transform="translate(604.191406 0)"/>
     <use xlink:href="#DejaVuSans-6d" transform="translate(631.974609 0)"/>
     <use xlink:href="#DejaVuSans-61" transform="translate(729.386719 0)"/>
     <use xlink:href="#DejaVuSans-6c" transform="translate(790.666016 0)"/>
     <use xlink:href="#DejaVuSans-20" transform="translate(818.449219 0)"/>
     <use xlink:href="#DejaVuSans-52" transform="translate(850.236328 0)"/>
     <use xlink:href="#DejaVuSans-6f" transform="translate(915.21875 0)"/>
     <use xlink:href="#DejaVuSans-6c" transform="translate(976.400391 0)"/>
     <use xlink:href="#DejaVuSans-6c" transform="translate(1004.183594 0)"/>
     <use xlink:href="#DejaVuSans-69" transform="translate(1031.966797 0)"/>
     <use xlink:href="#DejaVuSans-6e" transform="translate(1059.75 0)"/>
     <use xlink:href="#DejaVuSans-67" transform="translate(1123.128906 0)"/>
     <use xlink:href="#DejaVuSans-20" transform="translate(1186.605469 0)"/>
     <use xlink:href="#DejaVuSans-57" transform="translate(1218.392578 0)"/>
     <use xlink:href="#DejaVuSans-69" transform="translate(1315.019531 0)"/>
     <use xlink:href="#DejaVuSans-6e" transform="translate(1342.802734 0)"/>
     <use xlink:href="#DejaVuSans-64" transform="translate(1406.181641 0)"/>
     <use xlink:href="#DejaVuSans-6f" transform="translate(1469.658203 0)"/>
     <use xlink:href="#DejaVuSans-77" transform="translate(1530.839844 0)"/>
     <use xlink:href="#DejaVuSans-20" transform="translate(1612.626953 0)"/>
     <use xlink:href="#DejaVuSans-28" transform="translate(1644.414062 0)"/>
     <use xlink:href="#DejaVuSans-41" transform="translate(1683.427734 0)"/>
     <use xlink:href="#DejaVuSans-54" transform="translate(1744.085938 0)"/>
     <use xlink:href="#DejaVuSans-43" transform="translate(1799.294922 0)"/>
     <use xlink:href="#DejaVuSans-4e" transform="translate(1869.119141 0)"/>
     <use xlink:href="#DejaVuSans-44" transform="translate(1943.923828 0)"/>
     <use xlink:href="#DejaVuSans-2c" transform="translate(2020.925781 0)"/>
     <use xlink:href="#DejaVuSans-20" transform="translate(2052.712891 0)"/>
     <use xlink:href="#DejaVuSans-77" transform="translate(2084.5 0)"/>
     <use xlink:href="#DejaVuSans-3d" transform="translate(2166.287109 0)"/>
     <use xlink:href="#DejaVuSans-32" transform="translate(2250.076172 0)"/>
     <use xlink:href="#DejaVuSans-29" transform="translate(2313.699219 0)"/>
    </g>
   </g>
   <g id="legend_1">
    <g id="patch_7">
     <path d="M 33.925 60.434219 
L 165.001563 60.434219 
Q 167.001563 60.434219 167.001563 58.434219 
L 167.001563 30.077969 
Q 167.001563 28.077969 165.001563 28.077969 
L 33.925 28.077969 
Q 31.925 28.077969 31.925 30.077969 
L 31.925 58.434219 
Q 31.925 60.434219 33.925 60.434219 
z
" style="fill: #ffffff; opacity: 0.8; stroke: #cccccc; stroke-linejoin: miter"/>
    </g>
    <g id="line2d_27">
     <path d="M 35.925 36.176406 
L 45.925 36.176406 
L 55.925 36.176406 
" style="fill: none; stroke: #9e9e9e; stroke-opacity: 0.3; stroke-width: 0.8; stroke-linecap: square"/>
    </g>
    <g id="text_14">
     <!-- Raw -->
     <g transform="translate(63.925 39.676406) scale(0.1 -0.1)">
      <use xlink:href="#DejaVuSans-52"/>
      <use xlink:href="#DejaVuSans-61" transform="translate(67.232422 0)"/>
      <use xlink:href="#DejaVuSans-77" transform="translate(128.511719 0)"/>
     </g>
    </g>
    <g id="line2d_28">
     <path d="M 35.925 50.854531 
L 45.925 50.854531 
L 55.925 50.854531 
" style="fill: none; stroke: #f44336; stroke-width: 2; stroke-linecap: square"/>
    </g>
    <g id="text_15">
     <!-- Rolling mean (w=2) -->
     <g transform="translate(63.925 54.354531) scale(0.1 -0.1)">
      <defs>
       <path id="DejaVuSans-65" d="M 3597 1894 
L 3597 1613 
L 953 1613 
Q 991 1019 1311 708 
Q 1631 397 2203 397 
Q 2534 397 2845 478 
Q 3156 559 3463 722 
L 3463 178 
Q 3153 47 2828 -22 
Q 2503 -91 2169 -91 
Q 1331 -91 842 396 
Q 353 884 353 1716 
Q 353 2575 817 3079 
Q 1281 3584 2069 3584 
Q 2775 3584 3186 3129 
Q 3597 2675 3597 1894 
z
M 3022 2063 
Q 3016 2534 2758 2815 
Q 2500 3097 2075 3097 
Q 1594 3097 1305 2825 
Q 1016 2553 972 2059 
L 3022 2063 
z
" transform="scale(0.015625)"/>
      </defs>
      <use xlink:href="#DejaVuSans-52"/>
      <use xlink:href="#DejaVuSans-6f" transform="translate(64.982422 0)"/>
      <use xlink:href="#DejaVuSans-6c" transform="translate(126.164062 0)"/>
      <use xlink:href="#DejaVuSans-6c" transform="translate(153.947266 0)"/>
      <use xlink:href="#DejaVuSans-69" transform="translate(181.730469 0)"/>
      <use xlink:href="#DejaVuSans-6e" transform="translate(209.513672 0)"/>
      <use xlink:href="#DejaVuSans-67" transform="translate(272.892578 0)"/>
      <use xlink:href="#DejaVuSans-20" transform="translate(336.369141 0)"/>
      <use xlink:href="#DejaVuSans-6d" transform="translate(368.15625 0)"/>
      <use xlink:href="#DejaVuSans-65" transform="translate(465.568359 0)"/>
      <use xlink:href="#DejaVuSans-61" transform="translate(527.091797 0)"/>
      <use xlink:href="#DejaVuSans-6e" transform="translate(588.371094 0)"/>
      <use xlink:href="#DejaVuSans-20" transform="translate(651.75 0)"/>
      <use xlink:href="#DejaVuSans-28" transform="translate(683.537109 0)"/>
      <use xlink:href="#DejaVuSans-77" transform="translate(722.550781 0)"/>
      <use xlink:href="#DejaVuSans-3d" transform="translate(804.337891 0)"/>
      <use xlink:href="#DejaVuSans-32" transform="translate(888.126953 0)"/>
      <use xlink:href="#DejaVuSans-29" transform="translate(951.75 0)"/>
     </g>
    </g>
   </g>
  </g>
 </g>
 <defs>
  <clipPath id="p7a48aa9ced">
   <rect x="26.925" y="23.077969" width="669.6" height="277.2"/>
  </clipPath>
 </defs>
</svg>
