<?xml version="1.0" encoding="utf-8" standalone="no"?>
<!DOCTYPE svg PUBLIC "-//W3C//DTD SVG 1.1//EN"
  "http://www.w3.org/Graphics/SVG/1.1/DTD/svg11.dtd">
<svg xmlns:xlink="http://www.w3.org/1999/xlink" width="518.404375pt" height="339.769844pt" viewBox="0 0 518.404375 339.769844" xmlns="http://www.w3.org/2000/svg" version="1.1">
 <metadata>
  <rdf:RDF xmlns:dc="http://purl.org/dc/elements/1.1/" xmlns:cc="http://creativecommons.org/ns#" xmlns:rdf="http://www.w3.org/1999/02/22-rdf-syntax-ns#">
   <cc:Work>
    <dc:type rdf:resource="http://purl.org/dc/dcmitype/StillImage"/>
    <dc:date>2026-06-03T22:33:36.574580</dc:date>
    <dc:format>image/svg+xml</dc:format>
    <dc:creator>
     <cc:Agent>
      <dc:title>Matplotlib v3.10.8, https://matplotlib.org/</dc:title>
     </cc:Agent>
    </dc:creator>
   </cc:Work>
  </rdf:RDF>
 </metadata>
 <defs>
  <style type="text/css">*{stroke-linejoin: round; stroke-linecap: butt}</style>
 </defs>
 <g id="figure_1">
  <g id="patch_1">
   <path d="M 0 339.769844 
L 518.404375 339.769844 
L 518.404375 0 
L 0 0 
z
" style="fill: #ffffff"/>
  </g>
  <g id="axes_1">
   <g id="patch_2">
    <path d="M 64.804375 300.277969 
L 511.204375 300.277969 
L 511.204375 23.077969 
L 64.804375 23.077969 
z
" style="fill: #ffffff"/>
   </g>
   <g id="matplotlib.axis_1">
    <g id="xtick_1">
     <g id="line2d_1">
      <path d="M 71.101554 300.277969 
L 71.101554 23.077969 
" clip-path="url(#pc063bc9284)" style="fill: none; stroke: #b0b0b0; stroke-opacity: 0.3; stroke-width: 0.8; stroke-linecap: square"/>
     </g>
     <g id="line2d_2">
      <defs>
       <path id="m5c4a013ac7" d="M 0 0 
L 0 3.5 
" style="stroke: #000000; stroke-width: 0.8"/>
      </defs>
      <g>
       <use xlink:href="#m5c4a013ac7" x="71.101554" y="300.277969" style="stroke: #000000; stroke-width: 0.8"/>
      </g>
     </g>
     <g id="text_1">
      <!-- 0 -->
      <g transform="translate(67.920304 314.876406) scale(0.1 -0.1)">
       <defs>
        <path id="DejaVuSans-30" d="M 2034 4250 
Q 1547 4250 1301 3770 
Q 1056 3291 1056 2328 
Q 1056 1369 1301 889 
Q 1547 409 2034 409 
Q 2525 409 2770 889 
Q 3016 1369 3016 2328 
Q 3016 3291 2770 3770 
Q 2525 4250 2034 4250 
z
M 2034 4750 
Q 2819 4750 3233 4129 
Q 3647 3509 3647 2328 
Q 3647 1150 3233 529 
Q 2819 -91 2034 -91 
Q 1250 -91 836 529 
Q 422 1150 422 2328 
Q 422 3509 836 4129 
Q 1250 4750 2034 4750 
z
" transform="scale(0.015625)"/>
       </defs>
       <use xlink:href="#DejaVuSans-30"/>
      </g>
     </g>
    </g>
    <g id="xtick_2">
     <g id="line2d_3">
      <path d="M 141.070206 300.277969 
L 141.070206 23.077969 
" clip-path="url(#pc063bc9284)" style="fill: none; stroke: #b0b0b0; stroke-opacity: 0.3; stroke-width: 0.8; stroke-linecap: square"/>
     </g>
     <g id="line2d_4">
      <g>
       <use xlink:href="#m5c4a013ac7" x="141.070206" y="300.277969" style="stroke: #000000; stroke-width: 0.8"/>
      </g>
     </g>
     <g id="text_2">
      <!-- 50 -->
      <g transform="translate(134.707706 314.876406) scale(0.1 -0.1)">
       <defs>
        <path id="DejaVuSans-35" d="M 691 4666 
L 3169 4666 
L 3169 4134 
L 1269 4134 
L 1269 2991 
Q 1406 3038 1543 3061 
Q 1681 3084 1819 3084 
Q 2600 3084 3056 2656 
Q 3513 2228 3513 1497 
Q 3513 744 3044 326 
Q 2575 -91 1722 -91 
Q 1428 -91 1123 -41 
Q 819 9 494 109 
L 494 744 
Q 775 591 1075 516 
Q 1375 441 1709 441 
Q 2250 441 2565 725 
Q 2881 1009 2881 1497 
Q 2881 1984 2565 2268 
Q 2250 2553 1709 2553 
Q 1456 2553 1204 2497 
Q 953 2441 691 2322 
L 691 4666 
z
" transform="scale(0.015625)"/>
       </defs>
       <use xlink:href="#DejaVuSans-35"/>
       <use xlink:href="#DejaVuSans-30" transform="translate(63.623047 0)"/>
      </g>
     </g>
    </g>
    <g id="xtick_3">
     <g id="line2d_5">
      <path d="M 211.038858 300.277969 
L 211.038858 23.077969 
" clip-path="url(#pc063bc9284)" style="fill: none; stroke: #b0b0b0; stroke-opacity: 0.3; stroke-width: 0.8; stroke-linecap: square"/>
     </g>
     <g id="line2d_6">
      <g>
       <use xlink:href="#m5c4a013ac7" x="211.038858" y="300.277969" style="stroke: #000000; stroke-width: 0.8"/>
      </g>
     </g>
     <g id="text_3">
      <!-- 100 -->
      <g transform="translate(201.495108 314.876406) scale(0.1 -0.1)">
       <defs>
        <path id="DejaVuSans-31" d="M 794 531 
L 1825 531 
L 1825 4091 
L 703 3866 
L 703 4441 
L 1819 4666 
L 2450 4666 
L 2450 531 
L 3481 531 
L 3481 0 
L 794 0 
L 794 531 
z
" transform="scale(0.015625)"/>
       </defs>
       <use xlink:href="#DejaVuSans-31"/>
       <use xlink:href="#DejaVuSans-30" transform="translate(63.623047 0)"/>
       <use xlink:href="#DejaVuSans-30" transform="translate(127.246094 0)"/>
      </g>
     </g>
    </g>
    <g id="xtick_4">
     <g id="line2d_7">
      <path d="M 281.00751 300.277969 
L 281.00751 23.077969 
" clip-path="url(#pc063bc9284)" style="fill: none; stroke: #b0b0b0; stroke-opacity: 0.3; stroke-width: 0.8; stroke-linecap: square"/>
     </g>
     <g id="line2d_8">
      <g>
       <use xlink:href="#m5c4a013ac7" x="281.00751" y="300.277969" style="stroke: #000000; stroke-width: 0.8"/>
      </g>
     </g>
     <g id="text_4">
      <!-- 150 -->
      <g transform="translate(271.46376 314.876406) scale(0.1 -0.1)">
       <use xlink:href="#DejaVuSans-31"/>
       <use xlink:href="#DejaVuSans-35" transform="translate(63.623047 0)"/>
       <use xlink:href="#DejaVuSans-30" transform="translate(127.246094 0)"/>
      </g>
     </g>
    </g>
    <g id="xtick_5">
     <g id="line2d_9">
      <path d="M 350.976162 300.277969 
L 350.976162 23.077969 
" clip-path="url(#pc063bc9284)" style="fill: none; stroke: #b0b0b0; stroke-opacity: 0.3; stroke-width: 0.8; stroke-linecap: square"/>
     </g>
     <g id="line2d_10">
      <g>
       <use xlink:href="#m5c4a013ac7" x="350.976162" y="300.277969" style="stroke: #000000; stroke-width: 0.8"/>
      </g>
     </g>
     <g id="text_5">
      <!-- 200 -->
      <g transform="translate(341.432412 314.876406) scale(0.1 -0.1)">
       <defs>
        <path id="DejaVuSans-32" d="M 1228 531 
L 3431 531 
L 3431 0 
L 469 0 
L 469 531 
Q 828 903 1448 1529 
Q 2069 2156 2228 2338 
Q 2531 2678 2651 2914 
Q 2772 3150 2772 3378 
Q 2772 3750 2511 3984 
Q 2250 4219 1831 4219 
Q 1534 4219 1204 4116 
Q 875 4013 500 3803 
L 500 4441 
Q 881 4594 1212 4672 
Q 1544 4750 1819 4750 
Q 2544 4750 2975 4387 
Q 3406 4025 3406 3419 
Q 3406 3131 3298 2873 
Q 3191 2616 2906 2266 
Q 2828 2175 2409 1742 
Q 1991 1309 1228 531 
z
" transform="scale(0.015625)"/>
       </defs>
       <use xlink:href="#DejaVuSans-32"/>
       <use xlink:href="#DejaVuSans-30" transform="translate(63.623047 0)"/>
       <use xlink:href="#DejaVuSans-30" transform="translate(127.246094 0)"/>
      </g>
     </g>
    </g>
    <g id="xtick_6">
     <g id="line2d_11">
      <path d="M 420.944814 300.277969 
L 420.944814 23.077969 
" clip-path="url(#pc063bc9284)" style="fill: none; stroke: #b0b0b0; stroke-opacity: 0.3; stroke-width: 0.8; stroke-linecap: square"/>
     </g>
     <g id="line2d_12">
      <g>
       <use xlink:href="#m5c4a013ac7" x="420.944814" y="300.277969" style="stroke: #000000; stroke-width: 0.8"/>
      </g>
     </g>
     <g id="text_6">
      <!-- 250 -->
      <g transform="translate(411.401064 314.876406) scale(0.1 -0.1)">
       <use xlink:href="#DejaVuSans-32"/>
       <use xlink:href="#DejaVuSans-35" transform="translate(63.623047 0)"/>
       <use xlink:href="#DejaVuSans-30" transform="translate(127.246094 0)"/>
      </g>
     </g>
    </g>
    <g id="xtick_7">
     <g id="line2d_13">
      <path d="M 490.913466 300.277969 
L 490.913466 23.077969 
" clip-path="url(#pc063bc9284)" style="fill: none; stroke: #b0b0b0; stroke-opacity: 0.3; stroke-width: 0.8; stroke-linecap: square"/>
     </g>
     <g id="line2d_14">
      <g>
       <use xlink:href="#m5c4a013ac7" x="490.913466" y="300.277969" style="stroke: #000000; stroke-width: 0.8"/>
      </g>
     </g>
     <g id="text_7">
      <!-- 300 -->
      <g transform="translate(481.369716 314.876406) scale(0.1 -0.1)">
       <defs>
        <path id="DejaVuSans-33" d="M 2597 2516 
Q 3050 2419 3304 2112 
Q 3559 1806 3559 1356 
Q 3559 666 3084 287 
Q 2609 -91 1734 -91 
Q 1441 -91 1130 -33 
Q 819 25 488 141 
L 488 750 
Q 750 597 1062 519 
Q 1375 441 1716 441 
Q 2309 441 2620 675 
Q 2931 909 2931 1356 
Q 2931 1769 2642 2001 
Q 2353 2234 1838 2234 
L 1294 2234 
L 1294 2753 
L 1863 2753 
Q 2328 2753 2575 2939 
Q 2822 3125 2822 3475 
Q 2822 3834 2567 4026 
Q 2313 4219 1838 4219 
Q 1578 4219 1281 4162 
Q 984 4106 628 3988 
L 628 4550 
Q 988 4650 1302 4700 
Q 1616 4750 1894 4750 
Q 2613 4750 3031 4423 
Q 3450 4097 3450 3541 
Q 3450 3153 3228 2886 
Q 3006 2619 2597 2516 
z
" transform="scale(0.015625)"/>
       </defs>
       <use xlink:href="#DejaVuSans-33"/>
       <use xlink:href="#DejaVuSans-30" transform="translate(63.623047 0)"/>
       <use xlink:href="#DejaVuSans-30" transform="translate(127.246094 0)"/>
      </g>
     </g>
    </g>
    <g id="text_8">
     <!-- Number of trees -->
     <g transform="translate(239.110937 330.074219) scale(0.12 -0.12)">
      <defs>
       <path id="DejaVuSans-4e" d="M 628 4666 
L 1478 4666 
L 3547 763 
L 3547 4666 
L 4159 4666 
L 4159 0 
L 3309 0 
L 1241 3903 
L 1241 0 
L 628 0 
L 628 4666 
z
" transform="scale(0.015625)"/>
       <path id="DejaVuSans-75" d="M 544 1381 
L 544 3500 
L 1119 3500 
L 1119 1403 
Q 1119 906 1312 657 
Q 1506 409 1894 409 
Q 2359 409 2629 706 
Q 2900 1003 2900 1516 
L 2900 3500 
L 3475 3500 
L 3475 0 
L 2900 0 
L 2900 538 
Q 2691 219 2414 64 
Q 2138 -91 1772 -91 
Q 1169 -91 856 284 
Q 544 659 544 1381 
z
M 1991 3584 
L 1991 3584 
z
" transform="scale(0.015625)"/>
       <path id="DejaVuSans-6d" d="M 3328 2828 
Q 3544 3216 3844 3400 
Q 4144 3584 4550 3584 
Q 5097 3584 5394 3201 
Q 5691 2819 5691 2113 
L 5691 0 
L 5113 0 
L 5113 2094 
Q 5113 2597 4934 2840 
Q 4756 3084 4391 3084 
Q 3944 3084 3684 2787 
Q 3425 2491 3425 1978 
L 3425 0 
L 2847 0 
L 2847 2094 
Q 2847 2600 2669 2842 
Q 2491 3084 2119 3084 
Q 1678 3084 1418 2786 
Q 1159 2488 1159 1978 
L 1159 0 
L 581 0 
L 581 3500 
L 1159 3500 
L 1159 2956 
Q 1356 3278 1631 3431 
Q 1906 3584 2284 3584 
Q 2666 3584 2933 3390 
Q 3200 3197 3328 2828 
z
" transform="scale(0.015625)"/>
       <path id="DejaVuSans-62" d="M 3116 1747 
Q 3116 2381 2855 2742 
Q 2594 3103 2138 3103 
Q 1681 3103 1420 2742 
Q 1159 2381 1159 1747 
Q 1159 1113 1420 752 
Q 1681 391 2138 391 
Q 2594 391 2855 752 
Q 3116 1113 3116 1747 
z
M 1159 2969 
Q 1341 3281 1617 3432 
Q 1894 3584 2278 3584 
Q 2916 3584 3314 3078 
Q 3713 2572 3713 1747 
Q 3713 922 3314 415 
Q 2916 -91 2278 -91 
Q 1894 -91 1617 61 
Q 1341 213 1159 525 
L 1159 0 
L 581 0 
L 581 4863 
L 1159 4863 
L 1159 2969 
z
" transform="scale(0.015625)"/>
       <path id="DejaVuSans-65" d="M 3597 1894 
L 3597 1613 
L 953 1613 
Q 991 1019 1311 708 
Q 1631 397 2203 397 
Q 2534 397 2845 478 
Q 3156 559 3463 722 
L 3463 178 
Q 3153 47 2828 -22 
Q 2503 -91 2169 -91 
Q 1331 -91 842 396 
Q 353 884 353 1716 
Q 353 2575 817 3079 
Q 1281 3584 2069 3584 
Q 2775 3584 3186 3129 
Q 3597 2675 3597 1894 
z
M 3022 2063 
Q 3016 2534 2758 2815 
Q 2500 3097 2075 3097 
Q 1594 3097 1305 2825 
Q 1016 2553 972 2059 
L 3022 2063 
z
" transform="scale(0.015625)"/>
       <path id="DejaVuSans-72" d="M 2631 2963 
Q 2534 3019 2420 3045 
Q 2306 3072 2169 3072 
Q 1681 3072 1420 2755 
Q 1159 2438 1159 1844 
L 1159 0 
L 581 0 
L 581 3500 
L 1159 3500 
L 1159 2956 
Q 1341 3275 1631 3429 
Q 1922 3584 2338 3584 
Q 2397 3584 2469 3576 
Q 2541 3569 2628 3553 
L 2631 2963 
z
" transform="scale(0.015625)"/>
       <path id="DejaVuSans-20" transform="scale(0.015625)"/>
       <path id="DejaVuSans-6f" d="M 1959 3097 
Q 1497 3097 1228 2736 
Q 959 2375 959 1747 
Q 959 1119 1226 758 
Q 1494 397 1959 397 
Q 2419 397 2687 759 
Q 2956 1122 2956 1747 
Q 2956 2369 2687 2733 
Q 2419 3097 1959 3097 
z
M 1959 3584 
Q 2709 3584 3137 3096 
Q 3566 2609 3566 1747 
Q 3566 888 3137 398 
Q 2709 -91 1959 -91 
Q 1206 -91 779 398 
Q 353 888 353 1747 
Q 353 2609 779 3096 
Q 1206 3584 1959 3584 
z
" transform="scale(0.015625)"/>
       <path id="DejaVuSans-66" d="M 2375 4863 
L 2375 4384 
L 1825 4384 
Q 1516 4384 1395 4259 
Q 1275 4134 1275 3809 
L 1275 3500 
L 2222 3500 
L 2222 3053 
L 1275 3053 
L 1275 0 
L 697 0 
L 697 3053 
L 147 3053 
L 147 3500 
L 697 3500 
L 697 3744 
Q 697 4328 969 4595 
Q 1241 4863 1831 4863 
L 2375 4863 
z
" transform="scale(0.015625)"/>
       <path id="DejaVuSans-74" d="M 1172 4494 
L 1172 3500 
L 2356 3500 
L 2356 3053 
L 1172 3053 
L 1172 1153 
Q 1172 725 1289 603 
Q 1406 481 1766 481 
L 2356 481 
L 2356 0 
L 1766 0 
Q 1100 0 847 248 
Q 594 497 594 1153 
L 594 3053 
L 172 3053 
L 172 3500 
L 594 3500 
L 594 4494 
L 1172 4494 
z
" transform="scale(0.015625)"/>
       <path id="DejaVuSans-73" d="M 2834 3397 
L 2834 2853 
Q 2591 2978 2328 3040 
Q 2066 3103 1784 3103 
Q 1356 3103 1142 2972 
Q 928 2841 928 2578 
Q 928 2378 1081 2264 
Q 1234 2150 1697 2047 
L 1894 2003 
Q 2506 1872 2764 1633 
Q 3022 1394 3022 966 
Q 3022 478 2636 193 
Q 2250 -91 1575 -91 
Q 1294 -91 989 -36 
Q 684 19 347 128 
L 347 722 
Q 666 556 975 473 
Q 1284 391 1588 391 
Q 1994 391 2212 530 
Q 2431 669 2431 922 
Q 2431 1156 2273 1281 
Q 2116 1406 1581 1522 
L 1381 1569 
Q 847 1681 609 1914 
Q 372 2147 372 2553 
Q 372 3047 722 3315 
Q 1072 3584 1716 3584 
Q 2034 3584 2315 3537 
Q 2597 3491 2834 3397 
z
" transform="scale(0.015625)"/>
      </defs>
      <use xlink:href="#DejaVuSans-4e"/>
      <use xlink:href="#DejaVuSans-75" transform="translate(74.804688 0)"/>
      <use xlink:href="#DejaVuSans-6d" transform="translate(138.183594 0)"/>
      <use xlink:href="#DejaVuSans-62" transform="translate(235.595703 0)"/>
      <use xlink:href="#DejaVuSans-65" transform="translate(299.072266 0)"/>
      <use xlink:href="#DejaVuSans-72" transform="translate(360.595703 0)"/>
      <use xlink:href="#DejaVuSans-20" transform="translate(401.708984 0)"/>
      <use xlink:href="#DejaVuSans-6f" transform="translate(433.496094 0)"/>
      <use xlink:href="#DejaVuSans-66" transform="translate(494.677734 0)"/>
      <use xlink:href="#DejaVuSans-20" transform="translate(529.882812 0)"/>
      <use xlink:href="#DejaVuSans-74" transform="translate(561.669922 0)"/>
      <use xlink:href="#DejaVuSans-72" transform="translate(600.878906 0)"/>
      <use xlink:href="#DejaVuSans-65" transform="translate(639.742188 0)"/>
      <use xlink:href="#DejaVuSans-65" transform="translate(701.265625 0)"/>
      <use xlink:href="#DejaVuSans-73" transform="translate(762.789062 0)"/>
     </g>
    </g>
   </g>
   <g id="matplotlib.axis_2">
    <g id="ytick_1">
     <g id="line2d_15">
      <path d="M 64.804375 282.923252 
L 511.204375 282.923252 
" clip-path="url(#pc063bc9284)" style="fill: none; stroke: #b0b0b0; stroke-opacity: 0.3; stroke-width: 0.8; stroke-linecap: square"/>
     </g>
     <g id="line2d_16">
      <defs>
       <path id="ma04bb7c02c" d="M 0 0 
L -3.5 0 
" style="stroke: #000000; stroke-width: 0.8"/>
      </defs>
      <g>
       <use xlink:href="#ma04bb7c02c" x="64.804375" y="282.923252" style="stroke: #000000; stroke-width: 0.8"/>
      </g>
     </g>
     <g id="text_9">
      <!-- 0.9500 -->
      <g transform="translate(22.81375 286.722471) scale(0.1 -0.1)">
       <defs>
        <path id="DejaVuSans-2e" d="M 684 794 
L 1344 794 
L 1344 0 
L 684 0 
L 684 794 
z
" transform="scale(0.015625)"/>
        <path id="DejaVuSans-39" d="M 703 97 
L 703 672 
Q 941 559 1184 500 
Q 1428 441 1663 441 
Q 2288 441 2617 861 
Q 2947 1281 2994 2138 
Q 2813 1869 2534 1725 
Q 2256 1581 1919 1581 
Q 1219 1581 811 2004 
Q 403 2428 403 3163 
Q 403 3881 828 4315 
Q 1253 4750 1959 4750 
Q 2769 4750 3195 4129 
Q 3622 3509 3622 2328 
Q 3622 1225 3098 567 
Q 2575 -91 1691 -91 
Q 1453 -91 1209 -44 
Q 966 3 703 97 
z
M 1959 2075 
Q 2384 2075 2632 2365 
Q 2881 2656 2881 3163 
Q 2881 3666 2632 3958 
Q 2384 4250 1959 4250 
Q 1534 4250 1286 3958 
Q 1038 3666 1038 3163 
Q 1038 2656 1286 2365 
Q 1534 2075 1959 2075 
z
" transform="scale(0.015625)"/>
       </defs>
       <use xlink:href="#DejaVuSans-30"/>
       <use xlink:href="#DejaVuSans-2e" transform="translate(63.623047 0)"/>
       <use xlink:href="#DejaVuSans-39" transform="translate(95.410156 0)"/>
       <use xlink:href="#DejaVuSans-35" transform="translate(159.033203 0)"/>
       <use xlink:href="#DejaVuSans-30" transform="translate(222.65625 0)"/>
       <use xlink:href="#DejaVuSans-30" transform="translate(286.279297 0)"/>
      </g>
     </g>
    </g>
    <g id="ytick_2">
     <g id="line2d_17">
      <path d="M 64.804375 245.479856 
L 511.204375 245.479856 
" clip-path="url(#pc063bc9284)" style="fill: none; stroke: #b0b0b0; stroke-opacity: 0.3; stroke-width: 0.8; stroke-linecap: square"/>
     </g>
     <g id="line2d_18">
      <g>
       <use xlink:href="#ma04bb7c02c" x="64.804375" y="245.479856" style="stroke: #000000; stroke-width: 0.8"/>
      </g>
     </g>
     <g id="text_10">
      <!-- 0.9525 -->
      <g transform="translate(22.81375 249.279074) scale(0.1 -0.1)">
       <use xlink:href="#DejaVuSans-30"/>
       <use xlink:href="#DejaVuSans-2e" transform="translate(63.623047 0)"/>
       <use xlink:href="#DejaVuSans-39" transform="translate(95.410156 0)"/>
       <use xlink:href="#DejaVuSans-35" transform="translate(159.033203 0)"/>
       <use xlink:href="#DejaVuSans-32" transform="translate(222.65625 0)"/>
       <use xlink:href="#DejaVuSans-35" transform="translate(286.279297 0)"/>
      </g>
     </g>
    </g>
    <g id="ytick_3">
     <g id="line2d_19">
      <path d="M 64.804375 208.036459 
L 511.204375 208.036459 
" clip-path="url(#pc063bc9284)" style="fill: none; stroke: #b0b0b0; stroke-opacity: 0.3; stroke-width: 0.8; stroke-linecap: square"/>
     </g>
     <g id="line2d_20">
      <g>
       <use xlink:href="#ma04bb7c02c" x="64.804375" y="208.036459" style="stroke: #000000; stroke-width: 0.8"/>
      </g>
     </g>
     <g id="text_11">
      <!-- 0.9550 -->
      <g transform="translate(22.81375 211.835678) scale(0.1 -0.1)">
       <use xlink:href="#DejaVuSans-30"/>
       <use xlink:href="#DejaVuSans-2e" transform="translate(63.623047 0)"/>
       <use xlink:href="#DejaVuSans-39" transform="translate(95.410156 0)"/>
       <use xlink:href="#DejaVuSans-35" transform="translate(159.033203 0)"/>
       <use xlink:href="#DejaVuSans-35" transform="translate(222.65625 0)"/>
       <use xlink:href="#DejaVuSans-30" transform="translate(286.279297 0)"/>
      </g>
     </g>
    </g>
    <g id="ytick_4">
     <g id="line2d_21">
      <path d="M 64.804375 170.593063 
L 511.204375 170.593063 
" clip-path="url(#pc063bc9284)" style="fill: none; stroke: #b0b0b0; stroke-opacity: 0.3; stroke-width: 0.8; stroke-linecap: square"/>
     </g>
     <g id="line2d_22">
      <g>
       <use xlink:href="#ma04bb7c02c" x="64.804375" y="170.593063" style="stroke: #000000; stroke-width: 0.8"/>
      </g>
     </g>
     <g id="text_12">
      <!-- 0.9575 -->
      <g transform="translate(22.81375 174.392282) scale(0.1 -0.1)">
       <defs>
        <path id="DejaVuSans-37" d="M 525 4666 
L 3525 4666 
L 3525 4397 
L 1831 0 
L 1172 0 
L 2766 4134 
L 525 4134 
L 525 4666 
z
" transform="scale(0.015625)"/>
       </defs>
       <use xlink:href="#DejaVuSans-30"/>
       <use xlink:href="#DejaVuSans-2e" transform="translate(63.623047 0)"/>
       <use xlink:href="#DejaVuSans-39" transform="translate(95.410156 0)"/>
       <use xlink:href="#DejaVuSans-35" transform="translate(159.033203 0)"/>
       <use xlink:href="#DejaVuSans-37" transform="translate(222.65625 0)"/>
       <use xlink:href="#DejaVuSans-35" transform="translate(286.279297 0)"/>
      </g>
     </g>
    </g>
    <g id="ytick_5">
     <g id="line2d_23">
      <path d="M 64.804375 133.149667 
L 511.204375 133.149667 
" clip-path="url(#pc063bc9284)" style="fill: none; stroke: #b0b0b0; stroke-opacity: 0.3; stroke-width: 0.8; stroke-linecap: square"/>
     </g>
     <g id="line2d_24">
      <g>
       <use xlink:href="#ma04bb7c02c" x="64.804375" y="133.149667" style="stroke: #000000; stroke-width: 0.8"/>
      </g>
     </g>
     <g id="text_13">
      <!-- 0.9600 -->
      <g transform="translate(22.81375 136.948886) scale(0.1 -0.1)">
       <defs>
        <path id="DejaVuSans-36" d="M 2113 2584 
Q 1688 2584 1439 2293 
Q 1191 2003 1191 1497 
Q 1191 994 1439 701 
Q 1688 409 2113 409 
Q 2538 409 2786 701 
Q 3034 994 3034 1497 
Q 3034 2003 2786 2293 
Q 2538 2584 2113 2584 
z
M 3366 4563 
L 3366 3988 
Q 3128 4100 2886 4159 
Q 2644 4219 2406 4219 
Q 1781 4219 1451 3797 
Q 1122 3375 1075 2522 
Q 1259 2794 1537 2939 
Q 1816 3084 2150 3084 
Q 2853 3084 3261 2657 
Q 3669 2231 3669 1497 
Q 3669 778 3244 343 
Q 2819 -91 2113 -91 
Q 1303 -91 875 529 
Q 447 1150 447 2328 
Q 447 3434 972 4092 
Q 1497 4750 2381 4750 
Q 2619 4750 2861 4703 
Q 3103 4656 3366 4563 
z
" transform="scale(0.015625)"/>
       </defs>
       <use xlink:href="#DejaVuSans-30"/>
       <use xlink:href="#DejaVuSans-2e" transform="translate(63.623047 0)"/>
       <use xlink:href="#DejaVuSans-39" transform="translate(95.410156 0)"/>
       <use xlink:href="#DejaVuSans-36" transform="translate(159.033203 0)"/>
       <use xlink:href="#DejaVuSans-30" transform="translate(222.65625 0)"/>
       <use xlink:href="#DejaVuSans-30" transform="translate(286.279297 0)"/>
      </g>
     </g>
    </g>
    <g id="ytick_6">
     <g id="line2d_25">
      <path d="M 64.804375 95.706271 
L 511.204375 95.706271 
" clip-path="url(#pc063bc9284)" style="fill: none; stroke: #b0b0b0; stroke-opacity: 0.3; stroke-width: 0.8; stroke-linecap: square"/>
     </g>
     <g id="line2d_26">
      <g>
       <use xlink:href="#ma04bb7c02c" x="64.804375" y="95.706271" style="stroke: #000000; stroke-width: 0.8"/>
      </g>
     </g>
     <g id="text_14">
      <!-- 0.9625 -->
      <g transform="translate(22.81375 99.505489) scale(0.1 -0.1)">
       <use xlink:href="#DejaVuSans-30"/>
       <use xlink:href="#DejaVuSans-2e" transform="translate(63.623047 0)"/>
       <use xlink:href="#DejaVuSans-39" transform="translate(95.410156 0)"/>
       <use xlink:href="#DejaVuSans-36" transform="translate(159.033203 0)"/>
       <use xlink:href="#DejaVuSans-32" transform="translate(222.65625 0)"/>
       <use xlink:href="#DejaVuSans-35" transform="translate(286.279297 0)"/>
      </g>
     </g>
    </g>
    <g id="ytick_7">
     <g id="line2d_27">
      <path d="M 64.804375 58.262874 
L 511.204375 58.262874 
" clip-path="url(#pc063bc9284)" style="fill: none; stroke: #b0b0b0; stroke-opacity: 0.3; stroke-width: 0.8; stroke-linecap: square"/>
     </g>
     <g id="line2d_28">
      <g>
       <use xlink:href="#ma04bb7c02c" x="64.804375" y="58.262874" style="stroke: #000000; stroke-width: 0.8"/>
      </g>
     </g>
     <g id="text_15">
      <!-- 0.9650 -->
      <g transform="translate(22.81375 62.062093) scale(0.1 -0.1)">
       <use xlink:href="#DejaVuSans-30"/>
       <use xlink:href="#DejaVuSans-2e" transform="translate(63.623047 0)"/>
       <use xlink:href="#DejaVuSans-39" transform="translate(95.410156 0)"/>
       <use xlink:href="#DejaVuSans-36" transform="translate(159.033203 0)"/>
       <use xlink:href="#DejaVuSans-35" transform="translate(222.65625 0)"/>
       <use xlink:href="#DejaVuSans-30" transform="translate(286.279297 0)"/>
      </g>
     </g>
    </g>
    <g id="text_16">
     <!-- CV Accuracy -->
     <g transform="translate(16.318125 199.272656) rotate(-90) scale(0.12 -0.12)">
      <defs>
       <path id="DejaVuSans-43" d="M 4122 4306 
L 4122 3641 
Q 3803 3938 3442 4084 
Q 3081 4231 2675 4231 
Q 1875 4231 1450 3742 
Q 1025 3253 1025 2328 
Q 1025 1406 1450 917 
Q 1875 428 2675 428 
Q 3081 428 3442 575 
Q 3803 722 4122 1019 
L 4122 359 
Q 3791 134 3420 21 
Q 3050 -91 2638 -91 
Q 1578 -91 968 557 
Q 359 1206 359 2328 
Q 359 3453 968 4101 
Q 1578 4750 2638 4750 
Q 3056 4750 3426 4639 
Q 3797 4528 4122 4306 
z
" transform="scale(0.015625)"/>
       <path id="DejaVuSans-56" d="M 1831 0 
L 50 4666 
L 709 4666 
L 2188 738 
L 3669 4666 
L 4325 4666 
L 2547 0 
L 1831 0 
z
" transform="scale(0.015625)"/>
       <path id="DejaVuSans-41" d="M 2188 4044 
L 1331 1722 
L 3047 1722 
L 2188 4044 
z
M 1831 4666 
L 2547 4666 
L 4325 0 
L 3669 0 
L 3244 1197 
L 1141 1197 
L 716 0 
L 50 0 
L 1831 4666 
z
" transform="scale(0.015625)"/>
       <path id="DejaVuSans-63" d="M 3122 3366 
L 3122 2828 
Q 2878 2963 2633 3030 
Q 2388 3097 2138 3097 
Q 1578 3097 1268 2742 
Q 959 2388 959 1747 
Q 959 1106 1268 751 
Q 1578 397 2138 397 
Q 2388 397 2633 464 
Q 2878 531 3122 666 
L 3122 134 
Q 2881 22 2623 -34 
Q 2366 -91 2075 -91 
Q 1284 -91 818 406 
Q 353 903 353 1747 
Q 353 2603 823 3093 
Q 1294 3584 2113 3584 
Q 2378 3584 2631 3529 
Q 2884 3475 3122 3366 
z
" transform="scale(0.015625)"/>
       <path id="DejaVuSans-61" d="M 2194 1759 
Q 1497 1759 1228 1600 
Q 959 1441 959 1056 
Q 959 750 1161 570 
Q 1363 391 1709 391 
Q 2188 391 2477 730 
Q 2766 1069 2766 1631 
L 2766 1759 
L 2194 1759 
z
M 3341 1997 
L 3341 0 
L 2766 0 
L 2766 531 
Q 2569 213 2275 61 
Q 1981 -91 1556 -91 
Q 1019 -91 701 211 
Q 384 513 384 1019 
Q 384 1609 779 1909 
Q 1175 2209 1959 2209 
L 2766 2209 
L 2766 2266 
Q 2766 2663 2505 2880 
Q 2244 3097 1772 3097 
Q 1472 3097 1187 3025 
Q 903 2953 641 2809 
L 641 3341 
Q 956 3463 1253 3523 
Q 1550 3584 1831 3584 
Q 2591 3584 2966 3190 
Q 3341 2797 3341 1997 
z
" transform="scale(0.015625)"/>
       <path id="DejaVuSans-79" d="M 2059 -325 
Q 1816 -950 1584 -1140 
Q 1353 -1331 966 -1331 
L 506 -1331 
L 506 -850 
L 844 -850 
Q 1081 -850 1212 -737 
Q 1344 -625 1503 -206 
L 1606 56 
L 191 3500 
L 800 3500 
L 1894 763 
L 2988 3500 
L 3597 3500 
L 2059 -325 
z
" transform="scale(0.015625)"/>
      </defs>
      <use xlink:href="#DejaVuSans-43"/>
      <use xlink:href="#DejaVuSans-56" transform="translate(69.824219 0)"/>
      <use xlink:href="#DejaVuSans-20" transform="translate(138.232422 0)"/>
      <use xlink:href="#DejaVuSans-41" transform="translate(170.019531 0)"/>
      <use xlink:href="#DejaVuSans-63" transform="translate(236.677734 0)"/>
      <use xlink:href="#DejaVuSans-63" transform="translate(291.658203 0)"/>
      <use xlink:href="#DejaVuSans-75" transform="translate(346.638672 0)"/>
      <use xlink:href="#DejaVuSans-72" transform="translate(410.017578 0)"/>
      <use xlink:href="#DejaVuSans-61" transform="translate(451.130859 0)"/>
      <use xlink:href="#DejaVuSans-63" transform="translate(512.410156 0)"/>
      <use xlink:href="#DejaVuSans-79" transform="translate(567.390625 0)"/>
     </g>
    </g>
   </g>
   <g id="line2d_29">
    <path d="M 85.095284 287.677969 
L 286.605002 35.677969 
L 288.004375 35.677969 
L 387.359861 35.677969 
L 388.759234 35.677969 
L 437.73729 35.677969 
L 439.136663 35.677969 
L 440.536036 35.677969 
L 441.935409 35.677969 
L 443.334783 35.677969 
L 444.734156 35.677969 
L 446.133529 35.677969 
L 447.532902 35.677969 
L 448.932275 35.677969 
L 450.331648 35.677969 
L 451.731021 35.677969 
L 453.130394 35.677969 
L 454.529767 35.677969 
L 455.92914 35.677969 
L 457.328513 35.677969 
L 458.727886 35.677969 
L 460.127259 35.677969 
L 461.526632 35.677969 
L 462.926005 35.677969 
L 464.325378 35.677969 
L 465.724751 35.677969 
L 467.124124 35.677969 
L 468.523497 35.677969 
L 469.92287 35.677969 
L 471.322243 35.677969 
L 472.721616 35.677969 
L 474.120989 35.677969 
L 475.520362 35.677969 
L 476.919736 35.677969 
L 478.319109 35.677969 
L 479.718482 35.677969 
L 481.117855 35.677969 
L 482.517228 35.677969 
L 483.916601 35.677969 
L 485.315974 35.677969 
L 486.715347 35.677969 
L 488.11472 35.677969 
L 489.514093 35.677969 
L 490.913466 35.677969 
" clip-path="url(#pc063bc9284)" style="fill: none; stroke: #2196f3; stroke-width: 2; stroke-linecap: square"/>
    <defs>
     <path id="md2f171db1c" d="M 0 2 
C 0.530406 2 1.03916 1.789267 1.414214 1.414214 
C 1.789267 1.03916 2 0.530406 2 0 
C 2 -0.530406 1.789267 -1.03916 1.414214 -1.414214 
C 1.03916 -1.789267 0.530406 -2 0 -2 
C -0.530406 -2 -1.03916 -1.789267 -1.414214 -1.414214 
C -1.789267 -1.03916 -2 -0.530406 -2 0 
C -2 0.530406 -1.789267 1.03916 -1.414214 1.414214 
C -1.03916 1.789267 -0.530406 2 0 2 
z
" style="stroke: #2196f3"/>
    </defs>
    <g clip-path="url(#pc063bc9284)">
     <use xlink:href="#md2f171db1c" x="85.095284" y="287.677969" style="fill: #2196f3; stroke: #2196f3"/>
     <use xlink:href="#md2f171db1c" x="286.605002" y="35.677969" style="fill: #2196f3; stroke: #2196f3"/>
     <use xlink:href="#md2f171db1c" x="288.004375" y="35.677969" style="fill: #2196f3; stroke: #2196f3"/>
     <use xlink:href="#md2f171db1c" x="387.359861" y="35.677969" style="fill: #2196f3; stroke: #2196f3"/>
     <use xlink:href="#md2f171db1c" x="388.759234" y="35.677969" style="fill: #2196f3; stroke: #2196f3"/>
     <use xlink:href="#md2f171db1c" x="437.73729" y="35.677969" style="fill: #2196f3; stroke: #2196f3"/>
     <use xlink:href="#md2f171db1c" x="439.136663" y="35.677969" style="fill: #2196f3; stroke: #2196f3"/>
     <use xlink:href="#md2f171db1c" x="440.536036" y="35.677969" style="fill: #2196f3; stroke: #2196f3"/>
     <use xlink:href="#md2f171db1c" x="441.935409" y="35.677969" style="fill: #2196f3; stroke: #2196f3"/>
     <use xlink:href="#md2f171db1c" x="443.334783" y="35.677969" style="fill: #2196f3; stroke: #2196f3"/>
     <use xlink:href="#md2f171db1c" x="444.734156" y="35.677969" style="fill: #2196f3; stroke: #2196f3"/>
     <use xlink:href="#md2f171db1c" x="446.133529" y="35.677969" style="fill: #2196f3; stroke: #2196f3"/>
     <use xlink:href="#md2f171db1c" x="447.532902" y="35.677969" style="fill: #2196f3; stroke: #2196f3"/>
     <use xlink:href="#md2f171db1c" x="448.932275" y="35.677969" style="fill: #2196f3; stroke: #2196f3"/>
     <use xlink:href="#md2f171db1c" x="450.331648" y="35.677969" style="fill: #2196f3; stroke: #2196f3"/>
     <use xlink:href="#md2f171db1c" x="451.731021" y="35.677969" style="fill: #2196f3; stroke: #2196f3"/>
     <use xlink:href="#md2f171db1c" x="453.130394" y="35.677969" style="fill: #2196f3; stroke: #2196f3"/>
     <use xlink:href="#md2f171db1c" x="454.529767" y="35.677969" style="fill: #2196f3; stroke: #2196f3"/>
     <use xlink:href="#md2f171db1c" x="455.92914" y="35.677969" style="fill: #2196f3; stroke: #2196f3"/>
     <use xlink:href="#md2f171db1c" x="457.328513" y="35.677969" style="fill: #2196f3; stroke: #2196f3"/>
     <use xlink:href="#md2f171db1c" x="458.727886" y="35.677969" style="fill: #2196f3; stroke: #2196f3"/>
     <use xlink:href="#md2f171db1c" x="460.127259" y="35.677969" style="fill: #2196f3; stroke: #2196f3"/>
     <use xlink:href="#md2f171db1c" x="461.526632" y="35.677969" style="fill: #2196f3; stroke: #2196f3"/>
     <use xlink:href="#md2f171db1c" x="462.926005" y="35.677969" style="fill: #2196f3; stroke: #2196f3"/>
     <use xlink:href="#md2f171db1c" x="464.325378" y="35.677969" style="fill: #2196f3; stroke: #2196f3"/>
     <use xlink:href="#md2f171db1c" x="465.724751" y="35.677969" style="fill: #2196f3; stroke: #2196f3"/>
     <use xlink:href="#md2f171db1c" x="467.124124" y="35.677969" style="fill: #2196f3; stroke: #2196f3"/>
     <use xlink:href="#md2f171db1c" x="468.523497" y="35.677969" style="fill: #2196f3; stroke: #2196f3"/>
     <use xlink:href="#md2f171db1c" x="469.92287" y="35.677969" style="fill: #2196f3; stroke: #2196f3"/>
     <use xlink:href="#md2f171db1c" x="471.322243" y="35.677969" style="fill: #2196f3; stroke: #2196f3"/>
     <use xlink:href="#md2f171db1c" x="472.721616" y="35.677969" style="fill: #2196f3; stroke: #2196f3"/>
     <use xlink:href="#md2f171db1c" x="474.120989" y="35.677969" style="fill: #2196f3; stroke: #2196f3"/>
     <use xlink:href="#md2f171db1c" x="475.520362" y="35.677969" style="fill: #2196f3; stroke: #2196f3"/>
     <use xlink:href="#md2f171db1c" x="476.919736" y="35.677969" style="fill: #2196f3; stroke: #2196f3"/>
     <use xlink:href="#md2f171db1c" x="478.319109" y="35.677969" style="fill: #2196f3; stroke: #2196f3"/>
     <use xlink:href="#md2f171db1c" x="479.718482" y="35.677969" style="fill: #2196f3; stroke: #2196f3"/>
     <use xlink:href="#md2f171db1c" x="481.117855" y="35.677969" style="fill: #2196f3; stroke: #2196f3"/>
     <use xlink:href="#md2f171db1c" x="482.517228" y="35.677969" style="fill: #2196f3; stroke: #2196f3"/>
     <use xlink:href="#md2f171db1c" x="483.916601" y="35.677969" style="fill: #2196f3; stroke: #2196f3"/>
     <use xlink:href="#md2f171db1c" x="485.315974" y="35.677969" style="fill: #2196f3; stroke: #2196f3"/>
     <use xlink:href="#md2f171db1c" x="486.715347" y="35.677969" style="fill: #2196f3; stroke: #2196f3"/>
     <use xlink:href="#md2f171db1c" x="488.11472" y="35.677969" style="fill: #2196f3; stroke: #2196f3"/>
     <use xlink:href="#md2f171db1c" x="489.514093" y="35.677969" style="fill: #2196f3; stroke: #2196f3"/>
     <use xlink:href="#md2f171db1c" x="490.913466" y="35.677969" style="fill: #2196f3; stroke: #2196f3"/>
    </g>
   </g>
   <g id="line2d_30">
    <path d="M 490.913466 300.277969 
L 490.913466 23.077969 
" clip-path="url(#pc063bc9284)" style="fill: none; stroke-dasharray: 7.4,3.2; stroke-dashoffset: 0; stroke: #f44336; stroke-width: 2"/>
   </g>
   <g id="patch_3">
    <path d="M 64.804375 300.277969 
L 64.804375 23.077969 
" style="fill: none; stroke: #000000; stroke-width: 0.8; stroke-linejoin: miter; stroke-linecap: square"/>
   </g>
   <g id="patch_4">
    <path d="M 511.204375 300.277969 
L 511.204375 23.077969 
" style="fill: none; stroke: #000000; stroke-width: 0.8; stroke-linejoin: miter; stroke-linecap: square"/>
   </g>
   <g id="patch_5">
    <path d="M 64.804375 300.277969 
L 511.204375 300.277969 
" style="fill: none; stroke: #000000; stroke-width: 0.8; stroke-linejoin: miter; stroke-linecap: square"/>
   </g>
   <g id="patch_6">
    <path d="M 64.804375 23.077969 
L 511.204375 23.077969 
" style="fill: none; stroke: #000000; stroke-width: 0.8; stroke-linejoin: miter; stroke-linecap: square"/>
   </g>
   <g id="text_17">
    <g id="patch_7">
     <path d="M 82.66005 279.97375 
L 87.530518 279.97375 
Q 88.370518 279.97375 88.370518 279.13375 
L 88.370518 272.359062 
Q 88.370518 271.519062 87.530518 271.519062 
L 82.66005 271.519062 
Q 81.82005 271.519062 81.82005 272.359062 
L 81.82005 279.13375 
Q 81.82005 279.97375 82.66005 279.97375 
z
" style="fill: #ffffff; opacity: 0.85; stroke: #795548; stroke-width: 0.4; stroke-linejoin: miter"/>
    </g>
    <!-- 1 -->
    <g style="fill: #795548" transform="translate(82.66005 277.677969) scale(0.07 -0.07)">
     <defs>
      <path id="DejaVuSans-Bold-31" d="M 750 831 
L 1813 831 
L 1813 3847 
L 722 3622 
L 722 4441 
L 1806 4666 
L 2950 4666 
L 2950 831 
L 4013 831 
L 4013 0 
L 750 0 
L 750 831 
z
" transform="scale(0.015625)"/>
     </defs>
     <use xlink:href="#DejaVuSans-Bold-31"/>
    </g>
   </g>
   <g id="text_18">
    <g id="patch_8">
     <path d="M 488.478232 27.97375 
L 493.3487 27.97375 
Q 494.1887 27.97375 494.1887 27.13375 
L 494.1887 20.359063 
Q 494.1887 19.519063 493.3487 19.519063 
L 488.478232 19.519063 
Q 487.638232 19.519063 487.638232 20.359063 
L 487.638232 27.13375 
Q 487.638232 27.97375 488.478232 27.97375 
z
" style="fill: #ffffff; opacity: 0.85; stroke: #795548; stroke-width: 0.4; stroke-linejoin: miter"/>
    </g>
    <!-- 2 -->
    <g style="fill: #795548" transform="translate(488.478232 25.677969) scale(0.07 -0.07)">
     <defs>
      <path id="DejaVuSans-Bold-32" d="M 1844 884 
L 3897 884 
L 3897 0 
L 506 0 
L 506 884 
L 2209 2388 
Q 2438 2594 2547 2791 
Q 2656 2988 2656 3200 
Q 2656 3528 2436 3728 
Q 2216 3928 1850 3928 
Q 1569 3928 1234 3808 
Q 900 3688 519 3450 
L 519 4475 
Q 925 4609 1322 4679 
Q 1719 4750 2100 4750 
Q 2938 4750 3402 4381 
Q 3866 4013 3866 3353 
Q 3866 2972 3669 2642 
Q 3472 2313 2841 1759 
L 1844 884 
z
" transform="scale(0.015625)"/>
     </defs>
     <use xlink:href="#DejaVuSans-Bold-32"/>
    </g>
   </g>
   <g id="text_19">
    <g id="patch_9">
     <path d="M 285.569141 27.97375 
L 290.439609 27.97375 
Q 291.279609 27.97375 291.279609 27.13375 
L 291.279609 20.359063 
Q 291.279609 19.519063 290.439609 19.519063 
L 285.569141 19.519063 
Q 284.729141 19.519063 284.729141 20.359063 
L 284.729141 27.13375 
Q 284.729141 27.97375 285.569141 27.97375 
z
" style="fill: #ffffff; opacity: 0.85; stroke: #4caf50; stroke-width: 0.4; stroke-linejoin: miter"/>
    </g>
    <!-- 3 -->
    <g style="fill: #4caf50" transform="translate(285.569141 25.677969) scale(0.07 -0.07)">
     <defs>
      <path id="DejaVuSans-Bold-33" d="M 2981 2516 
Q 3453 2394 3698 2092 
Q 3944 1791 3944 1325 
Q 3944 631 3412 270 
Q 2881 -91 1863 -91 
Q 1503 -91 1142 -33 
Q 781 25 428 141 
L 428 1069 
Q 766 900 1098 814 
Q 1431 728 1753 728 
Q 2231 728 2486 893 
Q 2741 1059 2741 1369 
Q 2741 1688 2480 1852 
Q 2219 2016 1709 2016 
L 1228 2016 
L 1228 2791 
L 1734 2791 
Q 2188 2791 2409 2933 
Q 2631 3075 2631 3366 
Q 2631 3634 2415 3781 
Q 2200 3928 1806 3928 
Q 1516 3928 1219 3862 
Q 922 3797 628 3669 
L 628 4550 
Q 984 4650 1334 4700 
Q 1684 4750 2022 4750 
Q 2931 4750 3382 4451 
Q 3834 4153 3834 3553 
Q 3834 3144 3618 2883 
Q 3403 2622 2981 2516 
z
" transform="scale(0.015625)"/>
     </defs>
     <use xlink:href="#DejaVuSans-Bold-33"/>
    </g>
   </g>
   <g id="text_20">
    <g id="patch_10">
     <path d="M 386.324 27.97375 
L 391.194468 27.97375 
Q 392.034468 27.97375 392.034468 27.13375 
L 392.034468 20.359063 
Q 392.034468 19.519063 391.194468 19.519063 
L 386.324 19.519063 
Q 385.484 19.519063 385.484 20.359063 
L 385.484 27.13375 
Q 385.484 27.97375 386.324 27.97375 
z
" style="fill: #ffffff; opacity: 0.85; stroke: #4caf50; stroke-width: 0.4; stroke-linejoin: miter"/>
    </g>
    <!-- 4 -->
    <g style="fill: #4caf50" transform="translate(386.324 25.677969) scale(0.07 -0.07)">
     <defs>
      <path id="DejaVuSans-Bold-34" d="M 2356 3675 
L 1038 1722 
L 2356 1722 
L 2356 3675 
z
M 2156 4666 
L 3494 4666 
L 3494 1722 
L 4159 1722 
L 4159 850 
L 3494 850 
L 3494 0 
L 2356 0 
L 2356 850 
L 288 850 
L 288 1881 
L 2156 4666 
z
" transform="scale(0.015625)"/>
     </defs>
     <use xlink:href="#DejaVuSans-Bold-34"/>
    </g>
   </g>
   <g id="text_21">
    <g id="patch_11">
     <path d="M 436.701429 27.97375 
L 441.571898 27.97375 
Q 442.411898 27.97375 442.411898 27.13375 
L 442.411898 20.359063 
Q 442.411898 19.519063 441.571898 19.519063 
L 436.701429 19.519063 
Q 435.861429 19.519063 435.861429 20.359063 
L 435.861429 27.13375 
Q 435.861429 27.97375 436.701429 27.97375 
z
" style="fill: #ffffff; opacity: 0.85; stroke: #4caf50; stroke-width: 0.4; stroke-linejoin: miter"/>
    </g>
    <!-- 5 -->
    <g style="fill: #4caf50" transform="translate(436.701429 25.677969) scale(0.07 -0.07)">
     <defs>
      <path id="DejaVuSans-Bold-35" d="M 678 4666 
L 3669 4666 
L 3669 3781 
L 1638 3781 
L 1638 3059 
Q 1775 3097 1914 3117 
Q 2053 3138 2203 3138 
Q 3056 3138 3531 2711 
Q 4006 2284 4006 1522 
Q 4006 766 3489 337 
Q 2972 -91 2053 -91 
Q 1656 -91 1267 -14 
Q 878 63 494 219 
L 494 1166 
Q 875 947 1217 837 
Q 1559 728 1863 728 
Q 2300 728 2551 942 
Q 2803 1156 2803 1522 
Q 2803 1891 2551 2103 
Q 2300 2316 1863 2316 
Q 1603 2316 1309 2248 
Q 1016 2181 678 2041 
L 678 4666 
z
" transform="scale(0.015625)"/>
     </defs>
     <use xlink:href="#DejaVuSans-Bold-35"/>
    </g>
   </g>
   <g id="text_22">
    <g id="patch_12">
     <path d="M 461.890144 27.97375 
L 466.760613 27.97375 
Q 467.600613 27.97375 467.600613 27.13375 
L 467.600613 20.359063 
Q 467.600613 19.519063 466.760613 19.519063 
L 461.890144 19.519063 
Q 461.050144 19.519063 461.050144 20.359063 
L 461.050144 27.13375 
Q 461.050144 27.97375 461.890144 27.97375 
z
" style="fill: #ffffff; opacity: 0.85; stroke: #4caf50; stroke-width: 0.4; stroke-linejoin: miter"/>
    </g>
    <!-- 6 -->
    <g style="fill: #4caf50" transform="translate(461.890144 25.677969) scale(0.07 -0.07)">
     <defs>
      <path id="DejaVuSans-Bold-36" d="M 2316 2303 
Q 2000 2303 1842 2098 
Q 1684 1894 1684 1484 
Q 1684 1075 1842 870 
Q 2000 666 2316 666 
Q 2634 666 2792 870 
Q 2950 1075 2950 1484 
Q 2950 1894 2792 2098 
Q 2634 2303 2316 2303 
z
M 3803 4544 
L 3803 3681 
Q 3506 3822 3243 3889 
Q 2981 3956 2731 3956 
Q 2194 3956 1894 3657 
Q 1594 3359 1544 2772 
Q 1750 2925 1990 3001 
Q 2231 3078 2516 3078 
Q 3231 3078 3670 2659 
Q 4109 2241 4109 1563 
Q 4109 813 3618 361 
Q 3128 -91 2303 -91 
Q 1394 -91 895 523 
Q 397 1138 397 2266 
Q 397 3422 980 4083 
Q 1563 4744 2578 4744 
Q 2900 4744 3203 4694 
Q 3506 4644 3803 4544 
z
" transform="scale(0.015625)"/>
     </defs>
     <use xlink:href="#DejaVuSans-Bold-36"/>
    </g>
   </g>
   <g id="text_23">
    <g id="patch_13">
     <path d="M 474.484501 27.97375 
L 479.35497 27.97375 
Q 480.19497 27.97375 480.19497 27.13375 
L 480.19497 20.359063 
Q 480.19497 19.519063 479.35497 19.519063 
L 474.484501 19.519063 
Q 473.644501 19.519063 473.644501 20.359063 
L 473.644501 27.13375 
Q 473.644501 27.97375 474.484501 27.97375 
z
" style="fill: #ffffff; opacity: 0.85; stroke: #4caf50; stroke-width: 0.4; stroke-linejoin: miter"/>
    </g>
    <!-- 7 -->
    <g style="fill: #4caf50" transform="translate(474.484501 25.677969) scale(0.07 -0.07)">
     <defs>
      <path id="DejaVuSans-Bold-37" d="M 428 4666 
L 3944 4666 
L 3944 3988 
L 2125 0 
L 953 0 
L 2675 3781 
L 428 3781 
L 428 4666 
z
" transform="scale(0.015625)"/>
     </defs>
     <use xlink:href="#DejaVuSans-Bold-37"/>
    </g>
   </g>
   <g id="text_24">
    <g id="patch_14">
     <path d="M 481.481366 27.97375 
L 486.351835 27.97375 
Q 487.191835 27.97375 487.191835 27.13375 
L 487.191835 20.359063 
Q 487.191835 19.519063 486.351835 19.519063 
L 481.481366 19.519063 
Q 480.641366 19.519063 480.641366 20.359063 
L 480.641366 27.13375 
Q 480.641366 27.97375 481.481366 27.97375 
z
" style="fill: #ffffff; opacity: 0.85; stroke: #4caf50; stroke-width: 0.4; stroke-linejoin: miter"/>
    </g>
    <!-- 8 -->
    <g style="fill: #4caf50" transform="translate(481.481366 25.677969) scale(0.07 -0.07)">
     <defs>
      <path id="DejaVuSans-Bold-38" d="M 2228 2088 
Q 1891 2088 1709 1903 
Q 1528 1719 1528 1375 
Q 1528 1031 1709 848 
Q 1891 666 2228 666 
Q 2563 666 2741 848 
Q 2919 1031 2919 1375 
Q 2919 1722 2741 1905 
Q 2563 2088 2228 2088 
z
M 1350 2484 
Q 925 2613 709 2878 
Q 494 3144 494 3541 
Q 494 4131 934 4440 
Q 1375 4750 2228 4750 
Q 3075 4750 3515 4442 
Q 3956 4134 3956 3541 
Q 3956 3144 3739 2878 
Q 3522 2613 3097 2484 
Q 3572 2353 3814 2058 
Q 4056 1763 4056 1313 
Q 4056 619 3595 264 
Q 3134 -91 2228 -91 
Q 1319 -91 855 264 
Q 391 619 391 1313 
Q 391 1763 633 2058 
Q 875 2353 1350 2484 
z
M 1631 3419 
Q 1631 3141 1786 2991 
Q 1941 2841 2228 2841 
Q 2509 2841 2662 2991 
Q 2816 3141 2816 3419 
Q 2816 3697 2662 3845 
Q 2509 3994 2228 3994 
Q 1941 3994 1786 3844 
Q 1631 3694 1631 3419 
z
" transform="scale(0.015625)"/>
     </defs>
     <use xlink:href="#DejaVuSans-Bold-38"/>
    </g>
   </g>
   <g id="text_25">
    <g id="patch_15">
     <path d="M 484.280112 27.97375 
L 489.150581 27.97375 
Q 489.990581 27.97375 489.990581 27.13375 
L 489.990581 20.359063 
Q 489.990581 19.519063 489.150581 19.519063 
L 484.280112 19.519063 
Q 483.440112 19.519063 483.440112 20.359063 
L 483.440112 27.13375 
Q 483.440112 27.97375 484.280112 27.97375 
z
" style="fill: #ffffff; opacity: 0.85; stroke: #4caf50; stroke-width: 0.4; stroke-linejoin: miter"/>
    </g>
    <!-- 9 -->
    <g style="fill: #4caf50" transform="translate(484.280112 25.677969) scale(0.07 -0.07)">
     <defs>
      <path id="DejaVuSans-Bold-39" d="M 641 103 
L 641 966 
Q 928 831 1190 764 
Q 1453 697 1709 697 
Q 2247 697 2547 995 
Q 2847 1294 2900 1881 
Q 2688 1725 2447 1647 
Q 2206 1569 1925 1569 
Q 1209 1569 770 1986 
Q 331 2403 331 3084 
Q 331 3838 820 4291 
Q 1309 4744 2131 4744 
Q 3044 4744 3544 4128 
Q 4044 3513 4044 2388 
Q 4044 1231 3459 570 
Q 2875 -91 1856 -91 
Q 1528 -91 1228 -42 
Q 928 6 641 103 
z
M 2125 2350 
Q 2441 2350 2600 2554 
Q 2759 2759 2759 3169 
Q 2759 3575 2600 3781 
Q 2441 3988 2125 3988 
Q 1809 3988 1650 3781 
Q 1491 3575 1491 3169 
Q 1491 2759 1650 2554 
Q 1809 2350 2125 2350 
z
" transform="scale(0.015625)"/>
     </defs>
     <use xlink:href="#DejaVuSans-Bold-39"/>
    </g>
   </g>
   <g id="text_26">
    <g id="patch_16">
     <path d="M 483.244251 17.89375 
L 492.985189 17.89375 
Q 493.825189 17.89375 493.825189 17.05375 
L 493.825189 10.279063 
Q 493.825189 9.439063 492.985189 9.439063 
L 483.244251 9.439063 
Q 482.404251 9.439063 482.404251 10.279063 
L 482.404251 17.05375 
Q 482.404251 17.89375 483.244251 17.89375 
z
" style="fill: #ffffff; opacity: 0.85; stroke: #4caf50; stroke-width: 0.4; stroke-linejoin: miter"/>
    </g>
    <!-- 10 -->
    <g style="fill: #4caf50" transform="translate(483.244251 15.597969) scale(0.07 -0.07)">
     <defs>
      <path id="DejaVuSans-Bold-30" d="M 2944 2338 
Q 2944 3213 2780 3570 
Q 2616 3928 2228 3928 
Q 1841 3928 1675 3570 
Q 1509 3213 1509 2338 
Q 1509 1453 1675 1090 
Q 1841 728 2228 728 
Q 2613 728 2778 1090 
Q 2944 1453 2944 2338 
z
M 4147 2328 
Q 4147 1169 3647 539 
Q 3147 -91 2228 -91 
Q 1306 -91 806 539 
Q 306 1169 306 2328 
Q 306 3491 806 4120 
Q 1306 4750 2228 4750 
Q 3147 4750 3647 4120 
Q 4147 3491 4147 2328 
z
" transform="scale(0.015625)"/>
     </defs>
     <use xlink:href="#DejaVuSans-Bold-31"/>
     <use xlink:href="#DejaVuSans-Bold-30" transform="translate(69.580078 0)"/>
    </g>
   </g>
   <g id="text_27">
    <g id="patch_17">
     <path d="M 435.665568 17.89375 
L 445.406505 17.89375 
Q 446.246505 17.89375 446.246505 17.05375 
L 446.246505 10.279063 
Q 446.246505 9.439063 445.406505 9.439063 
L 435.665568 9.439063 
Q 434.825568 9.439063 434.825568 10.279063 
L 434.825568 17.05375 
Q 434.825568 17.89375 435.665568 17.89375 
z
" style="fill: #ffffff; opacity: 0.85; stroke: #e91e63; stroke-width: 0.4; stroke-linejoin: miter"/>
    </g>
    <!-- 12 -->
    <g style="fill: #e91e63" transform="translate(435.665568 15.597969) scale(0.07 -0.07)">
     <use xlink:href="#DejaVuSans-Bold-31"/>
     <use xlink:href="#DejaVuSans-Bold-32" transform="translate(69.580078 0)"/>
    </g>
   </g>
   <g id="text_28">
    <g id="patch_18">
     <path d="M 438.464314 27.97375 
L 448.205251 27.97375 
Q 449.045251 27.97375 449.045251 27.13375 
L 449.045251 20.359063 
Q 449.045251 19.519063 448.205251 19.519063 
L 438.464314 19.519063 
Q 437.624314 19.519063 437.624314 20.359063 
L 437.624314 27.13375 
Q 437.624314 27.97375 438.464314 27.97375 
z
" style="fill: #ffffff; opacity: 0.85; stroke: #e91e63; stroke-width: 0.4; stroke-linejoin: miter"/>
    </g>
    <!-- 14 -->
    <g style="fill: #e91e63" transform="translate(438.464314 25.677969) scale(0.07 -0.07)">
     <use xlink:href="#DejaVuSans-Bold-31"/>
     <use xlink:href="#DejaVuSans-Bold-34" transform="translate(69.580078 0)"/>
    </g>
   </g>
   <g id="text_29">
    <g id="patch_19">
     <path d="M 439.863687 17.89375 
L 449.604624 17.89375 
Q 450.444624 17.89375 450.444624 17.05375 
L 450.444624 10.279063 
Q 450.444624 9.439063 449.604624 9.439063 
L 439.863687 9.439063 
Q 439.023687 9.439063 439.023687 10.279063 
L 439.023687 17.05375 
Q 439.023687 17.89375 439.863687 17.89375 
z
" style="fill: #ffffff; opacity: 0.85; stroke: #e91e63; stroke-width: 0.4; stroke-linejoin: miter"/>
    </g>
    <!-- 15 -->
    <g style="fill: #e91e63" transform="translate(439.863687 15.597969) scale(0.07 -0.07)">
     <use xlink:href="#DejaVuSans-Bold-31"/>
     <use xlink:href="#DejaVuSans-Bold-35" transform="translate(69.580078 0)"/>
    </g>
   </g>
   <g id="text_30">
    <g id="patch_20">
     <path d="M 442.662433 27.97375 
L 452.40337 27.97375 
Q 453.24337 27.97375 453.24337 27.13375 
L 453.24337 20.359063 
Q 453.24337 19.519063 452.40337 19.519063 
L 442.662433 19.519063 
Q 441.822433 19.519063 441.822433 20.359063 
L 441.822433 27.13375 
Q 441.822433 27.97375 442.662433 27.97375 
z
" style="fill: #ffffff; opacity: 0.85; stroke: #e91e63; stroke-width: 0.4; stroke-linejoin: miter"/>
    </g>
    <!-- 17 -->
    <g style="fill: #e91e63" transform="translate(442.662433 25.677969) scale(0.07 -0.07)">
     <use xlink:href="#DejaVuSans-Bold-31"/>
     <use xlink:href="#DejaVuSans-Bold-37" transform="translate(69.580078 0)"/>
    </g>
   </g>
   <g id="text_31">
    <g id="patch_21">
     <path d="M 444.061806 17.89375 
L 453.802743 17.89375 
Q 454.642743 17.89375 454.642743 17.05375 
L 454.642743 10.279063 
Q 454.642743 9.439063 453.802743 9.439063 
L 444.061806 9.439063 
Q 443.221806 9.439063 443.221806 10.279063 
L 443.221806 17.05375 
Q 443.221806 17.89375 444.061806 17.89375 
z
" style="fill: #ffffff; opacity: 0.85; stroke: #e91e63; stroke-width: 0.4; stroke-linejoin: miter"/>
    </g>
    <!-- 18 -->
    <g style="fill: #e91e63" transform="translate(444.061806 15.597969) scale(0.07 -0.07)">
     <use xlink:href="#DejaVuSans-Bold-31"/>
     <use xlink:href="#DejaVuSans-Bold-38" transform="translate(69.580078 0)"/>
    </g>
   </g>
   <g id="text_32">
    <g id="patch_22">
     <path d="M 446.860552 27.97375 
L 456.60149 27.97375 
Q 457.44149 27.97375 457.44149 27.13375 
L 457.44149 20.359063 
Q 457.44149 19.519063 456.60149 19.519063 
L 446.860552 19.519063 
Q 446.020552 19.519063 446.020552 20.359063 
L 446.020552 27.13375 
Q 446.020552 27.97375 446.860552 27.97375 
z
" style="fill: #ffffff; opacity: 0.85; stroke: #e91e63; stroke-width: 0.4; stroke-linejoin: miter"/>
    </g>
    <!-- 20 -->
    <g style="fill: #e91e63" transform="translate(446.860552 25.677969) scale(0.07 -0.07)">
     <use xlink:href="#DejaVuSans-Bold-32"/>
     <use xlink:href="#DejaVuSans-Bold-30" transform="translate(69.580078 0)"/>
    </g>
   </g>
   <g id="text_33">
    <g id="patch_23">
     <path d="M 448.259925 17.89375 
L 458.000863 17.89375 
Q 458.840863 17.89375 458.840863 17.05375 
L 458.840863 10.279063 
Q 458.840863 9.439063 458.000863 9.439063 
L 448.259925 9.439063 
Q 447.419925 9.439063 447.419925 10.279063 
L 447.419925 17.05375 
Q 447.419925 17.89375 448.259925 17.89375 
z
" style="fill: #ffffff; opacity: 0.85; stroke: #e91e63; stroke-width: 0.4; stroke-linejoin: miter"/>
    </g>
    <!-- 21 -->
    <g style="fill: #e91e63" transform="translate(448.259925 15.597969) scale(0.07 -0.07)">
     <use xlink:href="#DejaVuSans-Bold-32"/>
     <use xlink:href="#DejaVuSans-Bold-31" transform="translate(69.580078 0)"/>
    </g>
   </g>
   <g id="text_34">
    <g id="patch_24">
     <path d="M 451.058671 27.97375 
L 460.799609 27.97375 
Q 461.639609 27.97375 461.639609 27.13375 
L 461.639609 20.359063 
Q 461.639609 19.519063 460.799609 19.519063 
L 451.058671 19.519063 
Q 450.218671 19.519063 450.218671 20.359063 
L 450.218671 27.13375 
Q 450.218671 27.97375 451.058671 27.97375 
z
" style="fill: #ffffff; opacity: 0.85; stroke: #e91e63; stroke-width: 0.4; stroke-linejoin: miter"/>
    </g>
    <!-- 23 -->
    <g style="fill: #e91e63" transform="translate(451.058671 25.677969) scale(0.07 -0.07)">
     <use xlink:href="#DejaVuSans-Bold-32"/>
     <use xlink:href="#DejaVuSans-Bold-33" transform="translate(69.580078 0)"/>
    </g>
   </g>
   <g id="text_35">
    <g id="patch_25">
     <path d="M 452.458044 17.89375 
L 462.198982 17.89375 
Q 463.038982 17.89375 463.038982 17.05375 
L 463.038982 10.279063 
Q 463.038982 9.439063 462.198982 9.439063 
L 452.458044 9.439063 
Q 451.618044 9.439063 451.618044 10.279063 
L 451.618044 17.05375 
Q 451.618044 17.89375 452.458044 17.89375 
z
" style="fill: #ffffff; opacity: 0.85; stroke: #e91e63; stroke-width: 0.4; stroke-linejoin: miter"/>
    </g>
    <!-- 24 -->
    <g style="fill: #e91e63" transform="translate(452.458044 15.597969) scale(0.07 -0.07)">
     <use xlink:href="#DejaVuSans-Bold-32"/>
     <use xlink:href="#DejaVuSans-Bold-34" transform="translate(69.580078 0)"/>
    </g>
   </g>
   <g id="text_36">
    <g id="patch_26">
     <path d="M 455.25679 27.97375 
L 464.997728 27.97375 
Q 465.837728 27.97375 465.837728 27.13375 
L 465.837728 20.359063 
Q 465.837728 19.519063 464.997728 19.519063 
L 455.25679 19.519063 
Q 454.41679 19.519063 454.41679 20.359063 
L 454.41679 27.13375 
Q 454.41679 27.97375 455.25679 27.97375 
z
" style="fill: #ffffff; opacity: 0.85; stroke: #e91e63; stroke-width: 0.4; stroke-linejoin: miter"/>
    </g>
    <!-- 26 -->
    <g style="fill: #e91e63" transform="translate(455.25679 25.677969) scale(0.07 -0.07)">
     <use xlink:href="#DejaVuSans-Bold-32"/>
     <use xlink:href="#DejaVuSans-Bold-36" transform="translate(69.580078 0)"/>
    </g>
   </g>
   <g id="text_37">
    <g id="patch_27">
     <path d="M 456.656163 17.89375 
L 466.397101 17.89375 
Q 467.237101 17.89375 467.237101 17.05375 
L 467.237101 10.279063 
Q 467.237101 9.439063 466.397101 9.439063 
L 456.656163 9.439063 
Q 455.816163 9.439063 455.816163 10.279063 
L 455.816163 17.05375 
Q 455.816163 17.89375 456.656163 17.89375 
z
" style="fill: #ffffff; opacity: 0.85; stroke: #e91e63; stroke-width: 0.4; stroke-linejoin: miter"/>
    </g>
    <!-- 27 -->
    <g style="fill: #e91e63" transform="translate(456.656163 15.597969) scale(0.07 -0.07)">
     <use xlink:href="#DejaVuSans-Bold-32"/>
     <use xlink:href="#DejaVuSans-Bold-37" transform="translate(69.580078 0)"/>
    </g>
   </g>
   <g id="text_38">
    <g id="patch_28">
     <path d="M 460.854282 17.89375 
L 470.59522 17.89375 
Q 471.43522 17.89375 471.43522 17.05375 
L 471.43522 10.279063 
Q 471.43522 9.439063 470.59522 9.439063 
L 460.854282 9.439063 
Q 460.014282 9.439063 460.014282 10.279063 
L 460.014282 17.05375 
Q 460.014282 17.89375 460.854282 17.89375 
z
" style="fill: #ffffff; opacity: 0.85; stroke: #e91e63; stroke-width: 0.4; stroke-linejoin: miter"/>
    </g>
    <!-- 28 -->
    <g style="fill: #e91e63" transform="translate(460.854282 15.597969) scale(0.07 -0.07)">
     <use xlink:href="#DejaVuSans-Bold-32"/>
     <use xlink:href="#DejaVuSans-Bold-38" transform="translate(69.580078 0)"/>
    </g>
   </g>
   <g id="text_39">
    <g id="patch_29">
     <path d="M 463.653029 27.97375 
L 473.393966 27.97375 
Q 474.233966 27.97375 474.233966 27.13375 
L 474.233966 20.359063 
Q 474.233966 19.519063 473.393966 19.519063 
L 463.653029 19.519063 
Q 462.813029 19.519063 462.813029 20.359063 
L 462.813029 27.13375 
Q 462.813029 27.97375 463.653029 27.97375 
z
" style="fill: #ffffff; opacity: 0.85; stroke: #e91e63; stroke-width: 0.4; stroke-linejoin: miter"/>
    </g>
    <!-- 30 -->
    <g style="fill: #e91e63" transform="translate(463.653029 25.677969) scale(0.07 -0.07)">
     <use xlink:href="#DejaVuSans-Bold-33"/>
     <use xlink:href="#DejaVuSans-Bold-30" transform="translate(69.580078 0)"/>
    </g>
   </g>
   <g id="text_40">
    <g id="patch_30">
     <path d="M 465.052402 17.89375 
L 474.793339 17.89375 
Q 475.633339 17.89375 475.633339 17.05375 
L 475.633339 10.279063 
Q 475.633339 9.439063 474.793339 9.439063 
L 465.052402 9.439063 
Q 464.212402 9.439063 464.212402 10.279063 
L 464.212402 17.05375 
Q 464.212402 17.89375 465.052402 17.89375 
z
" style="fill: #ffffff; opacity: 0.85; stroke: #e91e63; stroke-width: 0.4; stroke-linejoin: miter"/>
    </g>
    <!-- 31 -->
    <g style="fill: #e91e63" transform="translate(465.052402 15.597969) scale(0.07 -0.07)">
     <use xlink:href="#DejaVuSans-Bold-33"/>
     <use xlink:href="#DejaVuSans-Bold-31" transform="translate(69.580078 0)"/>
    </g>
   </g>
   <g id="text_41">
    <g id="patch_31">
     <path d="M 467.851148 27.97375 
L 477.592085 27.97375 
Q 478.432085 27.97375 478.432085 27.13375 
L 478.432085 20.359063 
Q 478.432085 19.519063 477.592085 19.519063 
L 467.851148 19.519063 
Q 467.011148 19.519063 467.011148 20.359063 
L 467.011148 27.13375 
Q 467.011148 27.97375 467.851148 27.97375 
z
" style="fill: #ffffff; opacity: 0.85; stroke: #e91e63; stroke-width: 0.4; stroke-linejoin: miter"/>
    </g>
    <!-- 33 -->
    <g style="fill: #e91e63" transform="translate(467.851148 25.677969) scale(0.07 -0.07)">
     <use xlink:href="#DejaVuSans-Bold-33"/>
     <use xlink:href="#DejaVuSans-Bold-33" transform="translate(69.580078 0)"/>
    </g>
   </g>
   <g id="text_42">
    <g id="patch_32">
     <path d="M 469.250521 17.89375 
L 478.991458 17.89375 
Q 479.831458 17.89375 479.831458 17.05375 
L 479.831458 10.279063 
Q 479.831458 9.439063 478.991458 9.439063 
L 469.250521 9.439063 
Q 468.410521 9.439063 468.410521 10.279063 
L 468.410521 17.05375 
Q 468.410521 17.89375 469.250521 17.89375 
z
" style="fill: #ffffff; opacity: 0.85; stroke: #e91e63; stroke-width: 0.4; stroke-linejoin: miter"/>
    </g>
    <!-- 34 -->
    <g style="fill: #e91e63" transform="translate(469.250521 15.597969) scale(0.07 -0.07)">
     <use xlink:href="#DejaVuSans-Bold-33"/>
     <use xlink:href="#DejaVuSans-Bold-34" transform="translate(69.580078 0)"/>
    </g>
   </g>
   <g id="text_43">
    <g id="patch_33">
     <path d="M 473.44864 17.89375 
L 483.189577 17.89375 
Q 484.029577 17.89375 484.029577 17.05375 
L 484.029577 10.279063 
Q 484.029577 9.439063 483.189577 9.439063 
L 473.44864 9.439063 
Q 472.60864 9.439063 472.60864 10.279063 
L 472.60864 17.05375 
Q 472.60864 17.89375 473.44864 17.89375 
z
" style="fill: #ffffff; opacity: 0.85; stroke: #e91e63; stroke-width: 0.4; stroke-linejoin: miter"/>
    </g>
    <!-- 35 -->
    <g style="fill: #e91e63" transform="translate(473.44864 15.597969) scale(0.07 -0.07)">
     <use xlink:href="#DejaVuSans-Bold-33"/>
     <use xlink:href="#DejaVuSans-Bold-35" transform="translate(69.580078 0)"/>
    </g>
   </g>
   <g id="text_44">
    <g id="patch_34">
     <path d="M 476.247386 27.97375 
L 485.988323 27.97375 
Q 486.828323 27.97375 486.828323 27.13375 
L 486.828323 20.359063 
Q 486.828323 19.519063 485.988323 19.519063 
L 476.247386 19.519063 
Q 475.407386 19.519063 475.407386 20.359063 
L 475.407386 27.13375 
Q 475.407386 27.97375 476.247386 27.97375 
z
" style="fill: #ffffff; opacity: 0.85; stroke: #e91e63; stroke-width: 0.4; stroke-linejoin: miter"/>
    </g>
    <!-- 37 -->
    <g style="fill: #e91e63" transform="translate(476.247386 25.677969) scale(0.07 -0.07)">
     <use xlink:href="#DejaVuSans-Bold-33"/>
     <use xlink:href="#DejaVuSans-Bold-37" transform="translate(69.580078 0)"/>
    </g>
   </g>
   <g id="patch_35">
    <path d="M 86.795069 286.622457 
Q 288.004852 161.677673 488.264826 37.322689 
" style="fill: none; opacity: 0.35; stroke: #795548; stroke-linecap: round"/>
    <path d="M 483.811622 37.733754 
L 488.264826 37.322689 
L 485.921756 41.131891 
" style="fill: none; opacity: 0.35; stroke: #795548; stroke-linecap: round"/>
   </g>
   <g id="patch_36">
    <path d="M 488.916451 35.677969 
Q 389.461356 35.677969 291.124295 35.677969 
" style="fill: none; opacity: 0.35; stroke: #795548; stroke-linecap: round"/>
    <path d="M 295.124295 37.677969 
L 291.124295 35.677969 
L 295.124295 33.677969 
" style="fill: none; opacity: 0.35; stroke: #795548; stroke-linecap: round"/>
   </g>
   <g id="patch_37">
    <path d="M 290.006066 35.677969 
Q 338.383606 35.677969 385.643112 35.677969 
" style="fill: none; opacity: 0.35; stroke: #4caf50; stroke-linecap: round"/>
    <path d="M 381.643112 33.677969 
L 385.643112 35.677969 
L 381.643112 37.677969 
" style="fill: none; opacity: 0.35; stroke: #4caf50; stroke-linecap: round"/>
   </g>
   <g id="patch_38">
    <path d="M 390.760925 35.677969 
Q 413.949332 35.677969 436.019705 35.677969 
" style="fill: none; opacity: 0.35; stroke: #4caf50; stroke-linecap: round"/>
    <path d="M 432.019705 33.677969 
L 436.019705 35.677969 
L 432.019705 37.677969 
" style="fill: none; opacity: 0.35; stroke: #4caf50; stroke-linecap: round"/>
   </g>
   <g id="patch_39">
    <path d="M 441.138354 35.677969 
Q 451.731303 35.677969 461.206218 35.677969 
" style="fill: none; opacity: 0.35; stroke: #4caf50; stroke-linecap: round"/>
    <path d="M 457.206218 33.677969 
L 461.206218 35.677969 
L 457.206218 37.677969 
" style="fill: none; opacity: 0.35; stroke: #4caf50; stroke-linecap: round"/>
   </g>
   <g id="patch_40">
    <path d="M 466.327069 35.677969 
Q 470.623875 35.677969 473.802646 35.677969 
" style="fill: none; opacity: 0.35; stroke: #4caf50; stroke-linecap: round"/>
    <path d="M 469.802646 33.677969 
L 473.802646 35.677969 
L 469.802646 37.677969 
" style="fill: none; opacity: 0.35; stroke: #4caf50; stroke-linecap: round"/>
   </g>
   <g id="patch_41">
    <path d="M 478.918352 35.677969 
Q 480.419291 35.677969 480.802196 35.677969 
" style="fill: none; opacity: 0.35; stroke: #4caf50; stroke-linecap: round"/>
    <path d="M 476.802196 33.677969 
L 480.802196 35.677969 
L 476.802196 37.677969 
" style="fill: none; opacity: 0.35; stroke: #4caf50; stroke-linecap: round"/>
   </g>
   <g id="patch_42">
    <path d="M 485.914534 35.677969 
Q 486.31494 35.677969 485.597313 35.677969 
" style="fill: none; opacity: 0.35; stroke: #4caf50; stroke-linecap: round"/>
    <path d="M 481.597313 33.677969 
L 485.597313 35.677969 
L 481.597313 37.677969 
" style="fill: none; opacity: 0.35; stroke: #4caf50; stroke-linecap: round"/>
   </g>
   <g id="patch_43">
    <path d="M 486.715347 35.677969 
Q 487.415033 35.677969 486.996686 35.677969 
" style="fill: none; opacity: 0.35; stroke: #4caf50; stroke-linecap: round"/>
    <path d="M 482.996686 33.677969 
L 486.996686 35.677969 
L 482.996686 37.677969 
" style="fill: none; opacity: 0.35; stroke: #4caf50; stroke-linecap: round"/>
   </g>
   <g id="patch_44">
    <path d="M 488.11472 35.677969 
Q 488.814406 35.677969 488.396059 35.677969 
" style="fill: none; opacity: 0.35; stroke: #4caf50; stroke-linecap: round"/>
    <path d="M 484.396059 33.677969 
L 488.396059 35.677969 
L 484.396059 37.677969 
" style="fill: none; opacity: 0.35; stroke: #4caf50; stroke-linecap: round"/>
   </g>
   <g id="patch_45">
    <path d="M 487.514195 35.677969 
Q 465.024377 35.677969 443.652592 35.677969 
" style="fill: none; opacity: 0.35; stroke: #4caf50; stroke-linecap: round"/>
    <path d="M 447.652592 37.677969 
L 443.652592 35.677969 
L 447.652592 33.677969 
" style="fill: none; opacity: 0.35; stroke: #4caf50; stroke-linecap: round"/>
   </g>
   <g id="patch_46">
    <path d="M 440.536036 35.677969 
Q 441.235723 35.677969 440.817375 35.677969 
" style="fill: none; opacity: 0.35; stroke: #e91e63; stroke-linecap: round"/>
    <path d="M 436.817375 33.677969 
L 440.817375 35.677969 
L 436.817375 37.677969 
" style="fill: none; opacity: 0.35; stroke: #e91e63; stroke-linecap: round"/>
   </g>
   <g id="patch_47">
    <path d="M 441.935409 35.677969 
Q 442.635096 35.677969 442.216749 35.677969 
" style="fill: none; opacity: 0.35; stroke: #e91e63; stroke-linecap: round"/>
    <path d="M 438.216749 33.677969 
L 442.216749 35.677969 
L 438.216749 37.677969 
" style="fill: none; opacity: 0.35; stroke: #e91e63; stroke-linecap: round"/>
   </g>
   <g id="patch_48">
    <path d="M 443.334783 35.677969 
Q 444.034469 35.677969 443.616122 35.677969 
" style="fill: none; opacity: 0.35; stroke: #e91e63; stroke-linecap: round"/>
    <path d="M 439.616122 33.677969 
L 443.616122 35.677969 
L 439.616122 37.677969 
" style="fill: none; opacity: 0.35; stroke: #e91e63; stroke-linecap: round"/>
   </g>
   <g id="patch_49">
    <path d="M 444.734156 35.677969 
Q 445.433842 35.677969 445.015495 35.677969 
" style="fill: none; opacity: 0.35; stroke: #e91e63; stroke-linecap: round"/>
    <path d="M 441.015495 33.677969 
L 445.015495 35.677969 
L 441.015495 37.677969 
" style="fill: none; opacity: 0.35; stroke: #e91e63; stroke-linecap: round"/>
   </g>
   <g id="patch_50">
    <path d="M 446.133529 35.677969 
Q 446.833215 35.677969 446.414868 35.677969 
" style="fill: none; opacity: 0.35; stroke: #e91e63; stroke-linecap: round"/>
    <path d="M 442.414868 33.677969 
L 446.414868 35.677969 
L 442.414868 37.677969 
" style="fill: none; opacity: 0.35; stroke: #e91e63; stroke-linecap: round"/>
   </g>
   <g id="patch_51">
    <path d="M 447.532902 35.677969 
Q 448.232588 35.677969 447.814241 35.677969 
" style="fill: none; opacity: 0.35; stroke: #e91e63; stroke-linecap: round"/>
    <path d="M 443.814241 33.677969 
L 447.814241 35.677969 
L 443.814241 37.677969 
" style="fill: none; opacity: 0.35; stroke: #e91e63; stroke-linecap: round"/>
   </g>
   <g id="patch_52">
    <path d="M 448.932275 35.677969 
Q 449.631961 35.677969 449.213614 35.677969 
" style="fill: none; opacity: 0.35; stroke: #e91e63; stroke-linecap: round"/>
    <path d="M 445.213614 33.677969 
L 449.213614 35.677969 
L 445.213614 37.677969 
" style="fill: none; opacity: 0.35; stroke: #e91e63; stroke-linecap: round"/>
   </g>
   <g id="patch_53">
    <path d="M 450.331648 35.677969 
Q 451.031334 35.677969 450.612987 35.677969 
" style="fill: none; opacity: 0.35; stroke: #e91e63; stroke-linecap: round"/>
    <path d="M 446.612987 33.677969 
L 450.612987 35.677969 
L 446.612987 37.677969 
" style="fill: none; opacity: 0.35; stroke: #e91e63; stroke-linecap: round"/>
   </g>
   <g id="patch_54">
    <path d="M 451.731021 35.677969 
Q 452.430707 35.677969 452.01236 35.677969 
" style="fill: none; opacity: 0.35; stroke: #e91e63; stroke-linecap: round"/>
    <path d="M 448.01236 33.677969 
L 452.01236 35.677969 
L 448.01236 37.677969 
" style="fill: none; opacity: 0.35; stroke: #e91e63; stroke-linecap: round"/>
   </g>
   <g id="patch_55">
    <path d="M 453.130394 35.677969 
Q 453.83008 35.677969 453.411733 35.677969 
" style="fill: none; opacity: 0.35; stroke: #e91e63; stroke-linecap: round"/>
    <path d="M 449.411733 33.677969 
L 453.411733 35.677969 
L 449.411733 37.677969 
" style="fill: none; opacity: 0.35; stroke: #e91e63; stroke-linecap: round"/>
   </g>
   <g id="patch_56">
    <path d="M 454.529767 35.677969 
Q 455.229453 35.677969 454.811106 35.677969 
" style="fill: none; opacity: 0.35; stroke: #e91e63; stroke-linecap: round"/>
    <path d="M 450.811106 33.677969 
L 454.811106 35.677969 
L 450.811106 37.677969 
" style="fill: none; opacity: 0.35; stroke: #e91e63; stroke-linecap: round"/>
   </g>
   <g id="patch_57">
    <path d="M 455.92914 35.677969 
Q 456.628826 35.677969 456.210479 35.677969 
" style="fill: none; opacity: 0.35; stroke: #e91e63; stroke-linecap: round"/>
    <path d="M 452.210479 33.677969 
L 456.210479 35.677969 
L 452.210479 37.677969 
" style="fill: none; opacity: 0.35; stroke: #e91e63; stroke-linecap: round"/>
   </g>
   <g id="patch_58">
    <path d="M 457.328513 35.677969 
Q 458.028199 35.677969 457.609852 35.677969 
" style="fill: none; opacity: 0.35; stroke: #e91e63; stroke-linecap: round"/>
    <path d="M 453.609852 33.677969 
L 457.609852 35.677969 
L 453.609852 37.677969 
" style="fill: none; opacity: 0.35; stroke: #e91e63; stroke-linecap: round"/>
   </g>
   <g id="patch_59">
    <path d="M 458.727886 35.677969 
Q 459.427572 35.677969 459.009225 35.677969 
" style="fill: none; opacity: 0.35; stroke: #e91e63; stroke-linecap: round"/>
    <path d="M 455.009225 33.677969 
L 459.009225 35.677969 
L 455.009225 37.677969 
" style="fill: none; opacity: 0.35; stroke: #e91e63; stroke-linecap: round"/>
   </g>
   <g id="patch_60">
    <path d="M 460.127259 35.677969 
Q 460.826946 35.677969 460.408598 35.677969 
" style="fill: none; opacity: 0.35; stroke: #e91e63; stroke-linecap: round"/>
    <path d="M 456.408598 33.677969 
L 460.408598 35.677969 
L 456.408598 37.677969 
" style="fill: none; opacity: 0.35; stroke: #e91e63; stroke-linecap: round"/>
   </g>
   <g id="patch_61">
    <path d="M 463.523198 35.677969 
Q 463.624246 35.677969 462.60726 35.677969 
" style="fill: none; opacity: 0.35; stroke: #e91e63; stroke-linecap: round"/>
    <path d="M 458.60726 33.677969 
L 462.60726 35.677969 
L 458.60726 37.677969 
" style="fill: none; opacity: 0.35; stroke: #e91e63; stroke-linecap: round"/>
   </g>
   <g id="patch_62">
    <path d="M 465.724751 35.677969 
Q 466.424438 35.677969 466.00609 35.677969 
" style="fill: none; opacity: 0.35; stroke: #e91e63; stroke-linecap: round"/>
    <path d="M 462.00609 33.677969 
L 466.00609 35.677969 
L 462.00609 37.677969 
" style="fill: none; opacity: 0.35; stroke: #e91e63; stroke-linecap: round"/>
   </g>
   <g id="patch_63">
    <path d="M 467.124124 35.677969 
Q 467.823811 35.677969 467.405463 35.677969 
" style="fill: none; opacity: 0.35; stroke: #e91e63; stroke-linecap: round"/>
    <path d="M 463.405463 33.677969 
L 467.405463 35.677969 
L 463.405463 37.677969 
" style="fill: none; opacity: 0.35; stroke: #e91e63; stroke-linecap: round"/>
   </g>
   <g id="patch_64">
    <path d="M 468.523497 35.677969 
Q 469.223184 35.677969 468.804836 35.677969 
" style="fill: none; opacity: 0.35; stroke: #e91e63; stroke-linecap: round"/>
    <path d="M 464.804836 33.677969 
L 468.804836 35.677969 
L 464.804836 37.677969 
" style="fill: none; opacity: 0.35; stroke: #e91e63; stroke-linecap: round"/>
   </g>
   <g id="patch_65">
    <path d="M 469.92287 35.677969 
Q 470.622557 35.677969 470.204209 35.677969 
" style="fill: none; opacity: 0.35; stroke: #e91e63; stroke-linecap: round"/>
    <path d="M 466.204209 33.677969 
L 470.204209 35.677969 
L 466.204209 37.677969 
" style="fill: none; opacity: 0.35; stroke: #e91e63; stroke-linecap: round"/>
   </g>
   <g id="patch_66">
    <path d="M 471.322243 35.677969 
Q 472.02193 35.677969 471.603582 35.677969 
" style="fill: none; opacity: 0.35; stroke: #e91e63; stroke-linecap: round"/>
    <path d="M 467.603582 33.677969 
L 471.603582 35.677969 
L 467.603582 37.677969 
" style="fill: none; opacity: 0.35; stroke: #e91e63; stroke-linecap: round"/>
   </g>
   <g id="patch_67">
    <path d="M 472.721616 35.677969 
Q 473.421303 35.677969 473.002955 35.677969 
" style="fill: none; opacity: 0.35; stroke: #e91e63; stroke-linecap: round"/>
    <path d="M 469.002955 33.677969 
L 473.002955 35.677969 
L 469.002955 37.677969 
" style="fill: none; opacity: 0.35; stroke: #e91e63; stroke-linecap: round"/>
   </g>
   <g id="patch_68">
    <path d="M 476.117556 35.677969 
Q 476.218604 35.677969 475.201618 35.677969 
" style="fill: none; opacity: 0.35; stroke: #e91e63; stroke-linecap: round"/>
    <path d="M 471.201618 33.677969 
L 475.201618 35.677969 
L 471.201618 37.677969 
" style="fill: none; opacity: 0.35; stroke: #e91e63; stroke-linecap: round"/>
   </g>
   <g id="patch_69">
    <path d="M 478.319109 35.677969 
Q 479.018795 35.677969 478.600448 35.677969 
" style="fill: none; opacity: 0.35; stroke: #e91e63; stroke-linecap: round"/>
    <path d="M 474.600448 33.677969 
L 478.600448 35.677969 
L 474.600448 37.677969 
" style="fill: none; opacity: 0.35; stroke: #e91e63; stroke-linecap: round"/>
   </g>
   <g id="patch_70">
    <path d="M 479.718482 35.677969 
Q 480.418168 35.677969 479.999821 35.677969 
" style="fill: none; opacity: 0.35; stroke: #e91e63; stroke-linecap: round"/>
    <path d="M 475.999821 33.677969 
L 479.999821 35.677969 
L 475.999821 37.677969 
" style="fill: none; opacity: 0.35; stroke: #e91e63; stroke-linecap: round"/>
   </g>
   <g id="text_45">
    <!-- sklearn: Random Forest Tree Count on Wine (5-fold CV) -->
    <g transform="translate(108.947656 17.077969) scale(0.13 -0.13)">
     <defs>
      <path id="DejaVuSans-6b" d="M 581 4863 
L 1159 4863 
L 1159 1991 
L 2875 3500 
L 3609 3500 
L 1753 1863 
L 3688 0 
L 2938 0 
L 1159 1709 
L 1159 0 
L 581 0 
L 581 4863 
z
" transform="scale(0.015625)"/>
      <path id="DejaVuSans-6c" d="M 603 4863 
L 1178 4863 
L 1178 0 
L 603 0 
L 603 4863 
z
" transform="scale(0.015625)"/>
      <path id="DejaVuSans-6e" d="M 3513 2113 
L 3513 0 
L 2938 0 
L 2938 2094 
Q 2938 2591 2744 2837 
Q 2550 3084 2163 3084 
Q 1697 3084 1428 2787 
Q 1159 2491 1159 1978 
L 1159 0 
L 581 0 
L 581 3500 
L 1159 3500 
L 1159 2956 
Q 1366 3272 1645 3428 
Q 1925 3584 2291 3584 
Q 2894 3584 3203 3211 
Q 3513 2838 3513 2113 
z
" transform="scale(0.015625)"/>
      <path id="DejaVuSans-3a" d="M 750 794 
L 1409 794 
L 1409 0 
L 750 0 
L 750 794 
z
M 750 3309 
L 1409 3309 
L 1409 2516 
L 750 2516 
L 750 3309 
z
" transform="scale(0.015625)"/>
      <path id="DejaVuSans-52" d="M 2841 2188 
Q 3044 2119 3236 1894 
Q 3428 1669 3622 1275 
L 4263 0 
L 3584 0 
L 2988 1197 
Q 2756 1666 2539 1819 
Q 2322 1972 1947 1972 
L 1259 1972 
L 1259 0 
L 628 0 
L 628 4666 
L 2053 4666 
Q 2853 4666 3247 4331 
Q 3641 3997 3641 3322 
Q 3641 2881 3436 2590 
Q 3231 2300 2841 2188 
z
M 1259 4147 
L 1259 2491 
L 2053 2491 
Q 2509 2491 2742 2702 
Q 2975 2913 2975 3322 
Q 2975 3731 2742 3939 
Q 2509 4147 2053 4147 
L 1259 4147 
z
" transform="scale(0.015625)"/>
      <path id="DejaVuSans-64" d="M 2906 2969 
L 2906 4863 
L 3481 4863 
L 3481 0 
L 2906 0 
L 2906 525 
Q 2725 213 2448 61 
Q 2172 -91 1784 -91 
Q 1150 -91 751 415 
Q 353 922 353 1747 
Q 353 2572 751 3078 
Q 1150 3584 1784 3584 
Q 2172 3584 2448 3432 
Q 2725 3281 2906 2969 
z
M 947 1747 
Q 947 1113 1208 752 
Q 1469 391 1925 391 
Q 2381 391 2643 752 
Q 2906 1113 2906 1747 
Q 2906 2381 2643 2742 
Q 2381 3103 1925 3103 
Q 1469 3103 1208 2742 
Q 947 2381 947 1747 
z
" transform="scale(0.015625)"/>
      <path id="DejaVuSans-46" d="M 628 4666 
L 3309 4666 
L 3309 4134 
L 1259 4134 
L 1259 2759 
L 3109 2759 
L 3109 2228 
L 1259 2228 
L 1259 0 
L 628 0 
L 628 4666 
z
" transform="scale(0.015625)"/>
      <path id="DejaVuSans-54" d="M -19 4666 
L 3928 4666 
L 3928 4134 
L 2272 4134 
L 2272 0 
L 1638 0 
L 1638 4134 
L -19 4134 
L -19 4666 
z
" transform="scale(0.015625)"/>
      <path id="DejaVuSans-57" d="M 213 4666 
L 850 4666 
L 1831 722 
L 2809 4666 
L 3519 4666 
L 4500 722 
L 5478 4666 
L 6119 4666 
L 4947 0 
L 4153 0 
L 3169 4050 
L 2175 0 
L 1381 0 
L 213 4666 
z
" transform="scale(0.015625)"/>
      <path id="DejaVuSans-69" d="M 603 3500 
L 1178 3500 
L 1178 0 
L 603 0 
L 603 3500 
z
M 603 4863 
L 1178 4863 
L 1178 4134 
L 603 4134 
L 603 4863 
z
" transform="scale(0.015625)"/>
      <path id="DejaVuSans-28" d="M 1984 4856 
Q 1566 4138 1362 3434 
Q 1159 2731 1159 2009 
Q 1159 1288 1364 580 
Q 1569 -128 1984 -844 
L 1484 -844 
Q 1016 -109 783 600 
Q 550 1309 550 2009 
Q 550 2706 781 3412 
Q 1013 4119 1484 4856 
L 1984 4856 
z
" transform="scale(0.015625)"/>
      <path id="DejaVuSans-2d" d="M 313 2009 
L 1997 2009 
L 1997 1497 
L 313 1497 
L 313 2009 
z
" transform="scale(0.015625)"/>
      <path id="DejaVuSans-29" d="M 513 4856 
L 1013 4856 
Q 1481 4119 1714 3412 
Q 1947 2706 1947 2009 
Q 1947 1309 1714 600 
Q 1481 -109 1013 -844 
L 513 -844 
Q 928 -128 1133 580 
Q 1338 1288 1338 2009 
Q 1338 2731 1133 3434 
Q 928 4138 513 4856 
z
" transform="scale(0.015625)"/>
     </defs>
     <use xlink:href="#DejaVuSans-73"/>
     <use xlink:href="#DejaVuSans-6b" transform="translate(52.099609 0)"/>
     <use xlink:href="#DejaVuSans-6c" transform="translate(110.009766 0)"/>
     <use xlink:href="#DejaVuSans-65" transform="translate(137.792969 0)"/>
     <use xlink:href="#DejaVuSans-61" transform="translate(199.316406 0)"/>
     <use xlink:href="#DejaVuSans-72" transform="translate(260.595703 0)"/>
     <use xlink:href="#DejaVuSans-6e" transform="translate(299.958984 0)"/>
     <use xlink:href="#DejaVuSans-3a" transform="translate(363.337891 0)"/>
     <use xlink:href="#DejaVuSans-20" transform="translate(397.029297 0)"/>
     <use xlink:href="#DejaVuSans-52" transform="translate(428.816406 0)"/>
     <use xlink:href="#DejaVuSans-61" transform="translate(496.048828 0)"/>
     <use xlink:href="#DejaVuSans-6e" transform="translate(557.328125 0)"/>
     <use xlink:href="#DejaVuSans-64" transform="translate(620.707031 0)"/>
     <use xlink:href="#DejaVuSans-6f" transform="translate(684.183594 0)"/>
     <use xlink:href="#DejaVuSans-6d" transform="translate(745.365234 0)"/>
     <use xlink:href="#DejaVuSans-20" transform="translate(842.777344 0)"/>
     <use xlink:href="#DejaVuSans-46" transform="translate(874.564453 0)"/>
     <use xlink:href="#DejaVuSans-6f" transform="translate(928.458984 0)"/>
     <use xlink:href="#DejaVuSans-72" transform="translate(989.640625 0)"/>
     <use xlink:href="#DejaVuSans-65" transform="translate(1028.503906 0)"/>
     <use xlink:href="#DejaVuSans-73" transform="translate(1090.027344 0)"/>
     <use xlink:href="#DejaVuSans-74" transform="translate(1142.126953 0)"/>
     <use xlink:href="#DejaVuSans-20" transform="translate(1181.335938 0)"/>
     <use xlink:href="#DejaVuSans-54" transform="translate(1213.123047 0)"/>
     <use xlink:href="#DejaVuSans-72" transform="translate(1259.457031 0)"/>
     <use xlink:href="#DejaVuSans-65" transform="translate(1298.320312 0)"/>
     <use xlink:href="#DejaVuSans-65" transform="translate(1359.84375 0)"/>
     <use xlink:href="#DejaVuSans-20" transform="translate(1421.367188 0)"/>
     <use xlink:href="#DejaVuSans-43" transform="translate(1453.154297 0)"/>
     <use xlink:href="#DejaVuSans-6f" transform="translate(1522.978516 0)"/>
     <use xlink:href="#DejaVuSans-75" transform="translate(1584.160156 0)"/>
     <use xlink:href="#DejaVuSans-6e" transform="translate(1647.539062 0)"/>
     <use xlink:href="#DejaVuSans-74" transform="translate(1710.917969 0)"/>
     <use xlink:href="#DejaVuSans-20" transform="translate(1750.126953 0)"/>
     <use xlink:href="#DejaVuSans-6f" transform="translate(1781.914062 0)"/>
     <use xlink:href="#DejaVuSans-6e" transform="translate(1843.095703 0)"/>
     <use xlink:href="#DejaVuSans-20" transform="translate(1906.474609 0)"/>
     <use xlink:href="#DejaVuSans-57" transform="translate(1938.261719 0)"/>
     <use xlink:href="#DejaVuSans-69" transform="translate(2034.888672 0)"/>
     <use xlink:href="#DejaVuSans-6e" transform="translate(2062.671875 0)"/>
     <use xlink:href="#DejaVuSans-65" transform="translate(2126.050781 0)"/>
     <use xlink:href="#DejaVuSans-20" transform="translate(2187.574219 0)"/>
     <use xlink:href="#DejaVuSans-28" transform="translate(2219.361328 0)"/>
     <use xlink:href="#DejaVuSans-35" transform="translate(2258.375 0)"/>
     <use xlink:href="#DejaVuSans-2d" transform="translate(2321.998047 0)"/>
     <use xlink:href="#DejaVuSans-66" transform="translate(2358.082031 0)"/>
     <use xlink:href="#DejaVuSans-6f" transform="translate(2393.287109 0)"/>
     <use xlink:href="#DejaVuSans-6c" transform="translate(2454.46875 0)"/>
     <use xlink:href="#DejaVuSans-64" transform="translate(2482.251953 0)"/>
     <use xlink:href="#DejaVuSans-20" transform="translate(2545.728516 0)"/>
     <use xlink:href="#DejaVuSans-43" transform="translate(2577.515625 0)"/>
     <use xlink:href="#DejaVuSans-56" transform="translate(2647.339844 0)"/>
     <use xlink:href="#DejaVuSans-29" transform="translate(2715.748047 0)"/>
    </g>
   </g>
   <g id="line2d_31">
    <defs>
     <path id="m209cb3be75" d="M 0 3.5 
C 0.928211 3.5 1.81853 3.131218 2.474874 2.474874 
C 3.131218 1.81853 3.5 0.928211 3.5 0 
C 3.5 -0.928211 3.131218 -1.81853 2.474874 -2.474874 
C 1.81853 -3.131218 0.928211 -3.5 0 -3.5 
C -0.928211 -3.5 -1.81853 -3.131218 -2.474874 -2.474874 
C -3.131218 -1.81853 -3.5 -0.928211 -3.5 0 
C -3.5 0.928211 -3.131218 1.81853 -2.474874 2.474874 
C -1.81853 3.131218 -0.928211 3.5 0 3.5 
z
" style="stroke: #795548"/>
    </defs>
    <g clip-path="url(#pc063bc9284)">
     <use xlink:href="#m209cb3be75" x="85.095284" y="287.677969" style="fill: #795548; stroke: #795548"/>
    </g>
   </g>
   <g id="line2d_32">
    <g clip-path="url(#pc063bc9284)">
     <use xlink:href="#m209cb3be75" x="490.913466" y="35.677969" style="fill: #795548; stroke: #795548"/>
    </g>
   </g>
   <g id="line2d_33">
    <defs>
     <path id="m0a8a3aecab" d="M 0 3.5 
C 0.928211 3.5 1.81853 3.131218 2.474874 2.474874 
C 3.131218 1.81853 3.5 0.928211 3.5 0 
C 3.5 -0.928211 3.131218 -1.81853 2.474874 -2.474874 
C 1.81853 -3.131218 0.928211 -3.5 0 -3.5 
C -0.928211 -3.5 -1.81853 -3.131218 -2.474874 -2.474874 
C -3.131218 -1.81853 -3.5 -0.928211 -3.5 0 
C -3.5 0.928211 -3.131218 1.81853 -2.474874 2.474874 
C -1.81853 3.131218 -0.928211 3.5 0 3.5 
z
" style="stroke: #4caf50"/>
    </defs>
    <g clip-path="url(#pc063bc9284)">
     <use xlink:href="#m0a8a3aecab" x="288.004375" y="35.677969" style="fill: #4caf50; stroke: #4caf50"/>
    </g>
   </g>
   <g id="line2d_34">
    <g clip-path="url(#pc063bc9284)">
     <use xlink:href="#m0a8a3aecab" x="388.759234" y="35.677969" style="fill: #4caf50; stroke: #4caf50"/>
    </g>
   </g>
   <g id="line2d_35">
    <g clip-path="url(#pc063bc9284)">
     <use xlink:href="#m0a8a3aecab" x="439.136663" y="35.677969" style="fill: #4caf50; stroke: #4caf50"/>
    </g>
   </g>
   <g id="line2d_36">
    <g clip-path="url(#pc063bc9284)">
     <use xlink:href="#m0a8a3aecab" x="464.325378" y="35.677969" style="fill: #4caf50; stroke: #4caf50"/>
    </g>
   </g>
   <g id="line2d_37">
    <g clip-path="url(#pc063bc9284)">
     <use xlink:href="#m0a8a3aecab" x="476.919736" y="35.677969" style="fill: #4caf50; stroke: #4caf50"/>
    </g>
   </g>
   <g id="line2d_38">
    <g clip-path="url(#pc063bc9284)">
     <use xlink:href="#m0a8a3aecab" x="483.916601" y="35.677969" style="fill: #4caf50; stroke: #4caf50"/>
    </g>
   </g>
   <g id="line2d_39">
    <g clip-path="url(#pc063bc9284)">
     <use xlink:href="#m0a8a3aecab" x="486.715347" y="35.677969" style="fill: #4caf50; stroke: #4caf50"/>
    </g>
   </g>
   <g id="line2d_40">
    <g clip-path="url(#pc063bc9284)">
     <use xlink:href="#m0a8a3aecab" x="488.11472" y="35.677969" style="fill: #4caf50; stroke: #4caf50"/>
    </g>
   </g>
   <g id="line2d_41">
    <g clip-path="url(#pc063bc9284)">
     <use xlink:href="#m0a8a3aecab" x="489.514093" y="35.677969" style="fill: #4caf50; stroke: #4caf50"/>
    </g>
   </g>
   <g id="line2d_42">
    <defs>
     <path id="m170f097732" d="M 0 3.5 
C 0.928211 3.5 1.81853 3.131218 2.474874 2.474874 
C 3.131218 1.81853 3.5 0.928211 3.5 0 
C 3.5 -0.928211 3.131218 -1.81853 2.474874 -2.474874 
C 1.81853 -3.131218 0.928211 -3.5 0 -3.5 
C -0.928211 -3.5 -1.81853 -3.131218 -2.474874 -2.474874 
C -3.131218 -1.81853 -3.5 -0.928211 -3.5 0 
C -3.5 0.928211 -3.131218 1.81853 -2.474874 2.474874 
C -1.81853 3.131218 -0.928211 3.5 0 3.5 
z
" style="stroke: #e91e63"/>
    </defs>
    <g clip-path="url(#pc063bc9284)">
     <use xlink:href="#m170f097732" x="440.536036" y="35.677969" style="fill: #e91e63; stroke: #e91e63"/>
    </g>
   </g>
   <g id="line2d_43">
    <g clip-path="url(#pc063bc9284)">
     <use xlink:href="#m170f097732" x="441.935409" y="35.677969" style="fill: #e91e63; stroke: #e91e63"/>
    </g>
   </g>
   <g id="line2d_44">
    <g clip-path="url(#pc063bc9284)">
     <use xlink:href="#m170f097732" x="443.334783" y="35.677969" style="fill: #e91e63; stroke: #e91e63"/>
    </g>
   </g>
   <g id="line2d_45">
    <g clip-path="url(#pc063bc9284)">
     <use xlink:href="#m170f097732" x="444.734156" y="35.677969" style="fill: #e91e63; stroke: #e91e63"/>
    </g>
   </g>
   <g id="line2d_46">
    <g clip-path="url(#pc063bc9284)">
     <use xlink:href="#m170f097732" x="446.133529" y="35.677969" style="fill: #e91e63; stroke: #e91e63"/>
    </g>
   </g>
   <g id="line2d_47">
    <g clip-path="url(#pc063bc9284)">
     <use xlink:href="#m170f097732" x="447.532902" y="35.677969" style="fill: #e91e63; stroke: #e91e63"/>
    </g>
   </g>
   <g id="line2d_48">
    <g clip-path="url(#pc063bc9284)">
     <use xlink:href="#m170f097732" x="448.932275" y="35.677969" style="fill: #e91e63; stroke: #e91e63"/>
    </g>
   </g>
   <g id="line2d_49">
    <g clip-path="url(#pc063bc9284)">
     <use xlink:href="#m170f097732" x="450.331648" y="35.677969" style="fill: #e91e63; stroke: #e91e63"/>
    </g>
   </g>
   <g id="line2d_50">
    <g clip-path="url(#pc063bc9284)">
     <use xlink:href="#m170f097732" x="451.731021" y="35.677969" style="fill: #e91e63; stroke: #e91e63"/>
    </g>
   </g>
   <g id="line2d_51">
    <g clip-path="url(#pc063bc9284)">
     <use xlink:href="#m170f097732" x="453.130394" y="35.677969" style="fill: #e91e63; stroke: #e91e63"/>
    </g>
   </g>
   <g id="line2d_52">
    <g clip-path="url(#pc063bc9284)">
     <use xlink:href="#m170f097732" x="454.529767" y="35.677969" style="fill: #e91e63; stroke: #e91e63"/>
    </g>
   </g>
   <g id="line2d_53">
    <g clip-path="url(#pc063bc9284)">
     <use xlink:href="#m170f097732" x="455.92914" y="35.677969" style="fill: #e91e63; stroke: #e91e63"/>
    </g>
   </g>
   <g id="line2d_54">
    <g clip-path="url(#pc063bc9284)">
     <use xlink:href="#m170f097732" x="457.328513" y="35.677969" style="fill: #e91e63; stroke: #e91e63"/>
    </g>
   </g>
   <g id="line2d_55">
    <g clip-path="url(#pc063bc9284)">
     <use xlink:href="#m170f097732" x="458.727886" y="35.677969" style="fill: #e91e63; stroke: #e91e63"/>
    </g>
   </g>
   <g id="line2d_56">
    <g clip-path="url(#pc063bc9284)">
     <use xlink:href="#m170f097732" x="460.127259" y="35.677969" style="fill: #e91e63; stroke: #e91e63"/>
    </g>
   </g>
   <g id="line2d_57">
    <g clip-path="url(#pc063bc9284)">
     <use xlink:href="#m170f097732" x="461.526632" y="35.677969" style="fill: #e91e63; stroke: #e91e63"/>
    </g>
   </g>
   <g id="line2d_58">
    <g clip-path="url(#pc063bc9284)">
     <use xlink:href="#m170f097732" x="465.724751" y="35.677969" style="fill: #e91e63; stroke: #e91e63"/>
    </g>
   </g>
   <g id="line2d_59">
    <g clip-path="url(#pc063bc9284)">
     <use xlink:href="#m170f097732" x="467.124124" y="35.677969" style="fill: #e91e63; stroke: #e91e63"/>
    </g>
   </g>
   <g id="line2d_60">
    <g clip-path="url(#pc063bc9284)">
     <use xlink:href="#m170f097732" x="468.523497" y="35.677969" style="fill: #e91e63; stroke: #e91e63"/>
    </g>
   </g>
   <g id="line2d_61">
    <g clip-path="url(#pc063bc9284)">
     <use xlink:href="#m170f097732" x="469.92287" y="35.677969" style="fill: #e91e63; stroke: #e91e63"/>
    </g>
   </g>
   <g id="line2d_62">
    <g clip-path="url(#pc063bc9284)">
     <use xlink:href="#m170f097732" x="471.322243" y="35.677969" style="fill: #e91e63; stroke: #e91e63"/>
    </g>
   </g>
   <g id="line2d_63">
    <g clip-path="url(#pc063bc9284)">
     <use xlink:href="#m170f097732" x="472.721616" y="35.677969" style="fill: #e91e63; stroke: #e91e63"/>
    </g>
   </g>
   <g id="line2d_64">
    <g clip-path="url(#pc063bc9284)">
     <use xlink:href="#m170f097732" x="474.120989" y="35.677969" style="fill: #e91e63; stroke: #e91e63"/>
    </g>
   </g>
   <g id="line2d_65">
    <g clip-path="url(#pc063bc9284)">
     <use xlink:href="#m170f097732" x="478.319109" y="35.677969" style="fill: #e91e63; stroke: #e91e63"/>
    </g>
   </g>
   <g id="line2d_66">
    <g clip-path="url(#pc063bc9284)">
     <use xlink:href="#m170f097732" x="479.718482" y="35.677969" style="fill: #e91e63; stroke: #e91e63"/>
    </g>
   </g>
   <g id="line2d_67">
    <g clip-path="url(#pc063bc9284)">
     <use xlink:href="#m170f097732" x="481.117855" y="35.677969" style="fill: #e91e63; stroke: #e91e63"/>
    </g>
   </g>
   <g id="legend_1">
    <g id="patch_71">
     <path d="M 71.804375 60.434219 
L 142.829375 60.434219 
Q 144.829375 60.434219 144.829375 58.434219 
L 144.829375 30.077969 
Q 144.829375 28.077969 142.829375 28.077969 
L 71.804375 28.077969 
Q 69.804375 28.077969 69.804375 30.077969 
L 69.804375 58.434219 
Q 69.804375 60.434219 71.804375 60.434219 
z
" style="fill: #ffffff; opacity: 0.8; stroke: #cccccc; stroke-linejoin: miter"/>
    </g>
    <g id="line2d_68">
     <path d="M 73.804375 36.176406 
L 83.804375 36.176406 
L 93.804375 36.176406 
" style="fill: none; stroke: #2196f3; stroke-width: 2; stroke-linecap: square"/>
     <g>
      <use xlink:href="#md2f171db1c" x="83.804375" y="36.176406" style="fill: #2196f3; stroke: #2196f3"/>
     </g>
    </g>
    <g id="text_46">
     <!-- f(K) -->
     <g transform="translate(101.804375 39.676406) scale(0.1 -0.1)">
      <defs>
       <path id="DejaVuSans-4b" d="M 628 4666 
L 1259 4666 
L 1259 2694 
L 3353 4666 
L 4166 4666 
L 1850 2491 
L 4331 0 
L 3500 0 
L 1259 2247 
L 1259 0 
L 628 0 
L 628 4666 
z
" transform="scale(0.015625)"/>
      </defs>
      <use xlink:href="#DejaVuSans-66"/>
      <use xlink:href="#DejaVuSans-28" transform="translate(35.205078 0)"/>
      <use xlink:href="#DejaVuSans-4b" transform="translate(74.21875 0)"/>
      <use xlink:href="#DejaVuSans-29" transform="translate(139.794922 0)"/>
     </g>
    </g>
    <g id="line2d_69">
     <path d="M 73.804375 50.854531 
L 83.804375 50.854531 
L 93.804375 50.854531 
" style="fill: none; stroke-dasharray: 7.4,3.2; stroke-dashoffset: 0; stroke: #f44336; stroke-width: 2"/>
    </g>
    <g id="text_47">
     <!-- K*=300 -->
     <g transform="translate(101.804375 54.354531) scale(0.1 -0.1)">
      <defs>
       <path id="DejaVuSans-2a" d="M 3009 3897 
L 1888 3291 
L 3009 2681 
L 2828 2375 
L 1778 3009 
L 1778 1831 
L 1422 1831 
L 1422 3009 
L 372 2375 
L 191 2681 
L 1313 3291 
L 191 3897 
L 372 4206 
L 1422 3572 
L 1422 4750 
L 1778 4750 
L 1778 3572 
L 2828 4206 
L 3009 3897 
z
" transform="scale(0.015625)"/>
       <path id="DejaVuSans-3d" d="M 678 2906 
L 4684 2906 
L 4684 2381 
L 678 2381 
L 678 2906 
z
M 678 1631 
L 4684 1631 
L 4684 1100 
L 678 1100 
L 678 1631 
z
" transform="scale(0.015625)"/>
      </defs>
      <use xlink:href="#DejaVuSans-4b"/>
      <use xlink:href="#DejaVuSans-2a" transform="translate(65.576172 0)"/>
      <use xlink:href="#DejaVuSans-3d" transform="translate(115.576172 0)"/>
      <use xlink:href="#DejaVuSans-33" transform="translate(199.365234 0)"/>
      <use xlink:href="#DejaVuSans-30" transform="translate(262.988281 0)"/>
      <use xlink:href="#DejaVuSans-30" transform="translate(326.611328 0)"/>
     </g>
    </g>
   </g>
  </g>
 </g>
 <defs>
  <clipPath id="pc063bc9284">
   <rect x="64.804375" y="23.077969" width="446.4" height="277.2"/>
  </clipPath>
 </defs>
</svg>
