<?xml version="1.0" encoding="utf-8" standalone="no"?>
<!DOCTYPE svg PUBLIC "-//W3C//DTD SVG 1.1//EN"
  "http://www.w3.org/Graphics/SVG/1.1/DTD/svg11.dtd">
<svg xmlns:xlink="http://www.w3.org/1999/xlink" width="512.041875pt" height="339.769844pt" viewBox="0 0 512.041875 339.769844" xmlns="http://www.w3.org/2000/svg" version="1.1">
 <metadata>
  <rdf:RDF xmlns:dc="http://purl.org/dc/elements/1.1/" xmlns:cc="http://creativecommons.org/ns#" xmlns:rdf="http://www.w3.org/1999/02/22-rdf-syntax-ns#">
   <cc:Work>
    <dc:type rdf:resource="http://purl.org/dc/dcmitype/StillImage"/>
    <dc:date>2026-06-03T22:33:37.453421</dc:date>
    <dc:format>image/svg+xml</dc:format>
    <dc:creator>
     <cc:Agent>
      <dc:title>Matplotlib v3.10.8, https://matplotlib.org/</dc:title>
     </cc:Agent>
    </dc:creator>
   </cc:Work>
  </rdf:RDF>
 </metadata>
 <defs>
  <style type="text/css">*{stroke-linejoin: round; stroke-linecap: butt}</style>
 </defs>
 <g id="figure_1">
  <g id="patch_1">
   <path d="M 0 339.769844 
L 512.041875 339.769844 
L 512.041875 0 
L 0 0 
z
" style="fill: #ffffff"/>
  </g>
  <g id="axes_1">
   <g id="patch_2">
    <path d="M 58.441875 300.277969 
L 504.841875 300.277969 
L 504.841875 23.077969 
L 58.441875 23.077969 
z
" style="fill: #ffffff"/>
   </g>
   <g id="matplotlib.axis_1">
    <g id="xtick_1">
     <g id="line2d_1">
      <path d="M 64.739054 300.277969 
L 64.739054 23.077969 
" clip-path="url(#p0317956451)" style="fill: none; stroke: #b0b0b0; stroke-opacity: 0.3; stroke-width: 0.8; stroke-linecap: square"/>
     </g>
     <g id="line2d_2">
      <defs>
       <path id="meb8d6416d1" d="M 0 0 
L 0 3.5 
" style="stroke: #000000; stroke-width: 0.8"/>
      </defs>
      <g>
       <use xlink:href="#meb8d6416d1" x="64.739054" y="300.277969" style="stroke: #000000; stroke-width: 0.8"/>
      </g>
     </g>
     <g id="text_1">
      <!-- 0 -->
      <g transform="translate(61.557804 314.876406) scale(0.1 -0.1)">
       <defs>
        <path id="DejaVuSans-30" d="M 2034 4250 
Q 1547 4250 1301 3770 
Q 1056 3291 1056 2328 
Q 1056 1369 1301 889 
Q 1547 409 2034 409 
Q 2525 409 2770 889 
Q 3016 1369 3016 2328 
Q 3016 3291 2770 3770 
Q 2525 4250 2034 4250 
z
M 2034 4750 
Q 2819 4750 3233 4129 
Q 3647 3509 3647 2328 
Q 3647 1150 3233 529 
Q 2819 -91 2034 -91 
Q 1250 -91 836 529 
Q 422 1150 422 2328 
Q 422 3509 836 4129 
Q 1250 4750 2034 4750 
z
" transform="scale(0.015625)"/>
       </defs>
       <use xlink:href="#DejaVuSans-30"/>
      </g>
     </g>
    </g>
    <g id="xtick_2">
     <g id="line2d_3">
      <path d="M 134.707706 300.277969 
L 134.707706 23.077969 
" clip-path="url(#p0317956451)" style="fill: none; stroke: #b0b0b0; stroke-opacity: 0.3; stroke-width: 0.8; stroke-linecap: square"/>
     </g>
     <g id="line2d_4">
      <g>
       <use xlink:href="#meb8d6416d1" x="134.707706" y="300.277969" style="stroke: #000000; stroke-width: 0.8"/>
      </g>
     </g>
     <g id="text_2">
      <!-- 5 -->
      <g transform="translate(131.526456 314.876406) scale(0.1 -0.1)">
       <defs>
        <path id="DejaVuSans-35" d="M 691 4666 
L 3169 4666 
L 3169 4134 
L 1269 4134 
L 1269 2991 
Q 1406 3038 1543 3061 
Q 1681 3084 1819 3084 
Q 2600 3084 3056 2656 
Q 3513 2228 3513 1497 
Q 3513 744 3044 326 
Q 2575 -91 1722 -91 
Q 1428 -91 1123 -41 
Q 819 9 494 109 
L 494 744 
Q 775 591 1075 516 
Q 1375 441 1709 441 
Q 2250 441 2565 725 
Q 2881 1009 2881 1497 
Q 2881 1984 2565 2268 
Q 2250 2553 1709 2553 
Q 1456 2553 1204 2497 
Q 953 2441 691 2322 
L 691 4666 
z
" transform="scale(0.015625)"/>
       </defs>
       <use xlink:href="#DejaVuSans-35"/>
      </g>
     </g>
    </g>
    <g id="xtick_3">
     <g id="line2d_5">
      <path d="M 204.676358 300.277969 
L 204.676358 23.077969 
" clip-path="url(#p0317956451)" style="fill: none; stroke: #b0b0b0; stroke-opacity: 0.3; stroke-width: 0.8; stroke-linecap: square"/>
     </g>
     <g id="line2d_6">
      <g>
       <use xlink:href="#meb8d6416d1" x="204.676358" y="300.277969" style="stroke: #000000; stroke-width: 0.8"/>
      </g>
     </g>
     <g id="text_3">
      <!-- 10 -->
      <g transform="translate(198.313858 314.876406) scale(0.1 -0.1)">
       <defs>
        <path id="DejaVuSans-31" d="M 794 531 
L 1825 531 
L 1825 4091 
L 703 3866 
L 703 4441 
L 1819 4666 
L 2450 4666 
L 2450 531 
L 3481 531 
L 3481 0 
L 794 0 
L 794 531 
z
" transform="scale(0.015625)"/>
       </defs>
       <use xlink:href="#DejaVuSans-31"/>
       <use xlink:href="#DejaVuSans-30" transform="translate(63.623047 0)"/>
      </g>
     </g>
    </g>
    <g id="xtick_4">
     <g id="line2d_7">
      <path d="M 274.64501 300.277969 
L 274.64501 23.077969 
" clip-path="url(#p0317956451)" style="fill: none; stroke: #b0b0b0; stroke-opacity: 0.3; stroke-width: 0.8; stroke-linecap: square"/>
     </g>
     <g id="line2d_8">
      <g>
       <use xlink:href="#meb8d6416d1" x="274.64501" y="300.277969" style="stroke: #000000; stroke-width: 0.8"/>
      </g>
     </g>
     <g id="text_4">
      <!-- 15 -->
      <g transform="translate(268.28251 314.876406) scale(0.1 -0.1)">
       <use xlink:href="#DejaVuSans-31"/>
       <use xlink:href="#DejaVuSans-35" transform="translate(63.623047 0)"/>
      </g>
     </g>
    </g>
    <g id="xtick_5">
     <g id="line2d_9">
      <path d="M 344.613662 300.277969 
L 344.613662 23.077969 
" clip-path="url(#p0317956451)" style="fill: none; stroke: #b0b0b0; stroke-opacity: 0.3; stroke-width: 0.8; stroke-linecap: square"/>
     </g>
     <g id="line2d_10">
      <g>
       <use xlink:href="#meb8d6416d1" x="344.613662" y="300.277969" style="stroke: #000000; stroke-width: 0.8"/>
      </g>
     </g>
     <g id="text_5">
      <!-- 20 -->
      <g transform="translate(338.251162 314.876406) scale(0.1 -0.1)">
       <defs>
        <path id="DejaVuSans-32" d="M 1228 531 
L 3431 531 
L 3431 0 
L 469 0 
L 469 531 
Q 828 903 1448 1529 
Q 2069 2156 2228 2338 
Q 2531 2678 2651 2914 
Q 2772 3150 2772 3378 
Q 2772 3750 2511 3984 
Q 2250 4219 1831 4219 
Q 1534 4219 1204 4116 
Q 875 4013 500 3803 
L 500 4441 
Q 881 4594 1212 4672 
Q 1544 4750 1819 4750 
Q 2544 4750 2975 4387 
Q 3406 4025 3406 3419 
Q 3406 3131 3298 2873 
Q 3191 2616 2906 2266 
Q 2828 2175 2409 1742 
Q 1991 1309 1228 531 
z
" transform="scale(0.015625)"/>
       </defs>
       <use xlink:href="#DejaVuSans-32"/>
       <use xlink:href="#DejaVuSans-30" transform="translate(63.623047 0)"/>
      </g>
     </g>
    </g>
    <g id="xtick_6">
     <g id="line2d_11">
      <path d="M 414.582314 300.277969 
L 414.582314 23.077969 
" clip-path="url(#p0317956451)" style="fill: none; stroke: #b0b0b0; stroke-opacity: 0.3; stroke-width: 0.8; stroke-linecap: square"/>
     </g>
     <g id="line2d_12">
      <g>
       <use xlink:href="#meb8d6416d1" x="414.582314" y="300.277969" style="stroke: #000000; stroke-width: 0.8"/>
      </g>
     </g>
     <g id="text_6">
      <!-- 25 -->
      <g transform="translate(408.219814 314.876406) scale(0.1 -0.1)">
       <use xlink:href="#DejaVuSans-32"/>
       <use xlink:href="#DejaVuSans-35" transform="translate(63.623047 0)"/>
      </g>
     </g>
    </g>
    <g id="xtick_7">
     <g id="line2d_13">
      <path d="M 484.550966 300.277969 
L 484.550966 23.077969 
" clip-path="url(#p0317956451)" style="fill: none; stroke: #b0b0b0; stroke-opacity: 0.3; stroke-width: 0.8; stroke-linecap: square"/>
     </g>
     <g id="line2d_14">
      <g>
       <use xlink:href="#meb8d6416d1" x="484.550966" y="300.277969" style="stroke: #000000; stroke-width: 0.8"/>
      </g>
     </g>
     <g id="text_7">
      <!-- 30 -->
      <g transform="translate(478.188466 314.876406) scale(0.1 -0.1)">
       <defs>
        <path id="DejaVuSans-33" d="M 2597 2516 
Q 3050 2419 3304 2112 
Q 3559 1806 3559 1356 
Q 3559 666 3084 287 
Q 2609 -91 1734 -91 
Q 1441 -91 1130 -33 
Q 819 25 488 141 
L 488 750 
Q 750 597 1062 519 
Q 1375 441 1716 441 
Q 2309 441 2620 675 
Q 2931 909 2931 1356 
Q 2931 1769 2642 2001 
Q 2353 2234 1838 2234 
L 1294 2234 
L 1294 2753 
L 1863 2753 
Q 2328 2753 2575 2939 
Q 2822 3125 2822 3475 
Q 2822 3834 2567 4026 
Q 2313 4219 1838 4219 
Q 1578 4219 1281 4162 
Q 984 4106 628 3988 
L 628 4550 
Q 988 4650 1302 4700 
Q 1616 4750 1894 4750 
Q 2613 4750 3031 4423 
Q 3450 4097 3450 3541 
Q 3450 3153 3228 2886 
Q 3006 2619 2597 2516 
z
" transform="scale(0.015625)"/>
       </defs>
       <use xlink:href="#DejaVuSans-33"/>
       <use xlink:href="#DejaVuSans-30" transform="translate(63.623047 0)"/>
      </g>
     </g>
    </g>
    <g id="text_8">
     <!-- K (neighbors) -->
     <g transform="translate(241.273125 330.074219) scale(0.12 -0.12)">
      <defs>
       <path id="DejaVuSans-4b" d="M 628 4666 
L 1259 4666 
L 1259 2694 
L 3353 4666 
L 4166 4666 
L 1850 2491 
L 4331 0 
L 3500 0 
L 1259 2247 
L 1259 0 
L 628 0 
L 628 4666 
z
" transform="scale(0.015625)"/>
       <path id="DejaVuSans-20" transform="scale(0.015625)"/>
       <path id="DejaVuSans-28" d="M 1984 4856 
Q 1566 4138 1362 3434 
Q 1159 2731 1159 2009 
Q 1159 1288 1364 580 
Q 1569 -128 1984 -844 
L 1484 -844 
Q 1016 -109 783 600 
Q 550 1309 550 2009 
Q 550 2706 781 3412 
Q 1013 4119 1484 4856 
L 1984 4856 
z
" transform="scale(0.015625)"/>
       <path id="DejaVuSans-6e" d="M 3513 2113 
L 3513 0 
L 2938 0 
L 2938 2094 
Q 2938 2591 2744 2837 
Q 2550 3084 2163 3084 
Q 1697 3084 1428 2787 
Q 1159 2491 1159 1978 
L 1159 0 
L 581 0 
L 581 3500 
L 1159 3500 
L 1159 2956 
Q 1366 3272 1645 3428 
Q 1925 3584 2291 3584 
Q 2894 3584 3203 3211 
Q 3513 2838 3513 2113 
z
" transform="scale(0.015625)"/>
       <path id="DejaVuSans-65" d="M 3597 1894 
L 3597 1613 
L 953 1613 
Q 991 1019 1311 708 
Q 1631 397 2203 397 
Q 2534 397 2845 478 
Q 3156 559 3463 722 
L 3463 178 
Q 3153 47 2828 -22 
Q 2503 -91 2169 -91 
Q 1331 -91 842 396 
Q 353 884 353 1716 
Q 353 2575 817 3079 
Q 1281 3584 2069 3584 
Q 2775 3584 3186 3129 
Q 3597 2675 3597 1894 
z
M 3022 2063 
Q 3016 2534 2758 2815 
Q 2500 3097 2075 3097 
Q 1594 3097 1305 2825 
Q 1016 2553 972 2059 
L 3022 2063 
z
" transform="scale(0.015625)"/>
       <path id="DejaVuSans-69" d="M 603 3500 
L 1178 3500 
L 1178 0 
L 603 0 
L 603 3500 
z
M 603 4863 
L 1178 4863 
L 1178 4134 
L 603 4134 
L 603 4863 
z
" transform="scale(0.015625)"/>
       <path id="DejaVuSans-67" d="M 2906 1791 
Q 2906 2416 2648 2759 
Q 2391 3103 1925 3103 
Q 1463 3103 1205 2759 
Q 947 2416 947 1791 
Q 947 1169 1205 825 
Q 1463 481 1925 481 
Q 2391 481 2648 825 
Q 2906 1169 2906 1791 
z
M 3481 434 
Q 3481 -459 3084 -895 
Q 2688 -1331 1869 -1331 
Q 1566 -1331 1297 -1286 
Q 1028 -1241 775 -1147 
L 775 -588 
Q 1028 -725 1275 -790 
Q 1522 -856 1778 -856 
Q 2344 -856 2625 -561 
Q 2906 -266 2906 331 
L 2906 616 
Q 2728 306 2450 153 
Q 2172 0 1784 0 
Q 1141 0 747 490 
Q 353 981 353 1791 
Q 353 2603 747 3093 
Q 1141 3584 1784 3584 
Q 2172 3584 2450 3431 
Q 2728 3278 2906 2969 
L 2906 3500 
L 3481 3500 
L 3481 434 
z
" transform="scale(0.015625)"/>
       <path id="DejaVuSans-68" d="M 3513 2113 
L 3513 0 
L 2938 0 
L 2938 2094 
Q 2938 2591 2744 2837 
Q 2550 3084 2163 3084 
Q 1697 3084 1428 2787 
Q 1159 2491 1159 1978 
L 1159 0 
L 581 0 
L 581 4863 
L 1159 4863 
L 1159 2956 
Q 1366 3272 1645 3428 
Q 1925 3584 2291 3584 
Q 2894 3584 3203 3211 
Q 3513 2838 3513 2113 
z
" transform="scale(0.015625)"/>
       <path id="DejaVuSans-62" d="M 3116 1747 
Q 3116 2381 2855 2742 
Q 2594 3103 2138 3103 
Q 1681 3103 1420 2742 
Q 1159 2381 1159 1747 
Q 1159 1113 1420 752 
Q 1681 391 2138 391 
Q 2594 391 2855 752 
Q 3116 1113 3116 1747 
z
M 1159 2969 
Q 1341 3281 1617 3432 
Q 1894 3584 2278 3584 
Q 2916 3584 3314 3078 
Q 3713 2572 3713 1747 
Q 3713 922 3314 415 
Q 2916 -91 2278 -91 
Q 1894 -91 1617 61 
Q 1341 213 1159 525 
L 1159 0 
L 581 0 
L 581 4863 
L 1159 4863 
L 1159 2969 
z
" transform="scale(0.015625)"/>
       <path id="DejaVuSans-6f" d="M 1959 3097 
Q 1497 3097 1228 2736 
Q 959 2375 959 1747 
Q 959 1119 1226 758 
Q 1494 397 1959 397 
Q 2419 397 2687 759 
Q 2956 1122 2956 1747 
Q 2956 2369 2687 2733 
Q 2419 3097 1959 3097 
z
M 1959 3584 
Q 2709 3584 3137 3096 
Q 3566 2609 3566 1747 
Q 3566 888 3137 398 
Q 2709 -91 1959 -91 
Q 1206 -91 779 398 
Q 353 888 353 1747 
Q 353 2609 779 3096 
Q 1206 3584 1959 3584 
z
" transform="scale(0.015625)"/>
       <path id="DejaVuSans-72" d="M 2631 2963 
Q 2534 3019 2420 3045 
Q 2306 3072 2169 3072 
Q 1681 3072 1420 2755 
Q 1159 2438 1159 1844 
L 1159 0 
L 581 0 
L 581 3500 
L 1159 3500 
L 1159 2956 
Q 1341 3275 1631 3429 
Q 1922 3584 2338 3584 
Q 2397 3584 2469 3576 
Q 2541 3569 2628 3553 
L 2631 2963 
z
" transform="scale(0.015625)"/>
       <path id="DejaVuSans-73" d="M 2834 3397 
L 2834 2853 
Q 2591 2978 2328 3040 
Q 2066 3103 1784 3103 
Q 1356 3103 1142 2972 
Q 928 2841 928 2578 
Q 928 2378 1081 2264 
Q 1234 2150 1697 2047 
L 1894 2003 
Q 2506 1872 2764 1633 
Q 3022 1394 3022 966 
Q 3022 478 2636 193 
Q 2250 -91 1575 -91 
Q 1294 -91 989 -36 
Q 684 19 347 128 
L 347 722 
Q 666 556 975 473 
Q 1284 391 1588 391 
Q 1994 391 2212 530 
Q 2431 669 2431 922 
Q 2431 1156 2273 1281 
Q 2116 1406 1581 1522 
L 1381 1569 
Q 847 1681 609 1914 
Q 372 2147 372 2553 
Q 372 3047 722 3315 
Q 1072 3584 1716 3584 
Q 2034 3584 2315 3537 
Q 2597 3491 2834 3397 
z
" transform="scale(0.015625)"/>
       <path id="DejaVuSans-29" d="M 513 4856 
L 1013 4856 
Q 1481 4119 1714 3412 
Q 1947 2706 1947 2009 
Q 1947 1309 1714 600 
Q 1481 -109 1013 -844 
L 513 -844 
Q 928 -128 1133 580 
Q 1338 1288 1338 2009 
Q 1338 2731 1133 3434 
Q 928 4138 513 4856 
z
" transform="scale(0.015625)"/>
      </defs>
      <use xlink:href="#DejaVuSans-4b"/>
      <use xlink:href="#DejaVuSans-20" transform="translate(65.576172 0)"/>
      <use xlink:href="#DejaVuSans-28" transform="translate(97.363281 0)"/>
      <use xlink:href="#DejaVuSans-6e" transform="translate(136.376953 0)"/>
      <use xlink:href="#DejaVuSans-65" transform="translate(199.755859 0)"/>
      <use xlink:href="#DejaVuSans-69" transform="translate(261.279297 0)"/>
      <use xlink:href="#DejaVuSans-67" transform="translate(289.0625 0)"/>
      <use xlink:href="#DejaVuSans-68" transform="translate(352.539062 0)"/>
      <use xlink:href="#DejaVuSans-62" transform="translate(415.917969 0)"/>
      <use xlink:href="#DejaVuSans-6f" transform="translate(479.394531 0)"/>
      <use xlink:href="#DejaVuSans-72" transform="translate(540.576172 0)"/>
      <use xlink:href="#DejaVuSans-73" transform="translate(581.689453 0)"/>
      <use xlink:href="#DejaVuSans-29" transform="translate(633.789062 0)"/>
     </g>
    </g>
   </g>
   <g id="matplotlib.axis_2">
    <g id="ytick_1">
     <g id="line2d_15">
      <path d="M 58.441875 287.677969 
L 504.841875 287.677969 
" clip-path="url(#p0317956451)" style="fill: none; stroke: #b0b0b0; stroke-opacity: 0.3; stroke-width: 0.8; stroke-linecap: square"/>
     </g>
     <g id="line2d_16">
      <defs>
       <path id="m2e0b7b33f2" d="M 0 0 
L -3.5 0 
" style="stroke: #000000; stroke-width: 0.8"/>
      </defs>
      <g>
       <use xlink:href="#m2e0b7b33f2" x="58.441875" y="287.677969" style="stroke: #000000; stroke-width: 0.8"/>
      </g>
     </g>
     <g id="text_9">
      <!-- 0.940 -->
      <g transform="translate(22.81375 291.477187) scale(0.1 -0.1)">
       <defs>
        <path id="DejaVuSans-2e" d="M 684 794 
L 1344 794 
L 1344 0 
L 684 0 
L 684 794 
z
" transform="scale(0.015625)"/>
        <path id="DejaVuSans-39" d="M 703 97 
L 703 672 
Q 941 559 1184 500 
Q 1428 441 1663 441 
Q 2288 441 2617 861 
Q 2947 1281 2994 2138 
Q 2813 1869 2534 1725 
Q 2256 1581 1919 1581 
Q 1219 1581 811 2004 
Q 403 2428 403 3163 
Q 403 3881 828 4315 
Q 1253 4750 1959 4750 
Q 2769 4750 3195 4129 
Q 3622 3509 3622 2328 
Q 3622 1225 3098 567 
Q 2575 -91 1691 -91 
Q 1453 -91 1209 -44 
Q 966 3 703 97 
z
M 1959 2075 
Q 2384 2075 2632 2365 
Q 2881 2656 2881 3163 
Q 2881 3666 2632 3958 
Q 2384 4250 1959 4250 
Q 1534 4250 1286 3958 
Q 1038 3666 1038 3163 
Q 1038 2656 1286 2365 
Q 1534 2075 1959 2075 
z
" transform="scale(0.015625)"/>
        <path id="DejaVuSans-34" d="M 2419 4116 
L 825 1625 
L 2419 1625 
L 2419 4116 
z
M 2253 4666 
L 3047 4666 
L 3047 1625 
L 3713 1625 
L 3713 1100 
L 3047 1100 
L 3047 0 
L 2419 0 
L 2419 1100 
L 313 1100 
L 313 1709 
L 2253 4666 
z
" transform="scale(0.015625)"/>
       </defs>
       <use xlink:href="#DejaVuSans-30"/>
       <use xlink:href="#DejaVuSans-2e" transform="translate(63.623047 0)"/>
       <use xlink:href="#DejaVuSans-39" transform="translate(95.410156 0)"/>
       <use xlink:href="#DejaVuSans-34" transform="translate(159.033203 0)"/>
       <use xlink:href="#DejaVuSans-30" transform="translate(222.65625 0)"/>
      </g>
     </g>
    </g>
    <g id="ytick_2">
     <g id="line2d_17">
      <path d="M 58.441875 256.177969 
L 504.841875 256.177969 
" clip-path="url(#p0317956451)" style="fill: none; stroke: #b0b0b0; stroke-opacity: 0.3; stroke-width: 0.8; stroke-linecap: square"/>
     </g>
     <g id="line2d_18">
      <g>
       <use xlink:href="#m2e0b7b33f2" x="58.441875" y="256.177969" style="stroke: #000000; stroke-width: 0.8"/>
      </g>
     </g>
     <g id="text_10">
      <!-- 0.945 -->
      <g transform="translate(22.81375 259.977187) scale(0.1 -0.1)">
       <use xlink:href="#DejaVuSans-30"/>
       <use xlink:href="#DejaVuSans-2e" transform="translate(63.623047 0)"/>
       <use xlink:href="#DejaVuSans-39" transform="translate(95.410156 0)"/>
       <use xlink:href="#DejaVuSans-34" transform="translate(159.033203 0)"/>
       <use xlink:href="#DejaVuSans-35" transform="translate(222.65625 0)"/>
      </g>
     </g>
    </g>
    <g id="ytick_3">
     <g id="line2d_19">
      <path d="M 58.441875 224.677969 
L 504.841875 224.677969 
" clip-path="url(#p0317956451)" style="fill: none; stroke: #b0b0b0; stroke-opacity: 0.3; stroke-width: 0.8; stroke-linecap: square"/>
     </g>
     <g id="line2d_20">
      <g>
       <use xlink:href="#m2e0b7b33f2" x="58.441875" y="224.677969" style="stroke: #000000; stroke-width: 0.8"/>
      </g>
     </g>
     <g id="text_11">
      <!-- 0.950 -->
      <g transform="translate(22.81375 228.477187) scale(0.1 -0.1)">
       <use xlink:href="#DejaVuSans-30"/>
       <use xlink:href="#DejaVuSans-2e" transform="translate(63.623047 0)"/>
       <use xlink:href="#DejaVuSans-39" transform="translate(95.410156 0)"/>
       <use xlink:href="#DejaVuSans-35" transform="translate(159.033203 0)"/>
       <use xlink:href="#DejaVuSans-30" transform="translate(222.65625 0)"/>
      </g>
     </g>
    </g>
    <g id="ytick_4">
     <g id="line2d_21">
      <path d="M 58.441875 193.177969 
L 504.841875 193.177969 
" clip-path="url(#p0317956451)" style="fill: none; stroke: #b0b0b0; stroke-opacity: 0.3; stroke-width: 0.8; stroke-linecap: square"/>
     </g>
     <g id="line2d_22">
      <g>
       <use xlink:href="#m2e0b7b33f2" x="58.441875" y="193.177969" style="stroke: #000000; stroke-width: 0.8"/>
      </g>
     </g>
     <g id="text_12">
      <!-- 0.955 -->
      <g transform="translate(22.81375 196.977187) scale(0.1 -0.1)">
       <use xlink:href="#DejaVuSans-30"/>
       <use xlink:href="#DejaVuSans-2e" transform="translate(63.623047 0)"/>
       <use xlink:href="#DejaVuSans-39" transform="translate(95.410156 0)"/>
       <use xlink:href="#DejaVuSans-35" transform="translate(159.033203 0)"/>
       <use xlink:href="#DejaVuSans-35" transform="translate(222.65625 0)"/>
      </g>
     </g>
    </g>
    <g id="ytick_5">
     <g id="line2d_23">
      <path d="M 58.441875 161.677969 
L 504.841875 161.677969 
" clip-path="url(#p0317956451)" style="fill: none; stroke: #b0b0b0; stroke-opacity: 0.3; stroke-width: 0.8; stroke-linecap: square"/>
     </g>
     <g id="line2d_24">
      <g>
       <use xlink:href="#m2e0b7b33f2" x="58.441875" y="161.677969" style="stroke: #000000; stroke-width: 0.8"/>
      </g>
     </g>
     <g id="text_13">
      <!-- 0.960 -->
      <g transform="translate(22.81375 165.477187) scale(0.1 -0.1)">
       <defs>
        <path id="DejaVuSans-36" d="M 2113 2584 
Q 1688 2584 1439 2293 
Q 1191 2003 1191 1497 
Q 1191 994 1439 701 
Q 1688 409 2113 409 
Q 2538 409 2786 701 
Q 3034 994 3034 1497 
Q 3034 2003 2786 2293 
Q 2538 2584 2113 2584 
z
M 3366 4563 
L 3366 3988 
Q 3128 4100 2886 4159 
Q 2644 4219 2406 4219 
Q 1781 4219 1451 3797 
Q 1122 3375 1075 2522 
Q 1259 2794 1537 2939 
Q 1816 3084 2150 3084 
Q 2853 3084 3261 2657 
Q 3669 2231 3669 1497 
Q 3669 778 3244 343 
Q 2819 -91 2113 -91 
Q 1303 -91 875 529 
Q 447 1150 447 2328 
Q 447 3434 972 4092 
Q 1497 4750 2381 4750 
Q 2619 4750 2861 4703 
Q 3103 4656 3366 4563 
z
" transform="scale(0.015625)"/>
       </defs>
       <use xlink:href="#DejaVuSans-30"/>
       <use xlink:href="#DejaVuSans-2e" transform="translate(63.623047 0)"/>
       <use xlink:href="#DejaVuSans-39" transform="translate(95.410156 0)"/>
       <use xlink:href="#DejaVuSans-36" transform="translate(159.033203 0)"/>
       <use xlink:href="#DejaVuSans-30" transform="translate(222.65625 0)"/>
      </g>
     </g>
    </g>
    <g id="ytick_6">
     <g id="line2d_25">
      <path d="M 58.441875 130.177969 
L 504.841875 130.177969 
" clip-path="url(#p0317956451)" style="fill: none; stroke: #b0b0b0; stroke-opacity: 0.3; stroke-width: 0.8; stroke-linecap: square"/>
     </g>
     <g id="line2d_26">
      <g>
       <use xlink:href="#m2e0b7b33f2" x="58.441875" y="130.177969" style="stroke: #000000; stroke-width: 0.8"/>
      </g>
     </g>
     <g id="text_14">
      <!-- 0.965 -->
      <g transform="translate(22.81375 133.977187) scale(0.1 -0.1)">
       <use xlink:href="#DejaVuSans-30"/>
       <use xlink:href="#DejaVuSans-2e" transform="translate(63.623047 0)"/>
       <use xlink:href="#DejaVuSans-39" transform="translate(95.410156 0)"/>
       <use xlink:href="#DejaVuSans-36" transform="translate(159.033203 0)"/>
       <use xlink:href="#DejaVuSans-35" transform="translate(222.65625 0)"/>
      </g>
     </g>
    </g>
    <g id="ytick_7">
     <g id="line2d_27">
      <path d="M 58.441875 98.677969 
L 504.841875 98.677969 
" clip-path="url(#p0317956451)" style="fill: none; stroke: #b0b0b0; stroke-opacity: 0.3; stroke-width: 0.8; stroke-linecap: square"/>
     </g>
     <g id="line2d_28">
      <g>
       <use xlink:href="#m2e0b7b33f2" x="58.441875" y="98.677969" style="stroke: #000000; stroke-width: 0.8"/>
      </g>
     </g>
     <g id="text_15">
      <!-- 0.970 -->
      <g transform="translate(22.81375 102.477187) scale(0.1 -0.1)">
       <defs>
        <path id="DejaVuSans-37" d="M 525 4666 
L 3525 4666 
L 3525 4397 
L 1831 0 
L 1172 0 
L 2766 4134 
L 525 4134 
L 525 4666 
z
" transform="scale(0.015625)"/>
       </defs>
       <use xlink:href="#DejaVuSans-30"/>
       <use xlink:href="#DejaVuSans-2e" transform="translate(63.623047 0)"/>
       <use xlink:href="#DejaVuSans-39" transform="translate(95.410156 0)"/>
       <use xlink:href="#DejaVuSans-37" transform="translate(159.033203 0)"/>
       <use xlink:href="#DejaVuSans-30" transform="translate(222.65625 0)"/>
      </g>
     </g>
    </g>
    <g id="ytick_8">
     <g id="line2d_29">
      <path d="M 58.441875 67.177969 
L 504.841875 67.177969 
" clip-path="url(#p0317956451)" style="fill: none; stroke: #b0b0b0; stroke-opacity: 0.3; stroke-width: 0.8; stroke-linecap: square"/>
     </g>
     <g id="line2d_30">
      <g>
       <use xlink:href="#m2e0b7b33f2" x="58.441875" y="67.177969" style="stroke: #000000; stroke-width: 0.8"/>
      </g>
     </g>
     <g id="text_16">
      <!-- 0.975 -->
      <g transform="translate(22.81375 70.977187) scale(0.1 -0.1)">
       <use xlink:href="#DejaVuSans-30"/>
       <use xlink:href="#DejaVuSans-2e" transform="translate(63.623047 0)"/>
       <use xlink:href="#DejaVuSans-39" transform="translate(95.410156 0)"/>
       <use xlink:href="#DejaVuSans-37" transform="translate(159.033203 0)"/>
       <use xlink:href="#DejaVuSans-35" transform="translate(222.65625 0)"/>
      </g>
     </g>
    </g>
    <g id="ytick_9">
     <g id="line2d_31">
      <path d="M 58.441875 35.677969 
L 504.841875 35.677969 
" clip-path="url(#p0317956451)" style="fill: none; stroke: #b0b0b0; stroke-opacity: 0.3; stroke-width: 0.8; stroke-linecap: square"/>
     </g>
     <g id="line2d_32">
      <g>
       <use xlink:href="#m2e0b7b33f2" x="58.441875" y="35.677969" style="stroke: #000000; stroke-width: 0.8"/>
      </g>
     </g>
     <g id="text_17">
      <!-- 0.980 -->
      <g transform="translate(22.81375 39.477188) scale(0.1 -0.1)">
       <defs>
        <path id="DejaVuSans-38" d="M 2034 2216 
Q 1584 2216 1326 1975 
Q 1069 1734 1069 1313 
Q 1069 891 1326 650 
Q 1584 409 2034 409 
Q 2484 409 2743 651 
Q 3003 894 3003 1313 
Q 3003 1734 2745 1975 
Q 2488 2216 2034 2216 
z
M 1403 2484 
Q 997 2584 770 2862 
Q 544 3141 544 3541 
Q 544 4100 942 4425 
Q 1341 4750 2034 4750 
Q 2731 4750 3128 4425 
Q 3525 4100 3525 3541 
Q 3525 3141 3298 2862 
Q 3072 2584 2669 2484 
Q 3125 2378 3379 2068 
Q 3634 1759 3634 1313 
Q 3634 634 3220 271 
Q 2806 -91 2034 -91 
Q 1263 -91 848 271 
Q 434 634 434 1313 
Q 434 1759 690 2068 
Q 947 2378 1403 2484 
z
M 1172 3481 
Q 1172 3119 1398 2916 
Q 1625 2713 2034 2713 
Q 2441 2713 2670 2916 
Q 2900 3119 2900 3481 
Q 2900 3844 2670 4047 
Q 2441 4250 2034 4250 
Q 1625 4250 1398 4047 
Q 1172 3844 1172 3481 
z
" transform="scale(0.015625)"/>
       </defs>
       <use xlink:href="#DejaVuSans-30"/>
       <use xlink:href="#DejaVuSans-2e" transform="translate(63.623047 0)"/>
       <use xlink:href="#DejaVuSans-39" transform="translate(95.410156 0)"/>
       <use xlink:href="#DejaVuSans-38" transform="translate(159.033203 0)"/>
       <use xlink:href="#DejaVuSans-30" transform="translate(222.65625 0)"/>
      </g>
     </g>
    </g>
    <g id="text_18">
     <!-- CV Accuracy -->
     <g transform="translate(16.318125 199.272656) rotate(-90) scale(0.12 -0.12)">
      <defs>
       <path id="DejaVuSans-43" d="M 4122 4306 
L 4122 3641 
Q 3803 3938 3442 4084 
Q 3081 4231 2675 4231 
Q 1875 4231 1450 3742 
Q 1025 3253 1025 2328 
Q 1025 1406 1450 917 
Q 1875 428 2675 428 
Q 3081 428 3442 575 
Q 3803 722 4122 1019 
L 4122 359 
Q 3791 134 3420 21 
Q 3050 -91 2638 -91 
Q 1578 -91 968 557 
Q 359 1206 359 2328 
Q 359 3453 968 4101 
Q 1578 4750 2638 4750 
Q 3056 4750 3426 4639 
Q 3797 4528 4122 4306 
z
" transform="scale(0.015625)"/>
       <path id="DejaVuSans-56" d="M 1831 0 
L 50 4666 
L 709 4666 
L 2188 738 
L 3669 4666 
L 4325 4666 
L 2547 0 
L 1831 0 
z
" transform="scale(0.015625)"/>
       <path id="DejaVuSans-41" d="M 2188 4044 
L 1331 1722 
L 3047 1722 
L 2188 4044 
z
M 1831 4666 
L 2547 4666 
L 4325 0 
L 3669 0 
L 3244 1197 
L 1141 1197 
L 716 0 
L 50 0 
L 1831 4666 
z
" transform="scale(0.015625)"/>
       <path id="DejaVuSans-63" d="M 3122 3366 
L 3122 2828 
Q 2878 2963 2633 3030 
Q 2388 3097 2138 3097 
Q 1578 3097 1268 2742 
Q 959 2388 959 1747 
Q 959 1106 1268 751 
Q 1578 397 2138 397 
Q 2388 397 2633 464 
Q 2878 531 3122 666 
L 3122 134 
Q 2881 22 2623 -34 
Q 2366 -91 2075 -91 
Q 1284 -91 818 406 
Q 353 903 353 1747 
Q 353 2603 823 3093 
Q 1294 3584 2113 3584 
Q 2378 3584 2631 3529 
Q 2884 3475 3122 3366 
z
" transform="scale(0.015625)"/>
       <path id="DejaVuSans-75" d="M 544 1381 
L 544 3500 
L 1119 3500 
L 1119 1403 
Q 1119 906 1312 657 
Q 1506 409 1894 409 
Q 2359 409 2629 706 
Q 2900 1003 2900 1516 
L 2900 3500 
L 3475 3500 
L 3475 0 
L 2900 0 
L 2900 538 
Q 2691 219 2414 64 
Q 2138 -91 1772 -91 
Q 1169 -91 856 284 
Q 544 659 544 1381 
z
M 1991 3584 
L 1991 3584 
z
" transform="scale(0.015625)"/>
       <path id="DejaVuSans-61" d="M 2194 1759 
Q 1497 1759 1228 1600 
Q 959 1441 959 1056 
Q 959 750 1161 570 
Q 1363 391 1709 391 
Q 2188 391 2477 730 
Q 2766 1069 2766 1631 
L 2766 1759 
L 2194 1759 
z
M 3341 1997 
L 3341 0 
L 2766 0 
L 2766 531 
Q 2569 213 2275 61 
Q 1981 -91 1556 -91 
Q 1019 -91 701 211 
Q 384 513 384 1019 
Q 384 1609 779 1909 
Q 1175 2209 1959 2209 
L 2766 2209 
L 2766 2266 
Q 2766 2663 2505 2880 
Q 2244 3097 1772 3097 
Q 1472 3097 1187 3025 
Q 903 2953 641 2809 
L 641 3341 
Q 956 3463 1253 3523 
Q 1550 3584 1831 3584 
Q 2591 3584 2966 3190 
Q 3341 2797 3341 1997 
z
" transform="scale(0.015625)"/>
       <path id="DejaVuSans-79" d="M 2059 -325 
Q 1816 -950 1584 -1140 
Q 1353 -1331 966 -1331 
L 506 -1331 
L 506 -850 
L 844 -850 
Q 1081 -850 1212 -737 
Q 1344 -625 1503 -206 
L 1606 56 
L 191 3500 
L 800 3500 
L 1894 763 
L 2988 3500 
L 3597 3500 
L 2059 -325 
z
" transform="scale(0.015625)"/>
      </defs>
      <use xlink:href="#DejaVuSans-43"/>
      <use xlink:href="#DejaVuSans-56" transform="translate(69.824219 0)"/>
      <use xlink:href="#DejaVuSans-20" transform="translate(138.232422 0)"/>
      <use xlink:href="#DejaVuSans-41" transform="translate(170.019531 0)"/>
      <use xlink:href="#DejaVuSans-63" transform="translate(236.677734 0)"/>
      <use xlink:href="#DejaVuSans-63" transform="translate(291.658203 0)"/>
      <use xlink:href="#DejaVuSans-75" transform="translate(346.638672 0)"/>
      <use xlink:href="#DejaVuSans-72" transform="translate(410.017578 0)"/>
      <use xlink:href="#DejaVuSans-61" transform="translate(451.130859 0)"/>
      <use xlink:href="#DejaVuSans-63" transform="translate(512.410156 0)"/>
      <use xlink:href="#DejaVuSans-79" transform="translate(567.390625 0)"/>
     </g>
    </g>
   </g>
   <g id="line2d_33">
    <path d="M 78.732784 161.677969 
L 232.663819 35.677969 
L 246.657549 77.677969 
L 260.651279 119.677969 
L 274.64501 119.677969 
L 288.63874 119.677969 
L 302.632471 119.677969 
L 316.626201 119.677969 
L 358.607392 119.677969 
L 372.601123 161.677969 
L 484.550966 287.677969 
" clip-path="url(#p0317956451)" style="fill: none; stroke: #2196f3; stroke-width: 2; stroke-linecap: square"/>
    <defs>
     <path id="mc623d4b7f5" d="M 0 2 
C 0.530406 2 1.03916 1.789267 1.414214 1.414214 
C 1.789267 1.03916 2 0.530406 2 0 
C 2 -0.530406 1.789267 -1.03916 1.414214 -1.414214 
C 1.03916 -1.789267 0.530406 -2 0 -2 
C -0.530406 -2 -1.03916 -1.789267 -1.414214 -1.414214 
C -1.789267 -1.03916 -2 -0.530406 -2 0 
C -2 0.530406 -1.789267 1.03916 -1.414214 1.414214 
C -1.03916 1.789267 -0.530406 2 0 2 
z
" style="stroke: #2196f3"/>
    </defs>
    <g clip-path="url(#p0317956451)">
     <use xlink:href="#mc623d4b7f5" x="78.732784" y="161.677969" style="fill: #2196f3; stroke: #2196f3"/>
     <use xlink:href="#mc623d4b7f5" x="232.663819" y="35.677969" style="fill: #2196f3; stroke: #2196f3"/>
     <use xlink:href="#mc623d4b7f5" x="246.657549" y="77.677969" style="fill: #2196f3; stroke: #2196f3"/>
     <use xlink:href="#mc623d4b7f5" x="260.651279" y="119.677969" style="fill: #2196f3; stroke: #2196f3"/>
     <use xlink:href="#mc623d4b7f5" x="274.64501" y="119.677969" style="fill: #2196f3; stroke: #2196f3"/>
     <use xlink:href="#mc623d4b7f5" x="288.63874" y="119.677969" style="fill: #2196f3; stroke: #2196f3"/>
     <use xlink:href="#mc623d4b7f5" x="302.632471" y="119.677969" style="fill: #2196f3; stroke: #2196f3"/>
     <use xlink:href="#mc623d4b7f5" x="316.626201" y="119.677969" style="fill: #2196f3; stroke: #2196f3"/>
     <use xlink:href="#mc623d4b7f5" x="358.607392" y="119.677969" style="fill: #2196f3; stroke: #2196f3"/>
     <use xlink:href="#mc623d4b7f5" x="372.601123" y="161.677969" style="fill: #2196f3; stroke: #2196f3"/>
     <use xlink:href="#mc623d4b7f5" x="484.550966" y="287.677969" style="fill: #2196f3; stroke: #2196f3"/>
    </g>
   </g>
   <g id="line2d_34">
    <path d="M 232.663819 300.277969 
L 232.663819 23.077969 
" clip-path="url(#p0317956451)" style="fill: none; stroke-dasharray: 7.4,3.2; stroke-dashoffset: 0; stroke: #f44336; stroke-width: 2"/>
   </g>
   <g id="patch_3">
    <path d="M 58.441875 300.277969 
L 58.441875 23.077969 
" style="fill: none; stroke: #000000; stroke-width: 0.8; stroke-linejoin: miter; stroke-linecap: square"/>
   </g>
   <g id="patch_4">
    <path d="M 504.841875 300.277969 
L 504.841875 23.077969 
" style="fill: none; stroke: #000000; stroke-width: 0.8; stroke-linejoin: miter; stroke-linecap: square"/>
   </g>
   <g id="patch_5">
    <path d="M 58.441875 300.277969 
L 504.841875 300.277969 
" style="fill: none; stroke: #000000; stroke-width: 0.8; stroke-linejoin: miter; stroke-linecap: square"/>
   </g>
   <g id="patch_6">
    <path d="M 58.441875 23.077969 
L 504.841875 23.077969 
" style="fill: none; stroke: #000000; stroke-width: 0.8; stroke-linejoin: miter; stroke-linecap: square"/>
   </g>
   <g id="text_19">
    <g id="patch_7">
     <path d="M 76.29755 153.97375 
L 81.168018 153.97375 
Q 82.008018 153.97375 82.008018 153.13375 
L 82.008018 146.359063 
Q 82.008018 145.519063 81.168018 145.519063 
L 76.29755 145.519063 
Q 75.45755 145.519063 75.45755 146.359063 
L 75.45755 153.13375 
Q 75.45755 153.97375 76.29755 153.97375 
z
" style="fill: #ffffff; opacity: 0.85; stroke: #795548; stroke-width: 0.4; stroke-linejoin: miter"/>
    </g>
    <!-- 1 -->
    <g style="fill: #795548" transform="translate(76.29755 151.677969) scale(0.07 -0.07)">
     <defs>
      <path id="DejaVuSans-Bold-31" d="M 750 831 
L 1813 831 
L 1813 3847 
L 722 3622 
L 722 4441 
L 1806 4666 
L 2950 4666 
L 2950 831 
L 4013 831 
L 4013 0 
L 750 0 
L 750 831 
z
" transform="scale(0.015625)"/>
     </defs>
     <use xlink:href="#DejaVuSans-Bold-31"/>
    </g>
   </g>
   <g id="text_20">
    <g id="patch_8">
     <path d="M 482.115732 279.97375 
L 486.9862 279.97375 
Q 487.8262 279.97375 487.8262 279.13375 
L 487.8262 272.359063 
Q 487.8262 271.519063 486.9862 271.519063 
L 482.115732 271.519063 
Q 481.275732 271.519063 481.275732 272.359063 
L 481.275732 279.13375 
Q 481.275732 279.97375 482.115732 279.97375 
z
" style="fill: #ffffff; opacity: 0.85; stroke: #795548; stroke-width: 0.4; stroke-linejoin: miter"/>
    </g>
    <!-- 2 -->
    <g style="fill: #795548" transform="translate(482.115732 277.677969) scale(0.07 -0.07)">
     <defs>
      <path id="DejaVuSans-Bold-32" d="M 1844 884 
L 3897 884 
L 3897 0 
L 506 0 
L 506 884 
L 2209 2388 
Q 2438 2594 2547 2791 
Q 2656 2988 2656 3200 
Q 2656 3528 2436 3728 
Q 2216 3928 1850 3928 
Q 1569 3928 1234 3808 
Q 900 3688 519 3450 
L 519 4475 
Q 925 4609 1322 4679 
Q 1719 4750 2100 4750 
Q 2938 4750 3402 4381 
Q 3866 4013 3866 3353 
Q 3866 2972 3669 2642 
Q 3472 2313 2841 1759 
L 1844 884 
z
" transform="scale(0.015625)"/>
     </defs>
     <use xlink:href="#DejaVuSans-Bold-32"/>
    </g>
   </g>
   <g id="text_21">
    <g id="patch_9">
     <path d="M 272.209775 111.97375 
L 277.080244 111.97375 
Q 277.920244 111.97375 277.920244 111.13375 
L 277.920244 104.359062 
Q 277.920244 103.519062 277.080244 103.519062 
L 272.209775 103.519062 
Q 271.369775 103.519062 271.369775 104.359062 
L 271.369775 111.13375 
Q 271.369775 111.97375 272.209775 111.97375 
z
" style="fill: #ffffff; opacity: 0.85; stroke: #4caf50; stroke-width: 0.4; stroke-linejoin: miter"/>
    </g>
    <!-- 3 -->
    <g style="fill: #4caf50" transform="translate(272.209775 109.677969) scale(0.07 -0.07)">
     <defs>
      <path id="DejaVuSans-Bold-33" d="M 2981 2516 
Q 3453 2394 3698 2092 
Q 3944 1791 3944 1325 
Q 3944 631 3412 270 
Q 2881 -91 1863 -91 
Q 1503 -91 1142 -33 
Q 781 25 428 141 
L 428 1069 
Q 766 900 1098 814 
Q 1431 728 1753 728 
Q 2231 728 2486 893 
Q 2741 1059 2741 1369 
Q 2741 1688 2480 1852 
Q 2219 2016 1709 2016 
L 1228 2016 
L 1228 2791 
L 1734 2791 
Q 2188 2791 2409 2933 
Q 2631 3075 2631 3366 
Q 2631 3634 2415 3781 
Q 2200 3928 1806 3928 
Q 1516 3928 1219 3862 
Q 922 3797 628 3669 
L 628 4550 
Q 984 4650 1334 4700 
Q 1684 4750 2022 4750 
Q 2931 4750 3382 4451 
Q 3834 4153 3834 3553 
Q 3834 3144 3618 2883 
Q 3403 2622 2981 2516 
z
" transform="scale(0.015625)"/>
     </defs>
     <use xlink:href="#DejaVuSans-Bold-33"/>
    </g>
   </g>
   <g id="text_22">
    <g id="patch_10">
     <path d="M 370.165888 153.97375 
L 375.036357 153.97375 
Q 375.876357 153.97375 375.876357 153.13375 
L 375.876357 146.359063 
Q 375.876357 145.519063 375.036357 145.519063 
L 370.165888 145.519063 
Q 369.325888 145.519063 369.325888 146.359063 
L 369.325888 153.13375 
Q 369.325888 153.97375 370.165888 153.97375 
z
" style="fill: #ffffff; opacity: 0.85; stroke: #4caf50; stroke-width: 0.4; stroke-linejoin: miter"/>
    </g>
    <!-- 4 -->
    <g style="fill: #4caf50" transform="translate(370.165888 151.677969) scale(0.07 -0.07)">
     <defs>
      <path id="DejaVuSans-Bold-34" d="M 2356 3675 
L 1038 1722 
L 2356 1722 
L 2356 3675 
z
M 2156 4666 
L 3494 4666 
L 3494 1722 
L 4159 1722 
L 4159 850 
L 3494 850 
L 3494 0 
L 2356 0 
L 2356 850 
L 288 850 
L 288 1881 
L 2156 4666 
z
" transform="scale(0.015625)"/>
     </defs>
     <use xlink:href="#DejaVuSans-Bold-34"/>
    </g>
   </g>
   <g id="text_23">
    <g id="patch_11">
     <path d="M 314.190967 111.97375 
L 319.061435 111.97375 
Q 319.901435 111.97375 319.901435 111.13375 
L 319.901435 104.359063 
Q 319.901435 103.519063 319.061435 103.519063 
L 314.190967 103.519063 
Q 313.350967 103.519063 313.350967 104.359063 
L 313.350967 111.13375 
Q 313.350967 111.97375 314.190967 111.97375 
z
" style="fill: #ffffff; opacity: 0.85; stroke: #4caf50; stroke-width: 0.4; stroke-linejoin: miter"/>
    </g>
    <!-- 5 -->
    <g style="fill: #4caf50" transform="translate(314.190967 109.677969) scale(0.07 -0.07)">
     <defs>
      <path id="DejaVuSans-Bold-35" d="M 678 4666 
L 3669 4666 
L 3669 3781 
L 1638 3781 
L 1638 3059 
Q 1775 3097 1914 3117 
Q 2053 3138 2203 3138 
Q 3056 3138 3531 2711 
Q 4006 2284 4006 1522 
Q 4006 766 3489 337 
Q 2972 -91 2053 -91 
Q 1656 -91 1267 -14 
Q 878 63 494 219 
L 494 1166 
Q 875 947 1217 837 
Q 1559 728 1863 728 
Q 2300 728 2551 942 
Q 2803 1156 2803 1522 
Q 2803 1891 2551 2103 
Q 2300 2316 1863 2316 
Q 1603 2316 1309 2248 
Q 1016 2181 678 2041 
L 678 4666 
z
" transform="scale(0.015625)"/>
     </defs>
     <use xlink:href="#DejaVuSans-Bold-35"/>
    </g>
   </g>
   <g id="text_24">
    <g id="patch_12">
     <path d="M 286.203506 101.89375 
L 291.073975 101.89375 
Q 291.913975 101.89375 291.913975 101.05375 
L 291.913975 94.279063 
Q 291.913975 93.439063 291.073975 93.439063 
L 286.203506 93.439063 
Q 285.363506 93.439063 285.363506 94.279063 
L 285.363506 101.05375 
Q 285.363506 101.89375 286.203506 101.89375 
z
" style="fill: #ffffff; opacity: 0.85; stroke: #4caf50; stroke-width: 0.4; stroke-linejoin: miter"/>
    </g>
    <!-- 6 -->
    <g style="fill: #4caf50" transform="translate(286.203506 99.597969) scale(0.07 -0.07)">
     <defs>
      <path id="DejaVuSans-Bold-36" d="M 2316 2303 
Q 2000 2303 1842 2098 
Q 1684 1894 1684 1484 
Q 1684 1075 1842 870 
Q 2000 666 2316 666 
Q 2634 666 2792 870 
Q 2950 1075 2950 1484 
Q 2950 1894 2792 2098 
Q 2634 2303 2316 2303 
z
M 3803 4544 
L 3803 3681 
Q 3506 3822 3243 3889 
Q 2981 3956 2731 3956 
Q 2194 3956 1894 3657 
Q 1594 3359 1544 2772 
Q 1750 2925 1990 3001 
Q 2231 3078 2516 3078 
Q 3231 3078 3670 2659 
Q 4109 2241 4109 1563 
Q 4109 813 3618 361 
Q 3128 -91 2303 -91 
Q 1394 -91 895 523 
Q 397 1138 397 2266 
Q 397 3422 980 4083 
Q 1563 4744 2578 4744 
Q 2900 4744 3203 4694 
Q 3506 4644 3803 4544 
z
" transform="scale(0.015625)"/>
     </defs>
     <use xlink:href="#DejaVuSans-Bold-36"/>
    </g>
   </g>
   <g id="text_25">
    <g id="patch_13">
     <path d="M 300.197236 101.89375 
L 305.067705 101.89375 
Q 305.907705 101.89375 305.907705 101.05375 
L 305.907705 94.279063 
Q 305.907705 93.439063 305.067705 93.439063 
L 300.197236 93.439063 
Q 299.357236 93.439063 299.357236 94.279063 
L 299.357236 101.05375 
Q 299.357236 101.89375 300.197236 101.89375 
z
" style="fill: #ffffff; opacity: 0.85; stroke: #4caf50; stroke-width: 0.4; stroke-linejoin: miter"/>
    </g>
    <!-- 7 -->
    <g style="fill: #4caf50" transform="translate(300.197236 99.597969) scale(0.07 -0.07)">
     <defs>
      <path id="DejaVuSans-Bold-37" d="M 428 4666 
L 3944 4666 
L 3944 3988 
L 2125 0 
L 953 0 
L 2675 3781 
L 428 3781 
L 428 4666 
z
" transform="scale(0.015625)"/>
     </defs>
     <use xlink:href="#DejaVuSans-Bold-37"/>
    </g>
   </g>
   <g id="text_26">
    <g id="patch_14">
     <path d="M 230.228584 27.97375 
L 235.099053 27.97375 
Q 235.939053 27.97375 235.939053 27.13375 
L 235.939053 20.359063 
Q 235.939053 19.519063 235.099053 19.519063 
L 230.228584 19.519063 
Q 229.388584 19.519063 229.388584 20.359063 
L 229.388584 27.13375 
Q 229.388584 27.97375 230.228584 27.97375 
z
" style="fill: #ffffff; opacity: 0.85; stroke: #e91e63; stroke-width: 0.4; stroke-linejoin: miter"/>
    </g>
    <!-- 8 -->
    <g style="fill: #e91e63" transform="translate(230.228584 25.677969) scale(0.07 -0.07)">
     <defs>
      <path id="DejaVuSans-Bold-38" d="M 2228 2088 
Q 1891 2088 1709 1903 
Q 1528 1719 1528 1375 
Q 1528 1031 1709 848 
Q 1891 666 2228 666 
Q 2563 666 2741 848 
Q 2919 1031 2919 1375 
Q 2919 1722 2741 1905 
Q 2563 2088 2228 2088 
z
M 1350 2484 
Q 925 2613 709 2878 
Q 494 3144 494 3541 
Q 494 4131 934 4440 
Q 1375 4750 2228 4750 
Q 3075 4750 3515 4442 
Q 3956 4134 3956 3541 
Q 3956 3144 3739 2878 
Q 3522 2613 3097 2484 
Q 3572 2353 3814 2058 
Q 4056 1763 4056 1313 
Q 4056 619 3595 264 
Q 3134 -91 2228 -91 
Q 1319 -91 855 264 
Q 391 619 391 1313 
Q 391 1763 633 2058 
Q 875 2353 1350 2484 
z
M 1631 3419 
Q 1631 3141 1786 2991 
Q 1941 2841 2228 2841 
Q 2509 2841 2662 2991 
Q 2816 3141 2816 3419 
Q 2816 3697 2662 3845 
Q 2509 3994 2228 3994 
Q 1941 3994 1786 3844 
Q 1631 3694 1631 3419 
z
" transform="scale(0.015625)"/>
     </defs>
     <use xlink:href="#DejaVuSans-Bold-38"/>
    </g>
   </g>
   <g id="text_27">
    <g id="patch_15">
     <path d="M 244.222315 69.97375 
L 249.092783 69.97375 
Q 249.932783 69.97375 249.932783 69.13375 
L 249.932783 62.359063 
Q 249.932783 61.519063 249.092783 61.519063 
L 244.222315 61.519063 
Q 243.382315 61.519063 243.382315 62.359063 
L 243.382315 69.13375 
Q 243.382315 69.97375 244.222315 69.97375 
z
" style="fill: #ffffff; opacity: 0.85; stroke: #e91e63; stroke-width: 0.4; stroke-linejoin: miter"/>
    </g>
    <!-- 9 -->
    <g style="fill: #e91e63" transform="translate(244.222315 67.677969) scale(0.07 -0.07)">
     <defs>
      <path id="DejaVuSans-Bold-39" d="M 641 103 
L 641 966 
Q 928 831 1190 764 
Q 1453 697 1709 697 
Q 2247 697 2547 995 
Q 2847 1294 2900 1881 
Q 2688 1725 2447 1647 
Q 2206 1569 1925 1569 
Q 1209 1569 770 1986 
Q 331 2403 331 3084 
Q 331 3838 820 4291 
Q 1309 4744 2131 4744 
Q 3044 4744 3544 4128 
Q 4044 3513 4044 2388 
Q 4044 1231 3459 570 
Q 2875 -91 1856 -91 
Q 1528 -91 1228 -42 
Q 928 6 641 103 
z
M 2125 2350 
Q 2441 2350 2600 2554 
Q 2759 2759 2759 3169 
Q 2759 3575 2600 3781 
Q 2441 3988 2125 3988 
Q 1809 3988 1650 3781 
Q 1491 3575 1491 3169 
Q 1491 2759 1650 2554 
Q 1809 2350 2125 2350 
z
" transform="scale(0.015625)"/>
     </defs>
     <use xlink:href="#DejaVuSans-Bold-39"/>
    </g>
   </g>
   <g id="patch_16">
    <path d="M 80.643107 162.271093 
Q 281.64329 224.678408 481.57572 286.754203 
" style="fill: none; opacity: 0.35; stroke: #795548; stroke-linecap: round"/>
    <path d="M 478.348655 283.658069 
L 481.57572 286.754203 
L 477.162574 287.478175 
" style="fill: none; opacity: 0.35; stroke: #795548; stroke-linecap: round"/>
   </g>
   <g id="patch_17">
    <path d="M 482.991148 286.429556 
Q 379.598551 203.678419 277.078838 121.625904 
" style="fill: none; opacity: 0.35; stroke: #795548; stroke-linecap: round"/>
    <path d="M 278.952036 125.686831 
L 277.078838 121.625904 
L 281.451498 122.563902 
" style="fill: none; opacity: 0.35; stroke: #795548; stroke-linecap: round"/>
   </g>
   <g id="patch_18">
    <path d="M 276.483481 120.466238 
Q 323.622719 140.67782 369.734394 160.44882 
" style="fill: none; opacity: 0.35; stroke: #4caf50; stroke-linecap: round"/>
    <path d="M 366.846206 157.034384 
L 369.734394 160.44882 
L 365.269932 160.710709 
" style="fill: none; opacity: 0.35; stroke: #4caf50; stroke-linecap: round"/>
   </g>
   <g id="patch_19">
    <path d="M 370.998813 160.475698 
Q 344.613959 140.678192 319.123387 121.551698 
" style="fill: none; opacity: 0.35; stroke: #4caf50; stroke-linecap: round"/>
    <path d="M 321.122527 125.552128 
L 319.123387 121.551698 
L 323.523215 122.352644 
" style="fill: none; opacity: 0.35; stroke: #4caf50; stroke-linecap: round"/>
   </g>
   <g id="patch_20">
    <path d="M 314.627585 119.677969 
Q 302.634076 119.677969 291.7586 119.677969 
" style="fill: none; opacity: 0.35; stroke: #4caf50; stroke-linecap: round"/>
    <path d="M 295.7586 121.677969 
L 291.7586 119.677969 
L 295.7586 117.677969 
" style="fill: none; opacity: 0.35; stroke: #4caf50; stroke-linecap: round"/>
   </g>
   <g id="patch_21">
    <path d="M 290.637356 119.677969 
Q 295.634833 119.677969 299.514275 119.677969 
" style="fill: none; opacity: 0.35; stroke: #4caf50; stroke-linecap: round"/>
    <path d="M 295.514275 117.677969 
L 299.514275 119.677969 
L 295.514275 121.677969 
" style="fill: none; opacity: 0.35; stroke: #4caf50; stroke-linecap: round"/>
   </g>
   <g id="patch_22">
    <path d="M 301.353442 118.142446 
Q 267.649032 77.679034 234.66018 38.074676 
" style="fill: none; opacity: 0.35; stroke: #4caf50; stroke-linecap: round"/>
    <path d="M 235.683517 42.428156 
L 234.66018 38.074676 
L 238.756966 39.868095 
" style="fill: none; opacity: 0.35; stroke: #4caf50; stroke-linecap: round"/>
   </g>
   <g id="patch_23">
    <path d="M 233.296714 37.577505 
Q 239.661133 56.679316 245.672141 74.720419 
" style="fill: none; opacity: 0.35; stroke: #e91e63; stroke-linecap: round"/>
    <path d="M 246.305191 70.293315 
L 245.672141 74.720419 
L 242.510288 71.557717 
" style="fill: none; opacity: 0.35; stroke: #e91e63; stroke-linecap: round"/>
   </g>
   <g id="text_28">
    <!-- sklearn: KNN on Iris (5-fold CV accuracy, binary search) -->
    <g transform="translate(101.172422 17.077969) scale(0.13 -0.13)">
     <defs>
      <path id="DejaVuSans-6b" d="M 581 4863 
L 1159 4863 
L 1159 1991 
L 2875 3500 
L 3609 3500 
L 1753 1863 
L 3688 0 
L 2938 0 
L 1159 1709 
L 1159 0 
L 581 0 
L 581 4863 
z
" transform="scale(0.015625)"/>
      <path id="DejaVuSans-6c" d="M 603 4863 
L 1178 4863 
L 1178 0 
L 603 0 
L 603 4863 
z
" transform="scale(0.015625)"/>
      <path id="DejaVuSans-3a" d="M 750 794 
L 1409 794 
L 1409 0 
L 750 0 
L 750 794 
z
M 750 3309 
L 1409 3309 
L 1409 2516 
L 750 2516 
L 750 3309 
z
" transform="scale(0.015625)"/>
      <path id="DejaVuSans-4e" d="M 628 4666 
L 1478 4666 
L 3547 763 
L 3547 4666 
L 4159 4666 
L 4159 0 
L 3309 0 
L 1241 3903 
L 1241 0 
L 628 0 
L 628 4666 
z
" transform="scale(0.015625)"/>
      <path id="DejaVuSans-49" d="M 628 4666 
L 1259 4666 
L 1259 0 
L 628 0 
L 628 4666 
z
" transform="scale(0.015625)"/>
      <path id="DejaVuSans-2d" d="M 313 2009 
L 1997 2009 
L 1997 1497 
L 313 1497 
L 313 2009 
z
" transform="scale(0.015625)"/>
      <path id="DejaVuSans-66" d="M 2375 4863 
L 2375 4384 
L 1825 4384 
Q 1516 4384 1395 4259 
Q 1275 4134 1275 3809 
L 1275 3500 
L 2222 3500 
L 2222 3053 
L 1275 3053 
L 1275 0 
L 697 0 
L 697 3053 
L 147 3053 
L 147 3500 
L 697 3500 
L 697 3744 
Q 697 4328 969 4595 
Q 1241 4863 1831 4863 
L 2375 4863 
z
" transform="scale(0.015625)"/>
      <path id="DejaVuSans-64" d="M 2906 2969 
L 2906 4863 
L 3481 4863 
L 3481 0 
L 2906 0 
L 2906 525 
Q 2725 213 2448 61 
Q 2172 -91 1784 -91 
Q 1150 -91 751 415 
Q 353 922 353 1747 
Q 353 2572 751 3078 
Q 1150 3584 1784 3584 
Q 2172 3584 2448 3432 
Q 2725 3281 2906 2969 
z
M 947 1747 
Q 947 1113 1208 752 
Q 1469 391 1925 391 
Q 2381 391 2643 752 
Q 2906 1113 2906 1747 
Q 2906 2381 2643 2742 
Q 2381 3103 1925 3103 
Q 1469 3103 1208 2742 
Q 947 2381 947 1747 
z
" transform="scale(0.015625)"/>
      <path id="DejaVuSans-2c" d="M 750 794 
L 1409 794 
L 1409 256 
L 897 -744 
L 494 -744 
L 750 256 
L 750 794 
z
" transform="scale(0.015625)"/>
     </defs>
     <use xlink:href="#DejaVuSans-73"/>
     <use xlink:href="#DejaVuSans-6b" transform="translate(52.099609 0)"/>
     <use xlink:href="#DejaVuSans-6c" transform="translate(110.009766 0)"/>
     <use xlink:href="#DejaVuSans-65" transform="translate(137.792969 0)"/>
     <use xlink:href="#DejaVuSans-61" transform="translate(199.316406 0)"/>
     <use xlink:href="#DejaVuSans-72" transform="translate(260.595703 0)"/>
     <use xlink:href="#DejaVuSans-6e" transform="translate(299.958984 0)"/>
     <use xlink:href="#DejaVuSans-3a" transform="translate(363.337891 0)"/>
     <use xlink:href="#DejaVuSans-20" transform="translate(397.029297 0)"/>
     <use xlink:href="#DejaVuSans-4b" transform="translate(428.816406 0)"/>
     <use xlink:href="#DejaVuSans-4e" transform="translate(494.392578 0)"/>
     <use xlink:href="#DejaVuSans-4e" transform="translate(569.197266 0)"/>
     <use xlink:href="#DejaVuSans-20" transform="translate(644.001953 0)"/>
     <use xlink:href="#DejaVuSans-6f" transform="translate(675.789062 0)"/>
     <use xlink:href="#DejaVuSans-6e" transform="translate(736.970703 0)"/>
     <use xlink:href="#DejaVuSans-20" transform="translate(800.349609 0)"/>
     <use xlink:href="#DejaVuSans-49" transform="translate(832.136719 0)"/>
     <use xlink:href="#DejaVuSans-72" transform="translate(861.628906 0)"/>
     <use xlink:href="#DejaVuSans-69" transform="translate(902.742188 0)"/>
     <use xlink:href="#DejaVuSans-73" transform="translate(930.525391 0)"/>
     <use xlink:href="#DejaVuSans-20" transform="translate(982.625 0)"/>
     <use xlink:href="#DejaVuSans-28" transform="translate(1014.412109 0)"/>
     <use xlink:href="#DejaVuSans-35" transform="translate(1053.425781 0)"/>
     <use xlink:href="#DejaVuSans-2d" transform="translate(1117.048828 0)"/>
     <use xlink:href="#DejaVuSans-66" transform="translate(1153.132812 0)"/>
     <use xlink:href="#DejaVuSans-6f" transform="translate(1188.337891 0)"/>
     <use xlink:href="#DejaVuSans-6c" transform="translate(1249.519531 0)"/>
     <use xlink:href="#DejaVuSans-64" transform="translate(1277.302734 0)"/>
     <use xlink:href="#DejaVuSans-20" transform="translate(1340.779297 0)"/>
     <use xlink:href="#DejaVuSans-43" transform="translate(1372.566406 0)"/>
     <use xlink:href="#DejaVuSans-56" transform="translate(1442.390625 0)"/>
     <use xlink:href="#DejaVuSans-20" transform="translate(1510.798828 0)"/>
     <use xlink:href="#DejaVuSans-61" transform="translate(1542.585938 0)"/>
     <use xlink:href="#DejaVuSans-63" transform="translate(1603.865234 0)"/>
     <use xlink:href="#DejaVuSans-63" transform="translate(1658.845703 0)"/>
     <use xlink:href="#DejaVuSans-75" transform="translate(1713.826172 0)"/>
     <use xlink:href="#DejaVuSans-72" transform="translate(1777.205078 0)"/>
     <use xlink:href="#DejaVuSans-61" transform="translate(1818.318359 0)"/>
     <use xlink:href="#DejaVuSans-63" transform="translate(1879.597656 0)"/>
     <use xlink:href="#DejaVuSans-79" transform="translate(1934.578125 0)"/>
     <use xlink:href="#DejaVuSans-2c" transform="translate(1993.757812 0)"/>
     <use xlink:href="#DejaVuSans-20" transform="translate(2025.544922 0)"/>
     <use xlink:href="#DejaVuSans-62" transform="translate(2057.332031 0)"/>
     <use xlink:href="#DejaVuSans-69" transform="translate(2120.808594 0)"/>
     <use xlink:href="#DejaVuSans-6e" transform="translate(2148.591797 0)"/>
     <use xlink:href="#DejaVuSans-61" transform="translate(2211.970703 0)"/>
     <use xlink:href="#DejaVuSans-72" transform="translate(2273.25 0)"/>
     <use xlink:href="#DejaVuSans-79" transform="translate(2314.363281 0)"/>
     <use xlink:href="#DejaVuSans-20" transform="translate(2373.542969 0)"/>
     <use xlink:href="#DejaVuSans-73" transform="translate(2405.330078 0)"/>
     <use xlink:href="#DejaVuSans-65" transform="translate(2457.429688 0)"/>
     <use xlink:href="#DejaVuSans-61" transform="translate(2518.953125 0)"/>
     <use xlink:href="#DejaVuSans-72" transform="translate(2580.232422 0)"/>
     <use xlink:href="#DejaVuSans-63" transform="translate(2619.095703 0)"/>
     <use xlink:href="#DejaVuSans-68" transform="translate(2674.076172 0)"/>
     <use xlink:href="#DejaVuSans-29" transform="translate(2737.455078 0)"/>
    </g>
   </g>
   <g id="line2d_35">
    <defs>
     <path id="m0194b3a8f6" d="M 0 3.5 
C 0.928211 3.5 1.81853 3.131218 2.474874 2.474874 
C 3.131218 1.81853 3.5 0.928211 3.5 0 
C 3.5 -0.928211 3.131218 -1.81853 2.474874 -2.474874 
C 1.81853 -3.131218 0.928211 -3.5 0 -3.5 
C -0.928211 -3.5 -1.81853 -3.131218 -2.474874 -2.474874 
C -3.131218 -1.81853 -3.5 -0.928211 -3.5 0 
C -3.5 0.928211 -3.131218 1.81853 -2.474874 2.474874 
C -1.81853 3.131218 -0.928211 3.5 0 3.5 
z
" style="stroke: #795548"/>
    </defs>
    <g clip-path="url(#p0317956451)">
     <use xlink:href="#m0194b3a8f6" x="78.732784" y="161.677969" style="fill: #795548; stroke: #795548"/>
    </g>
   </g>
   <g id="line2d_36">
    <g clip-path="url(#p0317956451)">
     <use xlink:href="#m0194b3a8f6" x="484.550966" y="287.677969" style="fill: #795548; stroke: #795548"/>
    </g>
   </g>
   <g id="line2d_37">
    <defs>
     <path id="mef106bd539" d="M 0 3.5 
C 0.928211 3.5 1.81853 3.131218 2.474874 2.474874 
C 3.131218 1.81853 3.5 0.928211 3.5 0 
C 3.5 -0.928211 3.131218 -1.81853 2.474874 -2.474874 
C 1.81853 -3.131218 0.928211 -3.5 0 -3.5 
C -0.928211 -3.5 -1.81853 -3.131218 -2.474874 -2.474874 
C -3.131218 -1.81853 -3.5 -0.928211 -3.5 0 
C -3.5 0.928211 -3.131218 1.81853 -2.474874 2.474874 
C -1.81853 3.131218 -0.928211 3.5 0 3.5 
z
" style="stroke: #4caf50"/>
    </defs>
    <g clip-path="url(#p0317956451)">
     <use xlink:href="#mef106bd539" x="274.64501" y="119.677969" style="fill: #4caf50; stroke: #4caf50"/>
    </g>
   </g>
   <g id="line2d_38">
    <g clip-path="url(#p0317956451)">
     <use xlink:href="#mef106bd539" x="372.601123" y="161.677969" style="fill: #4caf50; stroke: #4caf50"/>
    </g>
   </g>
   <g id="line2d_39">
    <g clip-path="url(#p0317956451)">
     <use xlink:href="#mef106bd539" x="316.626201" y="119.677969" style="fill: #4caf50; stroke: #4caf50"/>
    </g>
   </g>
   <g id="line2d_40">
    <g clip-path="url(#p0317956451)">
     <use xlink:href="#mef106bd539" x="288.63874" y="119.677969" style="fill: #4caf50; stroke: #4caf50"/>
    </g>
   </g>
   <g id="line2d_41">
    <g clip-path="url(#p0317956451)">
     <use xlink:href="#mef106bd539" x="302.632471" y="119.677969" style="fill: #4caf50; stroke: #4caf50"/>
    </g>
   </g>
   <g id="line2d_42">
    <defs>
     <path id="m47f135b19a" d="M 0 3.5 
C 0.928211 3.5 1.81853 3.131218 2.474874 2.474874 
C 3.131218 1.81853 3.5 0.928211 3.5 0 
C 3.5 -0.928211 3.131218 -1.81853 2.474874 -2.474874 
C 1.81853 -3.131218 0.928211 -3.5 0 -3.5 
C -0.928211 -3.5 -1.81853 -3.131218 -2.474874 -2.474874 
C -3.131218 -1.81853 -3.5 -0.928211 -3.5 0 
C -3.5 0.928211 -3.131218 1.81853 -2.474874 2.474874 
C -1.81853 3.131218 -0.928211 3.5 0 3.5 
z
" style="stroke: #e91e63"/>
    </defs>
    <g clip-path="url(#p0317956451)">
     <use xlink:href="#m47f135b19a" x="232.663819" y="35.677969" style="fill: #e91e63; stroke: #e91e63"/>
    </g>
   </g>
   <g id="line2d_43">
    <g clip-path="url(#p0317956451)">
     <use xlink:href="#m47f135b19a" x="246.657549" y="77.677969" style="fill: #e91e63; stroke: #e91e63"/>
    </g>
   </g>
   <g id="legend_1">
    <g id="patch_24">
     <path d="M 433.179375 60.434219 
L 497.841875 60.434219 
Q 499.841875 60.434219 499.841875 58.434219 
L 499.841875 30.077969 
Q 499.841875 28.077969 497.841875 28.077969 
L 433.179375 28.077969 
Q 431.179375 28.077969 431.179375 30.077969 
L 431.179375 58.434219 
Q 431.179375 60.434219 433.179375 60.434219 
z
" style="fill: #ffffff; opacity: 0.8; stroke: #cccccc; stroke-linejoin: miter"/>
    </g>
    <g id="line2d_44">
     <path d="M 435.179375 36.176406 
L 445.179375 36.176406 
L 455.179375 36.176406 
" style="fill: none; stroke: #2196f3; stroke-width: 2; stroke-linecap: square"/>
     <g>
      <use xlink:href="#mc623d4b7f5" x="445.179375" y="36.176406" style="fill: #2196f3; stroke: #2196f3"/>
     </g>
    </g>
    <g id="text_29">
     <!-- f(K) -->
     <g transform="translate(463.179375 39.676406) scale(0.1 -0.1)">
      <use xlink:href="#DejaVuSans-66"/>
      <use xlink:href="#DejaVuSans-28" transform="translate(35.205078 0)"/>
      <use xlink:href="#DejaVuSans-4b" transform="translate(74.21875 0)"/>
      <use xlink:href="#DejaVuSans-29" transform="translate(139.794922 0)"/>
     </g>
    </g>
    <g id="line2d_45">
     <path d="M 435.179375 50.854531 
L 445.179375 50.854531 
L 455.179375 50.854531 
" style="fill: none; stroke-dasharray: 7.4,3.2; stroke-dashoffset: 0; stroke: #f44336; stroke-width: 2"/>
    </g>
    <g id="text_30">
     <!-- K*=12 -->
     <g transform="translate(463.179375 54.354531) scale(0.1 -0.1)">
      <defs>
       <path id="DejaVuSans-2a" d="M 3009 3897 
L 1888 3291 
L 3009 2681 
L 2828 2375 
L 1778 3009 
L 1778 1831 
L 1422 1831 
L 1422 3009 
L 372 2375 
L 191 2681 
L 1313 3291 
L 191 3897 
L 372 4206 
L 1422 3572 
L 1422 4750 
L 1778 4750 
L 1778 3572 
L 2828 4206 
L 3009 3897 
z
" transform="scale(0.015625)"/>
       <path id="DejaVuSans-3d" d="M 678 2906 
L 4684 2906 
L 4684 2381 
L 678 2381 
L 678 2906 
z
M 678 1631 
L 4684 1631 
L 4684 1100 
L 678 1100 
L 678 1631 
z
" transform="scale(0.015625)"/>
      </defs>
      <use xlink:href="#DejaVuSans-4b"/>
      <use xlink:href="#DejaVuSans-2a" transform="translate(65.576172 0)"/>
      <use xlink:href="#DejaVuSans-3d" transform="translate(115.576172 0)"/>
      <use xlink:href="#DejaVuSans-31" transform="translate(199.365234 0)"/>
      <use xlink:href="#DejaVuSans-32" transform="translate(262.988281 0)"/>
     </g>
    </g>
   </g>
  </g>
 </g>
 <defs>
  <clipPath id="p0317956451">
   <rect x="58.441875" y="23.077969" width="446.4" height="277.2"/>
  </clipPath>
 </defs>
</svg>
