<?xml version="1.0" encoding="utf-8" standalone="no"?>
<!DOCTYPE svg PUBLIC "-//W3C//DTD SVG 1.1//EN"
  "http://www.w3.org/Graphics/SVG/1.1/DTD/svg11.dtd">
<svg xmlns:xlink="http://www.w3.org/1999/xlink" width="517.243437pt" height="339.769844pt" viewBox="0 0 517.243437 339.769844" xmlns="http://www.w3.org/2000/svg" version="1.1">
 <metadata>
  <rdf:RDF xmlns:dc="http://purl.org/dc/elements/1.1/" xmlns:cc="http://creativecommons.org/ns#" xmlns:rdf="http://www.w3.org/1999/02/22-rdf-syntax-ns#">
   <cc:Work>
    <dc:type rdf:resource="http://purl.org/dc/dcmitype/StillImage"/>
    <dc:date>2026-06-03T22:40:32.642229</dc:date>
    <dc:format>image/svg+xml</dc:format>
    <dc:creator>
     <cc:Agent>
      <dc:title>Matplotlib v3.10.8, https://matplotlib.org/</dc:title>
     </cc:Agent>
    </dc:creator>
   </cc:Work>
  </rdf:RDF>
 </metadata>
 <defs>
  <style type="text/css">*{stroke-linejoin: round; stroke-linecap: butt}</style>
 </defs>
 <g id="figure_1">
  <g id="patch_1">
   <path d="M 0 339.769844 
L 517.243437 339.769844 
L 517.243437 0 
L 0 0 
z
" style="fill: #ffffff"/>
  </g>
  <g id="axes_1">
   <g id="patch_2">
    <path d="M 63.643437 300.277969 
L 510.043437 300.277969 
L 510.043437 23.077969 
L 63.643437 23.077969 
z
" style="fill: #ffffff"/>
   </g>
   <g id="matplotlib.axis_1">
    <g id="xtick_1">
     <g id="line2d_1">
      <path d="M 133.771667 300.277969 
L 133.771667 23.077969 
" clip-path="url(#pdff7af92e0)" style="fill: none; stroke: #b0b0b0; stroke-opacity: 0.3; stroke-width: 0.8; stroke-linecap: square"/>
     </g>
     <g id="line2d_2">
      <defs>
       <path id="m9d665dfcc3" d="M 0 0 
L 0 3.5 
" style="stroke: #000000; stroke-width: 0.8"/>
      </defs>
      <g>
       <use xlink:href="#m9d665dfcc3" x="133.771667" y="300.277969" style="stroke: #000000; stroke-width: 0.8"/>
      </g>
     </g>
     <g id="text_1">
      <!-- 10 -->
      <g transform="translate(127.409167 314.876406) scale(0.1 -0.1)">
       <defs>
        <path id="DejaVuSans-31" d="M 794 531 
L 1825 531 
L 1825 4091 
L 703 3866 
L 703 4441 
L 1819 4666 
L 2450 4666 
L 2450 531 
L 3481 531 
L 3481 0 
L 794 0 
L 794 531 
z
" transform="scale(0.015625)"/>
        <path id="DejaVuSans-30" d="M 2034 4250 
Q 1547 4250 1301 3770 
Q 1056 3291 1056 2328 
Q 1056 1369 1301 889 
Q 1547 409 2034 409 
Q 2525 409 2770 889 
Q 3016 1369 3016 2328 
Q 3016 3291 2770 3770 
Q 2525 4250 2034 4250 
z
M 2034 4750 
Q 2819 4750 3233 4129 
Q 3647 3509 3647 2328 
Q 3647 1150 3233 529 
Q 2819 -91 2034 -91 
Q 1250 -91 836 529 
Q 422 1150 422 2328 
Q 422 3509 836 4129 
Q 1250 4750 2034 4750 
z
" transform="scale(0.015625)"/>
       </defs>
       <use xlink:href="#DejaVuSans-31"/>
       <use xlink:href="#DejaVuSans-30" transform="translate(63.623047 0)"/>
      </g>
     </g>
    </g>
    <g id="xtick_2">
     <g id="line2d_3">
      <path d="M 204.967839 300.277969 
L 204.967839 23.077969 
" clip-path="url(#pdff7af92e0)" style="fill: none; stroke: #b0b0b0; stroke-opacity: 0.3; stroke-width: 0.8; stroke-linecap: square"/>
     </g>
     <g id="line2d_4">
      <g>
       <use xlink:href="#m9d665dfcc3" x="204.967839" y="300.277969" style="stroke: #000000; stroke-width: 0.8"/>
      </g>
     </g>
     <g id="text_2">
      <!-- 20 -->
      <g transform="translate(198.605339 314.876406) scale(0.1 -0.1)">
       <defs>
        <path id="DejaVuSans-32" d="M 1228 531 
L 3431 531 
L 3431 0 
L 469 0 
L 469 531 
Q 828 903 1448 1529 
Q 2069 2156 2228 2338 
Q 2531 2678 2651 2914 
Q 2772 3150 2772 3378 
Q 2772 3750 2511 3984 
Q 2250 4219 1831 4219 
Q 1534 4219 1204 4116 
Q 875 4013 500 3803 
L 500 4441 
Q 881 4594 1212 4672 
Q 1544 4750 1819 4750 
Q 2544 4750 2975 4387 
Q 3406 4025 3406 3419 
Q 3406 3131 3298 2873 
Q 3191 2616 2906 2266 
Q 2828 2175 2409 1742 
Q 1991 1309 1228 531 
z
" transform="scale(0.015625)"/>
       </defs>
       <use xlink:href="#DejaVuSans-32"/>
       <use xlink:href="#DejaVuSans-30" transform="translate(63.623047 0)"/>
      </g>
     </g>
    </g>
    <g id="xtick_3">
     <g id="line2d_5">
      <path d="M 276.164012 300.277969 
L 276.164012 23.077969 
" clip-path="url(#pdff7af92e0)" style="fill: none; stroke: #b0b0b0; stroke-opacity: 0.3; stroke-width: 0.8; stroke-linecap: square"/>
     </g>
     <g id="line2d_6">
      <g>
       <use xlink:href="#m9d665dfcc3" x="276.164012" y="300.277969" style="stroke: #000000; stroke-width: 0.8"/>
      </g>
     </g>
     <g id="text_3">
      <!-- 30 -->
      <g transform="translate(269.801512 314.876406) scale(0.1 -0.1)">
       <defs>
        <path id="DejaVuSans-33" d="M 2597 2516 
Q 3050 2419 3304 2112 
Q 3559 1806 3559 1356 
Q 3559 666 3084 287 
Q 2609 -91 1734 -91 
Q 1441 -91 1130 -33 
Q 819 25 488 141 
L 488 750 
Q 750 597 1062 519 
Q 1375 441 1716 441 
Q 2309 441 2620 675 
Q 2931 909 2931 1356 
Q 2931 1769 2642 2001 
Q 2353 2234 1838 2234 
L 1294 2234 
L 1294 2753 
L 1863 2753 
Q 2328 2753 2575 2939 
Q 2822 3125 2822 3475 
Q 2822 3834 2567 4026 
Q 2313 4219 1838 4219 
Q 1578 4219 1281 4162 
Q 984 4106 628 3988 
L 628 4550 
Q 988 4650 1302 4700 
Q 1616 4750 1894 4750 
Q 2613 4750 3031 4423 
Q 3450 4097 3450 3541 
Q 3450 3153 3228 2886 
Q 3006 2619 2597 2516 
z
" transform="scale(0.015625)"/>
       </defs>
       <use xlink:href="#DejaVuSans-33"/>
       <use xlink:href="#DejaVuSans-30" transform="translate(63.623047 0)"/>
      </g>
     </g>
    </g>
    <g id="xtick_4">
     <g id="line2d_7">
      <path d="M 347.360184 300.277969 
L 347.360184 23.077969 
" clip-path="url(#pdff7af92e0)" style="fill: none; stroke: #b0b0b0; stroke-opacity: 0.3; stroke-width: 0.8; stroke-linecap: square"/>
     </g>
     <g id="line2d_8">
      <g>
       <use xlink:href="#m9d665dfcc3" x="347.360184" y="300.277969" style="stroke: #000000; stroke-width: 0.8"/>
      </g>
     </g>
     <g id="text_4">
      <!-- 40 -->
      <g transform="translate(340.997684 314.876406) scale(0.1 -0.1)">
       <defs>
        <path id="DejaVuSans-34" d="M 2419 4116 
L 825 1625 
L 2419 1625 
L 2419 4116 
z
M 2253 4666 
L 3047 4666 
L 3047 1625 
L 3713 1625 
L 3713 1100 
L 3047 1100 
L 3047 0 
L 2419 0 
L 2419 1100 
L 313 1100 
L 313 1709 
L 2253 4666 
z
" transform="scale(0.015625)"/>
       </defs>
       <use xlink:href="#DejaVuSans-34"/>
       <use xlink:href="#DejaVuSans-30" transform="translate(63.623047 0)"/>
      </g>
     </g>
    </g>
    <g id="xtick_5">
     <g id="line2d_9">
      <path d="M 418.556356 300.277969 
L 418.556356 23.077969 
" clip-path="url(#pdff7af92e0)" style="fill: none; stroke: #b0b0b0; stroke-opacity: 0.3; stroke-width: 0.8; stroke-linecap: square"/>
     </g>
     <g id="line2d_10">
      <g>
       <use xlink:href="#m9d665dfcc3" x="418.556356" y="300.277969" style="stroke: #000000; stroke-width: 0.8"/>
      </g>
     </g>
     <g id="text_5">
      <!-- 50 -->
      <g transform="translate(412.193856 314.876406) scale(0.1 -0.1)">
       <defs>
        <path id="DejaVuSans-35" d="M 691 4666 
L 3169 4666 
L 3169 4134 
L 1269 4134 
L 1269 2991 
Q 1406 3038 1543 3061 
Q 1681 3084 1819 3084 
Q 2600 3084 3056 2656 
Q 3513 2228 3513 1497 
Q 3513 744 3044 326 
Q 2575 -91 1722 -91 
Q 1428 -91 1123 -41 
Q 819 9 494 109 
L 494 744 
Q 775 591 1075 516 
Q 1375 441 1709 441 
Q 2250 441 2565 725 
Q 2881 1009 2881 1497 
Q 2881 1984 2565 2268 
Q 2250 2553 1709 2553 
Q 1456 2553 1204 2497 
Q 953 2441 691 2322 
L 691 4666 
z
" transform="scale(0.015625)"/>
       </defs>
       <use xlink:href="#DejaVuSans-35"/>
       <use xlink:href="#DejaVuSans-30" transform="translate(63.623047 0)"/>
      </g>
     </g>
    </g>
    <g id="xtick_6">
     <g id="line2d_11">
      <path d="M 489.752528 300.277969 
L 489.752528 23.077969 
" clip-path="url(#pdff7af92e0)" style="fill: none; stroke: #b0b0b0; stroke-opacity: 0.3; stroke-width: 0.8; stroke-linecap: square"/>
     </g>
     <g id="line2d_12">
      <g>
       <use xlink:href="#m9d665dfcc3" x="489.752528" y="300.277969" style="stroke: #000000; stroke-width: 0.8"/>
      </g>
     </g>
     <g id="text_6">
      <!-- 60 -->
      <g transform="translate(483.390028 314.876406) scale(0.1 -0.1)">
       <defs>
        <path id="DejaVuSans-36" d="M 2113 2584 
Q 1688 2584 1439 2293 
Q 1191 2003 1191 1497 
Q 1191 994 1439 701 
Q 1688 409 2113 409 
Q 2538 409 2786 701 
Q 3034 994 3034 1497 
Q 3034 2003 2786 2293 
Q 2538 2584 2113 2584 
z
M 3366 4563 
L 3366 3988 
Q 3128 4100 2886 4159 
Q 2644 4219 2406 4219 
Q 1781 4219 1451 3797 
Q 1122 3375 1075 2522 
Q 1259 2794 1537 2939 
Q 1816 3084 2150 3084 
Q 2853 3084 3261 2657 
Q 3669 2231 3669 1497 
Q 3669 778 3244 343 
Q 2819 -91 2113 -91 
Q 1303 -91 875 529 
Q 447 1150 447 2328 
Q 447 3434 972 4092 
Q 1497 4750 2381 4750 
Q 2619 4750 2861 4703 
Q 3103 4656 3366 4563 
z
" transform="scale(0.015625)"/>
       </defs>
       <use xlink:href="#DejaVuSans-36"/>
       <use xlink:href="#DejaVuSans-30" transform="translate(63.623047 0)"/>
      </g>
     </g>
    </g>
    <g id="text_7">
     <!-- Number of bins -->
     <g transform="translate(240.739062 330.074219) scale(0.12 -0.12)">
      <defs>
       <path id="DejaVuSans-4e" d="M 628 4666 
L 1478 4666 
L 3547 763 
L 3547 4666 
L 4159 4666 
L 4159 0 
L 3309 0 
L 1241 3903 
L 1241 0 
L 628 0 
L 628 4666 
z
" transform="scale(0.015625)"/>
       <path id="DejaVuSans-75" d="M 544 1381 
L 544 3500 
L 1119 3500 
L 1119 1403 
Q 1119 906 1312 657 
Q 1506 409 1894 409 
Q 2359 409 2629 706 
Q 2900 1003 2900 1516 
L 2900 3500 
L 3475 3500 
L 3475 0 
L 2900 0 
L 2900 538 
Q 2691 219 2414 64 
Q 2138 -91 1772 -91 
Q 1169 -91 856 284 
Q 544 659 544 1381 
z
M 1991 3584 
L 1991 3584 
z
" transform="scale(0.015625)"/>
       <path id="DejaVuSans-6d" d="M 3328 2828 
Q 3544 3216 3844 3400 
Q 4144 3584 4550 3584 
Q 5097 3584 5394 3201 
Q 5691 2819 5691 2113 
L 5691 0 
L 5113 0 
L 5113 2094 
Q 5113 2597 4934 2840 
Q 4756 3084 4391 3084 
Q 3944 3084 3684 2787 
Q 3425 2491 3425 1978 
L 3425 0 
L 2847 0 
L 2847 2094 
Q 2847 2600 2669 2842 
Q 2491 3084 2119 3084 
Q 1678 3084 1418 2786 
Q 1159 2488 1159 1978 
L 1159 0 
L 581 0 
L 581 3500 
L 1159 3500 
L 1159 2956 
Q 1356 3278 1631 3431 
Q 1906 3584 2284 3584 
Q 2666 3584 2933 3390 
Q 3200 3197 3328 2828 
z
" transform="scale(0.015625)"/>
       <path id="DejaVuSans-62" d="M 3116 1747 
Q 3116 2381 2855 2742 
Q 2594 3103 2138 3103 
Q 1681 3103 1420 2742 
Q 1159 2381 1159 1747 
Q 1159 1113 1420 752 
Q 1681 391 2138 391 
Q 2594 391 2855 752 
Q 3116 1113 3116 1747 
z
M 1159 2969 
Q 1341 3281 1617 3432 
Q 1894 3584 2278 3584 
Q 2916 3584 3314 3078 
Q 3713 2572 3713 1747 
Q 3713 922 3314 415 
Q 2916 -91 2278 -91 
Q 1894 -91 1617 61 
Q 1341 213 1159 525 
L 1159 0 
L 581 0 
L 581 4863 
L 1159 4863 
L 1159 2969 
z
" transform="scale(0.015625)"/>
       <path id="DejaVuSans-65" d="M 3597 1894 
L 3597 1613 
L 953 1613 
Q 991 1019 1311 708 
Q 1631 397 2203 397 
Q 2534 397 2845 478 
Q 3156 559 3463 722 
L 3463 178 
Q 3153 47 2828 -22 
Q 2503 -91 2169 -91 
Q 1331 -91 842 396 
Q 353 884 353 1716 
Q 353 2575 817 3079 
Q 1281 3584 2069 3584 
Q 2775 3584 3186 3129 
Q 3597 2675 3597 1894 
z
M 3022 2063 
Q 3016 2534 2758 2815 
Q 2500 3097 2075 3097 
Q 1594 3097 1305 2825 
Q 1016 2553 972 2059 
L 3022 2063 
z
" transform="scale(0.015625)"/>
       <path id="DejaVuSans-72" d="M 2631 2963 
Q 2534 3019 2420 3045 
Q 2306 3072 2169 3072 
Q 1681 3072 1420 2755 
Q 1159 2438 1159 1844 
L 1159 0 
L 581 0 
L 581 3500 
L 1159 3500 
L 1159 2956 
Q 1341 3275 1631 3429 
Q 1922 3584 2338 3584 
Q 2397 3584 2469 3576 
Q 2541 3569 2628 3553 
L 2631 2963 
z
" transform="scale(0.015625)"/>
       <path id="DejaVuSans-20" transform="scale(0.015625)"/>
       <path id="DejaVuSans-6f" d="M 1959 3097 
Q 1497 3097 1228 2736 
Q 959 2375 959 1747 
Q 959 1119 1226 758 
Q 1494 397 1959 397 
Q 2419 397 2687 759 
Q 2956 1122 2956 1747 
Q 2956 2369 2687 2733 
Q 2419 3097 1959 3097 
z
M 1959 3584 
Q 2709 3584 3137 3096 
Q 3566 2609 3566 1747 
Q 3566 888 3137 398 
Q 2709 -91 1959 -91 
Q 1206 -91 779 398 
Q 353 888 353 1747 
Q 353 2609 779 3096 
Q 1206 3584 1959 3584 
z
" transform="scale(0.015625)"/>
       <path id="DejaVuSans-66" d="M 2375 4863 
L 2375 4384 
L 1825 4384 
Q 1516 4384 1395 4259 
Q 1275 4134 1275 3809 
L 1275 3500 
L 2222 3500 
L 2222 3053 
L 1275 3053 
L 1275 0 
L 697 0 
L 697 3053 
L 147 3053 
L 147 3500 
L 697 3500 
L 697 3744 
Q 697 4328 969 4595 
Q 1241 4863 1831 4863 
L 2375 4863 
z
" transform="scale(0.015625)"/>
       <path id="DejaVuSans-69" d="M 603 3500 
L 1178 3500 
L 1178 0 
L 603 0 
L 603 3500 
z
M 603 4863 
L 1178 4863 
L 1178 4134 
L 603 4134 
L 603 4863 
z
" transform="scale(0.015625)"/>
       <path id="DejaVuSans-6e" d="M 3513 2113 
L 3513 0 
L 2938 0 
L 2938 2094 
Q 2938 2591 2744 2837 
Q 2550 3084 2163 3084 
Q 1697 3084 1428 2787 
Q 1159 2491 1159 1978 
L 1159 0 
L 581 0 
L 581 3500 
L 1159 3500 
L 1159 2956 
Q 1366 3272 1645 3428 
Q 1925 3584 2291 3584 
Q 2894 3584 3203 3211 
Q 3513 2838 3513 2113 
z
" transform="scale(0.015625)"/>
       <path id="DejaVuSans-73" d="M 2834 3397 
L 2834 2853 
Q 2591 2978 2328 3040 
Q 2066 3103 1784 3103 
Q 1356 3103 1142 2972 
Q 928 2841 928 2578 
Q 928 2378 1081 2264 
Q 1234 2150 1697 2047 
L 1894 2003 
Q 2506 1872 2764 1633 
Q 3022 1394 3022 966 
Q 3022 478 2636 193 
Q 2250 -91 1575 -91 
Q 1294 -91 989 -36 
Q 684 19 347 128 
L 347 722 
Q 666 556 975 473 
Q 1284 391 1588 391 
Q 1994 391 2212 530 
Q 2431 669 2431 922 
Q 2431 1156 2273 1281 
Q 2116 1406 1581 1522 
L 1381 1569 
Q 847 1681 609 1914 
Q 372 2147 372 2553 
Q 372 3047 722 3315 
Q 1072 3584 1716 3584 
Q 2034 3584 2315 3537 
Q 2597 3491 2834 3397 
z
" transform="scale(0.015625)"/>
      </defs>
      <use xlink:href="#DejaVuSans-4e"/>
      <use xlink:href="#DejaVuSans-75" transform="translate(74.804688 0)"/>
      <use xlink:href="#DejaVuSans-6d" transform="translate(138.183594 0)"/>
      <use xlink:href="#DejaVuSans-62" transform="translate(235.595703 0)"/>
      <use xlink:href="#DejaVuSans-65" transform="translate(299.072266 0)"/>
      <use xlink:href="#DejaVuSans-72" transform="translate(360.595703 0)"/>
      <use xlink:href="#DejaVuSans-20" transform="translate(401.708984 0)"/>
      <use xlink:href="#DejaVuSans-6f" transform="translate(433.496094 0)"/>
      <use xlink:href="#DejaVuSans-66" transform="translate(494.677734 0)"/>
      <use xlink:href="#DejaVuSans-20" transform="translate(529.882812 0)"/>
      <use xlink:href="#DejaVuSans-62" transform="translate(561.669922 0)"/>
      <use xlink:href="#DejaVuSans-69" transform="translate(625.146484 0)"/>
      <use xlink:href="#DejaVuSans-6e" transform="translate(652.929688 0)"/>
      <use xlink:href="#DejaVuSans-73" transform="translate(716.308594 0)"/>
     </g>
    </g>
   </g>
   <g id="matplotlib.axis_2">
    <g id="ytick_1">
     <g id="line2d_13">
      <path d="M 63.643437 272.768211 
L 510.043437 272.768211 
" clip-path="url(#pdff7af92e0)" style="fill: none; stroke: #b0b0b0; stroke-opacity: 0.3; stroke-width: 0.8; stroke-linecap: square"/>
     </g>
     <g id="line2d_14">
      <defs>
       <path id="mf82e1d0e89" d="M 0 0 
L -3.5 0 
" style="stroke: #000000; stroke-width: 0.8"/>
      </defs>
      <g>
       <use xlink:href="#mf82e1d0e89" x="63.643437" y="272.768211" style="stroke: #000000; stroke-width: 0.8"/>
      </g>
     </g>
     <g id="text_8">
      <!-- −1850 -->
      <g transform="translate(22.81375 276.56743) scale(0.1 -0.1)">
       <defs>
        <path id="DejaVuSans-2212" d="M 678 2272 
L 4684 2272 
L 4684 1741 
L 678 1741 
L 678 2272 
z
" transform="scale(0.015625)"/>
        <path id="DejaVuSans-38" d="M 2034 2216 
Q 1584 2216 1326 1975 
Q 1069 1734 1069 1313 
Q 1069 891 1326 650 
Q 1584 409 2034 409 
Q 2484 409 2743 651 
Q 3003 894 3003 1313 
Q 3003 1734 2745 1975 
Q 2488 2216 2034 2216 
z
M 1403 2484 
Q 997 2584 770 2862 
Q 544 3141 544 3541 
Q 544 4100 942 4425 
Q 1341 4750 2034 4750 
Q 2731 4750 3128 4425 
Q 3525 4100 3525 3541 
Q 3525 3141 3298 2862 
Q 3072 2584 2669 2484 
Q 3125 2378 3379 2068 
Q 3634 1759 3634 1313 
Q 3634 634 3220 271 
Q 2806 -91 2034 -91 
Q 1263 -91 848 271 
Q 434 634 434 1313 
Q 434 1759 690 2068 
Q 947 2378 1403 2484 
z
M 1172 3481 
Q 1172 3119 1398 2916 
Q 1625 2713 2034 2713 
Q 2441 2713 2670 2916 
Q 2900 3119 2900 3481 
Q 2900 3844 2670 4047 
Q 2441 4250 2034 4250 
Q 1625 4250 1398 4047 
Q 1172 3844 1172 3481 
z
" transform="scale(0.015625)"/>
       </defs>
       <use xlink:href="#DejaVuSans-2212"/>
       <use xlink:href="#DejaVuSans-31" transform="translate(83.789062 0)"/>
       <use xlink:href="#DejaVuSans-38" transform="translate(147.412109 0)"/>
       <use xlink:href="#DejaVuSans-35" transform="translate(211.035156 0)"/>
       <use xlink:href="#DejaVuSans-30" transform="translate(274.658203 0)"/>
      </g>
     </g>
    </g>
    <g id="ytick_2">
     <g id="line2d_15">
      <path d="M 63.643437 228.483704 
L 510.043437 228.483704 
" clip-path="url(#pdff7af92e0)" style="fill: none; stroke: #b0b0b0; stroke-opacity: 0.3; stroke-width: 0.8; stroke-linecap: square"/>
     </g>
     <g id="line2d_16">
      <g>
       <use xlink:href="#mf82e1d0e89" x="63.643437" y="228.483704" style="stroke: #000000; stroke-width: 0.8"/>
      </g>
     </g>
     <g id="text_9">
      <!-- −1800 -->
      <g transform="translate(22.81375 232.282923) scale(0.1 -0.1)">
       <use xlink:href="#DejaVuSans-2212"/>
       <use xlink:href="#DejaVuSans-31" transform="translate(83.789062 0)"/>
       <use xlink:href="#DejaVuSans-38" transform="translate(147.412109 0)"/>
       <use xlink:href="#DejaVuSans-30" transform="translate(211.035156 0)"/>
       <use xlink:href="#DejaVuSans-30" transform="translate(274.658203 0)"/>
      </g>
     </g>
    </g>
    <g id="ytick_3">
     <g id="line2d_17">
      <path d="M 63.643437 184.199196 
L 510.043437 184.199196 
" clip-path="url(#pdff7af92e0)" style="fill: none; stroke: #b0b0b0; stroke-opacity: 0.3; stroke-width: 0.8; stroke-linecap: square"/>
     </g>
     <g id="line2d_18">
      <g>
       <use xlink:href="#mf82e1d0e89" x="63.643437" y="184.199196" style="stroke: #000000; stroke-width: 0.8"/>
      </g>
     </g>
     <g id="text_10">
      <!-- −1750 -->
      <g transform="translate(22.81375 187.998415) scale(0.1 -0.1)">
       <defs>
        <path id="DejaVuSans-37" d="M 525 4666 
L 3525 4666 
L 3525 4397 
L 1831 0 
L 1172 0 
L 2766 4134 
L 525 4134 
L 525 4666 
z
" transform="scale(0.015625)"/>
       </defs>
       <use xlink:href="#DejaVuSans-2212"/>
       <use xlink:href="#DejaVuSans-31" transform="translate(83.789062 0)"/>
       <use xlink:href="#DejaVuSans-37" transform="translate(147.412109 0)"/>
       <use xlink:href="#DejaVuSans-35" transform="translate(211.035156 0)"/>
       <use xlink:href="#DejaVuSans-30" transform="translate(274.658203 0)"/>
      </g>
     </g>
    </g>
    <g id="ytick_4">
     <g id="line2d_19">
      <path d="M 63.643437 139.914689 
L 510.043437 139.914689 
" clip-path="url(#pdff7af92e0)" style="fill: none; stroke: #b0b0b0; stroke-opacity: 0.3; stroke-width: 0.8; stroke-linecap: square"/>
     </g>
     <g id="line2d_20">
      <g>
       <use xlink:href="#mf82e1d0e89" x="63.643437" y="139.914689" style="stroke: #000000; stroke-width: 0.8"/>
      </g>
     </g>
     <g id="text_11">
      <!-- −1700 -->
      <g transform="translate(22.81375 143.713907) scale(0.1 -0.1)">
       <use xlink:href="#DejaVuSans-2212"/>
       <use xlink:href="#DejaVuSans-31" transform="translate(83.789062 0)"/>
       <use xlink:href="#DejaVuSans-37" transform="translate(147.412109 0)"/>
       <use xlink:href="#DejaVuSans-30" transform="translate(211.035156 0)"/>
       <use xlink:href="#DejaVuSans-30" transform="translate(274.658203 0)"/>
      </g>
     </g>
    </g>
    <g id="ytick_5">
     <g id="line2d_21">
      <path d="M 63.643437 95.630181 
L 510.043437 95.630181 
" clip-path="url(#pdff7af92e0)" style="fill: none; stroke: #b0b0b0; stroke-opacity: 0.3; stroke-width: 0.8; stroke-linecap: square"/>
     </g>
     <g id="line2d_22">
      <g>
       <use xlink:href="#mf82e1d0e89" x="63.643437" y="95.630181" style="stroke: #000000; stroke-width: 0.8"/>
      </g>
     </g>
     <g id="text_12">
      <!-- −1650 -->
      <g transform="translate(22.81375 99.4294) scale(0.1 -0.1)">
       <use xlink:href="#DejaVuSans-2212"/>
       <use xlink:href="#DejaVuSans-31" transform="translate(83.789062 0)"/>
       <use xlink:href="#DejaVuSans-36" transform="translate(147.412109 0)"/>
       <use xlink:href="#DejaVuSans-35" transform="translate(211.035156 0)"/>
       <use xlink:href="#DejaVuSans-30" transform="translate(274.658203 0)"/>
      </g>
     </g>
    </g>
    <g id="ytick_6">
     <g id="line2d_23">
      <path d="M 63.643437 51.345674 
L 510.043437 51.345674 
" clip-path="url(#pdff7af92e0)" style="fill: none; stroke: #b0b0b0; stroke-opacity: 0.3; stroke-width: 0.8; stroke-linecap: square"/>
     </g>
     <g id="line2d_24">
      <g>
       <use xlink:href="#mf82e1d0e89" x="63.643437" y="51.345674" style="stroke: #000000; stroke-width: 0.8"/>
      </g>
     </g>
     <g id="text_13">
      <!-- −1600 -->
      <g transform="translate(22.81375 55.144892) scale(0.1 -0.1)">
       <use xlink:href="#DejaVuSans-2212"/>
       <use xlink:href="#DejaVuSans-31" transform="translate(83.789062 0)"/>
       <use xlink:href="#DejaVuSans-36" transform="translate(147.412109 0)"/>
       <use xlink:href="#DejaVuSans-30" transform="translate(211.035156 0)"/>
       <use xlink:href="#DejaVuSans-30" transform="translate(274.658203 0)"/>
      </g>
     </g>
    </g>
    <g id="text_14">
     <!-- AIC -->
     <g transform="translate(16.318125 171.742031) rotate(-90) scale(0.12 -0.12)">
      <defs>
       <path id="DejaVuSans-41" d="M 2188 4044 
L 1331 1722 
L 3047 1722 
L 2188 4044 
z
M 1831 4666 
L 2547 4666 
L 4325 0 
L 3669 0 
L 3244 1197 
L 1141 1197 
L 716 0 
L 50 0 
L 1831 4666 
z
" transform="scale(0.015625)"/>
       <path id="DejaVuSans-49" d="M 628 4666 
L 1259 4666 
L 1259 0 
L 628 0 
L 628 4666 
z
" transform="scale(0.015625)"/>
       <path id="DejaVuSans-43" d="M 4122 4306 
L 4122 3641 
Q 3803 3938 3442 4084 
Q 3081 4231 2675 4231 
Q 1875 4231 1450 3742 
Q 1025 3253 1025 2328 
Q 1025 1406 1450 917 
Q 1875 428 2675 428 
Q 3081 428 3442 575 
Q 3803 722 4122 1019 
L 4122 359 
Q 3791 134 3420 21 
Q 3050 -91 2638 -91 
Q 1578 -91 968 557 
Q 359 1206 359 2328 
Q 359 3453 968 4101 
Q 1578 4750 2638 4750 
Q 3056 4750 3426 4639 
Q 3797 4528 4122 4306 
z
" transform="scale(0.015625)"/>
      </defs>
      <use xlink:href="#DejaVuSans-41"/>
      <use xlink:href="#DejaVuSans-49" transform="translate(68.408203 0)"/>
      <use xlink:href="#DejaVuSans-43" transform="translate(97.900391 0)"/>
     </g>
    </g>
   </g>
   <g id="line2d_25">
    <path d="M 83.934347 287.677969 
L 133.771667 65.124344 
L 140.891284 71.636082 
L 148.010902 55.00547 
L 155.130519 56.020889 
L 162.250136 49.331624 
L 169.369753 51.263147 
L 176.489371 53.93667 
L 183.608988 43.599624 
L 190.728605 41.702718 
L 197.848222 35.677969 
L 204.967839 46.537348 
L 212.087457 42.509543 
L 219.207074 49.148769 
L 226.326691 46.334209 
L 233.446308 45.454411 
L 240.565926 51.180026 
L 247.685543 42.854779 
L 254.80516 46.763245 
L 276.164012 48.455944 
L 283.283629 53.952804 
L 489.752528 60.519832 
" clip-path="url(#pdff7af92e0)" style="fill: none; stroke: #2196f3; stroke-width: 2; stroke-linecap: square"/>
    <defs>
     <path id="m59f895e4be" d="M 0 2 
C 0.530406 2 1.03916 1.789267 1.414214 1.414214 
C 1.789267 1.03916 2 0.530406 2 0 
C 2 -0.530406 1.789267 -1.03916 1.414214 -1.414214 
C 1.03916 -1.789267 0.530406 -2 0 -2 
C -0.530406 -2 -1.03916 -1.789267 -1.414214 -1.414214 
C -1.789267 -1.03916 -2 -0.530406 -2 0 
C -2 0.530406 -1.789267 1.03916 -1.414214 1.414214 
C -1.03916 1.789267 -0.530406 2 0 2 
z
" style="stroke: #2196f3"/>
    </defs>
    <g clip-path="url(#pdff7af92e0)">
     <use xlink:href="#m59f895e4be" x="83.934347" y="287.677969" style="fill: #2196f3; stroke: #2196f3"/>
     <use xlink:href="#m59f895e4be" x="133.771667" y="65.124344" style="fill: #2196f3; stroke: #2196f3"/>
     <use xlink:href="#m59f895e4be" x="140.891284" y="71.636082" style="fill: #2196f3; stroke: #2196f3"/>
     <use xlink:href="#m59f895e4be" x="148.010902" y="55.00547" style="fill: #2196f3; stroke: #2196f3"/>
     <use xlink:href="#m59f895e4be" x="155.130519" y="56.020889" style="fill: #2196f3; stroke: #2196f3"/>
     <use xlink:href="#m59f895e4be" x="162.250136" y="49.331624" style="fill: #2196f3; stroke: #2196f3"/>
     <use xlink:href="#m59f895e4be" x="169.369753" y="51.263147" style="fill: #2196f3; stroke: #2196f3"/>
     <use xlink:href="#m59f895e4be" x="176.489371" y="53.93667" style="fill: #2196f3; stroke: #2196f3"/>
     <use xlink:href="#m59f895e4be" x="183.608988" y="43.599624" style="fill: #2196f3; stroke: #2196f3"/>
     <use xlink:href="#m59f895e4be" x="190.728605" y="41.702718" style="fill: #2196f3; stroke: #2196f3"/>
     <use xlink:href="#m59f895e4be" x="197.848222" y="35.677969" style="fill: #2196f3; stroke: #2196f3"/>
     <use xlink:href="#m59f895e4be" x="204.967839" y="46.537348" style="fill: #2196f3; stroke: #2196f3"/>
     <use xlink:href="#m59f895e4be" x="212.087457" y="42.509543" style="fill: #2196f3; stroke: #2196f3"/>
     <use xlink:href="#m59f895e4be" x="219.207074" y="49.148769" style="fill: #2196f3; stroke: #2196f3"/>
     <use xlink:href="#m59f895e4be" x="226.326691" y="46.334209" style="fill: #2196f3; stroke: #2196f3"/>
     <use xlink:href="#m59f895e4be" x="233.446308" y="45.454411" style="fill: #2196f3; stroke: #2196f3"/>
     <use xlink:href="#m59f895e4be" x="240.565926" y="51.180026" style="fill: #2196f3; stroke: #2196f3"/>
     <use xlink:href="#m59f895e4be" x="247.685543" y="42.854779" style="fill: #2196f3; stroke: #2196f3"/>
     <use xlink:href="#m59f895e4be" x="254.80516" y="46.763245" style="fill: #2196f3; stroke: #2196f3"/>
     <use xlink:href="#m59f895e4be" x="276.164012" y="48.455944" style="fill: #2196f3; stroke: #2196f3"/>
     <use xlink:href="#m59f895e4be" x="283.283629" y="53.952804" style="fill: #2196f3; stroke: #2196f3"/>
     <use xlink:href="#m59f895e4be" x="489.752528" y="60.519832" style="fill: #2196f3; stroke: #2196f3"/>
    </g>
   </g>
   <g id="line2d_26">
    <path d="M 197.848222 300.277969 
L 197.848222 23.077969 
" clip-path="url(#pdff7af92e0)" style="fill: none; stroke-dasharray: 7.4,3.2; stroke-dashoffset: 0; stroke: #f44336; stroke-width: 2"/>
   </g>
   <g id="patch_3">
    <path d="M 63.643437 300.277969 
L 63.643437 23.077969 
" style="fill: none; stroke: #000000; stroke-width: 0.8; stroke-linejoin: miter; stroke-linecap: square"/>
   </g>
   <g id="patch_4">
    <path d="M 510.043437 300.277969 
L 510.043437 23.077969 
" style="fill: none; stroke: #000000; stroke-width: 0.8; stroke-linejoin: miter; stroke-linecap: square"/>
   </g>
   <g id="patch_5">
    <path d="M 63.643437 300.277969 
L 510.043437 300.277969 
" style="fill: none; stroke: #000000; stroke-width: 0.8; stroke-linejoin: miter; stroke-linecap: square"/>
   </g>
   <g id="patch_6">
    <path d="M 63.643437 23.077969 
L 510.043437 23.077969 
" style="fill: none; stroke: #000000; stroke-width: 0.8; stroke-linejoin: miter; stroke-linecap: square"/>
   </g>
   <g id="text_15">
    <g id="patch_7">
     <path d="M 81.499112 279.97375 
L 86.369581 279.97375 
Q 87.209581 279.97375 87.209581 279.13375 
L 87.209581 272.359062 
Q 87.209581 271.519062 86.369581 271.519062 
L 81.499112 271.519062 
Q 80.659112 271.519062 80.659112 272.359062 
L 80.659112 279.13375 
Q 80.659112 279.97375 81.499112 279.97375 
z
" style="fill: #ffffff; opacity: 0.85; stroke: #795548; stroke-width: 0.4; stroke-linejoin: miter"/>
    </g>
    <!-- 1 -->
    <g style="fill: #795548" transform="translate(81.499112 277.677969) scale(0.07 -0.07)">
     <defs>
      <path id="DejaVuSans-Bold-31" d="M 750 831 
L 1813 831 
L 1813 3847 
L 722 3622 
L 722 4441 
L 1806 4666 
L 2950 4666 
L 2950 831 
L 4013 831 
L 4013 0 
L 750 0 
L 750 831 
z
" transform="scale(0.015625)"/>
     </defs>
     <use xlink:href="#DejaVuSans-Bold-31"/>
    </g>
   </g>
   <g id="text_16">
    <g id="patch_8">
     <path d="M 487.317294 52.815614 
L 492.187763 52.815614 
Q 493.027763 52.815614 493.027763 51.975614 
L 493.027763 45.200926 
Q 493.027763 44.360926 492.187763 44.360926 
L 487.317294 44.360926 
Q 486.477294 44.360926 486.477294 45.200926 
L 486.477294 51.975614 
Q 486.477294 52.815614 487.317294 52.815614 
z
" style="fill: #ffffff; opacity: 0.85; stroke: #795548; stroke-width: 0.4; stroke-linejoin: miter"/>
    </g>
    <!-- 2 -->
    <g style="fill: #795548" transform="translate(487.317294 50.519832) scale(0.07 -0.07)">
     <defs>
      <path id="DejaVuSans-Bold-32" d="M 1844 884 
L 3897 884 
L 3897 0 
L 506 0 
L 506 884 
L 2209 2388 
Q 2438 2594 2547 2791 
Q 2656 2988 2656 3200 
Q 2656 3528 2436 3728 
Q 2216 3928 1850 3928 
Q 1569 3928 1234 3808 
Q 900 3688 519 3450 
L 519 4475 
Q 925 4609 1322 4679 
Q 1719 4750 2100 4750 
Q 2938 4750 3402 4381 
Q 3866 4013 3866 3353 
Q 3866 2972 3669 2642 
Q 3472 2313 2841 1759 
L 1844 884 
z
" transform="scale(0.015625)"/>
     </defs>
     <use xlink:href="#DejaVuSans-Bold-32"/>
    </g>
   </g>
   <g id="text_17">
    <g id="patch_9">
     <path d="M 280.848395 46.248586 
L 285.718863 46.248586 
Q 286.558863 46.248586 286.558863 45.408586 
L 286.558863 38.633898 
Q 286.558863 37.793898 285.718863 37.793898 
L 280.848395 37.793898 
Q 280.008395 37.793898 280.008395 38.633898 
L 280.008395 45.408586 
Q 280.008395 46.248586 280.848395 46.248586 
z
" style="fill: #ffffff; opacity: 0.85; stroke: #4caf50; stroke-width: 0.4; stroke-linejoin: miter"/>
    </g>
    <!-- 3 -->
    <g style="fill: #4caf50" transform="translate(280.848395 43.952804) scale(0.07 -0.07)">
     <defs>
      <path id="DejaVuSans-Bold-33" d="M 2981 2516 
Q 3453 2394 3698 2092 
Q 3944 1791 3944 1325 
Q 3944 631 3412 270 
Q 2881 -91 1863 -91 
Q 1503 -91 1142 -33 
Q 781 25 428 141 
L 428 1069 
Q 766 900 1098 814 
Q 1431 728 1753 728 
Q 2231 728 2486 893 
Q 2741 1059 2741 1369 
Q 2741 1688 2480 1852 
Q 2219 2016 1709 2016 
L 1228 2016 
L 1228 2791 
L 1734 2791 
Q 2188 2791 2409 2933 
Q 2631 3075 2631 3366 
Q 2631 3634 2415 3781 
Q 2200 3928 1806 3928 
Q 1516 3928 1219 3862 
Q 922 3797 628 3669 
L 628 4550 
Q 984 4650 1334 4700 
Q 1684 4750 2022 4750 
Q 2931 4750 3382 4451 
Q 3834 4153 3834 3553 
Q 3834 3144 3618 2883 
Q 3403 2622 2981 2516 
z
" transform="scale(0.015625)"/>
     </defs>
     <use xlink:href="#DejaVuSans-Bold-33"/>
    </g>
   </g>
   <g id="text_18">
    <g id="patch_10">
     <path d="M 181.173753 35.895406 
L 186.044222 35.895406 
Q 186.884222 35.895406 186.884222 35.055406 
L 186.884222 28.280718 
Q 186.884222 27.440718 186.044222 27.440718 
L 181.173753 27.440718 
Q 180.333753 27.440718 180.333753 28.280718 
L 180.333753 35.055406 
Q 180.333753 35.895406 181.173753 35.895406 
z
" style="fill: #ffffff; opacity: 0.85; stroke: #4caf50; stroke-width: 0.4; stroke-linejoin: miter"/>
    </g>
    <!-- 4 -->
    <g style="fill: #4caf50" transform="translate(181.173753 33.599624) scale(0.07 -0.07)">
     <defs>
      <path id="DejaVuSans-Bold-34" d="M 2356 3675 
L 1038 1722 
L 2356 1722 
L 2356 3675 
z
M 2156 4666 
L 3494 4666 
L 3494 1722 
L 4159 1722 
L 4159 850 
L 3494 850 
L 3494 0 
L 2356 0 
L 2356 850 
L 288 850 
L 288 1881 
L 2156 4666 
z
" transform="scale(0.015625)"/>
     </defs>
     <use xlink:href="#DejaVuSans-Bold-34"/>
    </g>
   </g>
   <g id="text_19">
    <g id="patch_11">
     <path d="M 231.011074 37.750192 
L 235.881543 37.750192 
Q 236.721543 37.750192 236.721543 36.910192 
L 236.721543 30.135505 
Q 236.721543 29.295505 235.881543 29.295505 
L 231.011074 29.295505 
Q 230.171074 29.295505 230.171074 30.135505 
L 230.171074 36.910192 
Q 230.171074 37.750192 231.011074 37.750192 
z
" style="fill: #ffffff; opacity: 0.85; stroke: #4caf50; stroke-width: 0.4; stroke-linejoin: miter"/>
    </g>
    <!-- 5 -->
    <g style="fill: #4caf50" transform="translate(231.011074 35.454411) scale(0.07 -0.07)">
     <defs>
      <path id="DejaVuSans-Bold-35" d="M 678 4666 
L 3669 4666 
L 3669 3781 
L 1638 3781 
L 1638 3059 
Q 1775 3097 1914 3117 
Q 2053 3138 2203 3138 
Q 3056 3138 3531 2711 
Q 4006 2284 4006 1522 
Q 4006 766 3489 337 
Q 2972 -91 2053 -91 
Q 1656 -91 1267 -14 
Q 878 63 494 219 
L 494 1166 
Q 875 947 1217 837 
Q 1559 728 1863 728 
Q 2300 728 2551 942 
Q 2803 1156 2803 1522 
Q 2803 1891 2551 2103 
Q 2300 2316 1863 2316 
Q 1603 2316 1309 2248 
Q 1016 2181 678 2041 
L 678 4666 
z
" transform="scale(0.015625)"/>
     </defs>
     <use xlink:href="#DejaVuSans-Bold-35"/>
    </g>
   </g>
   <g id="text_20">
    <g id="patch_12">
     <path d="M 252.369926 39.059026 
L 257.240394 39.059026 
Q 258.080394 39.059026 258.080394 38.219026 
L 258.080394 31.444339 
Q 258.080394 30.604339 257.240394 30.604339 
L 252.369926 30.604339 
Q 251.529926 30.604339 251.529926 31.444339 
L 251.529926 38.219026 
Q 251.529926 39.059026 252.369926 39.059026 
z
" style="fill: #ffffff; opacity: 0.85; stroke: #4caf50; stroke-width: 0.4; stroke-linejoin: miter"/>
    </g>
    <!-- 6 -->
    <g style="fill: #4caf50" transform="translate(252.369926 36.763245) scale(0.07 -0.07)">
     <defs>
      <path id="DejaVuSans-Bold-36" d="M 2316 2303 
Q 2000 2303 1842 2098 
Q 1684 1894 1684 1484 
Q 1684 1075 1842 870 
Q 2000 666 2316 666 
Q 2634 666 2792 870 
Q 2950 1075 2950 1484 
Q 2950 1894 2792 2098 
Q 2634 2303 2316 2303 
z
M 3803 4544 
L 3803 3681 
Q 3506 3822 3243 3889 
Q 2981 3956 2731 3956 
Q 2194 3956 1894 3657 
Q 1594 3359 1544 2772 
Q 1750 2925 1990 3001 
Q 2231 3078 2516 3078 
Q 3231 3078 3670 2659 
Q 4109 2241 4109 1563 
Q 4109 813 3618 361 
Q 3128 -91 2303 -91 
Q 1394 -91 895 523 
Q 397 1138 397 2266 
Q 397 3422 980 4083 
Q 1563 4744 2578 4744 
Q 2900 4744 3203 4694 
Q 3506 4644 3803 4544 
z
" transform="scale(0.015625)"/>
     </defs>
     <use xlink:href="#DejaVuSans-Bold-36"/>
    </g>
   </g>
   <g id="text_21">
    <g id="patch_13">
     <path d="M 238.130691 43.475807 
L 243.00116 43.475807 
Q 243.84116 43.475807 243.84116 42.635807 
L 243.84116 35.861119 
Q 243.84116 35.021119 243.00116 35.021119 
L 238.130691 35.021119 
Q 237.290691 35.021119 237.290691 35.861119 
L 237.290691 42.635807 
Q 237.290691 43.475807 238.130691 43.475807 
z
" style="fill: #ffffff; opacity: 0.85; stroke: #4caf50; stroke-width: 0.4; stroke-linejoin: miter"/>
    </g>
    <!-- 7 -->
    <g style="fill: #4caf50" transform="translate(238.130691 41.180026) scale(0.07 -0.07)">
     <defs>
      <path id="DejaVuSans-Bold-37" d="M 428 4666 
L 3944 4666 
L 3944 3988 
L 2125 0 
L 953 0 
L 2675 3781 
L 428 3781 
L 428 4666 
z
" transform="scale(0.015625)"/>
     </defs>
     <use xlink:href="#DejaVuSans-Bold-37"/>
    </g>
   </g>
   <g id="text_22">
    <g id="patch_14">
     <path d="M 131.336433 57.420125 
L 136.206902 57.420125 
Q 137.046902 57.420125 137.046902 56.580125 
L 137.046902 49.805438 
Q 137.046902 48.965438 136.206902 48.965438 
L 131.336433 48.965438 
Q 130.496433 48.965438 130.496433 49.805438 
L 130.496433 56.580125 
Q 130.496433 57.420125 131.336433 57.420125 
z
" style="fill: #ffffff; opacity: 0.85; stroke: #e91e63; stroke-width: 0.4; stroke-linejoin: miter"/>
    </g>
    <!-- 8 -->
    <g style="fill: #e91e63" transform="translate(131.336433 55.124344) scale(0.07 -0.07)">
     <defs>
      <path id="DejaVuSans-Bold-38" d="M 2228 2088 
Q 1891 2088 1709 1903 
Q 1528 1719 1528 1375 
Q 1528 1031 1709 848 
Q 1891 666 2228 666 
Q 2563 666 2741 848 
Q 2919 1031 2919 1375 
Q 2919 1722 2741 1905 
Q 2563 2088 2228 2088 
z
M 1350 2484 
Q 925 2613 709 2878 
Q 494 3144 494 3541 
Q 494 4131 934 4440 
Q 1375 4750 2228 4750 
Q 3075 4750 3515 4442 
Q 3956 4134 3956 3541 
Q 3956 3144 3739 2878 
Q 3522 2613 3097 2484 
Q 3572 2353 3814 2058 
Q 4056 1763 4056 1313 
Q 4056 619 3595 264 
Q 3134 -91 2228 -91 
Q 1319 -91 855 264 
Q 391 619 391 1313 
Q 391 1763 633 2058 
Q 875 2353 1350 2484 
z
M 1631 3419 
Q 1631 3141 1786 2991 
Q 1941 2841 2228 2841 
Q 2509 2841 2662 2991 
Q 2816 3141 2816 3419 
Q 2816 3697 2662 3845 
Q 2509 3994 2228 3994 
Q 1941 3994 1786 3844 
Q 1631 3694 1631 3419 
z
" transform="scale(0.015625)"/>
     </defs>
     <use xlink:href="#DejaVuSans-Bold-38"/>
    </g>
   </g>
   <g id="text_23">
    <g id="patch_15">
     <path d="M 138.45605 63.931863 
L 143.326519 63.931863 
Q 144.166519 63.931863 144.166519 63.091863 
L 144.166519 56.317176 
Q 144.166519 55.477176 143.326519 55.477176 
L 138.45605 55.477176 
Q 137.61605 55.477176 137.61605 56.317176 
L 137.61605 63.091863 
Q 137.61605 63.931863 138.45605 63.931863 
z
" style="fill: #ffffff; opacity: 0.85; stroke: #e91e63; stroke-width: 0.4; stroke-linejoin: miter"/>
    </g>
    <!-- 9 -->
    <g style="fill: #e91e63" transform="translate(138.45605 61.636082) scale(0.07 -0.07)">
     <defs>
      <path id="DejaVuSans-Bold-39" d="M 641 103 
L 641 966 
Q 928 831 1190 764 
Q 1453 697 1709 697 
Q 2247 697 2547 995 
Q 2847 1294 2900 1881 
Q 2688 1725 2447 1647 
Q 2206 1569 1925 1569 
Q 1209 1569 770 1986 
Q 331 2403 331 3084 
Q 331 3838 820 4291 
Q 1309 4744 2131 4744 
Q 3044 4744 3544 4128 
Q 4044 3513 4044 2388 
Q 4044 1231 3459 570 
Q 2875 -91 1856 -91 
Q 1528 -91 1228 -42 
Q 928 6 641 103 
z
M 2125 2350 
Q 2441 2350 2600 2554 
Q 2759 2759 2759 3169 
Q 2759 3575 2600 3781 
Q 2441 3988 2125 3988 
Q 1809 3988 1650 3781 
Q 1491 3575 1491 3169 
Q 1491 2759 1650 2554 
Q 1809 2350 2125 2350 
z
" transform="scale(0.015625)"/>
     </defs>
     <use xlink:href="#DejaVuSans-Bold-39"/>
    </g>
   </g>
   <g id="text_24">
    <g id="patch_16">
     <path d="M 143.140433 47.301251 
L 152.88137 47.301251 
Q 153.72137 47.301251 153.72137 46.461251 
L 153.72137 39.686564 
Q 153.72137 38.846564 152.88137 38.846564 
L 143.140433 38.846564 
Q 142.300433 38.846564 142.300433 39.686564 
L 142.300433 46.461251 
Q 142.300433 47.301251 143.140433 47.301251 
z
" style="fill: #ffffff; opacity: 0.85; stroke: #e91e63; stroke-width: 0.4; stroke-linejoin: miter"/>
    </g>
    <!-- 10 -->
    <g style="fill: #e91e63" transform="translate(143.140433 45.00547) scale(0.07 -0.07)">
     <defs>
      <path id="DejaVuSans-Bold-30" d="M 2944 2338 
Q 2944 3213 2780 3570 
Q 2616 3928 2228 3928 
Q 1841 3928 1675 3570 
Q 1509 3213 1509 2338 
Q 1509 1453 1675 1090 
Q 1841 728 2228 728 
Q 2613 728 2778 1090 
Q 2944 1453 2944 2338 
z
M 4147 2328 
Q 4147 1169 3647 539 
Q 3147 -91 2228 -91 
Q 1306 -91 806 539 
Q 306 1169 306 2328 
Q 306 3491 806 4120 
Q 1306 4750 2228 4750 
Q 3147 4750 3647 4120 
Q 4147 3491 4147 2328 
z
" transform="scale(0.015625)"/>
     </defs>
     <use xlink:href="#DejaVuSans-Bold-31"/>
     <use xlink:href="#DejaVuSans-Bold-30" transform="translate(69.580078 0)"/>
    </g>
   </g>
   <g id="text_25">
    <g id="patch_17">
     <path d="M 150.26005 48.31667 
L 160.000988 48.31667 
Q 160.840988 48.31667 160.840988 47.47667 
L 160.840988 40.701983 
Q 160.840988 39.861983 160.000988 39.861983 
L 150.26005 39.861983 
Q 149.42005 39.861983 149.42005 40.701983 
L 149.42005 47.47667 
Q 149.42005 48.31667 150.26005 48.31667 
z
" style="fill: #ffffff; opacity: 0.85; stroke: #e91e63; stroke-width: 0.4; stroke-linejoin: miter"/>
    </g>
    <!-- 11 -->
    <g style="fill: #e91e63" transform="translate(150.26005 46.020889) scale(0.07 -0.07)">
     <use xlink:href="#DejaVuSans-Bold-31"/>
     <use xlink:href="#DejaVuSans-Bold-31" transform="translate(69.580078 0)"/>
    </g>
   </g>
   <g id="text_26">
    <g id="patch_18">
     <path d="M 157.379667 41.627405 
L 167.120605 41.627405 
Q 167.960605 41.627405 167.960605 40.787405 
L 167.960605 34.012718 
Q 167.960605 33.172718 167.120605 33.172718 
L 157.379667 33.172718 
Q 156.539667 33.172718 156.539667 34.012718 
L 156.539667 40.787405 
Q 156.539667 41.627405 157.379667 41.627405 
z
" style="fill: #ffffff; opacity: 0.85; stroke: #e91e63; stroke-width: 0.4; stroke-linejoin: miter"/>
    </g>
    <!-- 12 -->
    <g style="fill: #e91e63" transform="translate(157.379667 39.331624) scale(0.07 -0.07)">
     <use xlink:href="#DejaVuSans-Bold-31"/>
     <use xlink:href="#DejaVuSans-Bold-32" transform="translate(69.580078 0)"/>
    </g>
   </g>
   <g id="text_27">
    <g id="patch_19">
     <path d="M 164.499285 43.558928 
L 174.240222 43.558928 
Q 175.080222 43.558928 175.080222 42.718928 
L 175.080222 35.944241 
Q 175.080222 35.104241 174.240222 35.104241 
L 164.499285 35.104241 
Q 163.659285 35.104241 163.659285 35.944241 
L 163.659285 42.718928 
Q 163.659285 43.558928 164.499285 43.558928 
z
" style="fill: #ffffff; opacity: 0.85; stroke: #e91e63; stroke-width: 0.4; stroke-linejoin: miter"/>
    </g>
    <!-- 13 -->
    <g style="fill: #e91e63" transform="translate(164.499285 41.263147) scale(0.07 -0.07)">
     <use xlink:href="#DejaVuSans-Bold-31"/>
     <use xlink:href="#DejaVuSans-Bold-33" transform="translate(69.580078 0)"/>
    </g>
   </g>
   <g id="text_28">
    <g id="patch_20">
     <path d="M 185.858136 33.998499 
L 195.599074 33.998499 
Q 196.439074 33.998499 196.439074 33.158499 
L 196.439074 26.383811 
Q 196.439074 25.543811 195.599074 25.543811 
L 185.858136 25.543811 
Q 185.018136 25.543811 185.018136 26.383811 
L 185.018136 33.158499 
Q 185.018136 33.998499 185.858136 33.998499 
z
" style="fill: #ffffff; opacity: 0.85; stroke: #e91e63; stroke-width: 0.4; stroke-linejoin: miter"/>
    </g>
    <!-- 14 -->
    <g style="fill: #e91e63" transform="translate(185.858136 31.702718) scale(0.07 -0.07)">
     <use xlink:href="#DejaVuSans-Bold-31"/>
     <use xlink:href="#DejaVuSans-Bold-34" transform="translate(69.580078 0)"/>
    </g>
   </g>
   <g id="text_29">
    <g id="patch_21">
     <path d="M 192.977753 27.97375 
L 202.718691 27.97375 
Q 203.558691 27.97375 203.558691 27.13375 
L 203.558691 20.359062 
Q 203.558691 19.519062 202.718691 19.519062 
L 192.977753 19.519062 
Q 192.137753 19.519062 192.137753 20.359062 
L 192.137753 27.13375 
Q 192.137753 27.97375 192.977753 27.97375 
z
" style="fill: #ffffff; opacity: 0.85; stroke: #e91e63; stroke-width: 0.4; stroke-linejoin: miter"/>
    </g>
    <!-- 15 -->
    <g style="fill: #e91e63" transform="translate(192.977753 25.677969) scale(0.07 -0.07)">
     <use xlink:href="#DejaVuSans-Bold-31"/>
     <use xlink:href="#DejaVuSans-Bold-35" transform="translate(69.580078 0)"/>
    </g>
   </g>
   <g id="text_30">
    <g id="patch_22">
     <path d="M 200.097371 38.833129 
L 209.838308 38.833129 
Q 210.678308 38.833129 210.678308 37.993129 
L 210.678308 31.218441 
Q 210.678308 30.378441 209.838308 30.378441 
L 200.097371 30.378441 
Q 199.257371 30.378441 199.257371 31.218441 
L 199.257371 37.993129 
Q 199.257371 38.833129 200.097371 38.833129 
z
" style="fill: #ffffff; opacity: 0.85; stroke: #e91e63; stroke-width: 0.4; stroke-linejoin: miter"/>
    </g>
    <!-- 16 -->
    <g style="fill: #e91e63" transform="translate(200.097371 36.537348) scale(0.07 -0.07)">
     <use xlink:href="#DejaVuSans-Bold-31"/>
     <use xlink:href="#DejaVuSans-Bold-36" transform="translate(69.580078 0)"/>
    </g>
   </g>
   <g id="text_31">
    <g id="patch_23">
     <path d="M 207.216988 34.805324 
L 216.957925 34.805324 
Q 217.797925 34.805324 217.797925 33.965324 
L 217.797925 27.190637 
Q 217.797925 26.350637 216.957925 26.350637 
L 207.216988 26.350637 
Q 206.376988 26.350637 206.376988 27.190637 
L 206.376988 33.965324 
Q 206.376988 34.805324 207.216988 34.805324 
z
" style="fill: #ffffff; opacity: 0.85; stroke: #e91e63; stroke-width: 0.4; stroke-linejoin: miter"/>
    </g>
    <!-- 17 -->
    <g style="fill: #e91e63" transform="translate(207.216988 32.509543) scale(0.07 -0.07)">
     <use xlink:href="#DejaVuSans-Bold-31"/>
     <use xlink:href="#DejaVuSans-Bold-37" transform="translate(69.580078 0)"/>
    </g>
   </g>
   <g id="text_32">
    <g id="patch_24">
     <path d="M 214.336605 41.44455 
L 224.077543 41.44455 
Q 224.917543 41.44455 224.917543 40.60455 
L 224.917543 33.829862 
Q 224.917543 32.989862 224.077543 32.989862 
L 214.336605 32.989862 
Q 213.496605 32.989862 213.496605 33.829862 
L 213.496605 40.60455 
Q 213.496605 41.44455 214.336605 41.44455 
z
" style="fill: #ffffff; opacity: 0.85; stroke: #e91e63; stroke-width: 0.4; stroke-linejoin: miter"/>
    </g>
    <!-- 18 -->
    <g style="fill: #e91e63" transform="translate(214.336605 39.148769) scale(0.07 -0.07)">
     <use xlink:href="#DejaVuSans-Bold-31"/>
     <use xlink:href="#DejaVuSans-Bold-38" transform="translate(69.580078 0)"/>
    </g>
   </g>
   <g id="patch_25">
    <path d="M 85.677477 286.702245 
Q 286.841015 174.100256 487.02896 62.044359 
" style="fill: none; opacity: 0.35; stroke: #795548; stroke-linecap: round"/>
    <path d="M 482.56169 62.252922 
L 487.02896 62.044359 
L 484.515448 65.743313 
" style="fill: none; opacity: 0.35; stroke: #795548; stroke-linecap: round"/>
   </g>
   <g id="patch_26">
    <path d="M 487.751983 60.456202 
Q 386.517746 57.236308 286.400979 54.051956 
" style="fill: none; opacity: 0.35; stroke: #795548; stroke-linecap: round"/>
    <path d="M 290.335377 56.178106 
L 286.400979 54.051956 
L 290.462538 52.180128 
" style="fill: none; opacity: 0.35; stroke: #795548; stroke-linecap: round"/>
   </g>
   <g id="patch_27">
    <path d="M 281.297315 53.746486 
Q 233.447385 48.776326 186.709507 43.921675 
" style="fill: none; opacity: 0.35; stroke: #4caf50; stroke-linecap: round"/>
    <path d="M 190.481474 46.324228 
L 186.709507 43.921675 
L 190.89473 42.345633 
" style="fill: none; opacity: 0.35; stroke: #4caf50; stroke-linecap: round"/>
   </g>
   <g id="patch_28">
    <path d="M 185.607469 43.674002 
Q 208.52684 44.526988 230.32895 45.338393 
" style="fill: none; opacity: 0.35; stroke: #4caf50; stroke-linecap: round"/>
    <path d="M 226.406099 43.191012 
L 230.32895 45.338393 
L 226.257335 47.188245 
" style="fill: none; opacity: 0.35; stroke: #4caf50; stroke-linecap: round"/>
   </g>
   <g id="patch_29">
    <path d="M 235.440879 45.576635 
Q 244.12313 46.108669 251.689441 46.572319 
" style="fill: none; opacity: 0.35; stroke: #4caf50; stroke-linecap: round"/>
    <path d="M 247.819257 44.331409 
L 251.689441 46.572319 
L 247.574603 48.32392 
" style="fill: none; opacity: 0.35; stroke: #4caf50; stroke-linecap: round"/>
   </g>
   <g id="patch_30">
    <path d="M 252.89663 47.35524 
Q 247.687088 48.971156 243.545389 50.255844 
" style="fill: none; opacity: 0.35; stroke: #4caf50; stroke-linecap: round"/>
    <path d="M 247.958337 50.981024 
L 243.545389 50.255844 
L 246.773301 47.160593 
" style="fill: none; opacity: 0.35; stroke: #4caf50; stroke-linecap: round"/>
   </g>
   <g id="patch_31">
    <path d="M 238.581132 51.439184 
Q 187.169544 58.152087 136.866578 64.720236 
" style="fill: none; opacity: 0.35; stroke: #4caf50; stroke-linecap: round"/>
    <path d="M 141.091856 66.185511 
L 136.866578 64.720236 
L 140.573965 62.219179 
" style="fill: none; opacity: 0.35; stroke: #4caf50; stroke-linecap: round"/>
   </g>
   <g id="patch_32">
    <path d="M 135.249127 66.475657 
Q 137.333254 68.381839 138.592377 69.533457 
" style="fill: none; opacity: 0.35; stroke: #e91e63; stroke-linecap: round"/>
    <path d="M 136.990558 65.358032 
L 138.592377 69.533457 
L 134.290945 68.309657 
" style="fill: none; opacity: 0.35; stroke: #e91e63; stroke-linecap: round"/>
   </g>
   <g id="patch_33">
    <path d="M 141.678683 69.796808 
Q 144.451348 63.320181 146.784004 57.871363 
" style="fill: none; opacity: 0.35; stroke: #e91e63; stroke-linecap: round"/>
    <path d="M 143.37118 60.761455 
L 146.784004 57.871363 
L 147.048383 62.335678 
" style="fill: none; opacity: 0.35; stroke: #e91e63; stroke-linecap: round"/>
   </g>
   <g id="patch_34">
    <path d="M 149.988959 55.287586 
Q 151.569336 55.512983 152.042879 55.580521 
" style="fill: none; opacity: 0.35; stroke: #e91e63; stroke-linecap: round"/>
    <path d="M 148.365339 53.035782 
L 152.042879 55.580521 
L 147.800564 56.99571 
" style="fill: none; opacity: 0.35; stroke: #e91e63; stroke-linecap: round"/>
   </g>
   <g id="patch_35">
    <path d="M 156.58712 54.652333 
Q 158.690013 52.676552 159.978093 51.466331 
" style="fill: none; opacity: 0.35; stroke: #e91e63; stroke-linecap: round"/>
    <path d="M 155.693459 52.747701 
L 159.978093 51.466331 
L 158.432409 55.662861 
" style="fill: none; opacity: 0.35; stroke: #e91e63; stroke-linecap: round"/>
   </g>
   <g id="patch_36">
    <path d="M 164.179525 49.855059 
Q 165.810341 50.297493 166.362128 50.447191 
" style="fill: none; opacity: 0.35; stroke: #e91e63; stroke-linecap: round"/>
    <path d="M 163.025336 47.469638 
L 166.362128 50.447191 
L 161.97801 51.330092 
" style="fill: none; opacity: 0.35; stroke: #e91e63; stroke-linecap: round"/>
   </g>
   <g id="patch_37">
    <path d="M 171.197458 50.445049 
Q 180.051085 46.482079 187.884242 42.975882 
" style="fill: none; opacity: 0.35; stroke: #e91e63; stroke-linecap: round"/>
    <path d="M 183.416199 42.784608 
L 187.884242 42.975882 
L 185.050397 46.435553 
" style="fill: none; opacity: 0.35; stroke: #e91e63; stroke-linecap: round"/>
   </g>
   <g id="patch_38">
    <path d="M 192.254734 40.41128 
Q 194.288109 38.690601 195.468019 37.69214 
" style="fill: none; opacity: 0.35; stroke: #e91e63; stroke-linecap: round"/>
    <path d="M 191.122629 38.749299 
L 195.468019 37.69214 
L 193.706512 41.802747 
" style="fill: none; opacity: 0.35; stroke: #e91e63; stroke-linecap: round"/>
   </g>
   <g id="patch_39">
    <path d="M 198.945019 37.350886 
Q 201.408699 41.108678 203.259376 43.93147 
" style="fill: none; opacity: 0.35; stroke: #e91e63; stroke-linecap: round"/>
    <path d="M 202.738805 39.489735 
L 203.259376 43.93147 
L 199.393646 41.682886 
" style="fill: none; opacity: 0.35; stroke: #e91e63; stroke-linecap: round"/>
   </g>
   <g id="patch_40">
    <path d="M 206.709504 45.55203 
Q 208.527976 44.523259 209.373346 44.045006 
" style="fill: none; opacity: 0.35; stroke: #e91e63; stroke-linecap: round"/>
    <path d="M 204.907069 44.273855 
L 209.373346 44.045006 
L 206.876659 47.755337 
" style="fill: none; opacity: 0.35; stroke: #e91e63; stroke-linecap: round"/>
   </g>
   <g id="patch_41">
    <path d="M 213.551011 43.874345 
Q 215.64856 45.830363 216.928434 47.023879 
" style="fill: none; opacity: 0.35; stroke: #e91e63; stroke-linecap: round"/>
    <path d="M 215.36704 42.833169 
L 216.928434 47.023879 
L 212.63903 45.758569 
" style="fill: none; opacity: 0.35; stroke: #e91e63; stroke-linecap: round"/>
   </g>
   <g id="text_33">
    <!-- NumPy: Optimal Bins (AIC, binary search) -->
    <g transform="translate(152.044609 17.077969) scale(0.13 -0.13)">
     <defs>
      <path id="DejaVuSans-50" d="M 1259 4147 
L 1259 2394 
L 2053 2394 
Q 2494 2394 2734 2622 
Q 2975 2850 2975 3272 
Q 2975 3691 2734 3919 
Q 2494 4147 2053 4147 
L 1259 4147 
z
M 628 4666 
L 2053 4666 
Q 2838 4666 3239 4311 
Q 3641 3956 3641 3272 
Q 3641 2581 3239 2228 
Q 2838 1875 2053 1875 
L 1259 1875 
L 1259 0 
L 628 0 
L 628 4666 
z
" transform="scale(0.015625)"/>
      <path id="DejaVuSans-79" d="M 2059 -325 
Q 1816 -950 1584 -1140 
Q 1353 -1331 966 -1331 
L 506 -1331 
L 506 -850 
L 844 -850 
Q 1081 -850 1212 -737 
Q 1344 -625 1503 -206 
L 1606 56 
L 191 3500 
L 800 3500 
L 1894 763 
L 2988 3500 
L 3597 3500 
L 2059 -325 
z
" transform="scale(0.015625)"/>
      <path id="DejaVuSans-3a" d="M 750 794 
L 1409 794 
L 1409 0 
L 750 0 
L 750 794 
z
M 750 3309 
L 1409 3309 
L 1409 2516 
L 750 2516 
L 750 3309 
z
" transform="scale(0.015625)"/>
      <path id="DejaVuSans-4f" d="M 2522 4238 
Q 1834 4238 1429 3725 
Q 1025 3213 1025 2328 
Q 1025 1447 1429 934 
Q 1834 422 2522 422 
Q 3209 422 3611 934 
Q 4013 1447 4013 2328 
Q 4013 3213 3611 3725 
Q 3209 4238 2522 4238 
z
M 2522 4750 
Q 3503 4750 4090 4092 
Q 4678 3434 4678 2328 
Q 4678 1225 4090 567 
Q 3503 -91 2522 -91 
Q 1538 -91 948 565 
Q 359 1222 359 2328 
Q 359 3434 948 4092 
Q 1538 4750 2522 4750 
z
" transform="scale(0.015625)"/>
      <path id="DejaVuSans-70" d="M 1159 525 
L 1159 -1331 
L 581 -1331 
L 581 3500 
L 1159 3500 
L 1159 2969 
Q 1341 3281 1617 3432 
Q 1894 3584 2278 3584 
Q 2916 3584 3314 3078 
Q 3713 2572 3713 1747 
Q 3713 922 3314 415 
Q 2916 -91 2278 -91 
Q 1894 -91 1617 61 
Q 1341 213 1159 525 
z
M 3116 1747 
Q 3116 2381 2855 2742 
Q 2594 3103 2138 3103 
Q 1681 3103 1420 2742 
Q 1159 2381 1159 1747 
Q 1159 1113 1420 752 
Q 1681 391 2138 391 
Q 2594 391 2855 752 
Q 3116 1113 3116 1747 
z
" transform="scale(0.015625)"/>
      <path id="DejaVuSans-74" d="M 1172 4494 
L 1172 3500 
L 2356 3500 
L 2356 3053 
L 1172 3053 
L 1172 1153 
Q 1172 725 1289 603 
Q 1406 481 1766 481 
L 2356 481 
L 2356 0 
L 1766 0 
Q 1100 0 847 248 
Q 594 497 594 1153 
L 594 3053 
L 172 3053 
L 172 3500 
L 594 3500 
L 594 4494 
L 1172 4494 
z
" transform="scale(0.015625)"/>
      <path id="DejaVuSans-61" d="M 2194 1759 
Q 1497 1759 1228 1600 
Q 959 1441 959 1056 
Q 959 750 1161 570 
Q 1363 391 1709 391 
Q 2188 391 2477 730 
Q 2766 1069 2766 1631 
L 2766 1759 
L 2194 1759 
z
M 3341 1997 
L 3341 0 
L 2766 0 
L 2766 531 
Q 2569 213 2275 61 
Q 1981 -91 1556 -91 
Q 1019 -91 701 211 
Q 384 513 384 1019 
Q 384 1609 779 1909 
Q 1175 2209 1959 2209 
L 2766 2209 
L 2766 2266 
Q 2766 2663 2505 2880 
Q 2244 3097 1772 3097 
Q 1472 3097 1187 3025 
Q 903 2953 641 2809 
L 641 3341 
Q 956 3463 1253 3523 
Q 1550 3584 1831 3584 
Q 2591 3584 2966 3190 
Q 3341 2797 3341 1997 
z
" transform="scale(0.015625)"/>
      <path id="DejaVuSans-6c" d="M 603 4863 
L 1178 4863 
L 1178 0 
L 603 0 
L 603 4863 
z
" transform="scale(0.015625)"/>
      <path id="DejaVuSans-42" d="M 1259 2228 
L 1259 519 
L 2272 519 
Q 2781 519 3026 730 
Q 3272 941 3272 1375 
Q 3272 1813 3026 2020 
Q 2781 2228 2272 2228 
L 1259 2228 
z
M 1259 4147 
L 1259 2741 
L 2194 2741 
Q 2656 2741 2882 2914 
Q 3109 3088 3109 3444 
Q 3109 3797 2882 3972 
Q 2656 4147 2194 4147 
L 1259 4147 
z
M 628 4666 
L 2241 4666 
Q 2963 4666 3353 4366 
Q 3744 4066 3744 3513 
Q 3744 3084 3544 2831 
Q 3344 2578 2956 2516 
Q 3422 2416 3680 2098 
Q 3938 1781 3938 1306 
Q 3938 681 3513 340 
Q 3088 0 2303 0 
L 628 0 
L 628 4666 
z
" transform="scale(0.015625)"/>
      <path id="DejaVuSans-28" d="M 1984 4856 
Q 1566 4138 1362 3434 
Q 1159 2731 1159 2009 
Q 1159 1288 1364 580 
Q 1569 -128 1984 -844 
L 1484 -844 
Q 1016 -109 783 600 
Q 550 1309 550 2009 
Q 550 2706 781 3412 
Q 1013 4119 1484 4856 
L 1984 4856 
z
" transform="scale(0.015625)"/>
      <path id="DejaVuSans-2c" d="M 750 794 
L 1409 794 
L 1409 256 
L 897 -744 
L 494 -744 
L 750 256 
L 750 794 
z
" transform="scale(0.015625)"/>
      <path id="DejaVuSans-63" d="M 3122 3366 
L 3122 2828 
Q 2878 2963 2633 3030 
Q 2388 3097 2138 3097 
Q 1578 3097 1268 2742 
Q 959 2388 959 1747 
Q 959 1106 1268 751 
Q 1578 397 2138 397 
Q 2388 397 2633 464 
Q 2878 531 3122 666 
L 3122 134 
Q 2881 22 2623 -34 
Q 2366 -91 2075 -91 
Q 1284 -91 818 406 
Q 353 903 353 1747 
Q 353 2603 823 3093 
Q 1294 3584 2113 3584 
Q 2378 3584 2631 3529 
Q 2884 3475 3122 3366 
z
" transform="scale(0.015625)"/>
      <path id="DejaVuSans-68" d="M 3513 2113 
L 3513 0 
L 2938 0 
L 2938 2094 
Q 2938 2591 2744 2837 
Q 2550 3084 2163 3084 
Q 1697 3084 1428 2787 
Q 1159 2491 1159 1978 
L 1159 0 
L 581 0 
L 581 4863 
L 1159 4863 
L 1159 2956 
Q 1366 3272 1645 3428 
Q 1925 3584 2291 3584 
Q 2894 3584 3203 3211 
Q 3513 2838 3513 2113 
z
" transform="scale(0.015625)"/>
      <path id="DejaVuSans-29" d="M 513 4856 
L 1013 4856 
Q 1481 4119 1714 3412 
Q 1947 2706 1947 2009 
Q 1947 1309 1714 600 
Q 1481 -109 1013 -844 
L 513 -844 
Q 928 -128 1133 580 
Q 1338 1288 1338 2009 
Q 1338 2731 1133 3434 
Q 928 4138 513 4856 
z
" transform="scale(0.015625)"/>
     </defs>
     <use xlink:href="#DejaVuSans-4e"/>
     <use xlink:href="#DejaVuSans-75" transform="translate(74.804688 0)"/>
     <use xlink:href="#DejaVuSans-6d" transform="translate(138.183594 0)"/>
     <use xlink:href="#DejaVuSans-50" transform="translate(235.595703 0)"/>
     <use xlink:href="#DejaVuSans-79" transform="translate(295.898438 0)"/>
     <use xlink:href="#DejaVuSans-3a" transform="translate(347.828125 0)"/>
     <use xlink:href="#DejaVuSans-20" transform="translate(381.519531 0)"/>
     <use xlink:href="#DejaVuSans-4f" transform="translate(413.306641 0)"/>
     <use xlink:href="#DejaVuSans-70" transform="translate(492.017578 0)"/>
     <use xlink:href="#DejaVuSans-74" transform="translate(555.494141 0)"/>
     <use xlink:href="#DejaVuSans-69" transform="translate(594.703125 0)"/>
     <use xlink:href="#DejaVuSans-6d" transform="translate(622.486328 0)"/>
     <use xlink:href="#DejaVuSans-61" transform="translate(719.898438 0)"/>
     <use xlink:href="#DejaVuSans-6c" transform="translate(781.177734 0)"/>
     <use xlink:href="#DejaVuSans-20" transform="translate(808.960938 0)"/>
     <use xlink:href="#DejaVuSans-42" transform="translate(840.748047 0)"/>
     <use xlink:href="#DejaVuSans-69" transform="translate(909.351562 0)"/>
     <use xlink:href="#DejaVuSans-6e" transform="translate(937.134766 0)"/>
     <use xlink:href="#DejaVuSans-73" transform="translate(1000.513672 0)"/>
     <use xlink:href="#DejaVuSans-20" transform="translate(1052.613281 0)"/>
     <use xlink:href="#DejaVuSans-28" transform="translate(1084.400391 0)"/>
     <use xlink:href="#DejaVuSans-41" transform="translate(1123.414062 0)"/>
     <use xlink:href="#DejaVuSans-49" transform="translate(1191.822266 0)"/>
     <use xlink:href="#DejaVuSans-43" transform="translate(1221.314453 0)"/>
     <use xlink:href="#DejaVuSans-2c" transform="translate(1291.138672 0)"/>
     <use xlink:href="#DejaVuSans-20" transform="translate(1322.925781 0)"/>
     <use xlink:href="#DejaVuSans-62" transform="translate(1354.712891 0)"/>
     <use xlink:href="#DejaVuSans-69" transform="translate(1418.189453 0)"/>
     <use xlink:href="#DejaVuSans-6e" transform="translate(1445.972656 0)"/>
     <use xlink:href="#DejaVuSans-61" transform="translate(1509.351562 0)"/>
     <use xlink:href="#DejaVuSans-72" transform="translate(1570.630859 0)"/>
     <use xlink:href="#DejaVuSans-79" transform="translate(1611.744141 0)"/>
     <use xlink:href="#DejaVuSans-20" transform="translate(1670.923828 0)"/>
     <use xlink:href="#DejaVuSans-73" transform="translate(1702.710938 0)"/>
     <use xlink:href="#DejaVuSans-65" transform="translate(1754.810547 0)"/>
     <use xlink:href="#DejaVuSans-61" transform="translate(1816.333984 0)"/>
     <use xlink:href="#DejaVuSans-72" transform="translate(1877.613281 0)"/>
     <use xlink:href="#DejaVuSans-63" transform="translate(1916.476562 0)"/>
     <use xlink:href="#DejaVuSans-68" transform="translate(1971.457031 0)"/>
     <use xlink:href="#DejaVuSans-29" transform="translate(2034.835938 0)"/>
    </g>
   </g>
   <g id="line2d_27">
    <defs>
     <path id="m69fff05916" d="M 0 3.5 
C 0.928211 3.5 1.81853 3.131218 2.474874 2.474874 
C 3.131218 1.81853 3.5 0.928211 3.5 0 
C 3.5 -0.928211 3.131218 -1.81853 2.474874 -2.474874 
C 1.81853 -3.131218 0.928211 -3.5 0 -3.5 
C -0.928211 -3.5 -1.81853 -3.131218 -2.474874 -2.474874 
C -3.131218 -1.81853 -3.5 -0.928211 -3.5 0 
C -3.5 0.928211 -3.131218 1.81853 -2.474874 2.474874 
C -1.81853 3.131218 -0.928211 3.5 0 3.5 
z
" style="stroke: #795548"/>
    </defs>
    <g clip-path="url(#pdff7af92e0)">
     <use xlink:href="#m69fff05916" x="83.934347" y="287.677969" style="fill: #795548; stroke: #795548"/>
    </g>
   </g>
   <g id="line2d_28">
    <g clip-path="url(#pdff7af92e0)">
     <use xlink:href="#m69fff05916" x="489.752528" y="60.519832" style="fill: #795548; stroke: #795548"/>
    </g>
   </g>
   <g id="line2d_29">
    <defs>
     <path id="m2354b09b69" d="M 0 3.5 
C 0.928211 3.5 1.81853 3.131218 2.474874 2.474874 
C 3.131218 1.81853 3.5 0.928211 3.5 0 
C 3.5 -0.928211 3.131218 -1.81853 2.474874 -2.474874 
C 1.81853 -3.131218 0.928211 -3.5 0 -3.5 
C -0.928211 -3.5 -1.81853 -3.131218 -2.474874 -2.474874 
C -3.131218 -1.81853 -3.5 -0.928211 -3.5 0 
C -3.5 0.928211 -3.131218 1.81853 -2.474874 2.474874 
C -1.81853 3.131218 -0.928211 3.5 0 3.5 
z
" style="stroke: #4caf50"/>
    </defs>
    <g clip-path="url(#pdff7af92e0)">
     <use xlink:href="#m2354b09b69" x="283.283629" y="53.952804" style="fill: #4caf50; stroke: #4caf50"/>
    </g>
   </g>
   <g id="line2d_30">
    <g clip-path="url(#pdff7af92e0)">
     <use xlink:href="#m2354b09b69" x="183.608988" y="43.599624" style="fill: #4caf50; stroke: #4caf50"/>
    </g>
   </g>
   <g id="line2d_31">
    <g clip-path="url(#pdff7af92e0)">
     <use xlink:href="#m2354b09b69" x="233.446308" y="45.454411" style="fill: #4caf50; stroke: #4caf50"/>
    </g>
   </g>
   <g id="line2d_32">
    <g clip-path="url(#pdff7af92e0)">
     <use xlink:href="#m2354b09b69" x="254.80516" y="46.763245" style="fill: #4caf50; stroke: #4caf50"/>
    </g>
   </g>
   <g id="line2d_33">
    <g clip-path="url(#pdff7af92e0)">
     <use xlink:href="#m2354b09b69" x="240.565926" y="51.180026" style="fill: #4caf50; stroke: #4caf50"/>
    </g>
   </g>
   <g id="line2d_34">
    <defs>
     <path id="m3dc93d1d83" d="M 0 3.5 
C 0.928211 3.5 1.81853 3.131218 2.474874 2.474874 
C 3.131218 1.81853 3.5 0.928211 3.5 0 
C 3.5 -0.928211 3.131218 -1.81853 2.474874 -2.474874 
C 1.81853 -3.131218 0.928211 -3.5 0 -3.5 
C -0.928211 -3.5 -1.81853 -3.131218 -2.474874 -2.474874 
C -3.131218 -1.81853 -3.5 -0.928211 -3.5 0 
C -3.5 0.928211 -3.131218 1.81853 -2.474874 2.474874 
C -1.81853 3.131218 -0.928211 3.5 0 3.5 
z
" style="stroke: #e91e63"/>
    </defs>
    <g clip-path="url(#pdff7af92e0)">
     <use xlink:href="#m3dc93d1d83" x="133.771667" y="65.124344" style="fill: #e91e63; stroke: #e91e63"/>
    </g>
   </g>
   <g id="line2d_35">
    <g clip-path="url(#pdff7af92e0)">
     <use xlink:href="#m3dc93d1d83" x="140.891284" y="71.636082" style="fill: #e91e63; stroke: #e91e63"/>
    </g>
   </g>
   <g id="line2d_36">
    <g clip-path="url(#pdff7af92e0)">
     <use xlink:href="#m3dc93d1d83" x="148.010902" y="55.00547" style="fill: #e91e63; stroke: #e91e63"/>
    </g>
   </g>
   <g id="line2d_37">
    <g clip-path="url(#pdff7af92e0)">
     <use xlink:href="#m3dc93d1d83" x="155.130519" y="56.020889" style="fill: #e91e63; stroke: #e91e63"/>
    </g>
   </g>
   <g id="line2d_38">
    <g clip-path="url(#pdff7af92e0)">
     <use xlink:href="#m3dc93d1d83" x="162.250136" y="49.331624" style="fill: #e91e63; stroke: #e91e63"/>
    </g>
   </g>
   <g id="line2d_39">
    <g clip-path="url(#pdff7af92e0)">
     <use xlink:href="#m3dc93d1d83" x="169.369753" y="51.263147" style="fill: #e91e63; stroke: #e91e63"/>
    </g>
   </g>
   <g id="line2d_40">
    <g clip-path="url(#pdff7af92e0)">
     <use xlink:href="#m3dc93d1d83" x="190.728605" y="41.702718" style="fill: #e91e63; stroke: #e91e63"/>
    </g>
   </g>
   <g id="line2d_41">
    <g clip-path="url(#pdff7af92e0)">
     <use xlink:href="#m3dc93d1d83" x="197.848222" y="35.677969" style="fill: #e91e63; stroke: #e91e63"/>
    </g>
   </g>
   <g id="line2d_42">
    <g clip-path="url(#pdff7af92e0)">
     <use xlink:href="#m3dc93d1d83" x="204.967839" y="46.537348" style="fill: #e91e63; stroke: #e91e63"/>
    </g>
   </g>
   <g id="line2d_43">
    <g clip-path="url(#pdff7af92e0)">
     <use xlink:href="#m3dc93d1d83" x="212.087457" y="42.509543" style="fill: #e91e63; stroke: #e91e63"/>
    </g>
   </g>
   <g id="line2d_44">
    <g clip-path="url(#pdff7af92e0)">
     <use xlink:href="#m3dc93d1d83" x="219.207074" y="49.148769" style="fill: #e91e63; stroke: #e91e63"/>
    </g>
   </g>
   <g id="legend_1">
    <g id="patch_42">
     <path d="M 438.380937 295.277969 
L 503.043437 295.277969 
Q 505.043437 295.277969 505.043437 293.277969 
L 505.043437 264.921719 
Q 505.043437 262.921719 503.043437 262.921719 
L 438.380937 262.921719 
Q 436.380937 262.921719 436.380937 264.921719 
L 436.380937 293.277969 
Q 436.380937 295.277969 438.380937 295.277969 
z
" style="fill: #ffffff; opacity: 0.8; stroke: #cccccc; stroke-linejoin: miter"/>
    </g>
    <g id="line2d_45">
     <path d="M 440.380937 271.020156 
L 450.380937 271.020156 
L 460.380937 271.020156 
" style="fill: none; stroke: #2196f3; stroke-width: 2; stroke-linecap: square"/>
     <g>
      <use xlink:href="#m59f895e4be" x="450.380937" y="271.020156" style="fill: #2196f3; stroke: #2196f3"/>
     </g>
    </g>
    <g id="text_34">
     <!-- f(K) -->
     <g transform="translate(468.380937 274.520156) scale(0.1 -0.1)">
      <defs>
       <path id="DejaVuSans-4b" d="M 628 4666 
L 1259 4666 
L 1259 2694 
L 3353 4666 
L 4166 4666 
L 1850 2491 
L 4331 0 
L 3500 0 
L 1259 2247 
L 1259 0 
L 628 0 
L 628 4666 
z
" transform="scale(0.015625)"/>
      </defs>
      <use xlink:href="#DejaVuSans-66"/>
      <use xlink:href="#DejaVuSans-28" transform="translate(35.205078 0)"/>
      <use xlink:href="#DejaVuSans-4b" transform="translate(74.21875 0)"/>
      <use xlink:href="#DejaVuSans-29" transform="translate(139.794922 0)"/>
     </g>
    </g>
    <g id="line2d_46">
     <path d="M 440.380937 285.698281 
L 450.380937 285.698281 
L 460.380937 285.698281 
" style="fill: none; stroke-dasharray: 7.4,3.2; stroke-dashoffset: 0; stroke: #f44336; stroke-width: 2"/>
    </g>
    <g id="text_35">
     <!-- K*=19 -->
     <g transform="translate(468.380937 289.198281) scale(0.1 -0.1)">
      <defs>
       <path id="DejaVuSans-2a" d="M 3009 3897 
L 1888 3291 
L 3009 2681 
L 2828 2375 
L 1778 3009 
L 1778 1831 
L 1422 1831 
L 1422 3009 
L 372 2375 
L 191 2681 
L 1313 3291 
L 191 3897 
L 372 4206 
L 1422 3572 
L 1422 4750 
L 1778 4750 
L 1778 3572 
L 2828 4206 
L 3009 3897 
z
" transform="scale(0.015625)"/>
       <path id="DejaVuSans-3d" d="M 678 2906 
L 4684 2906 
L 4684 2381 
L 678 2381 
L 678 2906 
z
M 678 1631 
L 4684 1631 
L 4684 1100 
L 678 1100 
L 678 1631 
z
" transform="scale(0.015625)"/>
       <path id="DejaVuSans-39" d="M 703 97 
L 703 672 
Q 941 559 1184 500 
Q 1428 441 1663 441 
Q 2288 441 2617 861 
Q 2947 1281 2994 2138 
Q 2813 1869 2534 1725 
Q 2256 1581 1919 1581 
Q 1219 1581 811 2004 
Q 403 2428 403 3163 
Q 403 3881 828 4315 
Q 1253 4750 1959 4750 
Q 2769 4750 3195 4129 
Q 3622 3509 3622 2328 
Q 3622 1225 3098 567 
Q 2575 -91 1691 -91 
Q 1453 -91 1209 -44 
Q 966 3 703 97 
z
M 1959 2075 
Q 2384 2075 2632 2365 
Q 2881 2656 2881 3163 
Q 2881 3666 2632 3958 
Q 2384 4250 1959 4250 
Q 1534 4250 1286 3958 
Q 1038 3666 1038 3163 
Q 1038 2656 1286 2365 
Q 1534 2075 1959 2075 
z
" transform="scale(0.015625)"/>
      </defs>
      <use xlink:href="#DejaVuSans-4b"/>
      <use xlink:href="#DejaVuSans-2a" transform="translate(65.576172 0)"/>
      <use xlink:href="#DejaVuSans-3d" transform="translate(115.576172 0)"/>
      <use xlink:href="#DejaVuSans-31" transform="translate(199.365234 0)"/>
      <use xlink:href="#DejaVuSans-39" transform="translate(262.988281 0)"/>
     </g>
    </g>
   </g>
  </g>
 </g>
 <defs>
  <clipPath id="pdff7af92e0">
   <rect x="63.643437" y="23.077969" width="446.4" height="277.2"/>
  </clipPath>
 </defs>
</svg>
