<?xml version="1.0" encoding="utf-8" standalone="no"?>
<!DOCTYPE svg PUBLIC "-//W3C//DTD SVG 1.1//EN"
  "http://www.w3.org/Graphics/SVG/1.1/DTD/svg11.dtd">
<svg xmlns:xlink="http://www.w3.org/1999/xlink" width="520.421562pt" height="339.769844pt" viewBox="0 0 520.421562 339.769844" xmlns="http://www.w3.org/2000/svg" version="1.1">
 <metadata>
  <rdf:RDF xmlns:dc="http://purl.org/dc/elements/1.1/" xmlns:cc="http://creativecommons.org/ns#" xmlns:rdf="http://www.w3.org/1999/02/22-rdf-syntax-ns#">
   <cc:Work>
    <dc:type rdf:resource="http://purl.org/dc/dcmitype/StillImage"/>
    <dc:date>2026-06-03T22:40:33.615954</dc:date>
    <dc:format>image/svg+xml</dc:format>
    <dc:creator>
     <cc:Agent>
      <dc:title>Matplotlib v3.10.8, https://matplotlib.org/</dc:title>
     </cc:Agent>
    </dc:creator>
   </cc:Work>
  </rdf:RDF>
 </metadata>
 <defs>
  <style type="text/css">*{stroke-linejoin: round; stroke-linecap: butt}</style>
 </defs>
 <g id="figure_1">
  <g id="patch_1">
   <path d="M 0 339.769844 
L 520.421562 339.769844 
L 520.421562 0 
L 0 0 
z
" style="fill: #ffffff"/>
  </g>
  <g id="axes_1">
   <g id="patch_2">
    <path d="M 66.821562 300.277969 
L 513.221563 300.277969 
L 513.221563 23.077969 
L 66.821562 23.077969 
z
" style="fill: #ffffff"/>
   </g>
   <g id="matplotlib.axis_1">
    <g id="xtick_1">
     <g id="line2d_1">
      <path d="M 85.073184 300.277969 
L 85.073184 23.077969 
" clip-path="url(#p0da0ffc3b4)" style="fill: none; stroke: #b0b0b0; stroke-opacity: 0.3; stroke-width: 0.8; stroke-linecap: square"/>
     </g>
     <g id="line2d_2">
      <defs>
       <path id="m885832e184" d="M 0 0 
L 0 3.5 
" style="stroke: #000000; stroke-width: 0.8"/>
      </defs>
      <g>
       <use xlink:href="#m885832e184" x="85.073184" y="300.277969" style="stroke: #000000; stroke-width: 0.8"/>
      </g>
     </g>
     <g id="text_1">
      <!-- 0 -->
      <g transform="translate(81.891934 314.876406) scale(0.1 -0.1)">
       <defs>
        <path id="DejaVuSans-30" d="M 2034 4250 
Q 1547 4250 1301 3770 
Q 1056 3291 1056 2328 
Q 1056 1369 1301 889 
Q 1547 409 2034 409 
Q 2525 409 2770 889 
Q 3016 1369 3016 2328 
Q 3016 3291 2770 3770 
Q 2525 4250 2034 4250 
z
M 2034 4750 
Q 2819 4750 3233 4129 
Q 3647 3509 3647 2328 
Q 3647 1150 3233 529 
Q 2819 -91 2034 -91 
Q 1250 -91 836 529 
Q 422 1150 422 2328 
Q 422 3509 836 4129 
Q 1250 4750 2034 4750 
z
" transform="scale(0.015625)"/>
       </defs>
       <use xlink:href="#DejaVuSans-30"/>
      </g>
     </g>
    </g>
    <g id="xtick_2">
     <g id="line2d_3">
      <path d="M 136.055368 300.277969 
L 136.055368 23.077969 
" clip-path="url(#p0da0ffc3b4)" style="fill: none; stroke: #b0b0b0; stroke-opacity: 0.3; stroke-width: 0.8; stroke-linecap: square"/>
     </g>
     <g id="line2d_4">
      <g>
       <use xlink:href="#m885832e184" x="136.055368" y="300.277969" style="stroke: #000000; stroke-width: 0.8"/>
      </g>
     </g>
     <g id="text_2">
      <!-- 25 -->
      <g transform="translate(129.692868 314.876406) scale(0.1 -0.1)">
       <defs>
        <path id="DejaVuSans-32" d="M 1228 531 
L 3431 531 
L 3431 0 
L 469 0 
L 469 531 
Q 828 903 1448 1529 
Q 2069 2156 2228 2338 
Q 2531 2678 2651 2914 
Q 2772 3150 2772 3378 
Q 2772 3750 2511 3984 
Q 2250 4219 1831 4219 
Q 1534 4219 1204 4116 
Q 875 4013 500 3803 
L 500 4441 
Q 881 4594 1212 4672 
Q 1544 4750 1819 4750 
Q 2544 4750 2975 4387 
Q 3406 4025 3406 3419 
Q 3406 3131 3298 2873 
Q 3191 2616 2906 2266 
Q 2828 2175 2409 1742 
Q 1991 1309 1228 531 
z
" transform="scale(0.015625)"/>
        <path id="DejaVuSans-35" d="M 691 4666 
L 3169 4666 
L 3169 4134 
L 1269 4134 
L 1269 2991 
Q 1406 3038 1543 3061 
Q 1681 3084 1819 3084 
Q 2600 3084 3056 2656 
Q 3513 2228 3513 1497 
Q 3513 744 3044 326 
Q 2575 -91 1722 -91 
Q 1428 -91 1123 -41 
Q 819 9 494 109 
L 494 744 
Q 775 591 1075 516 
Q 1375 441 1709 441 
Q 2250 441 2565 725 
Q 2881 1009 2881 1497 
Q 2881 1984 2565 2268 
Q 2250 2553 1709 2553 
Q 1456 2553 1204 2497 
Q 953 2441 691 2322 
L 691 4666 
z
" transform="scale(0.015625)"/>
       </defs>
       <use xlink:href="#DejaVuSans-32"/>
       <use xlink:href="#DejaVuSans-35" transform="translate(63.623047 0)"/>
      </g>
     </g>
    </g>
    <g id="xtick_3">
     <g id="line2d_5">
      <path d="M 187.037552 300.277969 
L 187.037552 23.077969 
" clip-path="url(#p0da0ffc3b4)" style="fill: none; stroke: #b0b0b0; stroke-opacity: 0.3; stroke-width: 0.8; stroke-linecap: square"/>
     </g>
     <g id="line2d_6">
      <g>
       <use xlink:href="#m885832e184" x="187.037552" y="300.277969" style="stroke: #000000; stroke-width: 0.8"/>
      </g>
     </g>
     <g id="text_3">
      <!-- 50 -->
      <g transform="translate(180.675052 314.876406) scale(0.1 -0.1)">
       <use xlink:href="#DejaVuSans-35"/>
       <use xlink:href="#DejaVuSans-30" transform="translate(63.623047 0)"/>
      </g>
     </g>
    </g>
    <g id="xtick_4">
     <g id="line2d_7">
      <path d="M 238.019735 300.277969 
L 238.019735 23.077969 
" clip-path="url(#p0da0ffc3b4)" style="fill: none; stroke: #b0b0b0; stroke-opacity: 0.3; stroke-width: 0.8; stroke-linecap: square"/>
     </g>
     <g id="line2d_8">
      <g>
       <use xlink:href="#m885832e184" x="238.019735" y="300.277969" style="stroke: #000000; stroke-width: 0.8"/>
      </g>
     </g>
     <g id="text_4">
      <!-- 75 -->
      <g transform="translate(231.657235 314.876406) scale(0.1 -0.1)">
       <defs>
        <path id="DejaVuSans-37" d="M 525 4666 
L 3525 4666 
L 3525 4397 
L 1831 0 
L 1172 0 
L 2766 4134 
L 525 4134 
L 525 4666 
z
" transform="scale(0.015625)"/>
       </defs>
       <use xlink:href="#DejaVuSans-37"/>
       <use xlink:href="#DejaVuSans-35" transform="translate(63.623047 0)"/>
      </g>
     </g>
    </g>
    <g id="xtick_5">
     <g id="line2d_9">
      <path d="M 289.001919 300.277969 
L 289.001919 23.077969 
" clip-path="url(#p0da0ffc3b4)" style="fill: none; stroke: #b0b0b0; stroke-opacity: 0.3; stroke-width: 0.8; stroke-linecap: square"/>
     </g>
     <g id="line2d_10">
      <g>
       <use xlink:href="#m885832e184" x="289.001919" y="300.277969" style="stroke: #000000; stroke-width: 0.8"/>
      </g>
     </g>
     <g id="text_5">
      <!-- 100 -->
      <g transform="translate(279.458169 314.876406) scale(0.1 -0.1)">
       <defs>
        <path id="DejaVuSans-31" d="M 794 531 
L 1825 531 
L 1825 4091 
L 703 3866 
L 703 4441 
L 1819 4666 
L 2450 4666 
L 2450 531 
L 3481 531 
L 3481 0 
L 794 0 
L 794 531 
z
" transform="scale(0.015625)"/>
       </defs>
       <use xlink:href="#DejaVuSans-31"/>
       <use xlink:href="#DejaVuSans-30" transform="translate(63.623047 0)"/>
       <use xlink:href="#DejaVuSans-30" transform="translate(127.246094 0)"/>
      </g>
     </g>
    </g>
    <g id="xtick_6">
     <g id="line2d_11">
      <path d="M 339.984102 300.277969 
L 339.984102 23.077969 
" clip-path="url(#p0da0ffc3b4)" style="fill: none; stroke: #b0b0b0; stroke-opacity: 0.3; stroke-width: 0.8; stroke-linecap: square"/>
     </g>
     <g id="line2d_12">
      <g>
       <use xlink:href="#m885832e184" x="339.984102" y="300.277969" style="stroke: #000000; stroke-width: 0.8"/>
      </g>
     </g>
     <g id="text_6">
      <!-- 125 -->
      <g transform="translate(330.440352 314.876406) scale(0.1 -0.1)">
       <use xlink:href="#DejaVuSans-31"/>
       <use xlink:href="#DejaVuSans-32" transform="translate(63.623047 0)"/>
       <use xlink:href="#DejaVuSans-35" transform="translate(127.246094 0)"/>
      </g>
     </g>
    </g>
    <g id="xtick_7">
     <g id="line2d_13">
      <path d="M 390.966286 300.277969 
L 390.966286 23.077969 
" clip-path="url(#p0da0ffc3b4)" style="fill: none; stroke: #b0b0b0; stroke-opacity: 0.3; stroke-width: 0.8; stroke-linecap: square"/>
     </g>
     <g id="line2d_14">
      <g>
       <use xlink:href="#m885832e184" x="390.966286" y="300.277969" style="stroke: #000000; stroke-width: 0.8"/>
      </g>
     </g>
     <g id="text_7">
      <!-- 150 -->
      <g transform="translate(381.422536 314.876406) scale(0.1 -0.1)">
       <use xlink:href="#DejaVuSans-31"/>
       <use xlink:href="#DejaVuSans-35" transform="translate(63.623047 0)"/>
       <use xlink:href="#DejaVuSans-30" transform="translate(127.246094 0)"/>
      </g>
     </g>
    </g>
    <g id="xtick_8">
     <g id="line2d_15">
      <path d="M 441.94847 300.277969 
L 441.94847 23.077969 
" clip-path="url(#p0da0ffc3b4)" style="fill: none; stroke: #b0b0b0; stroke-opacity: 0.3; stroke-width: 0.8; stroke-linecap: square"/>
     </g>
     <g id="line2d_16">
      <g>
       <use xlink:href="#m885832e184" x="441.94847" y="300.277969" style="stroke: #000000; stroke-width: 0.8"/>
      </g>
     </g>
     <g id="text_8">
      <!-- 175 -->
      <g transform="translate(432.40472 314.876406) scale(0.1 -0.1)">
       <use xlink:href="#DejaVuSans-31"/>
       <use xlink:href="#DejaVuSans-37" transform="translate(63.623047 0)"/>
       <use xlink:href="#DejaVuSans-35" transform="translate(127.246094 0)"/>
      </g>
     </g>
    </g>
    <g id="xtick_9">
     <g id="line2d_17">
      <path d="M 492.930653 300.277969 
L 492.930653 23.077969 
" clip-path="url(#p0da0ffc3b4)" style="fill: none; stroke: #b0b0b0; stroke-opacity: 0.3; stroke-width: 0.8; stroke-linecap: square"/>
     </g>
     <g id="line2d_18">
      <g>
       <use xlink:href="#m885832e184" x="492.930653" y="300.277969" style="stroke: #000000; stroke-width: 0.8"/>
      </g>
     </g>
     <g id="text_9">
      <!-- 200 -->
      <g transform="translate(483.386903 314.876406) scale(0.1 -0.1)">
       <use xlink:href="#DejaVuSans-32"/>
       <use xlink:href="#DejaVuSans-30" transform="translate(63.623047 0)"/>
       <use xlink:href="#DejaVuSans-30" transform="translate(127.246094 0)"/>
      </g>
     </g>
    </g>
    <g id="text_10">
     <!-- s (smoothing) -->
     <g transform="translate(248.561562 330.074219) scale(0.12 -0.12)">
      <defs>
       <path id="DejaVuSans-73" d="M 2834 3397 
L 2834 2853 
Q 2591 2978 2328 3040 
Q 2066 3103 1784 3103 
Q 1356 3103 1142 2972 
Q 928 2841 928 2578 
Q 928 2378 1081 2264 
Q 1234 2150 1697 2047 
L 1894 2003 
Q 2506 1872 2764 1633 
Q 3022 1394 3022 966 
Q 3022 478 2636 193 
Q 2250 -91 1575 -91 
Q 1294 -91 989 -36 
Q 684 19 347 128 
L 347 722 
Q 666 556 975 473 
Q 1284 391 1588 391 
Q 1994 391 2212 530 
Q 2431 669 2431 922 
Q 2431 1156 2273 1281 
Q 2116 1406 1581 1522 
L 1381 1569 
Q 847 1681 609 1914 
Q 372 2147 372 2553 
Q 372 3047 722 3315 
Q 1072 3584 1716 3584 
Q 2034 3584 2315 3537 
Q 2597 3491 2834 3397 
z
" transform="scale(0.015625)"/>
       <path id="DejaVuSans-20" transform="scale(0.015625)"/>
       <path id="DejaVuSans-28" d="M 1984 4856 
Q 1566 4138 1362 3434 
Q 1159 2731 1159 2009 
Q 1159 1288 1364 580 
Q 1569 -128 1984 -844 
L 1484 -844 
Q 1016 -109 783 600 
Q 550 1309 550 2009 
Q 550 2706 781 3412 
Q 1013 4119 1484 4856 
L 1984 4856 
z
" transform="scale(0.015625)"/>
       <path id="DejaVuSans-6d" d="M 3328 2828 
Q 3544 3216 3844 3400 
Q 4144 3584 4550 3584 
Q 5097 3584 5394 3201 
Q 5691 2819 5691 2113 
L 5691 0 
L 5113 0 
L 5113 2094 
Q 5113 2597 4934 2840 
Q 4756 3084 4391 3084 
Q 3944 3084 3684 2787 
Q 3425 2491 3425 1978 
L 3425 0 
L 2847 0 
L 2847 2094 
Q 2847 2600 2669 2842 
Q 2491 3084 2119 3084 
Q 1678 3084 1418 2786 
Q 1159 2488 1159 1978 
L 1159 0 
L 581 0 
L 581 3500 
L 1159 3500 
L 1159 2956 
Q 1356 3278 1631 3431 
Q 1906 3584 2284 3584 
Q 2666 3584 2933 3390 
Q 3200 3197 3328 2828 
z
" transform="scale(0.015625)"/>
       <path id="DejaVuSans-6f" d="M 1959 3097 
Q 1497 3097 1228 2736 
Q 959 2375 959 1747 
Q 959 1119 1226 758 
Q 1494 397 1959 397 
Q 2419 397 2687 759 
Q 2956 1122 2956 1747 
Q 2956 2369 2687 2733 
Q 2419 3097 1959 3097 
z
M 1959 3584 
Q 2709 3584 3137 3096 
Q 3566 2609 3566 1747 
Q 3566 888 3137 398 
Q 2709 -91 1959 -91 
Q 1206 -91 779 398 
Q 353 888 353 1747 
Q 353 2609 779 3096 
Q 1206 3584 1959 3584 
z
" transform="scale(0.015625)"/>
       <path id="DejaVuSans-74" d="M 1172 4494 
L 1172 3500 
L 2356 3500 
L 2356 3053 
L 1172 3053 
L 1172 1153 
Q 1172 725 1289 603 
Q 1406 481 1766 481 
L 2356 481 
L 2356 0 
L 1766 0 
Q 1100 0 847 248 
Q 594 497 594 1153 
L 594 3053 
L 172 3053 
L 172 3500 
L 594 3500 
L 594 4494 
L 1172 4494 
z
" transform="scale(0.015625)"/>
       <path id="DejaVuSans-68" d="M 3513 2113 
L 3513 0 
L 2938 0 
L 2938 2094 
Q 2938 2591 2744 2837 
Q 2550 3084 2163 3084 
Q 1697 3084 1428 2787 
Q 1159 2491 1159 1978 
L 1159 0 
L 581 0 
L 581 4863 
L 1159 4863 
L 1159 2956 
Q 1366 3272 1645 3428 
Q 1925 3584 2291 3584 
Q 2894 3584 3203 3211 
Q 3513 2838 3513 2113 
z
" transform="scale(0.015625)"/>
       <path id="DejaVuSans-69" d="M 603 3500 
L 1178 3500 
L 1178 0 
L 603 0 
L 603 3500 
z
M 603 4863 
L 1178 4863 
L 1178 4134 
L 603 4134 
L 603 4863 
z
" transform="scale(0.015625)"/>
       <path id="DejaVuSans-6e" d="M 3513 2113 
L 3513 0 
L 2938 0 
L 2938 2094 
Q 2938 2591 2744 2837 
Q 2550 3084 2163 3084 
Q 1697 3084 1428 2787 
Q 1159 2491 1159 1978 
L 1159 0 
L 581 0 
L 581 3500 
L 1159 3500 
L 1159 2956 
Q 1366 3272 1645 3428 
Q 1925 3584 2291 3584 
Q 2894 3584 3203 3211 
Q 3513 2838 3513 2113 
z
" transform="scale(0.015625)"/>
       <path id="DejaVuSans-67" d="M 2906 1791 
Q 2906 2416 2648 2759 
Q 2391 3103 1925 3103 
Q 1463 3103 1205 2759 
Q 947 2416 947 1791 
Q 947 1169 1205 825 
Q 1463 481 1925 481 
Q 2391 481 2648 825 
Q 2906 1169 2906 1791 
z
M 3481 434 
Q 3481 -459 3084 -895 
Q 2688 -1331 1869 -1331 
Q 1566 -1331 1297 -1286 
Q 1028 -1241 775 -1147 
L 775 -588 
Q 1028 -725 1275 -790 
Q 1522 -856 1778 -856 
Q 2344 -856 2625 -561 
Q 2906 -266 2906 331 
L 2906 616 
Q 2728 306 2450 153 
Q 2172 0 1784 0 
Q 1141 0 747 490 
Q 353 981 353 1791 
Q 353 2603 747 3093 
Q 1141 3584 1784 3584 
Q 2172 3584 2450 3431 
Q 2728 3278 2906 2969 
L 2906 3500 
L 3481 3500 
L 3481 434 
z
" transform="scale(0.015625)"/>
       <path id="DejaVuSans-29" d="M 513 4856 
L 1013 4856 
Q 1481 4119 1714 3412 
Q 1947 2706 1947 2009 
Q 1947 1309 1714 600 
Q 1481 -109 1013 -844 
L 513 -844 
Q 928 -128 1133 580 
Q 1338 1288 1338 2009 
Q 1338 2731 1133 3434 
Q 928 4138 513 4856 
z
" transform="scale(0.015625)"/>
      </defs>
      <use xlink:href="#DejaVuSans-73"/>
      <use xlink:href="#DejaVuSans-20" transform="translate(52.099609 0)"/>
      <use xlink:href="#DejaVuSans-28" transform="translate(83.886719 0)"/>
      <use xlink:href="#DejaVuSans-73" transform="translate(122.900391 0)"/>
      <use xlink:href="#DejaVuSans-6d" transform="translate(175 0)"/>
      <use xlink:href="#DejaVuSans-6f" transform="translate(272.412109 0)"/>
      <use xlink:href="#DejaVuSans-6f" transform="translate(333.59375 0)"/>
      <use xlink:href="#DejaVuSans-74" transform="translate(394.775391 0)"/>
      <use xlink:href="#DejaVuSans-68" transform="translate(433.984375 0)"/>
      <use xlink:href="#DejaVuSans-69" transform="translate(497.363281 0)"/>
      <use xlink:href="#DejaVuSans-6e" transform="translate(525.146484 0)"/>
      <use xlink:href="#DejaVuSans-67" transform="translate(588.525391 0)"/>
      <use xlink:href="#DejaVuSans-29" transform="translate(652.001953 0)"/>
     </g>
    </g>
   </g>
   <g id="matplotlib.axis_2">
    <g id="ytick_1">
     <g id="line2d_19">
      <path d="M 66.821562 265.405206 
L 513.221563 265.405206 
" clip-path="url(#p0da0ffc3b4)" style="fill: none; stroke: #b0b0b0; stroke-opacity: 0.3; stroke-width: 0.8; stroke-linecap: square"/>
     </g>
     <g id="line2d_20">
      <defs>
       <path id="me69065a0bc" d="M 0 0 
L -3.5 0 
" style="stroke: #000000; stroke-width: 0.8"/>
      </defs>
      <g>
       <use xlink:href="#me69065a0bc" x="66.821562" y="265.405206" style="stroke: #000000; stroke-width: 0.8"/>
      </g>
     </g>
     <g id="text_11">
      <!-- −0.025 -->
      <g transform="translate(22.81375 269.204424) scale(0.1 -0.1)">
       <defs>
        <path id="DejaVuSans-2212" d="M 678 2272 
L 4684 2272 
L 4684 1741 
L 678 1741 
L 678 2272 
z
" transform="scale(0.015625)"/>
        <path id="DejaVuSans-2e" d="M 684 794 
L 1344 794 
L 1344 0 
L 684 0 
L 684 794 
z
" transform="scale(0.015625)"/>
       </defs>
       <use xlink:href="#DejaVuSans-2212"/>
       <use xlink:href="#DejaVuSans-30" transform="translate(83.789062 0)"/>
       <use xlink:href="#DejaVuSans-2e" transform="translate(147.412109 0)"/>
       <use xlink:href="#DejaVuSans-30" transform="translate(179.199219 0)"/>
       <use xlink:href="#DejaVuSans-32" transform="translate(242.822266 0)"/>
       <use xlink:href="#DejaVuSans-35" transform="translate(306.445312 0)"/>
      </g>
     </g>
    </g>
    <g id="ytick_2">
     <g id="line2d_21">
      <path d="M 66.821562 207.97214 
L 513.221563 207.97214 
" clip-path="url(#p0da0ffc3b4)" style="fill: none; stroke: #b0b0b0; stroke-opacity: 0.3; stroke-width: 0.8; stroke-linecap: square"/>
     </g>
     <g id="line2d_22">
      <g>
       <use xlink:href="#me69065a0bc" x="66.821562" y="207.97214" style="stroke: #000000; stroke-width: 0.8"/>
      </g>
     </g>
     <g id="text_12">
      <!-- −0.020 -->
      <g transform="translate(22.81375 211.771359) scale(0.1 -0.1)">
       <use xlink:href="#DejaVuSans-2212"/>
       <use xlink:href="#DejaVuSans-30" transform="translate(83.789062 0)"/>
       <use xlink:href="#DejaVuSans-2e" transform="translate(147.412109 0)"/>
       <use xlink:href="#DejaVuSans-30" transform="translate(179.199219 0)"/>
       <use xlink:href="#DejaVuSans-32" transform="translate(242.822266 0)"/>
       <use xlink:href="#DejaVuSans-30" transform="translate(306.445312 0)"/>
      </g>
     </g>
    </g>
    <g id="ytick_3">
     <g id="line2d_23">
      <path d="M 66.821562 150.539075 
L 513.221563 150.539075 
" clip-path="url(#p0da0ffc3b4)" style="fill: none; stroke: #b0b0b0; stroke-opacity: 0.3; stroke-width: 0.8; stroke-linecap: square"/>
     </g>
     <g id="line2d_24">
      <g>
       <use xlink:href="#me69065a0bc" x="66.821562" y="150.539075" style="stroke: #000000; stroke-width: 0.8"/>
      </g>
     </g>
     <g id="text_13">
      <!-- −0.015 -->
      <g transform="translate(22.81375 154.338293) scale(0.1 -0.1)">
       <use xlink:href="#DejaVuSans-2212"/>
       <use xlink:href="#DejaVuSans-30" transform="translate(83.789062 0)"/>
       <use xlink:href="#DejaVuSans-2e" transform="translate(147.412109 0)"/>
       <use xlink:href="#DejaVuSans-30" transform="translate(179.199219 0)"/>
       <use xlink:href="#DejaVuSans-31" transform="translate(242.822266 0)"/>
       <use xlink:href="#DejaVuSans-35" transform="translate(306.445312 0)"/>
      </g>
     </g>
    </g>
    <g id="ytick_4">
     <g id="line2d_25">
      <path d="M 66.821562 93.106009 
L 513.221563 93.106009 
" clip-path="url(#p0da0ffc3b4)" style="fill: none; stroke: #b0b0b0; stroke-opacity: 0.3; stroke-width: 0.8; stroke-linecap: square"/>
     </g>
     <g id="line2d_26">
      <g>
       <use xlink:href="#me69065a0bc" x="66.821562" y="93.106009" style="stroke: #000000; stroke-width: 0.8"/>
      </g>
     </g>
     <g id="text_14">
      <!-- −0.010 -->
      <g transform="translate(22.81375 96.905228) scale(0.1 -0.1)">
       <use xlink:href="#DejaVuSans-2212"/>
       <use xlink:href="#DejaVuSans-30" transform="translate(83.789062 0)"/>
       <use xlink:href="#DejaVuSans-2e" transform="translate(147.412109 0)"/>
       <use xlink:href="#DejaVuSans-30" transform="translate(179.199219 0)"/>
       <use xlink:href="#DejaVuSans-31" transform="translate(242.822266 0)"/>
       <use xlink:href="#DejaVuSans-30" transform="translate(306.445312 0)"/>
      </g>
     </g>
    </g>
    <g id="ytick_5">
     <g id="line2d_27">
      <path d="M 66.821562 35.672944 
L 513.221563 35.672944 
" clip-path="url(#p0da0ffc3b4)" style="fill: none; stroke: #b0b0b0; stroke-opacity: 0.3; stroke-width: 0.8; stroke-linecap: square"/>
     </g>
     <g id="line2d_28">
      <g>
       <use xlink:href="#me69065a0bc" x="66.821562" y="35.672944" style="stroke: #000000; stroke-width: 0.8"/>
      </g>
     </g>
     <g id="text_15">
      <!-- −0.005 -->
      <g transform="translate(22.81375 39.472162) scale(0.1 -0.1)">
       <use xlink:href="#DejaVuSans-2212"/>
       <use xlink:href="#DejaVuSans-30" transform="translate(83.789062 0)"/>
       <use xlink:href="#DejaVuSans-2e" transform="translate(147.412109 0)"/>
       <use xlink:href="#DejaVuSans-30" transform="translate(179.199219 0)"/>
       <use xlink:href="#DejaVuSans-30" transform="translate(242.822266 0)"/>
       <use xlink:href="#DejaVuSans-35" transform="translate(306.445312 0)"/>
      </g>
     </g>
    </g>
    <g id="text_16">
     <!-- -MSE -->
     <g transform="translate(16.318125 176.619844) rotate(-90) scale(0.12 -0.12)">
      <defs>
       <path id="DejaVuSans-2d" d="M 313 2009 
L 1997 2009 
L 1997 1497 
L 313 1497 
L 313 2009 
z
" transform="scale(0.015625)"/>
       <path id="DejaVuSans-4d" d="M 628 4666 
L 1569 4666 
L 2759 1491 
L 3956 4666 
L 4897 4666 
L 4897 0 
L 4281 0 
L 4281 4097 
L 3078 897 
L 2444 897 
L 1241 4097 
L 1241 0 
L 628 0 
L 628 4666 
z
" transform="scale(0.015625)"/>
       <path id="DejaVuSans-53" d="M 3425 4513 
L 3425 3897 
Q 3066 4069 2747 4153 
Q 2428 4238 2131 4238 
Q 1616 4238 1336 4038 
Q 1056 3838 1056 3469 
Q 1056 3159 1242 3001 
Q 1428 2844 1947 2747 
L 2328 2669 
Q 3034 2534 3370 2195 
Q 3706 1856 3706 1288 
Q 3706 609 3251 259 
Q 2797 -91 1919 -91 
Q 1588 -91 1214 -16 
Q 841 59 441 206 
L 441 856 
Q 825 641 1194 531 
Q 1563 422 1919 422 
Q 2459 422 2753 634 
Q 3047 847 3047 1241 
Q 3047 1584 2836 1778 
Q 2625 1972 2144 2069 
L 1759 2144 
Q 1053 2284 737 2584 
Q 422 2884 422 3419 
Q 422 4038 858 4394 
Q 1294 4750 2059 4750 
Q 2388 4750 2728 4690 
Q 3069 4631 3425 4513 
z
" transform="scale(0.015625)"/>
       <path id="DejaVuSans-45" d="M 628 4666 
L 3578 4666 
L 3578 4134 
L 1259 4134 
L 1259 2753 
L 3481 2753 
L 3481 2222 
L 1259 2222 
L 1259 531 
L 3634 531 
L 3634 0 
L 628 0 
L 628 4666 
z
" transform="scale(0.015625)"/>
      </defs>
      <use xlink:href="#DejaVuSans-2d"/>
      <use xlink:href="#DejaVuSans-4d" transform="translate(36.083984 0)"/>
      <use xlink:href="#DejaVuSans-53" transform="translate(122.363281 0)"/>
      <use xlink:href="#DejaVuSans-45" transform="translate(185.839844 0)"/>
     </g>
    </g>
   </g>
   <g id="line2d_29">
    <path d="M 87.112472 35.677969 
L 89.151759 93.183077 
L 91.191046 150.44688 
L 93.230334 207.974805 
L 95.269621 265.412468 
L 97.308908 287.677969 
L 99.348196 287.677969 
L 101.387483 287.677969 
L 103.42677 287.677969 
L 105.466058 287.677969 
L 107.505345 287.677969 
L 109.544632 287.677969 
L 111.58392 287.677969 
L 113.623207 287.677969 
L 115.662494 287.677969 
L 117.701782 287.677969 
L 119.741069 287.677969 
L 121.780356 287.677969 
L 123.819644 287.677969 
L 125.858931 287.677969 
L 127.898219 287.677969 
L 129.937506 287.677969 
L 131.976793 287.677969 
L 134.016081 287.677969 
L 136.055368 287.677969 
L 286.962631 287.677969 
L 289.001919 287.677969 
L 388.926999 287.677969 
L 390.966286 287.677969 
L 439.909182 287.677969 
L 441.94847 287.677969 
L 464.380631 287.677969 
L 466.419918 287.677969 
L 476.616355 287.677969 
L 478.655642 287.677969 
L 482.734217 287.677969 
L 484.773504 287.677969 
L 486.812791 287.677969 
L 488.852079 287.677969 
L 490.891366 287.677969 
L 492.930653 287.677969 
" clip-path="url(#p0da0ffc3b4)" style="fill: none; stroke: #2196f3; stroke-width: 2; stroke-linecap: square"/>
    <defs>
     <path id="m5431275f49" d="M 0 2 
C 0.530406 2 1.03916 1.789267 1.414214 1.414214 
C 1.789267 1.03916 2 0.530406 2 0 
C 2 -0.530406 1.789267 -1.03916 1.414214 -1.414214 
C 1.03916 -1.789267 0.530406 -2 0 -2 
C -0.530406 -2 -1.03916 -1.789267 -1.414214 -1.414214 
C -1.789267 -1.03916 -2 -0.530406 -2 0 
C -2 0.530406 -1.789267 1.03916 -1.414214 1.414214 
C -1.03916 1.789267 -0.530406 2 0 2 
z
" style="stroke: #2196f3"/>
    </defs>
    <g clip-path="url(#p0da0ffc3b4)">
     <use xlink:href="#m5431275f49" x="87.112472" y="35.677969" style="fill: #2196f3; stroke: #2196f3"/>
     <use xlink:href="#m5431275f49" x="89.151759" y="93.183077" style="fill: #2196f3; stroke: #2196f3"/>
     <use xlink:href="#m5431275f49" x="91.191046" y="150.44688" style="fill: #2196f3; stroke: #2196f3"/>
     <use xlink:href="#m5431275f49" x="93.230334" y="207.974805" style="fill: #2196f3; stroke: #2196f3"/>
     <use xlink:href="#m5431275f49" x="95.269621" y="265.412468" style="fill: #2196f3; stroke: #2196f3"/>
     <use xlink:href="#m5431275f49" x="97.308908" y="287.677969" style="fill: #2196f3; stroke: #2196f3"/>
     <use xlink:href="#m5431275f49" x="99.348196" y="287.677969" style="fill: #2196f3; stroke: #2196f3"/>
     <use xlink:href="#m5431275f49" x="101.387483" y="287.677969" style="fill: #2196f3; stroke: #2196f3"/>
     <use xlink:href="#m5431275f49" x="103.42677" y="287.677969" style="fill: #2196f3; stroke: #2196f3"/>
     <use xlink:href="#m5431275f49" x="105.466058" y="287.677969" style="fill: #2196f3; stroke: #2196f3"/>
     <use xlink:href="#m5431275f49" x="107.505345" y="287.677969" style="fill: #2196f3; stroke: #2196f3"/>
     <use xlink:href="#m5431275f49" x="109.544632" y="287.677969" style="fill: #2196f3; stroke: #2196f3"/>
     <use xlink:href="#m5431275f49" x="111.58392" y="287.677969" style="fill: #2196f3; stroke: #2196f3"/>
     <use xlink:href="#m5431275f49" x="113.623207" y="287.677969" style="fill: #2196f3; stroke: #2196f3"/>
     <use xlink:href="#m5431275f49" x="115.662494" y="287.677969" style="fill: #2196f3; stroke: #2196f3"/>
     <use xlink:href="#m5431275f49" x="117.701782" y="287.677969" style="fill: #2196f3; stroke: #2196f3"/>
     <use xlink:href="#m5431275f49" x="119.741069" y="287.677969" style="fill: #2196f3; stroke: #2196f3"/>
     <use xlink:href="#m5431275f49" x="121.780356" y="287.677969" style="fill: #2196f3; stroke: #2196f3"/>
     <use xlink:href="#m5431275f49" x="123.819644" y="287.677969" style="fill: #2196f3; stroke: #2196f3"/>
     <use xlink:href="#m5431275f49" x="125.858931" y="287.677969" style="fill: #2196f3; stroke: #2196f3"/>
     <use xlink:href="#m5431275f49" x="127.898219" y="287.677969" style="fill: #2196f3; stroke: #2196f3"/>
     <use xlink:href="#m5431275f49" x="129.937506" y="287.677969" style="fill: #2196f3; stroke: #2196f3"/>
     <use xlink:href="#m5431275f49" x="131.976793" y="287.677969" style="fill: #2196f3; stroke: #2196f3"/>
     <use xlink:href="#m5431275f49" x="134.016081" y="287.677969" style="fill: #2196f3; stroke: #2196f3"/>
     <use xlink:href="#m5431275f49" x="136.055368" y="287.677969" style="fill: #2196f3; stroke: #2196f3"/>
     <use xlink:href="#m5431275f49" x="286.962631" y="287.677969" style="fill: #2196f3; stroke: #2196f3"/>
     <use xlink:href="#m5431275f49" x="289.001919" y="287.677969" style="fill: #2196f3; stroke: #2196f3"/>
     <use xlink:href="#m5431275f49" x="388.926999" y="287.677969" style="fill: #2196f3; stroke: #2196f3"/>
     <use xlink:href="#m5431275f49" x="390.966286" y="287.677969" style="fill: #2196f3; stroke: #2196f3"/>
     <use xlink:href="#m5431275f49" x="439.909182" y="287.677969" style="fill: #2196f3; stroke: #2196f3"/>
     <use xlink:href="#m5431275f49" x="441.94847" y="287.677969" style="fill: #2196f3; stroke: #2196f3"/>
     <use xlink:href="#m5431275f49" x="464.380631" y="287.677969" style="fill: #2196f3; stroke: #2196f3"/>
     <use xlink:href="#m5431275f49" x="466.419918" y="287.677969" style="fill: #2196f3; stroke: #2196f3"/>
     <use xlink:href="#m5431275f49" x="476.616355" y="287.677969" style="fill: #2196f3; stroke: #2196f3"/>
     <use xlink:href="#m5431275f49" x="478.655642" y="287.677969" style="fill: #2196f3; stroke: #2196f3"/>
     <use xlink:href="#m5431275f49" x="482.734217" y="287.677969" style="fill: #2196f3; stroke: #2196f3"/>
     <use xlink:href="#m5431275f49" x="484.773504" y="287.677969" style="fill: #2196f3; stroke: #2196f3"/>
     <use xlink:href="#m5431275f49" x="486.812791" y="287.677969" style="fill: #2196f3; stroke: #2196f3"/>
     <use xlink:href="#m5431275f49" x="488.852079" y="287.677969" style="fill: #2196f3; stroke: #2196f3"/>
     <use xlink:href="#m5431275f49" x="490.891366" y="287.677969" style="fill: #2196f3; stroke: #2196f3"/>
     <use xlink:href="#m5431275f49" x="492.930653" y="287.677969" style="fill: #2196f3; stroke: #2196f3"/>
    </g>
   </g>
   <g id="line2d_30">
    <path d="M 87.112472 300.277969 
L 87.112472 23.077969 
" clip-path="url(#p0da0ffc3b4)" style="fill: none; stroke-dasharray: 7.4,3.2; stroke-dashoffset: 0; stroke: #f44336; stroke-width: 2"/>
   </g>
   <g id="patch_3">
    <path d="M 66.821562 300.277969 
L 66.821562 23.077969 
" style="fill: none; stroke: #000000; stroke-width: 0.8; stroke-linejoin: miter; stroke-linecap: square"/>
   </g>
   <g id="patch_4">
    <path d="M 513.221563 300.277969 
L 513.221563 23.077969 
" style="fill: none; stroke: #000000; stroke-width: 0.8; stroke-linejoin: miter; stroke-linecap: square"/>
   </g>
   <g id="patch_5">
    <path d="M 66.821562 300.277969 
L 513.221562 300.277969 
" style="fill: none; stroke: #000000; stroke-width: 0.8; stroke-linejoin: miter; stroke-linecap: square"/>
   </g>
   <g id="patch_6">
    <path d="M 66.821562 23.077969 
L 513.221562 23.077969 
" style="fill: none; stroke: #000000; stroke-width: 0.8; stroke-linejoin: miter; stroke-linecap: square"/>
   </g>
   <g id="text_17">
    <g id="patch_7">
     <path d="M 84.677237 27.97375 
L 89.547706 27.97375 
Q 90.387706 27.97375 90.387706 27.13375 
L 90.387706 20.359062 
Q 90.387706 19.519062 89.547706 19.519062 
L 84.677237 19.519062 
Q 83.837237 19.519062 83.837237 20.359062 
L 83.837237 27.13375 
Q 83.837237 27.97375 84.677237 27.97375 
z
" style="fill: #ffffff; opacity: 0.85; stroke: #795548; stroke-width: 0.4; stroke-linejoin: miter"/>
    </g>
    <!-- 1 -->
    <g style="fill: #795548" transform="translate(84.677237 25.677969) scale(0.07 -0.07)">
     <defs>
      <path id="DejaVuSans-Bold-31" d="M 750 831 
L 1813 831 
L 1813 3847 
L 722 3622 
L 722 4441 
L 1806 4666 
L 2950 4666 
L 2950 831 
L 4013 831 
L 4013 0 
L 750 0 
L 750 831 
z
" transform="scale(0.015625)"/>
     </defs>
     <use xlink:href="#DejaVuSans-Bold-31"/>
    </g>
   </g>
   <g id="text_18">
    <g id="patch_8">
     <path d="M 490.495419 279.97375 
L 495.365888 279.97375 
Q 496.205888 279.97375 496.205888 279.13375 
L 496.205888 272.359062 
Q 496.205888 271.519062 495.365888 271.519062 
L 490.495419 271.519062 
Q 489.655419 271.519062 489.655419 272.359062 
L 489.655419 279.13375 
Q 489.655419 279.97375 490.495419 279.97375 
z
" style="fill: #ffffff; opacity: 0.85; stroke: #795548; stroke-width: 0.4; stroke-linejoin: miter"/>
    </g>
    <!-- 2 -->
    <g style="fill: #795548" transform="translate(490.495419 277.677969) scale(0.07 -0.07)">
     <defs>
      <path id="DejaVuSans-Bold-32" d="M 1844 884 
L 3897 884 
L 3897 0 
L 506 0 
L 506 884 
L 2209 2388 
Q 2438 2594 2547 2791 
Q 2656 2988 2656 3200 
Q 2656 3528 2436 3728 
Q 2216 3928 1850 3928 
Q 1569 3928 1234 3808 
Q 900 3688 519 3450 
L 519 4475 
Q 925 4609 1322 4679 
Q 1719 4750 2100 4750 
Q 2938 4750 3402 4381 
Q 3866 4013 3866 3353 
Q 3866 2972 3669 2642 
Q 3472 2313 2841 1759 
L 1844 884 
z
" transform="scale(0.015625)"/>
     </defs>
     <use xlink:href="#DejaVuSans-Bold-32"/>
    </g>
   </g>
   <g id="text_19">
    <g id="patch_9">
     <path d="M 286.566684 279.97375 
L 291.437153 279.97375 
Q 292.277153 279.97375 292.277153 279.13375 
L 292.277153 272.359062 
Q 292.277153 271.519062 291.437153 271.519062 
L 286.566684 271.519062 
Q 285.726684 271.519062 285.726684 272.359062 
L 285.726684 279.13375 
Q 285.726684 279.97375 286.566684 279.97375 
z
" style="fill: #ffffff; opacity: 0.85; stroke: #4caf50; stroke-width: 0.4; stroke-linejoin: miter"/>
    </g>
    <!-- 3 -->
    <g style="fill: #4caf50" transform="translate(286.566684 277.677969) scale(0.07 -0.07)">
     <defs>
      <path id="DejaVuSans-Bold-33" d="M 2981 2516 
Q 3453 2394 3698 2092 
Q 3944 1791 3944 1325 
Q 3944 631 3412 270 
Q 2881 -91 1863 -91 
Q 1503 -91 1142 -33 
Q 781 25 428 141 
L 428 1069 
Q 766 900 1098 814 
Q 1431 728 1753 728 
Q 2231 728 2486 893 
Q 2741 1059 2741 1369 
Q 2741 1688 2480 1852 
Q 2219 2016 1709 2016 
L 1228 2016 
L 1228 2791 
L 1734 2791 
Q 2188 2791 2409 2933 
Q 2631 3075 2631 3366 
Q 2631 3634 2415 3781 
Q 2200 3928 1806 3928 
Q 1516 3928 1219 3862 
Q 922 3797 628 3669 
L 628 4550 
Q 984 4650 1334 4700 
Q 1684 4750 2022 4750 
Q 2931 4750 3382 4451 
Q 3834 4153 3834 3553 
Q 3834 3144 3618 2883 
Q 3403 2622 2981 2516 
z
" transform="scale(0.015625)"/>
     </defs>
     <use xlink:href="#DejaVuSans-Bold-33"/>
    </g>
   </g>
   <g id="text_20">
    <g id="patch_10">
     <path d="M 388.531052 279.97375 
L 393.40152 279.97375 
Q 394.24152 279.97375 394.24152 279.13375 
L 394.24152 272.359062 
Q 394.24152 271.519062 393.40152 271.519062 
L 388.531052 271.519062 
Q 387.691052 271.519062 387.691052 272.359062 
L 387.691052 279.13375 
Q 387.691052 279.97375 388.531052 279.97375 
z
" style="fill: #ffffff; opacity: 0.85; stroke: #4caf50; stroke-width: 0.4; stroke-linejoin: miter"/>
    </g>
    <!-- 4 -->
    <g style="fill: #4caf50" transform="translate(388.531052 277.677969) scale(0.07 -0.07)">
     <defs>
      <path id="DejaVuSans-Bold-34" d="M 2356 3675 
L 1038 1722 
L 2356 1722 
L 2356 3675 
z
M 2156 4666 
L 3494 4666 
L 3494 1722 
L 4159 1722 
L 4159 850 
L 3494 850 
L 3494 0 
L 2356 0 
L 2356 850 
L 288 850 
L 288 1881 
L 2156 4666 
z
" transform="scale(0.015625)"/>
     </defs>
     <use xlink:href="#DejaVuSans-Bold-34"/>
    </g>
   </g>
   <g id="text_21">
    <g id="patch_11">
     <path d="M 439.513235 279.97375 
L 444.383704 279.97375 
Q 445.223704 279.97375 445.223704 279.13375 
L 445.223704 272.359062 
Q 445.223704 271.519062 444.383704 271.519062 
L 439.513235 271.519062 
Q 438.673235 271.519062 438.673235 272.359062 
L 438.673235 279.13375 
Q 438.673235 279.97375 439.513235 279.97375 
z
" style="fill: #ffffff; opacity: 0.85; stroke: #4caf50; stroke-width: 0.4; stroke-linejoin: miter"/>
    </g>
    <!-- 5 -->
    <g style="fill: #4caf50" transform="translate(439.513235 277.677969) scale(0.07 -0.07)">
     <defs>
      <path id="DejaVuSans-Bold-35" d="M 678 4666 
L 3669 4666 
L 3669 3781 
L 1638 3781 
L 1638 3059 
Q 1775 3097 1914 3117 
Q 2053 3138 2203 3138 
Q 3056 3138 3531 2711 
Q 4006 2284 4006 1522 
Q 4006 766 3489 337 
Q 2972 -91 2053 -91 
Q 1656 -91 1267 -14 
Q 878 63 494 219 
L 494 1166 
Q 875 947 1217 837 
Q 1559 728 1863 728 
Q 2300 728 2551 942 
Q 2803 1156 2803 1522 
Q 2803 1891 2551 2103 
Q 2300 2316 1863 2316 
Q 1603 2316 1309 2248 
Q 1016 2181 678 2041 
L 678 4666 
z
" transform="scale(0.015625)"/>
     </defs>
     <use xlink:href="#DejaVuSans-Bold-35"/>
    </g>
   </g>
   <g id="text_22">
    <g id="patch_12">
     <path d="M 463.984684 279.97375 
L 468.855152 279.97375 
Q 469.695152 279.97375 469.695152 279.13375 
L 469.695152 272.359062 
Q 469.695152 271.519062 468.855152 271.519062 
L 463.984684 271.519062 
Q 463.144684 271.519062 463.144684 272.359062 
L 463.144684 279.13375 
Q 463.144684 279.97375 463.984684 279.97375 
z
" style="fill: #ffffff; opacity: 0.85; stroke: #4caf50; stroke-width: 0.4; stroke-linejoin: miter"/>
    </g>
    <!-- 6 -->
    <g style="fill: #4caf50" transform="translate(463.984684 277.677969) scale(0.07 -0.07)">
     <defs>
      <path id="DejaVuSans-Bold-36" d="M 2316 2303 
Q 2000 2303 1842 2098 
Q 1684 1894 1684 1484 
Q 1684 1075 1842 870 
Q 2000 666 2316 666 
Q 2634 666 2792 870 
Q 2950 1075 2950 1484 
Q 2950 1894 2792 2098 
Q 2634 2303 2316 2303 
z
M 3803 4544 
L 3803 3681 
Q 3506 3822 3243 3889 
Q 2981 3956 2731 3956 
Q 2194 3956 1894 3657 
Q 1594 3359 1544 2772 
Q 1750 2925 1990 3001 
Q 2231 3078 2516 3078 
Q 3231 3078 3670 2659 
Q 4109 2241 4109 1563 
Q 4109 813 3618 361 
Q 3128 -91 2303 -91 
Q 1394 -91 895 523 
Q 397 1138 397 2266 
Q 397 3422 980 4083 
Q 1563 4744 2578 4744 
Q 2900 4744 3203 4694 
Q 3506 4644 3803 4544 
z
" transform="scale(0.015625)"/>
     </defs>
     <use xlink:href="#DejaVuSans-Bold-36"/>
    </g>
   </g>
   <g id="text_23">
    <g id="patch_13">
     <path d="M 476.220408 279.97375 
L 481.090876 279.97375 
Q 481.930876 279.97375 481.930876 279.13375 
L 481.930876 272.359062 
Q 481.930876 271.519062 481.090876 271.519062 
L 476.220408 271.519062 
Q 475.380408 271.519062 475.380408 272.359062 
L 475.380408 279.13375 
Q 475.380408 279.97375 476.220408 279.97375 
z
" style="fill: #ffffff; opacity: 0.85; stroke: #4caf50; stroke-width: 0.4; stroke-linejoin: miter"/>
    </g>
    <!-- 7 -->
    <g style="fill: #4caf50" transform="translate(476.220408 277.677969) scale(0.07 -0.07)">
     <defs>
      <path id="DejaVuSans-Bold-37" d="M 428 4666 
L 3944 4666 
L 3944 3988 
L 2125 0 
L 953 0 
L 2675 3781 
L 428 3781 
L 428 4666 
z
" transform="scale(0.015625)"/>
     </defs>
     <use xlink:href="#DejaVuSans-Bold-37"/>
    </g>
   </g>
   <g id="text_24">
    <g id="patch_14">
     <path d="M 482.33827 279.97375 
L 487.208738 279.97375 
Q 488.048738 279.97375 488.048738 279.13375 
L 488.048738 272.359062 
Q 488.048738 271.519062 487.208738 271.519062 
L 482.33827 271.519062 
Q 481.49827 271.519062 481.49827 272.359062 
L 481.49827 279.13375 
Q 481.49827 279.97375 482.33827 279.97375 
z
" style="fill: #ffffff; opacity: 0.85; stroke: #4caf50; stroke-width: 0.4; stroke-linejoin: miter"/>
    </g>
    <!-- 8 -->
    <g style="fill: #4caf50" transform="translate(482.33827 277.677969) scale(0.07 -0.07)">
     <defs>
      <path id="DejaVuSans-Bold-38" d="M 2228 2088 
Q 1891 2088 1709 1903 
Q 1528 1719 1528 1375 
Q 1528 1031 1709 848 
Q 1891 666 2228 666 
Q 2563 666 2741 848 
Q 2919 1031 2919 1375 
Q 2919 1722 2741 1905 
Q 2563 2088 2228 2088 
z
M 1350 2484 
Q 925 2613 709 2878 
Q 494 3144 494 3541 
Q 494 4131 934 4440 
Q 1375 4750 2228 4750 
Q 3075 4750 3515 4442 
Q 3956 4134 3956 3541 
Q 3956 3144 3739 2878 
Q 3522 2613 3097 2484 
Q 3572 2353 3814 2058 
Q 4056 1763 4056 1313 
Q 4056 619 3595 264 
Q 3134 -91 2228 -91 
Q 1319 -91 855 264 
Q 391 619 391 1313 
Q 391 1763 633 2058 
Q 875 2353 1350 2484 
z
M 1631 3419 
Q 1631 3141 1786 2991 
Q 1941 2841 2228 2841 
Q 2509 2841 2662 2991 
Q 2816 3141 2816 3419 
Q 2816 3697 2662 3845 
Q 2509 3994 2228 3994 
Q 1941 3994 1786 3844 
Q 1631 3694 1631 3419 
z
" transform="scale(0.015625)"/>
     </defs>
     <use xlink:href="#DejaVuSans-Bold-38"/>
    </g>
   </g>
   <g id="text_25">
    <g id="patch_15">
     <path d="M 486.416844 279.97375 
L 491.287313 279.97375 
Q 492.127313 279.97375 492.127313 279.13375 
L 492.127313 272.359062 
Q 492.127313 271.519062 491.287313 271.519062 
L 486.416844 271.519062 
Q 485.576844 271.519062 485.576844 272.359062 
L 485.576844 279.13375 
Q 485.576844 279.97375 486.416844 279.97375 
z
" style="fill: #ffffff; opacity: 0.85; stroke: #4caf50; stroke-width: 0.4; stroke-linejoin: miter"/>
    </g>
    <!-- 9 -->
    <g style="fill: #4caf50" transform="translate(486.416844 277.677969) scale(0.07 -0.07)">
     <defs>
      <path id="DejaVuSans-Bold-39" d="M 641 103 
L 641 966 
Q 928 831 1190 764 
Q 1453 697 1709 697 
Q 2247 697 2547 995 
Q 2847 1294 2900 1881 
Q 2688 1725 2447 1647 
Q 2206 1569 1925 1569 
Q 1209 1569 770 1986 
Q 331 2403 331 3084 
Q 331 3838 820 4291 
Q 1309 4744 2131 4744 
Q 3044 4744 3544 4128 
Q 4044 3513 4044 2388 
Q 4044 1231 3459 570 
Q 2875 -91 1856 -91 
Q 1528 -91 1228 -42 
Q 928 6 641 103 
z
M 2125 2350 
Q 2441 2350 2600 2554 
Q 2759 2759 2759 3169 
Q 2759 3575 2600 3781 
Q 2441 3988 2125 3988 
Q 1809 3988 1650 3781 
Q 1491 3575 1491 3169 
Q 1491 2759 1650 2554 
Q 1809 2350 2125 2350 
z
" transform="scale(0.015625)"/>
     </defs>
     <use xlink:href="#DejaVuSans-Bold-39"/>
    </g>
   </g>
   <g id="text_26">
    <g id="patch_16">
     <path d="M 486.020897 279.97375 
L 495.761835 279.97375 
Q 496.601835 279.97375 496.601835 279.13375 
L 496.601835 272.359062 
Q 496.601835 271.519062 495.761835 271.519062 
L 486.020897 271.519062 
Q 485.180897 271.519062 485.180897 272.359062 
L 485.180897 279.13375 
Q 485.180897 279.97375 486.020897 279.97375 
z
" style="fill: #ffffff; opacity: 0.85; stroke: #4caf50; stroke-width: 0.4; stroke-linejoin: miter"/>
    </g>
    <!-- 10 -->
    <g style="fill: #4caf50" transform="translate(486.020897 277.677969) scale(0.07 -0.07)">
     <defs>
      <path id="DejaVuSans-Bold-30" d="M 2944 2338 
Q 2944 3213 2780 3570 
Q 2616 3928 2228 3928 
Q 1841 3928 1675 3570 
Q 1509 3213 1509 2338 
Q 1509 1453 1675 1090 
Q 1841 728 2228 728 
Q 2613 728 2778 1090 
Q 2944 1453 2944 2338 
z
M 4147 2328 
Q 4147 1169 3647 539 
Q 3147 -91 2228 -91 
Q 1306 -91 806 539 
Q 306 1169 306 2328 
Q 306 3491 806 4120 
Q 1306 4750 2228 4750 
Q 3147 4750 3647 4120 
Q 4147 3491 4147 2328 
z
" transform="scale(0.015625)"/>
     </defs>
     <use xlink:href="#DejaVuSans-Bold-31"/>
     <use xlink:href="#DejaVuSans-Bold-30" transform="translate(69.580078 0)"/>
    </g>
   </g>
   <g id="text_27">
    <g id="patch_17">
     <path d="M 84.28129 85.478858 
L 94.022228 85.478858 
Q 94.862228 85.478858 94.862228 84.638858 
L 94.862228 77.864171 
Q 94.862228 77.024171 94.022228 77.024171 
L 84.28129 77.024171 
Q 83.44129 77.024171 83.44129 77.864171 
L 83.44129 84.638858 
Q 83.44129 85.478858 84.28129 85.478858 
z
" style="fill: #ffffff; opacity: 0.85; stroke: #e91e63; stroke-width: 0.4; stroke-linejoin: miter"/>
    </g>
    <!-- 11 -->
    <g style="fill: #e91e63" transform="translate(84.28129 83.183077) scale(0.07 -0.07)">
     <use xlink:href="#DejaVuSans-Bold-31"/>
     <use xlink:href="#DejaVuSans-Bold-31" transform="translate(69.580078 0)"/>
    </g>
   </g>
   <g id="text_28">
    <g id="patch_18">
     <path d="M 86.320578 142.742661 
L 96.061515 142.742661 
Q 96.901515 142.742661 96.901515 141.902661 
L 96.901515 135.127973 
Q 96.901515 134.287973 96.061515 134.287973 
L 86.320578 134.287973 
Q 85.480578 134.287973 85.480578 135.127973 
L 85.480578 141.902661 
Q 85.480578 142.742661 86.320578 142.742661 
z
" style="fill: #ffffff; opacity: 0.85; stroke: #e91e63; stroke-width: 0.4; stroke-linejoin: miter"/>
    </g>
    <!-- 12 -->
    <g style="fill: #e91e63" transform="translate(86.320578 140.44688) scale(0.07 -0.07)">
     <use xlink:href="#DejaVuSans-Bold-31"/>
     <use xlink:href="#DejaVuSans-Bold-32" transform="translate(69.580078 0)"/>
    </g>
   </g>
   <g id="text_29">
    <g id="patch_19">
     <path d="M 88.359865 200.270587 
L 98.100802 200.270587 
Q 98.940802 200.270587 98.940802 199.430587 
L 98.940802 192.655899 
Q 98.940802 191.815899 98.100802 191.815899 
L 88.359865 191.815899 
Q 87.519865 191.815899 87.519865 192.655899 
L 87.519865 199.430587 
Q 87.519865 200.270587 88.359865 200.270587 
z
" style="fill: #ffffff; opacity: 0.85; stroke: #e91e63; stroke-width: 0.4; stroke-linejoin: miter"/>
    </g>
    <!-- 13 -->
    <g style="fill: #e91e63" transform="translate(88.359865 197.974805) scale(0.07 -0.07)">
     <use xlink:href="#DejaVuSans-Bold-31"/>
     <use xlink:href="#DejaVuSans-Bold-33" transform="translate(69.580078 0)"/>
    </g>
   </g>
   <g id="text_30">
    <g id="patch_20">
     <path d="M 90.399152 257.708249 
L 100.14009 257.708249 
Q 100.98009 257.708249 100.98009 256.868249 
L 100.98009 250.093562 
Q 100.98009 249.253562 100.14009 249.253562 
L 90.399152 249.253562 
Q 89.559152 249.253562 89.559152 250.093562 
L 89.559152 256.868249 
Q 89.559152 257.708249 90.399152 257.708249 
z
" style="fill: #ffffff; opacity: 0.85; stroke: #e91e63; stroke-width: 0.4; stroke-linejoin: miter"/>
    </g>
    <!-- 14 -->
    <g style="fill: #e91e63" transform="translate(90.399152 255.412468) scale(0.07 -0.07)">
     <use xlink:href="#DejaVuSans-Bold-31"/>
     <use xlink:href="#DejaVuSans-Bold-34" transform="translate(69.580078 0)"/>
    </g>
   </g>
   <g id="text_31">
    <g id="patch_21">
     <path d="M 92.43844 279.97375 
L 102.179377 279.97375 
Q 103.019377 279.97375 103.019377 279.13375 
L 103.019377 272.359062 
Q 103.019377 271.519062 102.179377 271.519062 
L 92.43844 271.519062 
Q 91.59844 271.519062 91.59844 272.359062 
L 91.59844 279.13375 
Q 91.59844 279.97375 92.43844 279.97375 
z
" style="fill: #ffffff; opacity: 0.85; stroke: #e91e63; stroke-width: 0.4; stroke-linejoin: miter"/>
    </g>
    <!-- 15 -->
    <g style="fill: #e91e63" transform="translate(92.43844 277.677969) scale(0.07 -0.07)">
     <use xlink:href="#DejaVuSans-Bold-31"/>
     <use xlink:href="#DejaVuSans-Bold-35" transform="translate(69.580078 0)"/>
    </g>
   </g>
   <g id="text_32">
    <g id="patch_22">
     <path d="M 94.477727 279.97375 
L 104.218664 279.97375 
Q 105.058664 279.97375 105.058664 279.13375 
L 105.058664 272.359062 
Q 105.058664 271.519062 104.218664 271.519062 
L 94.477727 271.519062 
Q 93.637727 271.519062 93.637727 272.359062 
L 93.637727 279.13375 
Q 93.637727 279.97375 94.477727 279.97375 
z
" style="fill: #ffffff; opacity: 0.85; stroke: #e91e63; stroke-width: 0.4; stroke-linejoin: miter"/>
    </g>
    <!-- 16 -->
    <g style="fill: #e91e63" transform="translate(94.477727 277.677969) scale(0.07 -0.07)">
     <use xlink:href="#DejaVuSans-Bold-31"/>
     <use xlink:href="#DejaVuSans-Bold-36" transform="translate(69.580078 0)"/>
    </g>
   </g>
   <g id="text_33">
    <g id="patch_23">
     <path d="M 96.517014 279.97375 
L 106.257952 279.97375 
Q 107.097952 279.97375 107.097952 279.13375 
L 107.097952 272.359062 
Q 107.097952 271.519062 106.257952 271.519062 
L 96.517014 271.519062 
Q 95.677014 271.519062 95.677014 272.359062 
L 95.677014 279.13375 
Q 95.677014 279.97375 96.517014 279.97375 
z
" style="fill: #ffffff; opacity: 0.85; stroke: #e91e63; stroke-width: 0.4; stroke-linejoin: miter"/>
    </g>
    <!-- 17 -->
    <g style="fill: #e91e63" transform="translate(96.517014 277.677969) scale(0.07 -0.07)">
     <use xlink:href="#DejaVuSans-Bold-31"/>
     <use xlink:href="#DejaVuSans-Bold-37" transform="translate(69.580078 0)"/>
    </g>
   </g>
   <g id="text_34">
    <g id="patch_24">
     <path d="M 98.556302 279.97375 
L 108.297239 279.97375 
Q 109.137239 279.97375 109.137239 279.13375 
L 109.137239 272.359062 
Q 109.137239 271.519062 108.297239 271.519062 
L 98.556302 271.519062 
Q 97.716302 271.519062 97.716302 272.359062 
L 97.716302 279.13375 
Q 97.716302 279.97375 98.556302 279.97375 
z
" style="fill: #ffffff; opacity: 0.85; stroke: #e91e63; stroke-width: 0.4; stroke-linejoin: miter"/>
    </g>
    <!-- 18 -->
    <g style="fill: #e91e63" transform="translate(98.556302 277.677969) scale(0.07 -0.07)">
     <use xlink:href="#DejaVuSans-Bold-31"/>
     <use xlink:href="#DejaVuSans-Bold-38" transform="translate(69.580078 0)"/>
    </g>
   </g>
   <g id="text_35">
    <g id="patch_25">
     <path d="M 100.595589 279.97375 
L 110.336526 279.97375 
Q 111.176526 279.97375 111.176526 279.13375 
L 111.176526 272.359062 
Q 111.176526 271.519062 110.336526 271.519062 
L 100.595589 271.519062 
Q 99.755589 271.519062 99.755589 272.359062 
L 99.755589 279.13375 
Q 99.755589 279.97375 100.595589 279.97375 
z
" style="fill: #ffffff; opacity: 0.85; stroke: #e91e63; stroke-width: 0.4; stroke-linejoin: miter"/>
    </g>
    <!-- 19 -->
    <g style="fill: #e91e63" transform="translate(100.595589 277.677969) scale(0.07 -0.07)">
     <use xlink:href="#DejaVuSans-Bold-31"/>
     <use xlink:href="#DejaVuSans-Bold-39" transform="translate(69.580078 0)"/>
    </g>
   </g>
   <g id="text_36">
    <g id="patch_26">
     <path d="M 102.634876 279.97375 
L 112.375814 279.97375 
Q 113.215814 279.97375 113.215814 279.13375 
L 113.215814 272.359062 
Q 113.215814 271.519062 112.375814 271.519062 
L 102.634876 271.519062 
Q 101.794876 271.519062 101.794876 272.359062 
L 101.794876 279.13375 
Q 101.794876 279.97375 102.634876 279.97375 
z
" style="fill: #ffffff; opacity: 0.85; stroke: #e91e63; stroke-width: 0.4; stroke-linejoin: miter"/>
    </g>
    <!-- 20 -->
    <g style="fill: #e91e63" transform="translate(102.634876 277.677969) scale(0.07 -0.07)">
     <use xlink:href="#DejaVuSans-Bold-32"/>
     <use xlink:href="#DejaVuSans-Bold-30" transform="translate(69.580078 0)"/>
    </g>
   </g>
   <g id="text_37">
    <g id="patch_27">
     <path d="M 104.674164 279.97375 
L 114.415101 279.97375 
Q 115.255101 279.97375 115.255101 279.13375 
L 115.255101 272.359062 
Q 115.255101 271.519062 114.415101 271.519062 
L 104.674164 271.519062 
Q 103.834164 271.519062 103.834164 272.359062 
L 103.834164 279.13375 
Q 103.834164 279.97375 104.674164 279.97375 
z
" style="fill: #ffffff; opacity: 0.85; stroke: #e91e63; stroke-width: 0.4; stroke-linejoin: miter"/>
    </g>
    <!-- 21 -->
    <g style="fill: #e91e63" transform="translate(104.674164 277.677969) scale(0.07 -0.07)">
     <use xlink:href="#DejaVuSans-Bold-32"/>
     <use xlink:href="#DejaVuSans-Bold-31" transform="translate(69.580078 0)"/>
    </g>
   </g>
   <g id="text_38">
    <g id="patch_28">
     <path d="M 106.713451 279.97375 
L 116.454388 279.97375 
Q 117.294388 279.97375 117.294388 279.13375 
L 117.294388 272.359062 
Q 117.294388 271.519062 116.454388 271.519062 
L 106.713451 271.519062 
Q 105.873451 271.519062 105.873451 272.359062 
L 105.873451 279.13375 
Q 105.873451 279.97375 106.713451 279.97375 
z
" style="fill: #ffffff; opacity: 0.85; stroke: #e91e63; stroke-width: 0.4; stroke-linejoin: miter"/>
    </g>
    <!-- 22 -->
    <g style="fill: #e91e63" transform="translate(106.713451 277.677969) scale(0.07 -0.07)">
     <use xlink:href="#DejaVuSans-Bold-32"/>
     <use xlink:href="#DejaVuSans-Bold-32" transform="translate(69.580078 0)"/>
    </g>
   </g>
   <g id="text_39">
    <g id="patch_29">
     <path d="M 108.752738 279.97375 
L 118.493676 279.97375 
Q 119.333676 279.97375 119.333676 279.13375 
L 119.333676 272.359062 
Q 119.333676 271.519062 118.493676 271.519062 
L 108.752738 271.519062 
Q 107.912738 271.519062 107.912738 272.359062 
L 107.912738 279.13375 
Q 107.912738 279.97375 108.752738 279.97375 
z
" style="fill: #ffffff; opacity: 0.85; stroke: #e91e63; stroke-width: 0.4; stroke-linejoin: miter"/>
    </g>
    <!-- 23 -->
    <g style="fill: #e91e63" transform="translate(108.752738 277.677969) scale(0.07 -0.07)">
     <use xlink:href="#DejaVuSans-Bold-32"/>
     <use xlink:href="#DejaVuSans-Bold-33" transform="translate(69.580078 0)"/>
    </g>
   </g>
   <g id="text_40">
    <g id="patch_30">
     <path d="M 110.792026 279.97375 
L 120.532963 279.97375 
Q 121.372963 279.97375 121.372963 279.13375 
L 121.372963 272.359062 
Q 121.372963 271.519062 120.532963 271.519062 
L 110.792026 271.519062 
Q 109.952026 271.519062 109.952026 272.359062 
L 109.952026 279.13375 
Q 109.952026 279.97375 110.792026 279.97375 
z
" style="fill: #ffffff; opacity: 0.85; stroke: #e91e63; stroke-width: 0.4; stroke-linejoin: miter"/>
    </g>
    <!-- 24 -->
    <g style="fill: #e91e63" transform="translate(110.792026 277.677969) scale(0.07 -0.07)">
     <use xlink:href="#DejaVuSans-Bold-32"/>
     <use xlink:href="#DejaVuSans-Bold-34" transform="translate(69.580078 0)"/>
    </g>
   </g>
   <g id="text_41">
    <g id="patch_31">
     <path d="M 112.831313 279.97375 
L 122.572251 279.97375 
Q 123.412251 279.97375 123.412251 279.13375 
L 123.412251 272.359062 
Q 123.412251 271.519062 122.572251 271.519062 
L 112.831313 271.519062 
Q 111.991313 271.519062 111.991313 272.359062 
L 111.991313 279.13375 
Q 111.991313 279.97375 112.831313 279.97375 
z
" style="fill: #ffffff; opacity: 0.85; stroke: #e91e63; stroke-width: 0.4; stroke-linejoin: miter"/>
    </g>
    <!-- 25 -->
    <g style="fill: #e91e63" transform="translate(112.831313 277.677969) scale(0.07 -0.07)">
     <use xlink:href="#DejaVuSans-Bold-32"/>
     <use xlink:href="#DejaVuSans-Bold-35" transform="translate(69.580078 0)"/>
    </g>
   </g>
   <g id="text_42">
    <g id="patch_32">
     <path d="M 114.8706 279.97375 
L 124.611538 279.97375 
Q 125.451538 279.97375 125.451538 279.13375 
L 125.451538 272.359062 
Q 125.451538 271.519062 124.611538 271.519062 
L 114.8706 271.519062 
Q 114.0306 271.519062 114.0306 272.359062 
L 114.0306 279.13375 
Q 114.0306 279.97375 114.8706 279.97375 
z
" style="fill: #ffffff; opacity: 0.85; stroke: #e91e63; stroke-width: 0.4; stroke-linejoin: miter"/>
    </g>
    <!-- 26 -->
    <g style="fill: #e91e63" transform="translate(114.8706 277.677969) scale(0.07 -0.07)">
     <use xlink:href="#DejaVuSans-Bold-32"/>
     <use xlink:href="#DejaVuSans-Bold-36" transform="translate(69.580078 0)"/>
    </g>
   </g>
   <g id="text_43">
    <g id="patch_33">
     <path d="M 116.909888 279.97375 
L 126.650825 279.97375 
Q 127.490825 279.97375 127.490825 279.13375 
L 127.490825 272.359062 
Q 127.490825 271.519062 126.650825 271.519062 
L 116.909888 271.519062 
Q 116.069888 271.519062 116.069888 272.359062 
L 116.069888 279.13375 
Q 116.069888 279.97375 116.909888 279.97375 
z
" style="fill: #ffffff; opacity: 0.85; stroke: #e91e63; stroke-width: 0.4; stroke-linejoin: miter"/>
    </g>
    <!-- 27 -->
    <g style="fill: #e91e63" transform="translate(116.909888 277.677969) scale(0.07 -0.07)">
     <use xlink:href="#DejaVuSans-Bold-32"/>
     <use xlink:href="#DejaVuSans-Bold-37" transform="translate(69.580078 0)"/>
    </g>
   </g>
   <g id="text_44">
    <g id="patch_34">
     <path d="M 118.949175 279.97375 
L 128.690113 279.97375 
Q 129.530113 279.97375 129.530113 279.13375 
L 129.530113 272.359062 
Q 129.530113 271.519062 128.690113 271.519062 
L 118.949175 271.519062 
Q 118.109175 271.519062 118.109175 272.359062 
L 118.109175 279.13375 
Q 118.109175 279.97375 118.949175 279.97375 
z
" style="fill: #ffffff; opacity: 0.85; stroke: #e91e63; stroke-width: 0.4; stroke-linejoin: miter"/>
    </g>
    <!-- 28 -->
    <g style="fill: #e91e63" transform="translate(118.949175 277.677969) scale(0.07 -0.07)">
     <use xlink:href="#DejaVuSans-Bold-32"/>
     <use xlink:href="#DejaVuSans-Bold-38" transform="translate(69.580078 0)"/>
    </g>
   </g>
   <g id="text_45">
    <g id="patch_35">
     <path d="M 120.988462 279.97375 
L 130.7294 279.97375 
Q 131.5694 279.97375 131.5694 279.13375 
L 131.5694 272.359062 
Q 131.5694 271.519062 130.7294 271.519062 
L 120.988462 271.519062 
Q 120.148462 271.519062 120.148462 272.359062 
L 120.148462 279.13375 
Q 120.148462 279.97375 120.988462 279.97375 
z
" style="fill: #ffffff; opacity: 0.85; stroke: #e91e63; stroke-width: 0.4; stroke-linejoin: miter"/>
    </g>
    <!-- 29 -->
    <g style="fill: #e91e63" transform="translate(120.988462 277.677969) scale(0.07 -0.07)">
     <use xlink:href="#DejaVuSans-Bold-32"/>
     <use xlink:href="#DejaVuSans-Bold-39" transform="translate(69.580078 0)"/>
    </g>
   </g>
   <g id="text_46">
    <g id="patch_36">
     <path d="M 123.02775 279.97375 
L 132.768687 279.97375 
Q 133.608687 279.97375 133.608687 279.13375 
L 133.608687 272.359062 
Q 133.608687 271.519062 132.768687 271.519062 
L 123.02775 271.519062 
Q 122.18775 271.519062 122.18775 272.359062 
L 122.18775 279.13375 
Q 122.18775 279.97375 123.02775 279.97375 
z
" style="fill: #ffffff; opacity: 0.85; stroke: #e91e63; stroke-width: 0.4; stroke-linejoin: miter"/>
    </g>
    <!-- 30 -->
    <g style="fill: #e91e63" transform="translate(123.02775 277.677969) scale(0.07 -0.07)">
     <use xlink:href="#DejaVuSans-Bold-33"/>
     <use xlink:href="#DejaVuSans-Bold-30" transform="translate(69.580078 0)"/>
    </g>
   </g>
   <g id="text_47">
    <g id="patch_37">
     <path d="M 125.067037 279.97375 
L 134.807975 279.97375 
Q 135.647975 279.97375 135.647975 279.13375 
L 135.647975 272.359062 
Q 135.647975 271.519062 134.807975 271.519062 
L 125.067037 271.519062 
Q 124.227037 271.519062 124.227037 272.359062 
L 124.227037 279.13375 
Q 124.227037 279.97375 125.067037 279.97375 
z
" style="fill: #ffffff; opacity: 0.85; stroke: #e91e63; stroke-width: 0.4; stroke-linejoin: miter"/>
    </g>
    <!-- 31 -->
    <g style="fill: #e91e63" transform="translate(125.067037 277.677969) scale(0.07 -0.07)">
     <use xlink:href="#DejaVuSans-Bold-33"/>
     <use xlink:href="#DejaVuSans-Bold-31" transform="translate(69.580078 0)"/>
    </g>
   </g>
   <g id="text_48">
    <g id="patch_38">
     <path d="M 127.106324 279.97375 
L 136.847262 279.97375 
Q 137.687262 279.97375 137.687262 279.13375 
L 137.687262 272.359062 
Q 137.687262 271.519062 136.847262 271.519062 
L 127.106324 271.519062 
Q 126.266324 271.519062 126.266324 272.359062 
L 126.266324 279.13375 
Q 126.266324 279.97375 127.106324 279.97375 
z
" style="fill: #ffffff; opacity: 0.85; stroke: #e91e63; stroke-width: 0.4; stroke-linejoin: miter"/>
    </g>
    <!-- 32 -->
    <g style="fill: #e91e63" transform="translate(127.106324 277.677969) scale(0.07 -0.07)">
     <use xlink:href="#DejaVuSans-Bold-33"/>
     <use xlink:href="#DejaVuSans-Bold-32" transform="translate(69.580078 0)"/>
    </g>
   </g>
   <g id="text_49">
    <g id="patch_39">
     <path d="M 129.145612 279.97375 
L 138.886549 279.97375 
Q 139.726549 279.97375 139.726549 279.13375 
L 139.726549 272.359062 
Q 139.726549 271.519062 138.886549 271.519062 
L 129.145612 271.519062 
Q 128.305612 271.519062 128.305612 272.359062 
L 128.305612 279.13375 
Q 128.305612 279.97375 129.145612 279.97375 
z
" style="fill: #ffffff; opacity: 0.85; stroke: #e91e63; stroke-width: 0.4; stroke-linejoin: miter"/>
    </g>
    <!-- 33 -->
    <g style="fill: #e91e63" transform="translate(129.145612 277.677969) scale(0.07 -0.07)">
     <use xlink:href="#DejaVuSans-Bold-33"/>
     <use xlink:href="#DejaVuSans-Bold-33" transform="translate(69.580078 0)"/>
    </g>
   </g>
   <g id="text_50">
    <g id="patch_40">
     <path d="M 131.184899 279.97375 
L 140.925837 279.97375 
Q 141.765837 279.97375 141.765837 279.13375 
L 141.765837 272.359062 
Q 141.765837 271.519062 140.925837 271.519062 
L 131.184899 271.519062 
Q 130.344899 271.519062 130.344899 272.359062 
L 130.344899 279.13375 
Q 130.344899 279.97375 131.184899 279.97375 
z
" style="fill: #ffffff; opacity: 0.85; stroke: #e91e63; stroke-width: 0.4; stroke-linejoin: miter"/>
    </g>
    <!-- 34 -->
    <g style="fill: #e91e63" transform="translate(131.184899 277.677969) scale(0.07 -0.07)">
     <use xlink:href="#DejaVuSans-Bold-33"/>
     <use xlink:href="#DejaVuSans-Bold-34" transform="translate(69.580078 0)"/>
    </g>
   </g>
   <g id="patch_41">
    <path d="M 88.812256 36.73348 
Q 290.022039 161.678265 490.282014 286.033249 
" style="fill: none; opacity: 0.35; stroke: #795548; stroke-linecap: round"/>
    <path d="M 487.938943 282.224047 
L 490.282014 286.033249 
L 485.82881 285.622184 
" style="fill: none; opacity: 0.35; stroke: #795548; stroke-linecap: round"/>
   </g>
   <g id="patch_42">
    <path d="M 490.929827 287.677969 
Q 390.965714 287.677969 292.119636 287.677969 
" style="fill: none; opacity: 0.35; stroke: #795548; stroke-linecap: round"/>
    <path d="M 296.119636 289.677969 
L 292.119636 287.677969 
L 296.119636 285.677969 
" style="fill: none; opacity: 0.35; stroke: #795548; stroke-linecap: round"/>
   </g>
   <g id="patch_43">
    <path d="M 291.002745 287.677969 
Q 339.98543 287.677969 387.85008 287.677969 
" style="fill: none; opacity: 0.35; stroke: #4caf50; stroke-linecap: round"/>
    <path d="M 383.85008 285.677969 
L 387.85008 287.677969 
L 383.85008 289.677969 
" style="fill: none; opacity: 0.35; stroke: #4caf50; stroke-linecap: round"/>
   </g>
   <g id="patch_44">
    <path d="M 392.967113 287.677969 
Q 416.457775 287.677969 438.830404 287.677969 
" style="fill: none; opacity: 0.35; stroke: #4caf50; stroke-linecap: round"/>
    <path d="M 434.830404 285.677969 
L 438.830404 287.677969 
L 434.830404 289.677969 
" style="fill: none; opacity: 0.35; stroke: #4caf50; stroke-linecap: round"/>
   </g>
   <g id="patch_45">
    <path d="M 443.946932 287.677969 
Q 454.183498 287.677969 463.30203 287.677969 
" style="fill: none; opacity: 0.35; stroke: #4caf50; stroke-linecap: round"/>
    <path d="M 459.30203 285.677969 
L 463.30203 287.677969 
L 459.30203 289.677969 
" style="fill: none; opacity: 0.35; stroke: #4caf50; stroke-linecap: round"/>
   </g>
   <g id="patch_46">
    <path d="M 468.41838 287.677969 
Q 472.534779 287.677969 475.533144 287.677969 
" style="fill: none; opacity: 0.35; stroke: #4caf50; stroke-linecap: round"/>
    <path d="M 471.533144 285.677969 
L 475.533144 287.677969 
L 471.533144 289.677969 
" style="fill: none; opacity: 0.35; stroke: #4caf50; stroke-linecap: round"/>
   </g>
   <g id="patch_47">
    <path d="M 480.654104 287.677969 
Q 481.714125 287.677969 481.656113 287.677969 
" style="fill: none; opacity: 0.35; stroke: #4caf50; stroke-linecap: round"/>
    <path d="M 477.656113 285.677969 
L 481.656113 287.677969 
L 477.656113 289.677969 
" style="fill: none; opacity: 0.35; stroke: #4caf50; stroke-linecap: round"/>
   </g>
   <g id="patch_48">
    <path d="M 486.776945 287.677969 
Q 486.815448 287.677969 485.735917 287.677969 
" style="fill: none; opacity: 0.35; stroke: #4caf50; stroke-linecap: round"/>
    <path d="M 481.735917 285.677969 
L 485.735917 287.677969 
L 481.735917 289.677969 
" style="fill: none; opacity: 0.35; stroke: #4caf50; stroke-linecap: round"/>
   </g>
   <g id="patch_49">
    <path d="M 490.855519 287.677969 
Q 490.873443 287.677969 489.773332 287.677969 
" style="fill: none; opacity: 0.35; stroke: #4caf50; stroke-linecap: round"/>
    <path d="M 485.773332 285.677969 
L 489.773332 287.677969 
L 485.773332 289.677969 
" style="fill: none; opacity: 0.35; stroke: #4caf50; stroke-linecap: round"/>
   </g>
   <g id="patch_50">
    <path d="M 489.092193 286.806932 
Q 290.020585 190.43005 91.955282 94.540352 
" style="fill: none; opacity: 0.35; stroke: #4caf50; stroke-linecap: round"/>
    <path d="M 94.684049 98.08349 
L 91.955282 94.540352 
L 96.427053 94.483222 
" style="fill: none; opacity: 0.35; stroke: #4caf50; stroke-linecap: round"/>
   </g>
   <g id="patch_51">
    <path d="M 89.22283 95.178782 
Q 90.17132 121.812648 91.080019 147.329189 
" style="fill: none; opacity: 0.35; stroke: #e91e63; stroke-linecap: round"/>
    <path d="M 92.936393 143.260544 
L 91.080019 147.329189 
L 88.938927 143.402902 
" style="fill: none; opacity: 0.35; stroke: #e91e63; stroke-linecap: round"/>
   </g>
   <g id="patch_52">
    <path d="M 91.261869 152.444767 
Q 92.210718 179.211642 93.11996 204.861185 
" style="fill: none; opacity: 0.35; stroke: #e91e63; stroke-linecap: round"/>
    <path d="M 94.976999 200.792843 
L 93.11996 204.861185 
L 90.97951 200.934548 
" style="fill: none; opacity: 0.35; stroke: #e91e63; stroke-linecap: round"/>
   </g>
   <g id="patch_53">
    <path d="M 93.301405 209.97657 
Q 94.250014 236.694683 95.158954 262.295467 
" style="fill: none; opacity: 0.35; stroke: #e91e63; stroke-linecap: round"/>
    <path d="M 97.015766 258.227022 
L 95.158954 262.295467 
L 93.018285 258.36895 
" style="fill: none; opacity: 0.35; stroke: #e91e63; stroke-linecap: round"/>
   </g>
   <g id="patch_54">
    <path d="M 95.452091 267.40473 
Q 96.289155 276.544021 97.024245 284.569938 
" style="fill: none; opacity: 0.35; stroke: #e91e63; stroke-linecap: round"/>
    <path d="M 98.651078 280.404195 
L 97.024245 284.569938 
L 94.66775 280.769026 
" style="fill: none; opacity: 0.35; stroke: #e91e63; stroke-linecap: round"/>
   </g>
   <g id="patch_55">
    <path d="M 99.312349 287.677969 
Q 99.330272 287.677969 98.230162 287.677969 
" style="fill: none; opacity: 0.35; stroke: #e91e63; stroke-linecap: round"/>
    <path d="M 94.230162 285.677969 
L 98.230162 287.677969 
L 94.230162 289.677969 
" style="fill: none; opacity: 0.35; stroke: #e91e63; stroke-linecap: round"/>
   </g>
   <g id="patch_56">
    <path d="M 101.351636 287.677969 
Q 101.36956 287.677969 100.269449 287.677969 
" style="fill: none; opacity: 0.35; stroke: #e91e63; stroke-linecap: round"/>
    <path d="M 96.269449 285.677969 
L 100.269449 287.677969 
L 96.269449 289.677969 
" style="fill: none; opacity: 0.35; stroke: #e91e63; stroke-linecap: round"/>
   </g>
   <g id="patch_57">
    <path d="M 103.390924 287.677969 
Q 103.408847 287.677969 102.308736 287.677969 
" style="fill: none; opacity: 0.35; stroke: #e91e63; stroke-linecap: round"/>
    <path d="M 98.308736 285.677969 
L 102.308736 287.677969 
L 98.308736 289.677969 
" style="fill: none; opacity: 0.35; stroke: #e91e63; stroke-linecap: round"/>
   </g>
   <g id="patch_58">
    <path d="M 105.430211 287.677969 
Q 105.448134 287.677969 104.348024 287.677969 
" style="fill: none; opacity: 0.35; stroke: #e91e63; stroke-linecap: round"/>
    <path d="M 100.348024 285.677969 
L 104.348024 287.677969 
L 100.348024 289.677969 
" style="fill: none; opacity: 0.35; stroke: #e91e63; stroke-linecap: round"/>
   </g>
   <g id="patch_59">
    <path d="M 107.469498 287.677969 
Q 107.487422 287.677969 106.387311 287.677969 
" style="fill: none; opacity: 0.35; stroke: #e91e63; stroke-linecap: round"/>
    <path d="M 102.387311 285.677969 
L 106.387311 287.677969 
L 102.387311 289.677969 
" style="fill: none; opacity: 0.35; stroke: #e91e63; stroke-linecap: round"/>
   </g>
   <g id="patch_60">
    <path d="M 109.508786 287.677969 
Q 109.526709 287.677969 108.426598 287.677969 
" style="fill: none; opacity: 0.35; stroke: #e91e63; stroke-linecap: round"/>
    <path d="M 104.426598 285.677969 
L 108.426598 287.677969 
L 104.426598 289.677969 
" style="fill: none; opacity: 0.35; stroke: #e91e63; stroke-linecap: round"/>
   </g>
   <g id="patch_61">
    <path d="M 111.548073 287.677969 
Q 111.565996 287.677969 110.465886 287.677969 
" style="fill: none; opacity: 0.35; stroke: #e91e63; stroke-linecap: round"/>
    <path d="M 106.465886 285.677969 
L 110.465886 287.677969 
L 106.465886 289.677969 
" style="fill: none; opacity: 0.35; stroke: #e91e63; stroke-linecap: round"/>
   </g>
   <g id="patch_62">
    <path d="M 113.58736 287.677969 
Q 113.605284 287.677969 112.505173 287.677969 
" style="fill: none; opacity: 0.35; stroke: #e91e63; stroke-linecap: round"/>
    <path d="M 108.505173 285.677969 
L 112.505173 287.677969 
L 108.505173 289.677969 
" style="fill: none; opacity: 0.35; stroke: #e91e63; stroke-linecap: round"/>
   </g>
   <g id="patch_63">
    <path d="M 115.626648 287.677969 
Q 115.644571 287.677969 114.54446 287.677969 
" style="fill: none; opacity: 0.35; stroke: #e91e63; stroke-linecap: round"/>
    <path d="M 110.54446 285.677969 
L 114.54446 287.677969 
L 110.54446 289.677969 
" style="fill: none; opacity: 0.35; stroke: #e91e63; stroke-linecap: round"/>
   </g>
   <g id="patch_64">
    <path d="M 117.665935 287.677969 
Q 117.683858 287.677969 116.583748 287.677969 
" style="fill: none; opacity: 0.35; stroke: #e91e63; stroke-linecap: round"/>
    <path d="M 112.583748 285.677969 
L 116.583748 287.677969 
L 112.583748 289.677969 
" style="fill: none; opacity: 0.35; stroke: #e91e63; stroke-linecap: round"/>
   </g>
   <g id="patch_65">
    <path d="M 119.705222 287.677969 
Q 119.723146 287.677969 118.623035 287.677969 
" style="fill: none; opacity: 0.35; stroke: #e91e63; stroke-linecap: round"/>
    <path d="M 114.623035 285.677969 
L 118.623035 287.677969 
L 114.623035 289.677969 
" style="fill: none; opacity: 0.35; stroke: #e91e63; stroke-linecap: round"/>
   </g>
   <g id="patch_66">
    <path d="M 121.74451 287.677969 
Q 121.762433 287.677969 120.662322 287.677969 
" style="fill: none; opacity: 0.35; stroke: #e91e63; stroke-linecap: round"/>
    <path d="M 116.662322 285.677969 
L 120.662322 287.677969 
L 116.662322 289.677969 
" style="fill: none; opacity: 0.35; stroke: #e91e63; stroke-linecap: round"/>
   </g>
   <g id="patch_67">
    <path d="M 123.783797 287.677969 
Q 123.80172 287.677969 122.70161 287.677969 
" style="fill: none; opacity: 0.35; stroke: #e91e63; stroke-linecap: round"/>
    <path d="M 118.70161 285.677969 
L 122.70161 287.677969 
L 118.70161 289.677969 
" style="fill: none; opacity: 0.35; stroke: #e91e63; stroke-linecap: round"/>
   </g>
   <g id="patch_68">
    <path d="M 125.823084 287.677969 
Q 125.841008 287.677969 124.740897 287.677969 
" style="fill: none; opacity: 0.35; stroke: #e91e63; stroke-linecap: round"/>
    <path d="M 120.740897 285.677969 
L 124.740897 287.677969 
L 120.740897 289.677969 
" style="fill: none; opacity: 0.35; stroke: #e91e63; stroke-linecap: round"/>
   </g>
   <g id="patch_69">
    <path d="M 127.862372 287.677969 
Q 127.880295 287.677969 126.780185 287.677969 
" style="fill: none; opacity: 0.35; stroke: #e91e63; stroke-linecap: round"/>
    <path d="M 122.780185 285.677969 
L 126.780185 287.677969 
L 122.780185 289.677969 
" style="fill: none; opacity: 0.35; stroke: #e91e63; stroke-linecap: round"/>
   </g>
   <g id="patch_70">
    <path d="M 129.901659 287.677969 
Q 129.919582 287.677969 128.819472 287.677969 
" style="fill: none; opacity: 0.35; stroke: #e91e63; stroke-linecap: round"/>
    <path d="M 124.819472 285.677969 
L 128.819472 287.677969 
L 124.819472 289.677969 
" style="fill: none; opacity: 0.35; stroke: #e91e63; stroke-linecap: round"/>
   </g>
   <g id="patch_71">
    <path d="M 131.940946 287.677969 
Q 131.95887 287.677969 130.858759 287.677969 
" style="fill: none; opacity: 0.35; stroke: #e91e63; stroke-linecap: round"/>
    <path d="M 126.858759 285.677969 
L 130.858759 287.677969 
L 126.858759 289.677969 
" style="fill: none; opacity: 0.35; stroke: #e91e63; stroke-linecap: round"/>
   </g>
   <g id="patch_72">
    <path d="M 133.980234 287.677969 
Q 133.998157 287.677969 132.898047 287.677969 
" style="fill: none; opacity: 0.35; stroke: #e91e63; stroke-linecap: round"/>
    <path d="M 128.898047 285.677969 
L 132.898047 287.677969 
L 128.898047 289.677969 
" style="fill: none; opacity: 0.35; stroke: #e91e63; stroke-linecap: round"/>
   </g>
   <g id="patch_73">
    <path d="M 136.019521 287.677969 
Q 136.037444 287.677969 134.937334 287.677969 
" style="fill: none; opacity: 0.35; stroke: #e91e63; stroke-linecap: round"/>
    <path d="M 130.937334 285.677969 
L 134.937334 287.677969 
L 130.937334 289.677969 
" style="fill: none; opacity: 0.35; stroke: #e91e63; stroke-linecap: round"/>
   </g>
   <g id="text_51">
    <!-- SciPy: Smoothing Parameter (binary search) -->
    <g transform="translate(146.605156 17.077969) scale(0.13 -0.13)">
     <defs>
      <path id="DejaVuSans-63" d="M 3122 3366 
L 3122 2828 
Q 2878 2963 2633 3030 
Q 2388 3097 2138 3097 
Q 1578 3097 1268 2742 
Q 959 2388 959 1747 
Q 959 1106 1268 751 
Q 1578 397 2138 397 
Q 2388 397 2633 464 
Q 2878 531 3122 666 
L 3122 134 
Q 2881 22 2623 -34 
Q 2366 -91 2075 -91 
Q 1284 -91 818 406 
Q 353 903 353 1747 
Q 353 2603 823 3093 
Q 1294 3584 2113 3584 
Q 2378 3584 2631 3529 
Q 2884 3475 3122 3366 
z
" transform="scale(0.015625)"/>
      <path id="DejaVuSans-50" d="M 1259 4147 
L 1259 2394 
L 2053 2394 
Q 2494 2394 2734 2622 
Q 2975 2850 2975 3272 
Q 2975 3691 2734 3919 
Q 2494 4147 2053 4147 
L 1259 4147 
z
M 628 4666 
L 2053 4666 
Q 2838 4666 3239 4311 
Q 3641 3956 3641 3272 
Q 3641 2581 3239 2228 
Q 2838 1875 2053 1875 
L 1259 1875 
L 1259 0 
L 628 0 
L 628 4666 
z
" transform="scale(0.015625)"/>
      <path id="DejaVuSans-79" d="M 2059 -325 
Q 1816 -950 1584 -1140 
Q 1353 -1331 966 -1331 
L 506 -1331 
L 506 -850 
L 844 -850 
Q 1081 -850 1212 -737 
Q 1344 -625 1503 -206 
L 1606 56 
L 191 3500 
L 800 3500 
L 1894 763 
L 2988 3500 
L 3597 3500 
L 2059 -325 
z
" transform="scale(0.015625)"/>
      <path id="DejaVuSans-3a" d="M 750 794 
L 1409 794 
L 1409 0 
L 750 0 
L 750 794 
z
M 750 3309 
L 1409 3309 
L 1409 2516 
L 750 2516 
L 750 3309 
z
" transform="scale(0.015625)"/>
      <path id="DejaVuSans-61" d="M 2194 1759 
Q 1497 1759 1228 1600 
Q 959 1441 959 1056 
Q 959 750 1161 570 
Q 1363 391 1709 391 
Q 2188 391 2477 730 
Q 2766 1069 2766 1631 
L 2766 1759 
L 2194 1759 
z
M 3341 1997 
L 3341 0 
L 2766 0 
L 2766 531 
Q 2569 213 2275 61 
Q 1981 -91 1556 -91 
Q 1019 -91 701 211 
Q 384 513 384 1019 
Q 384 1609 779 1909 
Q 1175 2209 1959 2209 
L 2766 2209 
L 2766 2266 
Q 2766 2663 2505 2880 
Q 2244 3097 1772 3097 
Q 1472 3097 1187 3025 
Q 903 2953 641 2809 
L 641 3341 
Q 956 3463 1253 3523 
Q 1550 3584 1831 3584 
Q 2591 3584 2966 3190 
Q 3341 2797 3341 1997 
z
" transform="scale(0.015625)"/>
      <path id="DejaVuSans-72" d="M 2631 2963 
Q 2534 3019 2420 3045 
Q 2306 3072 2169 3072 
Q 1681 3072 1420 2755 
Q 1159 2438 1159 1844 
L 1159 0 
L 581 0 
L 581 3500 
L 1159 3500 
L 1159 2956 
Q 1341 3275 1631 3429 
Q 1922 3584 2338 3584 
Q 2397 3584 2469 3576 
Q 2541 3569 2628 3553 
L 2631 2963 
z
" transform="scale(0.015625)"/>
      <path id="DejaVuSans-65" d="M 3597 1894 
L 3597 1613 
L 953 1613 
Q 991 1019 1311 708 
Q 1631 397 2203 397 
Q 2534 397 2845 478 
Q 3156 559 3463 722 
L 3463 178 
Q 3153 47 2828 -22 
Q 2503 -91 2169 -91 
Q 1331 -91 842 396 
Q 353 884 353 1716 
Q 353 2575 817 3079 
Q 1281 3584 2069 3584 
Q 2775 3584 3186 3129 
Q 3597 2675 3597 1894 
z
M 3022 2063 
Q 3016 2534 2758 2815 
Q 2500 3097 2075 3097 
Q 1594 3097 1305 2825 
Q 1016 2553 972 2059 
L 3022 2063 
z
" transform="scale(0.015625)"/>
      <path id="DejaVuSans-62" d="M 3116 1747 
Q 3116 2381 2855 2742 
Q 2594 3103 2138 3103 
Q 1681 3103 1420 2742 
Q 1159 2381 1159 1747 
Q 1159 1113 1420 752 
Q 1681 391 2138 391 
Q 2594 391 2855 752 
Q 3116 1113 3116 1747 
z
M 1159 2969 
Q 1341 3281 1617 3432 
Q 1894 3584 2278 3584 
Q 2916 3584 3314 3078 
Q 3713 2572 3713 1747 
Q 3713 922 3314 415 
Q 2916 -91 2278 -91 
Q 1894 -91 1617 61 
Q 1341 213 1159 525 
L 1159 0 
L 581 0 
L 581 4863 
L 1159 4863 
L 1159 2969 
z
" transform="scale(0.015625)"/>
     </defs>
     <use xlink:href="#DejaVuSans-53"/>
     <use xlink:href="#DejaVuSans-63" transform="translate(63.476562 0)"/>
     <use xlink:href="#DejaVuSans-69" transform="translate(118.457031 0)"/>
     <use xlink:href="#DejaVuSans-50" transform="translate(146.240234 0)"/>
     <use xlink:href="#DejaVuSans-79" transform="translate(206.542969 0)"/>
     <use xlink:href="#DejaVuSans-3a" transform="translate(258.472656 0)"/>
     <use xlink:href="#DejaVuSans-20" transform="translate(292.164062 0)"/>
     <use xlink:href="#DejaVuSans-53" transform="translate(323.951172 0)"/>
     <use xlink:href="#DejaVuSans-6d" transform="translate(387.427734 0)"/>
     <use xlink:href="#DejaVuSans-6f" transform="translate(484.839844 0)"/>
     <use xlink:href="#DejaVuSans-6f" transform="translate(546.021484 0)"/>
     <use xlink:href="#DejaVuSans-74" transform="translate(607.203125 0)"/>
     <use xlink:href="#DejaVuSans-68" transform="translate(646.412109 0)"/>
     <use xlink:href="#DejaVuSans-69" transform="translate(709.791016 0)"/>
     <use xlink:href="#DejaVuSans-6e" transform="translate(737.574219 0)"/>
     <use xlink:href="#DejaVuSans-67" transform="translate(800.953125 0)"/>
     <use xlink:href="#DejaVuSans-20" transform="translate(864.429688 0)"/>
     <use xlink:href="#DejaVuSans-50" transform="translate(896.216797 0)"/>
     <use xlink:href="#DejaVuSans-61" transform="translate(952.019531 0)"/>
     <use xlink:href="#DejaVuSans-72" transform="translate(1013.298828 0)"/>
     <use xlink:href="#DejaVuSans-61" transform="translate(1054.412109 0)"/>
     <use xlink:href="#DejaVuSans-6d" transform="translate(1115.691406 0)"/>
     <use xlink:href="#DejaVuSans-65" transform="translate(1213.103516 0)"/>
     <use xlink:href="#DejaVuSans-74" transform="translate(1274.626953 0)"/>
     <use xlink:href="#DejaVuSans-65" transform="translate(1313.835938 0)"/>
     <use xlink:href="#DejaVuSans-72" transform="translate(1375.359375 0)"/>
     <use xlink:href="#DejaVuSans-20" transform="translate(1416.472656 0)"/>
     <use xlink:href="#DejaVuSans-28" transform="translate(1448.259766 0)"/>
     <use xlink:href="#DejaVuSans-62" transform="translate(1487.273438 0)"/>
     <use xlink:href="#DejaVuSans-69" transform="translate(1550.75 0)"/>
     <use xlink:href="#DejaVuSans-6e" transform="translate(1578.533203 0)"/>
     <use xlink:href="#DejaVuSans-61" transform="translate(1641.912109 0)"/>
     <use xlink:href="#DejaVuSans-72" transform="translate(1703.191406 0)"/>
     <use xlink:href="#DejaVuSans-79" transform="translate(1744.304688 0)"/>
     <use xlink:href="#DejaVuSans-20" transform="translate(1803.484375 0)"/>
     <use xlink:href="#DejaVuSans-73" transform="translate(1835.271484 0)"/>
     <use xlink:href="#DejaVuSans-65" transform="translate(1887.371094 0)"/>
     <use xlink:href="#DejaVuSans-61" transform="translate(1948.894531 0)"/>
     <use xlink:href="#DejaVuSans-72" transform="translate(2010.173828 0)"/>
     <use xlink:href="#DejaVuSans-63" transform="translate(2049.037109 0)"/>
     <use xlink:href="#DejaVuSans-68" transform="translate(2104.017578 0)"/>
     <use xlink:href="#DejaVuSans-29" transform="translate(2167.396484 0)"/>
    </g>
   </g>
   <g id="line2d_31">
    <defs>
     <path id="m5715f33eca" d="M 0 3.5 
C 0.928211 3.5 1.81853 3.131218 2.474874 2.474874 
C 3.131218 1.81853 3.5 0.928211 3.5 0 
C 3.5 -0.928211 3.131218 -1.81853 2.474874 -2.474874 
C 1.81853 -3.131218 0.928211 -3.5 0 -3.5 
C -0.928211 -3.5 -1.81853 -3.131218 -2.474874 -2.474874 
C -3.131218 -1.81853 -3.5 -0.928211 -3.5 0 
C -3.5 0.928211 -3.131218 1.81853 -2.474874 2.474874 
C -1.81853 3.131218 -0.928211 3.5 0 3.5 
z
" style="stroke: #795548"/>
    </defs>
    <g clip-path="url(#p0da0ffc3b4)">
     <use xlink:href="#m5715f33eca" x="87.112472" y="35.677969" style="fill: #795548; stroke: #795548"/>
    </g>
   </g>
   <g id="line2d_32">
    <g clip-path="url(#p0da0ffc3b4)">
     <use xlink:href="#m5715f33eca" x="492.930653" y="287.677969" style="fill: #795548; stroke: #795548"/>
    </g>
   </g>
   <g id="line2d_33">
    <defs>
     <path id="m39aa1c8f99" d="M 0 3.5 
C 0.928211 3.5 1.81853 3.131218 2.474874 2.474874 
C 3.131218 1.81853 3.5 0.928211 3.5 0 
C 3.5 -0.928211 3.131218 -1.81853 2.474874 -2.474874 
C 1.81853 -3.131218 0.928211 -3.5 0 -3.5 
C -0.928211 -3.5 -1.81853 -3.131218 -2.474874 -2.474874 
C -3.131218 -1.81853 -3.5 -0.928211 -3.5 0 
C -3.5 0.928211 -3.131218 1.81853 -2.474874 2.474874 
C -1.81853 3.131218 -0.928211 3.5 0 3.5 
z
" style="stroke: #4caf50"/>
    </defs>
    <g clip-path="url(#p0da0ffc3b4)">
     <use xlink:href="#m39aa1c8f99" x="289.001919" y="287.677969" style="fill: #4caf50; stroke: #4caf50"/>
    </g>
   </g>
   <g id="line2d_34">
    <g clip-path="url(#p0da0ffc3b4)">
     <use xlink:href="#m39aa1c8f99" x="390.966286" y="287.677969" style="fill: #4caf50; stroke: #4caf50"/>
    </g>
   </g>
   <g id="line2d_35">
    <g clip-path="url(#p0da0ffc3b4)">
     <use xlink:href="#m39aa1c8f99" x="441.94847" y="287.677969" style="fill: #4caf50; stroke: #4caf50"/>
    </g>
   </g>
   <g id="line2d_36">
    <g clip-path="url(#p0da0ffc3b4)">
     <use xlink:href="#m39aa1c8f99" x="466.419918" y="287.677969" style="fill: #4caf50; stroke: #4caf50"/>
    </g>
   </g>
   <g id="line2d_37">
    <g clip-path="url(#p0da0ffc3b4)">
     <use xlink:href="#m39aa1c8f99" x="478.655642" y="287.677969" style="fill: #4caf50; stroke: #4caf50"/>
    </g>
   </g>
   <g id="line2d_38">
    <g clip-path="url(#p0da0ffc3b4)">
     <use xlink:href="#m39aa1c8f99" x="484.773504" y="287.677969" style="fill: #4caf50; stroke: #4caf50"/>
    </g>
   </g>
   <g id="line2d_39">
    <g clip-path="url(#p0da0ffc3b4)">
     <use xlink:href="#m39aa1c8f99" x="488.852079" y="287.677969" style="fill: #4caf50; stroke: #4caf50"/>
    </g>
   </g>
   <g id="line2d_40">
    <g clip-path="url(#p0da0ffc3b4)">
     <use xlink:href="#m39aa1c8f99" x="490.891366" y="287.677969" style="fill: #4caf50; stroke: #4caf50"/>
    </g>
   </g>
   <g id="line2d_41">
    <defs>
     <path id="m91eabed8fa" d="M 0 3.5 
C 0.928211 3.5 1.81853 3.131218 2.474874 2.474874 
C 3.131218 1.81853 3.5 0.928211 3.5 0 
C 3.5 -0.928211 3.131218 -1.81853 2.474874 -2.474874 
C 1.81853 -3.131218 0.928211 -3.5 0 -3.5 
C -0.928211 -3.5 -1.81853 -3.131218 -2.474874 -2.474874 
C -3.131218 -1.81853 -3.5 -0.928211 -3.5 0 
C -3.5 0.928211 -3.131218 1.81853 -2.474874 2.474874 
C -1.81853 3.131218 -0.928211 3.5 0 3.5 
z
" style="stroke: #e91e63"/>
    </defs>
    <g clip-path="url(#p0da0ffc3b4)">
     <use xlink:href="#m91eabed8fa" x="89.151759" y="93.183077" style="fill: #e91e63; stroke: #e91e63"/>
    </g>
   </g>
   <g id="line2d_42">
    <g clip-path="url(#p0da0ffc3b4)">
     <use xlink:href="#m91eabed8fa" x="91.191046" y="150.44688" style="fill: #e91e63; stroke: #e91e63"/>
    </g>
   </g>
   <g id="line2d_43">
    <g clip-path="url(#p0da0ffc3b4)">
     <use xlink:href="#m91eabed8fa" x="93.230334" y="207.974805" style="fill: #e91e63; stroke: #e91e63"/>
    </g>
   </g>
   <g id="line2d_44">
    <g clip-path="url(#p0da0ffc3b4)">
     <use xlink:href="#m91eabed8fa" x="95.269621" y="265.412468" style="fill: #e91e63; stroke: #e91e63"/>
    </g>
   </g>
   <g id="line2d_45">
    <g clip-path="url(#p0da0ffc3b4)">
     <use xlink:href="#m91eabed8fa" x="97.308908" y="287.677969" style="fill: #e91e63; stroke: #e91e63"/>
    </g>
   </g>
   <g id="line2d_46">
    <g clip-path="url(#p0da0ffc3b4)">
     <use xlink:href="#m91eabed8fa" x="99.348196" y="287.677969" style="fill: #e91e63; stroke: #e91e63"/>
    </g>
   </g>
   <g id="line2d_47">
    <g clip-path="url(#p0da0ffc3b4)">
     <use xlink:href="#m91eabed8fa" x="101.387483" y="287.677969" style="fill: #e91e63; stroke: #e91e63"/>
    </g>
   </g>
   <g id="line2d_48">
    <g clip-path="url(#p0da0ffc3b4)">
     <use xlink:href="#m91eabed8fa" x="103.42677" y="287.677969" style="fill: #e91e63; stroke: #e91e63"/>
    </g>
   </g>
   <g id="line2d_49">
    <g clip-path="url(#p0da0ffc3b4)">
     <use xlink:href="#m91eabed8fa" x="105.466058" y="287.677969" style="fill: #e91e63; stroke: #e91e63"/>
    </g>
   </g>
   <g id="line2d_50">
    <g clip-path="url(#p0da0ffc3b4)">
     <use xlink:href="#m91eabed8fa" x="107.505345" y="287.677969" style="fill: #e91e63; stroke: #e91e63"/>
    </g>
   </g>
   <g id="line2d_51">
    <g clip-path="url(#p0da0ffc3b4)">
     <use xlink:href="#m91eabed8fa" x="109.544632" y="287.677969" style="fill: #e91e63; stroke: #e91e63"/>
    </g>
   </g>
   <g id="line2d_52">
    <g clip-path="url(#p0da0ffc3b4)">
     <use xlink:href="#m91eabed8fa" x="111.58392" y="287.677969" style="fill: #e91e63; stroke: #e91e63"/>
    </g>
   </g>
   <g id="line2d_53">
    <g clip-path="url(#p0da0ffc3b4)">
     <use xlink:href="#m91eabed8fa" x="113.623207" y="287.677969" style="fill: #e91e63; stroke: #e91e63"/>
    </g>
   </g>
   <g id="line2d_54">
    <g clip-path="url(#p0da0ffc3b4)">
     <use xlink:href="#m91eabed8fa" x="115.662494" y="287.677969" style="fill: #e91e63; stroke: #e91e63"/>
    </g>
   </g>
   <g id="line2d_55">
    <g clip-path="url(#p0da0ffc3b4)">
     <use xlink:href="#m91eabed8fa" x="117.701782" y="287.677969" style="fill: #e91e63; stroke: #e91e63"/>
    </g>
   </g>
   <g id="line2d_56">
    <g clip-path="url(#p0da0ffc3b4)">
     <use xlink:href="#m91eabed8fa" x="119.741069" y="287.677969" style="fill: #e91e63; stroke: #e91e63"/>
    </g>
   </g>
   <g id="line2d_57">
    <g clip-path="url(#p0da0ffc3b4)">
     <use xlink:href="#m91eabed8fa" x="121.780356" y="287.677969" style="fill: #e91e63; stroke: #e91e63"/>
    </g>
   </g>
   <g id="line2d_58">
    <g clip-path="url(#p0da0ffc3b4)">
     <use xlink:href="#m91eabed8fa" x="123.819644" y="287.677969" style="fill: #e91e63; stroke: #e91e63"/>
    </g>
   </g>
   <g id="line2d_59">
    <g clip-path="url(#p0da0ffc3b4)">
     <use xlink:href="#m91eabed8fa" x="125.858931" y="287.677969" style="fill: #e91e63; stroke: #e91e63"/>
    </g>
   </g>
   <g id="line2d_60">
    <g clip-path="url(#p0da0ffc3b4)">
     <use xlink:href="#m91eabed8fa" x="127.898219" y="287.677969" style="fill: #e91e63; stroke: #e91e63"/>
    </g>
   </g>
   <g id="line2d_61">
    <g clip-path="url(#p0da0ffc3b4)">
     <use xlink:href="#m91eabed8fa" x="129.937506" y="287.677969" style="fill: #e91e63; stroke: #e91e63"/>
    </g>
   </g>
   <g id="line2d_62">
    <g clip-path="url(#p0da0ffc3b4)">
     <use xlink:href="#m91eabed8fa" x="131.976793" y="287.677969" style="fill: #e91e63; stroke: #e91e63"/>
    </g>
   </g>
   <g id="line2d_63">
    <g clip-path="url(#p0da0ffc3b4)">
     <use xlink:href="#m91eabed8fa" x="134.016081" y="287.677969" style="fill: #e91e63; stroke: #e91e63"/>
    </g>
   </g>
   <g id="line2d_64">
    <g clip-path="url(#p0da0ffc3b4)">
     <use xlink:href="#m91eabed8fa" x="136.055368" y="287.677969" style="fill: #e91e63; stroke: #e91e63"/>
    </g>
   </g>
   <g id="legend_1">
    <g id="patch_74">
     <path d="M 447.921562 60.434219 
L 506.221562 60.434219 
Q 508.221562 60.434219 508.221562 58.434219 
L 508.221562 30.077969 
Q 508.221562 28.077969 506.221562 28.077969 
L 447.921562 28.077969 
Q 445.921562 28.077969 445.921562 30.077969 
L 445.921562 58.434219 
Q 445.921562 60.434219 447.921562 60.434219 
z
" style="fill: #ffffff; opacity: 0.8; stroke: #cccccc; stroke-linejoin: miter"/>
    </g>
    <g id="line2d_65">
     <path d="M 449.921562 36.176406 
L 459.921562 36.176406 
L 469.921562 36.176406 
" style="fill: none; stroke: #2196f3; stroke-width: 2; stroke-linecap: square"/>
     <g>
      <use xlink:href="#m5431275f49" x="459.921562" y="36.176406" style="fill: #2196f3; stroke: #2196f3"/>
     </g>
    </g>
    <g id="text_52">
     <!-- f(K) -->
     <g transform="translate(477.921562 39.676406) scale(0.1 -0.1)">
      <defs>
       <path id="DejaVuSans-66" d="M 2375 4863 
L 2375 4384 
L 1825 4384 
Q 1516 4384 1395 4259 
Q 1275 4134 1275 3809 
L 1275 3500 
L 2222 3500 
L 2222 3053 
L 1275 3053 
L 1275 0 
L 697 0 
L 697 3053 
L 147 3053 
L 147 3500 
L 697 3500 
L 697 3744 
Q 697 4328 969 4595 
Q 1241 4863 1831 4863 
L 2375 4863 
z
" transform="scale(0.015625)"/>
       <path id="DejaVuSans-4b" d="M 628 4666 
L 1259 4666 
L 1259 2694 
L 3353 4666 
L 4166 4666 
L 1850 2491 
L 4331 0 
L 3500 0 
L 1259 2247 
L 1259 0 
L 628 0 
L 628 4666 
z
" transform="scale(0.015625)"/>
      </defs>
      <use xlink:href="#DejaVuSans-66"/>
      <use xlink:href="#DejaVuSans-28" transform="translate(35.205078 0)"/>
      <use xlink:href="#DejaVuSans-4b" transform="translate(74.21875 0)"/>
      <use xlink:href="#DejaVuSans-29" transform="translate(139.794922 0)"/>
     </g>
    </g>
    <g id="line2d_66">
     <path d="M 449.921562 50.854531 
L 459.921562 50.854531 
L 469.921562 50.854531 
" style="fill: none; stroke-dasharray: 7.4,3.2; stroke-dashoffset: 0; stroke: #f44336; stroke-width: 2"/>
    </g>
    <g id="text_53">
     <!-- K*=1 -->
     <g transform="translate(477.921562 54.354531) scale(0.1 -0.1)">
      <defs>
       <path id="DejaVuSans-2a" d="M 3009 3897 
L 1888 3291 
L 3009 2681 
L 2828 2375 
L 1778 3009 
L 1778 1831 
L 1422 1831 
L 1422 3009 
L 372 2375 
L 191 2681 
L 1313 3291 
L 191 3897 
L 372 4206 
L 1422 3572 
L 1422 4750 
L 1778 4750 
L 1778 3572 
L 2828 4206 
L 3009 3897 
z
" transform="scale(0.015625)"/>
       <path id="DejaVuSans-3d" d="M 678 2906 
L 4684 2906 
L 4684 2381 
L 678 2381 
L 678 2906 
z
M 678 1631 
L 4684 1631 
L 4684 1100 
L 678 1100 
L 678 1631 
z
" transform="scale(0.015625)"/>
      </defs>
      <use xlink:href="#DejaVuSans-4b"/>
      <use xlink:href="#DejaVuSans-2a" transform="translate(65.576172 0)"/>
      <use xlink:href="#DejaVuSans-3d" transform="translate(115.576172 0)"/>
      <use xlink:href="#DejaVuSans-31" transform="translate(199.365234 0)"/>
     </g>
    </g>
   </g>
  </g>
 </g>
 <defs>
  <clipPath id="p0da0ffc3b4">
   <rect x="66.821562" y="23.077969" width="446.4" height="277.2"/>
  </clipPath>
 </defs>
</svg>
