<?xml version="1.0" encoding="utf-8" standalone="no"?>
<!DOCTYPE svg PUBLIC "-//W3C//DTD SVG 1.1//EN"
  "http://www.w3.org/Graphics/SVG/1.1/DTD/svg11.dtd">
<svg xmlns:xlink="http://www.w3.org/1999/xlink" width="617.360937pt" height="337.834219pt" viewBox="0 0 617.360937 337.834219" xmlns="http://www.w3.org/2000/svg" version="1.1">
 <metadata>
  <rdf:RDF xmlns:dc="http://purl.org/dc/elements/1.1/" xmlns:cc="http://creativecommons.org/ns#" xmlns:rdf="http://www.w3.org/1999/02/22-rdf-syntax-ns#">
   <cc:Work>
    <dc:type rdf:resource="http://purl.org/dc/dcmitype/StillImage"/>
    <dc:date>2026-06-03T19:41:54.405772</dc:date>
    <dc:format>image/svg+xml</dc:format>
    <dc:creator>
     <cc:Agent>
      <dc:title>Matplotlib v3.10.8, https://matplotlib.org/</dc:title>
     </cc:Agent>
    </dc:creator>
   </cc:Work>
  </rdf:RDF>
 </metadata>
 <defs>
  <style type="text/css">*{stroke-linejoin: round; stroke-linecap: butt}</style>
 </defs>
 <g id="figure_1">
  <g id="patch_1">
   <path d="M 0 337.834219 
L 617.360937 337.834219 
L 617.360937 0 
L 0 0 
z
" style="fill: #ffffff"/>
  </g>
  <g id="axes_1">
   <g id="patch_2">
    <path d="M 52.160938 300.277969 
L 610.160938 300.277969 
L 610.160938 23.077969 
L 52.160938 23.077969 
z
" style="fill: #ffffff"/>
   </g>
   <g id="PathCollection_1">
    <defs>
     <path id="m1ac1323839" d="M 0 1.118034 
C 0.296506 1.118034 0.580908 1.000231 0.790569 0.790569 
C 1.000231 0.580908 1.118034 0.296506 1.118034 0 
C 1.118034 -0.296506 1.000231 -0.580908 0.790569 -0.790569 
C 0.580908 -1.000231 0.296506 -1.118034 0 -1.118034 
C -0.296506 -1.118034 -0.580908 -1.000231 -0.790569 -0.790569 
C -1.000231 -0.580908 -1.118034 -0.296506 -1.118034 0 
C -1.118034 0.296506 -1.000231 0.580908 -0.790569 0.790569 
C -0.580908 1.000231 -0.296506 1.118034 0 1.118034 
z
" style="stroke: #9e9e9e; stroke-opacity: 0.3"/>
    </defs>
    <g clip-path="url(#p6a023c211c)">
     <use xlink:href="#m1ac1323839" x="77.524574" y="151.604872" style="fill: #9e9e9e; fill-opacity: 0.3; stroke: #9e9e9e; stroke-opacity: 0.3"/>
     <use xlink:href="#m1ac1323839" x="80.073683" y="158.324219" style="fill: #9e9e9e; fill-opacity: 0.3; stroke: #9e9e9e; stroke-opacity: 0.3"/>
     <use xlink:href="#m1ac1323839" x="82.622792" y="142.556315" style="fill: #9e9e9e; fill-opacity: 0.3; stroke: #9e9e9e; stroke-opacity: 0.3"/>
     <use xlink:href="#m1ac1323839" x="85.171901" y="125.380204" style="fill: #9e9e9e; fill-opacity: 0.3; stroke: #9e9e9e; stroke-opacity: 0.3"/>
     <use xlink:href="#m1ac1323839" x="87.721011" y="149.88177" style="fill: #9e9e9e; fill-opacity: 0.3; stroke: #9e9e9e; stroke-opacity: 0.3"/>
     <use xlink:href="#m1ac1323839" x="90.27012" y="146.583542" style="fill: #9e9e9e; fill-opacity: 0.3; stroke: #9e9e9e; stroke-opacity: 0.3"/>
     <use xlink:href="#m1ac1323839" x="92.819229" y="114.600321" style="fill: #9e9e9e; fill-opacity: 0.3; stroke: #9e9e9e; stroke-opacity: 0.3"/>
     <use xlink:href="#m1ac1323839" x="95.368338" y="124.187561" style="fill: #9e9e9e; fill-opacity: 0.3; stroke: #9e9e9e; stroke-opacity: 0.3"/>
     <use xlink:href="#m1ac1323839" x="97.917447" y="140.526854" style="fill: #9e9e9e; fill-opacity: 0.3; stroke: #9e9e9e; stroke-opacity: 0.3"/>
     <use xlink:href="#m1ac1323839" x="100.466557" y="121.296045" style="fill: #9e9e9e; fill-opacity: 0.3; stroke: #9e9e9e; stroke-opacity: 0.3"/>
     <use xlink:href="#m1ac1323839" x="103.015666" y="134.035922" style="fill: #9e9e9e; fill-opacity: 0.3; stroke: #9e9e9e; stroke-opacity: 0.3"/>
     <use xlink:href="#m1ac1323839" x="105.564775" y="130.92239" style="fill: #9e9e9e; fill-opacity: 0.3; stroke: #9e9e9e; stroke-opacity: 0.3"/>
     <use xlink:href="#m1ac1323839" x="108.113884" y="116.606681" style="fill: #9e9e9e; fill-opacity: 0.3; stroke: #9e9e9e; stroke-opacity: 0.3"/>
     <use xlink:href="#m1ac1323839" x="110.662993" y="147.644547" style="fill: #9e9e9e; fill-opacity: 0.3; stroke: #9e9e9e; stroke-opacity: 0.3"/>
     <use xlink:href="#m1ac1323839" x="113.212102" y="141.629691" style="fill: #9e9e9e; fill-opacity: 0.3; stroke: #9e9e9e; stroke-opacity: 0.3"/>
     <use xlink:href="#m1ac1323839" x="115.761212" y="120.23907" style="fill: #9e9e9e; fill-opacity: 0.3; stroke: #9e9e9e; stroke-opacity: 0.3"/>
     <use xlink:href="#m1ac1323839" x="118.310321" y="124.42982" style="fill: #9e9e9e; fill-opacity: 0.3; stroke: #9e9e9e; stroke-opacity: 0.3"/>
     <use xlink:href="#m1ac1323839" x="120.85943" y="100.535187" style="fill: #9e9e9e; fill-opacity: 0.3; stroke: #9e9e9e; stroke-opacity: 0.3"/>
     <use xlink:href="#m1ac1323839" x="123.408539" y="117.045575" style="fill: #9e9e9e; fill-opacity: 0.3; stroke: #9e9e9e; stroke-opacity: 0.3"/>
     <use xlink:href="#m1ac1323839" x="125.957648" y="122.248167" style="fill: #9e9e9e; fill-opacity: 0.3; stroke: #9e9e9e; stroke-opacity: 0.3"/>
     <use xlink:href="#m1ac1323839" x="128.506758" y="73.976006" style="fill: #9e9e9e; fill-opacity: 0.3; stroke: #9e9e9e; stroke-opacity: 0.3"/>
     <use xlink:href="#m1ac1323839" x="131.055867" y="98.090272" style="fill: #9e9e9e; fill-opacity: 0.3; stroke: #9e9e9e; stroke-opacity: 0.3"/>
     <use xlink:href="#m1ac1323839" x="133.604976" y="90.854885" style="fill: #9e9e9e; fill-opacity: 0.3; stroke: #9e9e9e; stroke-opacity: 0.3"/>
     <use xlink:href="#m1ac1323839" x="136.154085" y="111.949089" style="fill: #9e9e9e; fill-opacity: 0.3; stroke: #9e9e9e; stroke-opacity: 0.3"/>
     <use xlink:href="#m1ac1323839" x="138.703194" y="95.558846" style="fill: #9e9e9e; fill-opacity: 0.3; stroke: #9e9e9e; stroke-opacity: 0.3"/>
     <use xlink:href="#m1ac1323839" x="141.252303" y="82.803161" style="fill: #9e9e9e; fill-opacity: 0.3; stroke: #9e9e9e; stroke-opacity: 0.3"/>
     <use xlink:href="#m1ac1323839" x="143.801413" y="100.468022" style="fill: #9e9e9e; fill-opacity: 0.3; stroke: #9e9e9e; stroke-opacity: 0.3"/>
     <use xlink:href="#m1ac1323839" x="146.350522" y="74.071633" style="fill: #9e9e9e; fill-opacity: 0.3; stroke: #9e9e9e; stroke-opacity: 0.3"/>
     <use xlink:href="#m1ac1323839" x="148.899631" y="87.372496" style="fill: #9e9e9e; fill-opacity: 0.3; stroke: #9e9e9e; stroke-opacity: 0.3"/>
     <use xlink:href="#m1ac1323839" x="151.44874" y="80.411199" style="fill: #9e9e9e; fill-opacity: 0.3; stroke: #9e9e9e; stroke-opacity: 0.3"/>
     <use xlink:href="#m1ac1323839" x="153.997849" y="83.330204" style="fill: #9e9e9e; fill-opacity: 0.3; stroke: #9e9e9e; stroke-opacity: 0.3"/>
     <use xlink:href="#m1ac1323839" x="156.546959" y="42.585906" style="fill: #9e9e9e; fill-opacity: 0.3; stroke: #9e9e9e; stroke-opacity: 0.3"/>
     <use xlink:href="#m1ac1323839" x="159.096068" y="70.302269" style="fill: #9e9e9e; fill-opacity: 0.3; stroke: #9e9e9e; stroke-opacity: 0.3"/>
     <use xlink:href="#m1ac1323839" x="161.645177" y="85.104008" style="fill: #9e9e9e; fill-opacity: 0.3; stroke: #9e9e9e; stroke-opacity: 0.3"/>
     <use xlink:href="#m1ac1323839" x="164.194286" y="53.707914" style="fill: #9e9e9e; fill-opacity: 0.3; stroke: #9e9e9e; stroke-opacity: 0.3"/>
     <use xlink:href="#m1ac1323839" x="166.743395" y="84.507901" style="fill: #9e9e9e; fill-opacity: 0.3; stroke: #9e9e9e; stroke-opacity: 0.3"/>
     <use xlink:href="#m1ac1323839" x="169.292504" y="60.429541" style="fill: #9e9e9e; fill-opacity: 0.3; stroke: #9e9e9e; stroke-opacity: 0.3"/>
     <use xlink:href="#m1ac1323839" x="171.841614" y="93.399742" style="fill: #9e9e9e; fill-opacity: 0.3; stroke: #9e9e9e; stroke-opacity: 0.3"/>
     <use xlink:href="#m1ac1323839" x="174.390723" y="82.1479" style="fill: #9e9e9e; fill-opacity: 0.3; stroke: #9e9e9e; stroke-opacity: 0.3"/>
     <use xlink:href="#m1ac1323839" x="176.939832" y="56.850725" style="fill: #9e9e9e; fill-opacity: 0.3; stroke: #9e9e9e; stroke-opacity: 0.3"/>
     <use xlink:href="#m1ac1323839" x="179.488941" y="47.218701" style="fill: #9e9e9e; fill-opacity: 0.3; stroke: #9e9e9e; stroke-opacity: 0.3"/>
     <use xlink:href="#m1ac1323839" x="182.03805" y="55.235533" style="fill: #9e9e9e; fill-opacity: 0.3; stroke: #9e9e9e; stroke-opacity: 0.3"/>
     <use xlink:href="#m1ac1323839" x="184.58716" y="58.920414" style="fill: #9e9e9e; fill-opacity: 0.3; stroke: #9e9e9e; stroke-opacity: 0.3"/>
     <use xlink:href="#m1ac1323839" x="187.136269" y="61.099831" style="fill: #9e9e9e; fill-opacity: 0.3; stroke: #9e9e9e; stroke-opacity: 0.3"/>
     <use xlink:href="#m1ac1323839" x="189.685378" y="79.082891" style="fill: #9e9e9e; fill-opacity: 0.3; stroke: #9e9e9e; stroke-opacity: 0.3"/>
     <use xlink:href="#m1ac1323839" x="192.234487" y="66.524784" style="fill: #9e9e9e; fill-opacity: 0.3; stroke: #9e9e9e; stroke-opacity: 0.3"/>
     <use xlink:href="#m1ac1323839" x="194.783596" y="61.976353" style="fill: #9e9e9e; fill-opacity: 0.3; stroke: #9e9e9e; stroke-opacity: 0.3"/>
     <use xlink:href="#m1ac1323839" x="197.332705" y="37.611892" style="fill: #9e9e9e; fill-opacity: 0.3; stroke: #9e9e9e; stroke-opacity: 0.3"/>
     <use xlink:href="#m1ac1323839" x="199.881815" y="48.66879" style="fill: #9e9e9e; fill-opacity: 0.3; stroke: #9e9e9e; stroke-opacity: 0.3"/>
     <use xlink:href="#m1ac1323839" x="202.430924" y="81.881631" style="fill: #9e9e9e; fill-opacity: 0.3; stroke: #9e9e9e; stroke-opacity: 0.3"/>
     <use xlink:href="#m1ac1323839" x="204.980033" y="48.820231" style="fill: #9e9e9e; fill-opacity: 0.3; stroke: #9e9e9e; stroke-opacity: 0.3"/>
     <use xlink:href="#m1ac1323839" x="207.529142" y="60.123834" style="fill: #9e9e9e; fill-opacity: 0.3; stroke: #9e9e9e; stroke-opacity: 0.3"/>
     <use xlink:href="#m1ac1323839" x="210.078251" y="64.927075" style="fill: #9e9e9e; fill-opacity: 0.3; stroke: #9e9e9e; stroke-opacity: 0.3"/>
     <use xlink:href="#m1ac1323839" x="212.627361" y="44.819985" style="fill: #9e9e9e; fill-opacity: 0.3; stroke: #9e9e9e; stroke-opacity: 0.3"/>
     <use xlink:href="#m1ac1323839" x="215.17647" y="38.576455" style="fill: #9e9e9e; fill-opacity: 0.3; stroke: #9e9e9e; stroke-opacity: 0.3"/>
     <use xlink:href="#m1ac1323839" x="217.725579" y="40.652597" style="fill: #9e9e9e; fill-opacity: 0.3; stroke: #9e9e9e; stroke-opacity: 0.3"/>
     <use xlink:href="#m1ac1323839" x="220.274688" y="69.277642" style="fill: #9e9e9e; fill-opacity: 0.3; stroke: #9e9e9e; stroke-opacity: 0.3"/>
     <use xlink:href="#m1ac1323839" x="222.823797" y="61.59336" style="fill: #9e9e9e; fill-opacity: 0.3; stroke: #9e9e9e; stroke-opacity: 0.3"/>
     <use xlink:href="#m1ac1323839" x="225.372906" y="52.262984" style="fill: #9e9e9e; fill-opacity: 0.3; stroke: #9e9e9e; stroke-opacity: 0.3"/>
     <use xlink:href="#m1ac1323839" x="227.922016" y="42.974004" style="fill: #9e9e9e; fill-opacity: 0.3; stroke: #9e9e9e; stroke-opacity: 0.3"/>
     <use xlink:href="#m1ac1323839" x="230.471125" y="67.008847" style="fill: #9e9e9e; fill-opacity: 0.3; stroke: #9e9e9e; stroke-opacity: 0.3"/>
     <use xlink:href="#m1ac1323839" x="233.020234" y="63.472271" style="fill: #9e9e9e; fill-opacity: 0.3; stroke: #9e9e9e; stroke-opacity: 0.3"/>
     <use xlink:href="#m1ac1323839" x="235.569343" y="79.252593" style="fill: #9e9e9e; fill-opacity: 0.3; stroke: #9e9e9e; stroke-opacity: 0.3"/>
     <use xlink:href="#m1ac1323839" x="238.118452" y="81.980317" style="fill: #9e9e9e; fill-opacity: 0.3; stroke: #9e9e9e; stroke-opacity: 0.3"/>
     <use xlink:href="#m1ac1323839" x="240.667562" y="51.587347" style="fill: #9e9e9e; fill-opacity: 0.3; stroke: #9e9e9e; stroke-opacity: 0.3"/>
     <use xlink:href="#m1ac1323839" x="243.216671" y="44.477474" style="fill: #9e9e9e; fill-opacity: 0.3; stroke: #9e9e9e; stroke-opacity: 0.3"/>
     <use xlink:href="#m1ac1323839" x="245.76578" y="68.673175" style="fill: #9e9e9e; fill-opacity: 0.3; stroke: #9e9e9e; stroke-opacity: 0.3"/>
     <use xlink:href="#m1ac1323839" x="248.314889" y="53.330357" style="fill: #9e9e9e; fill-opacity: 0.3; stroke: #9e9e9e; stroke-opacity: 0.3"/>
     <use xlink:href="#m1ac1323839" x="250.863998" y="65.261227" style="fill: #9e9e9e; fill-opacity: 0.3; stroke: #9e9e9e; stroke-opacity: 0.3"/>
     <use xlink:href="#m1ac1323839" x="253.413107" y="83.055302" style="fill: #9e9e9e; fill-opacity: 0.3; stroke: #9e9e9e; stroke-opacity: 0.3"/>
     <use xlink:href="#m1ac1323839" x="255.962217" y="69.06957" style="fill: #9e9e9e; fill-opacity: 0.3; stroke: #9e9e9e; stroke-opacity: 0.3"/>
     <use xlink:href="#m1ac1323839" x="258.511326" y="52.475489" style="fill: #9e9e9e; fill-opacity: 0.3; stroke: #9e9e9e; stroke-opacity: 0.3"/>
     <use xlink:href="#m1ac1323839" x="261.060435" y="79.498899" style="fill: #9e9e9e; fill-opacity: 0.3; stroke: #9e9e9e; stroke-opacity: 0.3"/>
     <use xlink:href="#m1ac1323839" x="263.609544" y="56.3591" style="fill: #9e9e9e; fill-opacity: 0.3; stroke: #9e9e9e; stroke-opacity: 0.3"/>
     <use xlink:href="#m1ac1323839" x="266.158653" y="124.860419" style="fill: #9e9e9e; fill-opacity: 0.3; stroke: #9e9e9e; stroke-opacity: 0.3"/>
     <use xlink:href="#m1ac1323839" x="268.707763" y="72.732289" style="fill: #9e9e9e; fill-opacity: 0.3; stroke: #9e9e9e; stroke-opacity: 0.3"/>
     <use xlink:href="#m1ac1323839" x="271.256872" y="86.783546" style="fill: #9e9e9e; fill-opacity: 0.3; stroke: #9e9e9e; stroke-opacity: 0.3"/>
     <use xlink:href="#m1ac1323839" x="273.805981" y="95.385043" style="fill: #9e9e9e; fill-opacity: 0.3; stroke: #9e9e9e; stroke-opacity: 0.3"/>
     <use xlink:href="#m1ac1323839" x="276.35509" y="91.759549" style="fill: #9e9e9e; fill-opacity: 0.3; stroke: #9e9e9e; stroke-opacity: 0.3"/>
     <use xlink:href="#m1ac1323839" x="278.904199" y="127.29693" style="fill: #9e9e9e; fill-opacity: 0.3; stroke: #9e9e9e; stroke-opacity: 0.3"/>
     <use xlink:href="#m1ac1323839" x="281.453308" y="102.003644" style="fill: #9e9e9e; fill-opacity: 0.3; stroke: #9e9e9e; stroke-opacity: 0.3"/>
     <use xlink:href="#m1ac1323839" x="284.002418" y="95.624093" style="fill: #9e9e9e; fill-opacity: 0.3; stroke: #9e9e9e; stroke-opacity: 0.3"/>
     <use xlink:href="#m1ac1323839" x="286.551527" y="80.692136" style="fill: #9e9e9e; fill-opacity: 0.3; stroke: #9e9e9e; stroke-opacity: 0.3"/>
     <use xlink:href="#m1ac1323839" x="289.100636" y="115.150556" style="fill: #9e9e9e; fill-opacity: 0.3; stroke: #9e9e9e; stroke-opacity: 0.3"/>
     <use xlink:href="#m1ac1323839" x="291.649745" y="122.659613" style="fill: #9e9e9e; fill-opacity: 0.3; stroke: #9e9e9e; stroke-opacity: 0.3"/>
     <use xlink:href="#m1ac1323839" x="294.198854" y="120.769404" style="fill: #9e9e9e; fill-opacity: 0.3; stroke: #9e9e9e; stroke-opacity: 0.3"/>
     <use xlink:href="#m1ac1323839" x="296.747964" y="101.349863" style="fill: #9e9e9e; fill-opacity: 0.3; stroke: #9e9e9e; stroke-opacity: 0.3"/>
     <use xlink:href="#m1ac1323839" x="299.297073" y="113.690218" style="fill: #9e9e9e; fill-opacity: 0.3; stroke: #9e9e9e; stroke-opacity: 0.3"/>
     <use xlink:href="#m1ac1323839" x="301.846182" y="130.374035" style="fill: #9e9e9e; fill-opacity: 0.3; stroke: #9e9e9e; stroke-opacity: 0.3"/>
     <use xlink:href="#m1ac1323839" x="304.395291" y="116.997558" style="fill: #9e9e9e; fill-opacity: 0.3; stroke: #9e9e9e; stroke-opacity: 0.3"/>
     <use xlink:href="#m1ac1323839" x="306.9444" y="126.751885" style="fill: #9e9e9e; fill-opacity: 0.3; stroke: #9e9e9e; stroke-opacity: 0.3"/>
     <use xlink:href="#m1ac1323839" x="309.493509" y="116.154604" style="fill: #9e9e9e; fill-opacity: 0.3; stroke: #9e9e9e; stroke-opacity: 0.3"/>
     <use xlink:href="#m1ac1323839" x="312.042619" y="145.824319" style="fill: #9e9e9e; fill-opacity: 0.3; stroke: #9e9e9e; stroke-opacity: 0.3"/>
     <use xlink:href="#m1ac1323839" x="314.591728" y="143.14894" style="fill: #9e9e9e; fill-opacity: 0.3; stroke: #9e9e9e; stroke-opacity: 0.3"/>
     <use xlink:href="#m1ac1323839" x="317.140837" y="147.44093" style="fill: #9e9e9e; fill-opacity: 0.3; stroke: #9e9e9e; stroke-opacity: 0.3"/>
     <use xlink:href="#m1ac1323839" x="319.689946" y="167.689319" style="fill: #9e9e9e; fill-opacity: 0.3; stroke: #9e9e9e; stroke-opacity: 0.3"/>
     <use xlink:href="#m1ac1323839" x="322.239055" y="143.142731" style="fill: #9e9e9e; fill-opacity: 0.3; stroke: #9e9e9e; stroke-opacity: 0.3"/>
     <use xlink:href="#m1ac1323839" x="324.788165" y="147.014346" style="fill: #9e9e9e; fill-opacity: 0.3; stroke: #9e9e9e; stroke-opacity: 0.3"/>
     <use xlink:href="#m1ac1323839" x="327.337274" y="154.390304" style="fill: #9e9e9e; fill-opacity: 0.3; stroke: #9e9e9e; stroke-opacity: 0.3"/>
     <use xlink:href="#m1ac1323839" x="329.886383" y="161.514175" style="fill: #9e9e9e; fill-opacity: 0.3; stroke: #9e9e9e; stroke-opacity: 0.3"/>
     <use xlink:href="#m1ac1323839" x="332.435492" y="183.535215" style="fill: #9e9e9e; fill-opacity: 0.3; stroke: #9e9e9e; stroke-opacity: 0.3"/>
     <use xlink:href="#m1ac1323839" x="334.984601" y="171.120531" style="fill: #9e9e9e; fill-opacity: 0.3; stroke: #9e9e9e; stroke-opacity: 0.3"/>
     <use xlink:href="#m1ac1323839" x="337.53371" y="173.211937" style="fill: #9e9e9e; fill-opacity: 0.3; stroke: #9e9e9e; stroke-opacity: 0.3"/>
     <use xlink:href="#m1ac1323839" x="340.08282" y="183.802523" style="fill: #9e9e9e; fill-opacity: 0.3; stroke: #9e9e9e; stroke-opacity: 0.3"/>
     <use xlink:href="#m1ac1323839" x="342.631929" y="176.961882" style="fill: #9e9e9e; fill-opacity: 0.3; stroke: #9e9e9e; stroke-opacity: 0.3"/>
     <use xlink:href="#m1ac1323839" x="345.181038" y="171.303816" style="fill: #9e9e9e; fill-opacity: 0.3; stroke: #9e9e9e; stroke-opacity: 0.3"/>
     <use xlink:href="#m1ac1323839" x="347.730147" y="151.116445" style="fill: #9e9e9e; fill-opacity: 0.3; stroke: #9e9e9e; stroke-opacity: 0.3"/>
     <use xlink:href="#m1ac1323839" x="350.279256" y="181.458362" style="fill: #9e9e9e; fill-opacity: 0.3; stroke: #9e9e9e; stroke-opacity: 0.3"/>
     <use xlink:href="#m1ac1323839" x="352.828366" y="183.370891" style="fill: #9e9e9e; fill-opacity: 0.3; stroke: #9e9e9e; stroke-opacity: 0.3"/>
     <use xlink:href="#m1ac1323839" x="355.377475" y="191.823677" style="fill: #9e9e9e; fill-opacity: 0.3; stroke: #9e9e9e; stroke-opacity: 0.3"/>
     <use xlink:href="#m1ac1323839" x="357.926584" y="224.182601" style="fill: #9e9e9e; fill-opacity: 0.3; stroke: #9e9e9e; stroke-opacity: 0.3"/>
     <use xlink:href="#m1ac1323839" x="360.475693" y="197.364475" style="fill: #9e9e9e; fill-opacity: 0.3; stroke: #9e9e9e; stroke-opacity: 0.3"/>
     <use xlink:href="#m1ac1323839" x="363.024802" y="199.086743" style="fill: #9e9e9e; fill-opacity: 0.3; stroke: #9e9e9e; stroke-opacity: 0.3"/>
     <use xlink:href="#m1ac1323839" x="365.573911" y="164.106566" style="fill: #9e9e9e; fill-opacity: 0.3; stroke: #9e9e9e; stroke-opacity: 0.3"/>
     <use xlink:href="#m1ac1323839" x="368.123021" y="209.150906" style="fill: #9e9e9e; fill-opacity: 0.3; stroke: #9e9e9e; stroke-opacity: 0.3"/>
     <use xlink:href="#m1ac1323839" x="370.67213" y="204.298134" style="fill: #9e9e9e; fill-opacity: 0.3; stroke: #9e9e9e; stroke-opacity: 0.3"/>
     <use xlink:href="#m1ac1323839" x="373.221239" y="212.535846" style="fill: #9e9e9e; fill-opacity: 0.3; stroke: #9e9e9e; stroke-opacity: 0.3"/>
     <use xlink:href="#m1ac1323839" x="375.770348" y="233.347354" style="fill: #9e9e9e; fill-opacity: 0.3; stroke: #9e9e9e; stroke-opacity: 0.3"/>
     <use xlink:href="#m1ac1323839" x="378.319457" y="199.568632" style="fill: #9e9e9e; fill-opacity: 0.3; stroke: #9e9e9e; stroke-opacity: 0.3"/>
     <use xlink:href="#m1ac1323839" x="380.868567" y="208.505476" style="fill: #9e9e9e; fill-opacity: 0.3; stroke: #9e9e9e; stroke-opacity: 0.3"/>
     <use xlink:href="#m1ac1323839" x="383.417676" y="210.575692" style="fill: #9e9e9e; fill-opacity: 0.3; stroke: #9e9e9e; stroke-opacity: 0.3"/>
     <use xlink:href="#m1ac1323839" x="385.966785" y="240.115662" style="fill: #9e9e9e; fill-opacity: 0.3; stroke: #9e9e9e; stroke-opacity: 0.3"/>
     <use xlink:href="#m1ac1323839" x="388.515894" y="206.077939" style="fill: #9e9e9e; fill-opacity: 0.3; stroke: #9e9e9e; stroke-opacity: 0.3"/>
     <use xlink:href="#m1ac1323839" x="391.065003" y="252.961012" style="fill: #9e9e9e; fill-opacity: 0.3; stroke: #9e9e9e; stroke-opacity: 0.3"/>
     <use xlink:href="#m1ac1323839" x="393.614112" y="223.903571" style="fill: #9e9e9e; fill-opacity: 0.3; stroke: #9e9e9e; stroke-opacity: 0.3"/>
     <use xlink:href="#m1ac1323839" x="396.163222" y="200.868172" style="fill: #9e9e9e; fill-opacity: 0.3; stroke: #9e9e9e; stroke-opacity: 0.3"/>
     <use xlink:href="#m1ac1323839" x="398.712331" y="253.487677" style="fill: #9e9e9e; fill-opacity: 0.3; stroke: #9e9e9e; stroke-opacity: 0.3"/>
     <use xlink:href="#m1ac1323839" x="401.26144" y="248.965322" style="fill: #9e9e9e; fill-opacity: 0.3; stroke: #9e9e9e; stroke-opacity: 0.3"/>
     <use xlink:href="#m1ac1323839" x="403.810549" y="240.536882" style="fill: #9e9e9e; fill-opacity: 0.3; stroke: #9e9e9e; stroke-opacity: 0.3"/>
     <use xlink:href="#m1ac1323839" x="406.359658" y="252.113057" style="fill: #9e9e9e; fill-opacity: 0.3; stroke: #9e9e9e; stroke-opacity: 0.3"/>
     <use xlink:href="#m1ac1323839" x="408.908768" y="270.633439" style="fill: #9e9e9e; fill-opacity: 0.3; stroke: #9e9e9e; stroke-opacity: 0.3"/>
     <use xlink:href="#m1ac1323839" x="411.457877" y="246.863339" style="fill: #9e9e9e; fill-opacity: 0.3; stroke: #9e9e9e; stroke-opacity: 0.3"/>
     <use xlink:href="#m1ac1323839" x="414.006986" y="266.533647" style="fill: #9e9e9e; fill-opacity: 0.3; stroke: #9e9e9e; stroke-opacity: 0.3"/>
     <use xlink:href="#m1ac1323839" x="416.556095" y="243.904337" style="fill: #9e9e9e; fill-opacity: 0.3; stroke: #9e9e9e; stroke-opacity: 0.3"/>
     <use xlink:href="#m1ac1323839" x="419.105204" y="267.542361" style="fill: #9e9e9e; fill-opacity: 0.3; stroke: #9e9e9e; stroke-opacity: 0.3"/>
     <use xlink:href="#m1ac1323839" x="421.654313" y="229.953293" style="fill: #9e9e9e; fill-opacity: 0.3; stroke: #9e9e9e; stroke-opacity: 0.3"/>
     <use xlink:href="#m1ac1323839" x="424.203423" y="268.284448" style="fill: #9e9e9e; fill-opacity: 0.3; stroke: #9e9e9e; stroke-opacity: 0.3"/>
     <use xlink:href="#m1ac1323839" x="426.752532" y="262.289913" style="fill: #9e9e9e; fill-opacity: 0.3; stroke: #9e9e9e; stroke-opacity: 0.3"/>
     <use xlink:href="#m1ac1323839" x="429.301641" y="245.523734" style="fill: #9e9e9e; fill-opacity: 0.3; stroke: #9e9e9e; stroke-opacity: 0.3"/>
     <use xlink:href="#m1ac1323839" x="431.85075" y="278.991503" style="fill: #9e9e9e; fill-opacity: 0.3; stroke: #9e9e9e; stroke-opacity: 0.3"/>
     <use xlink:href="#m1ac1323839" x="434.399859" y="256.918549" style="fill: #9e9e9e; fill-opacity: 0.3; stroke: #9e9e9e; stroke-opacity: 0.3"/>
     <use xlink:href="#m1ac1323839" x="436.948969" y="240.738019" style="fill: #9e9e9e; fill-opacity: 0.3; stroke: #9e9e9e; stroke-opacity: 0.3"/>
     <use xlink:href="#m1ac1323839" x="439.498078" y="287.677969" style="fill: #9e9e9e; fill-opacity: 0.3; stroke: #9e9e9e; stroke-opacity: 0.3"/>
     <use xlink:href="#m1ac1323839" x="442.047187" y="260.016916" style="fill: #9e9e9e; fill-opacity: 0.3; stroke: #9e9e9e; stroke-opacity: 0.3"/>
     <use xlink:href="#m1ac1323839" x="444.596296" y="259.427394" style="fill: #9e9e9e; fill-opacity: 0.3; stroke: #9e9e9e; stroke-opacity: 0.3"/>
     <use xlink:href="#m1ac1323839" x="447.145405" y="251.663879" style="fill: #9e9e9e; fill-opacity: 0.3; stroke: #9e9e9e; stroke-opacity: 0.3"/>
     <use xlink:href="#m1ac1323839" x="449.694514" y="284.010666" style="fill: #9e9e9e; fill-opacity: 0.3; stroke: #9e9e9e; stroke-opacity: 0.3"/>
     <use xlink:href="#m1ac1323839" x="452.243624" y="285.621308" style="fill: #9e9e9e; fill-opacity: 0.3; stroke: #9e9e9e; stroke-opacity: 0.3"/>
     <use xlink:href="#m1ac1323839" x="454.792733" y="256.643727" style="fill: #9e9e9e; fill-opacity: 0.3; stroke: #9e9e9e; stroke-opacity: 0.3"/>
     <use xlink:href="#m1ac1323839" x="457.341842" y="260.283241" style="fill: #9e9e9e; fill-opacity: 0.3; stroke: #9e9e9e; stroke-opacity: 0.3"/>
     <use xlink:href="#m1ac1323839" x="459.890951" y="260.992818" style="fill: #9e9e9e; fill-opacity: 0.3; stroke: #9e9e9e; stroke-opacity: 0.3"/>
     <use xlink:href="#m1ac1323839" x="462.44006" y="259.34258" style="fill: #9e9e9e; fill-opacity: 0.3; stroke: #9e9e9e; stroke-opacity: 0.3"/>
     <use xlink:href="#m1ac1323839" x="464.98917" y="275.353167" style="fill: #9e9e9e; fill-opacity: 0.3; stroke: #9e9e9e; stroke-opacity: 0.3"/>
     <use xlink:href="#m1ac1323839" x="467.538279" y="260.572313" style="fill: #9e9e9e; fill-opacity: 0.3; stroke: #9e9e9e; stroke-opacity: 0.3"/>
     <use xlink:href="#m1ac1323839" x="470.087388" y="259.163957" style="fill: #9e9e9e; fill-opacity: 0.3; stroke: #9e9e9e; stroke-opacity: 0.3"/>
     <use xlink:href="#m1ac1323839" x="472.636497" y="274.559793" style="fill: #9e9e9e; fill-opacity: 0.3; stroke: #9e9e9e; stroke-opacity: 0.3"/>
     <use xlink:href="#m1ac1323839" x="475.185606" y="233.068258" style="fill: #9e9e9e; fill-opacity: 0.3; stroke: #9e9e9e; stroke-opacity: 0.3"/>
     <use xlink:href="#m1ac1323839" x="477.734715" y="254.343998" style="fill: #9e9e9e; fill-opacity: 0.3; stroke: #9e9e9e; stroke-opacity: 0.3"/>
     <use xlink:href="#m1ac1323839" x="480.283825" y="279.841828" style="fill: #9e9e9e; fill-opacity: 0.3; stroke: #9e9e9e; stroke-opacity: 0.3"/>
     <use xlink:href="#m1ac1323839" x="482.832934" y="249.634627" style="fill: #9e9e9e; fill-opacity: 0.3; stroke: #9e9e9e; stroke-opacity: 0.3"/>
     <use xlink:href="#m1ac1323839" x="485.382043" y="274.394432" style="fill: #9e9e9e; fill-opacity: 0.3; stroke: #9e9e9e; stroke-opacity: 0.3"/>
     <use xlink:href="#m1ac1323839" x="487.931152" y="245.350457" style="fill: #9e9e9e; fill-opacity: 0.3; stroke: #9e9e9e; stroke-opacity: 0.3"/>
     <use xlink:href="#m1ac1323839" x="490.480261" y="238.213482" style="fill: #9e9e9e; fill-opacity: 0.3; stroke: #9e9e9e; stroke-opacity: 0.3"/>
     <use xlink:href="#m1ac1323839" x="493.029371" y="268.188133" style="fill: #9e9e9e; fill-opacity: 0.3; stroke: #9e9e9e; stroke-opacity: 0.3"/>
     <use xlink:href="#m1ac1323839" x="495.57848" y="238.501084" style="fill: #9e9e9e; fill-opacity: 0.3; stroke: #9e9e9e; stroke-opacity: 0.3"/>
     <use xlink:href="#m1ac1323839" x="498.127589" y="245.673064" style="fill: #9e9e9e; fill-opacity: 0.3; stroke: #9e9e9e; stroke-opacity: 0.3"/>
     <use xlink:href="#m1ac1323839" x="500.676698" y="237.55966" style="fill: #9e9e9e; fill-opacity: 0.3; stroke: #9e9e9e; stroke-opacity: 0.3"/>
     <use xlink:href="#m1ac1323839" x="503.225807" y="218.822609" style="fill: #9e9e9e; fill-opacity: 0.3; stroke: #9e9e9e; stroke-opacity: 0.3"/>
     <use xlink:href="#m1ac1323839" x="505.774916" y="250.913936" style="fill: #9e9e9e; fill-opacity: 0.3; stroke: #9e9e9e; stroke-opacity: 0.3"/>
     <use xlink:href="#m1ac1323839" x="508.324026" y="257.057588" style="fill: #9e9e9e; fill-opacity: 0.3; stroke: #9e9e9e; stroke-opacity: 0.3"/>
     <use xlink:href="#m1ac1323839" x="510.873135" y="257.218799" style="fill: #9e9e9e; fill-opacity: 0.3; stroke: #9e9e9e; stroke-opacity: 0.3"/>
     <use xlink:href="#m1ac1323839" x="513.422244" y="253.980905" style="fill: #9e9e9e; fill-opacity: 0.3; stroke: #9e9e9e; stroke-opacity: 0.3"/>
     <use xlink:href="#m1ac1323839" x="515.971353" y="240.135946" style="fill: #9e9e9e; fill-opacity: 0.3; stroke: #9e9e9e; stroke-opacity: 0.3"/>
     <use xlink:href="#m1ac1323839" x="518.520462" y="231.283967" style="fill: #9e9e9e; fill-opacity: 0.3; stroke: #9e9e9e; stroke-opacity: 0.3"/>
     <use xlink:href="#m1ac1323839" x="521.069572" y="229.995451" style="fill: #9e9e9e; fill-opacity: 0.3; stroke: #9e9e9e; stroke-opacity: 0.3"/>
     <use xlink:href="#m1ac1323839" x="523.618681" y="218.898749" style="fill: #9e9e9e; fill-opacity: 0.3; stroke: #9e9e9e; stroke-opacity: 0.3"/>
     <use xlink:href="#m1ac1323839" x="526.16779" y="229.329877" style="fill: #9e9e9e; fill-opacity: 0.3; stroke: #9e9e9e; stroke-opacity: 0.3"/>
     <use xlink:href="#m1ac1323839" x="528.716899" y="204.003443" style="fill: #9e9e9e; fill-opacity: 0.3; stroke: #9e9e9e; stroke-opacity: 0.3"/>
     <use xlink:href="#m1ac1323839" x="531.266008" y="228.606104" style="fill: #9e9e9e; fill-opacity: 0.3; stroke: #9e9e9e; stroke-opacity: 0.3"/>
     <use xlink:href="#m1ac1323839" x="533.815117" y="178.704438" style="fill: #9e9e9e; fill-opacity: 0.3; stroke: #9e9e9e; stroke-opacity: 0.3"/>
     <use xlink:href="#m1ac1323839" x="536.364227" y="209.136528" style="fill: #9e9e9e; fill-opacity: 0.3; stroke: #9e9e9e; stroke-opacity: 0.3"/>
     <use xlink:href="#m1ac1323839" x="538.913336" y="229.827583" style="fill: #9e9e9e; fill-opacity: 0.3; stroke: #9e9e9e; stroke-opacity: 0.3"/>
     <use xlink:href="#m1ac1323839" x="541.462445" y="230.374806" style="fill: #9e9e9e; fill-opacity: 0.3; stroke: #9e9e9e; stroke-opacity: 0.3"/>
     <use xlink:href="#m1ac1323839" x="544.011554" y="202.8985" style="fill: #9e9e9e; fill-opacity: 0.3; stroke: #9e9e9e; stroke-opacity: 0.3"/>
     <use xlink:href="#m1ac1323839" x="546.560663" y="211.131601" style="fill: #9e9e9e; fill-opacity: 0.3; stroke: #9e9e9e; stroke-opacity: 0.3"/>
     <use xlink:href="#m1ac1323839" x="549.109773" y="193.304935" style="fill: #9e9e9e; fill-opacity: 0.3; stroke: #9e9e9e; stroke-opacity: 0.3"/>
     <use xlink:href="#m1ac1323839" x="551.658882" y="194.082295" style="fill: #9e9e9e; fill-opacity: 0.3; stroke: #9e9e9e; stroke-opacity: 0.3"/>
     <use xlink:href="#m1ac1323839" x="554.207991" y="199.650044" style="fill: #9e9e9e; fill-opacity: 0.3; stroke: #9e9e9e; stroke-opacity: 0.3"/>
     <use xlink:href="#m1ac1323839" x="556.7571" y="208.786072" style="fill: #9e9e9e; fill-opacity: 0.3; stroke: #9e9e9e; stroke-opacity: 0.3"/>
     <use xlink:href="#m1ac1323839" x="559.306209" y="216.209929" style="fill: #9e9e9e; fill-opacity: 0.3; stroke: #9e9e9e; stroke-opacity: 0.3"/>
     <use xlink:href="#m1ac1323839" x="561.855318" y="196.117524" style="fill: #9e9e9e; fill-opacity: 0.3; stroke: #9e9e9e; stroke-opacity: 0.3"/>
     <use xlink:href="#m1ac1323839" x="564.404428" y="172.282664" style="fill: #9e9e9e; fill-opacity: 0.3; stroke: #9e9e9e; stroke-opacity: 0.3"/>
     <use xlink:href="#m1ac1323839" x="566.953537" y="179.210535" style="fill: #9e9e9e; fill-opacity: 0.3; stroke: #9e9e9e; stroke-opacity: 0.3"/>
     <use xlink:href="#m1ac1323839" x="569.502646" y="199.055212" style="fill: #9e9e9e; fill-opacity: 0.3; stroke: #9e9e9e; stroke-opacity: 0.3"/>
     <use xlink:href="#m1ac1323839" x="572.051755" y="173.315049" style="fill: #9e9e9e; fill-opacity: 0.3; stroke: #9e9e9e; stroke-opacity: 0.3"/>
     <use xlink:href="#m1ac1323839" x="574.600864" y="166.659375" style="fill: #9e9e9e; fill-opacity: 0.3; stroke: #9e9e9e; stroke-opacity: 0.3"/>
     <use xlink:href="#m1ac1323839" x="577.149974" y="183.436719" style="fill: #9e9e9e; fill-opacity: 0.3; stroke: #9e9e9e; stroke-opacity: 0.3"/>
     <use xlink:href="#m1ac1323839" x="579.699083" y="163.692647" style="fill: #9e9e9e; fill-opacity: 0.3; stroke: #9e9e9e; stroke-opacity: 0.3"/>
     <use xlink:href="#m1ac1323839" x="582.248192" y="161.876681" style="fill: #9e9e9e; fill-opacity: 0.3; stroke: #9e9e9e; stroke-opacity: 0.3"/>
     <use xlink:href="#m1ac1323839" x="584.797301" y="177.557878" style="fill: #9e9e9e; fill-opacity: 0.3; stroke: #9e9e9e; stroke-opacity: 0.3"/>
    </g>
   </g>
   <g id="matplotlib.axis_1">
    <g id="xtick_1">
     <g id="line2d_1">
      <path d="M 77.524574 300.277969 
L 77.524574 23.077969 
" clip-path="url(#p6a023c211c)" style="fill: none; stroke: #b0b0b0; stroke-opacity: 0.3; stroke-width: 0.8; stroke-linecap: square"/>
     </g>
     <g id="line2d_2">
      <defs>
       <path id="m66d5676512" d="M 0 0 
L 0 3.5 
" style="stroke: #000000; stroke-width: 0.8"/>
      </defs>
      <g>
       <use xlink:href="#m66d5676512" x="77.524574" y="300.277969" style="stroke: #000000; stroke-width: 0.8"/>
      </g>
     </g>
     <g id="text_1">
      <!-- 0 -->
      <g transform="translate(74.343324 314.876406) scale(0.1 -0.1)">
       <defs>
        <path id="DejaVuSans-30" d="M 2034 4250 
Q 1547 4250 1301 3770 
Q 1056 3291 1056 2328 
Q 1056 1369 1301 889 
Q 1547 409 2034 409 
Q 2525 409 2770 889 
Q 3016 1369 3016 2328 
Q 3016 3291 2770 3770 
Q 2525 4250 2034 4250 
z
M 2034 4750 
Q 2819 4750 3233 4129 
Q 3647 3509 3647 2328 
Q 3647 1150 3233 529 
Q 2819 -91 2034 -91 
Q 1250 -91 836 529 
Q 422 1150 422 2328 
Q 422 3509 836 4129 
Q 1250 4750 2034 4750 
z
" transform="scale(0.015625)"/>
       </defs>
       <use xlink:href="#DejaVuSans-30"/>
      </g>
     </g>
    </g>
    <g id="xtick_2">
     <g id="line2d_3">
      <path d="M 158.259536 300.277969 
L 158.259536 23.077969 
" clip-path="url(#p6a023c211c)" style="fill: none; stroke: #b0b0b0; stroke-opacity: 0.3; stroke-width: 0.8; stroke-linecap: square"/>
     </g>
     <g id="line2d_4">
      <g>
       <use xlink:href="#m66d5676512" x="158.259536" y="300.277969" style="stroke: #000000; stroke-width: 0.8"/>
      </g>
     </g>
     <g id="text_2">
      <!-- 1 -->
      <g transform="translate(155.078286 314.876406) scale(0.1 -0.1)">
       <defs>
        <path id="DejaVuSans-31" d="M 794 531 
L 1825 531 
L 1825 4091 
L 703 3866 
L 703 4441 
L 1819 4666 
L 2450 4666 
L 2450 531 
L 3481 531 
L 3481 0 
L 794 0 
L 794 531 
z
" transform="scale(0.015625)"/>
       </defs>
       <use xlink:href="#DejaVuSans-31"/>
      </g>
     </g>
    </g>
    <g id="xtick_3">
     <g id="line2d_5">
      <path d="M 238.994498 300.277969 
L 238.994498 23.077969 
" clip-path="url(#p6a023c211c)" style="fill: none; stroke: #b0b0b0; stroke-opacity: 0.3; stroke-width: 0.8; stroke-linecap: square"/>
     </g>
     <g id="line2d_6">
      <g>
       <use xlink:href="#m66d5676512" x="238.994498" y="300.277969" style="stroke: #000000; stroke-width: 0.8"/>
      </g>
     </g>
     <g id="text_3">
      <!-- 2 -->
      <g transform="translate(235.813248 314.876406) scale(0.1 -0.1)">
       <defs>
        <path id="DejaVuSans-32" d="M 1228 531 
L 3431 531 
L 3431 0 
L 469 0 
L 469 531 
Q 828 903 1448 1529 
Q 2069 2156 2228 2338 
Q 2531 2678 2651 2914 
Q 2772 3150 2772 3378 
Q 2772 3750 2511 3984 
Q 2250 4219 1831 4219 
Q 1534 4219 1204 4116 
Q 875 4013 500 3803 
L 500 4441 
Q 881 4594 1212 4672 
Q 1544 4750 1819 4750 
Q 2544 4750 2975 4387 
Q 3406 4025 3406 3419 
Q 3406 3131 3298 2873 
Q 3191 2616 2906 2266 
Q 2828 2175 2409 1742 
Q 1991 1309 1228 531 
z
" transform="scale(0.015625)"/>
       </defs>
       <use xlink:href="#DejaVuSans-32"/>
      </g>
     </g>
    </g>
    <g id="xtick_4">
     <g id="line2d_7">
      <path d="M 319.72946 300.277969 
L 319.72946 23.077969 
" clip-path="url(#p6a023c211c)" style="fill: none; stroke: #b0b0b0; stroke-opacity: 0.3; stroke-width: 0.8; stroke-linecap: square"/>
     </g>
     <g id="line2d_8">
      <g>
       <use xlink:href="#m66d5676512" x="319.72946" y="300.277969" style="stroke: #000000; stroke-width: 0.8"/>
      </g>
     </g>
     <g id="text_4">
      <!-- 3 -->
      <g transform="translate(316.54821 314.876406) scale(0.1 -0.1)">
       <defs>
        <path id="DejaVuSans-33" d="M 2597 2516 
Q 3050 2419 3304 2112 
Q 3559 1806 3559 1356 
Q 3559 666 3084 287 
Q 2609 -91 1734 -91 
Q 1441 -91 1130 -33 
Q 819 25 488 141 
L 488 750 
Q 750 597 1062 519 
Q 1375 441 1716 441 
Q 2309 441 2620 675 
Q 2931 909 2931 1356 
Q 2931 1769 2642 2001 
Q 2353 2234 1838 2234 
L 1294 2234 
L 1294 2753 
L 1863 2753 
Q 2328 2753 2575 2939 
Q 2822 3125 2822 3475 
Q 2822 3834 2567 4026 
Q 2313 4219 1838 4219 
Q 1578 4219 1281 4162 
Q 984 4106 628 3988 
L 628 4550 
Q 988 4650 1302 4700 
Q 1616 4750 1894 4750 
Q 2613 4750 3031 4423 
Q 3450 4097 3450 3541 
Q 3450 3153 3228 2886 
Q 3006 2619 2597 2516 
z
" transform="scale(0.015625)"/>
       </defs>
       <use xlink:href="#DejaVuSans-33"/>
      </g>
     </g>
    </g>
    <g id="xtick_5">
     <g id="line2d_9">
      <path d="M 400.464422 300.277969 
L 400.464422 23.077969 
" clip-path="url(#p6a023c211c)" style="fill: none; stroke: #b0b0b0; stroke-opacity: 0.3; stroke-width: 0.8; stroke-linecap: square"/>
     </g>
     <g id="line2d_10">
      <g>
       <use xlink:href="#m66d5676512" x="400.464422" y="300.277969" style="stroke: #000000; stroke-width: 0.8"/>
      </g>
     </g>
     <g id="text_5">
      <!-- 4 -->
      <g transform="translate(397.283172 314.876406) scale(0.1 -0.1)">
       <defs>
        <path id="DejaVuSans-34" d="M 2419 4116 
L 825 1625 
L 2419 1625 
L 2419 4116 
z
M 2253 4666 
L 3047 4666 
L 3047 1625 
L 3713 1625 
L 3713 1100 
L 3047 1100 
L 3047 0 
L 2419 0 
L 2419 1100 
L 313 1100 
L 313 1709 
L 2253 4666 
z
" transform="scale(0.015625)"/>
       </defs>
       <use xlink:href="#DejaVuSans-34"/>
      </g>
     </g>
    </g>
    <g id="xtick_6">
     <g id="line2d_11">
      <path d="M 481.199384 300.277969 
L 481.199384 23.077969 
" clip-path="url(#p6a023c211c)" style="fill: none; stroke: #b0b0b0; stroke-opacity: 0.3; stroke-width: 0.8; stroke-linecap: square"/>
     </g>
     <g id="line2d_12">
      <g>
       <use xlink:href="#m66d5676512" x="481.199384" y="300.277969" style="stroke: #000000; stroke-width: 0.8"/>
      </g>
     </g>
     <g id="text_6">
      <!-- 5 -->
      <g transform="translate(478.018134 314.876406) scale(0.1 -0.1)">
       <defs>
        <path id="DejaVuSans-35" d="M 691 4666 
L 3169 4666 
L 3169 4134 
L 1269 4134 
L 1269 2991 
Q 1406 3038 1543 3061 
Q 1681 3084 1819 3084 
Q 2600 3084 3056 2656 
Q 3513 2228 3513 1497 
Q 3513 744 3044 326 
Q 2575 -91 1722 -91 
Q 1428 -91 1123 -41 
Q 819 9 494 109 
L 494 744 
Q 775 591 1075 516 
Q 1375 441 1709 441 
Q 2250 441 2565 725 
Q 2881 1009 2881 1497 
Q 2881 1984 2565 2268 
Q 2250 2553 1709 2553 
Q 1456 2553 1204 2497 
Q 953 2441 691 2322 
L 691 4666 
z
" transform="scale(0.015625)"/>
       </defs>
       <use xlink:href="#DejaVuSans-35"/>
      </g>
     </g>
    </g>
    <g id="xtick_7">
     <g id="line2d_13">
      <path d="M 561.934346 300.277969 
L 561.934346 23.077969 
" clip-path="url(#p6a023c211c)" style="fill: none; stroke: #b0b0b0; stroke-opacity: 0.3; stroke-width: 0.8; stroke-linecap: square"/>
     </g>
     <g id="line2d_14">
      <g>
       <use xlink:href="#m66d5676512" x="561.934346" y="300.277969" style="stroke: #000000; stroke-width: 0.8"/>
      </g>
     </g>
     <g id="text_7">
      <!-- 6 -->
      <g transform="translate(558.753096 314.876406) scale(0.1 -0.1)">
       <defs>
        <path id="DejaVuSans-36" d="M 2113 2584 
Q 1688 2584 1439 2293 
Q 1191 2003 1191 1497 
Q 1191 994 1439 701 
Q 1688 409 2113 409 
Q 2538 409 2786 701 
Q 3034 994 3034 1497 
Q 3034 2003 2786 2293 
Q 2538 2584 2113 2584 
z
M 3366 4563 
L 3366 3988 
Q 3128 4100 2886 4159 
Q 2644 4219 2406 4219 
Q 1781 4219 1451 3797 
Q 1122 3375 1075 2522 
Q 1259 2794 1537 2939 
Q 1816 3084 2150 3084 
Q 2853 3084 3261 2657 
Q 3669 2231 3669 1497 
Q 3669 778 3244 343 
Q 2819 -91 2113 -91 
Q 1303 -91 875 529 
Q 447 1150 447 2328 
Q 447 3434 972 4092 
Q 1497 4750 2381 4750 
Q 2619 4750 2861 4703 
Q 3103 4656 3366 4563 
z
" transform="scale(0.015625)"/>
       </defs>
       <use xlink:href="#DejaVuSans-36"/>
      </g>
     </g>
    </g>
    <g id="text_8">
     <!-- x -->
     <g transform="translate(328.201562 328.554531) scale(0.1 -0.1)">
      <defs>
       <path id="DejaVuSans-78" d="M 3513 3500 
L 2247 1797 
L 3578 0 
L 2900 0 
L 1881 1375 
L 863 0 
L 184 0 
L 1544 1831 
L 300 3500 
L 978 3500 
L 1906 2253 
L 2834 3500 
L 3513 3500 
z
" transform="scale(0.015625)"/>
      </defs>
      <use xlink:href="#DejaVuSans-78"/>
     </g>
    </g>
   </g>
   <g id="matplotlib.axis_2">
    <g id="ytick_1">
     <g id="line2d_15">
      <path d="M 52.160938 264.987216 
L 610.160938 264.987216 
" clip-path="url(#p6a023c211c)" style="fill: none; stroke: #b0b0b0; stroke-opacity: 0.3; stroke-width: 0.8; stroke-linecap: square"/>
     </g>
     <g id="line2d_16">
      <defs>
       <path id="m7fa422a655" d="M 0 0 
L -3.5 0 
" style="stroke: #000000; stroke-width: 0.8"/>
      </defs>
      <g>
       <use xlink:href="#m7fa422a655" x="52.160938" y="264.987216" style="stroke: #000000; stroke-width: 0.8"/>
      </g>
     </g>
     <g id="text_9">
      <!-- −1.0 -->
      <g transform="translate(20.878125 268.786435) scale(0.1 -0.1)">
       <defs>
        <path id="DejaVuSans-2212" d="M 678 2272 
L 4684 2272 
L 4684 1741 
L 678 1741 
L 678 2272 
z
" transform="scale(0.015625)"/>
        <path id="DejaVuSans-2e" d="M 684 794 
L 1344 794 
L 1344 0 
L 684 0 
L 684 794 
z
" transform="scale(0.015625)"/>
       </defs>
       <use xlink:href="#DejaVuSans-2212"/>
       <use xlink:href="#DejaVuSans-31" transform="translate(83.789062 0)"/>
       <use xlink:href="#DejaVuSans-2e" transform="translate(147.412109 0)"/>
       <use xlink:href="#DejaVuSans-30" transform="translate(179.199219 0)"/>
      </g>
     </g>
    </g>
    <g id="ytick_2">
     <g id="line2d_17">
      <path d="M 52.160938 212.227052 
L 610.160938 212.227052 
" clip-path="url(#p6a023c211c)" style="fill: none; stroke: #b0b0b0; stroke-opacity: 0.3; stroke-width: 0.8; stroke-linecap: square"/>
     </g>
     <g id="line2d_18">
      <g>
       <use xlink:href="#m7fa422a655" x="52.160938" y="212.227052" style="stroke: #000000; stroke-width: 0.8"/>
      </g>
     </g>
     <g id="text_10">
      <!-- −0.5 -->
      <g transform="translate(20.878125 216.026271) scale(0.1 -0.1)">
       <use xlink:href="#DejaVuSans-2212"/>
       <use xlink:href="#DejaVuSans-30" transform="translate(83.789062 0)"/>
       <use xlink:href="#DejaVuSans-2e" transform="translate(147.412109 0)"/>
       <use xlink:href="#DejaVuSans-35" transform="translate(179.199219 0)"/>
      </g>
     </g>
    </g>
    <g id="ytick_3">
     <g id="line2d_19">
      <path d="M 52.160938 159.466888 
L 610.160938 159.466888 
" clip-path="url(#p6a023c211c)" style="fill: none; stroke: #b0b0b0; stroke-opacity: 0.3; stroke-width: 0.8; stroke-linecap: square"/>
     </g>
     <g id="line2d_20">
      <g>
       <use xlink:href="#m7fa422a655" x="52.160938" y="159.466888" style="stroke: #000000; stroke-width: 0.8"/>
      </g>
     </g>
     <g id="text_11">
      <!-- 0.0 -->
      <g transform="translate(29.257813 163.266107) scale(0.1 -0.1)">
       <use xlink:href="#DejaVuSans-30"/>
       <use xlink:href="#DejaVuSans-2e" transform="translate(63.623047 0)"/>
       <use xlink:href="#DejaVuSans-30" transform="translate(95.410156 0)"/>
      </g>
     </g>
    </g>
    <g id="ytick_4">
     <g id="line2d_21">
      <path d="M 52.160938 106.706724 
L 610.160938 106.706724 
" clip-path="url(#p6a023c211c)" style="fill: none; stroke: #b0b0b0; stroke-opacity: 0.3; stroke-width: 0.8; stroke-linecap: square"/>
     </g>
     <g id="line2d_22">
      <g>
       <use xlink:href="#m7fa422a655" x="52.160938" y="106.706724" style="stroke: #000000; stroke-width: 0.8"/>
      </g>
     </g>
     <g id="text_12">
      <!-- 0.5 -->
      <g transform="translate(29.257813 110.505943) scale(0.1 -0.1)">
       <use xlink:href="#DejaVuSans-30"/>
       <use xlink:href="#DejaVuSans-2e" transform="translate(63.623047 0)"/>
       <use xlink:href="#DejaVuSans-35" transform="translate(95.410156 0)"/>
      </g>
     </g>
    </g>
    <g id="ytick_5">
     <g id="line2d_23">
      <path d="M 52.160938 53.946561 
L 610.160938 53.946561 
" clip-path="url(#p6a023c211c)" style="fill: none; stroke: #b0b0b0; stroke-opacity: 0.3; stroke-width: 0.8; stroke-linecap: square"/>
     </g>
     <g id="line2d_24">
      <g>
       <use xlink:href="#m7fa422a655" x="52.160938" y="53.946561" style="stroke: #000000; stroke-width: 0.8"/>
      </g>
     </g>
     <g id="text_13">
      <!-- 1.0 -->
      <g transform="translate(29.257813 57.745779) scale(0.1 -0.1)">
       <use xlink:href="#DejaVuSans-31"/>
       <use xlink:href="#DejaVuSans-2e" transform="translate(63.623047 0)"/>
       <use xlink:href="#DejaVuSans-30" transform="translate(95.410156 0)"/>
      </g>
     </g>
    </g>
    <g id="text_14">
     <!-- y -->
     <g transform="translate(14.798438 164.637344) rotate(-90) scale(0.1 -0.1)">
      <defs>
       <path id="DejaVuSans-79" d="M 2059 -325 
Q 1816 -950 1584 -1140 
Q 1353 -1331 966 -1331 
L 506 -1331 
L 506 -850 
L 844 -850 
Q 1081 -850 1212 -737 
Q 1344 -625 1503 -206 
L 1606 56 
L 191 3500 
L 800 3500 
L 1894 763 
L 2988 3500 
L 3597 3500 
L 2059 -325 
z
" transform="scale(0.015625)"/>
      </defs>
      <use xlink:href="#DejaVuSans-79"/>
     </g>
    </g>
   </g>
   <g id="line2d_25">
    <path d="M 77.524574 151.213182 
L 80.073683 161.642843 
L 82.622792 133.122368 
L 85.171901 136.214211 
L 87.721011 148.625219 
L 90.27012 137.747761 
L 92.819229 122.571895 
L 95.368338 124.903245 
L 97.917447 130.638234 
L 100.466557 133.294411 
L 103.015666 130.815565 
L 105.564775 124.101169 
L 108.113884 125.873419 
L 110.662993 141.048745 
L 113.212102 141.538615 
L 115.761212 128.65638 
L 118.310321 113.756227 
L 120.85943 107.180642 
L 123.408539 115.225312 
L 125.957648 120.690523 
L 128.506758 77.382682 
L 131.055867 92.620645 
L 133.604976 99.984745 
L 136.154085 101.641332 
L 138.703194 99.310849 
L 141.252303 90.344788 
L 143.801413 86.58757 
L 146.350522 85.252464 
L 148.899631 81.721097 
L 151.44874 83.519898 
L 153.997849 80.862119 
L 156.546959 42.607025 
L 159.096068 75.93804 
L 161.645177 74.878472 
L 164.194286 63.143865 
L 166.743395 78.51957 
L 169.292504 63.792642 
L 171.841614 93.357719 
L 174.390723 78.494409 
L 176.939832 58.851773 
L 179.488941 50.831883 
L 182.03805 51.458012 
L 184.58716 57.64989 
L 187.136269 65.913073 
L 189.685378 72.649577 
L 192.234487 73.17304 
L 194.783596 58.443597 
L 197.332705 35.677969 
L 199.881815 54.571762 
L 202.430924 74.561675 
L 204.980033 56.900671 
L 207.529142 55.065557 
L 210.078251 60.670091 
L 212.627361 51.476021 
L 215.17647 40.417329 
L 217.725579 43.654934 
L 220.274688 55.08527 
L 222.823797 63.03865 
L 225.372906 59.661934 
L 227.922016 52.368169 
L 230.471125 52.386951 
L 233.020234 66.176891 
L 235.569343 81.112672 
L 238.118452 79.797997 
L 240.667562 55.40162 
L 243.216671 43.352515 
L 245.76578 63.855767 
L 248.314889 60.878968 
L 250.863998 60.273811 
L 253.413107 84.412872 
L 255.962217 68.468186 
L 258.511326 54.770304 
L 261.060435 74.996319 
L 263.609544 62.456261 
L 266.158653 117.704911 
L 268.707763 80.679602 
L 271.256872 79.857157 
L 273.805981 98.462354 
L 276.35509 93.186563 
L 278.904199 122.720235 
L 281.453308 108.68074 
L 284.002418 83.894357 
L 289.100636 110.248902 
L 291.649745 114.337232 
L 294.198854 114.862941 
L 296.747964 116.083457 
L 299.297073 117.955906 
L 301.846182 119.362339 
L 304.395291 119.806812 
L 306.9444 121.281401 
L 309.493509 126.400188 
L 312.042619 136.470957 
L 314.591728 147.576302 
L 317.140837 154.492521 
L 319.689946 153.867985 
L 322.239055 149.839357 
L 324.788165 148.415372 
L 327.337274 153.864244 
L 332.435492 172.864497 
L 334.984601 178.402561 
L 337.53371 179.949371 
L 340.08282 178.203512 
L 342.631929 173.863573 
L 345.181038 168.270202 
L 347.730147 165.332284 
L 350.279256 169.600767 
L 352.828366 183.432917 
L 355.377475 200.411277 
L 357.926584 211.924713 
L 360.475693 210.027508 
L 363.024802 189.435611 
L 365.573911 169.800945 
L 368.123021 206.469388 
L 370.67213 202.094846 
L 373.221239 221.885846 
L 375.770348 222.249727 
L 378.319457 206.314184 
L 380.868567 201.491783 
L 383.417676 222.00056 
L 385.966785 229.280436 
L 388.515894 212.57119 
L 391.065003 249.936728 
L 393.614112 224.273434 
L 396.163222 202.301502 
L 398.712331 252.624606 
L 401.26144 246.954983 
L 403.810549 243.771272 
L 406.359658 253.638904 
L 408.908768 260.569537 
L 411.457877 261.204376 
L 414.006986 255.34201 
L 416.556095 250.594865 
L 419.105204 260.265203 
L 421.654313 242.295737 
L 424.203423 254.236451 
L 426.752532 267.998351 
L 429.301641 253.236408 
L 431.85075 264.992315 
L 434.399859 265.966512 
L 436.948969 239.759045 
L 439.498078 284.463306 
L 444.596296 248.423629 
L 447.145405 264.227475 
L 449.694514 281.638048 
L 452.243624 273.81237 
L 454.792733 265.493963 
L 457.341842 262.414275 
L 459.890951 261.795767 
L 462.44006 261.508505 
L 464.98917 262.012974 
L 467.538279 264.41726 
L 470.087388 269.829449 
L 472.636497 266.012615 
L 475.185606 233.619965 
L 477.734715 261.366956 
L 480.283825 267.791807 
L 482.832934 260.745878 
L 485.382043 266.313298 
L 487.931152 250.546841 
L 490.480261 239.58236 
L 493.029371 256.859628 
L 495.57848 254.245339 
L 498.127589 238.118706 
L 500.676698 230.096169 
L 503.225807 234.100452 
L 505.774916 244.344231 
L 508.324026 253.630419 
L 510.873135 256.30378 
L 513.422244 252.876487 
L 515.971353 245.402564 
L 521.069572 226.53093 
L 523.618681 219.241268 
L 526.16779 216.3334 
L 528.716899 220.922966 
L 531.266008 219.451291 
L 533.815117 182.533948 
L 536.364227 208.661872 
L 538.913336 228.631971 
L 541.462445 226.781659 
L 544.011554 214.045885 
L 546.560663 200.741487 
L 549.109773 195.005902 
L 551.658882 196.258939 
L 554.207991 201.741001 
L 556.7571 208.081379 
L 559.306209 209.464909 
L 561.855318 199.465317 
L 564.404428 178.471033 
L 566.953537 174.129323 
L 569.502646 195.559189 
L 572.051755 180.780133 
L 574.600864 163.558125 
L 577.149974 178.935351 
L 579.699083 171.280444 
L 582.248192 157.210099 
L 584.797301 178.652065 
L 584.797301 178.652065 
" clip-path="url(#p6a023c211c)" style="fill: none; stroke: #f44336; stroke-width: 2; stroke-linecap: square"/>
   </g>
   <g id="line2d_26">
    <path d="M 77.524574 151.604872 
L 80.073683 158.324219 
L 82.622792 142.556315 
L 85.171901 125.380204 
L 87.721011 149.88177 
L 90.27012 146.583542 
L 92.819229 114.600321 
L 95.368338 124.187561 
L 97.917447 140.526854 
L 100.466557 121.296045 
L 103.015666 134.035922 
L 105.564775 130.92239 
L 108.113884 116.606681 
L 110.662993 147.644547 
L 113.212102 141.629691 
L 115.761212 120.23907 
L 118.310321 124.42982 
L 120.85943 100.535187 
L 123.408539 117.045575 
L 125.957648 122.248167 
L 128.506758 73.976006 
L 131.055867 98.090272 
L 133.604976 90.854885 
L 136.154085 111.949089 
L 138.703194 95.558846 
L 141.252303 82.803161 
L 143.801413 100.468022 
L 146.350522 74.071633 
L 148.899631 87.372496 
L 151.44874 80.411199 
L 153.997849 83.330204 
L 156.546959 42.585906 
L 159.096068 70.302269 
L 161.645177 85.104008 
L 164.194286 53.707914 
L 166.743395 84.507901 
L 169.292504 60.429541 
L 171.841614 93.399742 
L 174.390723 82.1479 
L 176.939832 56.850725 
L 179.488941 47.218701 
L 182.03805 55.235533 
L 184.58716 58.920414 
L 187.136269 61.099831 
L 189.685378 79.082891 
L 192.234487 66.524784 
L 194.783596 61.976353 
L 197.332705 37.611892 
L 199.881815 48.66879 
L 202.430924 81.881631 
L 204.980033 48.820231 
L 207.529142 60.123834 
L 210.078251 64.927075 
L 212.627361 44.819985 
L 215.17647 38.576455 
L 217.725579 40.652597 
L 220.274688 69.277642 
L 222.823797 61.59336 
L 227.922016 42.974004 
L 230.471125 67.008847 
L 233.020234 63.472271 
L 235.569343 79.252593 
L 238.118452 81.980317 
L 240.667562 51.587347 
L 243.216671 44.477474 
L 245.76578 68.673175 
L 248.314889 53.330357 
L 250.863998 65.261227 
L 253.413107 83.055302 
L 255.962217 69.06957 
L 258.511326 52.475489 
L 261.060435 79.498899 
L 263.609544 56.3591 
L 266.158653 124.860419 
L 268.707763 72.732289 
L 271.256872 86.783546 
L 273.805981 95.385043 
L 276.35509 91.759549 
L 278.904199 127.29693 
L 281.453308 102.003644 
L 284.002418 95.624093 
L 286.551527 80.692136 
L 289.100636 115.150556 
L 291.649745 122.659613 
L 294.198854 120.769404 
L 296.747964 101.349863 
L 299.297073 113.690218 
L 301.846182 130.374035 
L 304.395291 116.997558 
L 306.9444 126.751885 
L 309.493509 116.154604 
L 312.042619 145.824319 
L 314.591728 143.14894 
L 317.140837 147.44093 
L 319.689946 167.689319 
L 322.239055 143.142731 
L 324.788165 147.014346 
L 329.886383 161.514175 
L 332.435492 183.535215 
L 334.984601 171.120531 
L 337.53371 173.211937 
L 340.08282 183.802523 
L 342.631929 176.961882 
L 345.181038 171.303816 
L 347.730147 151.116445 
L 350.279256 181.458362 
L 352.828366 183.370891 
L 355.377475 191.823677 
L 357.926584 224.182601 
L 360.475693 197.364475 
L 363.024802 199.086743 
L 365.573911 164.106566 
L 368.123021 209.150906 
L 370.67213 204.298134 
L 373.221239 212.535846 
L 375.770348 233.347354 
L 378.319457 199.568632 
L 380.868567 208.505476 
L 383.417676 210.575692 
L 385.966785 240.115662 
L 388.515894 206.077939 
L 391.065003 252.961012 
L 393.614112 223.903571 
L 396.163222 200.868172 
L 398.712331 253.487677 
L 401.26144 248.965322 
L 403.810549 240.536882 
L 406.359658 252.113057 
L 408.908768 270.633439 
L 411.457877 246.863339 
L 414.006986 266.533647 
L 416.556095 243.904337 
L 419.105204 267.542361 
L 421.654313 229.953293 
L 424.203423 268.284448 
L 426.752532 262.289913 
L 429.301641 245.523734 
L 431.85075 278.991503 
L 434.399859 256.918549 
L 436.948969 240.738019 
L 439.498078 287.677969 
L 442.047187 260.016916 
L 444.596296 259.427394 
L 447.145405 251.663879 
L 449.694514 284.010666 
L 452.243624 285.621308 
L 454.792733 256.643727 
L 457.341842 260.283241 
L 459.890951 260.992818 
L 462.44006 259.34258 
L 464.98917 275.353167 
L 467.538279 260.572313 
L 470.087388 259.163957 
L 472.636497 274.559793 
L 475.185606 233.068258 
L 477.734715 254.343998 
L 480.283825 279.841828 
L 482.832934 249.634627 
L 485.382043 274.394432 
L 487.931152 245.350457 
L 490.480261 238.213482 
L 493.029371 268.188133 
L 495.57848 238.501084 
L 498.127589 245.673064 
L 500.676698 237.55966 
L 503.225807 218.822609 
L 505.774916 250.913936 
L 508.324026 257.057588 
L 510.873135 257.218799 
L 513.422244 253.980905 
L 515.971353 240.135946 
L 518.520462 231.283967 
L 521.069572 229.995451 
L 523.618681 218.898749 
L 526.16779 229.329877 
L 528.716899 204.003443 
L 531.266008 228.606104 
L 533.815117 178.704438 
L 536.364227 209.136528 
L 538.913336 229.827583 
L 541.462445 230.374806 
L 544.011554 202.8985 
L 546.560663 211.131601 
L 549.109773 193.304935 
L 551.658882 194.082295 
L 554.207991 199.650044 
L 556.7571 208.786072 
L 559.306209 216.209929 
L 561.855318 196.117524 
L 564.404428 172.282664 
L 566.953537 179.210535 
L 569.502646 199.055212 
L 572.051755 173.315049 
L 574.600864 166.659375 
L 577.149974 183.436719 
L 579.699083 163.692647 
L 582.248192 161.876681 
L 584.797301 177.557878 
L 584.797301 177.557878 
" clip-path="url(#p6a023c211c)" style="fill: none; stroke-dasharray: 3.7,1.6; stroke-dashoffset: 0; stroke: #2196f3; stroke-opacity: 0.5"/>
   </g>
   <g id="line2d_27">
    <path d="M 77.524574 159.466888 
L 92.819229 139.596179 
L 103.015666 126.700924 
L 110.662993 117.361053 
L 118.310321 108.398679 
L 125.957648 99.894154 
L 131.055867 94.516674 
L 136.154085 89.398104 
L 141.252303 84.558849 
L 146.350522 80.0182 
L 151.44874 75.794256 
L 156.546959 71.903856 
L 161.645177 68.362508 
L 166.743395 65.184328 
L 171.841614 62.381987 
L 176.939832 59.966654 
L 182.03805 57.947959 
L 187.136269 56.333947 
L 192.234487 55.131054 
L 197.332705 54.344074 
L 202.430924 53.976145 
L 207.529142 54.028732 
L 212.627361 54.501627 
L 217.725579 55.392945 
L 222.823797 56.699131 
L 227.922016 58.41498 
L 233.020234 60.533652 
L 238.118452 63.0467 
L 243.216671 65.944108 
L 248.314889 69.214325 
L 253.413107 72.844315 
L 258.511326 76.819608 
L 263.609544 81.124357 
L 268.707763 85.741403 
L 273.805981 90.65234 
L 278.904199 95.837592 
L 284.002418 101.276489 
L 291.649745 109.862736 
L 299.297073 118.893706 
L 306.9444 128.288433 
L 317.140837 141.234623 
L 332.435492 161.132658 
L 347.730147 180.971089 
L 357.926584 193.812196 
L 365.573911 203.094883 
L 373.221239 211.986427 
L 378.319457 217.657288 
L 383.417676 223.096185 
L 388.515894 228.281437 
L 393.614112 233.192374 
L 398.712331 237.809419 
L 403.810549 242.114169 
L 408.908768 246.089462 
L 414.006986 249.719452 
L 419.105204 252.989669 
L 424.203423 255.887076 
L 429.301641 258.400125 
L 434.399859 260.518796 
L 439.498078 262.234645 
L 444.596296 263.540832 
L 449.694514 264.432149 
L 454.792733 264.905044 
L 459.890951 264.957632 
L 464.98917 264.589702 
L 470.087388 263.802722 
L 475.185606 262.599829 
L 480.283825 260.985818 
L 485.382043 258.967122 
L 490.480261 256.55179 
L 495.57848 253.749448 
L 500.676698 250.571269 
L 505.774916 247.029921 
L 510.873135 243.13952 
L 515.971353 238.915577 
L 521.069572 234.374927 
L 526.16779 229.535672 
L 531.266008 224.417102 
L 536.364227 219.039622 
L 541.462445 213.424667 
L 549.109773 204.60617 
L 556.7571 195.38298 
L 564.404428 185.837786 
L 574.600864 172.758198 
L 584.797301 159.466888 
L 584.797301 159.466888 
" clip-path="url(#p6a023c211c)" style="fill: none; stroke: #4caf50; stroke-opacity: 0.7; stroke-width: 1.5; stroke-linecap: square"/>
   </g>
   <g id="patch_3">
    <path d="M 52.160938 300.277969 
L 52.160938 23.077969 
" style="fill: none; stroke: #000000; stroke-width: 0.8; stroke-linejoin: miter; stroke-linecap: square"/>
   </g>
   <g id="patch_4">
    <path d="M 610.160938 300.277969 
L 610.160938 23.077969 
" style="fill: none; stroke: #000000; stroke-width: 0.8; stroke-linejoin: miter; stroke-linecap: square"/>
   </g>
   <g id="patch_5">
    <path d="M 52.160938 300.277969 
L 610.160938 300.277969 
" style="fill: none; stroke: #000000; stroke-width: 0.8; stroke-linejoin: miter; stroke-linecap: square"/>
   </g>
   <g id="patch_6">
    <path d="M 52.160938 23.077969 
L 610.160938 23.077969 
" style="fill: none; stroke: #000000; stroke-width: 0.8; stroke-linejoin: miter; stroke-linecap: square"/>
   </g>
   <g id="text_15">
    <!-- SciPy: Smoothing Spline (ATCND-selected parameter) -->
    <g transform="translate(157.682031 17.077969) scale(0.13 -0.13)">
     <defs>
      <path id="DejaVuSans-53" d="M 3425 4513 
L 3425 3897 
Q 3066 4069 2747 4153 
Q 2428 4238 2131 4238 
Q 1616 4238 1336 4038 
Q 1056 3838 1056 3469 
Q 1056 3159 1242 3001 
Q 1428 2844 1947 2747 
L 2328 2669 
Q 3034 2534 3370 2195 
Q 3706 1856 3706 1288 
Q 3706 609 3251 259 
Q 2797 -91 1919 -91 
Q 1588 -91 1214 -16 
Q 841 59 441 206 
L 441 856 
Q 825 641 1194 531 
Q 1563 422 1919 422 
Q 2459 422 2753 634 
Q 3047 847 3047 1241 
Q 3047 1584 2836 1778 
Q 2625 1972 2144 2069 
L 1759 2144 
Q 1053 2284 737 2584 
Q 422 2884 422 3419 
Q 422 4038 858 4394 
Q 1294 4750 2059 4750 
Q 2388 4750 2728 4690 
Q 3069 4631 3425 4513 
z
" transform="scale(0.015625)"/>
      <path id="DejaVuSans-63" d="M 3122 3366 
L 3122 2828 
Q 2878 2963 2633 3030 
Q 2388 3097 2138 3097 
Q 1578 3097 1268 2742 
Q 959 2388 959 1747 
Q 959 1106 1268 751 
Q 1578 397 2138 397 
Q 2388 397 2633 464 
Q 2878 531 3122 666 
L 3122 134 
Q 2881 22 2623 -34 
Q 2366 -91 2075 -91 
Q 1284 -91 818 406 
Q 353 903 353 1747 
Q 353 2603 823 3093 
Q 1294 3584 2113 3584 
Q 2378 3584 2631 3529 
Q 2884 3475 3122 3366 
z
" transform="scale(0.015625)"/>
      <path id="DejaVuSans-69" d="M 603 3500 
L 1178 3500 
L 1178 0 
L 603 0 
L 603 3500 
z
M 603 4863 
L 1178 4863 
L 1178 4134 
L 603 4134 
L 603 4863 
z
" transform="scale(0.015625)"/>
      <path id="DejaVuSans-50" d="M 1259 4147 
L 1259 2394 
L 2053 2394 
Q 2494 2394 2734 2622 
Q 2975 2850 2975 3272 
Q 2975 3691 2734 3919 
Q 2494 4147 2053 4147 
L 1259 4147 
z
M 628 4666 
L 2053 4666 
Q 2838 4666 3239 4311 
Q 3641 3956 3641 3272 
Q 3641 2581 3239 2228 
Q 2838 1875 2053 1875 
L 1259 1875 
L 1259 0 
L 628 0 
L 628 4666 
z
" transform="scale(0.015625)"/>
      <path id="DejaVuSans-3a" d="M 750 794 
L 1409 794 
L 1409 0 
L 750 0 
L 750 794 
z
M 750 3309 
L 1409 3309 
L 1409 2516 
L 750 2516 
L 750 3309 
z
" transform="scale(0.015625)"/>
      <path id="DejaVuSans-20" transform="scale(0.015625)"/>
      <path id="DejaVuSans-6d" d="M 3328 2828 
Q 3544 3216 3844 3400 
Q 4144 3584 4550 3584 
Q 5097 3584 5394 3201 
Q 5691 2819 5691 2113 
L 5691 0 
L 5113 0 
L 5113 2094 
Q 5113 2597 4934 2840 
Q 4756 3084 4391 3084 
Q 3944 3084 3684 2787 
Q 3425 2491 3425 1978 
L 3425 0 
L 2847 0 
L 2847 2094 
Q 2847 2600 2669 2842 
Q 2491 3084 2119 3084 
Q 1678 3084 1418 2786 
Q 1159 2488 1159 1978 
L 1159 0 
L 581 0 
L 581 3500 
L 1159 3500 
L 1159 2956 
Q 1356 3278 1631 3431 
Q 1906 3584 2284 3584 
Q 2666 3584 2933 3390 
Q 3200 3197 3328 2828 
z
" transform="scale(0.015625)"/>
      <path id="DejaVuSans-6f" d="M 1959 3097 
Q 1497 3097 1228 2736 
Q 959 2375 959 1747 
Q 959 1119 1226 758 
Q 1494 397 1959 397 
Q 2419 397 2687 759 
Q 2956 1122 2956 1747 
Q 2956 2369 2687 2733 
Q 2419 3097 1959 3097 
z
M 1959 3584 
Q 2709 3584 3137 3096 
Q 3566 2609 3566 1747 
Q 3566 888 3137 398 
Q 2709 -91 1959 -91 
Q 1206 -91 779 398 
Q 353 888 353 1747 
Q 353 2609 779 3096 
Q 1206 3584 1959 3584 
z
" transform="scale(0.015625)"/>
      <path id="DejaVuSans-74" d="M 1172 4494 
L 1172 3500 
L 2356 3500 
L 2356 3053 
L 1172 3053 
L 1172 1153 
Q 1172 725 1289 603 
Q 1406 481 1766 481 
L 2356 481 
L 2356 0 
L 1766 0 
Q 1100 0 847 248 
Q 594 497 594 1153 
L 594 3053 
L 172 3053 
L 172 3500 
L 594 3500 
L 594 4494 
L 1172 4494 
z
" transform="scale(0.015625)"/>
      <path id="DejaVuSans-68" d="M 3513 2113 
L 3513 0 
L 2938 0 
L 2938 2094 
Q 2938 2591 2744 2837 
Q 2550 3084 2163 3084 
Q 1697 3084 1428 2787 
Q 1159 2491 1159 1978 
L 1159 0 
L 581 0 
L 581 4863 
L 1159 4863 
L 1159 2956 
Q 1366 3272 1645 3428 
Q 1925 3584 2291 3584 
Q 2894 3584 3203 3211 
Q 3513 2838 3513 2113 
z
" transform="scale(0.015625)"/>
      <path id="DejaVuSans-6e" d="M 3513 2113 
L 3513 0 
L 2938 0 
L 2938 2094 
Q 2938 2591 2744 2837 
Q 2550 3084 2163 3084 
Q 1697 3084 1428 2787 
Q 1159 2491 1159 1978 
L 1159 0 
L 581 0 
L 581 3500 
L 1159 3500 
L 1159 2956 
Q 1366 3272 1645 3428 
Q 1925 3584 2291 3584 
Q 2894 3584 3203 3211 
Q 3513 2838 3513 2113 
z
" transform="scale(0.015625)"/>
      <path id="DejaVuSans-67" d="M 2906 1791 
Q 2906 2416 2648 2759 
Q 2391 3103 1925 3103 
Q 1463 3103 1205 2759 
Q 947 2416 947 1791 
Q 947 1169 1205 825 
Q 1463 481 1925 481 
Q 2391 481 2648 825 
Q 2906 1169 2906 1791 
z
M 3481 434 
Q 3481 -459 3084 -895 
Q 2688 -1331 1869 -1331 
Q 1566 -1331 1297 -1286 
Q 1028 -1241 775 -1147 
L 775 -588 
Q 1028 -725 1275 -790 
Q 1522 -856 1778 -856 
Q 2344 -856 2625 -561 
Q 2906 -266 2906 331 
L 2906 616 
Q 2728 306 2450 153 
Q 2172 0 1784 0 
Q 1141 0 747 490 
Q 353 981 353 1791 
Q 353 2603 747 3093 
Q 1141 3584 1784 3584 
Q 2172 3584 2450 3431 
Q 2728 3278 2906 2969 
L 2906 3500 
L 3481 3500 
L 3481 434 
z
" transform="scale(0.015625)"/>
      <path id="DejaVuSans-70" d="M 1159 525 
L 1159 -1331 
L 581 -1331 
L 581 3500 
L 1159 3500 
L 1159 2969 
Q 1341 3281 1617 3432 
Q 1894 3584 2278 3584 
Q 2916 3584 3314 3078 
Q 3713 2572 3713 1747 
Q 3713 922 3314 415 
Q 2916 -91 2278 -91 
Q 1894 -91 1617 61 
Q 1341 213 1159 525 
z
M 3116 1747 
Q 3116 2381 2855 2742 
Q 2594 3103 2138 3103 
Q 1681 3103 1420 2742 
Q 1159 2381 1159 1747 
Q 1159 1113 1420 752 
Q 1681 391 2138 391 
Q 2594 391 2855 752 
Q 3116 1113 3116 1747 
z
" transform="scale(0.015625)"/>
      <path id="DejaVuSans-6c" d="M 603 4863 
L 1178 4863 
L 1178 0 
L 603 0 
L 603 4863 
z
" transform="scale(0.015625)"/>
      <path id="DejaVuSans-65" d="M 3597 1894 
L 3597 1613 
L 953 1613 
Q 991 1019 1311 708 
Q 1631 397 2203 397 
Q 2534 397 2845 478 
Q 3156 559 3463 722 
L 3463 178 
Q 3153 47 2828 -22 
Q 2503 -91 2169 -91 
Q 1331 -91 842 396 
Q 353 884 353 1716 
Q 353 2575 817 3079 
Q 1281 3584 2069 3584 
Q 2775 3584 3186 3129 
Q 3597 2675 3597 1894 
z
M 3022 2063 
Q 3016 2534 2758 2815 
Q 2500 3097 2075 3097 
Q 1594 3097 1305 2825 
Q 1016 2553 972 2059 
L 3022 2063 
z
" transform="scale(0.015625)"/>
      <path id="DejaVuSans-28" d="M 1984 4856 
Q 1566 4138 1362 3434 
Q 1159 2731 1159 2009 
Q 1159 1288 1364 580 
Q 1569 -128 1984 -844 
L 1484 -844 
Q 1016 -109 783 600 
Q 550 1309 550 2009 
Q 550 2706 781 3412 
Q 1013 4119 1484 4856 
L 1984 4856 
z
" transform="scale(0.015625)"/>
      <path id="DejaVuSans-41" d="M 2188 4044 
L 1331 1722 
L 3047 1722 
L 2188 4044 
z
M 1831 4666 
L 2547 4666 
L 4325 0 
L 3669 0 
L 3244 1197 
L 1141 1197 
L 716 0 
L 50 0 
L 1831 4666 
z
" transform="scale(0.015625)"/>
      <path id="DejaVuSans-54" d="M -19 4666 
L 3928 4666 
L 3928 4134 
L 2272 4134 
L 2272 0 
L 1638 0 
L 1638 4134 
L -19 4134 
L -19 4666 
z
" transform="scale(0.015625)"/>
      <path id="DejaVuSans-43" d="M 4122 4306 
L 4122 3641 
Q 3803 3938 3442 4084 
Q 3081 4231 2675 4231 
Q 1875 4231 1450 3742 
Q 1025 3253 1025 2328 
Q 1025 1406 1450 917 
Q 1875 428 2675 428 
Q 3081 428 3442 575 
Q 3803 722 4122 1019 
L 4122 359 
Q 3791 134 3420 21 
Q 3050 -91 2638 -91 
Q 1578 -91 968 557 
Q 359 1206 359 2328 
Q 359 3453 968 4101 
Q 1578 4750 2638 4750 
Q 3056 4750 3426 4639 
Q 3797 4528 4122 4306 
z
" transform="scale(0.015625)"/>
      <path id="DejaVuSans-4e" d="M 628 4666 
L 1478 4666 
L 3547 763 
L 3547 4666 
L 4159 4666 
L 4159 0 
L 3309 0 
L 1241 3903 
L 1241 0 
L 628 0 
L 628 4666 
z
" transform="scale(0.015625)"/>
      <path id="DejaVuSans-44" d="M 1259 4147 
L 1259 519 
L 2022 519 
Q 2988 519 3436 956 
Q 3884 1394 3884 2338 
Q 3884 3275 3436 3711 
Q 2988 4147 2022 4147 
L 1259 4147 
z
M 628 4666 
L 1925 4666 
Q 3281 4666 3915 4102 
Q 4550 3538 4550 2338 
Q 4550 1131 3912 565 
Q 3275 0 1925 0 
L 628 0 
L 628 4666 
z
" transform="scale(0.015625)"/>
      <path id="DejaVuSans-2d" d="M 313 2009 
L 1997 2009 
L 1997 1497 
L 313 1497 
L 313 2009 
z
" transform="scale(0.015625)"/>
      <path id="DejaVuSans-73" d="M 2834 3397 
L 2834 2853 
Q 2591 2978 2328 3040 
Q 2066 3103 1784 3103 
Q 1356 3103 1142 2972 
Q 928 2841 928 2578 
Q 928 2378 1081 2264 
Q 1234 2150 1697 2047 
L 1894 2003 
Q 2506 1872 2764 1633 
Q 3022 1394 3022 966 
Q 3022 478 2636 193 
Q 2250 -91 1575 -91 
Q 1294 -91 989 -36 
Q 684 19 347 128 
L 347 722 
Q 666 556 975 473 
Q 1284 391 1588 391 
Q 1994 391 2212 530 
Q 2431 669 2431 922 
Q 2431 1156 2273 1281 
Q 2116 1406 1581 1522 
L 1381 1569 
Q 847 1681 609 1914 
Q 372 2147 372 2553 
Q 372 3047 722 3315 
Q 1072 3584 1716 3584 
Q 2034 3584 2315 3537 
Q 2597 3491 2834 3397 
z
" transform="scale(0.015625)"/>
      <path id="DejaVuSans-64" d="M 2906 2969 
L 2906 4863 
L 3481 4863 
L 3481 0 
L 2906 0 
L 2906 525 
Q 2725 213 2448 61 
Q 2172 -91 1784 -91 
Q 1150 -91 751 415 
Q 353 922 353 1747 
Q 353 2572 751 3078 
Q 1150 3584 1784 3584 
Q 2172 3584 2448 3432 
Q 2725 3281 2906 2969 
z
M 947 1747 
Q 947 1113 1208 752 
Q 1469 391 1925 391 
Q 2381 391 2643 752 
Q 2906 1113 2906 1747 
Q 2906 2381 2643 2742 
Q 2381 3103 1925 3103 
Q 1469 3103 1208 2742 
Q 947 2381 947 1747 
z
" transform="scale(0.015625)"/>
      <path id="DejaVuSans-61" d="M 2194 1759 
Q 1497 1759 1228 1600 
Q 959 1441 959 1056 
Q 959 750 1161 570 
Q 1363 391 1709 391 
Q 2188 391 2477 730 
Q 2766 1069 2766 1631 
L 2766 1759 
L 2194 1759 
z
M 3341 1997 
L 3341 0 
L 2766 0 
L 2766 531 
Q 2569 213 2275 61 
Q 1981 -91 1556 -91 
Q 1019 -91 701 211 
Q 384 513 384 1019 
Q 384 1609 779 1909 
Q 1175 2209 1959 2209 
L 2766 2209 
L 2766 2266 
Q 2766 2663 2505 2880 
Q 2244 3097 1772 3097 
Q 1472 3097 1187 3025 
Q 903 2953 641 2809 
L 641 3341 
Q 956 3463 1253 3523 
Q 1550 3584 1831 3584 
Q 2591 3584 2966 3190 
Q 3341 2797 3341 1997 
z
" transform="scale(0.015625)"/>
      <path id="DejaVuSans-72" d="M 2631 2963 
Q 2534 3019 2420 3045 
Q 2306 3072 2169 3072 
Q 1681 3072 1420 2755 
Q 1159 2438 1159 1844 
L 1159 0 
L 581 0 
L 581 3500 
L 1159 3500 
L 1159 2956 
Q 1341 3275 1631 3429 
Q 1922 3584 2338 3584 
Q 2397 3584 2469 3576 
Q 2541 3569 2628 3553 
L 2631 2963 
z
" transform="scale(0.015625)"/>
      <path id="DejaVuSans-29" d="M 513 4856 
L 1013 4856 
Q 1481 4119 1714 3412 
Q 1947 2706 1947 2009 
Q 1947 1309 1714 600 
Q 1481 -109 1013 -844 
L 513 -844 
Q 928 -128 1133 580 
Q 1338 1288 1338 2009 
Q 1338 2731 1133 3434 
Q 928 4138 513 4856 
z
" transform="scale(0.015625)"/>
     </defs>
     <use xlink:href="#DejaVuSans-53"/>
     <use xlink:href="#DejaVuSans-63" transform="translate(63.476562 0)"/>
     <use xlink:href="#DejaVuSans-69" transform="translate(118.457031 0)"/>
     <use xlink:href="#DejaVuSans-50" transform="translate(146.240234 0)"/>
     <use xlink:href="#DejaVuSans-79" transform="translate(206.542969 0)"/>
     <use xlink:href="#DejaVuSans-3a" transform="translate(258.472656 0)"/>
     <use xlink:href="#DejaVuSans-20" transform="translate(292.164062 0)"/>
     <use xlink:href="#DejaVuSans-53" transform="translate(323.951172 0)"/>
     <use xlink:href="#DejaVuSans-6d" transform="translate(387.427734 0)"/>
     <use xlink:href="#DejaVuSans-6f" transform="translate(484.839844 0)"/>
     <use xlink:href="#DejaVuSans-6f" transform="translate(546.021484 0)"/>
     <use xlink:href="#DejaVuSans-74" transform="translate(607.203125 0)"/>
     <use xlink:href="#DejaVuSans-68" transform="translate(646.412109 0)"/>
     <use xlink:href="#DejaVuSans-69" transform="translate(709.791016 0)"/>
     <use xlink:href="#DejaVuSans-6e" transform="translate(737.574219 0)"/>
     <use xlink:href="#DejaVuSans-67" transform="translate(800.953125 0)"/>
     <use xlink:href="#DejaVuSans-20" transform="translate(864.429688 0)"/>
     <use xlink:href="#DejaVuSans-53" transform="translate(896.216797 0)"/>
     <use xlink:href="#DejaVuSans-70" transform="translate(959.693359 0)"/>
     <use xlink:href="#DejaVuSans-6c" transform="translate(1023.169922 0)"/>
     <use xlink:href="#DejaVuSans-69" transform="translate(1050.953125 0)"/>
     <use xlink:href="#DejaVuSans-6e" transform="translate(1078.736328 0)"/>
     <use xlink:href="#DejaVuSans-65" transform="translate(1142.115234 0)"/>
     <use xlink:href="#DejaVuSans-20" transform="translate(1203.638672 0)"/>
     <use xlink:href="#DejaVuSans-28" transform="translate(1235.425781 0)"/>
     <use xlink:href="#DejaVuSans-41" transform="translate(1274.439453 0)"/>
     <use xlink:href="#DejaVuSans-54" transform="translate(1335.097656 0)"/>
     <use xlink:href="#DejaVuSans-43" transform="translate(1390.306641 0)"/>
     <use xlink:href="#DejaVuSans-4e" transform="translate(1460.130859 0)"/>
     <use xlink:href="#DejaVuSans-44" transform="translate(1534.935547 0)"/>
     <use xlink:href="#DejaVuSans-2d" transform="translate(1611.9375 0)"/>
     <use xlink:href="#DejaVuSans-73" transform="translate(1648.021484 0)"/>
     <use xlink:href="#DejaVuSans-65" transform="translate(1700.121094 0)"/>
     <use xlink:href="#DejaVuSans-6c" transform="translate(1761.644531 0)"/>
     <use xlink:href="#DejaVuSans-65" transform="translate(1789.427734 0)"/>
     <use xlink:href="#DejaVuSans-63" transform="translate(1850.951172 0)"/>
     <use xlink:href="#DejaVuSans-74" transform="translate(1905.931641 0)"/>
     <use xlink:href="#DejaVuSans-65" transform="translate(1945.140625 0)"/>
     <use xlink:href="#DejaVuSans-64" transform="translate(2006.664062 0)"/>
     <use xlink:href="#DejaVuSans-20" transform="translate(2070.140625 0)"/>
     <use xlink:href="#DejaVuSans-70" transform="translate(2101.927734 0)"/>
     <use xlink:href="#DejaVuSans-61" transform="translate(2165.404297 0)"/>
     <use xlink:href="#DejaVuSans-72" transform="translate(2226.683594 0)"/>
     <use xlink:href="#DejaVuSans-61" transform="translate(2267.796875 0)"/>
     <use xlink:href="#DejaVuSans-6d" transform="translate(2329.076172 0)"/>
     <use xlink:href="#DejaVuSans-65" transform="translate(2426.488281 0)"/>
     <use xlink:href="#DejaVuSans-74" transform="translate(2488.011719 0)"/>
     <use xlink:href="#DejaVuSans-65" transform="translate(2527.220703 0)"/>
     <use xlink:href="#DejaVuSans-72" transform="translate(2588.744141 0)"/>
     <use xlink:href="#DejaVuSans-29" transform="translate(2629.857422 0)"/>
    </g>
   </g>
   <g id="legend_1">
    <g id="patch_7">
     <path d="M 507.707812 89.790469 
L 603.160938 89.790469 
Q 605.160938 89.790469 605.160938 87.790469 
L 605.160938 30.077969 
Q 605.160938 28.077969 603.160938 28.077969 
L 507.707812 28.077969 
Q 505.707812 28.077969 505.707812 30.077969 
L 505.707812 87.790469 
Q 505.707812 89.790469 507.707812 89.790469 
z
" style="fill: #ffffff; opacity: 0.8; stroke: #cccccc; stroke-linejoin: miter"/>
    </g>
    <g id="PathCollection_2">
     <g>
      <use xlink:href="#m1ac1323839" x="519.707813" y="37.051406" style="fill: #9e9e9e; fill-opacity: 0.3; stroke: #9e9e9e; stroke-opacity: 0.3"/>
     </g>
    </g>
    <g id="text_16">
     <!-- Noisy data -->
     <g transform="translate(537.707813 39.676406) scale(0.1 -0.1)">
      <use xlink:href="#DejaVuSans-4e"/>
      <use xlink:href="#DejaVuSans-6f" transform="translate(74.804688 0)"/>
      <use xlink:href="#DejaVuSans-69" transform="translate(135.986328 0)"/>
      <use xlink:href="#DejaVuSans-73" transform="translate(163.769531 0)"/>
      <use xlink:href="#DejaVuSans-79" transform="translate(215.869141 0)"/>
      <use xlink:href="#DejaVuSans-20" transform="translate(275.048828 0)"/>
      <use xlink:href="#DejaVuSans-64" transform="translate(306.835938 0)"/>
      <use xlink:href="#DejaVuSans-61" transform="translate(370.3125 0)"/>
      <use xlink:href="#DejaVuSans-74" transform="translate(431.591797 0)"/>
      <use xlink:href="#DejaVuSans-61" transform="translate(470.800781 0)"/>
     </g>
    </g>
    <g id="line2d_28">
     <path d="M 509.707812 50.854531 
L 519.707813 50.854531 
L 529.707813 50.854531 
" style="fill: none; stroke: #f44336; stroke-width: 2; stroke-linecap: square"/>
    </g>
    <g id="text_17">
     <!-- s=1 -->
     <g transform="translate(537.707813 54.354531) scale(0.1 -0.1)">
      <defs>
       <path id="DejaVuSans-3d" d="M 678 2906 
L 4684 2906 
L 4684 2381 
L 678 2381 
L 678 2906 
z
M 678 1631 
L 4684 1631 
L 4684 1100 
L 678 1100 
L 678 1631 
z
" transform="scale(0.015625)"/>
      </defs>
      <use xlink:href="#DejaVuSans-73"/>
      <use xlink:href="#DejaVuSans-3d" transform="translate(52.099609 0)"/>
      <use xlink:href="#DejaVuSans-31" transform="translate(135.888672 0)"/>
     </g>
    </g>
    <g id="line2d_29">
     <path d="M 509.707812 65.532656 
L 519.707813 65.532656 
L 529.707813 65.532656 
" style="fill: none; stroke-dasharray: 3.7,1.6; stroke-dashoffset: 0; stroke: #2196f3; stroke-opacity: 0.5"/>
    </g>
    <g id="text_18">
     <!-- s=0 (overfit) -->
     <g transform="translate(537.707813 69.032656) scale(0.1 -0.1)">
      <defs>
       <path id="DejaVuSans-76" d="M 191 3500 
L 800 3500 
L 1894 563 
L 2988 3500 
L 3597 3500 
L 2284 0 
L 1503 0 
L 191 3500 
z
" transform="scale(0.015625)"/>
       <path id="DejaVuSans-66" d="M 2375 4863 
L 2375 4384 
L 1825 4384 
Q 1516 4384 1395 4259 
Q 1275 4134 1275 3809 
L 1275 3500 
L 2222 3500 
L 2222 3053 
L 1275 3053 
L 1275 0 
L 697 0 
L 697 3053 
L 147 3053 
L 147 3500 
L 697 3500 
L 697 3744 
Q 697 4328 969 4595 
Q 1241 4863 1831 4863 
L 2375 4863 
z
" transform="scale(0.015625)"/>
      </defs>
      <use xlink:href="#DejaVuSans-73"/>
      <use xlink:href="#DejaVuSans-3d" transform="translate(52.099609 0)"/>
      <use xlink:href="#DejaVuSans-30" transform="translate(135.888672 0)"/>
      <use xlink:href="#DejaVuSans-20" transform="translate(199.511719 0)"/>
      <use xlink:href="#DejaVuSans-28" transform="translate(231.298828 0)"/>
      <use xlink:href="#DejaVuSans-6f" transform="translate(270.3125 0)"/>
      <use xlink:href="#DejaVuSans-76" transform="translate(331.494141 0)"/>
      <use xlink:href="#DejaVuSans-65" transform="translate(390.673828 0)"/>
      <use xlink:href="#DejaVuSans-72" transform="translate(452.197266 0)"/>
      <use xlink:href="#DejaVuSans-66" transform="translate(493.310547 0)"/>
      <use xlink:href="#DejaVuSans-69" transform="translate(528.515625 0)"/>
      <use xlink:href="#DejaVuSans-74" transform="translate(556.298828 0)"/>
      <use xlink:href="#DejaVuSans-29" transform="translate(595.507812 0)"/>
     </g>
    </g>
    <g id="line2d_30">
     <path d="M 509.707812 80.210781 
L 519.707813 80.210781 
L 529.707813 80.210781 
" style="fill: none; stroke: #4caf50; stroke-opacity: 0.7; stroke-width: 1.5; stroke-linecap: square"/>
    </g>
    <g id="text_19">
     <!-- True sin(x) -->
     <g transform="translate(537.707813 83.710781) scale(0.1 -0.1)">
      <defs>
       <path id="DejaVuSans-75" d="M 544 1381 
L 544 3500 
L 1119 3500 
L 1119 1403 
Q 1119 906 1312 657 
Q 1506 409 1894 409 
Q 2359 409 2629 706 
Q 2900 1003 2900 1516 
L 2900 3500 
L 3475 3500 
L 3475 0 
L 2900 0 
L 2900 538 
Q 2691 219 2414 64 
Q 2138 -91 1772 -91 
Q 1169 -91 856 284 
Q 544 659 544 1381 
z
M 1991 3584 
L 1991 3584 
z
" transform="scale(0.015625)"/>
      </defs>
      <use xlink:href="#DejaVuSans-54"/>
      <use xlink:href="#DejaVuSans-72" transform="translate(46.333984 0)"/>
      <use xlink:href="#DejaVuSans-75" transform="translate(87.447266 0)"/>
      <use xlink:href="#DejaVuSans-65" transform="translate(150.826172 0)"/>
      <use xlink:href="#DejaVuSans-20" transform="translate(212.349609 0)"/>
      <use xlink:href="#DejaVuSans-73" transform="translate(244.136719 0)"/>
      <use xlink:href="#DejaVuSans-69" transform="translate(296.236328 0)"/>
      <use xlink:href="#DejaVuSans-6e" transform="translate(324.019531 0)"/>
      <use xlink:href="#DejaVuSans-28" transform="translate(387.398438 0)"/>
      <use xlink:href="#DejaVuSans-78" transform="translate(426.412109 0)"/>
      <use xlink:href="#DejaVuSans-29" transform="translate(485.591797 0)"/>
     </g>
    </g>
   </g>
  </g>
 </g>
 <defs>
  <clipPath id="p6a023c211c">
   <rect x="52.160938" y="23.077969" width="558" height="277.2"/>
  </clipPath>
 </defs>
</svg>
