<?xml version="1.0" encoding="utf-8" standalone="no"?>
<!DOCTYPE svg PUBLIC "-//W3C//DTD SVG 1.1//EN"
  "http://www.w3.org/Graphics/SVG/1.1/DTD/svg11.dtd">
<svg xmlns:xlink="http://www.w3.org/1999/xlink" width="506.013125pt" height="339.769844pt" viewBox="0 0 506.013125 339.769844" xmlns="http://www.w3.org/2000/svg" version="1.1">
 <metadata>
  <rdf:RDF xmlns:dc="http://purl.org/dc/elements/1.1/" xmlns:cc="http://creativecommons.org/ns#" xmlns:rdf="http://www.w3.org/1999/02/22-rdf-syntax-ns#">
   <cc:Work>
    <dc:type rdf:resource="http://purl.org/dc/dcmitype/StillImage"/>
    <dc:date>2026-06-03T22:41:07.920733</dc:date>
    <dc:format>image/svg+xml</dc:format>
    <dc:creator>
     <cc:Agent>
      <dc:title>Matplotlib v3.10.8, https://matplotlib.org/</dc:title>
     </cc:Agent>
    </dc:creator>
   </cc:Work>
  </rdf:RDF>
 </metadata>
 <defs>
  <style type="text/css">*{stroke-linejoin: round; stroke-linecap: butt}</style>
 </defs>
 <g id="figure_1">
  <g id="patch_1">
   <path d="M 0 339.769844 
L 506.013125 339.769844 
L 506.013125 0 
L 0 0 
z
" style="fill: #ffffff"/>
  </g>
  <g id="axes_1">
   <g id="patch_2">
    <path d="M 52.413125 300.277969 
L 498.813125 300.277969 
L 498.813125 23.077969 
L 52.413125 23.077969 
z
" style="fill: #ffffff"/>
   </g>
   <g id="matplotlib.axis_1">
    <g id="xtick_1">
     <g id="line2d_1">
      <path d="M 72.704034 300.277969 
L 72.704034 23.077969 
" clip-path="url(#p93b458cf55)" style="fill: none; stroke: #b0b0b0; stroke-opacity: 0.3; stroke-width: 0.8; stroke-linecap: square"/>
     </g>
     <g id="line2d_2">
      <defs>
       <path id="me69f0c0b07" d="M 0 0 
L 0 3.5 
" style="stroke: #000000; stroke-width: 0.8"/>
      </defs>
      <g>
       <use xlink:href="#me69f0c0b07" x="72.704034" y="300.277969" style="stroke: #000000; stroke-width: 0.8"/>
      </g>
     </g>
     <g id="text_1">
      <!-- 2 -->
      <g transform="translate(69.522784 314.876406) scale(0.1 -0.1)">
       <defs>
        <path id="DejaVuSans-32" d="M 1228 531 
L 3431 531 
L 3431 0 
L 469 0 
L 469 531 
Q 828 903 1448 1529 
Q 2069 2156 2228 2338 
Q 2531 2678 2651 2914 
Q 2772 3150 2772 3378 
Q 2772 3750 2511 3984 
Q 2250 4219 1831 4219 
Q 1534 4219 1204 4116 
Q 875 4013 500 3803 
L 500 4441 
Q 881 4594 1212 4672 
Q 1544 4750 1819 4750 
Q 2544 4750 2975 4387 
Q 3406 4025 3406 3419 
Q 3406 3131 3298 2873 
Q 3191 2616 2906 2266 
Q 2828 2175 2409 1742 
Q 1991 1309 1228 531 
z
" transform="scale(0.015625)"/>
       </defs>
       <use xlink:href="#DejaVuSans-32"/>
      </g>
     </g>
    </g>
    <g id="xtick_2">
     <g id="line2d_3">
      <path d="M 135.137601 300.277969 
L 135.137601 23.077969 
" clip-path="url(#p93b458cf55)" style="fill: none; stroke: #b0b0b0; stroke-opacity: 0.3; stroke-width: 0.8; stroke-linecap: square"/>
     </g>
     <g id="line2d_4">
      <g>
       <use xlink:href="#me69f0c0b07" x="135.137601" y="300.277969" style="stroke: #000000; stroke-width: 0.8"/>
      </g>
     </g>
     <g id="text_2">
      <!-- 4 -->
      <g transform="translate(131.956351 314.876406) scale(0.1 -0.1)">
       <defs>
        <path id="DejaVuSans-34" d="M 2419 4116 
L 825 1625 
L 2419 1625 
L 2419 4116 
z
M 2253 4666 
L 3047 4666 
L 3047 1625 
L 3713 1625 
L 3713 1100 
L 3047 1100 
L 3047 0 
L 2419 0 
L 2419 1100 
L 313 1100 
L 313 1709 
L 2253 4666 
z
" transform="scale(0.015625)"/>
       </defs>
       <use xlink:href="#DejaVuSans-34"/>
      </g>
     </g>
    </g>
    <g id="xtick_3">
     <g id="line2d_5">
      <path d="M 197.571167 300.277969 
L 197.571167 23.077969 
" clip-path="url(#p93b458cf55)" style="fill: none; stroke: #b0b0b0; stroke-opacity: 0.3; stroke-width: 0.8; stroke-linecap: square"/>
     </g>
     <g id="line2d_6">
      <g>
       <use xlink:href="#me69f0c0b07" x="197.571167" y="300.277969" style="stroke: #000000; stroke-width: 0.8"/>
      </g>
     </g>
     <g id="text_3">
      <!-- 6 -->
      <g transform="translate(194.389917 314.876406) scale(0.1 -0.1)">
       <defs>
        <path id="DejaVuSans-36" d="M 2113 2584 
Q 1688 2584 1439 2293 
Q 1191 2003 1191 1497 
Q 1191 994 1439 701 
Q 1688 409 2113 409 
Q 2538 409 2786 701 
Q 3034 994 3034 1497 
Q 3034 2003 2786 2293 
Q 2538 2584 2113 2584 
z
M 3366 4563 
L 3366 3988 
Q 3128 4100 2886 4159 
Q 2644 4219 2406 4219 
Q 1781 4219 1451 3797 
Q 1122 3375 1075 2522 
Q 1259 2794 1537 2939 
Q 1816 3084 2150 3084 
Q 2853 3084 3261 2657 
Q 3669 2231 3669 1497 
Q 3669 778 3244 343 
Q 2819 -91 2113 -91 
Q 1303 -91 875 529 
Q 447 1150 447 2328 
Q 447 3434 972 4092 
Q 1497 4750 2381 4750 
Q 2619 4750 2861 4703 
Q 3103 4656 3366 4563 
z
" transform="scale(0.015625)"/>
       </defs>
       <use xlink:href="#DejaVuSans-36"/>
      </g>
     </g>
    </g>
    <g id="xtick_4">
     <g id="line2d_7">
      <path d="M 260.004733 300.277969 
L 260.004733 23.077969 
" clip-path="url(#p93b458cf55)" style="fill: none; stroke: #b0b0b0; stroke-opacity: 0.3; stroke-width: 0.8; stroke-linecap: square"/>
     </g>
     <g id="line2d_8">
      <g>
       <use xlink:href="#me69f0c0b07" x="260.004733" y="300.277969" style="stroke: #000000; stroke-width: 0.8"/>
      </g>
     </g>
     <g id="text_4">
      <!-- 8 -->
      <g transform="translate(256.823483 314.876406) scale(0.1 -0.1)">
       <defs>
        <path id="DejaVuSans-38" d="M 2034 2216 
Q 1584 2216 1326 1975 
Q 1069 1734 1069 1313 
Q 1069 891 1326 650 
Q 1584 409 2034 409 
Q 2484 409 2743 651 
Q 3003 894 3003 1313 
Q 3003 1734 2745 1975 
Q 2488 2216 2034 2216 
z
M 1403 2484 
Q 997 2584 770 2862 
Q 544 3141 544 3541 
Q 544 4100 942 4425 
Q 1341 4750 2034 4750 
Q 2731 4750 3128 4425 
Q 3525 4100 3525 3541 
Q 3525 3141 3298 2862 
Q 3072 2584 2669 2484 
Q 3125 2378 3379 2068 
Q 3634 1759 3634 1313 
Q 3634 634 3220 271 
Q 2806 -91 2034 -91 
Q 1263 -91 848 271 
Q 434 634 434 1313 
Q 434 1759 690 2068 
Q 947 2378 1403 2484 
z
M 1172 3481 
Q 1172 3119 1398 2916 
Q 1625 2713 2034 2713 
Q 2441 2713 2670 2916 
Q 2900 3119 2900 3481 
Q 2900 3844 2670 4047 
Q 2441 4250 2034 4250 
Q 1625 4250 1398 4047 
Q 1172 3844 1172 3481 
z
" transform="scale(0.015625)"/>
       </defs>
       <use xlink:href="#DejaVuSans-38"/>
      </g>
     </g>
    </g>
    <g id="xtick_5">
     <g id="line2d_9">
      <path d="M 322.4383 300.277969 
L 322.4383 23.077969 
" clip-path="url(#p93b458cf55)" style="fill: none; stroke: #b0b0b0; stroke-opacity: 0.3; stroke-width: 0.8; stroke-linecap: square"/>
     </g>
     <g id="line2d_10">
      <g>
       <use xlink:href="#me69f0c0b07" x="322.4383" y="300.277969" style="stroke: #000000; stroke-width: 0.8"/>
      </g>
     </g>
     <g id="text_5">
      <!-- 10 -->
      <g transform="translate(316.0758 314.876406) scale(0.1 -0.1)">
       <defs>
        <path id="DejaVuSans-31" d="M 794 531 
L 1825 531 
L 1825 4091 
L 703 3866 
L 703 4441 
L 1819 4666 
L 2450 4666 
L 2450 531 
L 3481 531 
L 3481 0 
L 794 0 
L 794 531 
z
" transform="scale(0.015625)"/>
        <path id="DejaVuSans-30" d="M 2034 4250 
Q 1547 4250 1301 3770 
Q 1056 3291 1056 2328 
Q 1056 1369 1301 889 
Q 1547 409 2034 409 
Q 2525 409 2770 889 
Q 3016 1369 3016 2328 
Q 3016 3291 2770 3770 
Q 2525 4250 2034 4250 
z
M 2034 4750 
Q 2819 4750 3233 4129 
Q 3647 3509 3647 2328 
Q 3647 1150 3233 529 
Q 2819 -91 2034 -91 
Q 1250 -91 836 529 
Q 422 1150 422 2328 
Q 422 3509 836 4129 
Q 1250 4750 2034 4750 
z
" transform="scale(0.015625)"/>
       </defs>
       <use xlink:href="#DejaVuSans-31"/>
       <use xlink:href="#DejaVuSans-30" transform="translate(63.623047 0)"/>
      </g>
     </g>
    </g>
    <g id="xtick_6">
     <g id="line2d_11">
      <path d="M 384.871866 300.277969 
L 384.871866 23.077969 
" clip-path="url(#p93b458cf55)" style="fill: none; stroke: #b0b0b0; stroke-opacity: 0.3; stroke-width: 0.8; stroke-linecap: square"/>
     </g>
     <g id="line2d_12">
      <g>
       <use xlink:href="#me69f0c0b07" x="384.871866" y="300.277969" style="stroke: #000000; stroke-width: 0.8"/>
      </g>
     </g>
     <g id="text_6">
      <!-- 12 -->
      <g transform="translate(378.509366 314.876406) scale(0.1 -0.1)">
       <use xlink:href="#DejaVuSans-31"/>
       <use xlink:href="#DejaVuSans-32" transform="translate(63.623047 0)"/>
      </g>
     </g>
    </g>
    <g id="xtick_7">
     <g id="line2d_13">
      <path d="M 447.305433 300.277969 
L 447.305433 23.077969 
" clip-path="url(#p93b458cf55)" style="fill: none; stroke: #b0b0b0; stroke-opacity: 0.3; stroke-width: 0.8; stroke-linecap: square"/>
     </g>
     <g id="line2d_14">
      <g>
       <use xlink:href="#me69f0c0b07" x="447.305433" y="300.277969" style="stroke: #000000; stroke-width: 0.8"/>
      </g>
     </g>
     <g id="text_7">
      <!-- 14 -->
      <g transform="translate(440.942933 314.876406) scale(0.1 -0.1)">
       <use xlink:href="#DejaVuSans-31"/>
       <use xlink:href="#DejaVuSans-34" transform="translate(63.623047 0)"/>
      </g>
     </g>
    </g>
    <g id="text_8">
     <!-- K (topics) -->
     <g transform="translate(247.165625 330.074219) scale(0.12 -0.12)">
      <defs>
       <path id="DejaVuSans-4b" d="M 628 4666 
L 1259 4666 
L 1259 2694 
L 3353 4666 
L 4166 4666 
L 1850 2491 
L 4331 0 
L 3500 0 
L 1259 2247 
L 1259 0 
L 628 0 
L 628 4666 
z
" transform="scale(0.015625)"/>
       <path id="DejaVuSans-20" transform="scale(0.015625)"/>
       <path id="DejaVuSans-28" d="M 1984 4856 
Q 1566 4138 1362 3434 
Q 1159 2731 1159 2009 
Q 1159 1288 1364 580 
Q 1569 -128 1984 -844 
L 1484 -844 
Q 1016 -109 783 600 
Q 550 1309 550 2009 
Q 550 2706 781 3412 
Q 1013 4119 1484 4856 
L 1984 4856 
z
" transform="scale(0.015625)"/>
       <path id="DejaVuSans-74" d="M 1172 4494 
L 1172 3500 
L 2356 3500 
L 2356 3053 
L 1172 3053 
L 1172 1153 
Q 1172 725 1289 603 
Q 1406 481 1766 481 
L 2356 481 
L 2356 0 
L 1766 0 
Q 1100 0 847 248 
Q 594 497 594 1153 
L 594 3053 
L 172 3053 
L 172 3500 
L 594 3500 
L 594 4494 
L 1172 4494 
z
" transform="scale(0.015625)"/>
       <path id="DejaVuSans-6f" d="M 1959 3097 
Q 1497 3097 1228 2736 
Q 959 2375 959 1747 
Q 959 1119 1226 758 
Q 1494 397 1959 397 
Q 2419 397 2687 759 
Q 2956 1122 2956 1747 
Q 2956 2369 2687 2733 
Q 2419 3097 1959 3097 
z
M 1959 3584 
Q 2709 3584 3137 3096 
Q 3566 2609 3566 1747 
Q 3566 888 3137 398 
Q 2709 -91 1959 -91 
Q 1206 -91 779 398 
Q 353 888 353 1747 
Q 353 2609 779 3096 
Q 1206 3584 1959 3584 
z
" transform="scale(0.015625)"/>
       <path id="DejaVuSans-70" d="M 1159 525 
L 1159 -1331 
L 581 -1331 
L 581 3500 
L 1159 3500 
L 1159 2969 
Q 1341 3281 1617 3432 
Q 1894 3584 2278 3584 
Q 2916 3584 3314 3078 
Q 3713 2572 3713 1747 
Q 3713 922 3314 415 
Q 2916 -91 2278 -91 
Q 1894 -91 1617 61 
Q 1341 213 1159 525 
z
M 3116 1747 
Q 3116 2381 2855 2742 
Q 2594 3103 2138 3103 
Q 1681 3103 1420 2742 
Q 1159 2381 1159 1747 
Q 1159 1113 1420 752 
Q 1681 391 2138 391 
Q 2594 391 2855 752 
Q 3116 1113 3116 1747 
z
" transform="scale(0.015625)"/>
       <path id="DejaVuSans-69" d="M 603 3500 
L 1178 3500 
L 1178 0 
L 603 0 
L 603 3500 
z
M 603 4863 
L 1178 4863 
L 1178 4134 
L 603 4134 
L 603 4863 
z
" transform="scale(0.015625)"/>
       <path id="DejaVuSans-63" d="M 3122 3366 
L 3122 2828 
Q 2878 2963 2633 3030 
Q 2388 3097 2138 3097 
Q 1578 3097 1268 2742 
Q 959 2388 959 1747 
Q 959 1106 1268 751 
Q 1578 397 2138 397 
Q 2388 397 2633 464 
Q 2878 531 3122 666 
L 3122 134 
Q 2881 22 2623 -34 
Q 2366 -91 2075 -91 
Q 1284 -91 818 406 
Q 353 903 353 1747 
Q 353 2603 823 3093 
Q 1294 3584 2113 3584 
Q 2378 3584 2631 3529 
Q 2884 3475 3122 3366 
z
" transform="scale(0.015625)"/>
       <path id="DejaVuSans-73" d="M 2834 3397 
L 2834 2853 
Q 2591 2978 2328 3040 
Q 2066 3103 1784 3103 
Q 1356 3103 1142 2972 
Q 928 2841 928 2578 
Q 928 2378 1081 2264 
Q 1234 2150 1697 2047 
L 1894 2003 
Q 2506 1872 2764 1633 
Q 3022 1394 3022 966 
Q 3022 478 2636 193 
Q 2250 -91 1575 -91 
Q 1294 -91 989 -36 
Q 684 19 347 128 
L 347 722 
Q 666 556 975 473 
Q 1284 391 1588 391 
Q 1994 391 2212 530 
Q 2431 669 2431 922 
Q 2431 1156 2273 1281 
Q 2116 1406 1581 1522 
L 1381 1569 
Q 847 1681 609 1914 
Q 372 2147 372 2553 
Q 372 3047 722 3315 
Q 1072 3584 1716 3584 
Q 2034 3584 2315 3537 
Q 2597 3491 2834 3397 
z
" transform="scale(0.015625)"/>
       <path id="DejaVuSans-29" d="M 513 4856 
L 1013 4856 
Q 1481 4119 1714 3412 
Q 1947 2706 1947 2009 
Q 1947 1309 1714 600 
Q 1481 -109 1013 -844 
L 513 -844 
Q 928 -128 1133 580 
Q 1338 1288 1338 2009 
Q 1338 2731 1133 3434 
Q 928 4138 513 4856 
z
" transform="scale(0.015625)"/>
      </defs>
      <use xlink:href="#DejaVuSans-4b"/>
      <use xlink:href="#DejaVuSans-20" transform="translate(65.576172 0)"/>
      <use xlink:href="#DejaVuSans-28" transform="translate(97.363281 0)"/>
      <use xlink:href="#DejaVuSans-74" transform="translate(136.376953 0)"/>
      <use xlink:href="#DejaVuSans-6f" transform="translate(175.585938 0)"/>
      <use xlink:href="#DejaVuSans-70" transform="translate(236.767578 0)"/>
      <use xlink:href="#DejaVuSans-69" transform="translate(300.244141 0)"/>
      <use xlink:href="#DejaVuSans-63" transform="translate(328.027344 0)"/>
      <use xlink:href="#DejaVuSans-73" transform="translate(383.007812 0)"/>
      <use xlink:href="#DejaVuSans-29" transform="translate(435.107422 0)"/>
     </g>
    </g>
   </g>
   <g id="matplotlib.axis_2">
    <g id="ytick_1">
     <g id="line2d_15">
      <path d="M 52.413125 272.118429 
L 498.813125 272.118429 
" clip-path="url(#p93b458cf55)" style="fill: none; stroke: #b0b0b0; stroke-opacity: 0.3; stroke-width: 0.8; stroke-linecap: square"/>
     </g>
     <g id="line2d_16">
      <defs>
       <path id="mb2c175a681" d="M 0 0 
L -3.5 0 
" style="stroke: #000000; stroke-width: 0.8"/>
      </defs>
      <g>
       <use xlink:href="#mb2c175a681" x="52.413125" y="272.118429" style="stroke: #000000; stroke-width: 0.8"/>
      </g>
     </g>
     <g id="text_9">
      <!-- 0.42 -->
      <g transform="translate(23.1475 275.917647) scale(0.1 -0.1)">
       <defs>
        <path id="DejaVuSans-2e" d="M 684 794 
L 1344 794 
L 1344 0 
L 684 0 
L 684 794 
z
" transform="scale(0.015625)"/>
       </defs>
       <use xlink:href="#DejaVuSans-30"/>
       <use xlink:href="#DejaVuSans-2e" transform="translate(63.623047 0)"/>
       <use xlink:href="#DejaVuSans-34" transform="translate(95.410156 0)"/>
       <use xlink:href="#DejaVuSans-32" transform="translate(159.033203 0)"/>
      </g>
     </g>
    </g>
    <g id="ytick_2">
     <g id="line2d_17">
      <path d="M 52.413125 233.990337 
L 498.813125 233.990337 
" clip-path="url(#p93b458cf55)" style="fill: none; stroke: #b0b0b0; stroke-opacity: 0.3; stroke-width: 0.8; stroke-linecap: square"/>
     </g>
     <g id="line2d_18">
      <g>
       <use xlink:href="#mb2c175a681" x="52.413125" y="233.990337" style="stroke: #000000; stroke-width: 0.8"/>
      </g>
     </g>
     <g id="text_10">
      <!-- 0.43 -->
      <g transform="translate(23.1475 237.789556) scale(0.1 -0.1)">
       <defs>
        <path id="DejaVuSans-33" d="M 2597 2516 
Q 3050 2419 3304 2112 
Q 3559 1806 3559 1356 
Q 3559 666 3084 287 
Q 2609 -91 1734 -91 
Q 1441 -91 1130 -33 
Q 819 25 488 141 
L 488 750 
Q 750 597 1062 519 
Q 1375 441 1716 441 
Q 2309 441 2620 675 
Q 2931 909 2931 1356 
Q 2931 1769 2642 2001 
Q 2353 2234 1838 2234 
L 1294 2234 
L 1294 2753 
L 1863 2753 
Q 2328 2753 2575 2939 
Q 2822 3125 2822 3475 
Q 2822 3834 2567 4026 
Q 2313 4219 1838 4219 
Q 1578 4219 1281 4162 
Q 984 4106 628 3988 
L 628 4550 
Q 988 4650 1302 4700 
Q 1616 4750 1894 4750 
Q 2613 4750 3031 4423 
Q 3450 4097 3450 3541 
Q 3450 3153 3228 2886 
Q 3006 2619 2597 2516 
z
" transform="scale(0.015625)"/>
       </defs>
       <use xlink:href="#DejaVuSans-30"/>
       <use xlink:href="#DejaVuSans-2e" transform="translate(63.623047 0)"/>
       <use xlink:href="#DejaVuSans-34" transform="translate(95.410156 0)"/>
       <use xlink:href="#DejaVuSans-33" transform="translate(159.033203 0)"/>
      </g>
     </g>
    </g>
    <g id="ytick_3">
     <g id="line2d_19">
      <path d="M 52.413125 195.862246 
L 498.813125 195.862246 
" clip-path="url(#p93b458cf55)" style="fill: none; stroke: #b0b0b0; stroke-opacity: 0.3; stroke-width: 0.8; stroke-linecap: square"/>
     </g>
     <g id="line2d_20">
      <g>
       <use xlink:href="#mb2c175a681" x="52.413125" y="195.862246" style="stroke: #000000; stroke-width: 0.8"/>
      </g>
     </g>
     <g id="text_11">
      <!-- 0.44 -->
      <g transform="translate(23.1475 199.661465) scale(0.1 -0.1)">
       <use xlink:href="#DejaVuSans-30"/>
       <use xlink:href="#DejaVuSans-2e" transform="translate(63.623047 0)"/>
       <use xlink:href="#DejaVuSans-34" transform="translate(95.410156 0)"/>
       <use xlink:href="#DejaVuSans-34" transform="translate(159.033203 0)"/>
      </g>
     </g>
    </g>
    <g id="ytick_4">
     <g id="line2d_21">
      <path d="M 52.413125 157.734155 
L 498.813125 157.734155 
" clip-path="url(#p93b458cf55)" style="fill: none; stroke: #b0b0b0; stroke-opacity: 0.3; stroke-width: 0.8; stroke-linecap: square"/>
     </g>
     <g id="line2d_22">
      <g>
       <use xlink:href="#mb2c175a681" x="52.413125" y="157.734155" style="stroke: #000000; stroke-width: 0.8"/>
      </g>
     </g>
     <g id="text_12">
      <!-- 0.45 -->
      <g transform="translate(23.1475 161.533374) scale(0.1 -0.1)">
       <defs>
        <path id="DejaVuSans-35" d="M 691 4666 
L 3169 4666 
L 3169 4134 
L 1269 4134 
L 1269 2991 
Q 1406 3038 1543 3061 
Q 1681 3084 1819 3084 
Q 2600 3084 3056 2656 
Q 3513 2228 3513 1497 
Q 3513 744 3044 326 
Q 2575 -91 1722 -91 
Q 1428 -91 1123 -41 
Q 819 9 494 109 
L 494 744 
Q 775 591 1075 516 
Q 1375 441 1709 441 
Q 2250 441 2565 725 
Q 2881 1009 2881 1497 
Q 2881 1984 2565 2268 
Q 2250 2553 1709 2553 
Q 1456 2553 1204 2497 
Q 953 2441 691 2322 
L 691 4666 
z
" transform="scale(0.015625)"/>
       </defs>
       <use xlink:href="#DejaVuSans-30"/>
       <use xlink:href="#DejaVuSans-2e" transform="translate(63.623047 0)"/>
       <use xlink:href="#DejaVuSans-34" transform="translate(95.410156 0)"/>
       <use xlink:href="#DejaVuSans-35" transform="translate(159.033203 0)"/>
      </g>
     </g>
    </g>
    <g id="ytick_5">
     <g id="line2d_23">
      <path d="M 52.413125 119.606064 
L 498.813125 119.606064 
" clip-path="url(#p93b458cf55)" style="fill: none; stroke: #b0b0b0; stroke-opacity: 0.3; stroke-width: 0.8; stroke-linecap: square"/>
     </g>
     <g id="line2d_24">
      <g>
       <use xlink:href="#mb2c175a681" x="52.413125" y="119.606064" style="stroke: #000000; stroke-width: 0.8"/>
      </g>
     </g>
     <g id="text_13">
      <!-- 0.46 -->
      <g transform="translate(23.1475 123.405283) scale(0.1 -0.1)">
       <use xlink:href="#DejaVuSans-30"/>
       <use xlink:href="#DejaVuSans-2e" transform="translate(63.623047 0)"/>
       <use xlink:href="#DejaVuSans-34" transform="translate(95.410156 0)"/>
       <use xlink:href="#DejaVuSans-36" transform="translate(159.033203 0)"/>
      </g>
     </g>
    </g>
    <g id="ytick_6">
     <g id="line2d_25">
      <path d="M 52.413125 81.477973 
L 498.813125 81.477973 
" clip-path="url(#p93b458cf55)" style="fill: none; stroke: #b0b0b0; stroke-opacity: 0.3; stroke-width: 0.8; stroke-linecap: square"/>
     </g>
     <g id="line2d_26">
      <g>
       <use xlink:href="#mb2c175a681" x="52.413125" y="81.477973" style="stroke: #000000; stroke-width: 0.8"/>
      </g>
     </g>
     <g id="text_14">
      <!-- 0.47 -->
      <g transform="translate(23.1475 85.277192) scale(0.1 -0.1)">
       <defs>
        <path id="DejaVuSans-37" d="M 525 4666 
L 3525 4666 
L 3525 4397 
L 1831 0 
L 1172 0 
L 2766 4134 
L 525 4134 
L 525 4666 
z
" transform="scale(0.015625)"/>
       </defs>
       <use xlink:href="#DejaVuSans-30"/>
       <use xlink:href="#DejaVuSans-2e" transform="translate(63.623047 0)"/>
       <use xlink:href="#DejaVuSans-34" transform="translate(95.410156 0)"/>
       <use xlink:href="#DejaVuSans-37" transform="translate(159.033203 0)"/>
      </g>
     </g>
    </g>
    <g id="ytick_7">
     <g id="line2d_27">
      <path d="M 52.413125 43.349882 
L 498.813125 43.349882 
" clip-path="url(#p93b458cf55)" style="fill: none; stroke: #b0b0b0; stroke-opacity: 0.3; stroke-width: 0.8; stroke-linecap: square"/>
     </g>
     <g id="line2d_28">
      <g>
       <use xlink:href="#mb2c175a681" x="52.413125" y="43.349882" style="stroke: #000000; stroke-width: 0.8"/>
      </g>
     </g>
     <g id="text_15">
      <!-- 0.48 -->
      <g transform="translate(23.1475 47.149101) scale(0.1 -0.1)">
       <use xlink:href="#DejaVuSans-30"/>
       <use xlink:href="#DejaVuSans-2e" transform="translate(63.623047 0)"/>
       <use xlink:href="#DejaVuSans-34" transform="translate(95.410156 0)"/>
       <use xlink:href="#DejaVuSans-38" transform="translate(159.033203 0)"/>
      </g>
     </g>
    </g>
    <g id="text_16">
     <!-- Coherence (c_v) -->
     <g transform="translate(16.318125 210.289219) rotate(-90) scale(0.12 -0.12)">
      <defs>
       <path id="DejaVuSans-43" d="M 4122 4306 
L 4122 3641 
Q 3803 3938 3442 4084 
Q 3081 4231 2675 4231 
Q 1875 4231 1450 3742 
Q 1025 3253 1025 2328 
Q 1025 1406 1450 917 
Q 1875 428 2675 428 
Q 3081 428 3442 575 
Q 3803 722 4122 1019 
L 4122 359 
Q 3791 134 3420 21 
Q 3050 -91 2638 -91 
Q 1578 -91 968 557 
Q 359 1206 359 2328 
Q 359 3453 968 4101 
Q 1578 4750 2638 4750 
Q 3056 4750 3426 4639 
Q 3797 4528 4122 4306 
z
" transform="scale(0.015625)"/>
       <path id="DejaVuSans-68" d="M 3513 2113 
L 3513 0 
L 2938 0 
L 2938 2094 
Q 2938 2591 2744 2837 
Q 2550 3084 2163 3084 
Q 1697 3084 1428 2787 
Q 1159 2491 1159 1978 
L 1159 0 
L 581 0 
L 581 4863 
L 1159 4863 
L 1159 2956 
Q 1366 3272 1645 3428 
Q 1925 3584 2291 3584 
Q 2894 3584 3203 3211 
Q 3513 2838 3513 2113 
z
" transform="scale(0.015625)"/>
       <path id="DejaVuSans-65" d="M 3597 1894 
L 3597 1613 
L 953 1613 
Q 991 1019 1311 708 
Q 1631 397 2203 397 
Q 2534 397 2845 478 
Q 3156 559 3463 722 
L 3463 178 
Q 3153 47 2828 -22 
Q 2503 -91 2169 -91 
Q 1331 -91 842 396 
Q 353 884 353 1716 
Q 353 2575 817 3079 
Q 1281 3584 2069 3584 
Q 2775 3584 3186 3129 
Q 3597 2675 3597 1894 
z
M 3022 2063 
Q 3016 2534 2758 2815 
Q 2500 3097 2075 3097 
Q 1594 3097 1305 2825 
Q 1016 2553 972 2059 
L 3022 2063 
z
" transform="scale(0.015625)"/>
       <path id="DejaVuSans-72" d="M 2631 2963 
Q 2534 3019 2420 3045 
Q 2306 3072 2169 3072 
Q 1681 3072 1420 2755 
Q 1159 2438 1159 1844 
L 1159 0 
L 581 0 
L 581 3500 
L 1159 3500 
L 1159 2956 
Q 1341 3275 1631 3429 
Q 1922 3584 2338 3584 
Q 2397 3584 2469 3576 
Q 2541 3569 2628 3553 
L 2631 2963 
z
" transform="scale(0.015625)"/>
       <path id="DejaVuSans-6e" d="M 3513 2113 
L 3513 0 
L 2938 0 
L 2938 2094 
Q 2938 2591 2744 2837 
Q 2550 3084 2163 3084 
Q 1697 3084 1428 2787 
Q 1159 2491 1159 1978 
L 1159 0 
L 581 0 
L 581 3500 
L 1159 3500 
L 1159 2956 
Q 1366 3272 1645 3428 
Q 1925 3584 2291 3584 
Q 2894 3584 3203 3211 
Q 3513 2838 3513 2113 
z
" transform="scale(0.015625)"/>
       <path id="DejaVuSans-5f" d="M 3263 -1063 
L 3263 -1509 
L -63 -1509 
L -63 -1063 
L 3263 -1063 
z
" transform="scale(0.015625)"/>
       <path id="DejaVuSans-76" d="M 191 3500 
L 800 3500 
L 1894 563 
L 2988 3500 
L 3597 3500 
L 2284 0 
L 1503 0 
L 191 3500 
z
" transform="scale(0.015625)"/>
      </defs>
      <use xlink:href="#DejaVuSans-43"/>
      <use xlink:href="#DejaVuSans-6f" transform="translate(69.824219 0)"/>
      <use xlink:href="#DejaVuSans-68" transform="translate(131.005859 0)"/>
      <use xlink:href="#DejaVuSans-65" transform="translate(194.384766 0)"/>
      <use xlink:href="#DejaVuSans-72" transform="translate(255.908203 0)"/>
      <use xlink:href="#DejaVuSans-65" transform="translate(294.771484 0)"/>
      <use xlink:href="#DejaVuSans-6e" transform="translate(356.294922 0)"/>
      <use xlink:href="#DejaVuSans-63" transform="translate(419.673828 0)"/>
      <use xlink:href="#DejaVuSans-65" transform="translate(474.654297 0)"/>
      <use xlink:href="#DejaVuSans-20" transform="translate(536.177734 0)"/>
      <use xlink:href="#DejaVuSans-28" transform="translate(567.964844 0)"/>
      <use xlink:href="#DejaVuSans-63" transform="translate(606.978516 0)"/>
      <use xlink:href="#DejaVuSans-5f" transform="translate(661.958984 0)"/>
      <use xlink:href="#DejaVuSans-76" transform="translate(711.958984 0)"/>
      <use xlink:href="#DejaVuSans-29" transform="translate(771.138672 0)"/>
     </g>
    </g>
   </g>
   <g id="line2d_29">
    <path d="M 72.704034 287.677969 
L 135.137601 188.150702 
L 166.354384 85.038405 
L 197.571167 57.642386 
L 228.78795 37.047076 
L 260.004733 98.033326 
L 447.305433 35.677969 
L 478.522216 36.910862 
" clip-path="url(#p93b458cf55)" style="fill: none; stroke: #2196f3; stroke-width: 2; stroke-linecap: square"/>
    <defs>
     <path id="mbc1e928f43" d="M 0 2 
C 0.530406 2 1.03916 1.789267 1.414214 1.414214 
C 1.789267 1.03916 2 0.530406 2 0 
C 2 -0.530406 1.789267 -1.03916 1.414214 -1.414214 
C 1.03916 -1.789267 0.530406 -2 0 -2 
C -0.530406 -2 -1.03916 -1.789267 -1.414214 -1.414214 
C -1.789267 -1.03916 -2 -0.530406 -2 0 
C -2 0.530406 -1.789267 1.03916 -1.414214 1.414214 
C -1.03916 1.789267 -0.530406 2 0 2 
z
" style="stroke: #2196f3"/>
    </defs>
    <g clip-path="url(#p93b458cf55)">
     <use xlink:href="#mbc1e928f43" x="72.704034" y="287.677969" style="fill: #2196f3; stroke: #2196f3"/>
     <use xlink:href="#mbc1e928f43" x="135.137601" y="188.150702" style="fill: #2196f3; stroke: #2196f3"/>
     <use xlink:href="#mbc1e928f43" x="166.354384" y="85.038405" style="fill: #2196f3; stroke: #2196f3"/>
     <use xlink:href="#mbc1e928f43" x="197.571167" y="57.642386" style="fill: #2196f3; stroke: #2196f3"/>
     <use xlink:href="#mbc1e928f43" x="228.78795" y="37.047076" style="fill: #2196f3; stroke: #2196f3"/>
     <use xlink:href="#mbc1e928f43" x="260.004733" y="98.033326" style="fill: #2196f3; stroke: #2196f3"/>
     <use xlink:href="#mbc1e928f43" x="447.305433" y="35.677969" style="fill: #2196f3; stroke: #2196f3"/>
     <use xlink:href="#mbc1e928f43" x="478.522216" y="36.910862" style="fill: #2196f3; stroke: #2196f3"/>
    </g>
   </g>
   <g id="line2d_30">
    <path d="M 447.305433 300.277969 
L 447.305433 23.077969 
" clip-path="url(#p93b458cf55)" style="fill: none; stroke-dasharray: 7.4,3.2; stroke-dashoffset: 0; stroke: #f44336; stroke-width: 2"/>
   </g>
   <g id="patch_3">
    <path d="M 52.413125 300.277969 
L 52.413125 23.077969 
" style="fill: none; stroke: #000000; stroke-width: 0.8; stroke-linejoin: miter; stroke-linecap: square"/>
   </g>
   <g id="patch_4">
    <path d="M 498.813125 300.277969 
L 498.813125 23.077969 
" style="fill: none; stroke: #000000; stroke-width: 0.8; stroke-linejoin: miter; stroke-linecap: square"/>
   </g>
   <g id="patch_5">
    <path d="M 52.413125 300.277969 
L 498.813125 300.277969 
" style="fill: none; stroke: #000000; stroke-width: 0.8; stroke-linejoin: miter; stroke-linecap: square"/>
   </g>
   <g id="patch_6">
    <path d="M 52.413125 23.077969 
L 498.813125 23.077969 
" style="fill: none; stroke: #000000; stroke-width: 0.8; stroke-linejoin: miter; stroke-linecap: square"/>
   </g>
   <g id="text_17">
    <g id="patch_7">
     <path d="M 70.2688 279.97375 
L 75.139268 279.97375 
Q 75.979268 279.97375 75.979268 279.13375 
L 75.979268 272.359063 
Q 75.979268 271.519063 75.139268 271.519063 
L 70.2688 271.519063 
Q 69.4288 271.519063 69.4288 272.359063 
L 69.4288 279.13375 
Q 69.4288 279.97375 70.2688 279.97375 
z
" style="fill: #ffffff; opacity: 0.85; stroke: #795548; stroke-width: 0.4; stroke-linejoin: miter"/>
    </g>
    <!-- 1 -->
    <g style="fill: #795548" transform="translate(70.2688 277.677969) scale(0.07 -0.07)">
     <defs>
      <path id="DejaVuSans-Bold-31" d="M 750 831 
L 1813 831 
L 1813 3847 
L 722 3622 
L 722 4441 
L 1806 4666 
L 2950 4666 
L 2950 831 
L 4013 831 
L 4013 0 
L 750 0 
L 750 831 
z
" transform="scale(0.015625)"/>
     </defs>
     <use xlink:href="#DejaVuSans-Bold-31"/>
    </g>
   </g>
   <g id="text_18">
    <g id="patch_8">
     <path d="M 476.086982 29.206643 
L 480.95745 29.206643 
Q 481.79745 29.206643 481.79745 28.366643 
L 481.79745 21.591955 
Q 481.79745 20.751955 480.95745 20.751955 
L 476.086982 20.751955 
Q 475.246982 20.751955 475.246982 21.591955 
L 475.246982 28.366643 
Q 475.246982 29.206643 476.086982 29.206643 
z
" style="fill: #ffffff; opacity: 0.85; stroke: #795548; stroke-width: 0.4; stroke-linejoin: miter"/>
    </g>
    <!-- 2 -->
    <g style="fill: #795548" transform="translate(476.086982 26.910862) scale(0.07 -0.07)">
     <defs>
      <path id="DejaVuSans-Bold-32" d="M 1844 884 
L 3897 884 
L 3897 0 
L 506 0 
L 506 884 
L 2209 2388 
Q 2438 2594 2547 2791 
Q 2656 2988 2656 3200 
Q 2656 3528 2436 3728 
Q 2216 3928 1850 3928 
Q 1569 3928 1234 3808 
Q 900 3688 519 3450 
L 519 4475 
Q 925 4609 1322 4679 
Q 1719 4750 2100 4750 
Q 2938 4750 3402 4381 
Q 3866 4013 3866 3353 
Q 3866 2972 3669 2642 
Q 3472 2313 2841 1759 
L 1844 884 
z
" transform="scale(0.015625)"/>
     </defs>
     <use xlink:href="#DejaVuSans-Bold-32"/>
    </g>
   </g>
   <g id="text_19">
    <g id="patch_9">
     <path d="M 257.569499 90.329107 
L 262.439968 90.329107 
Q 263.279968 90.329107 263.279968 89.489107 
L 263.279968 82.71442 
Q 263.279968 81.87442 262.439968 81.87442 
L 257.569499 81.87442 
Q 256.729499 81.87442 256.729499 82.71442 
L 256.729499 89.489107 
Q 256.729499 90.329107 257.569499 90.329107 
z
" style="fill: #ffffff; opacity: 0.85; stroke: #4caf50; stroke-width: 0.4; stroke-linejoin: miter"/>
    </g>
    <!-- 3 -->
    <g style="fill: #4caf50" transform="translate(257.569499 88.033326) scale(0.07 -0.07)">
     <defs>
      <path id="DejaVuSans-Bold-33" d="M 2981 2516 
Q 3453 2394 3698 2092 
Q 3944 1791 3944 1325 
Q 3944 631 3412 270 
Q 2881 -91 1863 -91 
Q 1503 -91 1142 -33 
Q 781 25 428 141 
L 428 1069 
Q 766 900 1098 814 
Q 1431 728 1753 728 
Q 2231 728 2486 893 
Q 2741 1059 2741 1369 
Q 2741 1688 2480 1852 
Q 2219 2016 1709 2016 
L 1228 2016 
L 1228 2791 
L 1734 2791 
Q 2188 2791 2409 2933 
Q 2631 3075 2631 3366 
Q 2631 3634 2415 3781 
Q 2200 3928 1806 3928 
Q 1516 3928 1219 3862 
Q 922 3797 628 3669 
L 628 4550 
Q 984 4650 1334 4700 
Q 1684 4750 2022 4750 
Q 2931 4750 3382 4451 
Q 3834 4153 3834 3553 
Q 3834 3144 3618 2883 
Q 3403 2622 2981 2516 
z
" transform="scale(0.015625)"/>
     </defs>
     <use xlink:href="#DejaVuSans-Bold-33"/>
    </g>
   </g>
   <g id="text_20">
    <g id="patch_10">
     <path d="M 163.919149 77.334187 
L 168.789618 77.334187 
Q 169.629618 77.334187 169.629618 76.494187 
L 169.629618 69.719499 
Q 169.629618 68.879499 168.789618 68.879499 
L 163.919149 68.879499 
Q 163.079149 68.879499 163.079149 69.719499 
L 163.079149 76.494187 
Q 163.079149 77.334187 163.919149 77.334187 
z
" style="fill: #ffffff; opacity: 0.85; stroke: #4caf50; stroke-width: 0.4; stroke-linejoin: miter"/>
    </g>
    <!-- 4 -->
    <g style="fill: #4caf50" transform="translate(163.919149 75.038405) scale(0.07 -0.07)">
     <defs>
      <path id="DejaVuSans-Bold-34" d="M 2356 3675 
L 1038 1722 
L 2356 1722 
L 2356 3675 
z
M 2156 4666 
L 3494 4666 
L 3494 1722 
L 4159 1722 
L 4159 850 
L 3494 850 
L 3494 0 
L 2356 0 
L 2356 850 
L 288 850 
L 288 1881 
L 2156 4666 
z
" transform="scale(0.015625)"/>
     </defs>
     <use xlink:href="#DejaVuSans-Bold-34"/>
    </g>
   </g>
   <g id="text_21">
    <g id="patch_11">
     <path d="M 195.135933 49.938167 
L 200.006401 49.938167 
Q 200.846401 49.938167 200.846401 49.098167 
L 200.846401 42.32348 
Q 200.846401 41.48348 200.006401 41.48348 
L 195.135933 41.48348 
Q 194.295933 41.48348 194.295933 42.32348 
L 194.295933 49.098167 
Q 194.295933 49.938167 195.135933 49.938167 
z
" style="fill: #ffffff; opacity: 0.85; stroke: #4caf50; stroke-width: 0.4; stroke-linejoin: miter"/>
    </g>
    <!-- 5 -->
    <g style="fill: #4caf50" transform="translate(195.135933 47.642386) scale(0.07 -0.07)">
     <defs>
      <path id="DejaVuSans-Bold-35" d="M 678 4666 
L 3669 4666 
L 3669 3781 
L 1638 3781 
L 1638 3059 
Q 1775 3097 1914 3117 
Q 2053 3138 2203 3138 
Q 3056 3138 3531 2711 
Q 4006 2284 4006 1522 
Q 4006 766 3489 337 
Q 2972 -91 2053 -91 
Q 1656 -91 1267 -14 
Q 878 63 494 219 
L 494 1166 
Q 875 947 1217 837 
Q 1559 728 1863 728 
Q 2300 728 2551 942 
Q 2803 1156 2803 1522 
Q 2803 1891 2551 2103 
Q 2300 2316 1863 2316 
Q 1603 2316 1309 2248 
Q 1016 2181 678 2041 
L 678 4666 
z
" transform="scale(0.015625)"/>
     </defs>
     <use xlink:href="#DejaVuSans-Bold-35"/>
    </g>
   </g>
   <g id="text_22">
    <g id="patch_12">
     <path d="M 226.352716 29.342857 
L 231.223185 29.342857 
Q 232.063185 29.342857 232.063185 28.502857 
L 232.063185 21.72817 
Q 232.063185 20.88817 231.223185 20.88817 
L 226.352716 20.88817 
Q 225.512716 20.88817 225.512716 21.72817 
L 225.512716 28.502857 
Q 225.512716 29.342857 226.352716 29.342857 
z
" style="fill: #ffffff; opacity: 0.85; stroke: #4caf50; stroke-width: 0.4; stroke-linejoin: miter"/>
    </g>
    <!-- 6 -->
    <g style="fill: #4caf50" transform="translate(226.352716 27.047076) scale(0.07 -0.07)">
     <defs>
      <path id="DejaVuSans-Bold-36" d="M 2316 2303 
Q 2000 2303 1842 2098 
Q 1684 1894 1684 1484 
Q 1684 1075 1842 870 
Q 2000 666 2316 666 
Q 2634 666 2792 870 
Q 2950 1075 2950 1484 
Q 2950 1894 2792 2098 
Q 2634 2303 2316 2303 
z
M 3803 4544 
L 3803 3681 
Q 3506 3822 3243 3889 
Q 2981 3956 2731 3956 
Q 2194 3956 1894 3657 
Q 1594 3359 1544 2772 
Q 1750 2925 1990 3001 
Q 2231 3078 2516 3078 
Q 3231 3078 3670 2659 
Q 4109 2241 4109 1563 
Q 4109 813 3618 361 
Q 3128 -91 2303 -91 
Q 1394 -91 895 523 
Q 397 1138 397 2266 
Q 397 3422 980 4083 
Q 1563 4744 2578 4744 
Q 2900 4744 3203 4694 
Q 3506 4644 3803 4544 
z
" transform="scale(0.015625)"/>
     </defs>
     <use xlink:href="#DejaVuSans-Bold-36"/>
    </g>
   </g>
   <g id="text_23">
    <g id="patch_13">
     <path d="M 444.870198 27.97375 
L 449.740667 27.97375 
Q 450.580667 27.97375 450.580667 27.13375 
L 450.580667 20.359063 
Q 450.580667 19.519063 449.740667 19.519063 
L 444.870198 19.519063 
Q 444.030198 19.519063 444.030198 20.359063 
L 444.030198 27.13375 
Q 444.030198 27.97375 444.870198 27.97375 
z
" style="fill: #ffffff; opacity: 0.85; stroke: #e91e63; stroke-width: 0.4; stroke-linejoin: miter"/>
    </g>
    <!-- 7 -->
    <g style="fill: #e91e63" transform="translate(444.870198 25.677969) scale(0.07 -0.07)">
     <defs>
      <path id="DejaVuSans-Bold-37" d="M 428 4666 
L 3944 4666 
L 3944 3988 
L 2125 0 
L 953 0 
L 2675 3781 
L 428 3781 
L 428 4666 
z
" transform="scale(0.015625)"/>
     </defs>
     <use xlink:href="#DejaVuSans-Bold-37"/>
    </g>
   </g>
   <g id="patch_14">
    <path d="M 74.403819 286.627621 
Q 275.613602 162.294121 475.872284 38.548334 
" style="fill: none; opacity: 0.35; stroke: #795548; stroke-linecap: round"/>
    <path d="M 471.418188 38.94962 
L 475.872284 38.548334 
L 473.520855 42.352382 
" style="fill: none; opacity: 0.35; stroke: #795548; stroke-linecap: round"/>
   </g>
   <g id="patch_15">
    <path d="M 476.598318 37.449004 
Q 369.26492 67.47169 263.008229 97.193205 
" style="fill: none; opacity: 0.35; stroke: #795548; stroke-linecap: round"/>
    <path d="M 267.39912 98.041777 
L 263.008229 97.193205 
L 266.321621 94.189635 
" style="fill: none; opacity: 0.35; stroke: #795548; stroke-linecap: round"/>
   </g>
   <g id="patch_16">
    <path d="M 258.024152 97.758501 
Q 213.180996 91.536065 169.445263 85.467296 
" style="fill: none; opacity: 0.35; stroke: #4caf50; stroke-linecap: round"/>
    <path d="M 173.132415 87.998087 
L 169.445263 85.467296 
L 173.682187 84.036049 
" style="fill: none; opacity: 0.35; stroke: #4caf50; stroke-linecap: round"/>
   </g>
   <g id="patch_17">
    <path d="M 167.857682 83.719102 
Q 181.961794 71.341257 195.225586 59.700881 
" style="fill: none; opacity: 0.35; stroke: #4caf50; stroke-linecap: round"/>
    <path d="M 190.899938 60.836122 
L 195.225586 59.700881 
L 193.53839 63.842544 
" style="fill: none; opacity: 0.35; stroke: #4caf50; stroke-linecap: round"/>
   </g>
   <g id="patch_18">
    <path d="M 199.244039 56.538707 
Q 213.181105 47.343711 226.184943 38.764413 
" style="fill: none; opacity: 0.35; stroke: #4caf50; stroke-linecap: round"/>
    <path d="M 221.744728 39.297794 
L 226.184943 38.764413 
L 223.947518 42.636613 
" style="fill: none; opacity: 0.35; stroke: #4caf50; stroke-linecap: round"/>
   </g>
   <g id="patch_19">
    <path d="M 230.785203 37.034562 
Q 338.045907 36.362527 444.1886 35.697497 
" style="fill: none; opacity: 0.35; stroke: #4caf50; stroke-linecap: round"/>
    <path d="M 440.176147 33.722598 
L 444.1886 35.697497 
L 440.201209 37.722519 
" style="fill: none; opacity: 0.35; stroke: #4caf50; stroke-linecap: round"/>
   </g>
   <g id="text_24">
    <!-- Gensim+sklearn: NMF Topics (c_v coherence, binary search) -->
    <g transform="translate(79.503047 17.077969) scale(0.13 -0.13)">
     <defs>
      <path id="DejaVuSans-47" d="M 3809 666 
L 3809 1919 
L 2778 1919 
L 2778 2438 
L 4434 2438 
L 4434 434 
Q 4069 175 3628 42 
Q 3188 -91 2688 -91 
Q 1594 -91 976 548 
Q 359 1188 359 2328 
Q 359 3472 976 4111 
Q 1594 4750 2688 4750 
Q 3144 4750 3555 4637 
Q 3966 4525 4313 4306 
L 4313 3634 
Q 3963 3931 3569 4081 
Q 3175 4231 2741 4231 
Q 1884 4231 1454 3753 
Q 1025 3275 1025 2328 
Q 1025 1384 1454 906 
Q 1884 428 2741 428 
Q 3075 428 3337 486 
Q 3600 544 3809 666 
z
" transform="scale(0.015625)"/>
      <path id="DejaVuSans-6d" d="M 3328 2828 
Q 3544 3216 3844 3400 
Q 4144 3584 4550 3584 
Q 5097 3584 5394 3201 
Q 5691 2819 5691 2113 
L 5691 0 
L 5113 0 
L 5113 2094 
Q 5113 2597 4934 2840 
Q 4756 3084 4391 3084 
Q 3944 3084 3684 2787 
Q 3425 2491 3425 1978 
L 3425 0 
L 2847 0 
L 2847 2094 
Q 2847 2600 2669 2842 
Q 2491 3084 2119 3084 
Q 1678 3084 1418 2786 
Q 1159 2488 1159 1978 
L 1159 0 
L 581 0 
L 581 3500 
L 1159 3500 
L 1159 2956 
Q 1356 3278 1631 3431 
Q 1906 3584 2284 3584 
Q 2666 3584 2933 3390 
Q 3200 3197 3328 2828 
z
" transform="scale(0.015625)"/>
      <path id="DejaVuSans-2b" d="M 2944 4013 
L 2944 2272 
L 4684 2272 
L 4684 1741 
L 2944 1741 
L 2944 0 
L 2419 0 
L 2419 1741 
L 678 1741 
L 678 2272 
L 2419 2272 
L 2419 4013 
L 2944 4013 
z
" transform="scale(0.015625)"/>
      <path id="DejaVuSans-6b" d="M 581 4863 
L 1159 4863 
L 1159 1991 
L 2875 3500 
L 3609 3500 
L 1753 1863 
L 3688 0 
L 2938 0 
L 1159 1709 
L 1159 0 
L 581 0 
L 581 4863 
z
" transform="scale(0.015625)"/>
      <path id="DejaVuSans-6c" d="M 603 4863 
L 1178 4863 
L 1178 0 
L 603 0 
L 603 4863 
z
" transform="scale(0.015625)"/>
      <path id="DejaVuSans-61" d="M 2194 1759 
Q 1497 1759 1228 1600 
Q 959 1441 959 1056 
Q 959 750 1161 570 
Q 1363 391 1709 391 
Q 2188 391 2477 730 
Q 2766 1069 2766 1631 
L 2766 1759 
L 2194 1759 
z
M 3341 1997 
L 3341 0 
L 2766 0 
L 2766 531 
Q 2569 213 2275 61 
Q 1981 -91 1556 -91 
Q 1019 -91 701 211 
Q 384 513 384 1019 
Q 384 1609 779 1909 
Q 1175 2209 1959 2209 
L 2766 2209 
L 2766 2266 
Q 2766 2663 2505 2880 
Q 2244 3097 1772 3097 
Q 1472 3097 1187 3025 
Q 903 2953 641 2809 
L 641 3341 
Q 956 3463 1253 3523 
Q 1550 3584 1831 3584 
Q 2591 3584 2966 3190 
Q 3341 2797 3341 1997 
z
" transform="scale(0.015625)"/>
      <path id="DejaVuSans-3a" d="M 750 794 
L 1409 794 
L 1409 0 
L 750 0 
L 750 794 
z
M 750 3309 
L 1409 3309 
L 1409 2516 
L 750 2516 
L 750 3309 
z
" transform="scale(0.015625)"/>
      <path id="DejaVuSans-4e" d="M 628 4666 
L 1478 4666 
L 3547 763 
L 3547 4666 
L 4159 4666 
L 4159 0 
L 3309 0 
L 1241 3903 
L 1241 0 
L 628 0 
L 628 4666 
z
" transform="scale(0.015625)"/>
      <path id="DejaVuSans-4d" d="M 628 4666 
L 1569 4666 
L 2759 1491 
L 3956 4666 
L 4897 4666 
L 4897 0 
L 4281 0 
L 4281 4097 
L 3078 897 
L 2444 897 
L 1241 4097 
L 1241 0 
L 628 0 
L 628 4666 
z
" transform="scale(0.015625)"/>
      <path id="DejaVuSans-46" d="M 628 4666 
L 3309 4666 
L 3309 4134 
L 1259 4134 
L 1259 2759 
L 3109 2759 
L 3109 2228 
L 1259 2228 
L 1259 0 
L 628 0 
L 628 4666 
z
" transform="scale(0.015625)"/>
      <path id="DejaVuSans-54" d="M -19 4666 
L 3928 4666 
L 3928 4134 
L 2272 4134 
L 2272 0 
L 1638 0 
L 1638 4134 
L -19 4134 
L -19 4666 
z
" transform="scale(0.015625)"/>
      <path id="DejaVuSans-2c" d="M 750 794 
L 1409 794 
L 1409 256 
L 897 -744 
L 494 -744 
L 750 256 
L 750 794 
z
" transform="scale(0.015625)"/>
      <path id="DejaVuSans-62" d="M 3116 1747 
Q 3116 2381 2855 2742 
Q 2594 3103 2138 3103 
Q 1681 3103 1420 2742 
Q 1159 2381 1159 1747 
Q 1159 1113 1420 752 
Q 1681 391 2138 391 
Q 2594 391 2855 752 
Q 3116 1113 3116 1747 
z
M 1159 2969 
Q 1341 3281 1617 3432 
Q 1894 3584 2278 3584 
Q 2916 3584 3314 3078 
Q 3713 2572 3713 1747 
Q 3713 922 3314 415 
Q 2916 -91 2278 -91 
Q 1894 -91 1617 61 
Q 1341 213 1159 525 
L 1159 0 
L 581 0 
L 581 4863 
L 1159 4863 
L 1159 2969 
z
" transform="scale(0.015625)"/>
      <path id="DejaVuSans-79" d="M 2059 -325 
Q 1816 -950 1584 -1140 
Q 1353 -1331 966 -1331 
L 506 -1331 
L 506 -850 
L 844 -850 
Q 1081 -850 1212 -737 
Q 1344 -625 1503 -206 
L 1606 56 
L 191 3500 
L 800 3500 
L 1894 763 
L 2988 3500 
L 3597 3500 
L 2059 -325 
z
" transform="scale(0.015625)"/>
     </defs>
     <use xlink:href="#DejaVuSans-47"/>
     <use xlink:href="#DejaVuSans-65" transform="translate(77.490234 0)"/>
     <use xlink:href="#DejaVuSans-6e" transform="translate(139.013672 0)"/>
     <use xlink:href="#DejaVuSans-73" transform="translate(202.392578 0)"/>
     <use xlink:href="#DejaVuSans-69" transform="translate(254.492188 0)"/>
     <use xlink:href="#DejaVuSans-6d" transform="translate(282.275391 0)"/>
     <use xlink:href="#DejaVuSans-2b" transform="translate(379.6875 0)"/>
     <use xlink:href="#DejaVuSans-73" transform="translate(463.476562 0)"/>
     <use xlink:href="#DejaVuSans-6b" transform="translate(515.576172 0)"/>
     <use xlink:href="#DejaVuSans-6c" transform="translate(573.486328 0)"/>
     <use xlink:href="#DejaVuSans-65" transform="translate(601.269531 0)"/>
     <use xlink:href="#DejaVuSans-61" transform="translate(662.792969 0)"/>
     <use xlink:href="#DejaVuSans-72" transform="translate(724.072266 0)"/>
     <use xlink:href="#DejaVuSans-6e" transform="translate(763.435547 0)"/>
     <use xlink:href="#DejaVuSans-3a" transform="translate(826.814453 0)"/>
     <use xlink:href="#DejaVuSans-20" transform="translate(860.505859 0)"/>
     <use xlink:href="#DejaVuSans-4e" transform="translate(892.292969 0)"/>
     <use xlink:href="#DejaVuSans-4d" transform="translate(967.097656 0)"/>
     <use xlink:href="#DejaVuSans-46" transform="translate(1053.376953 0)"/>
     <use xlink:href="#DejaVuSans-20" transform="translate(1110.896484 0)"/>
     <use xlink:href="#DejaVuSans-54" transform="translate(1142.683594 0)"/>
     <use xlink:href="#DejaVuSans-6f" transform="translate(1186.767578 0)"/>
     <use xlink:href="#DejaVuSans-70" transform="translate(1247.949219 0)"/>
     <use xlink:href="#DejaVuSans-69" transform="translate(1311.425781 0)"/>
     <use xlink:href="#DejaVuSans-63" transform="translate(1339.208984 0)"/>
     <use xlink:href="#DejaVuSans-73" transform="translate(1394.189453 0)"/>
     <use xlink:href="#DejaVuSans-20" transform="translate(1446.289062 0)"/>
     <use xlink:href="#DejaVuSans-28" transform="translate(1478.076172 0)"/>
     <use xlink:href="#DejaVuSans-63" transform="translate(1517.089844 0)"/>
     <use xlink:href="#DejaVuSans-5f" transform="translate(1572.070312 0)"/>
     <use xlink:href="#DejaVuSans-76" transform="translate(1622.070312 0)"/>
     <use xlink:href="#DejaVuSans-20" transform="translate(1681.25 0)"/>
     <use xlink:href="#DejaVuSans-63" transform="translate(1713.037109 0)"/>
     <use xlink:href="#DejaVuSans-6f" transform="translate(1768.017578 0)"/>
     <use xlink:href="#DejaVuSans-68" transform="translate(1829.199219 0)"/>
     <use xlink:href="#DejaVuSans-65" transform="translate(1892.578125 0)"/>
     <use xlink:href="#DejaVuSans-72" transform="translate(1954.101562 0)"/>
     <use xlink:href="#DejaVuSans-65" transform="translate(1992.964844 0)"/>
     <use xlink:href="#DejaVuSans-6e" transform="translate(2054.488281 0)"/>
     <use xlink:href="#DejaVuSans-63" transform="translate(2117.867188 0)"/>
     <use xlink:href="#DejaVuSans-65" transform="translate(2172.847656 0)"/>
     <use xlink:href="#DejaVuSans-2c" transform="translate(2234.371094 0)"/>
     <use xlink:href="#DejaVuSans-20" transform="translate(2266.158203 0)"/>
     <use xlink:href="#DejaVuSans-62" transform="translate(2297.945312 0)"/>
     <use xlink:href="#DejaVuSans-69" transform="translate(2361.421875 0)"/>
     <use xlink:href="#DejaVuSans-6e" transform="translate(2389.205078 0)"/>
     <use xlink:href="#DejaVuSans-61" transform="translate(2452.583984 0)"/>
     <use xlink:href="#DejaVuSans-72" transform="translate(2513.863281 0)"/>
     <use xlink:href="#DejaVuSans-79" transform="translate(2554.976562 0)"/>
     <use xlink:href="#DejaVuSans-20" transform="translate(2614.15625 0)"/>
     <use xlink:href="#DejaVuSans-73" transform="translate(2645.943359 0)"/>
     <use xlink:href="#DejaVuSans-65" transform="translate(2698.042969 0)"/>
     <use xlink:href="#DejaVuSans-61" transform="translate(2759.566406 0)"/>
     <use xlink:href="#DejaVuSans-72" transform="translate(2820.845703 0)"/>
     <use xlink:href="#DejaVuSans-63" transform="translate(2859.708984 0)"/>
     <use xlink:href="#DejaVuSans-68" transform="translate(2914.689453 0)"/>
     <use xlink:href="#DejaVuSans-29" transform="translate(2978.068359 0)"/>
    </g>
   </g>
   <g id="line2d_31">
    <defs>
     <path id="m00170e5cbc" d="M 0 3.5 
C 0.928211 3.5 1.81853 3.131218 2.474874 2.474874 
C 3.131218 1.81853 3.5 0.928211 3.5 0 
C 3.5 -0.928211 3.131218 -1.81853 2.474874 -2.474874 
C 1.81853 -3.131218 0.928211 -3.5 0 -3.5 
C -0.928211 -3.5 -1.81853 -3.131218 -2.474874 -2.474874 
C -3.131218 -1.81853 -3.5 -0.928211 -3.5 0 
C -3.5 0.928211 -3.131218 1.81853 -2.474874 2.474874 
C -1.81853 3.131218 -0.928211 3.5 0 3.5 
z
" style="stroke: #795548"/>
    </defs>
    <g clip-path="url(#p93b458cf55)">
     <use xlink:href="#m00170e5cbc" x="72.704034" y="287.677969" style="fill: #795548; stroke: #795548"/>
    </g>
   </g>
   <g id="line2d_32">
    <g clip-path="url(#p93b458cf55)">
     <use xlink:href="#m00170e5cbc" x="478.522216" y="36.910862" style="fill: #795548; stroke: #795548"/>
    </g>
   </g>
   <g id="line2d_33">
    <defs>
     <path id="m63570ac1e1" d="M 0 3.5 
C 0.928211 3.5 1.81853 3.131218 2.474874 2.474874 
C 3.131218 1.81853 3.5 0.928211 3.5 0 
C 3.5 -0.928211 3.131218 -1.81853 2.474874 -2.474874 
C 1.81853 -3.131218 0.928211 -3.5 0 -3.5 
C -0.928211 -3.5 -1.81853 -3.131218 -2.474874 -2.474874 
C -3.131218 -1.81853 -3.5 -0.928211 -3.5 0 
C -3.5 0.928211 -3.131218 1.81853 -2.474874 2.474874 
C -1.81853 3.131218 -0.928211 3.5 0 3.5 
z
" style="stroke: #4caf50"/>
    </defs>
    <g clip-path="url(#p93b458cf55)">
     <use xlink:href="#m63570ac1e1" x="260.004733" y="98.033326" style="fill: #4caf50; stroke: #4caf50"/>
    </g>
   </g>
   <g id="line2d_34">
    <g clip-path="url(#p93b458cf55)">
     <use xlink:href="#m63570ac1e1" x="166.354384" y="85.038405" style="fill: #4caf50; stroke: #4caf50"/>
    </g>
   </g>
   <g id="line2d_35">
    <g clip-path="url(#p93b458cf55)">
     <use xlink:href="#m63570ac1e1" x="197.571167" y="57.642386" style="fill: #4caf50; stroke: #4caf50"/>
    </g>
   </g>
   <g id="line2d_36">
    <g clip-path="url(#p93b458cf55)">
     <use xlink:href="#m63570ac1e1" x="228.78795" y="37.047076" style="fill: #4caf50; stroke: #4caf50"/>
    </g>
   </g>
   <g id="line2d_37">
    <defs>
     <path id="mc6b214c237" d="M 0 3.5 
C 0.928211 3.5 1.81853 3.131218 2.474874 2.474874 
C 3.131218 1.81853 3.5 0.928211 3.5 0 
C 3.5 -0.928211 3.131218 -1.81853 2.474874 -2.474874 
C 1.81853 -3.131218 0.928211 -3.5 0 -3.5 
C -0.928211 -3.5 -1.81853 -3.131218 -2.474874 -2.474874 
C -3.131218 -1.81853 -3.5 -0.928211 -3.5 0 
C -3.5 0.928211 -3.131218 1.81853 -2.474874 2.474874 
C -1.81853 3.131218 -0.928211 3.5 0 3.5 
z
" style="stroke: #e91e63"/>
    </defs>
    <g clip-path="url(#p93b458cf55)">
     <use xlink:href="#mc6b214c237" x="447.305433" y="35.677969" style="fill: #e91e63; stroke: #e91e63"/>
    </g>
   </g>
   <g id="legend_1">
    <g id="patch_20">
     <path d="M 59.413125 60.434219 
L 124.075625 60.434219 
Q 126.075625 60.434219 126.075625 58.434219 
L 126.075625 30.077969 
Q 126.075625 28.077969 124.075625 28.077969 
L 59.413125 28.077969 
Q 57.413125 28.077969 57.413125 30.077969 
L 57.413125 58.434219 
Q 57.413125 60.434219 59.413125 60.434219 
z
" style="fill: #ffffff; opacity: 0.8; stroke: #cccccc; stroke-linejoin: miter"/>
    </g>
    <g id="line2d_38">
     <path d="M 61.413125 36.176406 
L 71.413125 36.176406 
L 81.413125 36.176406 
" style="fill: none; stroke: #2196f3; stroke-width: 2; stroke-linecap: square"/>
     <g>
      <use xlink:href="#mbc1e928f43" x="71.413125" y="36.176406" style="fill: #2196f3; stroke: #2196f3"/>
     </g>
    </g>
    <g id="text_25">
     <!-- f(K) -->
     <g transform="translate(89.413125 39.676406) scale(0.1 -0.1)">
      <defs>
       <path id="DejaVuSans-66" d="M 2375 4863 
L 2375 4384 
L 1825 4384 
Q 1516 4384 1395 4259 
Q 1275 4134 1275 3809 
L 1275 3500 
L 2222 3500 
L 2222 3053 
L 1275 3053 
L 1275 0 
L 697 0 
L 697 3053 
L 147 3053 
L 147 3500 
L 697 3500 
L 697 3744 
Q 697 4328 969 4595 
Q 1241 4863 1831 4863 
L 2375 4863 
z
" transform="scale(0.015625)"/>
      </defs>
      <use xlink:href="#DejaVuSans-66"/>
      <use xlink:href="#DejaVuSans-28" transform="translate(35.205078 0)"/>
      <use xlink:href="#DejaVuSans-4b" transform="translate(74.21875 0)"/>
      <use xlink:href="#DejaVuSans-29" transform="translate(139.794922 0)"/>
     </g>
    </g>
    <g id="line2d_39">
     <path d="M 61.413125 50.854531 
L 71.413125 50.854531 
L 81.413125 50.854531 
" style="fill: none; stroke-dasharray: 7.4,3.2; stroke-dashoffset: 0; stroke: #f44336; stroke-width: 2"/>
    </g>
    <g id="text_26">
     <!-- K*=14 -->
     <g transform="translate(89.413125 54.354531) scale(0.1 -0.1)">
      <defs>
       <path id="DejaVuSans-2a" d="M 3009 3897 
L 1888 3291 
L 3009 2681 
L 2828 2375 
L 1778 3009 
L 1778 1831 
L 1422 1831 
L 1422 3009 
L 372 2375 
L 191 2681 
L 1313 3291 
L 191 3897 
L 372 4206 
L 1422 3572 
L 1422 4750 
L 1778 4750 
L 1778 3572 
L 2828 4206 
L 3009 3897 
z
" transform="scale(0.015625)"/>
       <path id="DejaVuSans-3d" d="M 678 2906 
L 4684 2906 
L 4684 2381 
L 678 2381 
L 678 2906 
z
M 678 1631 
L 4684 1631 
L 4684 1100 
L 678 1100 
L 678 1631 
z
" transform="scale(0.015625)"/>
      </defs>
      <use xlink:href="#DejaVuSans-4b"/>
      <use xlink:href="#DejaVuSans-2a" transform="translate(65.576172 0)"/>
      <use xlink:href="#DejaVuSans-3d" transform="translate(115.576172 0)"/>
      <use xlink:href="#DejaVuSans-31" transform="translate(199.365234 0)"/>
      <use xlink:href="#DejaVuSans-34" transform="translate(262.988281 0)"/>
     </g>
    </g>
   </g>
  </g>
 </g>
 <defs>
  <clipPath id="p93b458cf55">
   <rect x="52.413125" y="23.077969" width="446.4" height="277.2"/>
  </clipPath>
 </defs>
</svg>
