<?xml version="1.0" encoding="utf-8" standalone="no"?>
<!DOCTYPE svg PUBLIC "-//W3C//DTD SVG 1.1//EN"
  "http://www.w3.org/Graphics/SVG/1.1/DTD/svg11.dtd">
<svg xmlns:xlink="http://www.w3.org/1999/xlink" width="514.059062pt" height="339.769844pt" viewBox="0 0 514.059062 339.769844" xmlns="http://www.w3.org/2000/svg" version="1.1">
 <metadata>
  <rdf:RDF xmlns:dc="http://purl.org/dc/elements/1.1/" xmlns:cc="http://creativecommons.org/ns#" xmlns:rdf="http://www.w3.org/1999/02/22-rdf-syntax-ns#">
   <cc:Work>
    <dc:type rdf:resource="http://purl.org/dc/dcmitype/StillImage"/>
    <dc:date>2026-06-03T22:41:12.363234</dc:date>
    <dc:format>image/svg+xml</dc:format>
    <dc:creator>
     <cc:Agent>
      <dc:title>Matplotlib v3.10.8, https://matplotlib.org/</dc:title>
     </cc:Agent>
    </dc:creator>
   </cc:Work>
  </rdf:RDF>
 </metadata>
 <defs>
  <style type="text/css">*{stroke-linejoin: round; stroke-linecap: butt}</style>
 </defs>
 <g id="figure_1">
  <g id="patch_1">
   <path d="M 0 339.769844 
L 514.059062 339.769844 
L 514.059062 0 
L 0 0 
z
" style="fill: #ffffff"/>
  </g>
  <g id="axes_1">
   <g id="patch_2">
    <path d="M 60.459063 300.277969 
L 506.859062 300.277969 
L 506.859062 23.077969 
L 60.459063 23.077969 
z
" style="fill: #ffffff"/>
   </g>
   <g id="matplotlib.axis_1">
    <g id="xtick_1">
     <g id="line2d_1">
      <path d="M 67.659063 300.277969 
L 67.659063 23.077969 
" clip-path="url(#p202a6cb3c9)" style="fill: none; stroke: #b0b0b0; stroke-opacity: 0.3; stroke-width: 0.8; stroke-linecap: square"/>
     </g>
     <g id="line2d_2">
      <defs>
       <path id="mc3cb4247f6" d="M 0 0 
L 0 3.5 
" style="stroke: #000000; stroke-width: 0.8"/>
      </defs>
      <g>
       <use xlink:href="#mc3cb4247f6" x="67.659063" y="300.277969" style="stroke: #000000; stroke-width: 0.8"/>
      </g>
     </g>
     <g id="text_1">
      <!-- 0 -->
      <g transform="translate(64.477812 314.876406) scale(0.1 -0.1)">
       <defs>
        <path id="DejaVuSans-30" d="M 2034 4250 
Q 1547 4250 1301 3770 
Q 1056 3291 1056 2328 
Q 1056 1369 1301 889 
Q 1547 409 2034 409 
Q 2525 409 2770 889 
Q 3016 1369 3016 2328 
Q 3016 3291 2770 3770 
Q 2525 4250 2034 4250 
z
M 2034 4750 
Q 2819 4750 3233 4129 
Q 3647 3509 3647 2328 
Q 3647 1150 3233 529 
Q 2819 -91 2034 -91 
Q 1250 -91 836 529 
Q 422 1150 422 2328 
Q 422 3509 836 4129 
Q 1250 4750 2034 4750 
z
" transform="scale(0.015625)"/>
       </defs>
       <use xlink:href="#DejaVuSans-30"/>
      </g>
     </g>
    </g>
    <g id="xtick_2">
     <g id="line2d_3">
      <path d="M 149.477244 300.277969 
L 149.477244 23.077969 
" clip-path="url(#p202a6cb3c9)" style="fill: none; stroke: #b0b0b0; stroke-opacity: 0.3; stroke-width: 0.8; stroke-linecap: square"/>
     </g>
     <g id="line2d_4">
      <g>
       <use xlink:href="#mc3cb4247f6" x="149.477244" y="300.277969" style="stroke: #000000; stroke-width: 0.8"/>
      </g>
     </g>
     <g id="text_2">
      <!-- 50 -->
      <g transform="translate(143.114744 314.876406) scale(0.1 -0.1)">
       <defs>
        <path id="DejaVuSans-35" d="M 691 4666 
L 3169 4666 
L 3169 4134 
L 1269 4134 
L 1269 2991 
Q 1406 3038 1543 3061 
Q 1681 3084 1819 3084 
Q 2600 3084 3056 2656 
Q 3513 2228 3513 1497 
Q 3513 744 3044 326 
Q 2575 -91 1722 -91 
Q 1428 -91 1123 -41 
Q 819 9 494 109 
L 494 744 
Q 775 591 1075 516 
Q 1375 441 1709 441 
Q 2250 441 2565 725 
Q 2881 1009 2881 1497 
Q 2881 1984 2565 2268 
Q 2250 2553 1709 2553 
Q 1456 2553 1204 2497 
Q 953 2441 691 2322 
L 691 4666 
z
" transform="scale(0.015625)"/>
       </defs>
       <use xlink:href="#DejaVuSans-35"/>
       <use xlink:href="#DejaVuSans-30" transform="translate(63.623047 0)"/>
      </g>
     </g>
    </g>
    <g id="xtick_3">
     <g id="line2d_5">
      <path d="M 231.295426 300.277969 
L 231.295426 23.077969 
" clip-path="url(#p202a6cb3c9)" style="fill: none; stroke: #b0b0b0; stroke-opacity: 0.3; stroke-width: 0.8; stroke-linecap: square"/>
     </g>
     <g id="line2d_6">
      <g>
       <use xlink:href="#mc3cb4247f6" x="231.295426" y="300.277969" style="stroke: #000000; stroke-width: 0.8"/>
      </g>
     </g>
     <g id="text_3">
      <!-- 100 -->
      <g transform="translate(221.751676 314.876406) scale(0.1 -0.1)">
       <defs>
        <path id="DejaVuSans-31" d="M 794 531 
L 1825 531 
L 1825 4091 
L 703 3866 
L 703 4441 
L 1819 4666 
L 2450 4666 
L 2450 531 
L 3481 531 
L 3481 0 
L 794 0 
L 794 531 
z
" transform="scale(0.015625)"/>
       </defs>
       <use xlink:href="#DejaVuSans-31"/>
       <use xlink:href="#DejaVuSans-30" transform="translate(63.623047 0)"/>
       <use xlink:href="#DejaVuSans-30" transform="translate(127.246094 0)"/>
      </g>
     </g>
    </g>
    <g id="xtick_4">
     <g id="line2d_7">
      <path d="M 313.113608 300.277969 
L 313.113608 23.077969 
" clip-path="url(#p202a6cb3c9)" style="fill: none; stroke: #b0b0b0; stroke-opacity: 0.3; stroke-width: 0.8; stroke-linecap: square"/>
     </g>
     <g id="line2d_8">
      <g>
       <use xlink:href="#mc3cb4247f6" x="313.113608" y="300.277969" style="stroke: #000000; stroke-width: 0.8"/>
      </g>
     </g>
     <g id="text_4">
      <!-- 150 -->
      <g transform="translate(303.569858 314.876406) scale(0.1 -0.1)">
       <use xlink:href="#DejaVuSans-31"/>
       <use xlink:href="#DejaVuSans-35" transform="translate(63.623047 0)"/>
       <use xlink:href="#DejaVuSans-30" transform="translate(127.246094 0)"/>
      </g>
     </g>
    </g>
    <g id="xtick_5">
     <g id="line2d_9">
      <path d="M 394.93179 300.277969 
L 394.93179 23.077969 
" clip-path="url(#p202a6cb3c9)" style="fill: none; stroke: #b0b0b0; stroke-opacity: 0.3; stroke-width: 0.8; stroke-linecap: square"/>
     </g>
     <g id="line2d_10">
      <g>
       <use xlink:href="#mc3cb4247f6" x="394.93179" y="300.277969" style="stroke: #000000; stroke-width: 0.8"/>
      </g>
     </g>
     <g id="text_5">
      <!-- 200 -->
      <g transform="translate(385.38804 314.876406) scale(0.1 -0.1)">
       <defs>
        <path id="DejaVuSans-32" d="M 1228 531 
L 3431 531 
L 3431 0 
L 469 0 
L 469 531 
Q 828 903 1448 1529 
Q 2069 2156 2228 2338 
Q 2531 2678 2651 2914 
Q 2772 3150 2772 3378 
Q 2772 3750 2511 3984 
Q 2250 4219 1831 4219 
Q 1534 4219 1204 4116 
Q 875 4013 500 3803 
L 500 4441 
Q 881 4594 1212 4672 
Q 1544 4750 1819 4750 
Q 2544 4750 2975 4387 
Q 3406 4025 3406 3419 
Q 3406 3131 3298 2873 
Q 3191 2616 2906 2266 
Q 2828 2175 2409 1742 
Q 1991 1309 1228 531 
z
" transform="scale(0.015625)"/>
       </defs>
       <use xlink:href="#DejaVuSans-32"/>
       <use xlink:href="#DejaVuSans-30" transform="translate(63.623047 0)"/>
       <use xlink:href="#DejaVuSans-30" transform="translate(127.246094 0)"/>
      </g>
     </g>
    </g>
    <g id="xtick_6">
     <g id="line2d_11">
      <path d="M 476.749972 300.277969 
L 476.749972 23.077969 
" clip-path="url(#p202a6cb3c9)" style="fill: none; stroke: #b0b0b0; stroke-opacity: 0.3; stroke-width: 0.8; stroke-linecap: square"/>
     </g>
     <g id="line2d_12">
      <g>
       <use xlink:href="#mc3cb4247f6" x="476.749972" y="300.277969" style="stroke: #000000; stroke-width: 0.8"/>
      </g>
     </g>
     <g id="text_6">
      <!-- 250 -->
      <g transform="translate(467.206222 314.876406) scale(0.1 -0.1)">
       <use xlink:href="#DejaVuSans-32"/>
       <use xlink:href="#DejaVuSans-35" transform="translate(63.623047 0)"/>
       <use xlink:href="#DejaVuSans-30" transform="translate(127.246094 0)"/>
      </g>
     </g>
    </g>
    <g id="text_7">
     <!-- Hidden dim -->
     <g transform="translate(249.140312 330.074219) scale(0.12 -0.12)">
      <defs>
       <path id="DejaVuSans-48" d="M 628 4666 
L 1259 4666 
L 1259 2753 
L 3553 2753 
L 3553 4666 
L 4184 4666 
L 4184 0 
L 3553 0 
L 3553 2222 
L 1259 2222 
L 1259 0 
L 628 0 
L 628 4666 
z
" transform="scale(0.015625)"/>
       <path id="DejaVuSans-69" d="M 603 3500 
L 1178 3500 
L 1178 0 
L 603 0 
L 603 3500 
z
M 603 4863 
L 1178 4863 
L 1178 4134 
L 603 4134 
L 603 4863 
z
" transform="scale(0.015625)"/>
       <path id="DejaVuSans-64" d="M 2906 2969 
L 2906 4863 
L 3481 4863 
L 3481 0 
L 2906 0 
L 2906 525 
Q 2725 213 2448 61 
Q 2172 -91 1784 -91 
Q 1150 -91 751 415 
Q 353 922 353 1747 
Q 353 2572 751 3078 
Q 1150 3584 1784 3584 
Q 2172 3584 2448 3432 
Q 2725 3281 2906 2969 
z
M 947 1747 
Q 947 1113 1208 752 
Q 1469 391 1925 391 
Q 2381 391 2643 752 
Q 2906 1113 2906 1747 
Q 2906 2381 2643 2742 
Q 2381 3103 1925 3103 
Q 1469 3103 1208 2742 
Q 947 2381 947 1747 
z
" transform="scale(0.015625)"/>
       <path id="DejaVuSans-65" d="M 3597 1894 
L 3597 1613 
L 953 1613 
Q 991 1019 1311 708 
Q 1631 397 2203 397 
Q 2534 397 2845 478 
Q 3156 559 3463 722 
L 3463 178 
Q 3153 47 2828 -22 
Q 2503 -91 2169 -91 
Q 1331 -91 842 396 
Q 353 884 353 1716 
Q 353 2575 817 3079 
Q 1281 3584 2069 3584 
Q 2775 3584 3186 3129 
Q 3597 2675 3597 1894 
z
M 3022 2063 
Q 3016 2534 2758 2815 
Q 2500 3097 2075 3097 
Q 1594 3097 1305 2825 
Q 1016 2553 972 2059 
L 3022 2063 
z
" transform="scale(0.015625)"/>
       <path id="DejaVuSans-6e" d="M 3513 2113 
L 3513 0 
L 2938 0 
L 2938 2094 
Q 2938 2591 2744 2837 
Q 2550 3084 2163 3084 
Q 1697 3084 1428 2787 
Q 1159 2491 1159 1978 
L 1159 0 
L 581 0 
L 581 3500 
L 1159 3500 
L 1159 2956 
Q 1366 3272 1645 3428 
Q 1925 3584 2291 3584 
Q 2894 3584 3203 3211 
Q 3513 2838 3513 2113 
z
" transform="scale(0.015625)"/>
       <path id="DejaVuSans-20" transform="scale(0.015625)"/>
       <path id="DejaVuSans-6d" d="M 3328 2828 
Q 3544 3216 3844 3400 
Q 4144 3584 4550 3584 
Q 5097 3584 5394 3201 
Q 5691 2819 5691 2113 
L 5691 0 
L 5113 0 
L 5113 2094 
Q 5113 2597 4934 2840 
Q 4756 3084 4391 3084 
Q 3944 3084 3684 2787 
Q 3425 2491 3425 1978 
L 3425 0 
L 2847 0 
L 2847 2094 
Q 2847 2600 2669 2842 
Q 2491 3084 2119 3084 
Q 1678 3084 1418 2786 
Q 1159 2488 1159 1978 
L 1159 0 
L 581 0 
L 581 3500 
L 1159 3500 
L 1159 2956 
Q 1356 3278 1631 3431 
Q 1906 3584 2284 3584 
Q 2666 3584 2933 3390 
Q 3200 3197 3328 2828 
z
" transform="scale(0.015625)"/>
      </defs>
      <use xlink:href="#DejaVuSans-48"/>
      <use xlink:href="#DejaVuSans-69" transform="translate(75.195312 0)"/>
      <use xlink:href="#DejaVuSans-64" transform="translate(102.978516 0)"/>
      <use xlink:href="#DejaVuSans-64" transform="translate(166.455078 0)"/>
      <use xlink:href="#DejaVuSans-65" transform="translate(229.931641 0)"/>
      <use xlink:href="#DejaVuSans-6e" transform="translate(291.455078 0)"/>
      <use xlink:href="#DejaVuSans-20" transform="translate(354.833984 0)"/>
      <use xlink:href="#DejaVuSans-64" transform="translate(386.621094 0)"/>
      <use xlink:href="#DejaVuSans-69" transform="translate(450.097656 0)"/>
      <use xlink:href="#DejaVuSans-6d" transform="translate(477.880859 0)"/>
     </g>
    </g>
   </g>
   <g id="matplotlib.axis_2">
    <g id="ytick_1">
     <g id="line2d_13">
      <path d="M 60.459063 268.233198 
L 506.859062 268.233198 
" clip-path="url(#p202a6cb3c9)" style="fill: none; stroke: #b0b0b0; stroke-opacity: 0.3; stroke-width: 0.8; stroke-linecap: square"/>
     </g>
     <g id="line2d_14">
      <defs>
       <path id="m2f6466feea" d="M 0 0 
L -3.5 0 
" style="stroke: #000000; stroke-width: 0.8"/>
      </defs>
      <g>
       <use xlink:href="#m2f6466feea" x="60.459063" y="268.233198" style="stroke: #000000; stroke-width: 0.8"/>
      </g>
     </g>
     <g id="text_8">
      <!-- −0.60 -->
      <g transform="translate(22.81375 272.032417) scale(0.1 -0.1)">
       <defs>
        <path id="DejaVuSans-2212" d="M 678 2272 
L 4684 2272 
L 4684 1741 
L 678 1741 
L 678 2272 
z
" transform="scale(0.015625)"/>
        <path id="DejaVuSans-2e" d="M 684 794 
L 1344 794 
L 1344 0 
L 684 0 
L 684 794 
z
" transform="scale(0.015625)"/>
        <path id="DejaVuSans-36" d="M 2113 2584 
Q 1688 2584 1439 2293 
Q 1191 2003 1191 1497 
Q 1191 994 1439 701 
Q 1688 409 2113 409 
Q 2538 409 2786 701 
Q 3034 994 3034 1497 
Q 3034 2003 2786 2293 
Q 2538 2584 2113 2584 
z
M 3366 4563 
L 3366 3988 
Q 3128 4100 2886 4159 
Q 2644 4219 2406 4219 
Q 1781 4219 1451 3797 
Q 1122 3375 1075 2522 
Q 1259 2794 1537 2939 
Q 1816 3084 2150 3084 
Q 2853 3084 3261 2657 
Q 3669 2231 3669 1497 
Q 3669 778 3244 343 
Q 2819 -91 2113 -91 
Q 1303 -91 875 529 
Q 447 1150 447 2328 
Q 447 3434 972 4092 
Q 1497 4750 2381 4750 
Q 2619 4750 2861 4703 
Q 3103 4656 3366 4563 
z
" transform="scale(0.015625)"/>
       </defs>
       <use xlink:href="#DejaVuSans-2212"/>
       <use xlink:href="#DejaVuSans-30" transform="translate(83.789062 0)"/>
       <use xlink:href="#DejaVuSans-2e" transform="translate(147.412109 0)"/>
       <use xlink:href="#DejaVuSans-36" transform="translate(179.199219 0)"/>
       <use xlink:href="#DejaVuSans-30" transform="translate(242.822266 0)"/>
      </g>
     </g>
    </g>
    <g id="ytick_2">
     <g id="line2d_15">
      <path d="M 60.459063 234.436466 
L 506.859062 234.436466 
" clip-path="url(#p202a6cb3c9)" style="fill: none; stroke: #b0b0b0; stroke-opacity: 0.3; stroke-width: 0.8; stroke-linecap: square"/>
     </g>
     <g id="line2d_16">
      <g>
       <use xlink:href="#m2f6466feea" x="60.459063" y="234.436466" style="stroke: #000000; stroke-width: 0.8"/>
      </g>
     </g>
     <g id="text_9">
      <!-- −0.55 -->
      <g transform="translate(22.81375 238.235685) scale(0.1 -0.1)">
       <use xlink:href="#DejaVuSans-2212"/>
       <use xlink:href="#DejaVuSans-30" transform="translate(83.789062 0)"/>
       <use xlink:href="#DejaVuSans-2e" transform="translate(147.412109 0)"/>
       <use xlink:href="#DejaVuSans-35" transform="translate(179.199219 0)"/>
       <use xlink:href="#DejaVuSans-35" transform="translate(242.822266 0)"/>
      </g>
     </g>
    </g>
    <g id="ytick_3">
     <g id="line2d_17">
      <path d="M 60.459063 200.639735 
L 506.859062 200.639735 
" clip-path="url(#p202a6cb3c9)" style="fill: none; stroke: #b0b0b0; stroke-opacity: 0.3; stroke-width: 0.8; stroke-linecap: square"/>
     </g>
     <g id="line2d_18">
      <g>
       <use xlink:href="#m2f6466feea" x="60.459063" y="200.639735" style="stroke: #000000; stroke-width: 0.8"/>
      </g>
     </g>
     <g id="text_10">
      <!-- −0.50 -->
      <g transform="translate(22.81375 204.438953) scale(0.1 -0.1)">
       <use xlink:href="#DejaVuSans-2212"/>
       <use xlink:href="#DejaVuSans-30" transform="translate(83.789062 0)"/>
       <use xlink:href="#DejaVuSans-2e" transform="translate(147.412109 0)"/>
       <use xlink:href="#DejaVuSans-35" transform="translate(179.199219 0)"/>
       <use xlink:href="#DejaVuSans-30" transform="translate(242.822266 0)"/>
      </g>
     </g>
    </g>
    <g id="ytick_4">
     <g id="line2d_19">
      <path d="M 60.459063 166.843003 
L 506.859062 166.843003 
" clip-path="url(#p202a6cb3c9)" style="fill: none; stroke: #b0b0b0; stroke-opacity: 0.3; stroke-width: 0.8; stroke-linecap: square"/>
     </g>
     <g id="line2d_20">
      <g>
       <use xlink:href="#m2f6466feea" x="60.459063" y="166.843003" style="stroke: #000000; stroke-width: 0.8"/>
      </g>
     </g>
     <g id="text_11">
      <!-- −0.45 -->
      <g transform="translate(22.81375 170.642222) scale(0.1 -0.1)">
       <defs>
        <path id="DejaVuSans-34" d="M 2419 4116 
L 825 1625 
L 2419 1625 
L 2419 4116 
z
M 2253 4666 
L 3047 4666 
L 3047 1625 
L 3713 1625 
L 3713 1100 
L 3047 1100 
L 3047 0 
L 2419 0 
L 2419 1100 
L 313 1100 
L 313 1709 
L 2253 4666 
z
" transform="scale(0.015625)"/>
       </defs>
       <use xlink:href="#DejaVuSans-2212"/>
       <use xlink:href="#DejaVuSans-30" transform="translate(83.789062 0)"/>
       <use xlink:href="#DejaVuSans-2e" transform="translate(147.412109 0)"/>
       <use xlink:href="#DejaVuSans-34" transform="translate(179.199219 0)"/>
       <use xlink:href="#DejaVuSans-35" transform="translate(242.822266 0)"/>
      </g>
     </g>
    </g>
    <g id="ytick_5">
     <g id="line2d_21">
      <path d="M 60.459063 133.046271 
L 506.859062 133.046271 
" clip-path="url(#p202a6cb3c9)" style="fill: none; stroke: #b0b0b0; stroke-opacity: 0.3; stroke-width: 0.8; stroke-linecap: square"/>
     </g>
     <g id="line2d_22">
      <g>
       <use xlink:href="#m2f6466feea" x="60.459063" y="133.046271" style="stroke: #000000; stroke-width: 0.8"/>
      </g>
     </g>
     <g id="text_12">
      <!-- −0.40 -->
      <g transform="translate(22.81375 136.84549) scale(0.1 -0.1)">
       <use xlink:href="#DejaVuSans-2212"/>
       <use xlink:href="#DejaVuSans-30" transform="translate(83.789062 0)"/>
       <use xlink:href="#DejaVuSans-2e" transform="translate(147.412109 0)"/>
       <use xlink:href="#DejaVuSans-34" transform="translate(179.199219 0)"/>
       <use xlink:href="#DejaVuSans-30" transform="translate(242.822266 0)"/>
      </g>
     </g>
    </g>
    <g id="ytick_6">
     <g id="line2d_23">
      <path d="M 60.459063 99.24954 
L 506.859062 99.24954 
" clip-path="url(#p202a6cb3c9)" style="fill: none; stroke: #b0b0b0; stroke-opacity: 0.3; stroke-width: 0.8; stroke-linecap: square"/>
     </g>
     <g id="line2d_24">
      <g>
       <use xlink:href="#m2f6466feea" x="60.459063" y="99.24954" style="stroke: #000000; stroke-width: 0.8"/>
      </g>
     </g>
     <g id="text_13">
      <!-- −0.35 -->
      <g transform="translate(22.81375 103.048758) scale(0.1 -0.1)">
       <defs>
        <path id="DejaVuSans-33" d="M 2597 2516 
Q 3050 2419 3304 2112 
Q 3559 1806 3559 1356 
Q 3559 666 3084 287 
Q 2609 -91 1734 -91 
Q 1441 -91 1130 -33 
Q 819 25 488 141 
L 488 750 
Q 750 597 1062 519 
Q 1375 441 1716 441 
Q 2309 441 2620 675 
Q 2931 909 2931 1356 
Q 2931 1769 2642 2001 
Q 2353 2234 1838 2234 
L 1294 2234 
L 1294 2753 
L 1863 2753 
Q 2328 2753 2575 2939 
Q 2822 3125 2822 3475 
Q 2822 3834 2567 4026 
Q 2313 4219 1838 4219 
Q 1578 4219 1281 4162 
Q 984 4106 628 3988 
L 628 4550 
Q 988 4650 1302 4700 
Q 1616 4750 1894 4750 
Q 2613 4750 3031 4423 
Q 3450 4097 3450 3541 
Q 3450 3153 3228 2886 
Q 3006 2619 2597 2516 
z
" transform="scale(0.015625)"/>
       </defs>
       <use xlink:href="#DejaVuSans-2212"/>
       <use xlink:href="#DejaVuSans-30" transform="translate(83.789062 0)"/>
       <use xlink:href="#DejaVuSans-2e" transform="translate(147.412109 0)"/>
       <use xlink:href="#DejaVuSans-33" transform="translate(179.199219 0)"/>
       <use xlink:href="#DejaVuSans-35" transform="translate(242.822266 0)"/>
      </g>
     </g>
    </g>
    <g id="ytick_7">
     <g id="line2d_25">
      <path d="M 60.459063 65.452808 
L 506.859062 65.452808 
" clip-path="url(#p202a6cb3c9)" style="fill: none; stroke: #b0b0b0; stroke-opacity: 0.3; stroke-width: 0.8; stroke-linecap: square"/>
     </g>
     <g id="line2d_26">
      <g>
       <use xlink:href="#m2f6466feea" x="60.459063" y="65.452808" style="stroke: #000000; stroke-width: 0.8"/>
      </g>
     </g>
     <g id="text_14">
      <!-- −0.30 -->
      <g transform="translate(22.81375 69.252027) scale(0.1 -0.1)">
       <use xlink:href="#DejaVuSans-2212"/>
       <use xlink:href="#DejaVuSans-30" transform="translate(83.789062 0)"/>
       <use xlink:href="#DejaVuSans-2e" transform="translate(147.412109 0)"/>
       <use xlink:href="#DejaVuSans-33" transform="translate(179.199219 0)"/>
       <use xlink:href="#DejaVuSans-30" transform="translate(242.822266 0)"/>
      </g>
     </g>
    </g>
    <g id="ytick_8">
     <g id="line2d_27">
      <path d="M 60.459063 31.656076 
L 506.859062 31.656076 
" clip-path="url(#p202a6cb3c9)" style="fill: none; stroke: #b0b0b0; stroke-opacity: 0.3; stroke-width: 0.8; stroke-linecap: square"/>
     </g>
     <g id="line2d_28">
      <g>
       <use xlink:href="#m2f6466feea" x="60.459063" y="31.656076" style="stroke: #000000; stroke-width: 0.8"/>
      </g>
     </g>
     <g id="text_15">
      <!-- −0.25 -->
      <g transform="translate(22.81375 35.455295) scale(0.1 -0.1)">
       <use xlink:href="#DejaVuSans-2212"/>
       <use xlink:href="#DejaVuSans-30" transform="translate(83.789062 0)"/>
       <use xlink:href="#DejaVuSans-2e" transform="translate(147.412109 0)"/>
       <use xlink:href="#DejaVuSans-32" transform="translate(179.199219 0)"/>
       <use xlink:href="#DejaVuSans-35" transform="translate(242.822266 0)"/>
      </g>
     </g>
    </g>
    <g id="text_16">
     <!-- -Loss -->
     <g transform="translate(16.318125 177.003281) rotate(-90) scale(0.12 -0.12)">
      <defs>
       <path id="DejaVuSans-2d" d="M 313 2009 
L 1997 2009 
L 1997 1497 
L 313 1497 
L 313 2009 
z
" transform="scale(0.015625)"/>
       <path id="DejaVuSans-4c" d="M 628 4666 
L 1259 4666 
L 1259 531 
L 3531 531 
L 3531 0 
L 628 0 
L 628 4666 
z
" transform="scale(0.015625)"/>
       <path id="DejaVuSans-6f" d="M 1959 3097 
Q 1497 3097 1228 2736 
Q 959 2375 959 1747 
Q 959 1119 1226 758 
Q 1494 397 1959 397 
Q 2419 397 2687 759 
Q 2956 1122 2956 1747 
Q 2956 2369 2687 2733 
Q 2419 3097 1959 3097 
z
M 1959 3584 
Q 2709 3584 3137 3096 
Q 3566 2609 3566 1747 
Q 3566 888 3137 398 
Q 2709 -91 1959 -91 
Q 1206 -91 779 398 
Q 353 888 353 1747 
Q 353 2609 779 3096 
Q 1206 3584 1959 3584 
z
" transform="scale(0.015625)"/>
       <path id="DejaVuSans-73" d="M 2834 3397 
L 2834 2853 
Q 2591 2978 2328 3040 
Q 2066 3103 1784 3103 
Q 1356 3103 1142 2972 
Q 928 2841 928 2578 
Q 928 2378 1081 2264 
Q 1234 2150 1697 2047 
L 1894 2003 
Q 2506 1872 2764 1633 
Q 3022 1394 3022 966 
Q 3022 478 2636 193 
Q 2250 -91 1575 -91 
Q 1294 -91 989 -36 
Q 684 19 347 128 
L 347 722 
Q 666 556 975 473 
Q 1284 391 1588 391 
Q 1994 391 2212 530 
Q 2431 669 2431 922 
Q 2431 1156 2273 1281 
Q 2116 1406 1581 1522 
L 1381 1569 
Q 847 1681 609 1914 
Q 372 2147 372 2553 
Q 372 3047 722 3315 
Q 1072 3584 1716 3584 
Q 2034 3584 2315 3537 
Q 2597 3491 2834 3397 
z
" transform="scale(0.015625)"/>
      </defs>
      <use xlink:href="#DejaVuSans-2d"/>
      <use xlink:href="#DejaVuSans-4c" transform="translate(36.083984 0)"/>
      <use xlink:href="#DejaVuSans-6f" transform="translate(90.046875 0)"/>
      <use xlink:href="#DejaVuSans-73" transform="translate(151.228516 0)"/>
      <use xlink:href="#DejaVuSans-73" transform="translate(203.328125 0)"/>
     </g>
    </g>
   </g>
   <g id="line2d_29">
    <path d="M 80.749972 287.677969 
L 282.022699 138.261564 
L 283.659063 132.580618 
L 306.568153 120.067584 
L 308.204517 81.116378 
L 313.113608 113.209148 
L 314.749972 101.300571 
L 316.386335 94.819367 
L 318.022699 139.713749 
L 319.659063 92.944369 
L 321.295426 102.561179 
L 332.749972 84.756951 
L 334.386335 92.202854 
L 383.477244 71.897145 
L 385.113608 73.693685 
L 435.840881 50.818697 
L 437.477244 59.983832 
L 439.113608 60.867611 
L 440.749972 84.785935 
L 442.386335 59.428664 
L 444.022699 64.132621 
L 445.659063 55.254392 
L 447.295426 59.094124 
L 448.93179 52.46494 
L 450.568153 62.069669 
L 452.204517 64.622194 
L 453.840881 62.466262 
L 455.477244 40.137903 
L 457.113608 63.608164 
L 458.749972 56.893799 
L 460.386335 66.155157 
L 462.022699 53.30095 
L 463.659063 62.555764 
L 465.295426 56.933424 
L 466.93179 65.405159 
L 468.568153 35.677969 
L 470.204517 63.09957 
L 471.840881 49.01693 
L 473.477244 52.098093 
L 475.113608 58.469879 
L 476.749972 54.635334 
L 478.386335 57.553694 
L 480.022699 53.851658 
L 481.659063 39.498207 
L 483.295426 47.462681 
L 484.93179 59.243756 
L 486.568153 45.516719 
" clip-path="url(#p202a6cb3c9)" style="fill: none; stroke: #2196f3; stroke-width: 2; stroke-linecap: square"/>
    <defs>
     <path id="mf18a9483cf" d="M 0 2 
C 0.530406 2 1.03916 1.789267 1.414214 1.414214 
C 1.789267 1.03916 2 0.530406 2 0 
C 2 -0.530406 1.789267 -1.03916 1.414214 -1.414214 
C 1.03916 -1.789267 0.530406 -2 0 -2 
C -0.530406 -2 -1.03916 -1.789267 -1.414214 -1.414214 
C -1.789267 -1.03916 -2 -0.530406 -2 0 
C -2 0.530406 -1.789267 1.03916 -1.414214 1.414214 
C -1.03916 1.789267 -0.530406 2 0 2 
z
" style="stroke: #2196f3"/>
    </defs>
    <g clip-path="url(#p202a6cb3c9)">
     <use xlink:href="#mf18a9483cf" x="80.749972" y="287.677969" style="fill: #2196f3; stroke: #2196f3"/>
     <use xlink:href="#mf18a9483cf" x="282.022699" y="138.261564" style="fill: #2196f3; stroke: #2196f3"/>
     <use xlink:href="#mf18a9483cf" x="283.659063" y="132.580618" style="fill: #2196f3; stroke: #2196f3"/>
     <use xlink:href="#mf18a9483cf" x="306.568153" y="120.067584" style="fill: #2196f3; stroke: #2196f3"/>
     <use xlink:href="#mf18a9483cf" x="308.204517" y="81.116378" style="fill: #2196f3; stroke: #2196f3"/>
     <use xlink:href="#mf18a9483cf" x="313.113608" y="113.209148" style="fill: #2196f3; stroke: #2196f3"/>
     <use xlink:href="#mf18a9483cf" x="314.749972" y="101.300571" style="fill: #2196f3; stroke: #2196f3"/>
     <use xlink:href="#mf18a9483cf" x="316.386335" y="94.819367" style="fill: #2196f3; stroke: #2196f3"/>
     <use xlink:href="#mf18a9483cf" x="318.022699" y="139.713749" style="fill: #2196f3; stroke: #2196f3"/>
     <use xlink:href="#mf18a9483cf" x="319.659063" y="92.944369" style="fill: #2196f3; stroke: #2196f3"/>
     <use xlink:href="#mf18a9483cf" x="321.295426" y="102.561179" style="fill: #2196f3; stroke: #2196f3"/>
     <use xlink:href="#mf18a9483cf" x="332.749972" y="84.756951" style="fill: #2196f3; stroke: #2196f3"/>
     <use xlink:href="#mf18a9483cf" x="334.386335" y="92.202854" style="fill: #2196f3; stroke: #2196f3"/>
     <use xlink:href="#mf18a9483cf" x="383.477244" y="71.897145" style="fill: #2196f3; stroke: #2196f3"/>
     <use xlink:href="#mf18a9483cf" x="385.113608" y="73.693685" style="fill: #2196f3; stroke: #2196f3"/>
     <use xlink:href="#mf18a9483cf" x="435.840881" y="50.818697" style="fill: #2196f3; stroke: #2196f3"/>
     <use xlink:href="#mf18a9483cf" x="437.477244" y="59.983832" style="fill: #2196f3; stroke: #2196f3"/>
     <use xlink:href="#mf18a9483cf" x="439.113608" y="60.867611" style="fill: #2196f3; stroke: #2196f3"/>
     <use xlink:href="#mf18a9483cf" x="440.749972" y="84.785935" style="fill: #2196f3; stroke: #2196f3"/>
     <use xlink:href="#mf18a9483cf" x="442.386335" y="59.428664" style="fill: #2196f3; stroke: #2196f3"/>
     <use xlink:href="#mf18a9483cf" x="444.022699" y="64.132621" style="fill: #2196f3; stroke: #2196f3"/>
     <use xlink:href="#mf18a9483cf" x="445.659063" y="55.254392" style="fill: #2196f3; stroke: #2196f3"/>
     <use xlink:href="#mf18a9483cf" x="447.295426" y="59.094124" style="fill: #2196f3; stroke: #2196f3"/>
     <use xlink:href="#mf18a9483cf" x="448.93179" y="52.46494" style="fill: #2196f3; stroke: #2196f3"/>
     <use xlink:href="#mf18a9483cf" x="450.568153" y="62.069669" style="fill: #2196f3; stroke: #2196f3"/>
     <use xlink:href="#mf18a9483cf" x="452.204517" y="64.622194" style="fill: #2196f3; stroke: #2196f3"/>
     <use xlink:href="#mf18a9483cf" x="453.840881" y="62.466262" style="fill: #2196f3; stroke: #2196f3"/>
     <use xlink:href="#mf18a9483cf" x="455.477244" y="40.137903" style="fill: #2196f3; stroke: #2196f3"/>
     <use xlink:href="#mf18a9483cf" x="457.113608" y="63.608164" style="fill: #2196f3; stroke: #2196f3"/>
     <use xlink:href="#mf18a9483cf" x="458.749972" y="56.893799" style="fill: #2196f3; stroke: #2196f3"/>
     <use xlink:href="#mf18a9483cf" x="460.386335" y="66.155157" style="fill: #2196f3; stroke: #2196f3"/>
     <use xlink:href="#mf18a9483cf" x="462.022699" y="53.30095" style="fill: #2196f3; stroke: #2196f3"/>
     <use xlink:href="#mf18a9483cf" x="463.659063" y="62.555764" style="fill: #2196f3; stroke: #2196f3"/>
     <use xlink:href="#mf18a9483cf" x="465.295426" y="56.933424" style="fill: #2196f3; stroke: #2196f3"/>
     <use xlink:href="#mf18a9483cf" x="466.93179" y="65.405159" style="fill: #2196f3; stroke: #2196f3"/>
     <use xlink:href="#mf18a9483cf" x="468.568153" y="35.677969" style="fill: #2196f3; stroke: #2196f3"/>
     <use xlink:href="#mf18a9483cf" x="470.204517" y="63.09957" style="fill: #2196f3; stroke: #2196f3"/>
     <use xlink:href="#mf18a9483cf" x="471.840881" y="49.01693" style="fill: #2196f3; stroke: #2196f3"/>
     <use xlink:href="#mf18a9483cf" x="473.477244" y="52.098093" style="fill: #2196f3; stroke: #2196f3"/>
     <use xlink:href="#mf18a9483cf" x="475.113608" y="58.469879" style="fill: #2196f3; stroke: #2196f3"/>
     <use xlink:href="#mf18a9483cf" x="476.749972" y="54.635334" style="fill: #2196f3; stroke: #2196f3"/>
     <use xlink:href="#mf18a9483cf" x="478.386335" y="57.553694" style="fill: #2196f3; stroke: #2196f3"/>
     <use xlink:href="#mf18a9483cf" x="480.022699" y="53.851658" style="fill: #2196f3; stroke: #2196f3"/>
     <use xlink:href="#mf18a9483cf" x="481.659063" y="39.498207" style="fill: #2196f3; stroke: #2196f3"/>
     <use xlink:href="#mf18a9483cf" x="483.295426" y="47.462681" style="fill: #2196f3; stroke: #2196f3"/>
     <use xlink:href="#mf18a9483cf" x="484.93179" y="59.243756" style="fill: #2196f3; stroke: #2196f3"/>
     <use xlink:href="#mf18a9483cf" x="486.568153" y="45.516719" style="fill: #2196f3; stroke: #2196f3"/>
    </g>
   </g>
   <g id="line2d_30">
    <path d="M 468.568153 300.277969 
L 468.568153 23.077969 
" clip-path="url(#p202a6cb3c9)" style="fill: none; stroke-dasharray: 7.4,3.2; stroke-dashoffset: 0; stroke: #f44336; stroke-width: 2"/>
   </g>
   <g id="patch_3">
    <path d="M 60.459063 300.277969 
L 60.459063 23.077969 
" style="fill: none; stroke: #000000; stroke-width: 0.8; stroke-linejoin: miter; stroke-linecap: square"/>
   </g>
   <g id="patch_4">
    <path d="M 506.859062 300.277969 
L 506.859062 23.077969 
" style="fill: none; stroke: #000000; stroke-width: 0.8; stroke-linejoin: miter; stroke-linecap: square"/>
   </g>
   <g id="patch_5">
    <path d="M 60.459063 300.277969 
L 506.859062 300.277969 
" style="fill: none; stroke: #000000; stroke-width: 0.8; stroke-linejoin: miter; stroke-linecap: square"/>
   </g>
   <g id="patch_6">
    <path d="M 60.459063 23.077969 
L 506.859062 23.077969 
" style="fill: none; stroke: #000000; stroke-width: 0.8; stroke-linejoin: miter; stroke-linecap: square"/>
   </g>
   <g id="text_17">
    <g id="patch_7">
     <path d="M 78.314737 279.97375 
L 83.185206 279.97375 
Q 84.025206 279.97375 84.025206 279.13375 
L 84.025206 272.359062 
Q 84.025206 271.519062 83.185206 271.519062 
L 78.314737 271.519062 
Q 77.474737 271.519062 77.474737 272.359062 
L 77.474737 279.13375 
Q 77.474737 279.97375 78.314737 279.97375 
z
" style="fill: #ffffff; opacity: 0.85; stroke: #795548; stroke-width: 0.4; stroke-linejoin: miter"/>
    </g>
    <!-- 1 -->
    <g style="fill: #795548" transform="translate(78.314737 277.677969) scale(0.07 -0.07)">
     <defs>
      <path id="DejaVuSans-Bold-31" d="M 750 831 
L 1813 831 
L 1813 3847 
L 722 3622 
L 722 4441 
L 1806 4666 
L 2950 4666 
L 2950 831 
L 4013 831 
L 4013 0 
L 750 0 
L 750 831 
z
" transform="scale(0.015625)"/>
     </defs>
     <use xlink:href="#DejaVuSans-Bold-31"/>
    </g>
   </g>
   <g id="text_18">
    <g id="patch_8">
     <path d="M 484.132919 37.8125 
L 489.003388 37.8125 
Q 489.843388 37.8125 489.843388 36.9725 
L 489.843388 30.197812 
Q 489.843388 29.357812 489.003388 29.357812 
L 484.132919 29.357812 
Q 483.292919 29.357812 483.292919 30.197812 
L 483.292919 36.9725 
Q 483.292919 37.8125 484.132919 37.8125 
z
" style="fill: #ffffff; opacity: 0.85; stroke: #795548; stroke-width: 0.4; stroke-linejoin: miter"/>
    </g>
    <!-- 2 -->
    <g style="fill: #795548" transform="translate(484.132919 35.516719) scale(0.07 -0.07)">
     <defs>
      <path id="DejaVuSans-Bold-32" d="M 1844 884 
L 3897 884 
L 3897 0 
L 506 0 
L 506 884 
L 2209 2388 
Q 2438 2594 2547 2791 
Q 2656 2988 2656 3200 
Q 2656 3528 2436 3728 
Q 2216 3928 1850 3928 
Q 1569 3928 1234 3808 
Q 900 3688 519 3450 
L 519 4475 
Q 925 4609 1322 4679 
Q 1719 4750 2100 4750 
Q 2938 4750 3402 4381 
Q 3866 4013 3866 3353 
Q 3866 2972 3669 2642 
Q 3472 2313 2841 1759 
L 1844 884 
z
" transform="scale(0.015625)"/>
     </defs>
     <use xlink:href="#DejaVuSans-Bold-32"/>
    </g>
   </g>
   <g id="text_19">
    <g id="patch_9">
     <path d="M 281.223828 124.8764 
L 286.094297 124.8764 
Q 286.934297 124.8764 286.934297 124.0364 
L 286.934297 117.261712 
Q 286.934297 116.421712 286.094297 116.421712 
L 281.223828 116.421712 
Q 280.383828 116.421712 280.383828 117.261712 
L 280.383828 124.0364 
Q 280.383828 124.8764 281.223828 124.8764 
z
" style="fill: #ffffff; opacity: 0.85; stroke: #4caf50; stroke-width: 0.4; stroke-linejoin: miter"/>
    </g>
    <!-- 3 -->
    <g style="fill: #4caf50" transform="translate(281.223828 122.580618) scale(0.07 -0.07)">
     <defs>
      <path id="DejaVuSans-Bold-33" d="M 2981 2516 
Q 3453 2394 3698 2092 
Q 3944 1791 3944 1325 
Q 3944 631 3412 270 
Q 2881 -91 1863 -91 
Q 1503 -91 1142 -33 
Q 781 25 428 141 
L 428 1069 
Q 766 900 1098 814 
Q 1431 728 1753 728 
Q 2231 728 2486 893 
Q 2741 1059 2741 1369 
Q 2741 1688 2480 1852 
Q 2219 2016 1709 2016 
L 1228 2016 
L 1228 2791 
L 1734 2791 
Q 2188 2791 2409 2933 
Q 2631 3075 2631 3366 
Q 2631 3634 2415 3781 
Q 2200 3928 1806 3928 
Q 1516 3928 1219 3862 
Q 922 3797 628 3669 
L 628 4550 
Q 984 4650 1334 4700 
Q 1684 4750 2022 4750 
Q 2931 4750 3382 4451 
Q 3834 4153 3834 3553 
Q 3834 3144 3618 2883 
Q 3403 2622 2981 2516 
z
" transform="scale(0.015625)"/>
     </defs>
     <use xlink:href="#DejaVuSans-Bold-33"/>
    </g>
   </g>
   <g id="text_20">
    <g id="patch_10">
     <path d="M 382.678374 65.989466 
L 387.548842 65.989466 
Q 388.388842 65.989466 388.388842 65.149466 
L 388.388842 58.374778 
Q 388.388842 57.534778 387.548842 57.534778 
L 382.678374 57.534778 
Q 381.838374 57.534778 381.838374 58.374778 
L 381.838374 65.149466 
Q 381.838374 65.989466 382.678374 65.989466 
z
" style="fill: #ffffff; opacity: 0.85; stroke: #4caf50; stroke-width: 0.4; stroke-linejoin: miter"/>
    </g>
    <!-- 4 -->
    <g style="fill: #4caf50" transform="translate(382.678374 63.693685) scale(0.07 -0.07)">
     <defs>
      <path id="DejaVuSans-Bold-34" d="M 2356 3675 
L 1038 1722 
L 2356 1722 
L 2356 3675 
z
M 2156 4666 
L 3494 4666 
L 3494 1722 
L 4159 1722 
L 4159 850 
L 3494 850 
L 3494 0 
L 2356 0 
L 2356 850 
L 288 850 
L 288 1881 
L 2156 4666 
z
" transform="scale(0.015625)"/>
     </defs>
     <use xlink:href="#DejaVuSans-Bold-34"/>
    </g>
   </g>
   <g id="text_21">
    <g id="patch_11">
     <path d="M 331.951101 84.498635 
L 336.82157 84.498635 
Q 337.66157 84.498635 337.66157 83.658635 
L 337.66157 76.883948 
Q 337.66157 76.043948 336.82157 76.043948 
L 331.951101 76.043948 
Q 331.111101 76.043948 331.111101 76.883948 
L 331.111101 83.658635 
Q 331.111101 84.498635 331.951101 84.498635 
z
" style="fill: #ffffff; opacity: 0.85; stroke: #4caf50; stroke-width: 0.4; stroke-linejoin: miter"/>
    </g>
    <!-- 5 -->
    <g style="fill: #4caf50" transform="translate(331.951101 82.202854) scale(0.07 -0.07)">
     <defs>
      <path id="DejaVuSans-Bold-35" d="M 678 4666 
L 3669 4666 
L 3669 3781 
L 1638 3781 
L 1638 3059 
Q 1775 3097 1914 3117 
Q 2053 3138 2203 3138 
Q 3056 3138 3531 2711 
Q 4006 2284 4006 1522 
Q 4006 766 3489 337 
Q 2972 -91 2053 -91 
Q 1656 -91 1267 -14 
Q 878 63 494 219 
L 494 1166 
Q 875 947 1217 837 
Q 1559 728 1863 728 
Q 2300 728 2551 942 
Q 2803 1156 2803 1522 
Q 2803 1891 2551 2103 
Q 2300 2316 1863 2316 
Q 1603 2316 1309 2248 
Q 1016 2181 678 2041 
L 678 4666 
z
" transform="scale(0.015625)"/>
     </defs>
     <use xlink:href="#DejaVuSans-Bold-35"/>
    </g>
   </g>
   <g id="text_22">
    <g id="patch_12">
     <path d="M 305.769283 73.412159 
L 310.639751 73.412159 
Q 311.479751 73.412159 311.479751 72.572159 
L 311.479751 65.797472 
Q 311.479751 64.957472 310.639751 64.957472 
L 305.769283 64.957472 
Q 304.929283 64.957472 304.929283 65.797472 
L 304.929283 72.572159 
Q 304.929283 73.412159 305.769283 73.412159 
z
" style="fill: #ffffff; opacity: 0.85; stroke: #4caf50; stroke-width: 0.4; stroke-linejoin: miter"/>
    </g>
    <!-- 6 -->
    <g style="fill: #4caf50" transform="translate(305.769283 71.116378) scale(0.07 -0.07)">
     <defs>
      <path id="DejaVuSans-Bold-36" d="M 2316 2303 
Q 2000 2303 1842 2098 
Q 1684 1894 1684 1484 
Q 1684 1075 1842 870 
Q 2000 666 2316 666 
Q 2634 666 2792 870 
Q 2950 1075 2950 1484 
Q 2950 1894 2792 2098 
Q 2634 2303 2316 2303 
z
M 3803 4544 
L 3803 3681 
Q 3506 3822 3243 3889 
Q 2981 3956 2731 3956 
Q 2194 3956 1894 3657 
Q 1594 3359 1544 2772 
Q 1750 2925 1990 3001 
Q 2231 3078 2516 3078 
Q 3231 3078 3670 2659 
Q 4109 2241 4109 1563 
Q 4109 813 3618 361 
Q 3128 -91 2303 -91 
Q 1394 -91 895 523 
Q 397 1138 397 2266 
Q 397 3422 980 4083 
Q 1563 4744 2578 4744 
Q 2900 4744 3203 4694 
Q 3506 4644 3803 4544 
z
" transform="scale(0.015625)"/>
     </defs>
     <use xlink:href="#DejaVuSans-Bold-36"/>
    </g>
   </g>
   <g id="text_23">
    <g id="patch_13">
     <path d="M 318.860192 94.856961 
L 323.730661 94.856961 
Q 324.570661 94.856961 324.570661 94.016961 
L 324.570661 87.242273 
Q 324.570661 86.402273 323.730661 86.402273 
L 318.860192 86.402273 
Q 318.020192 86.402273 318.020192 87.242273 
L 318.020192 94.016961 
Q 318.020192 94.856961 318.860192 94.856961 
z
" style="fill: #ffffff; opacity: 0.85; stroke: #4caf50; stroke-width: 0.4; stroke-linejoin: miter"/>
    </g>
    <!-- 7 -->
    <g style="fill: #4caf50" transform="translate(318.860192 92.561179) scale(0.07 -0.07)">
     <defs>
      <path id="DejaVuSans-Bold-37" d="M 428 4666 
L 3944 4666 
L 3944 3988 
L 2125 0 
L 953 0 
L 2675 3781 
L 428 3781 
L 428 4666 
z
" transform="scale(0.015625)"/>
     </defs>
     <use xlink:href="#DejaVuSans-Bold-37"/>
    </g>
   </g>
   <g id="text_24">
    <g id="patch_14">
     <path d="M 312.314737 93.596352 
L 317.185206 93.596352 
Q 318.025206 93.596352 318.025206 92.756352 
L 318.025206 85.981665 
Q 318.025206 85.141665 317.185206 85.141665 
L 312.314737 85.141665 
Q 311.474737 85.141665 311.474737 85.981665 
L 311.474737 92.756352 
Q 311.474737 93.596352 312.314737 93.596352 
z
" style="fill: #ffffff; opacity: 0.85; stroke: #4caf50; stroke-width: 0.4; stroke-linejoin: miter"/>
    </g>
    <!-- 8 -->
    <g style="fill: #4caf50" transform="translate(312.314737 91.300571) scale(0.07 -0.07)">
     <defs>
      <path id="DejaVuSans-Bold-38" d="M 2228 2088 
Q 1891 2088 1709 1903 
Q 1528 1719 1528 1375 
Q 1528 1031 1709 848 
Q 1891 666 2228 666 
Q 2563 666 2741 848 
Q 2919 1031 2919 1375 
Q 2919 1722 2741 1905 
Q 2563 2088 2228 2088 
z
M 1350 2484 
Q 925 2613 709 2878 
Q 494 3144 494 3541 
Q 494 4131 934 4440 
Q 1375 4750 2228 4750 
Q 3075 4750 3515 4442 
Q 3956 4134 3956 3541 
Q 3956 3144 3739 2878 
Q 3522 2613 3097 2484 
Q 3572 2353 3814 2058 
Q 4056 1763 4056 1313 
Q 4056 619 3595 264 
Q 3134 -91 2228 -91 
Q 1319 -91 855 264 
Q 391 619 391 1313 
Q 391 1763 633 2058 
Q 875 2353 1350 2484 
z
M 1631 3419 
Q 1631 3141 1786 2991 
Q 1941 2841 2228 2841 
Q 2509 2841 2662 2991 
Q 2816 3141 2816 3419 
Q 2816 3697 2662 3845 
Q 2509 3994 2228 3994 
Q 1941 3994 1786 3844 
Q 1631 3694 1631 3419 
z
" transform="scale(0.015625)"/>
     </defs>
     <use xlink:href="#DejaVuSans-Bold-38"/>
    </g>
   </g>
   <g id="text_25">
    <g id="patch_15">
     <path d="M 315.587464 132.00953 
L 320.457933 132.00953 
Q 321.297933 132.00953 321.297933 131.16953 
L 321.297933 124.394842 
Q 321.297933 123.554842 320.457933 123.554842 
L 315.587464 123.554842 
Q 314.747464 123.554842 314.747464 124.394842 
L 314.747464 131.16953 
Q 314.747464 132.00953 315.587464 132.00953 
z
" style="fill: #ffffff; opacity: 0.85; stroke: #4caf50; stroke-width: 0.4; stroke-linejoin: miter"/>
    </g>
    <!-- 9 -->
    <g style="fill: #4caf50" transform="translate(315.587464 129.713749) scale(0.07 -0.07)">
     <defs>
      <path id="DejaVuSans-Bold-39" d="M 641 103 
L 641 966 
Q 928 831 1190 764 
Q 1453 697 1709 697 
Q 2247 697 2547 995 
Q 2847 1294 2900 1881 
Q 2688 1725 2447 1647 
Q 2206 1569 1925 1569 
Q 1209 1569 770 1986 
Q 331 2403 331 3084 
Q 331 3838 820 4291 
Q 1309 4744 2131 4744 
Q 3044 4744 3544 4128 
Q 4044 3513 4044 2388 
Q 4044 1231 3459 570 
Q 2875 -91 1856 -91 
Q 1528 -91 1228 -42 
Q 928 6 641 103 
z
M 2125 2350 
Q 2441 2350 2600 2554 
Q 2759 2759 2759 3169 
Q 2759 3575 2600 3781 
Q 2441 3988 2125 3988 
Q 1809 3988 1650 3781 
Q 1491 3575 1491 3169 
Q 1491 2759 1650 2554 
Q 1809 2350 2125 2350 
z
" transform="scale(0.015625)"/>
     </defs>
     <use xlink:href="#DejaVuSans-Bold-39"/>
    </g>
   </g>
   <g id="text_26">
    <g id="patch_16">
     <path d="M 311.515866 87.115148 
L 321.256804 87.115148 
Q 322.096804 87.115148 322.096804 86.275148 
L 322.096804 79.500461 
Q 322.096804 78.660461 321.256804 78.660461 
L 311.515866 78.660461 
Q 310.675866 78.660461 310.675866 79.500461 
L 310.675866 86.275148 
Q 310.675866 87.115148 311.515866 87.115148 
z
" style="fill: #ffffff; opacity: 0.85; stroke: #4caf50; stroke-width: 0.4; stroke-linejoin: miter"/>
    </g>
    <!-- 10 -->
    <g style="fill: #4caf50" transform="translate(311.515866 84.819367) scale(0.07 -0.07)">
     <defs>
      <path id="DejaVuSans-Bold-30" d="M 2944 2338 
Q 2944 3213 2780 3570 
Q 2616 3928 2228 3928 
Q 1841 3928 1675 3570 
Q 1509 3213 1509 2338 
Q 1509 1453 1675 1090 
Q 1841 728 2228 728 
Q 2613 728 2778 1090 
Q 2944 1453 2944 2338 
z
M 4147 2328 
Q 4147 1169 3647 539 
Q 3147 -91 2228 -91 
Q 1306 -91 806 539 
Q 306 1169 306 2328 
Q 306 3491 806 4120 
Q 1306 4750 2228 4750 
Q 3147 4750 3647 4120 
Q 4147 3491 4147 2328 
z
" transform="scale(0.015625)"/>
     </defs>
     <use xlink:href="#DejaVuSans-Bold-31"/>
     <use xlink:href="#DejaVuSans-Bold-30" transform="translate(69.580078 0)"/>
    </g>
   </g>
   <g id="text_27">
    <g id="patch_17">
     <path d="M 430.970412 43.114478 
L 440.711349 43.114478 
Q 441.551349 43.114478 441.551349 42.274478 
L 441.551349 35.49979 
Q 441.551349 34.65979 440.711349 34.65979 
L 430.970412 34.65979 
Q 430.130412 34.65979 430.130412 35.49979 
L 430.130412 42.274478 
Q 430.130412 43.114478 430.970412 43.114478 
z
" style="fill: #ffffff; opacity: 0.85; stroke: #e91e63; stroke-width: 0.4; stroke-linejoin: miter"/>
    </g>
    <!-- 11 -->
    <g style="fill: #e91e63" transform="translate(430.970412 40.818697) scale(0.07 -0.07)">
     <use xlink:href="#DejaVuSans-Bold-31"/>
     <use xlink:href="#DejaVuSans-Bold-31" transform="translate(69.580078 0)"/>
    </g>
   </g>
   <g id="text_28">
    <g id="patch_18">
     <path d="M 432.606776 52.279613 
L 442.347713 52.279613 
Q 443.187713 52.279613 443.187713 51.439613 
L 443.187713 44.664926 
Q 443.187713 43.824926 442.347713 43.824926 
L 432.606776 43.824926 
Q 431.766776 43.824926 431.766776 44.664926 
L 431.766776 51.439613 
Q 431.766776 52.279613 432.606776 52.279613 
z
" style="fill: #ffffff; opacity: 0.85; stroke: #e91e63; stroke-width: 0.4; stroke-linejoin: miter"/>
    </g>
    <!-- 12 -->
    <g style="fill: #e91e63" transform="translate(432.606776 49.983832) scale(0.07 -0.07)">
     <use xlink:href="#DejaVuSans-Bold-31"/>
     <use xlink:href="#DejaVuSans-Bold-32" transform="translate(69.580078 0)"/>
    </g>
   </g>
   <g id="text_29">
    <g id="patch_19">
     <path d="M 434.243139 53.163392 
L 443.984077 53.163392 
Q 444.824077 53.163392 444.824077 52.323392 
L 444.824077 45.548705 
Q 444.824077 44.708705 443.984077 44.708705 
L 434.243139 44.708705 
Q 433.403139 44.708705 433.403139 45.548705 
L 433.403139 52.323392 
Q 433.403139 53.163392 434.243139 53.163392 
z
" style="fill: #ffffff; opacity: 0.85; stroke: #e91e63; stroke-width: 0.4; stroke-linejoin: miter"/>
    </g>
    <!-- 13 -->
    <g style="fill: #e91e63" transform="translate(434.243139 50.867611) scale(0.07 -0.07)">
     <use xlink:href="#DejaVuSans-Bold-31"/>
     <use xlink:href="#DejaVuSans-Bold-33" transform="translate(69.580078 0)"/>
    </g>
   </g>
   <g id="text_30">
    <g id="patch_20">
     <path d="M 435.879503 77.081716 
L 445.62044 77.081716 
Q 446.46044 77.081716 446.46044 76.241716 
L 446.46044 69.467029 
Q 446.46044 68.627029 445.62044 68.627029 
L 435.879503 68.627029 
Q 435.039503 68.627029 435.039503 69.467029 
L 435.039503 76.241716 
Q 435.039503 77.081716 435.879503 77.081716 
z
" style="fill: #ffffff; opacity: 0.85; stroke: #e91e63; stroke-width: 0.4; stroke-linejoin: miter"/>
    </g>
    <!-- 14 -->
    <g style="fill: #e91e63" transform="translate(435.879503 74.785935) scale(0.07 -0.07)">
     <use xlink:href="#DejaVuSans-Bold-31"/>
     <use xlink:href="#DejaVuSans-Bold-34" transform="translate(69.580078 0)"/>
    </g>
   </g>
   <g id="text_31">
    <g id="patch_21">
     <path d="M 437.515866 51.724445 
L 447.256804 51.724445 
Q 448.096804 51.724445 448.096804 50.884445 
L 448.096804 44.109757 
Q 448.096804 43.269757 447.256804 43.269757 
L 437.515866 43.269757 
Q 436.675866 43.269757 436.675866 44.109757 
L 436.675866 50.884445 
Q 436.675866 51.724445 437.515866 51.724445 
z
" style="fill: #ffffff; opacity: 0.85; stroke: #e91e63; stroke-width: 0.4; stroke-linejoin: miter"/>
    </g>
    <!-- 15 -->
    <g style="fill: #e91e63" transform="translate(437.515866 49.428664) scale(0.07 -0.07)">
     <use xlink:href="#DejaVuSans-Bold-31"/>
     <use xlink:href="#DejaVuSans-Bold-35" transform="translate(69.580078 0)"/>
    </g>
   </g>
   <g id="text_32">
    <g id="patch_22">
     <path d="M 439.15223 56.428403 
L 448.893168 56.428403 
Q 449.733168 56.428403 449.733168 55.588403 
L 449.733168 48.813715 
Q 449.733168 47.973715 448.893168 47.973715 
L 439.15223 47.973715 
Q 438.31223 47.973715 438.31223 48.813715 
L 438.31223 55.588403 
Q 438.31223 56.428403 439.15223 56.428403 
z
" style="fill: #ffffff; opacity: 0.85; stroke: #e91e63; stroke-width: 0.4; stroke-linejoin: miter"/>
    </g>
    <!-- 16 -->
    <g style="fill: #e91e63" transform="translate(439.15223 54.132621) scale(0.07 -0.07)">
     <use xlink:href="#DejaVuSans-Bold-31"/>
     <use xlink:href="#DejaVuSans-Bold-36" transform="translate(69.580078 0)"/>
    </g>
   </g>
   <g id="text_33">
    <g id="patch_23">
     <path d="M 440.788594 47.550174 
L 450.529531 47.550174 
Q 451.369531 47.550174 451.369531 46.710174 
L 451.369531 39.935486 
Q 451.369531 39.095486 450.529531 39.095486 
L 440.788594 39.095486 
Q 439.948594 39.095486 439.948594 39.935486 
L 439.948594 46.710174 
Q 439.948594 47.550174 440.788594 47.550174 
z
" style="fill: #ffffff; opacity: 0.85; stroke: #e91e63; stroke-width: 0.4; stroke-linejoin: miter"/>
    </g>
    <!-- 17 -->
    <g style="fill: #e91e63" transform="translate(440.788594 45.254392) scale(0.07 -0.07)">
     <use xlink:href="#DejaVuSans-Bold-31"/>
     <use xlink:href="#DejaVuSans-Bold-37" transform="translate(69.580078 0)"/>
    </g>
   </g>
   <g id="text_34">
    <g id="patch_24">
     <path d="M 442.424957 51.389905 
L 452.165895 51.389905 
Q 453.005895 51.389905 453.005895 50.549905 
L 453.005895 43.775217 
Q 453.005895 42.935217 452.165895 42.935217 
L 442.424957 42.935217 
Q 441.584957 42.935217 441.584957 43.775217 
L 441.584957 50.549905 
Q 441.584957 51.389905 442.424957 51.389905 
z
" style="fill: #ffffff; opacity: 0.85; stroke: #e91e63; stroke-width: 0.4; stroke-linejoin: miter"/>
    </g>
    <!-- 18 -->
    <g style="fill: #e91e63" transform="translate(442.424957 49.094124) scale(0.07 -0.07)">
     <use xlink:href="#DejaVuSans-Bold-31"/>
     <use xlink:href="#DejaVuSans-Bold-38" transform="translate(69.580078 0)"/>
    </g>
   </g>
   <g id="text_35">
    <g id="patch_25">
     <path d="M 444.061321 44.760721 
L 453.802259 44.760721 
Q 454.642259 44.760721 454.642259 43.920721 
L 454.642259 37.146034 
Q 454.642259 36.306034 453.802259 36.306034 
L 444.061321 36.306034 
Q 443.221321 36.306034 443.221321 37.146034 
L 443.221321 43.920721 
Q 443.221321 44.760721 444.061321 44.760721 
z
" style="fill: #ffffff; opacity: 0.85; stroke: #e91e63; stroke-width: 0.4; stroke-linejoin: miter"/>
    </g>
    <!-- 19 -->
    <g style="fill: #e91e63" transform="translate(444.061321 42.46494) scale(0.07 -0.07)">
     <use xlink:href="#DejaVuSans-Bold-31"/>
     <use xlink:href="#DejaVuSans-Bold-39" transform="translate(69.580078 0)"/>
    </g>
   </g>
   <g id="text_36">
    <g id="patch_26">
     <path d="M 445.697685 54.36545 
L 455.438622 54.36545 
Q 456.278622 54.36545 456.278622 53.52545 
L 456.278622 46.750763 
Q 456.278622 45.910763 455.438622 45.910763 
L 445.697685 45.910763 
Q 444.857685 45.910763 444.857685 46.750763 
L 444.857685 53.52545 
Q 444.857685 54.36545 445.697685 54.36545 
z
" style="fill: #ffffff; opacity: 0.85; stroke: #e91e63; stroke-width: 0.4; stroke-linejoin: miter"/>
    </g>
    <!-- 20 -->
    <g style="fill: #e91e63" transform="translate(445.697685 52.069669) scale(0.07 -0.07)">
     <use xlink:href="#DejaVuSans-Bold-32"/>
     <use xlink:href="#DejaVuSans-Bold-30" transform="translate(69.580078 0)"/>
    </g>
   </g>
   <g id="text_37">
    <g id="patch_27">
     <path d="M 447.334048 56.917976 
L 457.074986 56.917976 
Q 457.914986 56.917976 457.914986 56.077976 
L 457.914986 49.303288 
Q 457.914986 48.463288 457.074986 48.463288 
L 447.334048 48.463288 
Q 446.494048 48.463288 446.494048 49.303288 
L 446.494048 56.077976 
Q 446.494048 56.917976 447.334048 56.917976 
z
" style="fill: #ffffff; opacity: 0.85; stroke: #e91e63; stroke-width: 0.4; stroke-linejoin: miter"/>
    </g>
    <!-- 21 -->
    <g style="fill: #e91e63" transform="translate(447.334048 54.622194) scale(0.07 -0.07)">
     <use xlink:href="#DejaVuSans-Bold-32"/>
     <use xlink:href="#DejaVuSans-Bold-31" transform="translate(69.580078 0)"/>
    </g>
   </g>
   <g id="text_38">
    <g id="patch_28">
     <path d="M 448.970412 54.762043 
L 458.711349 54.762043 
Q 459.551349 54.762043 459.551349 53.922043 
L 459.551349 47.147356 
Q 459.551349 46.307356 458.711349 46.307356 
L 448.970412 46.307356 
Q 448.130412 46.307356 448.130412 47.147356 
L 448.130412 53.922043 
Q 448.130412 54.762043 448.970412 54.762043 
z
" style="fill: #ffffff; opacity: 0.85; stroke: #e91e63; stroke-width: 0.4; stroke-linejoin: miter"/>
    </g>
    <!-- 22 -->
    <g style="fill: #e91e63" transform="translate(448.970412 52.466262) scale(0.07 -0.07)">
     <use xlink:href="#DejaVuSans-Bold-32"/>
     <use xlink:href="#DejaVuSans-Bold-32" transform="translate(69.580078 0)"/>
    </g>
   </g>
   <g id="text_39">
    <g id="patch_29">
     <path d="M 450.606776 32.433684 
L 460.347713 32.433684 
Q 461.187713 32.433684 461.187713 31.593684 
L 461.187713 24.818996 
Q 461.187713 23.978996 460.347713 23.978996 
L 450.606776 23.978996 
Q 449.766776 23.978996 449.766776 24.818996 
L 449.766776 31.593684 
Q 449.766776 32.433684 450.606776 32.433684 
z
" style="fill: #ffffff; opacity: 0.85; stroke: #e91e63; stroke-width: 0.4; stroke-linejoin: miter"/>
    </g>
    <!-- 23 -->
    <g style="fill: #e91e63" transform="translate(450.606776 30.137903) scale(0.07 -0.07)">
     <use xlink:href="#DejaVuSans-Bold-32"/>
     <use xlink:href="#DejaVuSans-Bold-33" transform="translate(69.580078 0)"/>
    </g>
   </g>
   <g id="text_40">
    <g id="patch_30">
     <path d="M 452.243139 55.903945 
L 461.984077 55.903945 
Q 462.824077 55.903945 462.824077 55.063945 
L 462.824077 48.289258 
Q 462.824077 47.449258 461.984077 47.449258 
L 452.243139 47.449258 
Q 451.403139 47.449258 451.403139 48.289258 
L 451.403139 55.063945 
Q 451.403139 55.903945 452.243139 55.903945 
z
" style="fill: #ffffff; opacity: 0.85; stroke: #e91e63; stroke-width: 0.4; stroke-linejoin: miter"/>
    </g>
    <!-- 24 -->
    <g style="fill: #e91e63" transform="translate(452.243139 53.608164) scale(0.07 -0.07)">
     <use xlink:href="#DejaVuSans-Bold-32"/>
     <use xlink:href="#DejaVuSans-Bold-34" transform="translate(69.580078 0)"/>
    </g>
   </g>
   <g id="text_41">
    <g id="patch_31">
     <path d="M 453.879503 49.18958 
L 463.62044 49.18958 
Q 464.46044 49.18958 464.46044 48.34958 
L 464.46044 41.574893 
Q 464.46044 40.734893 463.62044 40.734893 
L 453.879503 40.734893 
Q 453.039503 40.734893 453.039503 41.574893 
L 453.039503 48.34958 
Q 453.039503 49.18958 453.879503 49.18958 
z
" style="fill: #ffffff; opacity: 0.85; stroke: #e91e63; stroke-width: 0.4; stroke-linejoin: miter"/>
    </g>
    <!-- 25 -->
    <g style="fill: #e91e63" transform="translate(453.879503 46.893799) scale(0.07 -0.07)">
     <use xlink:href="#DejaVuSans-Bold-32"/>
     <use xlink:href="#DejaVuSans-Bold-35" transform="translate(69.580078 0)"/>
    </g>
   </g>
   <g id="text_42">
    <g id="patch_32">
     <path d="M 455.515866 58.450938 
L 465.256804 58.450938 
Q 466.096804 58.450938 466.096804 57.610938 
L 466.096804 50.836251 
Q 466.096804 49.996251 465.256804 49.996251 
L 455.515866 49.996251 
Q 454.675866 49.996251 454.675866 50.836251 
L 454.675866 57.610938 
Q 454.675866 58.450938 455.515866 58.450938 
z
" style="fill: #ffffff; opacity: 0.85; stroke: #e91e63; stroke-width: 0.4; stroke-linejoin: miter"/>
    </g>
    <!-- 26 -->
    <g style="fill: #e91e63" transform="translate(455.515866 56.155157) scale(0.07 -0.07)">
     <use xlink:href="#DejaVuSans-Bold-32"/>
     <use xlink:href="#DejaVuSans-Bold-36" transform="translate(69.580078 0)"/>
    </g>
   </g>
   <g id="text_43">
    <g id="patch_33">
     <path d="M 457.15223 45.596732 
L 466.893168 45.596732 
Q 467.733168 45.596732 467.733168 44.756732 
L 467.733168 37.982044 
Q 467.733168 37.142044 466.893168 37.142044 
L 457.15223 37.142044 
Q 456.31223 37.142044 456.31223 37.982044 
L 456.31223 44.756732 
Q 456.31223 45.596732 457.15223 45.596732 
z
" style="fill: #ffffff; opacity: 0.85; stroke: #e91e63; stroke-width: 0.4; stroke-linejoin: miter"/>
    </g>
    <!-- 27 -->
    <g style="fill: #e91e63" transform="translate(457.15223 43.30095) scale(0.07 -0.07)">
     <use xlink:href="#DejaVuSans-Bold-32"/>
     <use xlink:href="#DejaVuSans-Bold-37" transform="translate(69.580078 0)"/>
    </g>
   </g>
   <g id="text_44">
    <g id="patch_34">
     <path d="M 458.788594 54.851546 
L 468.529531 54.851546 
Q 469.369531 54.851546 469.369531 54.011546 
L 469.369531 47.236858 
Q 469.369531 46.396858 468.529531 46.396858 
L 458.788594 46.396858 
Q 457.948594 46.396858 457.948594 47.236858 
L 457.948594 54.011546 
Q 457.948594 54.851546 458.788594 54.851546 
z
" style="fill: #ffffff; opacity: 0.85; stroke: #e91e63; stroke-width: 0.4; stroke-linejoin: miter"/>
    </g>
    <!-- 28 -->
    <g style="fill: #e91e63" transform="translate(458.788594 52.555764) scale(0.07 -0.07)">
     <use xlink:href="#DejaVuSans-Bold-32"/>
     <use xlink:href="#DejaVuSans-Bold-38" transform="translate(69.580078 0)"/>
    </g>
   </g>
   <g id="text_45">
    <g id="patch_35">
     <path d="M 460.424957 49.229206 
L 470.165895 49.229206 
Q 471.005895 49.229206 471.005895 48.389206 
L 471.005895 41.614518 
Q 471.005895 40.774518 470.165895 40.774518 
L 460.424957 40.774518 
Q 459.584957 40.774518 459.584957 41.614518 
L 459.584957 48.389206 
Q 459.584957 49.229206 460.424957 49.229206 
z
" style="fill: #ffffff; opacity: 0.85; stroke: #e91e63; stroke-width: 0.4; stroke-linejoin: miter"/>
    </g>
    <!-- 29 -->
    <g style="fill: #e91e63" transform="translate(460.424957 46.933424) scale(0.07 -0.07)">
     <use xlink:href="#DejaVuSans-Bold-32"/>
     <use xlink:href="#DejaVuSans-Bold-39" transform="translate(69.580078 0)"/>
    </g>
   </g>
   <g id="text_46">
    <g id="patch_36">
     <path d="M 462.061321 57.70094 
L 471.802259 57.70094 
Q 472.642259 57.70094 472.642259 56.86094 
L 472.642259 50.086253 
Q 472.642259 49.246253 471.802259 49.246253 
L 462.061321 49.246253 
Q 461.221321 49.246253 461.221321 50.086253 
L 461.221321 56.86094 
Q 461.221321 57.70094 462.061321 57.70094 
z
" style="fill: #ffffff; opacity: 0.85; stroke: #e91e63; stroke-width: 0.4; stroke-linejoin: miter"/>
    </g>
    <!-- 30 -->
    <g style="fill: #e91e63" transform="translate(462.061321 55.405159) scale(0.07 -0.07)">
     <use xlink:href="#DejaVuSans-Bold-33"/>
     <use xlink:href="#DejaVuSans-Bold-30" transform="translate(69.580078 0)"/>
    </g>
   </g>
   <g id="text_47">
    <g id="patch_37">
     <path d="M 463.697685 27.97375 
L 473.438622 27.97375 
Q 474.278622 27.97375 474.278622 27.13375 
L 474.278622 20.359062 
Q 474.278622 19.519062 473.438622 19.519062 
L 463.697685 19.519062 
Q 462.857685 19.519062 462.857685 20.359062 
L 462.857685 27.13375 
Q 462.857685 27.97375 463.697685 27.97375 
z
" style="fill: #ffffff; opacity: 0.85; stroke: #e91e63; stroke-width: 0.4; stroke-linejoin: miter"/>
    </g>
    <!-- 31 -->
    <g style="fill: #e91e63" transform="translate(463.697685 25.677969) scale(0.07 -0.07)">
     <use xlink:href="#DejaVuSans-Bold-33"/>
     <use xlink:href="#DejaVuSans-Bold-31" transform="translate(69.580078 0)"/>
    </g>
   </g>
   <g id="text_48">
    <g id="patch_38">
     <path d="M 465.334048 55.395352 
L 475.074986 55.395352 
Q 475.914986 55.395352 475.914986 54.555352 
L 475.914986 47.780664 
Q 475.914986 46.940664 475.074986 46.940664 
L 465.334048 46.940664 
Q 464.494048 46.940664 464.494048 47.780664 
L 464.494048 54.555352 
Q 464.494048 55.395352 465.334048 55.395352 
z
" style="fill: #ffffff; opacity: 0.85; stroke: #e91e63; stroke-width: 0.4; stroke-linejoin: miter"/>
    </g>
    <!-- 32 -->
    <g style="fill: #e91e63" transform="translate(465.334048 53.09957) scale(0.07 -0.07)">
     <use xlink:href="#DejaVuSans-Bold-33"/>
     <use xlink:href="#DejaVuSans-Bold-32" transform="translate(69.580078 0)"/>
    </g>
   </g>
   <g id="text_49">
    <g id="patch_39">
     <path d="M 466.970412 41.312712 
L 476.711349 41.312712 
Q 477.551349 41.312712 477.551349 40.472712 
L 477.551349 33.698024 
Q 477.551349 32.858024 476.711349 32.858024 
L 466.970412 32.858024 
Q 466.130412 32.858024 466.130412 33.698024 
L 466.130412 40.472712 
Q 466.130412 41.312712 466.970412 41.312712 
z
" style="fill: #ffffff; opacity: 0.85; stroke: #e91e63; stroke-width: 0.4; stroke-linejoin: miter"/>
    </g>
    <!-- 33 -->
    <g style="fill: #e91e63" transform="translate(466.970412 39.01693) scale(0.07 -0.07)">
     <use xlink:href="#DejaVuSans-Bold-33"/>
     <use xlink:href="#DejaVuSans-Bold-33" transform="translate(69.580078 0)"/>
    </g>
   </g>
   <g id="text_50">
    <g id="patch_40">
     <path d="M 468.606776 44.393874 
L 478.347713 44.393874 
Q 479.187713 44.393874 479.187713 43.553874 
L 479.187713 36.779187 
Q 479.187713 35.939187 478.347713 35.939187 
L 468.606776 35.939187 
Q 467.766776 35.939187 467.766776 36.779187 
L 467.766776 43.553874 
Q 467.766776 44.393874 468.606776 44.393874 
z
" style="fill: #ffffff; opacity: 0.85; stroke: #e91e63; stroke-width: 0.4; stroke-linejoin: miter"/>
    </g>
    <!-- 34 -->
    <g style="fill: #e91e63" transform="translate(468.606776 42.098093) scale(0.07 -0.07)">
     <use xlink:href="#DejaVuSans-Bold-33"/>
     <use xlink:href="#DejaVuSans-Bold-34" transform="translate(69.580078 0)"/>
    </g>
   </g>
   <g id="text_51">
    <g id="patch_41">
     <path d="M 470.243139 50.76566 
L 479.984077 50.76566 
Q 480.824077 50.76566 480.824077 49.92566 
L 480.824077 43.150972 
Q 480.824077 42.310972 479.984077 42.310972 
L 470.243139 42.310972 
Q 469.403139 42.310972 469.403139 43.150972 
L 469.403139 49.92566 
Q 469.403139 50.76566 470.243139 50.76566 
z
" style="fill: #ffffff; opacity: 0.85; stroke: #e91e63; stroke-width: 0.4; stroke-linejoin: miter"/>
    </g>
    <!-- 35 -->
    <g style="fill: #e91e63" transform="translate(470.243139 48.469879) scale(0.07 -0.07)">
     <use xlink:href="#DejaVuSans-Bold-33"/>
     <use xlink:href="#DejaVuSans-Bold-35" transform="translate(69.580078 0)"/>
    </g>
   </g>
   <g id="text_52">
    <g id="patch_42">
     <path d="M 471.879503 46.931115 
L 481.62044 46.931115 
Q 482.46044 46.931115 482.46044 46.091115 
L 482.46044 39.316428 
Q 482.46044 38.476428 481.62044 38.476428 
L 471.879503 38.476428 
Q 471.039503 38.476428 471.039503 39.316428 
L 471.039503 46.091115 
Q 471.039503 46.931115 471.879503 46.931115 
z
" style="fill: #ffffff; opacity: 0.85; stroke: #e91e63; stroke-width: 0.4; stroke-linejoin: miter"/>
    </g>
    <!-- 36 -->
    <g style="fill: #e91e63" transform="translate(471.879503 44.635334) scale(0.07 -0.07)">
     <use xlink:href="#DejaVuSans-Bold-33"/>
     <use xlink:href="#DejaVuSans-Bold-36" transform="translate(69.580078 0)"/>
    </g>
   </g>
   <g id="text_53">
    <g id="patch_43">
     <path d="M 473.515866 49.849475 
L 483.256804 49.849475 
Q 484.096804 49.849475 484.096804 49.009475 
L 484.096804 42.234788 
Q 484.096804 41.394788 483.256804 41.394788 
L 473.515866 41.394788 
Q 472.675866 41.394788 472.675866 42.234788 
L 472.675866 49.009475 
Q 472.675866 49.849475 473.515866 49.849475 
z
" style="fill: #ffffff; opacity: 0.85; stroke: #e91e63; stroke-width: 0.4; stroke-linejoin: miter"/>
    </g>
    <!-- 37 -->
    <g style="fill: #e91e63" transform="translate(473.515866 47.553694) scale(0.07 -0.07)">
     <use xlink:href="#DejaVuSans-Bold-33"/>
     <use xlink:href="#DejaVuSans-Bold-37" transform="translate(69.580078 0)"/>
    </g>
   </g>
   <g id="text_54">
    <g id="patch_44">
     <path d="M 475.15223 46.147439 
L 484.893168 46.147439 
Q 485.733168 46.147439 485.733168 45.307439 
L 485.733168 38.532752 
Q 485.733168 37.692752 484.893168 37.692752 
L 475.15223 37.692752 
Q 474.31223 37.692752 474.31223 38.532752 
L 474.31223 45.307439 
Q 474.31223 46.147439 475.15223 46.147439 
z
" style="fill: #ffffff; opacity: 0.85; stroke: #e91e63; stroke-width: 0.4; stroke-linejoin: miter"/>
    </g>
    <!-- 38 -->
    <g style="fill: #e91e63" transform="translate(475.15223 43.851658) scale(0.07 -0.07)">
     <use xlink:href="#DejaVuSans-Bold-33"/>
     <use xlink:href="#DejaVuSans-Bold-38" transform="translate(69.580078 0)"/>
    </g>
   </g>
   <g id="text_55">
    <g id="patch_45">
     <path d="M 476.788594 31.793988 
L 486.529531 31.793988 
Q 487.369531 31.793988 487.369531 30.953988 
L 487.369531 24.179301 
Q 487.369531 23.339301 486.529531 23.339301 
L 476.788594 23.339301 
Q 475.948594 23.339301 475.948594 24.179301 
L 475.948594 30.953988 
Q 475.948594 31.793988 476.788594 31.793988 
z
" style="fill: #ffffff; opacity: 0.85; stroke: #e91e63; stroke-width: 0.4; stroke-linejoin: miter"/>
    </g>
    <!-- 39 -->
    <g style="fill: #e91e63" transform="translate(476.788594 29.498207) scale(0.07 -0.07)">
     <use xlink:href="#DejaVuSans-Bold-33"/>
     <use xlink:href="#DejaVuSans-Bold-39" transform="translate(69.580078 0)"/>
    </g>
   </g>
   <g id="text_56">
    <g id="patch_46">
     <path d="M 478.424957 39.758462 
L 488.165895 39.758462 
Q 489.005895 39.758462 489.005895 38.918462 
L 489.005895 32.143775 
Q 489.005895 31.303775 488.165895 31.303775 
L 478.424957 31.303775 
Q 477.584957 31.303775 477.584957 32.143775 
L 477.584957 38.918462 
Q 477.584957 39.758462 478.424957 39.758462 
z
" style="fill: #ffffff; opacity: 0.85; stroke: #e91e63; stroke-width: 0.4; stroke-linejoin: miter"/>
    </g>
    <!-- 40 -->
    <g style="fill: #e91e63" transform="translate(478.424957 37.462681) scale(0.07 -0.07)">
     <use xlink:href="#DejaVuSans-Bold-34"/>
     <use xlink:href="#DejaVuSans-Bold-30" transform="translate(69.580078 0)"/>
    </g>
   </g>
   <g id="text_57">
    <g id="patch_47">
     <path d="M 480.061321 51.539537 
L 489.802259 51.539537 
Q 490.642259 51.539537 490.642259 50.699537 
L 490.642259 43.924849 
Q 490.642259 43.084849 489.802259 43.084849 
L 480.061321 43.084849 
Q 479.221321 43.084849 479.221321 43.924849 
L 479.221321 50.699537 
Q 479.221321 51.539537 480.061321 51.539537 
z
" style="fill: #ffffff; opacity: 0.85; stroke: #e91e63; stroke-width: 0.4; stroke-linejoin: miter"/>
    </g>
    <!-- 41 -->
    <g style="fill: #e91e63" transform="translate(480.061321 49.243756) scale(0.07 -0.07)">
     <use xlink:href="#DejaVuSans-Bold-34"/>
     <use xlink:href="#DejaVuSans-Bold-31" transform="translate(69.580078 0)"/>
    </g>
   </g>
   <g id="patch_48">
    <path d="M 82.468333 286.652582 
Q 283.659618 166.597013 483.890811 47.114352 
" style="fill: none; opacity: 0.35; stroke: #795548; stroke-linecap: round"/>
    <path d="M 479.431033 47.44659 
L 483.890811 47.114352 
L 481.480734 50.881517 
" style="fill: none; opacity: 0.35; stroke: #795548; stroke-linecap: round"/>
   </g>
   <g id="patch_49">
    <path d="M 484.732138 46.304513 
Q 385.114506 89.048283 286.52432 131.351198 
" style="fill: none; opacity: 0.35; stroke: #795548; stroke-linecap: round"/>
    <path d="M 290.988851 131.6119 
L 286.52432 131.351198 
L 289.411599 127.935995 
" style="fill: none; opacity: 0.35; stroke: #795548; stroke-linecap: round"/>
   </g>
   <g id="patch_50">
    <path d="M 285.389809 131.576047 
Q 334.385881 103.137415 382.414999 75.26003 
" style="fill: none; opacity: 0.35; stroke: #4caf50; stroke-linecap: round"/>
    <path d="M 377.951526 75.538265 
L 382.414999 75.26003 
L 379.959503 78.997748 
" style="fill: none; opacity: 0.35; stroke: #4caf50; stroke-linecap: round"/>
   </g>
   <g id="patch_51">
    <path d="M 383.234247 74.379419 
Q 359.750935 82.947918 337.317926 91.133187 
" style="fill: none; opacity: 0.35; stroke: #4caf50; stroke-linecap: round"/>
    <path d="M 341.761144 91.640938 
L 337.317926 91.133187 
L 340.390058 87.883263 
" style="fill: none; opacity: 0.35; stroke: #4caf50; stroke-linecap: round"/>
   </g>
   <g id="patch_52">
    <path d="M 332.54223 91.421983 
Q 321.292871 86.658534 311.07305 82.331034 
" style="fill: none; opacity: 0.35; stroke: #4caf50; stroke-linecap: round"/>
    <path d="M 313.976586 85.732427 
L 311.07305 82.331034 
L 315.536286 82.049041 
" style="fill: none; opacity: 0.35; stroke: #4caf50; stroke-linecap: round"/>
   </g>
   <g id="patch_53">
    <path d="M 309.248018 82.825784 
Q 314.750384 91.839454 319.670212 99.898843 
" style="fill: none; opacity: 0.35; stroke: #4caf50; stroke-linecap: round"/>
    <path d="M 319.293132 95.442633 
L 319.670212 99.898843 
L 315.878995 97.526781 
" style="fill: none; opacity: 0.35; stroke: #4caf50; stroke-linecap: round"/>
   </g>
   <g id="patch_54">
    <path d="M 319.329872 102.182628 
Q 318.021649 101.930673 317.811284 101.890158 
" style="fill: none; opacity: 0.35; stroke: #4caf50; stroke-linecap: round"/>
    <path d="M 321.360866 104.610537 
L 317.811284 101.890158 
L 322.117336 100.682719 
" style="fill: none; opacity: 0.35; stroke: #4caf50; stroke-linecap: round"/>
   </g>
   <g id="patch_55">
    <path d="M 314.91976 103.293442 
Q 316.386194 120.505505 317.757718 136.603569 
" style="fill: none; opacity: 0.35; stroke: #4caf50; stroke-linecap: round"/>
    <path d="M 319.410936 132.448227 
L 317.757718 136.603569 
L 315.425375 132.787789 
" style="fill: none; opacity: 0.35; stroke: #4caf50; stroke-linecap: round"/>
   </g>
   <g id="patch_56">
    <path d="M 317.949889 137.71619 
Q 317.20452 117.266627 316.499874 97.934357 
" style="fill: none; opacity: 0.35; stroke: #4caf50; stroke-linecap: round"/>
    <path d="M 314.646901 102.004552 
L 316.499874 97.934357 
L 318.644247 101.858852 
" style="fill: none; opacity: 0.35; stroke: #4caf50; stroke-linecap: round"/>
   </g>
   <g id="patch_57">
    <path d="M 318.263749 94.127828 
Q 376.114009 72.818884 432.915143 51.896382 
" style="fill: none; opacity: 0.35; stroke: #4caf50; stroke-linecap: round"/>
    <path d="M 428.470393 51.402226 
L 432.915143 51.896382 
L 429.852968 55.155689 
" style="fill: none; opacity: 0.35; stroke: #4caf50; stroke-linecap: round"/>
   </g>
   <g id="patch_58">
    <path d="M 436.191644 52.783294 
Q 436.658992 55.400872 436.929832 56.917822 
" style="fill: none; opacity: 0.35; stroke: #e91e63; stroke-linecap: round"/>
    <path d="M 438.195646 52.628566 
L 436.929832 56.917822 
L 434.257916 53.331617 
" style="fill: none; opacity: 0.35; stroke: #e91e63; stroke-linecap: round"/>
   </g>
   <g id="patch_59">
    <path d="M 437.477244 59.983832 
Q 438.295426 60.425722 438.12988 60.336312 
" style="fill: none; opacity: 0.35; stroke: #e91e63; stroke-linecap: round"/>
    <path d="M 435.560803 56.675732 
L 438.12988 60.336312 
L 433.65997 60.195226 
" style="fill: none; opacity: 0.35; stroke: #e91e63; stroke-linecap: round"/>
   </g>
   <g id="patch_60">
    <path d="M 439.250038 62.861778 
Q 439.931801 72.826939 440.537253 81.676673 
" style="fill: none; opacity: 0.35; stroke: #e91e63; stroke-linecap: round"/>
    <path d="M 442.259568 77.549491 
L 440.537253 81.676673 
L 438.268896 77.822512 
" style="fill: none; opacity: 0.35; stroke: #e91e63; stroke-linecap: round"/>
   </g>
   <g id="patch_61">
    <path d="M 440.878811 82.789421 
Q 441.568257 72.105696 442.185703 62.537684 
" style="fill: none; opacity: 0.35; stroke: #e91e63; stroke-linecap: round"/>
    <path d="M 439.932261 66.400584 
L 442.185703 62.537684 
L 443.923958 66.658177 
" style="fill: none; opacity: 0.35; stroke: #e91e63; stroke-linecap: round"/>
   </g>
   <g id="patch_62">
    <path d="M 443.043118 61.316678 
Q 443.204309 61.780044 442.998161 61.187444 
" style="fill: none; opacity: 0.35; stroke: #e91e63; stroke-linecap: round"/>
    <path d="M 443.572901 56.752393 
L 442.998161 61.187444 
L 439.794964 58.066622 
" style="fill: none; opacity: 0.35; stroke: #e91e63; stroke-linecap: round"/>
   </g>
   <g id="patch_63">
    <path d="M 444.384648 62.168833 
Q 444.840463 59.695773 445.093624 58.322227 
" style="fill: none; opacity: 0.35; stroke: #e91e63; stroke-linecap: round"/>
    <path d="M 442.401718 61.89345 
L 445.093624 58.322227 
L 446.335459 62.618486 
" style="fill: none; opacity: 0.35; stroke: #e91e63; stroke-linecap: round"/>
   </g>
   <g id="patch_64">
    <path d="M 446.443686 57.095514 
Q 446.477789 57.175536 446.073568 56.22703 
" style="fill: none; opacity: 0.35; stroke: #e91e63; stroke-linecap: round"/>
    <path d="M 446.345259 51.763154 
L 446.073568 56.22703 
L 442.665482 53.331351 
" style="fill: none; opacity: 0.35; stroke: #e91e63; stroke-linecap: round"/>
   </g>
   <g id="patch_65">
    <path d="M 447.774031 57.155217 
Q 448.113783 55.778822 448.1856 55.487881 
" style="fill: none; opacity: 0.35; stroke: #e91e63; stroke-linecap: round"/>
    <path d="M 445.285283 58.892021 
L 448.1856 55.487881 
L 449.168721 59.850618 
" style="fill: none; opacity: 0.35; stroke: #e91e63; stroke-linecap: round"/>
   </g>
   <g id="patch_66">
    <path d="M 449.268171 54.43935 
Q 449.750269 57.269051 450.044593 58.996599 
" style="fill: none; opacity: 0.35; stroke: #e91e63; stroke-linecap: round"/>
    <path d="M 451.344381 54.717516 
L 450.044593 58.996599 
L 447.401199 55.389318 
" style="fill: none; opacity: 0.35; stroke: #e91e63; stroke-linecap: round"/>
   </g>
   <g id="patch_67">
    <path d="M 451.646811 63.752242 
Q 451.925664 64.187218 451.601118 63.680967 
" style="fill: none; opacity: 0.35; stroke: #e91e63; stroke-linecap: round"/>
    <path d="M 451.126052 59.234135 
L 451.601118 63.680967 
L 447.758613 61.39292 
" style="fill: none; opacity: 0.35; stroke: #e91e63; stroke-linecap: round"/>
   </g>
   <g id="patch_68">
    <path d="M 453.414212 63.028404 
Q 453.627546 62.747333 453.164939 63.356825 
" style="fill: none; opacity: 0.35; stroke: #e91e63; stroke-linecap: round"/>
    <path d="M 449.153528 65.333839 
L 453.164939 63.356825 
L 452.339703 67.752162 
" style="fill: none; opacity: 0.35; stroke: #e91e63; stroke-linecap: round"/>
   </g>
   <g id="patch_69">
    <path d="M 453.986899 60.473827 
Q 454.659119 51.301312 455.249621 43.243841 
" style="fill: none; opacity: 0.35; stroke: #e91e63; stroke-linecap: round"/>
    <path d="M 452.96261 47.086962 
L 455.249621 43.243841 
L 456.951911 47.379323 
" style="fill: none; opacity: 0.35; stroke: #e91e63; stroke-linecap: round"/>
   </g>
   <g id="patch_70">
    <path d="M 455.616471 42.134823 
Q 456.295501 51.874105 456.896769 60.49806 
" style="fill: none; opacity: 0.35; stroke: #e91e63; stroke-linecap: round"/>
    <path d="M 458.613718 56.368643 
L 456.896769 60.49806 
L 454.623405 56.646851 
" style="fill: none; opacity: 0.35; stroke: #e91e63; stroke-linecap: round"/>
   </g>
   <g id="patch_71">
    <path d="M 457.587418 61.664014 
Q 457.931984 60.250186 458.01182 59.922598 
" style="fill: none; opacity: 0.35; stroke: #e91e63; stroke-linecap: round"/>
    <path d="M 455.121572 63.33529 
L 458.01182 59.922598 
L 459.007825 64.282412 
" style="fill: none; opacity: 0.35; stroke: #e91e63; stroke-linecap: round"/>
   </g>
   <g id="patch_72">
    <path d="M 459.097539 58.860933 
Q 459.567937 61.523254 459.843806 63.084593 
" style="fill: none; opacity: 0.35; stroke: #e91e63; stroke-linecap: round"/>
    <path d="M 461.117331 58.797621 
L 459.843806 63.084593 
L 457.178343 59.49359 
" style="fill: none; opacity: 0.35; stroke: #e91e63; stroke-linecap: round"/>
   </g>
   <g id="patch_73">
    <path d="M 460.639221 64.168655 
Q 461.204805 59.725791 461.629201 56.39201 
" style="fill: none; opacity: 0.35; stroke: #e91e63; stroke-linecap: round"/>
    <path d="M 459.140082 60.107422 
L 461.629201 56.39201 
L 463.108059 60.612553 
" style="fill: none; opacity: 0.35; stroke: #e91e63; stroke-linecap: round"/>
   </g>
   <g id="patch_74">
    <path d="M 462.370266 55.266695 
Q 462.840664 57.927134 463.1164 59.486616 
" style="fill: none; opacity: 0.35; stroke: #e91e63; stroke-linecap: round"/>
    <path d="M 464.389406 55.199489 
L 463.1164 59.486616 
L 460.450502 55.895935 
" style="fill: none; opacity: 0.35; stroke: #e91e63; stroke-linecap: round"/>
   </g>
   <g id="patch_75">
    <path d="M 464.217567 60.636811 
Q 464.477032 59.745322 464.424061 59.927324 
" style="fill: none; opacity: 0.35; stroke: #e91e63; stroke-linecap: round"/>
    <path d="M 461.385936 63.209061 
L 464.424061 59.927324 
L 465.226576 64.326867 
" style="fill: none; opacity: 0.35; stroke: #e91e63; stroke-linecap: round"/>
   </g>
   <g id="patch_76">
    <path d="M 465.674954 58.898304 
Q 466.113435 61.168396 466.339881 62.340744 
" style="fill: none; opacity: 0.35; stroke: #e91e63; stroke-linecap: round"/>
    <path d="M 467.544983 58.034037 
L 466.339881 62.340744 
L 463.617576 58.792638 
" style="fill: none; opacity: 0.35; stroke: #e91e63; stroke-linecap: round"/>
   </g>
   <g id="patch_77">
    <path d="M 467.041853 63.405686 
Q 467.750133 50.538631 468.396963 38.787919 
" style="fill: none; opacity: 0.35; stroke: #e91e63; stroke-linecap: round"/>
    <path d="M 466.180135 42.671947 
L 468.396963 38.787919 
L 470.174089 42.891799 
" style="fill: none; opacity: 0.35; stroke: #e91e63; stroke-linecap: round"/>
   </g>
   <g id="patch_78">
    <path d="M 468.687405 37.676345 
Q 469.386421 49.390208 470.018838 59.988022 
" style="fill: none; opacity: 0.35; stroke: #e91e63; stroke-linecap: round"/>
    <path d="M 471.777013 55.875988 
L 470.018838 59.988022 
L 467.784116 56.114262 
" style="fill: none; opacity: 0.35; stroke: #e91e63; stroke-linecap: round"/>
   </g>
   <g id="patch_79">
    <path d="M 470.43503 61.115761 
Q 471.02246 56.060305 471.480846 52.115411 
" style="fill: none; opacity: 0.35; stroke: #e91e63; stroke-linecap: round"/>
    <path d="M 469.03253 55.857836 
L 471.480846 52.115411 
L 473.005797 56.319519 
" style="fill: none; opacity: 0.35; stroke: #e91e63; stroke-linecap: round"/>
   </g>
   <g id="patch_80">
    <path d="M 472.778913 50.783183 
Q 473.128079 51.440638 472.952839 51.110673 
" style="fill: none; opacity: 0.35; stroke: #e91e63; stroke-linecap: round"/>
    <path d="M 472.84302 46.639885 
L 472.952839 51.110673 
L 469.310317 48.516056 
" style="fill: none; opacity: 0.35; stroke: #e91e63; stroke-linecap: round"/>
   </g>
   <g id="patch_81">
    <path d="M 473.975025 54.036385 
Q 474.295807 55.28547 474.338487 55.451661 
" style="fill: none; opacity: 0.35; stroke: #e91e63; stroke-linecap: round"/>
    <path d="M 475.280658 51.079898 
L 474.338487 55.451661 
L 471.406379 52.074867 
" style="fill: none; opacity: 0.35; stroke: #e91e63; stroke-linecap: round"/>
   </g>
   <g id="patch_82">
    <path d="M 475.898232 56.631244 
Q 475.932334 56.55133 475.527611 57.499731 
" style="fill: none; opacity: 0.35; stroke: #e91e63; stroke-linecap: round"/>
    <path d="M 472.118114 60.393747 
L 475.527611 57.499731 
L 475.797126 61.963738 
" style="fill: none; opacity: 0.35; stroke: #e91e63; stroke-linecap: round"/>
   </g>
   <g id="patch_83">
    <path d="M 477.729553 56.38236 
Q 478.057944 56.968027 477.839531 56.578499 
" style="fill: none; opacity: 0.35; stroke: #e91e63; stroke-linecap: round"/>
    <path d="M 477.627704 52.111383 
L 477.839531 56.578499 
L 474.138741 54.067691 
" style="fill: none; opacity: 0.35; stroke: #e91e63; stroke-linecap: round"/>
   </g>
   <g id="patch_84">
    <path d="M 479.193331 55.727983 
Q 479.20386 55.704162 478.762386 56.702933 
" style="fill: none; opacity: 0.35; stroke: #e91e63; stroke-linecap: round"/>
    <path d="M 475.315984 59.5529 
L 478.762386 56.702933 
L 478.974518 61.170035 
" style="fill: none; opacity: 0.35; stroke: #e91e63; stroke-linecap: round"/>
   </g>
   <g id="patch_85">
    <path d="M 480.249217 51.864742 
Q 480.840726 46.676292 481.305593 42.598681 
" style="fill: none; opacity: 0.35; stroke: #e91e63; stroke-linecap: round"/>
    <path d="M 478.86538 46.346395 
L 481.305593 42.598681 
L 482.839637 46.79948 
" style="fill: none; opacity: 0.35; stroke: #e91e63; stroke-linecap: round"/>
   </g>
   <g id="patch_86">
    <path d="M 482.060962 41.454325 
Q 482.477172 43.480092 482.668373 44.4107 
" style="fill: none; opacity: 0.35; stroke: #e91e63; stroke-linecap: round"/>
    <path d="M 483.822435 40.090036 
L 482.668373 44.4107 
L 479.904279 40.895052 
" style="fill: none; opacity: 0.35; stroke: #e91e63; stroke-linecap: round"/>
   </g>
   <g id="patch_87">
    <path d="M 483.570684 49.444409 
Q 484.113332 53.351229 484.502164 56.150645 
" style="fill: none; opacity: 0.35; stroke: #e91e63; stroke-linecap: round"/>
    <path d="M 485.932839 51.913527 
L 484.502164 56.150645 
L 481.970874 52.463835 
" style="fill: none; opacity: 0.35; stroke: #e91e63; stroke-linecap: round"/>
   </g>
   <g id="text_58">
    <!-- PyTorch: Hidden Layer Size (binary search, -CE loss) -->
    <g transform="translate(114.821562 17.077969) scale(0.13 -0.13)">
     <defs>
      <path id="DejaVuSans-50" d="M 1259 4147 
L 1259 2394 
L 2053 2394 
Q 2494 2394 2734 2622 
Q 2975 2850 2975 3272 
Q 2975 3691 2734 3919 
Q 2494 4147 2053 4147 
L 1259 4147 
z
M 628 4666 
L 2053 4666 
Q 2838 4666 3239 4311 
Q 3641 3956 3641 3272 
Q 3641 2581 3239 2228 
Q 2838 1875 2053 1875 
L 1259 1875 
L 1259 0 
L 628 0 
L 628 4666 
z
" transform="scale(0.015625)"/>
      <path id="DejaVuSans-79" d="M 2059 -325 
Q 1816 -950 1584 -1140 
Q 1353 -1331 966 -1331 
L 506 -1331 
L 506 -850 
L 844 -850 
Q 1081 -850 1212 -737 
Q 1344 -625 1503 -206 
L 1606 56 
L 191 3500 
L 800 3500 
L 1894 763 
L 2988 3500 
L 3597 3500 
L 2059 -325 
z
" transform="scale(0.015625)"/>
      <path id="DejaVuSans-54" d="M -19 4666 
L 3928 4666 
L 3928 4134 
L 2272 4134 
L 2272 0 
L 1638 0 
L 1638 4134 
L -19 4134 
L -19 4666 
z
" transform="scale(0.015625)"/>
      <path id="DejaVuSans-72" d="M 2631 2963 
Q 2534 3019 2420 3045 
Q 2306 3072 2169 3072 
Q 1681 3072 1420 2755 
Q 1159 2438 1159 1844 
L 1159 0 
L 581 0 
L 581 3500 
L 1159 3500 
L 1159 2956 
Q 1341 3275 1631 3429 
Q 1922 3584 2338 3584 
Q 2397 3584 2469 3576 
Q 2541 3569 2628 3553 
L 2631 2963 
z
" transform="scale(0.015625)"/>
      <path id="DejaVuSans-63" d="M 3122 3366 
L 3122 2828 
Q 2878 2963 2633 3030 
Q 2388 3097 2138 3097 
Q 1578 3097 1268 2742 
Q 959 2388 959 1747 
Q 959 1106 1268 751 
Q 1578 397 2138 397 
Q 2388 397 2633 464 
Q 2878 531 3122 666 
L 3122 134 
Q 2881 22 2623 -34 
Q 2366 -91 2075 -91 
Q 1284 -91 818 406 
Q 353 903 353 1747 
Q 353 2603 823 3093 
Q 1294 3584 2113 3584 
Q 2378 3584 2631 3529 
Q 2884 3475 3122 3366 
z
" transform="scale(0.015625)"/>
      <path id="DejaVuSans-68" d="M 3513 2113 
L 3513 0 
L 2938 0 
L 2938 2094 
Q 2938 2591 2744 2837 
Q 2550 3084 2163 3084 
Q 1697 3084 1428 2787 
Q 1159 2491 1159 1978 
L 1159 0 
L 581 0 
L 581 4863 
L 1159 4863 
L 1159 2956 
Q 1366 3272 1645 3428 
Q 1925 3584 2291 3584 
Q 2894 3584 3203 3211 
Q 3513 2838 3513 2113 
z
" transform="scale(0.015625)"/>
      <path id="DejaVuSans-3a" d="M 750 794 
L 1409 794 
L 1409 0 
L 750 0 
L 750 794 
z
M 750 3309 
L 1409 3309 
L 1409 2516 
L 750 2516 
L 750 3309 
z
" transform="scale(0.015625)"/>
      <path id="DejaVuSans-61" d="M 2194 1759 
Q 1497 1759 1228 1600 
Q 959 1441 959 1056 
Q 959 750 1161 570 
Q 1363 391 1709 391 
Q 2188 391 2477 730 
Q 2766 1069 2766 1631 
L 2766 1759 
L 2194 1759 
z
M 3341 1997 
L 3341 0 
L 2766 0 
L 2766 531 
Q 2569 213 2275 61 
Q 1981 -91 1556 -91 
Q 1019 -91 701 211 
Q 384 513 384 1019 
Q 384 1609 779 1909 
Q 1175 2209 1959 2209 
L 2766 2209 
L 2766 2266 
Q 2766 2663 2505 2880 
Q 2244 3097 1772 3097 
Q 1472 3097 1187 3025 
Q 903 2953 641 2809 
L 641 3341 
Q 956 3463 1253 3523 
Q 1550 3584 1831 3584 
Q 2591 3584 2966 3190 
Q 3341 2797 3341 1997 
z
" transform="scale(0.015625)"/>
      <path id="DejaVuSans-53" d="M 3425 4513 
L 3425 3897 
Q 3066 4069 2747 4153 
Q 2428 4238 2131 4238 
Q 1616 4238 1336 4038 
Q 1056 3838 1056 3469 
Q 1056 3159 1242 3001 
Q 1428 2844 1947 2747 
L 2328 2669 
Q 3034 2534 3370 2195 
Q 3706 1856 3706 1288 
Q 3706 609 3251 259 
Q 2797 -91 1919 -91 
Q 1588 -91 1214 -16 
Q 841 59 441 206 
L 441 856 
Q 825 641 1194 531 
Q 1563 422 1919 422 
Q 2459 422 2753 634 
Q 3047 847 3047 1241 
Q 3047 1584 2836 1778 
Q 2625 1972 2144 2069 
L 1759 2144 
Q 1053 2284 737 2584 
Q 422 2884 422 3419 
Q 422 4038 858 4394 
Q 1294 4750 2059 4750 
Q 2388 4750 2728 4690 
Q 3069 4631 3425 4513 
z
" transform="scale(0.015625)"/>
      <path id="DejaVuSans-7a" d="M 353 3500 
L 3084 3500 
L 3084 2975 
L 922 459 
L 3084 459 
L 3084 0 
L 275 0 
L 275 525 
L 2438 3041 
L 353 3041 
L 353 3500 
z
" transform="scale(0.015625)"/>
      <path id="DejaVuSans-28" d="M 1984 4856 
Q 1566 4138 1362 3434 
Q 1159 2731 1159 2009 
Q 1159 1288 1364 580 
Q 1569 -128 1984 -844 
L 1484 -844 
Q 1016 -109 783 600 
Q 550 1309 550 2009 
Q 550 2706 781 3412 
Q 1013 4119 1484 4856 
L 1984 4856 
z
" transform="scale(0.015625)"/>
      <path id="DejaVuSans-62" d="M 3116 1747 
Q 3116 2381 2855 2742 
Q 2594 3103 2138 3103 
Q 1681 3103 1420 2742 
Q 1159 2381 1159 1747 
Q 1159 1113 1420 752 
Q 1681 391 2138 391 
Q 2594 391 2855 752 
Q 3116 1113 3116 1747 
z
M 1159 2969 
Q 1341 3281 1617 3432 
Q 1894 3584 2278 3584 
Q 2916 3584 3314 3078 
Q 3713 2572 3713 1747 
Q 3713 922 3314 415 
Q 2916 -91 2278 -91 
Q 1894 -91 1617 61 
Q 1341 213 1159 525 
L 1159 0 
L 581 0 
L 581 4863 
L 1159 4863 
L 1159 2969 
z
" transform="scale(0.015625)"/>
      <path id="DejaVuSans-2c" d="M 750 794 
L 1409 794 
L 1409 256 
L 897 -744 
L 494 -744 
L 750 256 
L 750 794 
z
" transform="scale(0.015625)"/>
      <path id="DejaVuSans-43" d="M 4122 4306 
L 4122 3641 
Q 3803 3938 3442 4084 
Q 3081 4231 2675 4231 
Q 1875 4231 1450 3742 
Q 1025 3253 1025 2328 
Q 1025 1406 1450 917 
Q 1875 428 2675 428 
Q 3081 428 3442 575 
Q 3803 722 4122 1019 
L 4122 359 
Q 3791 134 3420 21 
Q 3050 -91 2638 -91 
Q 1578 -91 968 557 
Q 359 1206 359 2328 
Q 359 3453 968 4101 
Q 1578 4750 2638 4750 
Q 3056 4750 3426 4639 
Q 3797 4528 4122 4306 
z
" transform="scale(0.015625)"/>
      <path id="DejaVuSans-45" d="M 628 4666 
L 3578 4666 
L 3578 4134 
L 1259 4134 
L 1259 2753 
L 3481 2753 
L 3481 2222 
L 1259 2222 
L 1259 531 
L 3634 531 
L 3634 0 
L 628 0 
L 628 4666 
z
" transform="scale(0.015625)"/>
      <path id="DejaVuSans-6c" d="M 603 4863 
L 1178 4863 
L 1178 0 
L 603 0 
L 603 4863 
z
" transform="scale(0.015625)"/>
      <path id="DejaVuSans-29" d="M 513 4856 
L 1013 4856 
Q 1481 4119 1714 3412 
Q 1947 2706 1947 2009 
Q 1947 1309 1714 600 
Q 1481 -109 1013 -844 
L 513 -844 
Q 928 -128 1133 580 
Q 1338 1288 1338 2009 
Q 1338 2731 1133 3434 
Q 928 4138 513 4856 
z
" transform="scale(0.015625)"/>
     </defs>
     <use xlink:href="#DejaVuSans-50"/>
     <use xlink:href="#DejaVuSans-79" transform="translate(60.302734 0)"/>
     <use xlink:href="#DejaVuSans-54" transform="translate(119.482422 0)"/>
     <use xlink:href="#DejaVuSans-6f" transform="translate(163.566406 0)"/>
     <use xlink:href="#DejaVuSans-72" transform="translate(224.748047 0)"/>
     <use xlink:href="#DejaVuSans-63" transform="translate(263.611328 0)"/>
     <use xlink:href="#DejaVuSans-68" transform="translate(318.591797 0)"/>
     <use xlink:href="#DejaVuSans-3a" transform="translate(381.970703 0)"/>
     <use xlink:href="#DejaVuSans-20" transform="translate(415.662109 0)"/>
     <use xlink:href="#DejaVuSans-48" transform="translate(447.449219 0)"/>
     <use xlink:href="#DejaVuSans-69" transform="translate(522.644531 0)"/>
     <use xlink:href="#DejaVuSans-64" transform="translate(550.427734 0)"/>
     <use xlink:href="#DejaVuSans-64" transform="translate(613.904297 0)"/>
     <use xlink:href="#DejaVuSans-65" transform="translate(677.380859 0)"/>
     <use xlink:href="#DejaVuSans-6e" transform="translate(738.904297 0)"/>
     <use xlink:href="#DejaVuSans-20" transform="translate(802.283203 0)"/>
     <use xlink:href="#DejaVuSans-4c" transform="translate(834.070312 0)"/>
     <use xlink:href="#DejaVuSans-61" transform="translate(889.783203 0)"/>
     <use xlink:href="#DejaVuSans-79" transform="translate(951.0625 0)"/>
     <use xlink:href="#DejaVuSans-65" transform="translate(1010.242188 0)"/>
     <use xlink:href="#DejaVuSans-72" transform="translate(1071.765625 0)"/>
     <use xlink:href="#DejaVuSans-20" transform="translate(1112.878906 0)"/>
     <use xlink:href="#DejaVuSans-53" transform="translate(1144.666016 0)"/>
     <use xlink:href="#DejaVuSans-69" transform="translate(1208.142578 0)"/>
     <use xlink:href="#DejaVuSans-7a" transform="translate(1235.925781 0)"/>
     <use xlink:href="#DejaVuSans-65" transform="translate(1288.416016 0)"/>
     <use xlink:href="#DejaVuSans-20" transform="translate(1349.939453 0)"/>
     <use xlink:href="#DejaVuSans-28" transform="translate(1381.726562 0)"/>
     <use xlink:href="#DejaVuSans-62" transform="translate(1420.740234 0)"/>
     <use xlink:href="#DejaVuSans-69" transform="translate(1484.216797 0)"/>
     <use xlink:href="#DejaVuSans-6e" transform="translate(1512 0)"/>
     <use xlink:href="#DejaVuSans-61" transform="translate(1575.378906 0)"/>
     <use xlink:href="#DejaVuSans-72" transform="translate(1636.658203 0)"/>
     <use xlink:href="#DejaVuSans-79" transform="translate(1677.771484 0)"/>
     <use xlink:href="#DejaVuSans-20" transform="translate(1736.951172 0)"/>
     <use xlink:href="#DejaVuSans-73" transform="translate(1768.738281 0)"/>
     <use xlink:href="#DejaVuSans-65" transform="translate(1820.837891 0)"/>
     <use xlink:href="#DejaVuSans-61" transform="translate(1882.361328 0)"/>
     <use xlink:href="#DejaVuSans-72" transform="translate(1943.640625 0)"/>
     <use xlink:href="#DejaVuSans-63" transform="translate(1982.503906 0)"/>
     <use xlink:href="#DejaVuSans-68" transform="translate(2037.484375 0)"/>
     <use xlink:href="#DejaVuSans-2c" transform="translate(2100.863281 0)"/>
     <use xlink:href="#DejaVuSans-20" transform="translate(2132.650391 0)"/>
     <use xlink:href="#DejaVuSans-2d" transform="translate(2164.4375 0)"/>
     <use xlink:href="#DejaVuSans-43" transform="translate(2200.521484 0)"/>
     <use xlink:href="#DejaVuSans-45" transform="translate(2270.345703 0)"/>
     <use xlink:href="#DejaVuSans-20" transform="translate(2333.529297 0)"/>
     <use xlink:href="#DejaVuSans-6c" transform="translate(2365.316406 0)"/>
     <use xlink:href="#DejaVuSans-6f" transform="translate(2393.099609 0)"/>
     <use xlink:href="#DejaVuSans-73" transform="translate(2454.28125 0)"/>
     <use xlink:href="#DejaVuSans-73" transform="translate(2506.380859 0)"/>
     <use xlink:href="#DejaVuSans-29" transform="translate(2558.480469 0)"/>
    </g>
   </g>
   <g id="line2d_31">
    <defs>
     <path id="m08d05d17cd" d="M 0 3.5 
C 0.928211 3.5 1.81853 3.131218 2.474874 2.474874 
C 3.131218 1.81853 3.5 0.928211 3.5 0 
C 3.5 -0.928211 3.131218 -1.81853 2.474874 -2.474874 
C 1.81853 -3.131218 0.928211 -3.5 0 -3.5 
C -0.928211 -3.5 -1.81853 -3.131218 -2.474874 -2.474874 
C -3.131218 -1.81853 -3.5 -0.928211 -3.5 0 
C -3.5 0.928211 -3.131218 1.81853 -2.474874 2.474874 
C -1.81853 3.131218 -0.928211 3.5 0 3.5 
z
" style="stroke: #795548"/>
    </defs>
    <g clip-path="url(#p202a6cb3c9)">
     <use xlink:href="#m08d05d17cd" x="80.749972" y="287.677969" style="fill: #795548; stroke: #795548"/>
    </g>
   </g>
   <g id="line2d_32">
    <g clip-path="url(#p202a6cb3c9)">
     <use xlink:href="#m08d05d17cd" x="486.568153" y="45.516719" style="fill: #795548; stroke: #795548"/>
    </g>
   </g>
   <g id="line2d_33">
    <defs>
     <path id="mbc919e8141" d="M 0 3.5 
C 0.928211 3.5 1.81853 3.131218 2.474874 2.474874 
C 3.131218 1.81853 3.5 0.928211 3.5 0 
C 3.5 -0.928211 3.131218 -1.81853 2.474874 -2.474874 
C 1.81853 -3.131218 0.928211 -3.5 0 -3.5 
C -0.928211 -3.5 -1.81853 -3.131218 -2.474874 -2.474874 
C -3.131218 -1.81853 -3.5 -0.928211 -3.5 0 
C -3.5 0.928211 -3.131218 1.81853 -2.474874 2.474874 
C -1.81853 3.131218 -0.928211 3.5 0 3.5 
z
" style="stroke: #4caf50"/>
    </defs>
    <g clip-path="url(#p202a6cb3c9)">
     <use xlink:href="#mbc919e8141" x="283.659063" y="132.580618" style="fill: #4caf50; stroke: #4caf50"/>
    </g>
   </g>
   <g id="line2d_34">
    <g clip-path="url(#p202a6cb3c9)">
     <use xlink:href="#mbc919e8141" x="385.113608" y="73.693685" style="fill: #4caf50; stroke: #4caf50"/>
    </g>
   </g>
   <g id="line2d_35">
    <g clip-path="url(#p202a6cb3c9)">
     <use xlink:href="#mbc919e8141" x="334.386335" y="92.202854" style="fill: #4caf50; stroke: #4caf50"/>
    </g>
   </g>
   <g id="line2d_36">
    <g clip-path="url(#p202a6cb3c9)">
     <use xlink:href="#mbc919e8141" x="308.204517" y="81.116378" style="fill: #4caf50; stroke: #4caf50"/>
    </g>
   </g>
   <g id="line2d_37">
    <g clip-path="url(#p202a6cb3c9)">
     <use xlink:href="#mbc919e8141" x="321.295426" y="102.561179" style="fill: #4caf50; stroke: #4caf50"/>
    </g>
   </g>
   <g id="line2d_38">
    <g clip-path="url(#p202a6cb3c9)">
     <use xlink:href="#mbc919e8141" x="314.749972" y="101.300571" style="fill: #4caf50; stroke: #4caf50"/>
    </g>
   </g>
   <g id="line2d_39">
    <g clip-path="url(#p202a6cb3c9)">
     <use xlink:href="#mbc919e8141" x="318.022699" y="139.713749" style="fill: #4caf50; stroke: #4caf50"/>
    </g>
   </g>
   <g id="line2d_40">
    <g clip-path="url(#p202a6cb3c9)">
     <use xlink:href="#mbc919e8141" x="316.386335" y="94.819367" style="fill: #4caf50; stroke: #4caf50"/>
    </g>
   </g>
   <g id="line2d_41">
    <defs>
     <path id="m56067030ff" d="M 0 3.5 
C 0.928211 3.5 1.81853 3.131218 2.474874 2.474874 
C 3.131218 1.81853 3.5 0.928211 3.5 0 
C 3.5 -0.928211 3.131218 -1.81853 2.474874 -2.474874 
C 1.81853 -3.131218 0.928211 -3.5 0 -3.5 
C -0.928211 -3.5 -1.81853 -3.131218 -2.474874 -2.474874 
C -3.131218 -1.81853 -3.5 -0.928211 -3.5 0 
C -3.5 0.928211 -3.131218 1.81853 -2.474874 2.474874 
C -1.81853 3.131218 -0.928211 3.5 0 3.5 
z
" style="stroke: #e91e63"/>
    </defs>
    <g clip-path="url(#p202a6cb3c9)">
     <use xlink:href="#m56067030ff" x="435.840881" y="50.818697" style="fill: #e91e63; stroke: #e91e63"/>
    </g>
   </g>
   <g id="line2d_42">
    <g clip-path="url(#p202a6cb3c9)">
     <use xlink:href="#m56067030ff" x="437.477244" y="59.983832" style="fill: #e91e63; stroke: #e91e63"/>
    </g>
   </g>
   <g id="line2d_43">
    <g clip-path="url(#p202a6cb3c9)">
     <use xlink:href="#m56067030ff" x="439.113608" y="60.867611" style="fill: #e91e63; stroke: #e91e63"/>
    </g>
   </g>
   <g id="line2d_44">
    <g clip-path="url(#p202a6cb3c9)">
     <use xlink:href="#m56067030ff" x="440.749972" y="84.785935" style="fill: #e91e63; stroke: #e91e63"/>
    </g>
   </g>
   <g id="line2d_45">
    <g clip-path="url(#p202a6cb3c9)">
     <use xlink:href="#m56067030ff" x="442.386335" y="59.428664" style="fill: #e91e63; stroke: #e91e63"/>
    </g>
   </g>
   <g id="line2d_46">
    <g clip-path="url(#p202a6cb3c9)">
     <use xlink:href="#m56067030ff" x="444.022699" y="64.132621" style="fill: #e91e63; stroke: #e91e63"/>
    </g>
   </g>
   <g id="line2d_47">
    <g clip-path="url(#p202a6cb3c9)">
     <use xlink:href="#m56067030ff" x="445.659063" y="55.254392" style="fill: #e91e63; stroke: #e91e63"/>
    </g>
   </g>
   <g id="line2d_48">
    <g clip-path="url(#p202a6cb3c9)">
     <use xlink:href="#m56067030ff" x="447.295426" y="59.094124" style="fill: #e91e63; stroke: #e91e63"/>
    </g>
   </g>
   <g id="line2d_49">
    <g clip-path="url(#p202a6cb3c9)">
     <use xlink:href="#m56067030ff" x="448.93179" y="52.46494" style="fill: #e91e63; stroke: #e91e63"/>
    </g>
   </g>
   <g id="line2d_50">
    <g clip-path="url(#p202a6cb3c9)">
     <use xlink:href="#m56067030ff" x="450.568153" y="62.069669" style="fill: #e91e63; stroke: #e91e63"/>
    </g>
   </g>
   <g id="line2d_51">
    <g clip-path="url(#p202a6cb3c9)">
     <use xlink:href="#m56067030ff" x="452.204517" y="64.622194" style="fill: #e91e63; stroke: #e91e63"/>
    </g>
   </g>
   <g id="line2d_52">
    <g clip-path="url(#p202a6cb3c9)">
     <use xlink:href="#m56067030ff" x="453.840881" y="62.466262" style="fill: #e91e63; stroke: #e91e63"/>
    </g>
   </g>
   <g id="line2d_53">
    <g clip-path="url(#p202a6cb3c9)">
     <use xlink:href="#m56067030ff" x="455.477244" y="40.137903" style="fill: #e91e63; stroke: #e91e63"/>
    </g>
   </g>
   <g id="line2d_54">
    <g clip-path="url(#p202a6cb3c9)">
     <use xlink:href="#m56067030ff" x="457.113608" y="63.608164" style="fill: #e91e63; stroke: #e91e63"/>
    </g>
   </g>
   <g id="line2d_55">
    <g clip-path="url(#p202a6cb3c9)">
     <use xlink:href="#m56067030ff" x="458.749972" y="56.893799" style="fill: #e91e63; stroke: #e91e63"/>
    </g>
   </g>
   <g id="line2d_56">
    <g clip-path="url(#p202a6cb3c9)">
     <use xlink:href="#m56067030ff" x="460.386335" y="66.155157" style="fill: #e91e63; stroke: #e91e63"/>
    </g>
   </g>
   <g id="line2d_57">
    <g clip-path="url(#p202a6cb3c9)">
     <use xlink:href="#m56067030ff" x="462.022699" y="53.30095" style="fill: #e91e63; stroke: #e91e63"/>
    </g>
   </g>
   <g id="line2d_58">
    <g clip-path="url(#p202a6cb3c9)">
     <use xlink:href="#m56067030ff" x="463.659063" y="62.555764" style="fill: #e91e63; stroke: #e91e63"/>
    </g>
   </g>
   <g id="line2d_59">
    <g clip-path="url(#p202a6cb3c9)">
     <use xlink:href="#m56067030ff" x="465.295426" y="56.933424" style="fill: #e91e63; stroke: #e91e63"/>
    </g>
   </g>
   <g id="line2d_60">
    <g clip-path="url(#p202a6cb3c9)">
     <use xlink:href="#m56067030ff" x="466.93179" y="65.405159" style="fill: #e91e63; stroke: #e91e63"/>
    </g>
   </g>
   <g id="line2d_61">
    <g clip-path="url(#p202a6cb3c9)">
     <use xlink:href="#m56067030ff" x="468.568153" y="35.677969" style="fill: #e91e63; stroke: #e91e63"/>
    </g>
   </g>
   <g id="line2d_62">
    <g clip-path="url(#p202a6cb3c9)">
     <use xlink:href="#m56067030ff" x="470.204517" y="63.09957" style="fill: #e91e63; stroke: #e91e63"/>
    </g>
   </g>
   <g id="line2d_63">
    <g clip-path="url(#p202a6cb3c9)">
     <use xlink:href="#m56067030ff" x="471.840881" y="49.01693" style="fill: #e91e63; stroke: #e91e63"/>
    </g>
   </g>
   <g id="line2d_64">
    <g clip-path="url(#p202a6cb3c9)">
     <use xlink:href="#m56067030ff" x="473.477244" y="52.098093" style="fill: #e91e63; stroke: #e91e63"/>
    </g>
   </g>
   <g id="line2d_65">
    <g clip-path="url(#p202a6cb3c9)">
     <use xlink:href="#m56067030ff" x="475.113608" y="58.469879" style="fill: #e91e63; stroke: #e91e63"/>
    </g>
   </g>
   <g id="line2d_66">
    <g clip-path="url(#p202a6cb3c9)">
     <use xlink:href="#m56067030ff" x="476.749972" y="54.635334" style="fill: #e91e63; stroke: #e91e63"/>
    </g>
   </g>
   <g id="line2d_67">
    <g clip-path="url(#p202a6cb3c9)">
     <use xlink:href="#m56067030ff" x="478.386335" y="57.553694" style="fill: #e91e63; stroke: #e91e63"/>
    </g>
   </g>
   <g id="line2d_68">
    <g clip-path="url(#p202a6cb3c9)">
     <use xlink:href="#m56067030ff" x="480.022699" y="53.851658" style="fill: #e91e63; stroke: #e91e63"/>
    </g>
   </g>
   <g id="line2d_69">
    <g clip-path="url(#p202a6cb3c9)">
     <use xlink:href="#m56067030ff" x="481.659063" y="39.498207" style="fill: #e91e63; stroke: #e91e63"/>
    </g>
   </g>
   <g id="line2d_70">
    <g clip-path="url(#p202a6cb3c9)">
     <use xlink:href="#m56067030ff" x="483.295426" y="47.462681" style="fill: #e91e63; stroke: #e91e63"/>
    </g>
   </g>
   <g id="line2d_71">
    <g clip-path="url(#p202a6cb3c9)">
     <use xlink:href="#m56067030ff" x="484.93179" y="59.243756" style="fill: #e91e63; stroke: #e91e63"/>
    </g>
   </g>
   <g id="legend_1">
    <g id="patch_88">
     <path d="M 67.459063 60.434219 
L 138.484062 60.434219 
Q 140.484062 60.434219 140.484062 58.434219 
L 140.484062 30.077969 
Q 140.484062 28.077969 138.484062 28.077969 
L 67.459063 28.077969 
Q 65.459063 28.077969 65.459063 30.077969 
L 65.459063 58.434219 
Q 65.459063 60.434219 67.459063 60.434219 
z
" style="fill: #ffffff; opacity: 0.8; stroke: #cccccc; stroke-linejoin: miter"/>
    </g>
    <g id="line2d_72">
     <path d="M 69.459063 36.176406 
L 79.459063 36.176406 
L 89.459063 36.176406 
" style="fill: none; stroke: #2196f3; stroke-width: 2; stroke-linecap: square"/>
     <g>
      <use xlink:href="#mf18a9483cf" x="79.459063" y="36.176406" style="fill: #2196f3; stroke: #2196f3"/>
     </g>
    </g>
    <g id="text_59">
     <!-- f(K) -->
     <g transform="translate(97.459063 39.676406) scale(0.1 -0.1)">
      <defs>
       <path id="DejaVuSans-66" d="M 2375 4863 
L 2375 4384 
L 1825 4384 
Q 1516 4384 1395 4259 
Q 1275 4134 1275 3809 
L 1275 3500 
L 2222 3500 
L 2222 3053 
L 1275 3053 
L 1275 0 
L 697 0 
L 697 3053 
L 147 3053 
L 147 3500 
L 697 3500 
L 697 3744 
Q 697 4328 969 4595 
Q 1241 4863 1831 4863 
L 2375 4863 
z
" transform="scale(0.015625)"/>
       <path id="DejaVuSans-4b" d="M 628 4666 
L 1259 4666 
L 1259 2694 
L 3353 4666 
L 4166 4666 
L 1850 2491 
L 4331 0 
L 3500 0 
L 1259 2247 
L 1259 0 
L 628 0 
L 628 4666 
z
" transform="scale(0.015625)"/>
      </defs>
      <use xlink:href="#DejaVuSans-66"/>
      <use xlink:href="#DejaVuSans-28" transform="translate(35.205078 0)"/>
      <use xlink:href="#DejaVuSans-4b" transform="translate(74.21875 0)"/>
      <use xlink:href="#DejaVuSans-29" transform="translate(139.794922 0)"/>
     </g>
    </g>
    <g id="line2d_73">
     <path d="M 69.459063 50.854531 
L 79.459063 50.854531 
L 89.459063 50.854531 
" style="fill: none; stroke-dasharray: 7.4,3.2; stroke-dashoffset: 0; stroke: #f44336; stroke-width: 2"/>
    </g>
    <g id="text_60">
     <!-- K*=245 -->
     <g transform="translate(97.459063 54.354531) scale(0.1 -0.1)">
      <defs>
       <path id="DejaVuSans-2a" d="M 3009 3897 
L 1888 3291 
L 3009 2681 
L 2828 2375 
L 1778 3009 
L 1778 1831 
L 1422 1831 
L 1422 3009 
L 372 2375 
L 191 2681 
L 1313 3291 
L 191 3897 
L 372 4206 
L 1422 3572 
L 1422 4750 
L 1778 4750 
L 1778 3572 
L 2828 4206 
L 3009 3897 
z
" transform="scale(0.015625)"/>
       <path id="DejaVuSans-3d" d="M 678 2906 
L 4684 2906 
L 4684 2381 
L 678 2381 
L 678 2906 
z
M 678 1631 
L 4684 1631 
L 4684 1100 
L 678 1100 
L 678 1631 
z
" transform="scale(0.015625)"/>
      </defs>
      <use xlink:href="#DejaVuSans-4b"/>
      <use xlink:href="#DejaVuSans-2a" transform="translate(65.576172 0)"/>
      <use xlink:href="#DejaVuSans-3d" transform="translate(115.576172 0)"/>
      <use xlink:href="#DejaVuSans-32" transform="translate(199.365234 0)"/>
      <use xlink:href="#DejaVuSans-34" transform="translate(262.988281 0)"/>
      <use xlink:href="#DejaVuSans-35" transform="translate(326.611328 0)"/>
     </g>
    </g>
   </g>
  </g>
 </g>
 <defs>
  <clipPath id="p202a6cb3c9">
   <rect x="60.459063" y="23.077969" width="446.4" height="277.2"/>
  </clipPath>
 </defs>
</svg>
