<?xml version="1.0" encoding="utf-8" standalone="no"?>
<!DOCTYPE svg PUBLIC "-//W3C//DTD SVG 1.1//EN"
  "http://www.w3.org/Graphics/SVG/1.1/DTD/svg11.dtd">
<svg xmlns:xlink="http://www.w3.org/1999/xlink" width="514.059062pt" height="339.769844pt" viewBox="0 0 514.059062 339.769844" xmlns="http://www.w3.org/2000/svg" version="1.1">
 <metadata>
  <rdf:RDF xmlns:dc="http://purl.org/dc/elements/1.1/" xmlns:cc="http://creativecommons.org/ns#" xmlns:rdf="http://www.w3.org/1999/02/22-rdf-syntax-ns#">
   <cc:Work>
    <dc:type rdf:resource="http://purl.org/dc/dcmitype/StillImage"/>
    <dc:date>2026-06-03T19:42:24.084340</dc:date>
    <dc:format>image/svg+xml</dc:format>
    <dc:creator>
     <cc:Agent>
      <dc:title>Matplotlib v3.10.8, https://matplotlib.org/</dc:title>
     </cc:Agent>
    </dc:creator>
   </cc:Work>
  </rdf:RDF>
 </metadata>
 <defs>
  <style type="text/css">*{stroke-linejoin: round; stroke-linecap: butt}</style>
 </defs>
 <g id="figure_1">
  <g id="patch_1">
   <path d="M 0 339.769844 
L 514.059062 339.769844 
L 514.059062 0 
L 0 0 
z
" style="fill: #ffffff"/>
  </g>
  <g id="axes_1">
   <g id="patch_2">
    <path d="M 60.459063 300.277969 
L 506.859062 300.277969 
L 506.859062 23.077969 
L 60.459063 23.077969 
z
" style="fill: #ffffff"/>
   </g>
   <g id="matplotlib.axis_1">
    <g id="xtick_1">
     <g id="line2d_1">
      <path d="M 67.659063 300.277969 
L 67.659063 23.077969 
" clip-path="url(#p3754ea0bf0)" style="fill: none; stroke: #b0b0b0; stroke-opacity: 0.3; stroke-width: 0.8; stroke-linecap: square"/>
     </g>
     <g id="line2d_2">
      <defs>
       <path id="m4dfa6a26f4" d="M 0 0 
L 0 3.5 
" style="stroke: #000000; stroke-width: 0.8"/>
      </defs>
      <g>
       <use xlink:href="#m4dfa6a26f4" x="67.659063" y="300.277969" style="stroke: #000000; stroke-width: 0.8"/>
      </g>
     </g>
     <g id="text_1">
      <!-- 0 -->
      <g transform="translate(64.477812 314.876406) scale(0.1 -0.1)">
       <defs>
        <path id="DejaVuSans-30" d="M 2034 4250 
Q 1547 4250 1301 3770 
Q 1056 3291 1056 2328 
Q 1056 1369 1301 889 
Q 1547 409 2034 409 
Q 2525 409 2770 889 
Q 3016 1369 3016 2328 
Q 3016 3291 2770 3770 
Q 2525 4250 2034 4250 
z
M 2034 4750 
Q 2819 4750 3233 4129 
Q 3647 3509 3647 2328 
Q 3647 1150 3233 529 
Q 2819 -91 2034 -91 
Q 1250 -91 836 529 
Q 422 1150 422 2328 
Q 422 3509 836 4129 
Q 1250 4750 2034 4750 
z
" transform="scale(0.015625)"/>
       </defs>
       <use xlink:href="#DejaVuSans-30"/>
      </g>
     </g>
    </g>
    <g id="xtick_2">
     <g id="line2d_3">
      <path d="M 149.477244 300.277969 
L 149.477244 23.077969 
" clip-path="url(#p3754ea0bf0)" style="fill: none; stroke: #b0b0b0; stroke-opacity: 0.3; stroke-width: 0.8; stroke-linecap: square"/>
     </g>
     <g id="line2d_4">
      <g>
       <use xlink:href="#m4dfa6a26f4" x="149.477244" y="300.277969" style="stroke: #000000; stroke-width: 0.8"/>
      </g>
     </g>
     <g id="text_2">
      <!-- 50 -->
      <g transform="translate(143.114744 314.876406) scale(0.1 -0.1)">
       <defs>
        <path id="DejaVuSans-35" d="M 691 4666 
L 3169 4666 
L 3169 4134 
L 1269 4134 
L 1269 2991 
Q 1406 3038 1543 3061 
Q 1681 3084 1819 3084 
Q 2600 3084 3056 2656 
Q 3513 2228 3513 1497 
Q 3513 744 3044 326 
Q 2575 -91 1722 -91 
Q 1428 -91 1123 -41 
Q 819 9 494 109 
L 494 744 
Q 775 591 1075 516 
Q 1375 441 1709 441 
Q 2250 441 2565 725 
Q 2881 1009 2881 1497 
Q 2881 1984 2565 2268 
Q 2250 2553 1709 2553 
Q 1456 2553 1204 2497 
Q 953 2441 691 2322 
L 691 4666 
z
" transform="scale(0.015625)"/>
       </defs>
       <use xlink:href="#DejaVuSans-35"/>
       <use xlink:href="#DejaVuSans-30" transform="translate(63.623047 0)"/>
      </g>
     </g>
    </g>
    <g id="xtick_3">
     <g id="line2d_5">
      <path d="M 231.295426 300.277969 
L 231.295426 23.077969 
" clip-path="url(#p3754ea0bf0)" style="fill: none; stroke: #b0b0b0; stroke-opacity: 0.3; stroke-width: 0.8; stroke-linecap: square"/>
     </g>
     <g id="line2d_6">
      <g>
       <use xlink:href="#m4dfa6a26f4" x="231.295426" y="300.277969" style="stroke: #000000; stroke-width: 0.8"/>
      </g>
     </g>
     <g id="text_3">
      <!-- 100 -->
      <g transform="translate(221.751676 314.876406) scale(0.1 -0.1)">
       <defs>
        <path id="DejaVuSans-31" d="M 794 531 
L 1825 531 
L 1825 4091 
L 703 3866 
L 703 4441 
L 1819 4666 
L 2450 4666 
L 2450 531 
L 3481 531 
L 3481 0 
L 794 0 
L 794 531 
z
" transform="scale(0.015625)"/>
       </defs>
       <use xlink:href="#DejaVuSans-31"/>
       <use xlink:href="#DejaVuSans-30" transform="translate(63.623047 0)"/>
       <use xlink:href="#DejaVuSans-30" transform="translate(127.246094 0)"/>
      </g>
     </g>
    </g>
    <g id="xtick_4">
     <g id="line2d_7">
      <path d="M 313.113608 300.277969 
L 313.113608 23.077969 
" clip-path="url(#p3754ea0bf0)" style="fill: none; stroke: #b0b0b0; stroke-opacity: 0.3; stroke-width: 0.8; stroke-linecap: square"/>
     </g>
     <g id="line2d_8">
      <g>
       <use xlink:href="#m4dfa6a26f4" x="313.113608" y="300.277969" style="stroke: #000000; stroke-width: 0.8"/>
      </g>
     </g>
     <g id="text_4">
      <!-- 150 -->
      <g transform="translate(303.569858 314.876406) scale(0.1 -0.1)">
       <use xlink:href="#DejaVuSans-31"/>
       <use xlink:href="#DejaVuSans-35" transform="translate(63.623047 0)"/>
       <use xlink:href="#DejaVuSans-30" transform="translate(127.246094 0)"/>
      </g>
     </g>
    </g>
    <g id="xtick_5">
     <g id="line2d_9">
      <path d="M 394.93179 300.277969 
L 394.93179 23.077969 
" clip-path="url(#p3754ea0bf0)" style="fill: none; stroke: #b0b0b0; stroke-opacity: 0.3; stroke-width: 0.8; stroke-linecap: square"/>
     </g>
     <g id="line2d_10">
      <g>
       <use xlink:href="#m4dfa6a26f4" x="394.93179" y="300.277969" style="stroke: #000000; stroke-width: 0.8"/>
      </g>
     </g>
     <g id="text_5">
      <!-- 200 -->
      <g transform="translate(385.38804 314.876406) scale(0.1 -0.1)">
       <defs>
        <path id="DejaVuSans-32" d="M 1228 531 
L 3431 531 
L 3431 0 
L 469 0 
L 469 531 
Q 828 903 1448 1529 
Q 2069 2156 2228 2338 
Q 2531 2678 2651 2914 
Q 2772 3150 2772 3378 
Q 2772 3750 2511 3984 
Q 2250 4219 1831 4219 
Q 1534 4219 1204 4116 
Q 875 4013 500 3803 
L 500 4441 
Q 881 4594 1212 4672 
Q 1544 4750 1819 4750 
Q 2544 4750 2975 4387 
Q 3406 4025 3406 3419 
Q 3406 3131 3298 2873 
Q 3191 2616 2906 2266 
Q 2828 2175 2409 1742 
Q 1991 1309 1228 531 
z
" transform="scale(0.015625)"/>
       </defs>
       <use xlink:href="#DejaVuSans-32"/>
       <use xlink:href="#DejaVuSans-30" transform="translate(63.623047 0)"/>
       <use xlink:href="#DejaVuSans-30" transform="translate(127.246094 0)"/>
      </g>
     </g>
    </g>
    <g id="xtick_6">
     <g id="line2d_11">
      <path d="M 476.749972 300.277969 
L 476.749972 23.077969 
" clip-path="url(#p3754ea0bf0)" style="fill: none; stroke: #b0b0b0; stroke-opacity: 0.3; stroke-width: 0.8; stroke-linecap: square"/>
     </g>
     <g id="line2d_12">
      <g>
       <use xlink:href="#m4dfa6a26f4" x="476.749972" y="300.277969" style="stroke: #000000; stroke-width: 0.8"/>
      </g>
     </g>
     <g id="text_6">
      <!-- 250 -->
      <g transform="translate(467.206222 314.876406) scale(0.1 -0.1)">
       <use xlink:href="#DejaVuSans-32"/>
       <use xlink:href="#DejaVuSans-35" transform="translate(63.623047 0)"/>
       <use xlink:href="#DejaVuSans-30" transform="translate(127.246094 0)"/>
      </g>
     </g>
    </g>
    <g id="text_7">
     <!-- Hidden dim -->
     <g transform="translate(249.140312 330.074219) scale(0.12 -0.12)">
      <defs>
       <path id="DejaVuSans-48" d="M 628 4666 
L 1259 4666 
L 1259 2753 
L 3553 2753 
L 3553 4666 
L 4184 4666 
L 4184 0 
L 3553 0 
L 3553 2222 
L 1259 2222 
L 1259 0 
L 628 0 
L 628 4666 
z
" transform="scale(0.015625)"/>
       <path id="DejaVuSans-69" d="M 603 3500 
L 1178 3500 
L 1178 0 
L 603 0 
L 603 3500 
z
M 603 4863 
L 1178 4863 
L 1178 4134 
L 603 4134 
L 603 4863 
z
" transform="scale(0.015625)"/>
       <path id="DejaVuSans-64" d="M 2906 2969 
L 2906 4863 
L 3481 4863 
L 3481 0 
L 2906 0 
L 2906 525 
Q 2725 213 2448 61 
Q 2172 -91 1784 -91 
Q 1150 -91 751 415 
Q 353 922 353 1747 
Q 353 2572 751 3078 
Q 1150 3584 1784 3584 
Q 2172 3584 2448 3432 
Q 2725 3281 2906 2969 
z
M 947 1747 
Q 947 1113 1208 752 
Q 1469 391 1925 391 
Q 2381 391 2643 752 
Q 2906 1113 2906 1747 
Q 2906 2381 2643 2742 
Q 2381 3103 1925 3103 
Q 1469 3103 1208 2742 
Q 947 2381 947 1747 
z
" transform="scale(0.015625)"/>
       <path id="DejaVuSans-65" d="M 3597 1894 
L 3597 1613 
L 953 1613 
Q 991 1019 1311 708 
Q 1631 397 2203 397 
Q 2534 397 2845 478 
Q 3156 559 3463 722 
L 3463 178 
Q 3153 47 2828 -22 
Q 2503 -91 2169 -91 
Q 1331 -91 842 396 
Q 353 884 353 1716 
Q 353 2575 817 3079 
Q 1281 3584 2069 3584 
Q 2775 3584 3186 3129 
Q 3597 2675 3597 1894 
z
M 3022 2063 
Q 3016 2534 2758 2815 
Q 2500 3097 2075 3097 
Q 1594 3097 1305 2825 
Q 1016 2553 972 2059 
L 3022 2063 
z
" transform="scale(0.015625)"/>
       <path id="DejaVuSans-6e" d="M 3513 2113 
L 3513 0 
L 2938 0 
L 2938 2094 
Q 2938 2591 2744 2837 
Q 2550 3084 2163 3084 
Q 1697 3084 1428 2787 
Q 1159 2491 1159 1978 
L 1159 0 
L 581 0 
L 581 3500 
L 1159 3500 
L 1159 2956 
Q 1366 3272 1645 3428 
Q 1925 3584 2291 3584 
Q 2894 3584 3203 3211 
Q 3513 2838 3513 2113 
z
" transform="scale(0.015625)"/>
       <path id="DejaVuSans-20" transform="scale(0.015625)"/>
       <path id="DejaVuSans-6d" d="M 3328 2828 
Q 3544 3216 3844 3400 
Q 4144 3584 4550 3584 
Q 5097 3584 5394 3201 
Q 5691 2819 5691 2113 
L 5691 0 
L 5113 0 
L 5113 2094 
Q 5113 2597 4934 2840 
Q 4756 3084 4391 3084 
Q 3944 3084 3684 2787 
Q 3425 2491 3425 1978 
L 3425 0 
L 2847 0 
L 2847 2094 
Q 2847 2600 2669 2842 
Q 2491 3084 2119 3084 
Q 1678 3084 1418 2786 
Q 1159 2488 1159 1978 
L 1159 0 
L 581 0 
L 581 3500 
L 1159 3500 
L 1159 2956 
Q 1356 3278 1631 3431 
Q 1906 3584 2284 3584 
Q 2666 3584 2933 3390 
Q 3200 3197 3328 2828 
z
" transform="scale(0.015625)"/>
      </defs>
      <use xlink:href="#DejaVuSans-48"/>
      <use xlink:href="#DejaVuSans-69" transform="translate(75.195312 0)"/>
      <use xlink:href="#DejaVuSans-64" transform="translate(102.978516 0)"/>
      <use xlink:href="#DejaVuSans-64" transform="translate(166.455078 0)"/>
      <use xlink:href="#DejaVuSans-65" transform="translate(229.931641 0)"/>
      <use xlink:href="#DejaVuSans-6e" transform="translate(291.455078 0)"/>
      <use xlink:href="#DejaVuSans-20" transform="translate(354.833984 0)"/>
      <use xlink:href="#DejaVuSans-64" transform="translate(386.621094 0)"/>
      <use xlink:href="#DejaVuSans-69" transform="translate(450.097656 0)"/>
      <use xlink:href="#DejaVuSans-6d" transform="translate(477.880859 0)"/>
     </g>
    </g>
   </g>
   <g id="matplotlib.axis_2">
    <g id="ytick_1">
     <g id="line2d_13">
      <path d="M 60.459063 268.233198 
L 506.859062 268.233198 
" clip-path="url(#p3754ea0bf0)" style="fill: none; stroke: #b0b0b0; stroke-opacity: 0.3; stroke-width: 0.8; stroke-linecap: square"/>
     </g>
     <g id="line2d_14">
      <defs>
       <path id="m456de4cbeb" d="M 0 0 
L -3.5 0 
" style="stroke: #000000; stroke-width: 0.8"/>
      </defs>
      <g>
       <use xlink:href="#m456de4cbeb" x="60.459063" y="268.233198" style="stroke: #000000; stroke-width: 0.8"/>
      </g>
     </g>
     <g id="text_8">
      <!-- −0.60 -->
      <g transform="translate(22.81375 272.032417) scale(0.1 -0.1)">
       <defs>
        <path id="DejaVuSans-2212" d="M 678 2272 
L 4684 2272 
L 4684 1741 
L 678 1741 
L 678 2272 
z
" transform="scale(0.015625)"/>
        <path id="DejaVuSans-2e" d="M 684 794 
L 1344 794 
L 1344 0 
L 684 0 
L 684 794 
z
" transform="scale(0.015625)"/>
        <path id="DejaVuSans-36" d="M 2113 2584 
Q 1688 2584 1439 2293 
Q 1191 2003 1191 1497 
Q 1191 994 1439 701 
Q 1688 409 2113 409 
Q 2538 409 2786 701 
Q 3034 994 3034 1497 
Q 3034 2003 2786 2293 
Q 2538 2584 2113 2584 
z
M 3366 4563 
L 3366 3988 
Q 3128 4100 2886 4159 
Q 2644 4219 2406 4219 
Q 1781 4219 1451 3797 
Q 1122 3375 1075 2522 
Q 1259 2794 1537 2939 
Q 1816 3084 2150 3084 
Q 2853 3084 3261 2657 
Q 3669 2231 3669 1497 
Q 3669 778 3244 343 
Q 2819 -91 2113 -91 
Q 1303 -91 875 529 
Q 447 1150 447 2328 
Q 447 3434 972 4092 
Q 1497 4750 2381 4750 
Q 2619 4750 2861 4703 
Q 3103 4656 3366 4563 
z
" transform="scale(0.015625)"/>
       </defs>
       <use xlink:href="#DejaVuSans-2212"/>
       <use xlink:href="#DejaVuSans-30" transform="translate(83.789062 0)"/>
       <use xlink:href="#DejaVuSans-2e" transform="translate(147.412109 0)"/>
       <use xlink:href="#DejaVuSans-36" transform="translate(179.199219 0)"/>
       <use xlink:href="#DejaVuSans-30" transform="translate(242.822266 0)"/>
      </g>
     </g>
    </g>
    <g id="ytick_2">
     <g id="line2d_15">
      <path d="M 60.459063 234.436466 
L 506.859062 234.436466 
" clip-path="url(#p3754ea0bf0)" style="fill: none; stroke: #b0b0b0; stroke-opacity: 0.3; stroke-width: 0.8; stroke-linecap: square"/>
     </g>
     <g id="line2d_16">
      <g>
       <use xlink:href="#m456de4cbeb" x="60.459063" y="234.436466" style="stroke: #000000; stroke-width: 0.8"/>
      </g>
     </g>
     <g id="text_9">
      <!-- −0.55 -->
      <g transform="translate(22.81375 238.235685) scale(0.1 -0.1)">
       <use xlink:href="#DejaVuSans-2212"/>
       <use xlink:href="#DejaVuSans-30" transform="translate(83.789062 0)"/>
       <use xlink:href="#DejaVuSans-2e" transform="translate(147.412109 0)"/>
       <use xlink:href="#DejaVuSans-35" transform="translate(179.199219 0)"/>
       <use xlink:href="#DejaVuSans-35" transform="translate(242.822266 0)"/>
      </g>
     </g>
    </g>
    <g id="ytick_3">
     <g id="line2d_17">
      <path d="M 60.459063 200.639735 
L 506.859062 200.639735 
" clip-path="url(#p3754ea0bf0)" style="fill: none; stroke: #b0b0b0; stroke-opacity: 0.3; stroke-width: 0.8; stroke-linecap: square"/>
     </g>
     <g id="line2d_18">
      <g>
       <use xlink:href="#m456de4cbeb" x="60.459063" y="200.639735" style="stroke: #000000; stroke-width: 0.8"/>
      </g>
     </g>
     <g id="text_10">
      <!-- −0.50 -->
      <g transform="translate(22.81375 204.438953) scale(0.1 -0.1)">
       <use xlink:href="#DejaVuSans-2212"/>
       <use xlink:href="#DejaVuSans-30" transform="translate(83.789062 0)"/>
       <use xlink:href="#DejaVuSans-2e" transform="translate(147.412109 0)"/>
       <use xlink:href="#DejaVuSans-35" transform="translate(179.199219 0)"/>
       <use xlink:href="#DejaVuSans-30" transform="translate(242.822266 0)"/>
      </g>
     </g>
    </g>
    <g id="ytick_4">
     <g id="line2d_19">
      <path d="M 60.459063 166.843003 
L 506.859062 166.843003 
" clip-path="url(#p3754ea0bf0)" style="fill: none; stroke: #b0b0b0; stroke-opacity: 0.3; stroke-width: 0.8; stroke-linecap: square"/>
     </g>
     <g id="line2d_20">
      <g>
       <use xlink:href="#m456de4cbeb" x="60.459063" y="166.843003" style="stroke: #000000; stroke-width: 0.8"/>
      </g>
     </g>
     <g id="text_11">
      <!-- −0.45 -->
      <g transform="translate(22.81375 170.642222) scale(0.1 -0.1)">
       <defs>
        <path id="DejaVuSans-34" d="M 2419 4116 
L 825 1625 
L 2419 1625 
L 2419 4116 
z
M 2253 4666 
L 3047 4666 
L 3047 1625 
L 3713 1625 
L 3713 1100 
L 3047 1100 
L 3047 0 
L 2419 0 
L 2419 1100 
L 313 1100 
L 313 1709 
L 2253 4666 
z
" transform="scale(0.015625)"/>
       </defs>
       <use xlink:href="#DejaVuSans-2212"/>
       <use xlink:href="#DejaVuSans-30" transform="translate(83.789062 0)"/>
       <use xlink:href="#DejaVuSans-2e" transform="translate(147.412109 0)"/>
       <use xlink:href="#DejaVuSans-34" transform="translate(179.199219 0)"/>
       <use xlink:href="#DejaVuSans-35" transform="translate(242.822266 0)"/>
      </g>
     </g>
    </g>
    <g id="ytick_5">
     <g id="line2d_21">
      <path d="M 60.459063 133.046271 
L 506.859062 133.046271 
" clip-path="url(#p3754ea0bf0)" style="fill: none; stroke: #b0b0b0; stroke-opacity: 0.3; stroke-width: 0.8; stroke-linecap: square"/>
     </g>
     <g id="line2d_22">
      <g>
       <use xlink:href="#m456de4cbeb" x="60.459063" y="133.046271" style="stroke: #000000; stroke-width: 0.8"/>
      </g>
     </g>
     <g id="text_12">
      <!-- −0.40 -->
      <g transform="translate(22.81375 136.84549) scale(0.1 -0.1)">
       <use xlink:href="#DejaVuSans-2212"/>
       <use xlink:href="#DejaVuSans-30" transform="translate(83.789062 0)"/>
       <use xlink:href="#DejaVuSans-2e" transform="translate(147.412109 0)"/>
       <use xlink:href="#DejaVuSans-34" transform="translate(179.199219 0)"/>
       <use xlink:href="#DejaVuSans-30" transform="translate(242.822266 0)"/>
      </g>
     </g>
    </g>
    <g id="ytick_6">
     <g id="line2d_23">
      <path d="M 60.459063 99.24954 
L 506.859062 99.24954 
" clip-path="url(#p3754ea0bf0)" style="fill: none; stroke: #b0b0b0; stroke-opacity: 0.3; stroke-width: 0.8; stroke-linecap: square"/>
     </g>
     <g id="line2d_24">
      <g>
       <use xlink:href="#m456de4cbeb" x="60.459063" y="99.24954" style="stroke: #000000; stroke-width: 0.8"/>
      </g>
     </g>
     <g id="text_13">
      <!-- −0.35 -->
      <g transform="translate(22.81375 103.048758) scale(0.1 -0.1)">
       <defs>
        <path id="DejaVuSans-33" d="M 2597 2516 
Q 3050 2419 3304 2112 
Q 3559 1806 3559 1356 
Q 3559 666 3084 287 
Q 2609 -91 1734 -91 
Q 1441 -91 1130 -33 
Q 819 25 488 141 
L 488 750 
Q 750 597 1062 519 
Q 1375 441 1716 441 
Q 2309 441 2620 675 
Q 2931 909 2931 1356 
Q 2931 1769 2642 2001 
Q 2353 2234 1838 2234 
L 1294 2234 
L 1294 2753 
L 1863 2753 
Q 2328 2753 2575 2939 
Q 2822 3125 2822 3475 
Q 2822 3834 2567 4026 
Q 2313 4219 1838 4219 
Q 1578 4219 1281 4162 
Q 984 4106 628 3988 
L 628 4550 
Q 988 4650 1302 4700 
Q 1616 4750 1894 4750 
Q 2613 4750 3031 4423 
Q 3450 4097 3450 3541 
Q 3450 3153 3228 2886 
Q 3006 2619 2597 2516 
z
" transform="scale(0.015625)"/>
       </defs>
       <use xlink:href="#DejaVuSans-2212"/>
       <use xlink:href="#DejaVuSans-30" transform="translate(83.789062 0)"/>
       <use xlink:href="#DejaVuSans-2e" transform="translate(147.412109 0)"/>
       <use xlink:href="#DejaVuSans-33" transform="translate(179.199219 0)"/>
       <use xlink:href="#DejaVuSans-35" transform="translate(242.822266 0)"/>
      </g>
     </g>
    </g>
    <g id="ytick_7">
     <g id="line2d_25">
      <path d="M 60.459063 65.452808 
L 506.859062 65.452808 
" clip-path="url(#p3754ea0bf0)" style="fill: none; stroke: #b0b0b0; stroke-opacity: 0.3; stroke-width: 0.8; stroke-linecap: square"/>
     </g>
     <g id="line2d_26">
      <g>
       <use xlink:href="#m456de4cbeb" x="60.459063" y="65.452808" style="stroke: #000000; stroke-width: 0.8"/>
      </g>
     </g>
     <g id="text_14">
      <!-- −0.30 -->
      <g transform="translate(22.81375 69.252027) scale(0.1 -0.1)">
       <use xlink:href="#DejaVuSans-2212"/>
       <use xlink:href="#DejaVuSans-30" transform="translate(83.789062 0)"/>
       <use xlink:href="#DejaVuSans-2e" transform="translate(147.412109 0)"/>
       <use xlink:href="#DejaVuSans-33" transform="translate(179.199219 0)"/>
       <use xlink:href="#DejaVuSans-30" transform="translate(242.822266 0)"/>
      </g>
     </g>
    </g>
    <g id="ytick_8">
     <g id="line2d_27">
      <path d="M 60.459063 31.656076 
L 506.859062 31.656076 
" clip-path="url(#p3754ea0bf0)" style="fill: none; stroke: #b0b0b0; stroke-opacity: 0.3; stroke-width: 0.8; stroke-linecap: square"/>
     </g>
     <g id="line2d_28">
      <g>
       <use xlink:href="#m456de4cbeb" x="60.459063" y="31.656076" style="stroke: #000000; stroke-width: 0.8"/>
      </g>
     </g>
     <g id="text_15">
      <!-- −0.25 -->
      <g transform="translate(22.81375 35.455295) scale(0.1 -0.1)">
       <use xlink:href="#DejaVuSans-2212"/>
       <use xlink:href="#DejaVuSans-30" transform="translate(83.789062 0)"/>
       <use xlink:href="#DejaVuSans-2e" transform="translate(147.412109 0)"/>
       <use xlink:href="#DejaVuSans-32" transform="translate(179.199219 0)"/>
       <use xlink:href="#DejaVuSans-35" transform="translate(242.822266 0)"/>
      </g>
     </g>
    </g>
    <g id="text_16">
     <!-- -Loss -->
     <g transform="translate(16.318125 177.003281) rotate(-90) scale(0.12 -0.12)">
      <defs>
       <path id="DejaVuSans-2d" d="M 313 2009 
L 1997 2009 
L 1997 1497 
L 313 1497 
L 313 2009 
z
" transform="scale(0.015625)"/>
       <path id="DejaVuSans-4c" d="M 628 4666 
L 1259 4666 
L 1259 531 
L 3531 531 
L 3531 0 
L 628 0 
L 628 4666 
z
" transform="scale(0.015625)"/>
       <path id="DejaVuSans-6f" d="M 1959 3097 
Q 1497 3097 1228 2736 
Q 959 2375 959 1747 
Q 959 1119 1226 758 
Q 1494 397 1959 397 
Q 2419 397 2687 759 
Q 2956 1122 2956 1747 
Q 2956 2369 2687 2733 
Q 2419 3097 1959 3097 
z
M 1959 3584 
Q 2709 3584 3137 3096 
Q 3566 2609 3566 1747 
Q 3566 888 3137 398 
Q 2709 -91 1959 -91 
Q 1206 -91 779 398 
Q 353 888 353 1747 
Q 353 2609 779 3096 
Q 1206 3584 1959 3584 
z
" transform="scale(0.015625)"/>
       <path id="DejaVuSans-73" d="M 2834 3397 
L 2834 2853 
Q 2591 2978 2328 3040 
Q 2066 3103 1784 3103 
Q 1356 3103 1142 2972 
Q 928 2841 928 2578 
Q 928 2378 1081 2264 
Q 1234 2150 1697 2047 
L 1894 2003 
Q 2506 1872 2764 1633 
Q 3022 1394 3022 966 
Q 3022 478 2636 193 
Q 2250 -91 1575 -91 
Q 1294 -91 989 -36 
Q 684 19 347 128 
L 347 722 
Q 666 556 975 473 
Q 1284 391 1588 391 
Q 1994 391 2212 530 
Q 2431 669 2431 922 
Q 2431 1156 2273 1281 
Q 2116 1406 1581 1522 
L 1381 1569 
Q 847 1681 609 1914 
Q 372 2147 372 2553 
Q 372 3047 722 3315 
Q 1072 3584 1716 3584 
Q 2034 3584 2315 3537 
Q 2597 3491 2834 3397 
z
" transform="scale(0.015625)"/>
      </defs>
      <use xlink:href="#DejaVuSans-2d"/>
      <use xlink:href="#DejaVuSans-4c" transform="translate(36.083984 0)"/>
      <use xlink:href="#DejaVuSans-6f" transform="translate(90.046875 0)"/>
      <use xlink:href="#DejaVuSans-73" transform="translate(151.228516 0)"/>
      <use xlink:href="#DejaVuSans-73" transform="translate(203.328125 0)"/>
     </g>
    </g>
   </g>
   <g id="line2d_29">
    <path d="M 80.749972 287.677969 
L 282.022699 138.261564 
L 283.659063 132.580618 
L 306.568153 120.067584 
L 308.204517 81.116378 
L 313.113608 113.209148 
L 314.749972 101.300571 
L 316.386335 94.819367 
L 318.022699 139.713749 
L 319.659063 92.944369 
L 321.295426 102.561179 
L 332.749972 84.756951 
L 334.386335 92.202854 
L 383.477244 71.897145 
L 385.113608 73.693685 
L 435.840881 50.818697 
L 437.477244 59.983832 
L 439.113608 60.867611 
L 440.749972 84.785935 
L 442.386335 59.428664 
L 444.022699 64.132621 
L 445.659063 55.254392 
L 447.295426 59.094124 
L 448.93179 52.46494 
L 450.568153 62.069669 
L 452.204517 64.622194 
L 453.840881 62.466262 
L 455.477244 40.137903 
L 457.113608 63.608164 
L 458.749972 56.893799 
L 460.386335 66.155157 
L 462.022699 53.30095 
L 463.659063 62.555764 
L 465.295426 56.933424 
L 466.93179 65.405159 
L 468.568153 35.677969 
L 470.204517 63.09957 
L 471.840881 49.01693 
L 473.477244 52.098093 
L 475.113608 58.469879 
L 476.749972 54.635334 
L 478.386335 57.553694 
L 480.022699 53.851658 
L 481.659063 39.498207 
L 483.295426 47.462681 
L 484.93179 59.243756 
L 486.568153 45.516719 
" clip-path="url(#p3754ea0bf0)" style="fill: none; stroke: #2196f3; stroke-width: 2; stroke-linecap: square"/>
    <defs>
     <path id="m8b4d759baa" d="M 0 2 
C 0.530406 2 1.03916 1.789267 1.414214 1.414214 
C 1.789267 1.03916 2 0.530406 2 0 
C 2 -0.530406 1.789267 -1.03916 1.414214 -1.414214 
C 1.03916 -1.789267 0.530406 -2 0 -2 
C -0.530406 -2 -1.03916 -1.789267 -1.414214 -1.414214 
C -1.789267 -1.03916 -2 -0.530406 -2 0 
C -2 0.530406 -1.789267 1.03916 -1.414214 1.414214 
C -1.03916 1.789267 -0.530406 2 0 2 
z
" style="stroke: #2196f3"/>
    </defs>
    <g clip-path="url(#p3754ea0bf0)">
     <use xlink:href="#m8b4d759baa" x="80.749972" y="287.677969" style="fill: #2196f3; stroke: #2196f3"/>
     <use xlink:href="#m8b4d759baa" x="282.022699" y="138.261564" style="fill: #2196f3; stroke: #2196f3"/>
     <use xlink:href="#m8b4d759baa" x="283.659063" y="132.580618" style="fill: #2196f3; stroke: #2196f3"/>
     <use xlink:href="#m8b4d759baa" x="306.568153" y="120.067584" style="fill: #2196f3; stroke: #2196f3"/>
     <use xlink:href="#m8b4d759baa" x="308.204517" y="81.116378" style="fill: #2196f3; stroke: #2196f3"/>
     <use xlink:href="#m8b4d759baa" x="313.113608" y="113.209148" style="fill: #2196f3; stroke: #2196f3"/>
     <use xlink:href="#m8b4d759baa" x="314.749972" y="101.300571" style="fill: #2196f3; stroke: #2196f3"/>
     <use xlink:href="#m8b4d759baa" x="316.386335" y="94.819367" style="fill: #2196f3; stroke: #2196f3"/>
     <use xlink:href="#m8b4d759baa" x="318.022699" y="139.713749" style="fill: #2196f3; stroke: #2196f3"/>
     <use xlink:href="#m8b4d759baa" x="319.659063" y="92.944369" style="fill: #2196f3; stroke: #2196f3"/>
     <use xlink:href="#m8b4d759baa" x="321.295426" y="102.561179" style="fill: #2196f3; stroke: #2196f3"/>
     <use xlink:href="#m8b4d759baa" x="332.749972" y="84.756951" style="fill: #2196f3; stroke: #2196f3"/>
     <use xlink:href="#m8b4d759baa" x="334.386335" y="92.202854" style="fill: #2196f3; stroke: #2196f3"/>
     <use xlink:href="#m8b4d759baa" x="383.477244" y="71.897145" style="fill: #2196f3; stroke: #2196f3"/>
     <use xlink:href="#m8b4d759baa" x="385.113608" y="73.693685" style="fill: #2196f3; stroke: #2196f3"/>
     <use xlink:href="#m8b4d759baa" x="435.840881" y="50.818697" style="fill: #2196f3; stroke: #2196f3"/>
     <use xlink:href="#m8b4d759baa" x="437.477244" y="59.983832" style="fill: #2196f3; stroke: #2196f3"/>
     <use xlink:href="#m8b4d759baa" x="439.113608" y="60.867611" style="fill: #2196f3; stroke: #2196f3"/>
     <use xlink:href="#m8b4d759baa" x="440.749972" y="84.785935" style="fill: #2196f3; stroke: #2196f3"/>
     <use xlink:href="#m8b4d759baa" x="442.386335" y="59.428664" style="fill: #2196f3; stroke: #2196f3"/>
     <use xlink:href="#m8b4d759baa" x="444.022699" y="64.132621" style="fill: #2196f3; stroke: #2196f3"/>
     <use xlink:href="#m8b4d759baa" x="445.659063" y="55.254392" style="fill: #2196f3; stroke: #2196f3"/>
     <use xlink:href="#m8b4d759baa" x="447.295426" y="59.094124" style="fill: #2196f3; stroke: #2196f3"/>
     <use xlink:href="#m8b4d759baa" x="448.93179" y="52.46494" style="fill: #2196f3; stroke: #2196f3"/>
     <use xlink:href="#m8b4d759baa" x="450.568153" y="62.069669" style="fill: #2196f3; stroke: #2196f3"/>
     <use xlink:href="#m8b4d759baa" x="452.204517" y="64.622194" style="fill: #2196f3; stroke: #2196f3"/>
     <use xlink:href="#m8b4d759baa" x="453.840881" y="62.466262" style="fill: #2196f3; stroke: #2196f3"/>
     <use xlink:href="#m8b4d759baa" x="455.477244" y="40.137903" style="fill: #2196f3; stroke: #2196f3"/>
     <use xlink:href="#m8b4d759baa" x="457.113608" y="63.608164" style="fill: #2196f3; stroke: #2196f3"/>
     <use xlink:href="#m8b4d759baa" x="458.749972" y="56.893799" style="fill: #2196f3; stroke: #2196f3"/>
     <use xlink:href="#m8b4d759baa" x="460.386335" y="66.155157" style="fill: #2196f3; stroke: #2196f3"/>
     <use xlink:href="#m8b4d759baa" x="462.022699" y="53.30095" style="fill: #2196f3; stroke: #2196f3"/>
     <use xlink:href="#m8b4d759baa" x="463.659063" y="62.555764" style="fill: #2196f3; stroke: #2196f3"/>
     <use xlink:href="#m8b4d759baa" x="465.295426" y="56.933424" style="fill: #2196f3; stroke: #2196f3"/>
     <use xlink:href="#m8b4d759baa" x="466.93179" y="65.405159" style="fill: #2196f3; stroke: #2196f3"/>
     <use xlink:href="#m8b4d759baa" x="468.568153" y="35.677969" style="fill: #2196f3; stroke: #2196f3"/>
     <use xlink:href="#m8b4d759baa" x="470.204517" y="63.09957" style="fill: #2196f3; stroke: #2196f3"/>
     <use xlink:href="#m8b4d759baa" x="471.840881" y="49.01693" style="fill: #2196f3; stroke: #2196f3"/>
     <use xlink:href="#m8b4d759baa" x="473.477244" y="52.098093" style="fill: #2196f3; stroke: #2196f3"/>
     <use xlink:href="#m8b4d759baa" x="475.113608" y="58.469879" style="fill: #2196f3; stroke: #2196f3"/>
     <use xlink:href="#m8b4d759baa" x="476.749972" y="54.635334" style="fill: #2196f3; stroke: #2196f3"/>
     <use xlink:href="#m8b4d759baa" x="478.386335" y="57.553694" style="fill: #2196f3; stroke: #2196f3"/>
     <use xlink:href="#m8b4d759baa" x="480.022699" y="53.851658" style="fill: #2196f3; stroke: #2196f3"/>
     <use xlink:href="#m8b4d759baa" x="481.659063" y="39.498207" style="fill: #2196f3; stroke: #2196f3"/>
     <use xlink:href="#m8b4d759baa" x="483.295426" y="47.462681" style="fill: #2196f3; stroke: #2196f3"/>
     <use xlink:href="#m8b4d759baa" x="484.93179" y="59.243756" style="fill: #2196f3; stroke: #2196f3"/>
     <use xlink:href="#m8b4d759baa" x="486.568153" y="45.516719" style="fill: #2196f3; stroke: #2196f3"/>
    </g>
   </g>
   <g id="line2d_30">
    <path d="M 468.568153 300.277969 
L 468.568153 23.077969 
" clip-path="url(#p3754ea0bf0)" style="fill: none; stroke-dasharray: 7.4,3.2; stroke-dashoffset: 0; stroke: #f44336; stroke-width: 2"/>
   </g>
   <g id="patch_3">
    <path d="M 60.459063 300.277969 
L 60.459063 23.077969 
" style="fill: none; stroke: #000000; stroke-width: 0.8; stroke-linejoin: miter; stroke-linecap: square"/>
   </g>
   <g id="patch_4">
    <path d="M 506.859062 300.277969 
L 506.859062 23.077969 
" style="fill: none; stroke: #000000; stroke-width: 0.8; stroke-linejoin: miter; stroke-linecap: square"/>
   </g>
   <g id="patch_5">
    <path d="M 60.459063 300.277969 
L 506.859062 300.277969 
" style="fill: none; stroke: #000000; stroke-width: 0.8; stroke-linejoin: miter; stroke-linecap: square"/>
   </g>
   <g id="patch_6">
    <path d="M 60.459063 23.077969 
L 506.859062 23.077969 
" style="fill: none; stroke: #000000; stroke-width: 0.8; stroke-linejoin: miter; stroke-linecap: square"/>
   </g>
   <g id="text_17">
    <!-- PyTorch: Hidden Layer Size (binary search, -CE loss) -->
    <g transform="translate(114.821562 17.077969) scale(0.13 -0.13)">
     <defs>
      <path id="DejaVuSans-50" d="M 1259 4147 
L 1259 2394 
L 2053 2394 
Q 2494 2394 2734 2622 
Q 2975 2850 2975 3272 
Q 2975 3691 2734 3919 
Q 2494 4147 2053 4147 
L 1259 4147 
z
M 628 4666 
L 2053 4666 
Q 2838 4666 3239 4311 
Q 3641 3956 3641 3272 
Q 3641 2581 3239 2228 
Q 2838 1875 2053 1875 
L 1259 1875 
L 1259 0 
L 628 0 
L 628 4666 
z
" transform="scale(0.015625)"/>
      <path id="DejaVuSans-79" d="M 2059 -325 
Q 1816 -950 1584 -1140 
Q 1353 -1331 966 -1331 
L 506 -1331 
L 506 -850 
L 844 -850 
Q 1081 -850 1212 -737 
Q 1344 -625 1503 -206 
L 1606 56 
L 191 3500 
L 800 3500 
L 1894 763 
L 2988 3500 
L 3597 3500 
L 2059 -325 
z
" transform="scale(0.015625)"/>
      <path id="DejaVuSans-54" d="M -19 4666 
L 3928 4666 
L 3928 4134 
L 2272 4134 
L 2272 0 
L 1638 0 
L 1638 4134 
L -19 4134 
L -19 4666 
z
" transform="scale(0.015625)"/>
      <path id="DejaVuSans-72" d="M 2631 2963 
Q 2534 3019 2420 3045 
Q 2306 3072 2169 3072 
Q 1681 3072 1420 2755 
Q 1159 2438 1159 1844 
L 1159 0 
L 581 0 
L 581 3500 
L 1159 3500 
L 1159 2956 
Q 1341 3275 1631 3429 
Q 1922 3584 2338 3584 
Q 2397 3584 2469 3576 
Q 2541 3569 2628 3553 
L 2631 2963 
z
" transform="scale(0.015625)"/>
      <path id="DejaVuSans-63" d="M 3122 3366 
L 3122 2828 
Q 2878 2963 2633 3030 
Q 2388 3097 2138 3097 
Q 1578 3097 1268 2742 
Q 959 2388 959 1747 
Q 959 1106 1268 751 
Q 1578 397 2138 397 
Q 2388 397 2633 464 
Q 2878 531 3122 666 
L 3122 134 
Q 2881 22 2623 -34 
Q 2366 -91 2075 -91 
Q 1284 -91 818 406 
Q 353 903 353 1747 
Q 353 2603 823 3093 
Q 1294 3584 2113 3584 
Q 2378 3584 2631 3529 
Q 2884 3475 3122 3366 
z
" transform="scale(0.015625)"/>
      <path id="DejaVuSans-68" d="M 3513 2113 
L 3513 0 
L 2938 0 
L 2938 2094 
Q 2938 2591 2744 2837 
Q 2550 3084 2163 3084 
Q 1697 3084 1428 2787 
Q 1159 2491 1159 1978 
L 1159 0 
L 581 0 
L 581 4863 
L 1159 4863 
L 1159 2956 
Q 1366 3272 1645 3428 
Q 1925 3584 2291 3584 
Q 2894 3584 3203 3211 
Q 3513 2838 3513 2113 
z
" transform="scale(0.015625)"/>
      <path id="DejaVuSans-3a" d="M 750 794 
L 1409 794 
L 1409 0 
L 750 0 
L 750 794 
z
M 750 3309 
L 1409 3309 
L 1409 2516 
L 750 2516 
L 750 3309 
z
" transform="scale(0.015625)"/>
      <path id="DejaVuSans-61" d="M 2194 1759 
Q 1497 1759 1228 1600 
Q 959 1441 959 1056 
Q 959 750 1161 570 
Q 1363 391 1709 391 
Q 2188 391 2477 730 
Q 2766 1069 2766 1631 
L 2766 1759 
L 2194 1759 
z
M 3341 1997 
L 3341 0 
L 2766 0 
L 2766 531 
Q 2569 213 2275 61 
Q 1981 -91 1556 -91 
Q 1019 -91 701 211 
Q 384 513 384 1019 
Q 384 1609 779 1909 
Q 1175 2209 1959 2209 
L 2766 2209 
L 2766 2266 
Q 2766 2663 2505 2880 
Q 2244 3097 1772 3097 
Q 1472 3097 1187 3025 
Q 903 2953 641 2809 
L 641 3341 
Q 956 3463 1253 3523 
Q 1550 3584 1831 3584 
Q 2591 3584 2966 3190 
Q 3341 2797 3341 1997 
z
" transform="scale(0.015625)"/>
      <path id="DejaVuSans-53" d="M 3425 4513 
L 3425 3897 
Q 3066 4069 2747 4153 
Q 2428 4238 2131 4238 
Q 1616 4238 1336 4038 
Q 1056 3838 1056 3469 
Q 1056 3159 1242 3001 
Q 1428 2844 1947 2747 
L 2328 2669 
Q 3034 2534 3370 2195 
Q 3706 1856 3706 1288 
Q 3706 609 3251 259 
Q 2797 -91 1919 -91 
Q 1588 -91 1214 -16 
Q 841 59 441 206 
L 441 856 
Q 825 641 1194 531 
Q 1563 422 1919 422 
Q 2459 422 2753 634 
Q 3047 847 3047 1241 
Q 3047 1584 2836 1778 
Q 2625 1972 2144 2069 
L 1759 2144 
Q 1053 2284 737 2584 
Q 422 2884 422 3419 
Q 422 4038 858 4394 
Q 1294 4750 2059 4750 
Q 2388 4750 2728 4690 
Q 3069 4631 3425 4513 
z
" transform="scale(0.015625)"/>
      <path id="DejaVuSans-7a" d="M 353 3500 
L 3084 3500 
L 3084 2975 
L 922 459 
L 3084 459 
L 3084 0 
L 275 0 
L 275 525 
L 2438 3041 
L 353 3041 
L 353 3500 
z
" transform="scale(0.015625)"/>
      <path id="DejaVuSans-28" d="M 1984 4856 
Q 1566 4138 1362 3434 
Q 1159 2731 1159 2009 
Q 1159 1288 1364 580 
Q 1569 -128 1984 -844 
L 1484 -844 
Q 1016 -109 783 600 
Q 550 1309 550 2009 
Q 550 2706 781 3412 
Q 1013 4119 1484 4856 
L 1984 4856 
z
" transform="scale(0.015625)"/>
      <path id="DejaVuSans-62" d="M 3116 1747 
Q 3116 2381 2855 2742 
Q 2594 3103 2138 3103 
Q 1681 3103 1420 2742 
Q 1159 2381 1159 1747 
Q 1159 1113 1420 752 
Q 1681 391 2138 391 
Q 2594 391 2855 752 
Q 3116 1113 3116 1747 
z
M 1159 2969 
Q 1341 3281 1617 3432 
Q 1894 3584 2278 3584 
Q 2916 3584 3314 3078 
Q 3713 2572 3713 1747 
Q 3713 922 3314 415 
Q 2916 -91 2278 -91 
Q 1894 -91 1617 61 
Q 1341 213 1159 525 
L 1159 0 
L 581 0 
L 581 4863 
L 1159 4863 
L 1159 2969 
z
" transform="scale(0.015625)"/>
      <path id="DejaVuSans-2c" d="M 750 794 
L 1409 794 
L 1409 256 
L 897 -744 
L 494 -744 
L 750 256 
L 750 794 
z
" transform="scale(0.015625)"/>
      <path id="DejaVuSans-43" d="M 4122 4306 
L 4122 3641 
Q 3803 3938 3442 4084 
Q 3081 4231 2675 4231 
Q 1875 4231 1450 3742 
Q 1025 3253 1025 2328 
Q 1025 1406 1450 917 
Q 1875 428 2675 428 
Q 3081 428 3442 575 
Q 3803 722 4122 1019 
L 4122 359 
Q 3791 134 3420 21 
Q 3050 -91 2638 -91 
Q 1578 -91 968 557 
Q 359 1206 359 2328 
Q 359 3453 968 4101 
Q 1578 4750 2638 4750 
Q 3056 4750 3426 4639 
Q 3797 4528 4122 4306 
z
" transform="scale(0.015625)"/>
      <path id="DejaVuSans-45" d="M 628 4666 
L 3578 4666 
L 3578 4134 
L 1259 4134 
L 1259 2753 
L 3481 2753 
L 3481 2222 
L 1259 2222 
L 1259 531 
L 3634 531 
L 3634 0 
L 628 0 
L 628 4666 
z
" transform="scale(0.015625)"/>
      <path id="DejaVuSans-6c" d="M 603 4863 
L 1178 4863 
L 1178 0 
L 603 0 
L 603 4863 
z
" transform="scale(0.015625)"/>
      <path id="DejaVuSans-29" d="M 513 4856 
L 1013 4856 
Q 1481 4119 1714 3412 
Q 1947 2706 1947 2009 
Q 1947 1309 1714 600 
Q 1481 -109 1013 -844 
L 513 -844 
Q 928 -128 1133 580 
Q 1338 1288 1338 2009 
Q 1338 2731 1133 3434 
Q 928 4138 513 4856 
z
" transform="scale(0.015625)"/>
     </defs>
     <use xlink:href="#DejaVuSans-50"/>
     <use xlink:href="#DejaVuSans-79" transform="translate(60.302734 0)"/>
     <use xlink:href="#DejaVuSans-54" transform="translate(119.482422 0)"/>
     <use xlink:href="#DejaVuSans-6f" transform="translate(163.566406 0)"/>
     <use xlink:href="#DejaVuSans-72" transform="translate(224.748047 0)"/>
     <use xlink:href="#DejaVuSans-63" transform="translate(263.611328 0)"/>
     <use xlink:href="#DejaVuSans-68" transform="translate(318.591797 0)"/>
     <use xlink:href="#DejaVuSans-3a" transform="translate(381.970703 0)"/>
     <use xlink:href="#DejaVuSans-20" transform="translate(415.662109 0)"/>
     <use xlink:href="#DejaVuSans-48" transform="translate(447.449219 0)"/>
     <use xlink:href="#DejaVuSans-69" transform="translate(522.644531 0)"/>
     <use xlink:href="#DejaVuSans-64" transform="translate(550.427734 0)"/>
     <use xlink:href="#DejaVuSans-64" transform="translate(613.904297 0)"/>
     <use xlink:href="#DejaVuSans-65" transform="translate(677.380859 0)"/>
     <use xlink:href="#DejaVuSans-6e" transform="translate(738.904297 0)"/>
     <use xlink:href="#DejaVuSans-20" transform="translate(802.283203 0)"/>
     <use xlink:href="#DejaVuSans-4c" transform="translate(834.070312 0)"/>
     <use xlink:href="#DejaVuSans-61" transform="translate(889.783203 0)"/>
     <use xlink:href="#DejaVuSans-79" transform="translate(951.0625 0)"/>
     <use xlink:href="#DejaVuSans-65" transform="translate(1010.242188 0)"/>
     <use xlink:href="#DejaVuSans-72" transform="translate(1071.765625 0)"/>
     <use xlink:href="#DejaVuSans-20" transform="translate(1112.878906 0)"/>
     <use xlink:href="#DejaVuSans-53" transform="translate(1144.666016 0)"/>
     <use xlink:href="#DejaVuSans-69" transform="translate(1208.142578 0)"/>
     <use xlink:href="#DejaVuSans-7a" transform="translate(1235.925781 0)"/>
     <use xlink:href="#DejaVuSans-65" transform="translate(1288.416016 0)"/>
     <use xlink:href="#DejaVuSans-20" transform="translate(1349.939453 0)"/>
     <use xlink:href="#DejaVuSans-28" transform="translate(1381.726562 0)"/>
     <use xlink:href="#DejaVuSans-62" transform="translate(1420.740234 0)"/>
     <use xlink:href="#DejaVuSans-69" transform="translate(1484.216797 0)"/>
     <use xlink:href="#DejaVuSans-6e" transform="translate(1512 0)"/>
     <use xlink:href="#DejaVuSans-61" transform="translate(1575.378906 0)"/>
     <use xlink:href="#DejaVuSans-72" transform="translate(1636.658203 0)"/>
     <use xlink:href="#DejaVuSans-79" transform="translate(1677.771484 0)"/>
     <use xlink:href="#DejaVuSans-20" transform="translate(1736.951172 0)"/>
     <use xlink:href="#DejaVuSans-73" transform="translate(1768.738281 0)"/>
     <use xlink:href="#DejaVuSans-65" transform="translate(1820.837891 0)"/>
     <use xlink:href="#DejaVuSans-61" transform="translate(1882.361328 0)"/>
     <use xlink:href="#DejaVuSans-72" transform="translate(1943.640625 0)"/>
     <use xlink:href="#DejaVuSans-63" transform="translate(1982.503906 0)"/>
     <use xlink:href="#DejaVuSans-68" transform="translate(2037.484375 0)"/>
     <use xlink:href="#DejaVuSans-2c" transform="translate(2100.863281 0)"/>
     <use xlink:href="#DejaVuSans-20" transform="translate(2132.650391 0)"/>
     <use xlink:href="#DejaVuSans-2d" transform="translate(2164.4375 0)"/>
     <use xlink:href="#DejaVuSans-43" transform="translate(2200.521484 0)"/>
     <use xlink:href="#DejaVuSans-45" transform="translate(2270.345703 0)"/>
     <use xlink:href="#DejaVuSans-20" transform="translate(2333.529297 0)"/>
     <use xlink:href="#DejaVuSans-6c" transform="translate(2365.316406 0)"/>
     <use xlink:href="#DejaVuSans-6f" transform="translate(2393.099609 0)"/>
     <use xlink:href="#DejaVuSans-73" transform="translate(2454.28125 0)"/>
     <use xlink:href="#DejaVuSans-73" transform="translate(2506.380859 0)"/>
     <use xlink:href="#DejaVuSans-29" transform="translate(2558.480469 0)"/>
    </g>
   </g>
   <g id="line2d_31">
    <defs>
     <path id="mc73d8362a7" d="M -3 3 
L 3 3 
L 3 -3 
L -3 -3 
z
" style="stroke: #795548; stroke-linejoin: miter"/>
    </defs>
    <g clip-path="url(#p3754ea0bf0)">
     <use xlink:href="#mc73d8362a7" x="80.749972" y="287.677969" style="fill: #795548; stroke: #795548; stroke-linejoin: miter"/>
    </g>
   </g>
   <g id="line2d_32">
    <g clip-path="url(#p3754ea0bf0)">
     <use xlink:href="#mc73d8362a7" x="486.568153" y="45.516719" style="fill: #795548; stroke: #795548; stroke-linejoin: miter"/>
    </g>
   </g>
   <g id="line2d_33">
    <defs>
     <path id="mbb34567e9b" d="M -3 3 
L 3 3 
L 3 -3 
L -3 -3 
z
" style="stroke: #4caf50; stroke-linejoin: miter"/>
    </defs>
    <g clip-path="url(#p3754ea0bf0)">
     <use xlink:href="#mbb34567e9b" x="283.659063" y="132.580618" style="fill: #4caf50; stroke: #4caf50; stroke-linejoin: miter"/>
    </g>
   </g>
   <g id="line2d_34">
    <g clip-path="url(#p3754ea0bf0)">
     <use xlink:href="#mbb34567e9b" x="385.113608" y="73.693685" style="fill: #4caf50; stroke: #4caf50; stroke-linejoin: miter"/>
    </g>
   </g>
   <g id="line2d_35">
    <g clip-path="url(#p3754ea0bf0)">
     <use xlink:href="#mbb34567e9b" x="334.386335" y="92.202854" style="fill: #4caf50; stroke: #4caf50; stroke-linejoin: miter"/>
    </g>
   </g>
   <g id="line2d_36">
    <g clip-path="url(#p3754ea0bf0)">
     <use xlink:href="#mbb34567e9b" x="308.204517" y="81.116378" style="fill: #4caf50; stroke: #4caf50; stroke-linejoin: miter"/>
    </g>
   </g>
   <g id="line2d_37">
    <g clip-path="url(#p3754ea0bf0)">
     <use xlink:href="#mbb34567e9b" x="321.295426" y="102.561179" style="fill: #4caf50; stroke: #4caf50; stroke-linejoin: miter"/>
    </g>
   </g>
   <g id="line2d_38">
    <g clip-path="url(#p3754ea0bf0)">
     <use xlink:href="#mbb34567e9b" x="314.749972" y="101.300571" style="fill: #4caf50; stroke: #4caf50; stroke-linejoin: miter"/>
    </g>
   </g>
   <g id="line2d_39">
    <g clip-path="url(#p3754ea0bf0)">
     <use xlink:href="#mbb34567e9b" x="318.022699" y="139.713749" style="fill: #4caf50; stroke: #4caf50; stroke-linejoin: miter"/>
    </g>
   </g>
   <g id="line2d_40">
    <g clip-path="url(#p3754ea0bf0)">
     <use xlink:href="#mbb34567e9b" x="316.386335" y="94.819367" style="fill: #4caf50; stroke: #4caf50; stroke-linejoin: miter"/>
    </g>
   </g>
   <g id="line2d_41">
    <defs>
     <path id="m6db65c6d7c" d="M -3 3 
L 3 3 
L 3 -3 
L -3 -3 
z
" style="stroke: #e91e63; stroke-linejoin: miter"/>
    </defs>
    <g clip-path="url(#p3754ea0bf0)">
     <use xlink:href="#m6db65c6d7c" x="435.840881" y="50.818697" style="fill: #e91e63; stroke: #e91e63; stroke-linejoin: miter"/>
    </g>
   </g>
   <g id="line2d_42">
    <g clip-path="url(#p3754ea0bf0)">
     <use xlink:href="#m6db65c6d7c" x="437.477244" y="59.983832" style="fill: #e91e63; stroke: #e91e63; stroke-linejoin: miter"/>
    </g>
   </g>
   <g id="line2d_43">
    <g clip-path="url(#p3754ea0bf0)">
     <use xlink:href="#m6db65c6d7c" x="439.113608" y="60.867611" style="fill: #e91e63; stroke: #e91e63; stroke-linejoin: miter"/>
    </g>
   </g>
   <g id="line2d_44">
    <g clip-path="url(#p3754ea0bf0)">
     <use xlink:href="#m6db65c6d7c" x="440.749972" y="84.785935" style="fill: #e91e63; stroke: #e91e63; stroke-linejoin: miter"/>
    </g>
   </g>
   <g id="line2d_45">
    <g clip-path="url(#p3754ea0bf0)">
     <use xlink:href="#m6db65c6d7c" x="442.386335" y="59.428664" style="fill: #e91e63; stroke: #e91e63; stroke-linejoin: miter"/>
    </g>
   </g>
   <g id="line2d_46">
    <g clip-path="url(#p3754ea0bf0)">
     <use xlink:href="#m6db65c6d7c" x="444.022699" y="64.132621" style="fill: #e91e63; stroke: #e91e63; stroke-linejoin: miter"/>
    </g>
   </g>
   <g id="line2d_47">
    <g clip-path="url(#p3754ea0bf0)">
     <use xlink:href="#m6db65c6d7c" x="445.659063" y="55.254392" style="fill: #e91e63; stroke: #e91e63; stroke-linejoin: miter"/>
    </g>
   </g>
   <g id="line2d_48">
    <g clip-path="url(#p3754ea0bf0)">
     <use xlink:href="#m6db65c6d7c" x="447.295426" y="59.094124" style="fill: #e91e63; stroke: #e91e63; stroke-linejoin: miter"/>
    </g>
   </g>
   <g id="line2d_49">
    <g clip-path="url(#p3754ea0bf0)">
     <use xlink:href="#m6db65c6d7c" x="448.93179" y="52.46494" style="fill: #e91e63; stroke: #e91e63; stroke-linejoin: miter"/>
    </g>
   </g>
   <g id="line2d_50">
    <g clip-path="url(#p3754ea0bf0)">
     <use xlink:href="#m6db65c6d7c" x="450.568153" y="62.069669" style="fill: #e91e63; stroke: #e91e63; stroke-linejoin: miter"/>
    </g>
   </g>
   <g id="line2d_51">
    <g clip-path="url(#p3754ea0bf0)">
     <use xlink:href="#m6db65c6d7c" x="452.204517" y="64.622194" style="fill: #e91e63; stroke: #e91e63; stroke-linejoin: miter"/>
    </g>
   </g>
   <g id="line2d_52">
    <g clip-path="url(#p3754ea0bf0)">
     <use xlink:href="#m6db65c6d7c" x="453.840881" y="62.466262" style="fill: #e91e63; stroke: #e91e63; stroke-linejoin: miter"/>
    </g>
   </g>
   <g id="line2d_53">
    <g clip-path="url(#p3754ea0bf0)">
     <use xlink:href="#m6db65c6d7c" x="455.477244" y="40.137903" style="fill: #e91e63; stroke: #e91e63; stroke-linejoin: miter"/>
    </g>
   </g>
   <g id="line2d_54">
    <g clip-path="url(#p3754ea0bf0)">
     <use xlink:href="#m6db65c6d7c" x="457.113608" y="63.608164" style="fill: #e91e63; stroke: #e91e63; stroke-linejoin: miter"/>
    </g>
   </g>
   <g id="line2d_55">
    <g clip-path="url(#p3754ea0bf0)">
     <use xlink:href="#m6db65c6d7c" x="458.749972" y="56.893799" style="fill: #e91e63; stroke: #e91e63; stroke-linejoin: miter"/>
    </g>
   </g>
   <g id="line2d_56">
    <g clip-path="url(#p3754ea0bf0)">
     <use xlink:href="#m6db65c6d7c" x="460.386335" y="66.155157" style="fill: #e91e63; stroke: #e91e63; stroke-linejoin: miter"/>
    </g>
   </g>
   <g id="line2d_57">
    <g clip-path="url(#p3754ea0bf0)">
     <use xlink:href="#m6db65c6d7c" x="462.022699" y="53.30095" style="fill: #e91e63; stroke: #e91e63; stroke-linejoin: miter"/>
    </g>
   </g>
   <g id="line2d_58">
    <g clip-path="url(#p3754ea0bf0)">
     <use xlink:href="#m6db65c6d7c" x="463.659063" y="62.555764" style="fill: #e91e63; stroke: #e91e63; stroke-linejoin: miter"/>
    </g>
   </g>
   <g id="line2d_59">
    <g clip-path="url(#p3754ea0bf0)">
     <use xlink:href="#m6db65c6d7c" x="465.295426" y="56.933424" style="fill: #e91e63; stroke: #e91e63; stroke-linejoin: miter"/>
    </g>
   </g>
   <g id="line2d_60">
    <g clip-path="url(#p3754ea0bf0)">
     <use xlink:href="#m6db65c6d7c" x="466.93179" y="65.405159" style="fill: #e91e63; stroke: #e91e63; stroke-linejoin: miter"/>
    </g>
   </g>
   <g id="line2d_61">
    <g clip-path="url(#p3754ea0bf0)">
     <use xlink:href="#m6db65c6d7c" x="468.568153" y="35.677969" style="fill: #e91e63; stroke: #e91e63; stroke-linejoin: miter"/>
    </g>
   </g>
   <g id="line2d_62">
    <g clip-path="url(#p3754ea0bf0)">
     <use xlink:href="#m6db65c6d7c" x="470.204517" y="63.09957" style="fill: #e91e63; stroke: #e91e63; stroke-linejoin: miter"/>
    </g>
   </g>
   <g id="line2d_63">
    <g clip-path="url(#p3754ea0bf0)">
     <use xlink:href="#m6db65c6d7c" x="471.840881" y="49.01693" style="fill: #e91e63; stroke: #e91e63; stroke-linejoin: miter"/>
    </g>
   </g>
   <g id="line2d_64">
    <g clip-path="url(#p3754ea0bf0)">
     <use xlink:href="#m6db65c6d7c" x="473.477244" y="52.098093" style="fill: #e91e63; stroke: #e91e63; stroke-linejoin: miter"/>
    </g>
   </g>
   <g id="line2d_65">
    <g clip-path="url(#p3754ea0bf0)">
     <use xlink:href="#m6db65c6d7c" x="475.113608" y="58.469879" style="fill: #e91e63; stroke: #e91e63; stroke-linejoin: miter"/>
    </g>
   </g>
   <g id="line2d_66">
    <g clip-path="url(#p3754ea0bf0)">
     <use xlink:href="#m6db65c6d7c" x="476.749972" y="54.635334" style="fill: #e91e63; stroke: #e91e63; stroke-linejoin: miter"/>
    </g>
   </g>
   <g id="line2d_67">
    <g clip-path="url(#p3754ea0bf0)">
     <use xlink:href="#m6db65c6d7c" x="478.386335" y="57.553694" style="fill: #e91e63; stroke: #e91e63; stroke-linejoin: miter"/>
    </g>
   </g>
   <g id="line2d_68">
    <g clip-path="url(#p3754ea0bf0)">
     <use xlink:href="#m6db65c6d7c" x="480.022699" y="53.851658" style="fill: #e91e63; stroke: #e91e63; stroke-linejoin: miter"/>
    </g>
   </g>
   <g id="line2d_69">
    <g clip-path="url(#p3754ea0bf0)">
     <use xlink:href="#m6db65c6d7c" x="481.659063" y="39.498207" style="fill: #e91e63; stroke: #e91e63; stroke-linejoin: miter"/>
    </g>
   </g>
   <g id="line2d_70">
    <g clip-path="url(#p3754ea0bf0)">
     <use xlink:href="#m6db65c6d7c" x="483.295426" y="47.462681" style="fill: #e91e63; stroke: #e91e63; stroke-linejoin: miter"/>
    </g>
   </g>
   <g id="line2d_71">
    <g clip-path="url(#p3754ea0bf0)">
     <use xlink:href="#m6db65c6d7c" x="484.93179" y="59.243756" style="fill: #e91e63; stroke: #e91e63; stroke-linejoin: miter"/>
    </g>
   </g>
   <g id="legend_1">
    <g id="patch_7">
     <path d="M 67.459063 60.434219 
L 138.484062 60.434219 
Q 140.484062 60.434219 140.484062 58.434219 
L 140.484062 30.077969 
Q 140.484062 28.077969 138.484062 28.077969 
L 67.459063 28.077969 
Q 65.459063 28.077969 65.459063 30.077969 
L 65.459063 58.434219 
Q 65.459063 60.434219 67.459063 60.434219 
z
" style="fill: #ffffff; opacity: 0.8; stroke: #cccccc; stroke-linejoin: miter"/>
    </g>
    <g id="line2d_72">
     <path d="M 69.459063 36.176406 
L 79.459063 36.176406 
L 89.459063 36.176406 
" style="fill: none; stroke: #2196f3; stroke-width: 2; stroke-linecap: square"/>
     <g>
      <use xlink:href="#m8b4d759baa" x="79.459063" y="36.176406" style="fill: #2196f3; stroke: #2196f3"/>
     </g>
    </g>
    <g id="text_18">
     <!-- f(K) -->
     <g transform="translate(97.459063 39.676406) scale(0.1 -0.1)">
      <defs>
       <path id="DejaVuSans-66" d="M 2375 4863 
L 2375 4384 
L 1825 4384 
Q 1516 4384 1395 4259 
Q 1275 4134 1275 3809 
L 1275 3500 
L 2222 3500 
L 2222 3053 
L 1275 3053 
L 1275 0 
L 697 0 
L 697 3053 
L 147 3053 
L 147 3500 
L 697 3500 
L 697 3744 
Q 697 4328 969 4595 
Q 1241 4863 1831 4863 
L 2375 4863 
z
" transform="scale(0.015625)"/>
       <path id="DejaVuSans-4b" d="M 628 4666 
L 1259 4666 
L 1259 2694 
L 3353 4666 
L 4166 4666 
L 1850 2491 
L 4331 0 
L 3500 0 
L 1259 2247 
L 1259 0 
L 628 0 
L 628 4666 
z
" transform="scale(0.015625)"/>
      </defs>
      <use xlink:href="#DejaVuSans-66"/>
      <use xlink:href="#DejaVuSans-28" transform="translate(35.205078 0)"/>
      <use xlink:href="#DejaVuSans-4b" transform="translate(74.21875 0)"/>
      <use xlink:href="#DejaVuSans-29" transform="translate(139.794922 0)"/>
     </g>
    </g>
    <g id="line2d_73">
     <path d="M 69.459063 50.854531 
L 79.459063 50.854531 
L 89.459063 50.854531 
" style="fill: none; stroke-dasharray: 7.4,3.2; stroke-dashoffset: 0; stroke: #f44336; stroke-width: 2"/>
    </g>
    <g id="text_19">
     <!-- K*=245 -->
     <g transform="translate(97.459063 54.354531) scale(0.1 -0.1)">
      <defs>
       <path id="DejaVuSans-2a" d="M 3009 3897 
L 1888 3291 
L 3009 2681 
L 2828 2375 
L 1778 3009 
L 1778 1831 
L 1422 1831 
L 1422 3009 
L 372 2375 
L 191 2681 
L 1313 3291 
L 191 3897 
L 372 4206 
L 1422 3572 
L 1422 4750 
L 1778 4750 
L 1778 3572 
L 2828 4206 
L 3009 3897 
z
" transform="scale(0.015625)"/>
       <path id="DejaVuSans-3d" d="M 678 2906 
L 4684 2906 
L 4684 2381 
L 678 2381 
L 678 2906 
z
M 678 1631 
L 4684 1631 
L 4684 1100 
L 678 1100 
L 678 1631 
z
" transform="scale(0.015625)"/>
      </defs>
      <use xlink:href="#DejaVuSans-4b"/>
      <use xlink:href="#DejaVuSans-2a" transform="translate(65.576172 0)"/>
      <use xlink:href="#DejaVuSans-3d" transform="translate(115.576172 0)"/>
      <use xlink:href="#DejaVuSans-32" transform="translate(199.365234 0)"/>
      <use xlink:href="#DejaVuSans-34" transform="translate(262.988281 0)"/>
      <use xlink:href="#DejaVuSans-35" transform="translate(326.611328 0)"/>
     </g>
    </g>
   </g>
  </g>
 </g>
 <defs>
  <clipPath id="p3754ea0bf0">
   <rect x="60.459063" y="23.077969" width="446.4" height="277.2"/>
  </clipPath>
 </defs>
</svg>
